<?xml version="1.0" encoding="utf-8"?>
<!-- Generator: Adobe Illustrator 21.0.1, SVG Export Plug-In . SVG Version: 6.00 Build 0)  -->
<svg version="1.1" id="Layer_1" xmlns="http://www.w3.org/2000/svg" xmlns:xlink="http://www.w3.org/1999/xlink" x="0px" y="0px"
	 viewBox="0 0 76.5 87.7" style="enable-background:new 0 0 76.5 87.7;" xml:space="preserve">
<style type="text/css">
	.st0{fill:#49555E;}
	.st1{fill:#00818C;}
</style>
<g>
	<polygon class="st0" points="49.5,53.8 40.2,53.8 45,58.6 32.4,71.2 19.9,58.6 35.2,42.7 26.4,42.7 10.5,58.6 32.4,80.5 54.3,58.6 
			"/>
	<path class="st1" d="M69.4,58.2c0-0.2-0.1-0.3-0.2-0.5c-0.1-0.2-0.2-0.3-0.4-0.5c-0.1-0.1-0.3-0.3-0.4-0.4l-0.1-0.1
		c-0.4-0.4-0.8-0.8-1.3-1.3c-0.5-0.4-0.9-0.8-1.3-1.2c-0.5-0.5-1.1-1-1.6-1.5c-0.5-0.5-1.1-1-1.7-1.6c-0.4-0.4-0.9-0.9-1.4-1.4
		c-0.5-0.5-0.9-1-1.3-1.4c-0.4-0.4-0.7-0.8-1.1-1.2c-0.4-0.4-0.7-0.7-1-1c0,0-3.4-3.3-3.4-3.3c-0.1-0.1-0.1-0.2-0.2-0.2
		c-0.1-0.1-0.2-0.1-0.3-0.1c-0.1,0-0.2,0-0.3,0h-0.1c-0.2,0-0.5,0-0.8,0c-0.3,0-0.5,0-0.7,0.1c-0.3,0-0.6,0.1-1,0.1
		c-0.3,0-0.6,0.1-1,0.1c-0.3,0-0.5,0-0.8,0c-0.3,0-0.6,0-0.8-0.1c-0.2,0-0.5-0.1-0.7-0.1c-0.2,0-0.4,0-0.6,0L45,42.7
		c0,0-0.9,0.1-1,0.2c-0.1,0.1-0.1,0.3,0,0.5c0.1,0.2,0.3,0.4,0.4,0.5c0.7,0.6,1.2,1.1,1.6,1.5c0.4,0.4,0.7,0.7,1,0.9
		c0.2,0.2,0.4,0.4,0.5,0.5c0.1,0.1,0.2,0.2,0.2,0.2c0.2,0.2,0.4,0.4,0.6,0.5c0.2,0.2,0.4,0.3,0.5,0.5l10,10
		c-0.2,0.2-0.5,0.4-0.7,0.6c-1,1-1.8,1.9-2.4,2.5c-0.6,0.6-1.1,1.1-1.4,1.5c-0.3,0.4-0.6,0.6-0.8,0.8c-0.2,0.2-0.3,0.3-0.4,0.4
		c-0.3,0.3-0.6,0.6-0.8,0.9c-0.3,0.3-0.5,0.5-0.8,0.8l-16,16c-0.4,0.4-0.5,0.7-0.6,0.9c0,0-0.1,0.2-0.1,0.3c0,0.1,0,0.2,0.1,0.2
		c0.2,0.2,0.4,0.3,0.6,0.5c0.1,0.1,0.3,0.2,0.4,0.3c0.1,0.1,0.2,0.1,0.2,0.1c0,0,0.1,0.1,0.1,0.1c0.1,0.1,0.1,0.1,0.2,0.2
		c0.1,0,0.1,0.1,0.2,0.1l3.5,3.5c0.1,0.1,0.2,0.1,0.3,0c0.1-0.1,0.2-0.1,0.3-0.2c0.1-0.1,0.5-0.6,0.6-0.7c0.3-0.2,0.5-0.4,0.8-0.7
		c0.3-0.3,0.5-0.5,0.8-0.8l0.2-0.2c0.7-0.7,1.5-1.5,2.3-2.3c0.8-0.8,1.5-1.6,2.2-2.3c0.9-1,1.9-2,2.8-2.9c0.9-1,1.9-2,2.9-3
		c0.8-0.8,1.6-1.6,2.5-2.5c0.9-0.9,1.8-1.7,2.6-2.5c0.7-0.7,1.4-1.4,2.1-2c0.7-0.7,1.3-1.3,1.9-1.9l6.8-7c0-0.1,0-0.2,0-0.3
		C69.4,58.3,69.4,58.2,69.4,58.2z M64.6,61.7c-0.7,0.7-1.3,1.3-1.7,1.8c-0.4,0.4-0.7,0.7-0.9,0.9c-0.2,0.2-0.3,0.3-0.4,0.4
		c-0.3,0.3-0.7,0.7-1,1c-0.3,0.3-0.6,0.6-0.9,0.9L40.8,85.7c-0.1,0.1-0.2,0.3-0.3,0.4c-0.2-0.1-0.3-0.2-0.5-0.3
		c-0.2-0.1-0.4-0.3-0.6-0.4c-0.2-0.1-0.4-0.3-0.6-0.5c-0.1-0.1-0.3-0.3-0.4-0.5c-0.2-0.2-0.3-0.4-0.4-0.5c-0.1-0.2-0.2-0.3-0.3-0.4
		c-0.1-0.1-0.2-0.2-0.3-0.3l-0.6-0.5c0.2-0.1,0.3-0.3,0.5-0.4c0.2-0.2,0.4-0.4,0.6-0.6l0.2-0.2c0.6-0.6,1.3-1.3,2-2
		c0.7-0.7,1.3-1.4,1.8-2c0.8-0.8,1.6-1.7,2.3-2.5c0.8-0.8,1.6-1.7,2.5-2.6c0.7-0.7,1.4-1.4,2.2-2.1c0.8-0.8,1.5-1.5,2.2-2.1
		c0.6-0.6,1.2-1.2,1.8-1.7c0.6-0.6,1.1-1.1,1.6-1.6l5.7-5.9c0.1,0,0.1-0.1,0.1-0.1c0.1-0.1,0.2-0.3,0.2-0.4c0-0.2-0.1-0.3-0.2-0.5
		c-0.1-0.2-0.2-0.3-0.4-0.5c-0.1-0.1-0.3-0.3-0.4-0.4l-0.1-0.1c-0.4-0.4-0.8-0.8-1.3-1.3c-0.5-0.4-0.9-0.8-1.3-1.2
		c-0.5-0.5-1.1-1-1.6-1.5c-0.5-0.5-1.1-1-1.7-1.6c-0.4-0.4-0.9-0.9-1.4-1.4c-0.5-0.5-0.9-1-1.3-1.4c-0.4-0.4-0.7-0.8-1.1-1.2
		c-0.4-0.4-0.7-0.7-1-1l-2.4-2.2c0.1,0,0.2,0,0.3,0c0.1,0,0.2,0,0.3,0c0.1,0,0.1,0,0.1,0c0.1,0,0.2,0,0.3,0c0.1,0,0.2,0,0.3,0h5.7
		c0,0.1,0.1,0.1,0.1,0.2c0.7,0.6,1.2,1.1,1.6,1.5c0.4,0.4,0.7,0.7,1,0.9c0.2,0.2,0.4,0.4,0.5,0.5c0.1,0.1,0.2,0.2,0.2,0.2
		c0.2,0.2,0.4,0.4,0.6,0.5c0.2,0.2,0.4,0.3,0.5,0.5L68,58.2c-0.2,0.2-0.4,0.4-0.6,0.5C66.2,60,65.3,61,64.6,61.7z"/>
	<g>
		<path class="st1" d="M1.9,36.6c-0.7-0.9-1.2-2.1-1.4-3.6c-0.2-1.4-0.4-2.8-0.4-4.1c0-0.7,0-1.3,0-1.7c0-0.5,0-0.9-0.1-1.3
			c0-0.2,0-0.5,0-0.7c0-0.2,0-0.4,0-0.6v-2.8c0-0.5,0-1,0-1.5c0-0.5,0-1,0-1.6c0-0.5,0-1.1,0-1.6c0-0.5,0.1-1,0.1-1.6
			c0.4-1.4,1.1-2.6,2.1-3.5s2.1-1.3,3.2-1.3c1.1,0,2.1,0.4,3,1.2l0.3,0.3c0.4,0.5,0.7,1,0.9,1.5c0.2,0.5,0.3,1.1,0.4,1.7v9.2
			c0,0.7,0,1.4,0,2c0,0.7,0,1.4,0.1,2c0,0.7,0.1,1.4,0.1,2.1c0,0.7,0,1.5,0,2.2v7.4c0,0.4,0,0.7,0,1.1s0,0.8,0.1,1.3
			c0,0.6,0.1,1.3,0.1,2c0,0.7,0,1.5,0,2.4c0,1.8-0.1,3.2-0.4,4.3c-0.2,1.1-0.6,2-1,2.6c-0.4,0.6-0.9,1-1.5,1.2
			C7.1,55.9,6.5,56,5.8,56c-0.7,0-1.5-0.2-2.4-0.6s-1.5-1-1.8-1.8c-0.2-0.5-0.4-0.9-0.5-1.3C1,52,0.9,51.5,0.8,50.9
			c-0.1-0.6-0.2-1.3-0.2-2.2c-0.1-0.9-0.1-2-0.2-3.5c0-0.4,0.2-0.7,0.4-0.9c0.6,0,0.9,0.3,1,0.9C1.9,45.8,2,46.6,2,47.4
			c0,0.8,0,1.7,0.1,2.5c0.1,0.9,0.2,1.7,0.5,2.4c0.2,0.7,0.6,1.3,1.1,1.8c0.5,0.5,1.2,0.7,2.1,0.7c0.4,0,0.9-0.1,1.3-0.3
			c0.4-0.2,0.7-0.5,1-1c0.2-0.2,0.4-0.9,0.6-2S9,48.9,9,47.1c0-0.4,0-1,0-1.6c0-0.6,0-1.3-0.1-2.1c0-1.1-0.1-2.2-0.1-3.4
			c0-1.2,0-2.4,0-3.5l0.1-0.3c-0.5,0.6-1,1.2-1.5,1.6c-0.5,0.5-1.3,0.7-2.1,0.7c-0.7,0-1.3-0.2-1.9-0.5C2.7,37.8,2.2,37.3,1.9,36.6
			L1.9,36.6z M1.5,28.7c0,1,0,1.8,0,2.6c0,0.7,0.1,1.3,0.2,1.8C1.9,33.6,2,34,2.2,34.5c0.2,0.5,0.4,1,0.8,1.4c0.3,0.4,0.6,0.8,1,1.1
			c0.3,0.3,0.7,0.5,1.1,0.5c0.5,0,1-0.2,1.4-0.6C7,36.5,7.3,36,7.6,35.3c0.3-0.7,0.5-1.4,0.7-2.2c0.2-0.8,0.3-1.7,0.3-2.6v-1.2
			c0-0.3,0-0.7,0-1c0-0.4,0-0.8,0-1.4c0-0.5,0-1,0-1.5c0-0.5,0-1,0.1-1.5c0-0.5,0.1-1.1,0.1-1.8c0-0.7,0-1.3,0-1.9
			c0-1.1,0-2.2-0.1-3.2c-0.1-1-0.2-1.9-0.4-2.6c-0.2-0.8-0.5-1.4-1-1.8s-1-0.7-1.8-0.7c-1.4,0-2.4,0.6-3,1.7
			c-0.6,1.1-0.9,2.6-0.9,4.3V28.7z"/>
		<path class="st1" d="M19.2,11.9c0.3,0.2,0.6,0.5,0.8,0.7c0.2,0.2,0.4,0.5,0.5,0.7c0,0,0,0.1,0,0.1s0,0,0,0.1v0.1
			c-0.3,0.1-0.5,0.2-0.6,0.2c-0.5,0-0.8-0.1-0.7-0.2c0-0.1,0-0.2-0.2-0.3v0.1c-0.1,0-0.2-0.1-0.3-0.3c-0.3-0.2-0.7-0.4-1.1-0.6
			c-0.4-0.2-0.7-0.3-0.9-0.3h-0.3c-0.7,0.3-1.2,0.9-1.4,1.8c-0.2,0.8-0.3,1.7-0.3,2.6c0,0.5-0.1,1-0.1,1.5c0,0.5,0,1,0,1.5
			c0,0.9,0,1.7,0,2.6s0,1.7,0.1,2.6c0,0.9,0,1.7,0,2.6s0,1.7,0,2.5c0,1.2,0,2.4-0.1,3.7s-0.1,2.5-0.3,3.7c-0.1,0.4-0.2,0.6-0.5,0.6
			c-0.2,0-0.4-0.1-0.5-0.2c-0.2-0.2-0.3-0.3-0.3-0.5c0-0.2,0-0.4,0-0.7v-6.4c0-0.9,0-1.9,0.1-2.8c0-0.9,0.1-1.9,0.1-2.8
			c0-0.8,0-1.7,0-2.5c0-0.8,0-1.7-0.1-2.5V18c0-0.2,0-0.5,0-0.7c0-0.3,0-0.5,0-0.8c0-0.6,0-1.1,0.1-1.6c0.1-0.5,0.2-1,0.4-1.5
			c0.3-0.8,0.8-1.4,1.4-1.8c0.6-0.4,1.3-0.7,2-0.7c1,0,1.7,0.3,2.2,0.9V11.9z M20.6,13.3c0,0.1,0,0.1,0,0.2c0,0,0,0.1,0,0.2v-0.2
			C20.5,13.4,20.5,13.4,20.6,13.3C20.6,13.4,20.6,13.4,20.6,13.3z M20.6,13.4C20.6,13.4,20.6,13.4,20.6,13.4c0-0.1,0-0.1,0-0.1
			C20.6,13.3,20.6,13.3,20.6,13.4l-0.1-0.1l0.1-0.1V13.4z"/>
		<path class="st1" d="M29.1,28.6c0,0.8,0,1.7,0.1,2.7c0.1,1,0.1,2,0.1,2.9c0,0.6,0,1.1-0.1,1.6c-0.1,0.5-0.2,1-0.6,1.4
			s-0.8,0.7-1.4,1c-0.6,0.2-1.4,0.4-2.5,0.4h-0.3c-0.6-0.1-1.1-0.3-1.6-0.7c-0.5-0.4-0.9-0.8-1.2-1.4c-0.3-0.5-0.6-1.1-0.7-1.8
			c-0.2-0.7-0.3-1.3-0.3-1.9c0-2,0.4-3.7,1.1-5c0.8-1.3,2.2-2.3,4.2-2.9c0,0,0.2,0,0.4,0c0.2,0,0.4-0.1,0.6-0.2
			c0.2-0.1,0.4-0.3,0.6-0.6c0.2-0.3,0.3-0.7,0.3-1.2v-4.2c0,0,0-0.1,0-0.1c0,0,0-0.1,0-0.2v-0.3c0-0.5,0-1.1-0.1-1.8
			c-0.1-0.7-0.2-1.3-0.4-1.9c-0.2-0.6-0.3-1-0.6-1.4s-0.5-0.6-0.9-0.6c-0.2,0-0.4,0.1-0.7,0.2c-0.3,0.2-0.5,0.3-0.8,0.6
			c-0.3,0.2-0.5,0.5-0.8,0.8c-0.3,0.3-0.5,0.5-0.6,0.8c-0.2,0.2-0.3,0.5-0.5,0.7c-0.2,0.2-0.4,0.3-0.7,0.3c-0.3,0-0.5-0.2-0.5-0.7
			c0-0.6,0.2-1.2,0.5-1.6c0.3-0.5,0.8-0.9,1.2-1.3c0.5-0.3,1-0.6,1.4-0.8c0.5-0.2,0.9-0.3,1.2-0.3c0.7,0,1.3,0.2,1.8,0.7
			c0.5,0.5,0.8,1.1,1.1,2c0.3,0.8,0.4,1.8,0.6,2.9c0.1,1.1,0.2,2.3,0.2,3.5c0,0.8,0,1.6,0,2.5c0,0.9,0,1.8,0,2.6V28.6z M27,36.9
			c0.4-0.2,0.7-0.7,0.8-1.3c0.1-0.6,0.2-1.3,0.2-2c0-0.3,0-0.8,0-1.4c0-0.6,0-1.2-0.1-1.9c0-0.6,0-1.2-0.1-1.7c0-0.5,0-0.8,0-1v-1.7
			c-0.9,0-1.8,0.2-2.7,0.6c-0.9,0.4-1.7,1.2-2.3,2.3v0.1c-0.2,0.5-0.4,1.1-0.5,1.7c-0.1,0.6-0.2,1.3-0.2,2c0,0.5,0,1,0.1,1.5
			s0.2,0.9,0.4,1.2v0.1c0.6,0.7,1,1.2,1.2,1.5c0.2,0.3,0.7,0.5,1.3,0.5h0.4c0.1,0,0.3,0,0.6-0.1C26.3,37.1,26.6,37,27,36.9z"/>
		<path class="st1" d="M40.3,4.7c0,0.1,0.1,0.2,0.1,0.3v0.3v0.2c0,0.2-0.2,0.3-0.6,0.3c-0.2,0-0.3,0-0.5-0.1C39.1,5.5,39,5.4,39,5.2
			V5.2c-0.2-1.3-0.6-2.3-1.1-3c-0.5-0.7-1-1-1.5-1c-0.6,0-1,0.2-1.4,0.6c-0.4,0.4-0.8,1.1-1.3,2v0.1c-0.2,0.6-0.4,1.4-0.5,2.4
			c-0.1,1-0.1,2-0.1,3v1.9c0,0.3,0,0.6,0,0.9c0,0.3,0,0.7,0,1.1c0,0.2,0,0.3,0,0.5s0,0.4,0,0.6c0,0.3,0,0.6,0,1
			c0,0.4,0.1,0.9,0.1,1.6V20c0.4,0,0.9,0,1.3-0.1c0.4,0,1-0.1,1.7-0.1c1.1,0,1.7,0.1,1.8,0.3v0l0.1,0.4c0,0.2-0.1,0.3-0.4,0.3
			c-0.3,0-0.5,0.1-0.7,0.1C36.6,21,36.3,21,36,21s-0.4,0-0.6,0c-0.5,0-0.9,0-1.2,0.1c-0.3,0-0.7,0.1-1,0.2v0.5c0,1,0,2,0,2.9
			s0,1.9,0.1,3v6.1c0,0.2,0,0.5,0,0.7c0,0.2,0,0.4,0.1,0.7v0.7c0,0.6,0,1.1-0.1,1.6c0,0.4-0.1,0.8-0.3,1.1c-0.3,0-0.6-0.1-0.8-0.2
			s-0.4-0.3-0.4-0.5v-0.2c0-0.1,0-0.3,0-0.6c0-0.2,0-0.5,0-0.9c0,0,0-0.2,0-0.6c0-0.4,0.1-0.8,0.1-1.3c0-0.5,0.1-1.1,0.1-1.8
			c0-0.7,0-1.3,0-2c0-0.6,0-1.2,0-1.8c0-0.6-0.1-1.2-0.1-1.8c0-0.6-0.1-1.3-0.1-2.1c0-0.7,0-1.6,0-2.5v-1.2c0-0.2,0-0.4,0-0.8
			c0-0.4,0-0.8,0-1.3c0-0.5,0-1.1,0-1.6c0-0.6,0-1.2,0-1.8v-4.5c0-1.7,0-3.2,0.1-4.5c0-1.2,0.2-2.2,0.4-3V3.6
			c0.3-0.9,0.7-1.8,1.3-2.4c0.6-0.7,1.6-1,3-1c0.3,0,0.6,0.1,1,0.3c0.4,0.2,0.8,0.5,1.1,0.8c0.4,0.4,0.7,0.8,1,1.3s0.5,1.1,0.6,1.8
			V4.7z"/>
		<path class="st0" d="M45.7,3.4h-5.1V0h14.1v3.4h-5.2v31h5.2v3.4H40.6v-3.4h5.1V3.4z"/>
		<path class="st0" d="M64.7,3.4h-8.2V0h20v3.4h-8v44l-3.8-3.8V3.4z"/>
	</g>
</g>
</svg>
