<?xml version="1.0" encoding="utf-8"?>
<!-- Generator: Adobe Illustrator 16.0.0, SVG Export Plug-In . SVG Version: 6.00 Build 0)  -->
<!DOCTYPE svg PUBLIC "-//W3C//DTD SVG 1.1//EN" "http://www.w3.org/Graphics/SVG/1.1/DTD/svg11.dtd">
<svg version="1.1" id="Warstwa_1" xmlns="http://www.w3.org/2000/svg" xmlns:xlink="http://www.w3.org/1999/xlink" x="0px" y="0px"
	 width="23.001px" height="24.492px" viewBox="0.5 -0.499 23.001 24.492" enable-background="new 0.5 -0.499 23.001 24.492"
	 xml:space="preserve">
<path fill="#D9D9D9" d="M1,23.993c-0.129,0-0.258-0.05-0.356-0.148c-0.194-0.196-0.192-0.514,0.005-0.708l8-7.89
	c0.196-0.192,0.513-0.19,0.707,0.005c0.194,0.197,0.192,0.514-0.005,0.708l-8,7.89C1.254,23.945,1.127,23.993,1,23.993z
	 M5.241,23.548c-0.127,0-0.253-0.048-0.351-0.144c-0.197-0.194-0.199-0.512-0.005-0.707l4.439-4.504
	c0.194-0.197,0.51-0.197,0.707-0.006c0.197,0.191,0.199,0.512,0.005,0.707l-4.439,4.504C5.5,23.498,5.37,23.548,5.241,23.548z
	 M2.024,19.275c-0.135,0-0.271-0.058-0.369-0.162c-0.186-0.203-0.172-0.521,0.032-0.706l5.742-5.246
	c0.204-0.187,0.52-0.175,0.707,0.032c0.186,0.203,0.172,0.52-0.032,0.705l-5.742,5.246C2.266,19.232,2.145,19.275,2.024,19.275z
	 M12,18.5c-0.048,0-0.096-0.007-0.144-0.021C11.645,18.415,11.5,18.221,11.5,18v-5.499c0-0.202,0.122-0.384,0.308-0.461
	s0.401-0.035,0.543,0.106l2.192,2.176c0.168,0.167,0.195,0.431,0.063,0.63l-2.191,3.323C12.323,18.418,12.165,18.5,12,18.5z
	 M12.5,13.701v2.634l1.051-1.592L12.5,13.701z M18.5,17c-0.121,0-0.238-0.044-0.334-0.127l-6.097-5.43
	c-0.101-0.09-0.161-0.217-0.167-0.353c-0.006-0.136,0.043-0.267,0.137-0.365l2.549-2.689l-3.894,2.69
	c-0.117,0.082-0.265,0.107-0.402,0.075L4.882,9.486c-0.204-0.05-0.355-0.221-0.379-0.43C4.48,8.848,4.589,8.646,4.776,8.553l18-9
	c0.182-0.087,0.391-0.063,0.541,0.063c0.152,0.125,0.221,0.328,0.166,0.518l-4.5,16.5c-0.047,0.167-0.174,0.3-0.34,0.351
	C18.596,16.993,18.547,17,18.5,17z M13.12,11.04l5.108,4.55l3.994-14.643L6.444,8.837l3.867,0.94l7.66-5.293
	c0.209-0.146,0.494-0.109,0.662,0.086c0.166,0.194,0.16,0.483-0.016,0.669L13.12,11.04z"/>
</svg>
