<?xml version="1.0" encoding="utf-8"?>
<!-- Generator: Adobe Illustrator 16.0.0, SVG Export Plug-In . SVG Version: 6.00 Build 0)  -->
<!DOCTYPE svg PUBLIC "-//W3C//DTD SVG 1.1//EN" "http://www.w3.org/Graphics/SVG/1.1/DTD/svg11.dtd">
<svg version="1.1" id="Warstwa_1" xmlns="http://www.w3.org/2000/svg" xmlns:xlink="http://www.w3.org/1999/xlink" x="0px" y="0px"
	 width="19.276px" height="25.114px" viewBox="2.498 -0.614 19.276 25.114" enable-background="new 2.498 -0.614 19.276 25.114"
	 xml:space="preserve">
<path fill="#D9D9D9" d="M15.563,24.5c-4.841,0-10.707-7.771-12.521-14.455C1.928,5.945,2.537,2.97,4.756,1.669L5.91,1.026
	C6.15,0.895,6.452,0.978,6.587,1.214l3.714,6.468c0.067,0.115,0.084,0.254,0.048,0.383s-0.122,0.237-0.239,0.304L8.971,8.999
	c-0.305,0.185-0.333,0.919-0.058,1.908c0.725,2.605,3.07,5.81,4.257,5.81c0.075,0,0.138-0.016,0.197-0.048l1.158-0.643
	c0.24-0.13,0.539-0.048,0.678,0.188l3.711,6.461c0.064,0.116,0.084,0.256,0.048,0.385s-0.122,0.237-0.24,0.304l-1.193,0.657
	C16.914,24.341,16.256,24.5,15.563,24.5z M5.965,2.14L5.251,2.537C2.84,3.951,3.436,7.684,4.005,9.783
	C5.693,15.996,11.225,23.5,15.563,23.5c0.532,0,1.034-0.121,1.494-0.358l0.737-0.407l-3.213-5.593l-0.731,0.403
	c-0.209,0.114-0.437,0.172-0.68,0.172c-1.976,0-4.489-3.906-5.221-6.542C7.413,9.244,7.936,8.455,8.47,8.134L9.18,7.74L5.965,2.14z
	 M19.591,22.826c-0.043,0-0.087-0.007-0.13-0.018c-0.128-0.035-0.237-0.119-0.304-0.233l-3.715-6.468
	c-0.137-0.237-0.056-0.543,0.185-0.683l1.68-0.976c0.114-0.065,0.252-0.084,0.38-0.052c0.129,0.035,0.238,0.119,0.307,0.233
	l3.715,6.468c0.137,0.237,0.056,0.543-0.185,0.683l-1.682,0.976C19.765,22.804,19.678,22.826,19.591,22.826z M16.56,16.042
	l3.215,5.601l0.816-0.475l-3.217-5.601L16.56,16.042z M10.979,7.828c-0.043,0-0.087-0.006-0.129-0.018
	c-0.128-0.034-0.238-0.119-0.304-0.233L6.831,1.111C6.694,0.872,6.775,0.567,7.014,0.429l1.68-0.976
	c0.115-0.065,0.253-0.084,0.382-0.051c0.128,0.034,0.236,0.119,0.304,0.234l3.716,6.466c0.137,0.238,0.056,0.543-0.183,0.683
	L11.229,7.76C11.152,7.805,11.066,7.828,10.979,7.828z M7.946,1.044l3.218,5.6l0.814-0.474l-3.217-5.6L7.946,1.044z"/>
</svg>
