<?xml version="1.0" encoding="utf-8"?>
<!-- Generator: Adobe Illustrator 21.0.1, SVG Export Plug-In . SVG Version: 6.00 Build 0)  -->
<svg version="1.1" id="Layer_1" xmlns="http://www.w3.org/2000/svg" xmlns:xlink="http://www.w3.org/1999/xlink" x="0px" y="0px"
	 viewBox="0 0 161.7 122.6" style="enable-background:new 0 0 161.7 122.6;" xml:space="preserve">
<style type="text/css">
	.st0{fill:#37BFC5;}
	.st1{fill:#19645E;}
	.st2{fill:#FFFFFF;}
	.st3{enable-background:new    ;}
	.st4{fill:#4C4C4C;}
</style>
<g>
	<g>
		<g>
			<g>
				<g>
					<circle class="st0" cx="83.8" cy="35.8" r="35.8"/>
				</g>
				<g>
					<path class="st1" d="M86.3,3.3c0.8-0.1,1.6-0.2,2.4-0.3c-0.1,0-0.2,0-0.2,0c-0.4,0-0.8,0-1.3,0l0,0c-0.1,0-0.2,0-0.3,0H87
						c-0.8,0-1.7-0.1-2.5-0.1c-0.3,0-0.7,0-1,0l0,0C83,3,81.9,3.2,81.2,3.4c-1.2,0.3-1,0.7-1.4,1.2v0.1l0,0l0,0l0,0l0,0
						c0,0.1,0.5,0.2,0.9,0.1c0.5-0.1,1.1-0.3,1.6-0.4c0.8-0.2,1.1-0.5,2-0.7C84.9,3.4,85.5,3.3,86.3,3.3z"/>
					<path class="st1" d="M91,2.9c0.7,0,1.2,0,1.9,0c0.8,0,1.8,0.1,2.6,0.2c0.6,0,1.1,0,1.6,0c0.4,0,0.9,0,1.3,0
						c-0.5-0.2-1-0.4-1.4-0.6l0,0c-0.1,0-0.2-0.1-0.4-0.1s-0.3,0-0.4,0c-0.4,0-1.3,0-1.6,0c-0.3,0,0.1,0,0.3,0c0.1,0,0.6,0,0.1,0.1
						c-0.4,0-0.7,0-0.9,0c-0.3,0-0.6,0-0.8,0c-0.3,0.1,0.1,0.1,0.4,0.1c0.4,0,0,0.1-0.4,0.1c-0.7,0-1.3,0-2,0.1
						c-0.8,0-1.7,0.1-2.6,0.2C89.4,2.9,90.2,2.9,91,2.9z"/>
					<path class="st1" d="M100.7,8c-0.5,0.2-1,0.2-1.5,0.3s-0.9,0.2-1.5,0.2c-0.1,0.3-0.1,0.5,0.1,0.7s0.5,0.4,0.6,0.7
						c0.4,0.5,0.3,1.2-0.7,1.5c-0.9,0.2-1.9-0.1-2.8,0c-0.3,0-0.9,0-1.1,0.3c-0.3,0.3,0.2,0.7,0.4,0.9c0.1,0.1,0.4,0.3,0.6,0.4
						c0.3,0.4-0.3,1.2-0.6,1.6c-0.1,0.2-0.7,0.5-0.7,0.7c-0.3,0.8,0.8,1.3,1.5,1.4c0.6,0.1,1.6,0.4,2.3,0.2c0.7-0.2,1.4-1.1,1.7-1.6
						c0.5-0.8,0.4-1.2,1.4-1.7c0.4-0.2,0.8-0.2,1.1-0.5c0.3-0.3,0.3-0.7,0.7-1c0.5-0.3,1.6-0.1,2.2-0.4c1-0.4,1.1-0.6,2.1-0.1
						c0.9,0.5,1.7,1,2.5,1.6c0.6,0.4,0.4,0.4,0.6,1c0.1,0.4,0.4,1,0.8,1.3c0.5-0.4,0.9-1,0.8-1.5c0.3,0,0.7,0,1,0
						c-0.3-0.4-0.7-0.8-1-1.2c-1.3-0.6-3.3-0.9-3-2c0.6-0.1,0.7,0.1,1.1,0.3c0.1,0,0.3,0.1,0.4,0.1c-1.6-1.7-3.4-3.2-5.4-4.5
						c-0.1,0.1-0.1,0.3-0.3,0.4c-0.1,0-0.2,0-0.2,0.1h-0.1l0,0c-0.3,0-0.5,0.1-0.7,0.2C102.1,7.3,101.4,7.7,100.7,8z"/>
					<path class="st1" d="M57.6,11.5c-0.3,0.3-0.6,0.7-0.9,1l0,0c-2.2,2.6-4,5.4-5.4,8.5c0,0,0,0,0,0.1c-0.2,0.4-0.3,0.8-0.5,1.1
						c0.4-0.5,0.7-1.2,1.2-1.5c0.4-0.3,0.9-0.5,1.3-1.1c0.4-0.6,0.4-2,1.2-2.3c0.2-0.1,0.2,0.2,0.4,0.1s0.7-0.6,0.9-0.8
						c0.5-0.5,0.7-0.6,1.3-0.7c0.5-0.1,1-0.3,1.5-0.9c0.2-0.2,0.2-0.4,0.4-0.6c0.4-0.4,0.3-0.2,0.7-0.3c0.6-0.2,1.2-0.7,1.9-1
						c0.3-0.1,1.2-0.5,1.2-0.3c0,0.4-0.9,0.4-1.2,0.7c-0.8,0.9,1.2-0.3,1.4-0.4c0.5-0.2,1.6-0.2,1.8-1c-0.3,0-0.5,0.1-0.8,0.1
						c-0.4,0.1-0.4,0.2-0.5-0.1s0-0.6,0.5-0.9c0.6-0.4,0.9-0.6,0.1-0.6c-0.2,0-0.5,0-0.7,0.1c-0.1,0-0.7,0.4-0.7,0.4
						c-0.5-0.1,0.7-0.7,0.9-0.8c0.5-0.2,1-0.3,1.5-0.4c0.9-0.2,1.7,0.2,2.7-0.3c0.3-0.1,0.5-0.3,0.8-0.4c0.3-0.1,0.6-0.2,0.8-0.3
						c0.5-0.2,1.1-0.4,1.5-0.8c0.7-0.7-0.8-0.3-1.2-0.3c0.1-0.1,0.5-0.3,0.6-0.4c0.2-0.2,0-0.2,0-0.4c0-0.3,0.5-0.6,0.9-0.9
						c0.4-0.3,0.7-0.6,0.4-0.7c-0.4-0.1-1,0.3-1.5,0.5C69.8,6,69.2,6.2,69.2,6c0-0.1,0.5-0.5,0.6-0.7C70,5,69.8,5,69.3,5
						c-0.3,0-0.7,0-1.1,0.1c-0.4,0.1-0.9,0.2-1.3,0.5c-0.4,0.4-0.4,0.5-0.7,0.6s-0.6,0.2-0.8,0.3c-0.7,0.3-0.5,0.3-0.8,0.6
						c-0.3,0.3-0.8,0.6-1.4,0.8c-0.5,0.2-0.8,0.3-1.2,0.6c-0.3,0.1-0.4,0.2-0.7,0.4c-0.2,0.2-0.3,0.3-0.6,0.5
						c-0.4,0.3-1,0.8-1.4,0.7c-0.3,0-0.2-0.3,0.1-0.6l0.1-0.1c-0.3,0.3-0.6,0.6-0.9,0.9c-0.1,0.1-0.1,0.1-0.2,0.2
						C58.2,10.8,57.9,11.1,57.6,11.5C57.6,11.4,57.6,11.4,57.6,11.5z"/>
					<path class="st1" d="M72.3,69c-0.5-0.1-0.3-0.2-0.8-0.3c-0.6-0.2-1.4-0.3-1.9-0.6c0.3,0,0.9,0.3,0.9,0.1c0-0.1-0.4-0.2-0.4-0.3
						c0-0.1,0.3,0,0.5,0c0.6,0,1.2-0.2,0.1-0.7c-0.2-0.1-1.4-0.5-1-0.5c0.1,0,0.6,0.2,0.8,0.2C70.8,67,71,67,71.2,67
						c0.4-0.1,0.4-0.3,0.2-0.6c-0.1-0.3-0.1-0.3,0-0.5c0.4-0.4,0-1-0.6-1.8c-0.6-0.7-1.2-1.5,0-1.5c0.3,0,0.4,0,0.6,0
						c0.2-0.1,0.3-0.2,0.5-0.2c0.6,0,0.6-0.2,0.7-0.6c0-0.4,0.1-0.7,0.1-1.1c0-0.6-0.2-1-0.4-1.7c-0.1-0.5-0.1-1-0.3-1.5
						c-0.1-0.5-0.4-1.1-0.2-1.5s0.6-0.5,0.8-1.1c0.2-0.9,0.5-1.5,0.3-2.5c-0.1-0.4-0.1-1.1-0.3-1.5c-0.3-0.6-0.6-0.3-1.1-0.5
						c-1-0.3-1.2-1.9-2.3-2.1c-0.5-0.1-0.9,0-1.3-0.1c-0.6-0.1-1-0.1-1.6-0.1c0-0.7-0.9-1.1-1.3-1.4c-0.3-0.2-0.2-0.2-0.5-0.2
						c-0.1,0-0.3,0.1-0.4,0.2c-0.3,0.2-0.5,0.3-0.7,0.5c-0.1-0.4,0.2-0.7,0-1.1c-1.2-0.6-1.5,0.4-2.2,1.1c-0.3-0.6-0.1-0.8,0.2-1.2
						c0.2-0.3,0.3-0.5,0.3-1c0-0.9-0.5-1.9-0.8-2.7c-0.2-0.8-0.5-0.7-1-0.7c-0.4,0-0.8,0-1.2-0.1c-1.5-0.5-2.1-2.5-3.3-3.1
						c-0.6-0.3-1.2-0.4-1.8-0.5c-0.3-0.1-0.5-0.2-0.8-0.3c-0.4-0.2-0.5-0.5-0.7-0.8c-0.3-0.3-0.5-0.2-0.8-0.1
						c-0.2,0.1-0.8,0.6-0.4,0.9c0,0.2,0.1,0.6,0,0.9c-0.1,0.4-0.4,0.3-0.5,0.6c-0.3-0.4-0.4-0.9-0.3-1.4c0.1-0.5,0.5-0.8,0.4-1.3
						c-0.3-0.1-0.5,0.5-0.8,0.6c-0.2,0.2-0.5,0.3-0.7,0.6c-0.1,0.1-0.2,0.2-0.3,0.4s-0.1,0.5-0.2,0.6c-0.1,0.1-0.2,0.2-0.3,0.2
						c-0.2,0.1-0.1,0.1-0.2,0c0.1,0.8,0.2,1.6,0.3,2.4c0,0.1,0,0.2,0,0.2c1,6.2,3.5,11.9,7.3,16.6c0.5,0.4,0.9,0.8,1.1,1.4
						c3.8,4.4,8.7,7.8,14.3,9.9c0.9,0.1,2,0.2,3.1,0.1c0,0,0,0,0.1,0c0,0-0.1,0-0.3-0.1C73.6,69.2,72.8,69.1,72.3,69z"/>
					<path class="st1" d="M66.5,4.8c0.3,0,0.6-0.1,0.9-0.1c0.4-0.1,0.8-0.2,1.2-0.2c0.1,0,0.2,0,0.4,0c0.1,0,0.1,0,0.2,0
						c0.1,0,0.2,0,0.2,0c0.1,0,0.1,0,0.2,0l0,0c0.2,0,0.4-0.1,0.6-0.1c0.3-0.1,0.8-0.3,1-0.4c-0.3,0-0.4,0-0.8,0
						c-0.4,0.1-0.8,0.2-1.1,0.3c-0.1,0-0.2,0-0.3,0.1l0,0c-0.1,0-0.1,0-0.2,0l0,0c-0.3,0-0.2-0.1,0.2-0.2c-0.3,0-0.8,0.1-0.6,0
						c0.2-0.1,1-0.3,0.6-0.3c-0.3,0-1.2,0.2-1.6,0.3c-0.3,0.1-0.4,0.2-0.7,0.3c-0.6,0.3-1.2,0.7-1.8,1c0.5-0.1,1.1-0.2,1.6-0.4
						C66.5,4.9,66.1,5,66.5,4.8z"/>
					<path class="st1" d="M69.4,9.3c0.1-0.1,0.3-0.2,0-0.2c-0.2,0-0.3,0.1-0.4,0.2c-0.6,0.2-1.1,0.8-1.5,1.1
						c-0.2,0.1-0.8,0.3-0.5,0.4c0.3,0.1,0.8-0.3,1.1-0.2c0.3,0,0.3,0.2,0.7,0.1c0.3-0.1,0.8-0.3,0.9-0.6c0.2-0.3-0.4-0.1-0.6-0.2
						c-0.1-0.1-0.1-0.2,0-0.3C69.2,9.5,69.3,9.5,69.4,9.3z"/>
					<path class="st1" d="M76.4,3.3c-0.3,0-0.5,0-0.4,0c0.1-0.1,0.2-0.1-0.3,0c-0.4,0-0.7,0.1-0.8,0c-0.2,0,0-0.1-0.3,0
						c-0.3,0-0.5,0-1,0.1c-0.2,0-1,0.1-1,0.1c-0.1,0,0.8-0.1,0.9-0.1c0.3-0.1-0.6,0-0.8,0.1c-0.4,0-0.9,0.1-1.4,0.2
						c-0.5,0.1-0.8,0.1-0.6,0.2c0.2,0,0.4,0,0.7,0c0.3,0,0.5,0,0.7,0s0.2,0,0.4,0c0.3,0,0.8-0.1,1.1-0.2c0.3,0,0.5,0,0.5,0.1
						c0,0-0.2,0.1-0.1,0.2c0,0,0.2,0,0.2,0.1c0.1,0,0,0.1-0.4,0.2c-0.4,0.1-0.5,0.1-0.6,0.1c-0.1,0-0.2-0.1-0.4,0
						c-0.1,0-0.3,0-0.4,0.1c-0.1,0-0.1,0-0.2,0l0,0c-0.1,0-0.3,0.1-0.4,0.1c-0.3,0.1-0.7,0.2-0.9,0.3c-0.4,0.1-0.7,0-1.1,0.1
						c-0.2,0.1-0.4,0.1-0.3,0.2c0.1,0,0.5-0.1,0.7-0.1c0.3,0,0.7-0.1,0.8,0s-0.1,0.2-0.1,0.3c0.1,0.1,0.3,0.2,0.7,0.1
						c0.2,0,0.4,0,0.6-0.2c0.1-0.1-0.3,0-0.3-0.1c0,0,0.3-0.2,0.4-0.2c0.3-0.1,0.3,0,0.4,0c0.1,0,0.6,0,1-0.2
						c0.2-0.1,0.1-0.1,0.1-0.2c0.1-0.1,0.1-0.1,0.3-0.2c0.7-0.4,1-0.2,1.4-0.1c0.3,0,1-0.2,1-0.3c0-0.1-0.5,0-0.5-0.1l0,0l0,0l0,0
						l0,0l0,0l0,0l0,0h0.1c0.1,0,0.4-0.1,0.5-0.1C76.8,3.3,76.5,3.3,76.4,3.3z"/>
					<path class="st1" d="M83.4,2.8c-0.4,0-1.8,0.1-1.8,0.1c0.1,0,0.8,0,1.1,0C83,2.9,83.2,2.9,83.4,2.8c0.3,0,0.7,0,0.7,0
						C84.1,2.7,83.9,2.7,83.4,2.8z"/>
					<path class="st1" d="M92.9,6.2c0.2,0,0.3,0.1,0.4,0.2c0.3,0.1,0.8,0,1.1-0.1c0.2-0.1,0.3-0.1,0.6-0.1c0.2,0,0.4-0.1,0.6-0.2
						c0.2,0,0.5,0,0.6-0.1c0.1,0,0.1-0.1,0.2-0.2c0.1,0,0.2,0,0.3-0.1c0,0,0,0,0.1,0c0,0-0.1-0.1-0.2-0.1c-0.2,0-0.2-0.1-0.4-0.1
						c-0.2,0-0.4,0.1-0.6,0.1c-0.1,0-0.2,0-0.2,0h-0.1h-0.1c-0.1,0-0.2,0-0.3,0l0,0c-0.1,0-0.2,0-0.3,0c-0.2,0-0.3,0-0.6,0.1
						c-0.2,0.1-0.3,0.1-0.5,0.1c-0.3,0-0.3,0-0.5,0.1c-0.1,0-0.5,0.2-0.4,0.2c0,0.1,0.1,0,0.2,0C92.8,6.2,92.8,6.2,92.9,6.2
						L92.9,6.2L92.9,6.2z"/>
					<path class="st1" d="M115.4,18.9c-1-0.1-2,0-2.3,0.8c0.2,0.1,0.3,0.3,0.5,0.3c-0.4,0.6-1.7,0.2-2.2-0.1
						c-0.8-0.5-0.9-0.7-1.9-0.9c-0.9-0.2-1.9-0.6-2.3-1.4c-0.4-0.7-0.1-1.4-1-1.7c-0.4-0.2-0.5-0.1-1,0c-0.6,0.2-0.5,0.4-1.2,0.5
						c-0.8,0.1-1.7,0-2.5,0c-0.7,0-1.5,0.1-2.2,0.4c-0.4,0.2-0.5,0.6-1.2,0.7c-0.4,0.1-0.9,0-1.3,0c-0.9-0.1-2.3-0.7-3.2,0.2l0,0
						l0,0c-0.4,0.5-0.1,0.7-0.7,1.1c-0.5,0.4-1.2,0.5-1.5,1c-0.1,0.2-0.2,0.4-0.3,0.5l0,0l0,0v0.1l0,0c-0.1,0.5,0,0.9-0.2,1.3l0,0
						c0,0,0,0.1-0.1,0.1l0,0l-0.1,0.1l0,0L90.6,22c0,0,0,0-0.1,0c-0.1,0-0.1,0.1-0.2,0.1c-1.3,0.8-1.9,1-2.7,2.3
						c-0.7,1.1-1.8,1.9-2.4,3C84.8,28.2,85,29,85,29.8c-0.1,1.8-1.7,2.7-0.6,4.6c0.4,0.7,1.1,1.3,1.5,2c0.4,0.8,0.5,1.7,0.8,2.5
						c0.6,1.5,3.2,3.6,4.7,4.2c1.2,0.5,1.8,0.2,2.7-0.3s1.8-0.3,2.8-0.3c1.6,0.1,2.4-1.8,4.3-0.9c0.9,0.4,0.8,1.1,1.9,1.3
						c1,0.2,1.8,0,2.3,1c0.7,1.3-0.2,2.7-0.2,4s1.2,1.3,1.7,2.4c0.4,0.8,0.4,1.8,0.8,2.6c0.8,1.6,1.1,2.4,0.4,4
						c-0.6,1.2-0.8,2.6,0.1,3.7c0.2,0.2,0.3,0.4,0.4,0.6c6.8-6.5,11.1-15.7,11.1-25.9C119.6,29.7,118.1,23.9,115.4,18.9z"/>
					<path class="st1" d="M60.5,8.7c-0.3,0.2-0.5,0.5-0.8,0.7C59.9,9.2,60.3,8.9,60.5,8.7z"/>
					<path class="st1" d="M74.3,69.3c0,0,0.1,0,0.3,0c0.4,0,1,0,1.3,0C76.7,69.3,75.3,69.3,74.3,69.3z"/>
					<path class="st1" d="M49.1,30.8c0.1,0,0.3-0.1,0.4,0c0.2,0,0.3,0.2,0.4,0.1c0.1-0.2,0.2-0.4,0.2-0.6s-0.2-0.3-0.3-0.4
						c-0.2-0.2-0.5-0.3-0.7-0.5c-0.1-0.1-0.3-0.3-0.4-0.4c0,0.3-0.1,0.5-0.1,0.8c0,0.1,0.1,0.2,0.1,0.2c0,0.2-0.1,0.3-0.2,0.4
						c0,0.1,0,0.1,0,0.2l0,0C48.5,30.9,48.9,30.8,49.1,30.8z"/>
					<path class="st1" d="M50.1,31.9c0.2,0.1,0.6-0.2,0.8-0.2c0.1,0,0.1,0.1,0.1,0.1c0.1,0,0.2,0,0.3,0c0.2,0,0.4,0.1,0.6,0
						c0.1-0.1,0.3-0.4,0.2-0.5c0.3,0.1,0.2-0.3,0.1-0.4c-0.2-0.3-0.3-0.2-0.6-0.2c-0.2,0-0.6,0-0.7-0.2v-0.1c-0.2,0-0.1,0.4-0.1,0.5
						c0,0.2,0.1,0.3-0.1,0.4c-0.2,0.1-0.3-0.1-0.5,0C49.9,31.6,49.9,31.9,50.1,31.9z"/>
					<path class="st1" d="M48.7,31.6C48.7,31.6,48.7,31.7,48.7,31.6C48.7,31.7,48.7,31.7,48.7,31.6C48.7,31.7,48.7,31.6,48.7,31.6z"
						/>
					<path class="st1" d="M48.5,32.1c0.1,0.1,0.2,0.2,0.4,0.1c0.1,0,0.2-0.1,0.1-0.3c-0.1-0.1-0.2,0-0.2-0.3c-0.1,0-0.3,0-0.4,0.1
						v0.1h0.1C48.4,32,48.4,32.1,48.5,32.1z"/>
					<path class="st1" d="M52.9,31.8c0,0.2,0.1,0.1,0.3,0.1c0.1,0.1,0.2,0.2,0.3,0.2c0.2,0,0.5-0.1,0.5-0.5c-0.3,0-0.3,0.2-0.6,0
						c0,0,0.1,0,0.1-0.1C53.2,31.4,53,31.5,52.9,31.8z"/>
					<path class="st1" d="M96.7,5.9c-0.2-0.1-0.4,0.1-0.6,0.2c-0.1,0.1-0.4,0.1-0.5,0.2c0,0.1,0.3,0.1,0,0.3l-0.1,0.1
						c-0.1,0.1-0.2,0.2-0.3,0.3c-0.1,0.1-0.1,0.3,0.1,0.3c0.3,0,0.4-0.2,0.6-0.3c0.4,0,0.8,0.1,1.2-0.1c0.2-0.1,0.4-0.4,0.4-0.5
						s-0.2-0.1-0.3-0.2l0,0c-0.1,0-0.2,0-0.2-0.1C96.9,6.1,96.8,5.9,96.7,5.9L96.7,5.9z"/>
					<path class="st1" d="M97.3,5.7C97.3,5.7,97.3,5.8,97.3,5.7L97.3,5.7C97.4,5.8,97.3,5.7,97.3,5.7z"/>
					<path class="st1" d="M97.3,6c0.1,0.1,0.5,0.1,0.5-0.1c-0.2,0-0.1-0.1,0.1-0.1c0.1-0.2-0.5,0-0.6-0.1c-0.1,0-0.3,0-0.4,0
						C97.1,5.9,97.2,6,97.3,6z"/>
					<path class="st1" d="M99.2,6.5c-0.2,0.1-0.4,0-0.6,0.1c-0.1,0.1-0.1,0.1-0.2,0.2c0,0.1-0.2,0.2-0.3,0.2c0.2,0.1,1,0,0.8,0.3
						c-0.1,0.2-0.4,0.2-0.6,0.2c-0.1,0-0.6,0.1-0.7,0.2c-0.1,0.2,0.5,0.1,0.6,0.1c0.4-0.1,0.8-0.2,1.2-0.4c0.4-0.1,0.6,0,0.9,0
						s0.9-0.1,1.2-0.2c0.1-0.1,0.2-0.1,0.2-0.2s-0.1-0.1-0.2-0.1c-0.1-0.2,0.3-0.2,0.2-0.3c0-0.1-0.3-0.1-0.5-0.1
						c-0.3,0-0.3-0.2-0.4-0.3c-0.1-0.2,0-0.4-0.1-0.6c-0.1-0.1-0.4-0.1-0.6-0.2c-0.1,0-0.4,0-0.4-0.1c0-0.1,0.4-0.2,0.5-0.3
						c0.2-0.1-0.1-0.1-0.3-0.2c-0.1,0-0.2,0-0.3,0V4.7l0,0l0,0c-0.1,0-0.2,0-0.3,0c-0.2,0-0.4,0.1-0.6,0.2c-0.1,0.1-0.1,0.3,0,0.3
						c0,0,0.1,0,0.1,0.1s-0.1,0.1-0.1,0.2c0,0,0,0,0,0.1l0,0c0,0.1,0.3,0.1,0.4,0.1c0.2,0,0.2,0.1,0.3,0.2s0.1,0.2,0.1,0.3
						S99.4,6.4,99.2,6.5z"/>
				</g>
			</g>
		</g>
		<g>
			<path class="st2" d="M68.2,44.7c9.8-2.4,19.7,3.8,19.7,3.8s-16.4-2-26.8,5.8c0,0,11.7-2.5,26.8-5.8c0,0-5.8,10.3-15.6,12.7
				c-9.8,2.4-19.7-3.8-19.7-3.8S58.5,47.1,68.2,44.7z"/>
			<path class="st2" d="M80.3,27.3c7.9,8,7.7,21.1,7.7,21.1S80.5,31.5,67,26c0,0,9.1,9.8,21,22.4c0,0-13.2,0.3-21.1-7.7
				c-8-8-7.7-21.1-7.7-21.1S72.4,19.4,80.3,27.3z"/>
			<path class="st2" d="M96.3,25.3c-8.7,8.7-8.4,23.1-8.4,23.1S96.2,30,111,24c0,0-10,10.8-23,24.5c0,0,14.4,0.3,23.1-8.4
				s8.4-23.1,8.4-23.1S105,16.6,96.3,25.3z"/>
		</g>
		<g>
			<path class="st0" d="M18.3,85.3c1.7-1.5,3.5-2.7,5.5-3.4c0.1,0,0.3-0.1,0.4-0.1c0.3-0.2,0.5-0.5,0.5-0.8c0-0.2-0.1-0.4-0.2-0.6
				c-0.2-0.3-0.6-0.4-0.9-0.2l0,0c-0.1,0-0.2,0.1-0.3,0.1c-2.5,0.8-4.7,2.3-6.7,4.3c-0.9-0.3-1.9-0.4-3-0.4c-2.5,0-4.7,0.8-6.6,2.3
				C5,88,4.1,90,4.1,92.2c0,1.4,0.4,2.7,1.2,3.9c0.6,1,1.5,1.8,2.5,2.5l-5.4,7c-0.1,0.1-0.1,0.1-0.2,0.2c0,0,0,0.1,0,0.1
				c-0.1,0.1-0.1,0.2-0.1,0.4c0,0.3,0.1,0.5,0.3,0.7c0.2,0.2,0.5,0.3,0.6,0.3c0.3,0,0.5-0.1,0.7-0.3c0,0,0,0,0,0
				c1.4-1,3.1-1.5,4.8-1.7c1.8-0.1,3.6,0.2,5.2,1c1.6,0.8,2.8,2,3.6,3.4c0.7,1.4,1,2.9,0.7,4.5c-0.3,1.6-1.1,3-2.4,4.1
				c-1.3,1.1-2.8,1.9-4.7,2.2c-1.9,0.3-3.6,0.1-5.3-0.6c-1.7-0.7-3-1.7-3.9-3c-0.1-0.1-0.2-0.3-0.3-0.3c-0.1-0.1-0.3-0.1-0.5-0.1
				c-0.2,0-0.4,0-0.6,0.3C0,116.7,0,116.9,0,117.1c0,0.1,0,0.2,0,0.3c0,0,0.1,0.2,0.1,0.2c1.2,1.7,2.8,3,4.8,3.7
				c1.4,0.5,2.8,0.8,4.3,0.8c0.6,0,1.3-0.1,2-0.2c2.2-0.4,4.1-1.3,5.6-2.6c1.5-1.4,2.5-3.1,2.9-5.1c0.4-2,0.1-3.9-0.9-5.7
				c-0.9-1.8-2.4-3.1-4.4-4.1c-2-1-4-1.4-6.2-1.2c-0.8,0.1-1.5,0.2-2.2,0.4l3.4-4.3c1.2,0.5,2.6,0.8,4,0.8c2.5,0,4.7-0.8,6.5-2.3
				c1.8-1.6,2.8-3.5,2.8-5.7c0-1.6-0.5-3-1.5-4.3C20.6,86.8,19.5,86,18.3,85.3z M12.1,95.8c0.1-0.1,0.2-0.2,0.2-0.3
				c0-0.1,0-0.2,0-0.3c0-0.2-0.1-0.4-0.2-0.6c-0.2-0.2-0.4-0.3-0.7-0.3c-0.2,0-0.4,0.1-0.7,0.4l-1.9,2.5c-0.9-0.5-1.6-1.2-2.1-2
				c-0.6-0.9-0.9-1.9-0.9-2.9c0-1.7,0.7-3.1,2.2-4.3c1.5-1.2,3.3-1.8,5.4-1.8c0.6,0,1.1,0,1.6,0.1c-0.4,0.5-0.8,1-1.1,1.6
				c-0.1,0.1-0.1,0.1-0.1,0.2c0,0.1,0,0.2,0,0.3c0,0.3,0.1,0.5,0.3,0.7c0.2,0.2,0.5,0.3,0.6,0.3c0.3,0,0.4-0.1,0.5-0.2
				c0.1-0.1,0.2-0.2,0.3-0.3c0.4-0.7,0.9-1.3,1.4-2c1.1,0.5,2.1,1.2,2.8,2.1c0.8,1,1.2,2.1,1.2,3.3c0,1.7-0.7,3.1-2.2,4.3
				c-1.5,1.2-3.3,1.9-5.4,1.9c-1,0-2-0.2-2.9-0.5L12.1,95.8z"/>
			<path class="st0" d="M44.2,103.7c-0.4-1.7-0.8-3.6-0.9-5.5c-0.1-2-0.2-3.9-0.3-5.6c0-1.6-0.1-2.8-0.2-3.5c0-0.1,0-0.1,0-0.2
				c-0.4-1.4-1.4-2.6-3-3.3c-1.5-0.7-3.1-1.2-5-1.3c-1.8-0.1-3.6,0-5.2,0.6c-1.7,0.5-2.9,1.5-3.7,3c-0.2,0.5,0,0.8,0.1,0.9
				c0.4,0.5,1.3,0.4,1.5-0.2c0.5-0.9,1.3-1.6,2.6-2c1.4-0.4,2.9-0.6,4.5-0.5c1.6,0.1,3,0.5,4.3,1.1c1.1,0.6,1.8,1.3,2,2.1
				c0.1,0.6,0.1,1.7,0.2,3.2c0,0.4,0,0.9,0,1.4c-0.7-0.8-1.6-1.5-2.6-2c-1.5-0.9-3.3-1.3-5.1-1.3c-2.7,0-5.1,0.9-7.1,2.7
				c-2,1.8-3,4-3,6.5c0,2.5,1,4.7,3,6.5c2,1.8,4.3,2.7,7.1,2.7c2.2,0,4.2-0.6,5.9-1.8c1.2-0.8,2.2-1.9,2.9-3.1
				c0.5,1.9,1.3,3.5,2.4,4.7c0.2,0.2,0.5,0.3,0.7,0.3c0.1,0,0.2,0,0.3,0c0.3-0.1,0.5-0.3,0.6-0.6c0.1-0.4,0-0.7-0.2-0.9
				C45.2,106.6,44.6,105.3,44.2,103.7z M33.5,92.3c2.3,0,4.3,0.7,5.8,2.2c1.6,1.4,2.4,3.1,2.4,5.2c0,2-0.8,3.7-2.4,5.2
				c-1.6,1.4-3.5,2.2-5.8,2.2c-2.3,0-4.2-0.7-5.8-2.2c-1.6-1.4-2.4-3.1-2.4-5.2c0-2,0.8-3.7,2.4-5.2C29.3,93,31.2,92.3,33.5,92.3z"
				/>
			<path class="st0" d="M47.5,70.2C47.1,70.6,47,71,47,71.5c0,0.5,0.2,1,0.5,1.3c0.4,0.4,0.8,0.5,1.3,0.5s1-0.2,1.3-0.5
				c0.4-0.4,0.5-0.8,0.5-1.3c0-0.5-0.2-1-0.5-1.3C49.4,69.5,48.2,69.5,47.5,70.2z"/>
			<path class="st0" d="M48.9,84.2c-0.3,0-0.5,0.1-0.7,0.3c-0.2,0.2-0.3,0.5-0.3,0.6V108c0,0.3,0.1,0.5,0.3,0.7s0.4,0.3,0.7,0.3
				c0.2,0,0.4,0,0.6-0.3c0.2-0.2,0.3-0.4,0.3-0.7V85.1c0-0.3-0.1-0.5-0.3-0.7C49.3,84.3,49,84.2,48.9,84.2z"/>
			<path class="st0" d="M73.7,103.7c-0.4-1.7-0.8-3.6-0.9-5.5c-0.1-2-0.2-3.9-0.3-5.6c0-1.6-0.1-2.8-0.2-3.5c0-0.1,0-0.1,0-0.2
				c-0.4-1.4-1.4-2.6-3-3.3c-1.5-0.7-3.1-1.2-5-1.3c-1.8-0.1-3.6,0-5.2,0.6c-1.7,0.5-2.9,1.5-3.7,3c-0.2,0.5,0,0.8,0.1,0.9
				c0.4,0.5,1.3,0.4,1.5-0.2c0.5-0.9,1.3-1.6,2.6-2c1.4-0.4,2.9-0.6,4.5-0.5c1.6,0.1,3,0.5,4.3,1.1c1.1,0.6,1.8,1.3,2,2.1
				c0.1,0.6,0.1,1.7,0.2,3.2c0,0.4,0,0.9,0,1.4c-0.7-0.8-1.6-1.5-2.6-2c-1.5-0.9-3.3-1.3-5.1-1.3c-2.7,0-5.1,0.9-7.1,2.7
				c-2,1.8-3,4-3,6.5c0,2.5,1,4.7,3,6.5c2,1.8,4.3,2.7,7.1,2.7c2.2,0,4.2-0.6,5.9-1.8c1.2-0.8,2.2-1.9,2.9-3.1
				c0.5,1.9,1.3,3.5,2.4,4.7c0.2,0.2,0.5,0.3,0.7,0.3c0.1,0,0.2,0,0.3,0c0.3-0.1,0.5-0.3,0.6-0.6c0.1-0.4,0-0.7-0.2-0.9
				C74.8,106.6,74.1,105.3,73.7,103.7z M63,92.3c2.3,0,4.3,0.7,5.8,2.2c1.6,1.4,2.4,3.1,2.4,5.2c0,2-0.8,3.7-2.4,5.2
				c-1.6,1.4-3.5,2.2-5.8,2.2c-2.3,0-4.2-0.7-5.8-2.2c-1.6-1.4-2.4-3.1-2.4-5.2c0-2,0.8-3.7,2.4-5.2C58.8,93,60.7,92.3,63,92.3z"/>
			<path class="st0" d="M89.7,107.1c-1.8,0-3.7-0.2-5.4-0.8c-0.8-0.3-1.4-0.7-1.9-1.1c-0.4-0.3-0.6-0.8-0.6-1.3V86H89
				c0.2,0,0.5-0.1,0.6-0.2c0.2-0.2,0.3-0.4,0.3-0.7c0-0.3-0.1-0.5-0.3-0.7c-0.2-0.1-0.4-0.2-0.6-0.2h-7.2V71.7
				c0-0.3-0.1-0.5-0.3-0.7c-0.2-0.2-0.5-0.3-0.6-0.3c-0.3,0-0.5,0.1-0.7,0.3C80,71.2,80,71.5,80,71.7v12.5h-6.5c0,0,0,0,0,0
				c-0.3,0-0.5,0.1-0.7,0.3c-0.2,0.2-0.3,0.4-0.3,0.6c0,0.3,0.1,0.5,0.3,0.7c0.2,0.1,0.4,0.2,0.6,0.2c0,0,0,0,0,0h6.4v17.9
				c0,1.1,0.4,2,1.1,2.7c0.7,0.6,1.5,1.1,2.5,1.5c1.8,0.6,3.7,0.9,5.7,0.9c0.2,0,0.3,0,0.5,0c0.2,0,0.4-0.1,0.5-0.2
				c0.2-0.2,0.3-0.4,0.3-0.7c0-0.3-0.1-0.5-0.3-0.7C90.1,107.2,89.9,107.1,89.7,107.1z"/>
			<path class="st0" d="M111.3,90.2c0-0.8-0.3-1.6-0.8-2.2c-0.5-0.6-1.1-1.2-1.9-1.6c-1.5-0.8-3.4-1.4-5.5-1.6
				c-2.1-0.2-4.2,0-6.2,0.5c-1.2,0.3-2.2,0.8-3,1.5v-1.3c0-0.3-0.1-0.5-0.3-0.7c-0.1-0.1-0.1-0.1-0.2-0.1c-0.3-0.3-0.8-0.2-1.1,0.1
				c-0.2,0.2-0.3,0.4-0.3,0.7v23.2c0,0.3,0.1,0.5,0.3,0.7s0.4,0.3,0.7,0.3c0.3,0,0.5-0.1,0.7-0.3c0.1-0.2,0.2-0.4,0.2-0.6V89.4
				c0,0,0,0,0-0.1c0.8-1.1,1.9-1.8,3.5-2.3c1.7-0.5,3.6-0.6,5.5-0.5c1.9,0.2,3.5,0.6,4.8,1.4c1.2,0.7,1.8,1.4,1.8,2.2
				c0,0.2,0,0.4,0.3,0.6c0.2,0.2,0.5,0.3,0.6,0.3c0.3,0,0.5-0.1,0.7-0.3C111.3,90.6,111.3,90.3,111.3,90.2z"/>
			<path class="st0" d="M131,86.9c-2.2-1.7-4.7-2.6-7.6-2.7c-0.4,0-0.8,0-1.2,0.1c-3.1,0.3-5.7,1.6-7.8,3.7c-2.1,2.1-3.2,4.8-3.5,8
				c-0.1,3.1,0.7,5.9,2.6,8.3c1.8,2.4,4.3,3.9,7.3,4.6c0.9,0.2,1.7,0.2,2.6,0.2c2.1,0,4.1-0.5,6-1.6c2.6-1.5,4.5-3.7,5.6-6.6
				c0-0.1,0-0.1,0-0.2v-0.1c0-0.3-0.1-0.5-0.3-0.6c-0.4-0.4-1.2-0.3-1.5,0.4c-0.9,2.5-2.5,4.4-4.7,5.7c-2.2,1.2-4.7,1.6-7.3,1.1
				c-2.6-0.6-4.7-1.9-6.3-3.9c-1.5-2-2.3-4.4-2.2-7.1c0-0.4,0.1-0.8,0.1-1.1h21.6c0.3,0,0.6-0.1,0.7-0.3c0.2-0.2,0.3-0.5,0.3-0.7
				c0-0.1,0-0.2-0.1-0.3C134.6,90.9,133.2,88.6,131,86.9z M113.3,93.1c0.7-1.8,1.7-3.4,3.2-4.6c1.6-1.4,3.6-2.2,5.9-2.4
				c0.3,0,0.7,0,1,0c2.4,0,4.5,0.8,6.4,2.2c1.6,1.3,2.8,2.9,3.6,4.9H113.3z"/>
			<path class="st0" d="M160.8,94.9c0.3,0,0.6-0.1,0.7-0.3c0.2-0.2,0.3-0.5,0.3-0.7c0-0.1,0-0.2-0.1-0.3c-0.7-2.8-2.2-5.1-4.3-6.8
				c-2.2-1.7-4.7-2.6-7.6-2.7c-0.4,0-0.8,0-1.2,0.1c-3.1,0.3-5.7,1.6-7.8,3.7c-2.1,2.1-3.2,4.8-3.5,8c-0.1,3.1,0.7,5.9,2.6,8.3
				c1.8,2.4,4.3,3.9,7.3,4.6c0.9,0.2,1.7,0.2,2.6,0.2c2.1,0,4.1-0.5,6-1.6c2.6-1.5,4.5-3.7,5.6-6.6c0-0.1,0-0.1,0-0.2v-0.1
				c0-0.3-0.1-0.5-0.3-0.6c-0.1-0.1-0.3-0.3-0.6-0.3c-0.4,0-0.7,0.2-0.9,0.6c-0.9,2.5-2.5,4.4-4.7,5.7c-2.2,1.2-4.7,1.6-7.3,1.1
				c-2.6-0.6-4.7-1.9-6.3-3.9c-1.5-2-2.3-4.4-2.2-7.1c0-0.4,0.1-0.8,0.1-1.1H160.8z M149.7,86c2.4,0,4.5,0.8,6.4,2.2
				c1.6,1.3,2.8,2.9,3.6,4.9h-20c0.7-1.8,1.7-3.4,3.2-4.6c1.6-1.4,3.6-2.2,5.9-2.4C149,86,149.3,86,149.7,86z"/>
		</g>
	</g>
	<g class="st3">
		<path class="st4" d="M27.1,115.1c0.3,0,0.5,0,0.7,0.1c0.2,0.1,0.4,0.2,0.6,0.4c0.2,0.2,0.3,0.4,0.4,0.6c0.1,0.2,0.2,0.5,0.2,0.8
			c0,0.2,0,0.4-0.1,0.5c0,0.1-0.1,0.2-0.2,0.2s-0.2,0.1-0.3,0.1c-0.1,0-0.2,0-0.3,0h-2.4v0.4c0,0.2,0,0.4,0.1,0.6
			c0.1,0.2,0.2,0.3,0.4,0.5c0.2,0.1,0.3,0.2,0.5,0.3c0.2,0.1,0.4,0.1,0.7,0.1c0.2,0,0.4,0,0.5-0.1c0.1,0,0.2-0.1,0.3-0.1
			c0.1-0.1,0.2-0.1,0.2-0.1c0.1,0,0.1-0.1,0.2-0.1c0.1,0,0.1,0,0.2,0.1c0,0.1,0.1,0.1,0.1,0.2c0,0.1,0,0.1-0.1,0.2
			c-0.1,0.1-0.2,0.1-0.3,0.2c-0.1,0.1-0.3,0.1-0.5,0.2c-0.2,0-0.4,0.1-0.6,0.1c-0.3,0-0.6,0-0.9-0.1c-0.3-0.1-0.5-0.2-0.7-0.4
			c-0.2-0.2-0.3-0.4-0.5-0.6c-0.1-0.2-0.2-0.5-0.2-0.8V117c0-0.3,0.1-0.5,0.2-0.7c0.1-0.2,0.2-0.4,0.4-0.6c0.2-0.2,0.4-0.3,0.6-0.4
			C26.5,115.1,26.8,115.1,27.1,115.1z M27.9,117.4c0.2,0,0.4,0,0.5-0.1c0.1,0,0.1-0.1,0.1-0.3c0-0.2,0-0.4-0.1-0.5s-0.2-0.3-0.3-0.5
			c-0.1-0.1-0.3-0.2-0.4-0.3c-0.2-0.1-0.4-0.1-0.6-0.1c-0.2,0-0.4,0-0.6,0.1s-0.3,0.2-0.4,0.3c-0.1,0.1-0.2,0.3-0.3,0.4
			c-0.1,0.2-0.1,0.3-0.1,0.5v0.4H27.9z"/>
		<path class="st4" d="M31.9,120.2c-0.3,0-0.6,0-0.9-0.1c-0.3-0.1-0.5-0.2-0.6-0.4c-0.2-0.2-0.3-0.4-0.4-0.6s-0.1-0.5-0.1-0.8V117
			c0-0.3,0-0.5,0.1-0.8c0.1-0.2,0.2-0.4,0.4-0.6c0.2-0.2,0.4-0.3,0.6-0.4c0.2-0.1,0.5-0.2,0.9-0.2c0.2,0,0.4,0,0.6,0.1
			c0.2,0,0.3,0.1,0.4,0.2c0.1,0.1,0.2,0.1,0.3,0.2c0.1,0.1,0.1,0.1,0.1,0.2s0,0.1-0.1,0.2c0,0.1-0.1,0.1-0.2,0.1c0,0-0.1,0-0.1-0.1
			c-0.1,0-0.1-0.1-0.2-0.1s-0.2-0.1-0.3-0.1c-0.1,0-0.3-0.1-0.5-0.1c-0.5,0-0.9,0.1-1.1,0.4c-0.2,0.3-0.4,0.6-0.4,1.1v1.2
			c0,0.5,0.1,0.8,0.4,1.1c0.3,0.3,0.6,0.4,1.1,0.4c0.2,0,0.4,0,0.5-0.1c0.1,0,0.2-0.1,0.3-0.1s0.2-0.1,0.2-0.1
			c0.1,0,0.1-0.1,0.2-0.1c0.1,0,0.1,0,0.2,0.1c0,0.1,0.1,0.1,0.1,0.2c0,0.1,0,0.1-0.1,0.2s-0.2,0.1-0.3,0.2s-0.3,0.1-0.5,0.2
			C32.3,120.2,32.1,120.2,31.9,120.2z"/>
		<path class="st4" d="M36,115.1c0.3,0,0.5,0.1,0.7,0.2c0.2,0.1,0.4,0.2,0.6,0.4c0.2,0.2,0.3,0.4,0.4,0.6c0.1,0.2,0.2,0.5,0.2,0.8
			v1.2c0,0.3-0.1,0.5-0.2,0.7c-0.1,0.2-0.2,0.4-0.4,0.6s-0.4,0.3-0.6,0.4c-0.2,0.1-0.5,0.2-0.7,0.2c-0.3,0-0.5-0.1-0.7-0.2
			c-0.2-0.1-0.4-0.2-0.6-0.4s-0.3-0.4-0.4-0.6c-0.1-0.2-0.2-0.5-0.2-0.7V117c0-0.3,0.1-0.5,0.2-0.7c0.1-0.2,0.2-0.4,0.4-0.6
			c0.2-0.2,0.4-0.3,0.6-0.4C35.5,115.1,35.8,115.1,36,115.1z M37.5,117c0-0.2,0-0.4-0.1-0.5c-0.1-0.2-0.2-0.3-0.3-0.5
			c-0.1-0.1-0.3-0.2-0.5-0.3c-0.2-0.1-0.4-0.1-0.6-0.1c-0.2,0-0.4,0-0.6,0.1c-0.2,0.1-0.3,0.2-0.4,0.3c-0.1,0.1-0.2,0.3-0.3,0.5
			c-0.1,0.2-0.1,0.4-0.1,0.5v1.2c0,0.2,0,0.4,0.1,0.5c0.1,0.2,0.2,0.3,0.3,0.5c0.1,0.1,0.3,0.2,0.4,0.3c0.2,0.1,0.4,0.1,0.6,0.1
			c0.2,0,0.4,0,0.6-0.1c0.2-0.1,0.3-0.2,0.5-0.3c0.1-0.1,0.2-0.3,0.3-0.5c0.1-0.2,0.1-0.4,0.1-0.5V117z"/>
		<path class="st4" d="M39.3,119.3c0.1,0,0.2,0,0.3,0.1c0.1,0.1,0.1,0.2,0.1,0.3c0,0,0,0,0,0.1c0,0,0,0.1,0,0.2
			c0,0.1-0.1,0.2-0.1,0.3s-0.1,0.3-0.2,0.5c0,0.1-0.1,0.1-0.2,0.1c-0.1,0-0.1,0-0.1,0c0,0-0.1-0.1-0.1-0.1c0,0,0-0.1,0-0.1l0.2-0.5
			c-0.1,0-0.2-0.1-0.2-0.2c-0.1-0.1-0.1-0.2-0.1-0.3c0-0.1,0-0.2,0.1-0.3C39.1,119.4,39.2,119.3,39.3,119.3z"/>
		<path class="st4" d="M43.5,119.9c0,0.1,0,0.1-0.1,0.2c0,0-0.1,0.1-0.2,0.1c-0.1,0-0.1,0-0.2-0.1c0,0-0.1-0.1-0.1-0.2v-4.5
			c0-0.1,0-0.1,0.1-0.2c0,0,0.1-0.1,0.2-0.1c0.1,0,0.1,0,0.2,0.1s0.1,0.1,0.1,0.2v0.5c0.1-0.2,0.3-0.4,0.5-0.6
			c0.2-0.2,0.5-0.2,0.9-0.2c0.3,0,0.5,0.1,0.7,0.2c0.2,0.1,0.4,0.2,0.6,0.4c0.2,0.2,0.3,0.4,0.4,0.6c0.1,0.2,0.2,0.5,0.2,0.8v2.9
			c0,0.1,0,0.1-0.1,0.2c-0.1,0-0.1,0.1-0.2,0.1c-0.1,0-0.1,0-0.2-0.1c-0.1,0-0.1-0.1-0.1-0.2V117c0-0.2,0-0.4-0.1-0.5
			c-0.1-0.2-0.2-0.3-0.3-0.5c-0.1-0.1-0.3-0.2-0.5-0.3c-0.2-0.1-0.4-0.1-0.5-0.1c-0.2,0-0.3,0-0.5,0.1c-0.2,0.1-0.3,0.2-0.4,0.3
			s-0.2,0.3-0.3,0.5c-0.1,0.2-0.1,0.4-0.1,0.6V119.9z"/>
		<path class="st4" d="M49.6,115.1c0.3,0,0.6,0.1,0.9,0.2c0.2,0.1,0.4,0.3,0.6,0.5c0.1,0.2,0.2,0.4,0.3,0.6c0.1,0.2,0.1,0.5,0.1,0.8
			v2.8c0,0.1,0,0.1-0.1,0.2c0,0-0.1,0.1-0.2,0.1c-0.1,0-0.1,0-0.2-0.1c0,0-0.1-0.1-0.1-0.2v-0.5c-0.2,0.2-0.4,0.4-0.7,0.6
			s-0.6,0.2-0.9,0.2c-0.2,0-0.4,0-0.6-0.1c-0.2-0.1-0.3-0.1-0.5-0.3c-0.1-0.1-0.2-0.3-0.3-0.4c-0.1-0.2-0.1-0.4-0.1-0.6
			c0-0.3,0.1-0.5,0.2-0.7c0.1-0.2,0.3-0.3,0.5-0.4s0.5-0.2,0.8-0.2s0.6-0.1,1-0.1h0.6v-0.3c0-0.2,0-0.4-0.1-0.6s-0.1-0.4-0.2-0.5
			c-0.1-0.1-0.2-0.3-0.4-0.4c-0.2-0.1-0.4-0.1-0.6-0.1c-0.2,0-0.3,0-0.4,0c-0.1,0-0.2,0.1-0.3,0.1c-0.1,0-0.2,0.1-0.2,0.1
			c-0.1,0-0.1,0-0.1,0c-0.1,0-0.1,0-0.2-0.1c0-0.1-0.1-0.1-0.1-0.2s0-0.1,0.1-0.2c0.1-0.1,0.2-0.1,0.3-0.2c0.1,0,0.3-0.1,0.4-0.1
			C49.2,115.1,49.4,115.1,49.6,115.1z M50.9,117.8h-0.5c-0.3,0-0.5,0-0.7,0s-0.5,0.1-0.6,0.1c-0.2,0.1-0.3,0.2-0.4,0.3
			c-0.1,0.1-0.2,0.3-0.2,0.5c0,0.3,0.1,0.6,0.3,0.7c0.2,0.2,0.4,0.2,0.7,0.2c0.2,0,0.4,0,0.5-0.1c0.2-0.1,0.3-0.2,0.5-0.3
			c0.1-0.1,0.3-0.2,0.3-0.4c0.1-0.1,0.1-0.3,0.1-0.4V117.8z"/>
		<path class="st4" d="M53.2,118.6c0,0.4,0.1,0.6,0.2,0.8c0.2,0.2,0.4,0.2,0.8,0.2h0.3c0.1,0,0.1,0,0.2,0.1c0,0,0.1,0.1,0.1,0.2
			c0,0.1,0,0.1-0.1,0.2c0,0-0.1,0.1-0.2,0.1h-0.3c-0.5,0-0.9-0.1-1.2-0.4c-0.3-0.2-0.4-0.6-0.4-1.2v-5.7c0-0.1,0-0.1,0.1-0.2
			c0.1,0,0.1-0.1,0.2-0.1c0.1,0,0.1,0,0.2,0.1s0.1,0.1,0.1,0.2v2.2h1.4c0.1,0,0.1,0,0.1,0.1c0,0,0.1,0.1,0.1,0.2
			c0,0.1,0,0.1-0.1,0.2c0,0-0.1,0.1-0.1,0.1h-1.4V118.6z"/>
		<path class="st4" d="M57.6,120.2c-0.3,0-0.5-0.1-0.8-0.2c-0.2-0.1-0.4-0.2-0.6-0.4c-0.2-0.2-0.3-0.4-0.4-0.6s-0.2-0.5-0.2-0.7
			v-2.9c0-0.1,0-0.1,0.1-0.2s0.1-0.1,0.2-0.1c0.1,0,0.1,0,0.2,0.1s0.1,0.1,0.1,0.2v2.9c0,0.2,0,0.4,0.1,0.5c0.1,0.2,0.2,0.3,0.3,0.5
			c0.1,0.1,0.3,0.2,0.4,0.3c0.2,0.1,0.4,0.1,0.6,0.1c0.2,0,0.4,0,0.6-0.1c0.2-0.1,0.3-0.2,0.4-0.3c0.1-0.1,0.2-0.3,0.3-0.5
			c0.1-0.2,0.1-0.4,0.1-0.5v-2.9c0-0.1,0-0.1,0.1-0.1c0.1,0,0.1-0.1,0.2-0.1c0.1,0,0.1,0,0.2,0.1c0,0,0.1,0.1,0.1,0.1v2.9
			c0,0.3-0.1,0.5-0.2,0.7s-0.2,0.4-0.4,0.6c-0.2,0.2-0.4,0.3-0.6,0.4C58.1,120.1,57.9,120.2,57.6,120.2z"/>
		<path class="st4" d="M62.8,115.6c-0.2,0-0.4,0-0.5,0.1s-0.3,0.2-0.5,0.3s-0.2,0.3-0.3,0.5c-0.1,0.2-0.1,0.4-0.1,0.6v2.8
			c0,0.1,0,0.1-0.1,0.2c0,0-0.1,0.1-0.2,0.1c-0.1,0-0.1,0-0.2-0.1c0,0-0.1-0.1-0.1-0.2v-4.5c0-0.1,0-0.1,0.1-0.2
			c0,0,0.1-0.1,0.2-0.1c0.1,0,0.1,0,0.2,0.1s0.1,0.1,0.1,0.2v0.5c0.1-0.2,0.3-0.4,0.5-0.6s0.5-0.3,0.9-0.3h0.4c0.1,0,0.1,0,0.2,0.1
			c0,0,0.1,0.1,0.1,0.2s0,0.1-0.1,0.2c0,0-0.1,0.1-0.2,0.1H62.8z"/>
		<path class="st4" d="M65.5,115.1c0.3,0,0.6,0.1,0.9,0.2c0.2,0.1,0.4,0.3,0.6,0.5c0.1,0.2,0.2,0.4,0.3,0.6c0.1,0.2,0.1,0.5,0.1,0.8
			v2.8c0,0.1,0,0.1-0.1,0.2c0,0-0.1,0.1-0.2,0.1c-0.1,0-0.1,0-0.2-0.1c0,0-0.1-0.1-0.1-0.2v-0.5c-0.2,0.2-0.4,0.4-0.7,0.6
			s-0.6,0.2-0.9,0.2c-0.2,0-0.4,0-0.6-0.1c-0.2-0.1-0.3-0.1-0.5-0.3c-0.1-0.1-0.2-0.3-0.3-0.4c-0.1-0.2-0.1-0.4-0.1-0.6
			c0-0.3,0.1-0.5,0.2-0.7c0.1-0.2,0.3-0.3,0.5-0.4s0.5-0.2,0.8-0.2s0.6-0.1,1-0.1h0.6v-0.3c0-0.2,0-0.4-0.1-0.6s-0.1-0.4-0.2-0.5
			c-0.1-0.1-0.2-0.3-0.4-0.4c-0.2-0.1-0.4-0.1-0.6-0.1c-0.2,0-0.3,0-0.4,0c-0.1,0-0.2,0.1-0.3,0.1c-0.1,0-0.2,0.1-0.2,0.1
			c-0.1,0-0.1,0-0.1,0c-0.1,0-0.1,0-0.2-0.1c0-0.1-0.1-0.1-0.1-0.2s0-0.1,0.1-0.2c0.1-0.1,0.2-0.1,0.3-0.2c0.1,0,0.3-0.1,0.4-0.1
			C65.2,115.1,65.3,115.1,65.5,115.1z M66.8,117.8h-0.5c-0.3,0-0.5,0-0.7,0s-0.5,0.1-0.6,0.1c-0.2,0.1-0.3,0.2-0.4,0.3
			c-0.1,0.1-0.2,0.3-0.2,0.5c0,0.3,0.1,0.6,0.3,0.7c0.2,0.2,0.4,0.2,0.7,0.2c0.2,0,0.4,0,0.5-0.1c0.2-0.1,0.3-0.2,0.5-0.3
			c0.1-0.1,0.3-0.2,0.3-0.4c0.1-0.1,0.1-0.3,0.1-0.4V117.8z"/>
		<path class="st4" d="M69,112c0.1,0,0.1,0,0.2,0.1s0.1,0.1,0.1,0.2v7.6c0,0.1,0,0.1-0.1,0.2c0,0-0.1,0.1-0.2,0.1
			c-0.1,0-0.1,0-0.2-0.1c0,0-0.1-0.1-0.1-0.2v-7.6c0-0.1,0-0.1,0.1-0.2C68.9,112.1,68.9,112,69,112z"/>
		<path class="st4" d="M74.9,120.2c-0.4,0-0.7-0.1-1-0.2c-0.3-0.1-0.5-0.3-0.7-0.5s-0.4-0.4-0.5-0.7c-0.1-0.3-0.2-0.6-0.2-0.8
			c0-0.3,0-0.5,0.1-0.7s0.2-0.4,0.3-0.6c0.1-0.2,0.3-0.3,0.5-0.4s0.4-0.2,0.5-0.3c-0.1-0.1-0.2-0.3-0.3-0.4
			c-0.1-0.1-0.2-0.3-0.3-0.4c-0.1-0.2-0.1-0.3-0.2-0.5s-0.1-0.4-0.1-0.6c0-0.3,0-0.5,0.1-0.7c0.1-0.2,0.2-0.4,0.4-0.6
			s0.4-0.3,0.6-0.3s0.5-0.1,0.7-0.1c0.3,0,0.5,0,0.7,0.1c0.2,0.1,0.4,0.2,0.5,0.3c0.1,0.1,0.2,0.2,0.3,0.3c0.1,0.1,0.1,0.2,0.1,0.3
			c0,0.1,0,0.1-0.1,0.2c0,0-0.1,0.1-0.2,0.1c-0.1,0-0.1,0-0.2-0.1c-0.1-0.1-0.1-0.2-0.2-0.3c-0.1-0.1-0.2-0.2-0.4-0.3
			c-0.2-0.1-0.4-0.1-0.6-0.1c-0.4,0-0.7,0.1-1,0.4c-0.2,0.2-0.3,0.6-0.3,1c0,0.4,0.1,0.7,0.3,1c0.2,0.3,0.4,0.6,0.7,0.8l2.2,2.5
			c0.2-0.4,0.3-0.7,0.3-1.1c0-0.4,0.1-0.7,0.1-1c0-0.2,0.1-0.3,0.2-0.3c0.1,0,0.2,0.1,0.2,0.3c0,0.1,0,0.2,0,0.4
			c0,0.2,0,0.4-0.1,0.6c0,0.2-0.1,0.4-0.2,0.7c-0.1,0.2-0.2,0.5-0.3,0.7l1,1.1c0,0,0.1,0.1,0.1,0.1c0,0.1,0,0.1-0.1,0.2
			s-0.1,0.1-0.2,0.1s-0.1,0-0.2-0.1l-0.9-1c-0.2,0.3-0.5,0.6-0.8,0.8S75.4,120.2,74.9,120.2z M75,119.7c0.4,0,0.8-0.1,1-0.3
			c0.3-0.2,0.5-0.4,0.6-0.7l-2.4-2.5c-0.1,0.1-0.3,0.2-0.4,0.2c-0.1,0.1-0.3,0.2-0.4,0.3c-0.1,0.1-0.2,0.3-0.3,0.5
			c-0.1,0.2-0.1,0.4-0.1,0.6c0,0.2,0,0.5,0.1,0.7s0.2,0.4,0.4,0.6c0.2,0.2,0.4,0.3,0.6,0.4S74.7,119.7,75,119.7z"/>
		<path class="st4" d="M81.9,119.9c0,0.1,0,0.1-0.1,0.2c0,0-0.1,0.1-0.2,0.1c-0.1,0-0.1,0-0.2-0.1c0,0-0.1-0.1-0.1-0.2v-7.6
			c0-0.1,0-0.1,0.1-0.2c0,0,0.1-0.1,0.2-0.1c0.1,0,0.1,0,0.2,0.1s0.1,0.1,0.1,0.2v3.6c0.1-0.2,0.3-0.4,0.5-0.6
			c0.2-0.2,0.5-0.2,0.9-0.2c0.3,0,0.5,0.1,0.7,0.2c0.2,0.1,0.4,0.2,0.6,0.4c0.2,0.2,0.3,0.4,0.4,0.6c0.1,0.2,0.2,0.5,0.2,0.8v2.9
			c0,0.1,0,0.1-0.1,0.2c-0.1,0-0.1,0.1-0.2,0.1s-0.1,0-0.2-0.1c-0.1,0-0.1-0.1-0.1-0.2V117c0-0.2,0-0.4-0.1-0.5
			c-0.1-0.2-0.2-0.3-0.3-0.5c-0.1-0.1-0.3-0.2-0.5-0.3c-0.2-0.1-0.4-0.1-0.5-0.1c-0.2,0-0.3,0-0.5,0.1c-0.2,0.1-0.3,0.2-0.4,0.3
			s-0.2,0.3-0.3,0.5c-0.1,0.2-0.1,0.4-0.1,0.6V119.9z"/>
		<path class="st4" d="M87.9,115.1c0.3,0,0.6,0.1,0.9,0.2c0.2,0.1,0.4,0.3,0.6,0.5c0.1,0.2,0.2,0.4,0.3,0.6c0.1,0.2,0.1,0.5,0.1,0.8
			v2.8c0,0.1,0,0.1-0.1,0.2c0,0-0.1,0.1-0.2,0.1c-0.1,0-0.1,0-0.2-0.1c0,0-0.1-0.1-0.1-0.2v-0.5c-0.2,0.2-0.4,0.4-0.7,0.6
			c-0.3,0.2-0.6,0.2-0.9,0.2c-0.2,0-0.4,0-0.6-0.1c-0.2-0.1-0.3-0.1-0.5-0.3c-0.1-0.1-0.2-0.3-0.3-0.4c-0.1-0.2-0.1-0.4-0.1-0.6
			c0-0.3,0.1-0.5,0.2-0.7c0.1-0.2,0.3-0.3,0.5-0.4s0.5-0.2,0.8-0.2s0.6-0.1,1-0.1h0.6v-0.3c0-0.2,0-0.4-0.1-0.6
			c0-0.2-0.1-0.4-0.2-0.5c-0.1-0.1-0.2-0.3-0.4-0.4c-0.2-0.1-0.4-0.1-0.6-0.1c-0.2,0-0.3,0-0.4,0c-0.1,0-0.2,0.1-0.3,0.1
			c-0.1,0-0.2,0.1-0.2,0.1c-0.1,0-0.1,0-0.1,0c-0.1,0-0.1,0-0.2-0.1c0-0.1-0.1-0.1-0.1-0.2s0-0.1,0.1-0.2c0.1-0.1,0.2-0.1,0.3-0.2
			c0.1,0,0.3-0.1,0.4-0.1S87.7,115.1,87.9,115.1z M89.2,117.8h-0.5c-0.3,0-0.5,0-0.7,0s-0.5,0.1-0.6,0.1c-0.2,0.1-0.3,0.2-0.4,0.3
			c-0.1,0.1-0.2,0.3-0.2,0.5c0,0.3,0.1,0.6,0.3,0.7c0.2,0.2,0.4,0.2,0.7,0.2c0.2,0,0.4,0,0.5-0.1c0.2-0.1,0.3-0.2,0.5-0.3
			c0.1-0.1,0.3-0.2,0.3-0.4c0.1-0.1,0.1-0.3,0.1-0.4V117.8z"/>
		<path class="st4" d="M91.6,119.9c0,0.1,0,0.1-0.1,0.2c0,0-0.1,0.1-0.2,0.1c-0.1,0-0.1,0-0.2-0.1c0,0-0.1-0.1-0.1-0.2v-4.5
			c0-0.1,0-0.1,0.1-0.2c0,0,0.1-0.1,0.2-0.1c0.1,0,0.1,0,0.2,0.1c0,0,0.1,0.1,0.1,0.2v0.5c0.1-0.2,0.3-0.4,0.5-0.6
			c0.2-0.2,0.5-0.2,0.9-0.2c0.3,0,0.5,0.1,0.7,0.2c0.2,0.1,0.4,0.2,0.6,0.4c0.2,0.2,0.3,0.4,0.4,0.6c0.1,0.2,0.2,0.5,0.2,0.8v2.9
			c0,0.1,0,0.1-0.1,0.2c-0.1,0-0.1,0.1-0.2,0.1c-0.1,0-0.1,0-0.2-0.1c-0.1,0-0.1-0.1-0.1-0.2V117c0-0.2,0-0.4-0.1-0.5
			c-0.1-0.2-0.2-0.3-0.3-0.5c-0.1-0.1-0.3-0.2-0.5-0.3c-0.2-0.1-0.4-0.1-0.5-0.1c-0.2,0-0.3,0-0.5,0.1c-0.2,0.1-0.3,0.2-0.4,0.3
			c-0.1,0.1-0.2,0.3-0.3,0.5c-0.1,0.2-0.1,0.4-0.1,0.6V119.9z"/>
		<path class="st4" d="M99.6,112c0.1,0,0.1,0,0.2,0.1s0.1,0.1,0.1,0.2v7.6c0,0.1,0,0.1-0.1,0.2c0,0-0.1,0.1-0.2,0.1
			c-0.1,0-0.1,0-0.2-0.1c0,0-0.1-0.1-0.1-0.2v-0.5c-0.1,0.2-0.3,0.4-0.6,0.6c-0.3,0.2-0.5,0.2-0.9,0.2c-0.3,0-0.5-0.1-0.7-0.2
			c-0.2-0.1-0.4-0.3-0.6-0.4c-0.2-0.2-0.3-0.4-0.4-0.6c-0.1-0.2-0.2-0.5-0.2-0.7V117c0-0.3,0.1-0.5,0.2-0.8c0.1-0.2,0.2-0.4,0.4-0.6
			c0.2-0.2,0.4-0.3,0.6-0.4c0.2-0.1,0.5-0.2,0.7-0.2c0.4,0,0.6,0.1,0.9,0.2c0.2,0.2,0.4,0.3,0.5,0.6v-3.6c0-0.1,0-0.1,0.1-0.2
			C99.4,112.1,99.5,112,99.6,112z M96.5,118.2c0,0.2,0,0.4,0.1,0.5c0.1,0.2,0.2,0.3,0.3,0.5c0.1,0.1,0.3,0.2,0.4,0.3
			c0.2,0.1,0.3,0.1,0.5,0.1c0.2,0,0.4,0,0.5-0.1c0.2-0.1,0.3-0.2,0.4-0.3s0.2-0.2,0.3-0.4s0.1-0.2,0.1-0.3V117c0-0.2,0-0.4-0.1-0.6
			c-0.1-0.2-0.2-0.3-0.3-0.5c-0.1-0.1-0.3-0.2-0.4-0.3c-0.2-0.1-0.3-0.1-0.5-0.1c-0.2,0-0.4,0-0.6,0.1c-0.2,0.1-0.3,0.2-0.4,0.3
			c-0.1,0.1-0.2,0.3-0.3,0.5c-0.1,0.2-0.1,0.4-0.1,0.5V118.2z"/>
		<path class="st4" d="M103,120.2c-0.3,0-0.6,0-0.9-0.1c-0.3-0.1-0.5-0.2-0.6-0.4c-0.2-0.2-0.3-0.4-0.4-0.6s-0.1-0.5-0.1-0.8V117
			c0-0.3,0-0.5,0.1-0.8c0.1-0.2,0.2-0.4,0.4-0.6c0.2-0.2,0.4-0.3,0.6-0.4c0.3-0.1,0.5-0.2,0.9-0.2c0.2,0,0.4,0,0.6,0.1
			s0.3,0.1,0.4,0.2c0.1,0.1,0.2,0.1,0.3,0.2c0.1,0.1,0.1,0.1,0.1,0.2s0,0.1-0.1,0.2c0,0.1-0.1,0.1-0.2,0.1c0,0-0.1,0-0.1-0.1
			c-0.1,0-0.1-0.1-0.2-0.1c-0.1-0.1-0.2-0.1-0.3-0.1c-0.1,0-0.3-0.1-0.5-0.1c-0.5,0-0.9,0.1-1.1,0.4s-0.4,0.6-0.4,1.1v1.2
			c0,0.5,0.1,0.8,0.4,1.1c0.3,0.3,0.6,0.4,1.1,0.4c0.2,0,0.4,0,0.5-0.1c0.1,0,0.2-0.1,0.3-0.1s0.2-0.1,0.2-0.1
			c0.1,0,0.1-0.1,0.2-0.1c0.1,0,0.1,0,0.2,0.1c0,0.1,0.1,0.1,0.1,0.2c0,0.1,0,0.1-0.1,0.2s-0.2,0.1-0.3,0.2
			c-0.1,0.1-0.3,0.1-0.5,0.2C103.5,120.2,103.3,120.2,103,120.2z"/>
		<path class="st4" d="M107.4,115.6c-0.2,0-0.4,0-0.5,0.1s-0.3,0.2-0.5,0.3s-0.2,0.3-0.3,0.5c-0.1,0.2-0.1,0.4-0.1,0.6v2.8
			c0,0.1,0,0.1-0.1,0.2c0,0-0.1,0.1-0.2,0.1c-0.1,0-0.1,0-0.2-0.1c0,0-0.1-0.1-0.1-0.2v-4.5c0-0.1,0-0.1,0.1-0.2
			c0,0,0.1-0.1,0.2-0.1c0.1,0,0.1,0,0.2,0.1c0,0,0.1,0.1,0.1,0.2v0.5c0.1-0.2,0.3-0.4,0.5-0.6s0.5-0.3,0.9-0.3h0.4
			c0.1,0,0.1,0,0.2,0.1s0.1,0.1,0.1,0.2s0,0.1-0.1,0.2s-0.1,0.1-0.2,0.1H107.4z"/>
		<path class="st4" d="M110.1,115.1c0.3,0,0.6,0.1,0.9,0.2c0.2,0.1,0.4,0.3,0.6,0.5c0.1,0.2,0.2,0.4,0.3,0.6
			c0.1,0.2,0.1,0.5,0.1,0.8v2.8c0,0.1,0,0.1-0.1,0.2s-0.1,0.1-0.2,0.1c-0.1,0-0.1,0-0.2-0.1s-0.1-0.1-0.1-0.2v-0.5
			c-0.2,0.2-0.4,0.4-0.7,0.6c-0.3,0.2-0.6,0.2-0.9,0.2c-0.2,0-0.4,0-0.6-0.1c-0.2-0.1-0.3-0.1-0.5-0.3c-0.1-0.1-0.2-0.3-0.3-0.4
			c-0.1-0.2-0.1-0.4-0.1-0.6c0-0.3,0.1-0.5,0.2-0.7c0.1-0.2,0.3-0.3,0.5-0.4s0.5-0.2,0.8-0.2s0.6-0.1,1-0.1h0.6v-0.3
			c0-0.2,0-0.4-0.1-0.6c0-0.2-0.1-0.4-0.2-0.5c-0.1-0.1-0.2-0.3-0.4-0.4c-0.2-0.1-0.4-0.1-0.6-0.1c-0.2,0-0.3,0-0.4,0
			c-0.1,0-0.2,0.1-0.3,0.1c-0.1,0-0.2,0.1-0.2,0.1c-0.1,0-0.1,0-0.1,0c-0.1,0-0.1,0-0.2-0.1c0-0.1-0.1-0.1-0.1-0.2s0-0.1,0.1-0.2
			c0.1-0.1,0.2-0.1,0.3-0.2c0.1,0,0.3-0.1,0.4-0.1C109.8,115.1,110,115.1,110.1,115.1z M111.4,117.8h-0.5c-0.3,0-0.5,0-0.8,0
			s-0.5,0.1-0.6,0.1c-0.2,0.1-0.3,0.2-0.4,0.3c-0.1,0.1-0.2,0.3-0.2,0.5c0,0.3,0.1,0.6,0.3,0.7s0.4,0.2,0.7,0.2c0.2,0,0.4,0,0.5-0.1
			c0.2-0.1,0.3-0.2,0.5-0.3s0.3-0.2,0.3-0.4c0.1-0.1,0.1-0.3,0.1-0.4V117.8z"/>
		<path class="st4" d="M113.8,115.1h1.6c0.1,0,0.1,0,0.2,0.1c0,0,0.1,0.1,0.1,0.2c0,0.1,0,0.1-0.1,0.2c0,0-0.1,0.1-0.2,0.1h-1.6v4.3
			c0,0.1,0,0.1-0.1,0.2c-0.1,0-0.1,0.1-0.2,0.1c-0.1,0-0.1,0-0.2-0.1c0,0-0.1-0.1-0.1-0.2v-6c0-0.3,0.1-0.5,0.2-0.7
			c0.1-0.2,0.2-0.4,0.4-0.6s0.4-0.3,0.6-0.4c0.2-0.1,0.5-0.2,0.7-0.2h0.2c0.1,0,0.1,0,0.2,0.1c0,0,0.1,0.1,0.1,0.2s0,0.1-0.1,0.2
			s-0.1,0.1-0.2,0.1h-0.1c-0.2,0-0.4,0-0.6,0.1c-0.2,0.1-0.3,0.2-0.4,0.3c-0.1,0.1-0.2,0.3-0.3,0.4s-0.1,0.3-0.1,0.5V115.1z"/>
		<path class="st4" d="M116.9,118.6c0,0.4,0.1,0.6,0.2,0.8c0.2,0.2,0.4,0.2,0.8,0.2h0.3c0.1,0,0.1,0,0.2,0.1c0,0,0.1,0.1,0.1,0.2
			c0,0.1,0,0.1-0.1,0.2c0,0-0.1,0.1-0.2,0.1H118c-0.5,0-0.9-0.1-1.2-0.4c-0.3-0.2-0.4-0.6-0.4-1.2v-5.7c0-0.1,0-0.1,0.1-0.2
			c0.1,0,0.1-0.1,0.2-0.1c0.1,0,0.1,0,0.2,0.1s0.1,0.1,0.1,0.2v2.2h1.4c0.1,0,0.1,0,0.1,0.1c0,0,0.1,0.1,0.1,0.2
			c0,0.1,0,0.1-0.1,0.2c0,0-0.1,0.1-0.1,0.1h-1.4V118.6z"/>
		<path class="st4" d="M120.7,119.7c0.4,0,0.7-0.1,0.9-0.2c0.2-0.2,0.3-0.4,0.3-0.6c0-0.3-0.1-0.5-0.2-0.6c-0.1-0.1-0.3-0.3-0.5-0.3
			s-0.4-0.2-0.6-0.2s-0.4-0.1-0.6-0.2c-0.2-0.1-0.4-0.2-0.5-0.4c-0.1-0.2-0.2-0.4-0.2-0.7c0-0.2,0-0.3,0.1-0.5s0.2-0.3,0.3-0.4
			s0.3-0.2,0.5-0.3c0.2-0.1,0.4-0.1,0.7-0.1c0.2,0,0.3,0,0.5,0c0.2,0,0.3,0.1,0.4,0.1c0.1,0,0.2,0.1,0.3,0.2
			c0.1,0.1,0.1,0.1,0.1,0.2c0,0,0,0.1-0.1,0.2c0,0.1-0.1,0.1-0.2,0.1c0,0-0.1,0-0.1,0s-0.1-0.1-0.2-0.1c-0.1,0-0.2-0.1-0.3-0.1
			c-0.1,0-0.3,0-0.4,0c-0.2,0-0.4,0-0.5,0.1c-0.1,0.1-0.3,0.1-0.3,0.2s-0.2,0.2-0.2,0.3s-0.1,0.2-0.1,0.3c0,0.2,0.1,0.4,0.2,0.5
			c0.1,0.1,0.3,0.2,0.5,0.3s0.4,0.1,0.6,0.2c0.2,0.1,0.4,0.1,0.6,0.2c0.2,0.1,0.4,0.3,0.5,0.4c0.1,0.2,0.2,0.4,0.2,0.8
			c0,0.4-0.1,0.7-0.4,1s-0.7,0.3-1.2,0.3c-0.2,0-0.5,0-0.7-0.1c-0.2,0-0.4-0.1-0.5-0.2c-0.1-0.1-0.2-0.1-0.3-0.2
			c-0.1-0.1-0.1-0.2-0.1-0.2c0-0.1,0-0.1,0.1-0.2c0-0.1,0.1-0.1,0.1-0.1s0.1,0,0.2,0.1s0.1,0.1,0.2,0.2c0.1,0.1,0.2,0.1,0.4,0.2
			C120.2,119.7,120.4,119.7,120.7,119.7z"/>
		<path class="st4" d="M123.9,119.9c0,0.1,0,0.1-0.1,0.2c0,0-0.1,0.1-0.2,0.1s-0.1,0-0.2-0.1c0,0-0.1-0.1-0.1-0.2v-7.6
			c0-0.1,0-0.1,0.1-0.2s0.1-0.1,0.2-0.1s0.1,0,0.2,0.1c0,0,0.1,0.1,0.1,0.2v3.6c0.1-0.2,0.3-0.4,0.5-0.6c0.2-0.2,0.5-0.2,0.9-0.2
			c0.3,0,0.5,0.1,0.7,0.2c0.2,0.1,0.4,0.2,0.6,0.4c0.2,0.2,0.3,0.4,0.4,0.6c0.1,0.2,0.2,0.5,0.2,0.8v2.9c0,0.1,0,0.1-0.1,0.2
			c-0.1,0-0.1,0.1-0.2,0.1s-0.1,0-0.2-0.1c-0.1,0-0.1-0.1-0.1-0.2V117c0-0.2,0-0.4-0.1-0.5c-0.1-0.2-0.2-0.3-0.3-0.5
			c-0.1-0.1-0.3-0.2-0.5-0.3c-0.2-0.1-0.4-0.1-0.5-0.1c-0.2,0-0.3,0-0.5,0.1c-0.2,0.1-0.3,0.2-0.4,0.3c-0.1,0.1-0.2,0.3-0.3,0.5
			c-0.1,0.2-0.1,0.4-0.1,0.6V119.9z"/>
		<path class="st4" d="M128.8,112.8c0.1,0,0.2,0,0.3,0.1c0.1,0.1,0.1,0.2,0.1,0.3c0,0.1,0,0.2-0.1,0.3c-0.1,0.1-0.2,0.1-0.3,0.1
			c-0.1,0-0.2,0-0.3-0.1c-0.1-0.1-0.1-0.2-0.1-0.3c0-0.1,0-0.2,0.1-0.3C128.6,112.8,128.7,112.8,128.8,112.8z M128.8,115.1
			c0.1,0,0.1,0,0.2,0.1c0,0,0.1,0.1,0.1,0.2v4.5c0,0.1,0,0.1-0.1,0.2c0,0-0.1,0.1-0.2,0.1c-0.1,0-0.1,0-0.2-0.1c0,0-0.1-0.1-0.1-0.2
			v-4.5c0-0.1,0-0.1,0.1-0.2C128.7,115.2,128.8,115.1,128.8,115.1z"/>
		<path class="st4" d="M130.7,115.1c0.1,0,0.1,0,0.2,0.1c0,0,0.1,0.1,0.1,0.2v0.5c0.1-0.2,0.3-0.4,0.5-0.6c0.2-0.2,0.5-0.2,0.9-0.2
			c0.3,0,0.5,0.1,0.7,0.2c0.2,0.1,0.4,0.2,0.6,0.4c0.2,0.2,0.3,0.4,0.4,0.6c0.1,0.2,0.2,0.5,0.2,0.8v1.2c0,0.3-0.1,0.5-0.2,0.7
			c-0.1,0.2-0.2,0.4-0.4,0.6c-0.2,0.2-0.4,0.3-0.6,0.4c-0.2,0.1-0.5,0.2-0.7,0.2c-0.3,0-0.6-0.1-0.9-0.2c-0.3-0.2-0.4-0.3-0.6-0.6v3
			c0,0.1,0,0.1-0.1,0.2c0,0-0.1,0.1-0.2,0.1s-0.1,0-0.2-0.1c0,0-0.1-0.1-0.1-0.2v-7c0-0.1,0-0.1,0.1-0.2S130.7,115.1,130.7,115.1z
			 M133.8,117c0-0.2,0-0.4-0.1-0.5c-0.1-0.2-0.2-0.3-0.3-0.5c-0.1-0.1-0.3-0.2-0.5-0.3c-0.2-0.1-0.4-0.1-0.6-0.1
			c-0.2,0-0.3,0-0.5,0.1c-0.2,0.1-0.3,0.2-0.4,0.3c-0.1,0.1-0.2,0.3-0.3,0.5c-0.1,0.2-0.1,0.4-0.1,0.6v1.6c0,0.1,0,0.2,0.1,0.3
			c0.1,0.1,0.2,0.2,0.3,0.4s0.3,0.2,0.4,0.3c0.2,0.1,0.4,0.1,0.5,0.1c0.2,0,0.4,0,0.5-0.1c0.2-0.1,0.3-0.2,0.4-0.3
			c0.1-0.1,0.2-0.3,0.3-0.5c0.1-0.2,0.1-0.4,0.1-0.5V117z"/>
		<path class="st4" d="M138.9,119.7c0.4,0,0.7-0.1,0.9-0.2c0.2-0.2,0.3-0.4,0.3-0.6c0-0.3-0.1-0.5-0.2-0.6c-0.1-0.1-0.3-0.3-0.5-0.3
			s-0.4-0.2-0.6-0.2s-0.4-0.1-0.6-0.2c-0.2-0.1-0.4-0.2-0.5-0.4c-0.1-0.2-0.2-0.4-0.2-0.7c0-0.2,0-0.3,0.1-0.5s0.2-0.3,0.3-0.4
			s0.3-0.2,0.5-0.3c0.2-0.1,0.4-0.1,0.7-0.1c0.2,0,0.3,0,0.5,0c0.2,0,0.3,0.1,0.4,0.1c0.1,0,0.2,0.1,0.3,0.2
			c0.1,0.1,0.1,0.1,0.1,0.2c0,0,0,0.1-0.1,0.2c0,0.1-0.1,0.1-0.2,0.1c0,0-0.1,0-0.1,0s-0.1-0.1-0.2-0.1c-0.1,0-0.2-0.1-0.3-0.1
			c-0.1,0-0.3,0-0.4,0c-0.2,0-0.4,0-0.5,0.1c-0.1,0.1-0.3,0.1-0.3,0.2s-0.2,0.2-0.2,0.3s-0.1,0.2-0.1,0.3c0,0.2,0.1,0.4,0.2,0.5
			c0.1,0.1,0.3,0.2,0.5,0.3s0.4,0.1,0.6,0.2c0.2,0.1,0.4,0.1,0.6,0.2c0.2,0.1,0.4,0.3,0.5,0.4c0.1,0.2,0.2,0.4,0.2,0.8
			c0,0.4-0.1,0.7-0.4,1s-0.7,0.3-1.2,0.3c-0.2,0-0.5,0-0.7-0.1c-0.2,0-0.4-0.1-0.5-0.2c-0.1-0.1-0.2-0.1-0.3-0.2
			c-0.1-0.1-0.1-0.2-0.1-0.2c0-0.1,0-0.1,0.1-0.2c0-0.1,0.1-0.1,0.1-0.1s0.1,0,0.2,0.1s0.1,0.1,0.2,0.2c0.1,0.1,0.2,0.1,0.4,0.2
			C138.4,119.7,138.6,119.7,138.9,119.7z"/>
		<path class="st4" d="M142.1,118.6c0,0.4,0.1,0.6,0.2,0.8c0.2,0.2,0.4,0.2,0.8,0.2h0.3c0.1,0,0.1,0,0.2,0.1c0,0,0.1,0.1,0.1,0.2
			c0,0.1,0,0.1-0.1,0.2c0,0-0.1,0.1-0.2,0.1h-0.3c-0.5,0-0.9-0.1-1.2-0.4c-0.3-0.2-0.4-0.6-0.4-1.2v-5.7c0-0.1,0-0.1,0.1-0.2
			c0.1,0,0.1-0.1,0.2-0.1c0.1,0,0.1,0,0.2,0.1s0.1,0.1,0.1,0.2v2.2h1.4c0.1,0,0.1,0,0.1,0.1c0,0,0.1,0.1,0.1,0.2
			c0,0.1,0,0.1-0.1,0.2c0,0-0.1,0.1-0.1,0.1h-1.4V118.6z"/>
		<path class="st4" d="M146.2,115.1c0.3,0,0.5,0.1,0.7,0.2c0.2,0.1,0.4,0.2,0.6,0.4c0.2,0.2,0.3,0.4,0.4,0.6
			c0.1,0.2,0.2,0.5,0.2,0.8v1.2c0,0.3-0.1,0.5-0.2,0.7c-0.1,0.2-0.2,0.4-0.4,0.6s-0.4,0.3-0.6,0.4c-0.2,0.1-0.5,0.2-0.7,0.2
			c-0.3,0-0.5-0.1-0.7-0.2s-0.4-0.2-0.6-0.4s-0.3-0.4-0.4-0.6c-0.1-0.2-0.2-0.5-0.2-0.7V117c0-0.3,0.1-0.5,0.2-0.7s0.2-0.4,0.4-0.6
			s0.4-0.3,0.6-0.4S146,115.1,146.2,115.1z M147.7,117c0-0.2,0-0.4-0.1-0.5c-0.1-0.2-0.2-0.3-0.3-0.5c-0.1-0.1-0.3-0.2-0.5-0.3
			c-0.2-0.1-0.4-0.1-0.6-0.1c-0.2,0-0.4,0-0.6,0.1c-0.2,0.1-0.3,0.2-0.4,0.3c-0.1,0.1-0.2,0.3-0.3,0.5c-0.1,0.2-0.1,0.4-0.1,0.5v1.2
			c0,0.2,0,0.4,0.1,0.5c0.1,0.2,0.2,0.3,0.3,0.5c0.1,0.1,0.3,0.2,0.4,0.3c0.2,0.1,0.4,0.1,0.6,0.1c0.2,0,0.4,0,0.6-0.1
			c0.2-0.1,0.3-0.2,0.5-0.3c0.1-0.1,0.2-0.3,0.3-0.5c0.1-0.2,0.1-0.4,0.1-0.5V117z"/>
		<path class="st4" d="M151.3,115.6c-0.2,0-0.4,0-0.5,0.1s-0.3,0.2-0.5,0.3s-0.2,0.3-0.3,0.5c-0.1,0.2-0.1,0.4-0.1,0.6v2.8
			c0,0.1,0,0.1-0.1,0.2c0,0-0.1,0.1-0.2,0.1c-0.1,0-0.1,0-0.2-0.1c0,0-0.1-0.1-0.1-0.2v-4.5c0-0.1,0-0.1,0.1-0.2
			c0,0,0.1-0.1,0.2-0.1c0.1,0,0.1,0,0.2,0.1c0,0,0.1,0.1,0.1,0.2v0.5c0.1-0.2,0.3-0.4,0.5-0.6s0.5-0.3,0.9-0.3h0.4
			c0.1,0,0.1,0,0.2,0.1s0.1,0.1,0.1,0.2s0,0.1-0.1,0.2s-0.1,0.1-0.2,0.1H151.3z"/>
		<path class="st4" d="M154.3,115.1c0.3,0,0.5,0,0.7,0.1c0.2,0.1,0.4,0.2,0.6,0.4s0.3,0.4,0.4,0.6c0.1,0.2,0.2,0.5,0.2,0.8
			c0,0.2,0,0.4-0.1,0.5c0,0.1-0.1,0.2-0.2,0.2c-0.1,0.1-0.2,0.1-0.3,0.1c-0.1,0-0.2,0-0.3,0h-2.4v0.4c0,0.2,0,0.4,0.1,0.6
			c0.1,0.2,0.2,0.3,0.4,0.5c0.2,0.1,0.3,0.2,0.5,0.3c0.2,0.1,0.4,0.1,0.7,0.1c0.2,0,0.4,0,0.5-0.1c0.1,0,0.3-0.1,0.3-0.1
			s0.2-0.1,0.2-0.1c0.1,0,0.1-0.1,0.2-0.1c0.1,0,0.1,0,0.2,0.1c0,0.1,0.1,0.1,0.1,0.2c0,0.1,0,0.1-0.1,0.2c-0.1,0.1-0.2,0.1-0.3,0.2
			c-0.1,0.1-0.3,0.1-0.5,0.2c-0.2,0-0.4,0.1-0.6,0.1c-0.3,0-0.6,0-0.9-0.1c-0.3-0.1-0.5-0.2-0.7-0.4c-0.2-0.2-0.3-0.4-0.5-0.6
			c-0.1-0.2-0.2-0.5-0.2-0.8V117c0-0.3,0.1-0.5,0.2-0.7c0.1-0.2,0.2-0.4,0.4-0.6c0.2-0.2,0.4-0.3,0.6-0.4
			C153.7,115.1,154,115.1,154.3,115.1z M155.1,117.4c0.2,0,0.4,0,0.5-0.1s0.1-0.1,0.1-0.3c0-0.2,0-0.4-0.1-0.5
			c-0.1-0.2-0.2-0.3-0.3-0.5s-0.3-0.2-0.4-0.3c-0.2-0.1-0.4-0.1-0.6-0.1c-0.2,0-0.4,0-0.6,0.1c-0.2,0.1-0.3,0.2-0.4,0.3
			c-0.1,0.1-0.2,0.3-0.3,0.4c-0.1,0.2-0.1,0.3-0.1,0.5v0.4H155.1z"/>
		<path class="st4" d="M158.5,119.7c0.4,0,0.7-0.1,0.9-0.2c0.2-0.2,0.3-0.4,0.3-0.6c0-0.3-0.1-0.5-0.2-0.6c-0.1-0.1-0.3-0.3-0.5-0.3
			s-0.4-0.2-0.6-0.2c-0.2-0.1-0.4-0.1-0.6-0.2s-0.4-0.2-0.5-0.4c-0.1-0.2-0.2-0.4-0.2-0.7c0-0.2,0-0.3,0.1-0.5
			c0.1-0.2,0.2-0.3,0.3-0.4c0.1-0.1,0.3-0.2,0.5-0.3c0.2-0.1,0.4-0.1,0.7-0.1c0.2,0,0.3,0,0.5,0s0.3,0.1,0.4,0.1
			c0.1,0,0.2,0.1,0.3,0.2c0.1,0.1,0.1,0.1,0.1,0.2c0,0,0,0.1-0.1,0.2c0,0.1-0.1,0.1-0.2,0.1c0,0-0.1,0-0.1,0c-0.1,0-0.1-0.1-0.2-0.1
			c-0.1,0-0.2-0.1-0.3-0.1c-0.1,0-0.3,0-0.4,0c-0.2,0-0.4,0-0.5,0.1c-0.1,0.1-0.3,0.1-0.3,0.2c-0.1,0.1-0.2,0.2-0.2,0.3
			c0,0.1-0.1,0.2-0.1,0.3c0,0.2,0.1,0.4,0.2,0.5s0.3,0.2,0.5,0.3c0.2,0.1,0.4,0.1,0.6,0.2c0.2,0.1,0.4,0.1,0.6,0.2s0.4,0.3,0.5,0.4
			c0.1,0.2,0.2,0.4,0.2,0.8c0,0.4-0.1,0.7-0.4,1s-0.7,0.3-1.2,0.3c-0.2,0-0.5,0-0.7-0.1c-0.2,0-0.4-0.1-0.5-0.2
			c-0.1-0.1-0.2-0.1-0.3-0.2c-0.1-0.1-0.1-0.2-0.1-0.2c0-0.1,0-0.1,0.1-0.2c0-0.1,0.1-0.1,0.1-0.1c0,0,0.1,0,0.2,0.1
			c0.1,0.1,0.1,0.1,0.2,0.2s0.2,0.1,0.4,0.2C158.1,119.7,158.3,119.7,158.5,119.7z"/>
	</g>
</g>
</svg>
