<?xml version="1.0" encoding="utf-8"?>
<!-- Generator: Adobe Illustrator 21.0.1, SVG Export Plug-In . SVG Version: 6.00 Build 0)  -->
<svg version="1.1" id="Layer_1" xmlns="http://www.w3.org/2000/svg" xmlns:xlink="http://www.w3.org/1999/xlink" x="0px" y="0px"
	 viewBox="0 0 841.9 595.3" style="enable-background:new 0 0 841.9 595.3;" xml:space="preserve">
<style type="text/css">
	.st0{fill:none;}
	.st1{fill-rule:evenodd;clip-rule:evenodd;fill:#E7E6E5;}
	.st2{fill-rule:evenodd;clip-rule:evenodd;fill:#442E7A;}
	.st3{fill:#FFFFFF;}
	.st4{fill-rule:evenodd;clip-rule:evenodd;fill:#9D8BC7;}
	.st5{fill:#FFFFFF;stroke:#442E7A;stroke-width:2.8346;stroke-miterlimit:10;}
	.st6{fill-rule:evenodd;clip-rule:evenodd;fill:#A09C98;}
	.st7{fill-rule:evenodd;clip-rule:evenodd;fill:#F6F5F5;}
</style>
<g>
	<g>
		<g>
			<path class="st0" d="M748.5,6C676.3-9.3,602.9-15.2,531.3-12.8c-71.7,2.4-141.8,13-208.7,30.1c-67,17.1-130.9,40.7-191.2,69.1
				C71.1,115,14.3,148.3-38.8,185.3l334.2,479.4c27.8-19.3,56.5-36,85.4-49.6c28.9-13.6,58-24.2,86.6-31.5
				c28.6-7.3,56.7-11.4,83.5-12.3c26.9-0.9,52.5,1.3,76.8,6.4L748.5,6z"/>
			<path class="st6" d="M155.1,448.7c2.9,3.4,3.5,3.3,2.2,0.6C156.9,449.6,153.3,445.2,155.1,448.7z"/>
			<path class="st6" d="M149.8,438.4c-0.2-1.3,3.9,4,2.2,0.5C150.7,437.9,147,433.3,149.8,438.4z"/>
			<path class="st6" d="M166,455.2c2.1,2.2-0.1-1.1,0.1-2.4c-2-2.5-1.9-1.8-2.9-2.8C163.9,451.8,165.2,453.4,166,455.2z"/>
			<path class="st6" d="M237.6,538.1c1.1,1.3,2.1,2.6,3.2,3.9c-2.1-3.8-0.1-1.3-1.6-4.2C236.2,534.1,235.6,534.2,237.6,538.1z"/>
			<path class="st6" d="M153.4,438.5c1.7,3,5,5.9,3.2,2.7c-2.5-3.8-1.2-1.1-4.2-4.8C153.4,437.9,154.4,439.5,153.4,438.5z"/>
			<path class="st6" d="M241.1,539.7c0.5-0.2,2.8,3.3,4.8,5.9c-1.9-3.4-4.2-6.8-6.8-10.1C239.7,536.9,240.4,538.3,241.1,539.7z"/>
			<path class="st6" d="M181,461.9c2.1,3.7,4.2,4.7,1.4-0.3C178.9,457,183.9,465.4,181,461.9z"/>
			<path class="st6" d="M252,546.7c0.5,0.3-0.2-1.4,1.1,0.9c1.8,2.3-1.4-3.3-1.6-4.3c2.7,3.8,4.1,5.3,5.8,6.9
				c-5.1-8.2-3.7-7.7-4.5-10.5c-0.6-0.2-0.3,1.2-3.3-2.8c3.5,5.6,1.8,3.4,2.9,6.3c-0.9-1.4-1.8-2.7-2.9-4c1.1,2.5,0.7,2.6-1.2,0.2
				C249.4,541.8,250.6,544.3,252,546.7z"/>
			<path class="st6" d="M185.2,464.3c1.1,1.3,2.2,2.6,3.3,3.9c-0.9-1.5-2.6-4.4-1.4-3.1C185.5,462.1,182.7,459.9,185.2,464.3z"/>
			<path class="st6" d="M169.1,435.5c1.3,1.1,1.1-0.2-0.4-3.4C167.7,431.5,165.8,430.4,169.1,435.5z"/>
			<path class="st6" d="M278.6,567.1c2.3,3.1,2.5,2-0.1-2.3C278.3,565.2,277.5,564.5,278.6,567.1z"/>
			<path class="st6" d="M175.6,436.2c0.9,0.4,4.8,5.4,1.8-0.4C176,434.6,174.5,433.4,175.6,436.2z"/>
			<path class="st6" d="M234.5,498.6c1.8,1.7-1.1-3-1.6-5.4c-0.4-0.2-0.8-0.5-1.9-1.9C234.9,498.1,230.7,492.8,234.5,498.6z"/>
			<path class="st6" d="M172.7,420.5c-1.9-3.4-3.1-3.1-6.5-7.8C168.5,417.4,171,418.7,172.7,420.5z"/>
			<path class="st6" d="M183.3,426.1c0.3-0.6,2,1.1,0.5-2.5c-1.7-1.4-2.3-1.1-4.6-3.6C179.8,422.3,182.7,424,183.3,426.1z"/>
			<path class="st6" d="M271.5,537.7c3.6,6.4,1.5,1,2.4,1.9C271.1,534.4,272.3,538.5,271.5,537.7z"/>
			<path class="st6" d="M259.8,515.8c-2.7-3.9,0.6,2.4-2.9-2.9c1.3,2.8,3,5.6,4.9,8.3C259.2,515.9,262.8,521,259.8,515.8z"/>
			<path class="st6" d="M303.4,574.9c1.9,2.4,3.6,4.3,2.2,0.8C304.7,575.1,303.1,573.3,303.4,574.9z"/>
			<path class="st6" d="M142.8,369c2.7,3.6,1.5,1,3.7,3.8c-1-2.9-3.2-5.5-5.4-8.1C141.6,366.1,142.2,367.6,142.8,369z"/>
			<path class="st6" d="M163.6,393.3c3.2,4.2,2.9,2.9,4,3.7C165.8,393.9,161,388.5,163.6,393.3z"/>
			<path class="st6" d="M148.6,371.1c0.8,1,0.6,0.5,0.4-0.1c4.7,4.8,3.1-0.7,7,3c-1.3-3.6-3.9-6.9-5.5-10.5
				c-2.7-2.8,1.5,3.7,0.5,3.4c-2.3-2.5-3.3-5-4.1-4.9c3.4,5.6,1.4,4.4,2.7,7.6c-2.8-3.8-2.5-2.5-4.5-4.8
				C145.6,367.1,148.2,368.8,148.6,371.1z"/>
			<path class="st6" d="M272.1,523c-1.1-1.2-1.6-3.9-1-3.3c-2.8-5.5-0.1,1-2.6-3c0.8,2.5,2.5,4.9,3.7,7.4c1.6,2,2.6,2.9,3.6,4
				C274.4,524.6,272.5,522.8,272.1,523z"/>
			<path class="st6" d="M77.7,283.2c2.1,2,5.8,6.5,3.3,1.4C79.6,283.7,76.8,280.6,77.7,283.2z"/>
			<path class="st6" d="M73,276.2c1.9,3.7,3.4,3.3,2.1,0.6C71.1,271.3,74.4,277.6,73,276.2z"/>
			<path class="st6" d="M81,283.4c-1-2.5-2.7-4.8-3.9-7.3c-1-0.9-0.6,0.4-1.7-0.7C76.9,278.2,78.9,280.8,81,283.4z"/>
			<path class="st6" d="M272.8,520.6c3.6,6.5,2.4,1.8,4.7,5C274,518.6,273,519.9,272.8,520.6z"/>
			<path class="st6" d="M31.4,219.9c1.4,1,0.5-2.3-1.7-8C30.2,214.3,28.9,214.1,31.4,219.9z"/>
			<path class="st6" d="M282.2,526.1c-1.9-3.4-5.2-7.8-3.6-4C280.4,525.2,284.5,531,282.2,526.1z"/>
			<path class="st6" d="M111.7,309.4c3.1,3.8,3.3-0.2-1.3-5.6C113.2,309.5,110.9,307,111.7,309.4z"/>
			<path class="st6" d="M164.9,371.7c3.4,5.5,5.1,5.1,2.6-0.6c-1.2-1.3-1.8-2.7-2.4-4.1C161.3,362.2,167.7,374.6,164.9,371.7z"/>
			<path class="st6" d="M63.5,248.7c3.9,4.7,4.7,4.3,3.8,1.3C67.2,251.4,62,244.6,63.5,248.7z"/>
			<path class="st6" d="M286.9,528.9c0.4,0.3,0.8,0.6,1.5,2.1c-1.7-4.9,2.9,1.6,1.2-3.5C288.5,528.2,281,516.2,286.9,528.9z"/>
			<path class="st6" d="M123,311.1c3.2,4.4,0-1.8-0.5-3.5c-0.4-0.2-0.9-0.4-2-1.8C121.5,307.5,122.3,309.3,123,311.1z"/>
			<path class="st6" d="M289.9,527.4c1.7,3.9,1.1,1.2,2.9,4.1c-3.8-6.4,0.3-0.5-1.8-5.4c-3.4-5.5,1.7,4.6-1.7-1
				C290,526.8,290.6,528.4,289.9,527.4z"/>
			<path class="st6" d="M292.8,529.3c1.9,1.6,6.6,9.8,4.8,5c-2.8-3.4-3.6-7.1-6.3-10.5C295.4,531.2,291.2,525.3,292.8,529.3z"/>
			<path class="st6" d="M97,266.7c1.7,0.9,1.1-2.7-2.9-7.6C95.3,262.5,94.5,261.7,97,266.7z"/>
			<path class="st6" d="M298,528.6c3.2,4.7,1.6,0.6,3,2c1.6,2.4,2.6,4.9,3.5,7.5c2.6,2.8-3.1-7.8-1-6.6c-2.7-4.5-1.6-2.5-4.3-6.3
				c1.5,4.1,0.9,1.2,3.3,5.3C301.6,531,296.9,524.4,298,528.6z"/>
			<path class="st6" d="M201.3,386c2.5,2.9,0.8-1.9-0.9-5.7C199.3,379.9,198.4,380.2,201.3,386z"/>
			<path class="st6" d="M146.9,314.6c0.9,0.2,1,1.4,3.2,4c-1.1-2.5-2.7-4.9-4-7.3C145.1,310.2,146.4,313.1,146.9,314.6z"/>
			<path class="st6" d="M172,322.9c1.4,0.7,2.5,1.2,0.8-3.7C173.1,321.3,169.2,317.5,172,322.9z"/>
			<path class="st6" d="M90.5,203.4c2.1,2.6,1.9,1.3,3.3,2.7c-0.4-2.3-3.5-3.9-4-6.1C88.8,198.9,90.1,201.9,90.5,203.4z"/>
			<path class="st6" d="M46.7,150.4c2.4,2.3,1.9-0.4,0.4-5C46.7,146.7,44.3,145.8,46.7,150.4z"/>
			<path class="st6" d="M209.1,350.7c1,1.4,2,2.8,3,4.1c-0.8-1.6-1.5-3.2-0.7-2.2C209.9,349.3,207.3,346.8,209.1,350.7z"/>
			<path class="st6" d="M82.9,178.9c2.9,3.2,1.6-1.1,5.8,4.5c-1-2.6-2.9-4.9-4.3-7.3c-0.5-2.1,2.6,1.4-0.2-3.6
				c-1.4-1.4,0.7,3.5-2.2-0.6C85.9,179.4,81.3,173.8,82.9,178.9z"/>
			<path class="st6" d="M199.9,325.5c0.3-0.1,1.8,2.2,1.5,0.9c-0.9-3.1-3.9-7.6-4.5-7.4C197.2,321.3,199.7,323.2,199.9,325.5z"/>
			<path class="st6" d="M93.7,171.2c3,5.3,6.7,6,3.2-0.8C96.2,171.5,96.8,174.8,93.7,171.2z"/>
			<path class="st6" d="M71.6,134.8c2.5,3,2.8,1.8,1.2-2.8C72.5,133.2,70.7,131.6,71.6,134.8z"/>
			<path class="st6" d="M114,185.3c1.2,0.7,3.4,3.4,2.2-0.5C114.8,183.6,113.2,182.3,114,185.3z"/>
			<path class="st6" d="M126.5,191.9c1.5,1.8,0.6-1,2.1,0.7c-0.7-1.8-2.2-3.5-3.4-5.2C125.6,189,126,190.5,126.5,191.9z"/>
			<path class="st6" d="M128.1,188c2.6,3.7,1.2-0.3,2.9,1.7C130.1,187.3,125.9,182.7,128.1,188z"/>
			<path class="st6" d="M232.3,330.5c-0.1-0.7-0.6-1.5-1-2.2c-0.3-1.1,1,1,1.8,2.1c-0.2-1.3-3.4-7.7-1.6-5.6c-1.2-4-1.6-1.1-2.5-4.3
				C228.6,321.2,228.8,325.7,232.3,330.5z"/>
			<path class="st6" d="M230.7,322.6c1.3,2.2,1.1,1.1,0.8-0.1c1,1.4,1.9,2.8,2.4,4.3c0.9,1.1-0.2-1.9-0.6-3.4
				c-1.2-1.8-2.4-3.5-3.5-5.3C231.3,322.1,229.7,319.5,230.7,322.6z"/>
			<path class="st6" d="M244.9,342.6c1.2,1.3,1-0.1,0.5-2.4C243.1,336.4,243.8,339.2,244.9,342.6z"/>
			<path class="st6" d="M147.3,199.2c1.6,1.1-2.3-6.5-3.9-8.7C142.4,190.7,145.9,196,147.3,199.2z"/>
			<path class="st6" d="M139.1,186.7c2,1.5,5.3,4.3,1.7-4C140.8,185.2,136.3,178.7,139.1,186.7z"/>
			<path class="st6" d="M148.3,197.8c0.3-1.1,1.9,0.6,1.1-2.6c-1.3-1-1.5,0.3-3.3-1.7C146.7,194.9,147.9,196.3,148.3,197.8z"/>
			<path class="st6" d="M161.2,215.3c0.8-2.5,3.1,1-3.7-9.9C158.1,208.8,159.9,212,161.2,215.3z"/>
			<path class="st6" d="M249.6,339.7c2.1,3.1,2.7,3,1.9-0.3C250.4,338.7,248.4,335.8,249.6,339.7z"/>
			<path class="st6" d="M263.2,348.3c-1.1-6.5,2.7-1.6-0.1-10.4c-1.2,0.5-2.3,1.3-2.2,4.9c-0.9-1.4-1.1-2.9-1.6-4.4
				C256.3,334.7,260.2,343.5,263.2,348.3z"/>
			<path class="st6" d="M168.9,201.9c2.6,2.7-3.6-8.5-1.5-5.6C164.1,189.2,167.4,199.5,168.9,201.9z"/>
			<path class="st6" d="M168.5,198.4c1.3,1.3,1.9,0.9,0.4-3.6C167.6,193.6,167.5,195,168.5,198.4z"/>
			<path class="st6" d="M267.9,338.6c0.9,1.4,1.8,2.9,2.7,4.3c-0.4-1.9-1.4-3.7-1.8-5.5C268.7,338.3,267.1,335.6,267.9,338.6z"/>
			<path class="st6" d="M195.8,223c-0.9-2.6-2.6-5.1-2.9-7.8C191.3,214.2,193.9,222.6,195.8,223z"/>
			<path class="st6" d="M183,118.9c3.9,6.4,1.5-1.5-0.2-5.9C182,113.2,182.6,116.4,183,118.9z"/>
			<path class="st6" d="M208.1,118.7c2.7,4-1.4-5.8,1.7-1.4c2.2,4.2,0.3,3.1,1,5.7c2,2.4,1.5-0.9-0.1-5.9c-0.8-0.3-1.5-1.4-2.7-4.3
				c-1.2-5.8,3.2,2.6,1.7-3.8c-0.6,0-0.6,1.3-3-3.1c0.9,5.8-1.3,3.7-3.3,0.5C205.1,110.4,207.8,114.4,208.1,118.7z"/>
			<path class="st6" d="M216.1,115.2c0.9,1.5,1.8,2.9,2.7,4.4c-0.7-4.2,0.2-2.1-1.2-6.9c-2.3-3.8,0.1,6.2-2.3-2.1
				C213.7,108,215.8,114.2,216.1,115.2z"/>
			<path class="st6" d="M221.8,120.3c-1.2-3-1.5-6.1-2-9.1c-0.7-1.1-1.3-2.2-2-3.3c0.3,1.5,0.2,1.8-0.3,1.2c1.6,4.3,1.4,2.9,1.4,5.7
				C220.1,116.7,220.6,118.5,221.8,120.3z"/>
			<path class="st6" d="M227.3,124.4c-0.9-4.4,1.3-0.9,0.6-4.8c-2-2.5-1,2.9-4.3-3C225.1,121.6,225.1,119.5,227.3,124.4z"/>
			<path class="st6" d="M226.8,112.7c0.3,2.7,1,5.4,2.7,7.9c0.2-0.3,0.4-0.7,0.1-2.4C228.9,116.4,227.9,114.5,226.8,112.7z"/>
			<path class="st6" d="M228.8,116c1.1,1.8,1.6,3.7,2.8,5.5c-0.2-1.8-1.6-4.9-0.6-3.4c-0.5-1.9-1.8-3.7-2.8-5.6
				C228.4,113.7,228.6,114.8,228.8,116z"/>
			<path class="st6" d="M226.8,106.8c0.7,2.4,5.2,9.1,4,4.2C229.3,109,227.2,105.5,226.8,106.8z"/>
			<path class="st6" d="M244.6,116.5c-1-4.3,0-3.1-0.4-5.8c-2.1-4.3-0.8,1.1-2.9-3.2C242,110.5,242.6,113.6,244.6,116.5z"/>
			<path class="st6" d="M250.7,112.4c1.6,2.7,2.2,2.6,1.9-0.2c-0.8-1.5-1.7-3-2.5-4.5C250.3,109.3,250.5,110.9,250.7,112.4z"/>
			<path class="st6" d="M255.6,113.1c1.4,1.3,2.4,1.2,3.6,2c-0.2-2.7-3.3-5.2-3.4-7.9c-1-1.1,0.2,2,0.5,3.5
				C256.2,112.1,254.4,108.2,255.6,113.1z"/>
			<path class="st6" d="M254.4,100.3c1.2,2,0-3.3,1.3-1.3c-1.6-4.2-2.4-4.8-3.6-5.5C252.4,95.8,254.2,98,254.4,100.3z"/>
			<path class="st6" d="M265.6,116.9c-0.8-6.7,2.8-0.4,4.2-0.3c-1.4-7.1-4.3-7.7-6.9-13.5c1.9,6.5,2.5,7,1.6,9.2
				c-2.7-4.8-3.7-8.4-4.8-7.8C261.7,111,262.7,112.2,265.6,116.9z"/>
			<path class="st6" d="M260.8,102.1c1.6,1.5,1.6-1.5,3.5,0.9C263.2,99.8,259.5,95.3,260.8,102.1z"/>
			<path class="st6" d="M263.9,96c1.1,2.2,1.1,1,2.3,3.3c-0.5-3.5-2.9-6.8-3.1-10.3c-0.7-0.7-0.9,0.4-0.7,2.4
				C264.7,95,263.7,92.2,263.9,96z"/>
			<path class="st6" d="M270.5,94.3c1.3,2.8,1.5,2.2,2.3,3.4c-1.1-2.7-1.3-5.4-2.8-8C271.3,93.8,270.1,91,270.5,94.3z"/>
			<path class="st6" d="M358.6,114.9c2,3.8,2.5,0.8,2.7-3.5c-1.4-1.9-3.2-5.3-4.4-5.9C357.2,108.7,358,111.8,358.6,114.9z"/>
			<path class="st6" d="M376.4,93.2c1.5,4.8,1-0.6,1.9,1.2C378,91.1,375.8,88.2,376.4,93.2z"/>
			<path class="st6" d="M401.4,99.1c0.9,4.7,2.9,4.8,2.8,0.2C402.9,97.4,402.3,99.1,401.4,99.1z"/>
			<path class="st6" d="M413.1,101c0.5-3.3,2.6-3.3,2.1-8C414.1,92.7,412.3,94.1,413.1,101z"/>
			<path class="st6" d="M434.2,91.1c1.3,2.8,1.7,0.1,2.8,1.5C436.6,88.9,434.2,85.8,434.2,91.1z"/>
			<path class="st6" d="M460.3,108.2c-0.2-2.8,0-5.5-0.3-8.2c-0.6-0.9-0.9,0.2-1.1,2.2C459.6,104.2,459.6,106.2,460.3,108.2z"/>
			<path class="st6" d="M549.5,516.6c1,3.5,1.6-7.1,2.6-3.5C551.4,503.9,550.2,513,549.5,516.6z"/>
			<path class="st6" d="M552.1,509.6c0.5,3.9,0.8,2.9,1.1-1.9C552.8,506.7,552.5,507.2,552.1,509.6z"/>
			<path class="st6" d="M501.4,87.4c0.1-2-0.1-4-0.6-6c1.6,0.3,2,0.9,3.6-1.7c-1.8-3.3-3.4-3.6-4.7-0.9
				C500.7,81.7,500.6,84.5,501.4,87.4z"/>
			<path class="st6" d="M509.8,105.5c-0.2-3.6,0.6-7-0.4-10.8C508.5,94.8,508.9,101.7,509.8,105.5z"/>
			<path class="st6" d="M506.4,82.3c-0.1,2,0.6,4.1,1,6.2c0.5-2.3,0.6-4.6,0.5-7C507.3,79.2,507.2,86.3,506.4,82.3z"/>
			<path class="st6" d="M562.2,63.1c0.9,2.4,1.3-3,1.7-5.6c-0.5-0.9-1,0.1-1.5,2.1C562.7,60.8,562.3,62,562.2,63.1z"/>
			<path class="st6" d="M566,48.4c0.6,2.3,1.6-5.1,1.6-6.9C566.5,41.1,566,43.9,566,48.4z"/>
			<path class="st6" d="M570.2,56.7c2,3.5,4.2,0.1,6.3-0.8c-0.3-5.8,1-4.4,1.9-8C575.5,47.8,573.4,54.7,570.2,56.7z"/>
			<path class="st6" d="M577.5,53.7c0.8,3.4,1.8-1.7,2.8-2.9C579.5,48.2,578.6,48.4,577.5,53.7z"/>
			<path class="st6" d="M581.3,51.1c1,0.3,1.8,3.1,2.9,0.8C584.1,47.7,582.4,45.2,581.3,51.1z"/>
			<path class="st6" d="M583.6,60.2c1.2,0.6,1.6,3.1,2.2,5.4c0.8-4.9,1.3-5.1,0.9-11.9C586.3,61.8,584.7,56.1,583.6,60.2z"/>
			<path class="st6" d="M597.4,40.9c-0.3,0.7-0.2,1.5-0.1,2.4c0.1,0.9,0.2,1.7,0.4,2.5c1-5.5,3.2,0,5.1-7.1c-0.3-1.3-0.2-2.5,0-3.7
				c-1.3,2.9-2.4,2.1-3.8,6.2c-0.9-6.2,0.8-4.1,1-9.5c-0.4-4-1.5,7.1-1.9,3.1C597.5,36.3,598.6,43.8,597.4,40.9z"/>
			<path class="st6" d="M604,37.9c0.8-0.3,0.4,7.9,1.5,7.8c-0.1-4.9,0.2-7.7,1.6-9.3C606.3,33.3,605.1,36.1,604,37.9z"/>
			<path class="st6" d="M606.3,30c1,3,2.4-1.1,3.8-3.8C608.4,23.9,607.9,27.8,606.3,30z"/>
			<path class="st6" d="M617.4,32c0.4-1.9-0.4-4.2,0.2-6.1c-1.6-0.8-4.1,10.8-5.3,3.4C611.5,42.6,616.1,27.2,617.4,32z"/>
			<path class="st6" d="M612.2,24.4c1.5,4,3.8-3.2,5.8-6.9C616.5,12.9,614.1,21.3,612.2,24.4z"/>
			<path class="st6" d="M617.5,6.3c-0.6,6.4,1.9-0.1,2.7-1.6C619.6,1.1,618.2,8.9,617.5,6.3z"/>
			<path class="st6" d="M618,13.8c1.3,2,2.4,6.2,4.6-2.3C620.7,16.7,619.9,8.3,618,13.8z"/>
			<path class="st6" d="M624.6,24.4c-1-6.1,1.2-10.9,1.9-8C626.8,21.3,625.4,22.5,624.6,24.4c0.2,5.9,1.5-2.2,1.8,3
				c1.3-10.6,5.7-21.6,7.7-25.9c0.7-8.5-4.1,5.8-4.6,10.9c0.4-7.1-1.8-1.9-0.6-8.8c-2.5,7-4.9,15.7-8.3,26.9
				C621.4,34.5,622.9,30.1,624.6,24.4z"/>
			<path class="st6" d="M632.4,13.4c-0.4,1.9,0.1,4.1,0.2,6.2c0.7-0.8,1.8-5.1,2.4-4.1c0.3-2,0.1-4.1,0.8-5.9
				c-0.4-1.3-0.9-1.5-1.3-2.8C633.6,9.7,633.5,17.2,632.4,13.4z"/>
			<path class="st6" d="M634.6,23.9c0.8-0.4,2.8-3,2-8C635.4,18.4,635.4,21.3,634.6,23.9z"/>
			<path class="st6" d="M637.4,10c-1,5.6,1.1,0.8,1,5.3c0.7-4.5,0.4-4.8,1.7-6.9C639.7,4.4,638.2,10.5,637.4,10z"/>
			<path class="st6" d="M137.9,437c-1.9-2.2-2.6-4.8-4.9-6.9c1,2,0,1,1.1,3.2c1.8,0.1,11.6,17.9,4.3,4.7c2.1,0.4,2.4-1.9,7.3,2.7
				c-2.3-4.6-1-3.1,1.9,0.6c-0.7-1.3-2-2.6-2.7-4c-0.7-2.3,2.8,3.7,4.2,4.7c-3.1-4.8-2.3-4.3-6.6-12.4c-1.8-1.6,0.5,3.1,1.4,5.5
				c-4.3-5.4-2.3-1.5-2.3-0.5c-7.3-8.7-5.6-3.1-9-6.9c2.1,4.5,6,7.1,6,6.6C141.1,439.2,135.1,431.8,137.9,437z"/>
			<path class="st6" d="M177.8,469.7c2.6,2.3,2.8,1.1,2.7-0.7c-1.9-1.8-2.8-4-4.6-5.8C181.2,471.7,176.4,466.2,177.8,469.7z"/>
			<path class="st6" d="M182.7,469.6c0.5-0.1-0.9-2.6-3.1-5.1c-0.4-1.1,1.1,0.9,2,1.9c-0.9-2.5-2.6-4.8-3.7-7.3
				c1.1-0.1,3.3,1.4,1.8-2.8c7.9,9.9,3.3,0.6,6.4,3.1c5.1,8.1,0,3.4,4.5,10.6c-0.2-3.7,5.5,3.2,2.5-5.3c3.3,4.3,6.1,8,3,1.6
				c3.3,4.3,6.2,9.4,6.6,11.3c2.1,2.8,0.2-0.6,1.5,0.8c-2.5-3.3-3.5-6.9-6.4-10.1c4.5,5,0.9-2.9,2.9-1.9c1.2,4.7,3,9.3,2.9,9.8
				c5.2,7.3,0.5-3.6,0.3-5.9c3.4,5.3,3.6,3.5,3.8,2.7c-0.7-1.4-1.9-2.7-2.5-4.1c-0.2-0.7,0.3-0.1-0.1-1.1c1.1,1.7,1.9,3.4,3.3,5.1
				c1.5-0.2,0.3-4.7,1.1-6c0.7,1,1.2,2,2,3c-0.2,2.5,1.6,6.2,1.7,8.9c4,4.4,2.7,0,5.4,2.3c-1.9-3.8-1.3-1.1-3.2-3.9
				c-1.3-2.6-0.7-2.1-1.1-3.3c2.6,2.8,5.3,8.2,6,8c-0.7-1.8-1.9-3.4-2.6-5.2c-0.8-0.9-0.1,0.5,0.1,1.1c-1.8-2.3-6.7-10.4-3.2-4
				c-4.4-5.3-4.7-8-3.5-7.3c1.1,3.3,3.2,3.4,5.3,8.1c1.6,1.8-2.4-5.6-1.2-4.4c2.9,3.8,3.4,6.8,3.2,7.4c1.3,2.8,3.7,5.4,5,8.2
				c2.2,2.5-0.1-2.4,2.4,0.7c2.7,4.5,1.3,3.3,4,8.4c4.2,5.8-0.1-2.3,3.7,2.7c-2-3.8-1.8-1.6-4.7-6c0.6,0,0.6-0.8,2.1,0.7
				c-3.3-4-4.3-6.5-7-11.3c-0.2-0.7,0.3-0.1-0.1-1.1c2,1.9,2.1,4.2,4.1,6.1c-3.4-6.9,3.5-2.8,8,5.3c-1.8-3.9-0.1-2-2.7-6.4
				c2.7,2.9,4,6.1,6.4,9.1c-1.4-0.9,0.3,3.5-1.8,1.5c3.2,4.4,5.4,4.6,5.2,2.4c1.5,2,2.2,4.2,4,6.1c-1.2-3.3-2.6-7,1.8-1.4
				c-3.1-5.3-1.9-4.7-5.8-10.4c3.1,4.4-0.2-2.5,3.2,1.7c-4.9-7.5-0.5-3.4-3.6-8.5c3,2.9,3,6.3,5.6,9.3c-2-4.3-1.6-4.6-0.4-3.4
				c1.5,2.4,2.7,4.9,4.1,7.3c-0.1,3-4-0.6-2.1,4.9c2.7,3.9-0.6-2.4,3,2.9c-4.8-12.2,8,5.9,4.4-4.1c8,10.1,5.3-1.7,12.6,9.4
				c1.1,0.7,1.7,0.7,3.1,1.8c-4.2-8,0.2-2.4-0.1-4.5c1,1.7,1.8,3.5,3.1,5.2c-3-5.5-2-5.9,0.5-1.2c-1.8-6.6,5,2.4,4.6-1.7
				c-2.1-2.9-2.3-4.9-2.8-6.4c1.6,2.4,2,5,3.6,7.4c4.3,5,2-2,3.2-2.7c4.3,8,6.2,8.1,3.7,2.9c2.4,3.8,1.3,1.2,3.2,4.1
				c-5.5-11.8,6.5,4.4,2.9-5.9c7.6,11.7-0.1-8.1,7.2,3.7c-1.1-1.1-0.7,0.6-0.8,1.2c3.4,5.8,0.6-2.7,3.1-0.3c1,1,6.1,7.3,2.8,0.8
				c-1-2.5,2.3,3.2,3.1,4.2c-1.1-4.4,1.9-0.7,0.5-5.6c3.3,4,5.4,2.5,7.6,2.8c4,1.3,7.8,2.4,11.5,3.4c3.7,1,7.3,1.9,10.8,2.6
				c7,1.3,13.7,2.4,20,2.7c3.1,0.1,6.3,0.3,9.3,0.3c3,0,6-0.1,8.9-0.4c2.9-0.2,5.7-0.5,8.5-0.9c2.8-0.4,5.5-1,8.2-1.5
				c5.4-1,10.6-2.6,15.8-4.2c2.6-0.8,5.1-1.7,7.7-2.7c2.5-0.9,5.1-1.8,7.6-2.8c5-2.1,10-4.1,14.9-6.3l14.9-6.5
				c1,2.8,1.3,5.5,1.8,8.2c-2.5-3.9-3.8-2.1-4.9-0.3c-1.2,1.9-2.3,3.9-4.8,0.6c1,4.8,0.7,4.2,0.5,5.6c-0.7-2.3,0-1-0.5-3.4
				c-1.2-2.8,0.5,5.9-1.6-0.3c0.4,3,1.7,6.2,2.1,9.3c-4.3-11.3-5.5-7.4-5.6-1c-1.9-1.7-4.3-5.1-4,1.5c-0.5-1.2-0.8-2.3-1.1-3.5
				c-0.3,7-5.9-1.3-4.7,8.1c-1.3-3.1-1.3-4.3-1.9-4.7c0.3,1.5,1,3.1,1.6,4.6c-2.5-3.6-3.3-1.7-4.1,0c-0.8,1.7-1.7,3.2-4.6-1.3
				c2.1,7.6-1.6,0.7-2.3,0.8c-1.2,0.2,0.5,8-2,2c0.6,5.1-0.3,5.5-3.3-0.4c0.1,2.2,1.8,4.6,1.9,6.8c0.7,2.7-2-3.6-2-4.6
				c1.3,6-1.2,0.7-0.7,4.3c-0.8-1.6-1.2-3.1-1.5-4.6c1.1,6.1-1.2,2.1-1,5.4c-3-8.6-0.4-0.9-2.4-4.7c1,3,1.6,5.6,1.2,5.6
				c-0.7-1.9-1.5-3.8-2.3-5.7c2.3,8.6-2.9-2.9-1,6.5c-0.9-1.9-1.6-3.8-2.1-5.7c-0.6,2.8-5,0.9-3.4,6.3c-0.3,1.3-3.8-6.1-1.7,2
				c-2.7-5.3-5.1-8.3-3.3-2.5c-3.2-1.8-5.3-0.8-7.4,0.1c-2.1,0.9-4.3,1.8-7.7,0.1c0.3,1.5,1.1,3,1.5,4.4c-1.7-3.2-1.4-2-3.5-5.6
				c0.1,3.8-2.2,2.6-4.3,1.8c-2.1-0.8-4.1-1.1-3.5,4.6c-1-1.8-1.7-3.7-2.7-5.5c-0.8,1.3-0.8,4.5-3.1,2.1c1.4,3.2,5.8,12.7,5.7,15.5
				c-2.2-4.4-3.1-7-4.6-8.8c-1.7-3.4-2.6-7.9-0.4-3.3c-1.8-5.4-4.2-7.6-1.8-2.2c-5.3-8.2-1.8,4.1-7.4-4.4c2.9,7.7,0.7,5.3-2.9-1.1
				c0.3,1.5,1.1,2.9,1.9,4.4c-3.2-3.5-3.5-0.5-6.9-4.4c0.7,1.8,1.7,3.7,2.3,5.5c-4-3.5-3.5,4.7-9.9-5.2c0.4,1.1,1.1,2.2,1.6,3.2
				c-3.5-1.7-4.2,2.3-10-4.1c0.5,5.1-4.7,0.9-7.4,0.4c0.7,2.5,2.6,5,3.3,7.6c0,0.5,0.1,1-0.6,0c-5.3-12-4.5-5.3-6.9-8.5
				c2.6,5.9,1.2,1,3,4.3c2.5,4.6,1,3.4,1.2,4.3c-7.9-13.8-5.5-5-9.8-10.5c0.7,2.5,2.7,5,3.3,7.5c0.3,0.9-1.1-1.4-0.6,0.1
				c-1.1-1.8-1.6-3.6-2.3-5.4c-1.9-2.8-2.3-2.7-0.8,1.2c1.1,2.1,2.7,4.2,3.3,6.4c1.4,2.1-0.2-1.6,2,2.1c1.7,4.4-1.8-1.5,0.7,4.4
				c-3.7-6.2-2.6-3.2-3.7-4.2c-2.8-5.3,1.5,1-0.3-3.3c-4.6-7-1-2.8-2-5.4c-5.3-7.5-0.7,1.2-4.9-4c0.8,2.2,2.6,4.2,3.6,6.4
				c0.4,1-0.5-0.5-1-1c1.2,2.8,1.9,3.9,2.5,4.2c2.4,6.1,0.4,3.9,2.7,9.8c-1.6-2.1-1.9-2.3-3.9-6.3c-0.6,0.1,3.4,9,0.8,5.5
				c-1.5-2.1-1.8-4.3-2.7-6.4c-2-2.9,0.4,2.6,2,5.4c1.3,3.3-3.1-4.3-1.9-1c-1.3-2.1-1.9-4.3-3.6-6.4c3.6,8.2,2.4,10.4-1.9,2.4
				c-0.3,0.7-2.9-3-0.2,3.4c-5.4-8.4-1.2,1.7-5.8-6.2c6.1,12.8-6.4-6.3-2.3,3.6c-2.8-2.6-2.2,0.8-5.5-2.8c-2-2.9,0.6-0.4-2.3-4.2
				c3.5,10.1-6.1-3.2-4.9,2.8c1.4,2,1,0.9,2.5,3.1c0.9,1.4,1.4,2.8,2.4,4.2c-1.4-0.8-5.2-5.8-6.3-6c1.3,2.6,1.4,2,2.2,3.1
				c2.4,3.8-1.2-0.8,1.5,4.3c-1.6-2.8-2.4-3.8-3-4.1c6,12-4.7-3.7-1.2,4.7c-2.1-2.7-3.7-5.5-4.8-8.3c-2.6-3.7-0.8,0.2-2.4-1.9
				c0.8,1.7,2.3,3.4,3.4,5.1c2.1,4.5,1.1,3.4,1.2,4.3c-1.4-2-2.5-4.2-3.3-6.3c1.3,4.2-1.9,0.7-2.6,1.5c-1.4-2.1-2.1-4.2-3.9-6.2
				c5.7,10.9-1.9,4,0,9c-3.4-5-3.8-3.5-5.5-8.2c-1.3-1,0.3,1.8,2.3,5.3c-0.2,0.8-6.7-9.8-4.8-4.9c2.4,3.5,0.6-0.1,2.1,1.9
				c0.4,1.1,1,2.1,1.7,3.1c-1.7-0.1-6.8-5.7-3.3,2.8c-3.4-5.7-3.1-5-6.8-10.2c1.4,3.2,3.9,6.1,6,9.2c4.3,8.5-4.6-4.7-1.2,2.5
				c-3.2-3.6-4.2-7.6-7-11.2c1.7,3.8,4.3,7.5,6.4,11.3c1.7,3.8-3-3.8-2.2-1.9c-1.2-1.7-1.8-3.4-2.7-5.2c-1.4-1.3-0.4,1.8,2.1,5.3
				c-5.3-6.7-1.4-0.5-6.9-7.9c1.5,4.2,0.4,2.7-2.2,0.4c1.5,2.7,3.8,5.4,4.7,8.2c1.3,1.7,2.6,3.3,3.9,5c0.6,0-3-5.4,0.9-0.2
				c-0.5-1.4-1.5-2.8-2.5-4.1c1.1,0.1,2.7-2.7,8.4,7.6c1.8,2.3-1.3-3.3-1.6-4.2c3.1,4.1,4.7,7.6,5.2,9.3c1.1,1.2,2.3,0.4-1.3-4.3
				c-0.3-1.7,3.1,2.7,0.1-3.4c1.7,2.4,2.3,4.9,3.9,7.3c3,4.1-0.3-4.2,4.7,4.9c1.8,2.4-1.4-3.3-2.2-4.2c0.4-0.3,1.2-0.1,3.5,2.8
				c-0.9-1.7-2.1-3.4-2.9-5.2c-0.7-1.8,1.1,0.6,0.4-1.2c1,1.7,2,3.4,2.9,5.2c-1.3-4.5,0.3-4.2,2.7-2.6c2.1,2.9-0.3,0.4,1.8,4.2
				c2.2,2.9-0.1-1.8,3.2,2.9c0.8,2.4,0.3,2.7-3-1.8c4.7,8.8-2.9-1.1-0.5,4.5c3.5,2.4,3.8-0.2,6.5,1.4c-1.9-3.8-1.2-1.2-3-4.1
				c-2.5-5.9,6.2,8.8,3.7,2.9c-0.9-1-1.2-1-2.1-1.9c-2.8-5.5,1.5,1.2-1.3-4.3c1.4,1.7,2.1,3.5,2.9,5.2c0.5,0.4-0.3-1.4,1.3,0.9
				c-3.9-7.2,1-3.4,3.4-1.5c3.1,5-2-2.2,0.3,2.2c1-2,2.8-2.6,6.6,0.3c1.1,1.7,1.7,3.5,2.5,5.3c3.6,5.2-0.1-2.2-2-5.3
				c0.2-1.3,3.5,6.2,5.6,8.3c-0.6-2.5-3.3-4.8-4.3-7.3c1.4,0.2-1-6.3,4.2,0.7c-3.7-7.4-1.2-4.1-1.8-6.5c1.7,2,2.5,4.2,4.1,6.3
				c-1.6-4.6,0-3.6,1-3.4c2.4,4,0.7,2.7,0.7,3.2c3,4.2,2.4,1.1,0.7-3.4c1.9,2.4,2.6,4.9,4.5,7.3c1.5,3.5-0.6,0.8,1.9,5.4
				c2,0.2,1.6-2.8,0-8.9c2.5,3.1,2.9,6.4,5.3,9.5c1.2-0.7,2-2.2,6.8,3.9c-2.9-7,0.6-1.3,1.7-0.1c-0.9-2.2-2.4-4.2-3.1-6.4
				c4.8,7,1.3-4.8,6.6,5.1c1.1-1.3,6.8,4.9,4.9-1.4c3.9,6,1.5-0.6,6.4,7.4c-2.5-6.1,0.8-0.7-2-7.6c1.6,2.1,2.3,4.3,3.8,6.5
				c3.3,0.1,5.2-2.7,11.6,4.1c-1.3-2.8-2.2-5.4-2.7-5.4c4.5,3.8,8.5,6.8,8.9,2.2c-0.7-2.8,3.7,5.3,3.9,4.4c-0.6-1.5-1.5-2.9-2-4.4
				c1.8,2.2,4.1,4.9,3,0c1.3,2.2,2.5,4.4,3.8,6.6c0-6,4.6-1.7,8.5,1.4c-0.4-1.1-1-2.2-1.3-3.3c3.3,2.4,5.6,2.4,7.7,2.1
				c2.1-0.3,4.2-0.7,7,0.8c-2.2-7,3.5-0.6,5.3-0.7c1,0,0.1-4.4,3.1,1.3c-0.4-1.5-0.8-2.9-1.3-4.4c3.7,8.3,0.4-3,4.3,4.8
				c-1-7.9,5.7,1.8,5.6-4.8c0.7,1.5,1.5,3,2.2,4.5c0.1-4,1.8-3.5,3.5-3.1c1.7,0.4,3.3,0.7,3.3-3.5c3.8,7.1,1.3-4.1,5,2.8
				c-1.5-6.7,2.1,1.5,0.9-4.2c3.8,4.8,5.1,2.2,6.2-1.1c1.4,0.6,2.5,0.5,3.6,0c1-0.5,2-1.2,2.9-2c1.9-1.6,3.8-3.2,6.5-2
				c-0.3-1.5-0.6-3-0.9-4.5c-0.1-1.2,0.8,2,1.1,3.5c1.4-4,3.4-3.3,4.7-7.7c0.6,1.6,1.2,3.2,1.7,4.7c0.3-0.7-2.1-8.5-0.3-4.4
				c0.7,2.3,0.1,1,0.6,3.4c0.7,1.5,0.9,0.3-0.1-3.3c4.5-0.7,8.5-2.4,12.3-5.3c1.9-1.5,3.8-3,5.6-4.7c1.9-1.7,3.7-3.6,5.5-5.5
				c1.8-1.9,3.7-3.8,5.5-5.8c1.9-1.9,3.7-4,5.7-5.8c1.9-1.8,3.9-3.6,5.9-5.2c1-0.8,2-1.6,3-2.3c1-0.7,2.1-1.3,3.1-1.9
				c-0.1-1.1-0.1-2.3-0.2-3.4c1.5,1.7,2.4-0.5,3.4-2.3c1-1.8,2.1-3.1,3.8,0.2c0.2-1.5-0.4-9.5,0.6-2c-0.1-3.5,0.6-6,1.8-1.6
				c0-1.5-0.1-3.1-0.1-4.6c0.9,0.4,2,2.2,2.3-2.6c1.2,1.4,2.3,1.5,3.3,0.9c1-0.5,1.9-1.6,2.9-2.5c1.9-1.8,4-2.8,6.6,3.2
				c0-1.5,0.1-3.1,0.1-4.6c1.2,5.8,2.2,4,2.2-1.5c0.4,2.1,0.4,4,0.8,6.1c-0.4-9,0.4-3.4,1-0.8c0.5-7.4,2-5.5,3.5-5.4
				c0.3,2.1,0.5,4.1,0.5,6.1c0.4,1.2-0.1-8.5,0.8-3.1c0-1.2-0.2-2.4-0.3-3.7c0.2-2.1,0.8,2.4,0.8-3.1c0.3,1.7,0.3,3.3,0.3,4.8
				c0.2-3.2,0.8-6.7,1.5-6.4c0.6,6.2-0.2,3.2-0.3,6.9c1.1-5.7,2.3-8.3,3.5-12.6c0.3,2.1,0.6,4.2,0.8,6.3c0.1,5.4,0.2-2.9-0.4-4.9
				c0.4-6,1-4.4,1.7-8.6c0.4,5.2,1.1,3.3,0.7,7.4c0.5,1.9,0.1-7,1.2,0.5c0.4-4.9-0.4-3.9-0.6-5c0.6-6.2,1.6-0.2,2.2-7.3
				c0.2,1.7,0,3.2-0.1,4.7c0.3,1.5,0.4-2.5,0.8,2.7c-0.4-6.7,0.3-2.6,0.6-8c1.2,4.7,2.1,0.7,3.1-2.6c1-3.4,2-6.1,3,0.7
				c0.2-10.8,1.6-8.7,2.3-10.9c0,7.7-1,1.9-1.4,6.5c0.2,2.4,0.4,1.2,0.6,3.9c-0.6,3.1-1.2,10.1-1.9,12.2c-0.1-12.5-1.7-0.3-2,1.4
				c1.4,6.2,3.5,2.2,4.6-8.4c0.1,2.1-0.2,3.9-0.3,5.8c0.7-1.5,2.2-1.4,2.2-12.1c0.4-2.3,0.3,4.8,0.6,6.3c1.3-7.5,2.2-7.4,3.8-16.3
				c1.9,0.3,3.6,0.3,5.8-11.6c1.1,1.9,3-3.6,3.9-11.4c1.2,2.6,3-3.7,5-8.3c2-4.6,4.1-7.7,5.3,1.2c0-15.4,2.4-8.3,2.9-22
				c0.6,1.2,2.2-12.7,2.4-3.7c3.7-13.2,6.8-13.7,8.7-1.7c0.7-3.8,1.4-7.6,1.5-11.7c0.6-1.3,0.9,0.7,0.9,5.5c0.9-5.5,1.1-2.7,1.5-3
				c0.7-6.5,1.1-5.5,1.9-11.6c0-3.3-0.7,1.9-0.8-0.4c2.6-8.1,5.8-7.7,6.8,4.8c1.1-8.7,2.2-10.5,2.9-8.5c3.6-17.5,7.1-26.7,10.3-32.6
				c0,2.5,0,5.1,0,7.6c0.7-7.8,2-5.6,3.2-9.8c-0.1,1.6-0.3,3.2-0.6,4.8c2.6-2.9,4.8-4.3,8.1-14.8c2.7-2.1,6.4-5.3,10.4-18.9
				c1.4,1.5,6.7-11.9,9-17.1c3.8-8.7,7.1-15.6,11.1-27.7c-0.6-0.2,0.1-4.3,0.3-7.6c1.1-3.6,1.1-0.5,2.2-4c-0.5-2.5-1.6,1.9-1.3-3.2
				c-2.3,8-1.8-3.9-3.6,4.6c-0.8,2.3,0-4.9-0.2-6.5c-1.4,1.5-2.7,2-3.8,1.9c2-5.6,2.5-5.8,5.5-15.2c-2.4,1.1-5.2,1.8-8.2,4.2
				c-3.1,2.4-6.4,6.3-9.9,13.8c-0.7,1.3-0.9-0.4-1-3c-0.3,1.9-0.5,4-0.7,6c-0.5-0.1-1.3,1.6-2,2.8c0.7-11.1-3.7,6.1-5.6,13.7
				c0-4.2,1.2-7.8,2.2-11.6c-0.7,1.3-1-2.2-0.4-6.5c1.5-5,1.1-0.4,2.6-7.6c0.1-3.7-1.8,7.4-1.4,0.6c-0.9,2.1-0.8,4.7-1.6,6.8
				c-0.3,0.4-0.6,0.9-0.7-0.3c0.5-4,1.7-7.6,2.2-11.6c0.3-0.7,0.3,0.2,0.7-0.9c-1.3,7.2,0.9,1.9,1.7,0.8c0.1,2.1-0.4,4-0.3,6.2
				c2-3.3,4-15.5,5.8-17.5c-0.5,4.5-2.4,8.2-3.4,12.3c0.6,0.4,2.3-1.9,2.7-7.6c1.2,4.5,4.4-5.3,7-10.7c-0.5-4-3,5.1-4.6,8
				c2.3-11.3,5-14.3,5.3-7.7c2.4-6,4.7-11.2,5.4-6.4c3.5-7.5,6.2-9.7,8.8-11.6c2.7-1.9,5.3-3.4,8.7-9.3c0-6-1.8-2.2-1.3-10.9
				c-1.5,2-2.5,1.4-2.6-5.1c-0.6,1.4-0.7,3.1-1.2,4.6c0.5-8.2-1.6-1-1.9-4.7c0.1-3,1-5.5,2-8c-0.3-5.1-2.3,0.3-3.1-1.4
				c-0.3-3.1,1.3-5.4,1.2-8.4c-1-4-3.3,4.8-5.4,6.4c0.5-6.7,3.3-11.2,4.6-14.4c-0.3-0.3-0.4-1.7-0.4-4c-0.4,1.1-0.3,2.4-0.4,3.6
				c-1.3,2.8-1-2.4-2.3,4.1c-0.1-2.1,0.4-4,0.3-6.2c-2,3.8-3.2,2.2-4.3,0.7c-1,3-1.4,6.1-1.4,9.5c-0.9,3-1.4,4-1.9,4.3
				c0.3-4.9,0.8-9.8,1.3-14.6c1.8-1,5.7-9.7,7.7-19.5c3-2.1,6.2-5,8.1-0.2c0.9-9.7,2.3-6,3.2-4.9c-0.5,5.1-1.1-0.6-2,2.9
				c0.2,5.5,3.1-4.5,4.5-5.6c0.3,3.4-1.5,5.7-0.4,6.2c1.6-8,4.6-7.5,5.8-5c2.6-7.1,3.5-3.3,5.8-6.3c1.6-8-1.2-2.2-1.6-3.3
				c2.3-4.3,7.7-12.4,8.9-3.6c3.7-9.3,8.1,2.1,12.7-18.5c1.1,3.2,3.8-7,4.4-3.1c-0.8,4.1-1.4,2.5-2.4,7.9
				c5.2-7.2,11.4-18.3,15.1-34.3c-0.1-3.9-0.9-8,0.8-13.9c-0.9-6-4.4-5.2-2-20.3c-2.3,6.3-3.5,3.1-5.2,10.5c0.1,1.3,0.9-0.9,1.4-1.9
				c-0.5,4.7-0.7,3-1.9,5.6c0.3-4.8-0.1-6.1-0.9-5.5c-0.1-3,0.7-5.7,1.9-8.1c-0.5-1-1.2-0.1-1.9,3c0.2-8.9-4.7-2.3-7.9,1.6
				c-0.6-11.6-6.3,3-10.5,10.8c0-0.9,0-1.7,0-2.6c3.4-12.4,6.2-12.3,9.1-20.4c0.2-3.5-0.9-0.8-0.5-5.3c-6.6,12.1-8.3,6.8-13.8,14.6
				c0.1-1.3,0.4-2.4,0.4-3.7c1.7-1.1,4.9-6.4,6.8-12.4c0-3.8-1.4,0.3-1.5-3.1c-0.6,5.1-1.4,6.1-1.8,3c-0.3,3.2-0.9,6.4-1.7,9.5
				c-0.9-3.1-4.9,0.5-5.8,10.3c-1.2,3.6,1-7.5-0.6-4c0.2-2.5,1.4-2.2,1.7-6.9c-0.9-1.1-3.2,7.9-3.4,11.3c-0.9,1.5,0.5-6.4,0.2-8.8
				c-1.8,3.1-1.6,6.9-2.9,10.2c-1.1,2.5-0.2-4,0.3-4.9c-0.6-2.5-1.6,5.1-2.1,6.7c-0.2-0.5-0.7-3.9-0.2-7.7c1.3-4.3,1.6-2.7,2.6-5.3
				c-0.8-4.6-2.8,3.8-3.4,8.7c-1.9,0.8-3.5,0.9-6.1,10.2c-0.7-3.6,1.1-6.3,1-9.7c1.3-1.7,2.3-2.3,3.6-3.7c-0.2-5.1,0.6-9.8,2.3-14.2
				c-0.2-2.7-1.3,0-1.8,3.1c0.7-5.8-1.1-0.7-0.3-7.7c-2.3,6.1-3.5,5.6-5.4,5.5c0.1-3.5,2.2-5.8,1.9-0.6c0.4-0.7,0.4-1.5,0.4-2.4
				c0.3-0.7,0.6-1.5,0.8-2.2c-0.3-4.6-2-0.5-3.2,1.3c0.2-4.9,1.4-9.5,1.6-14.4c-1.2,4.9-1,2.6-2.5,6.6c-0.5-3.1,0.2-5.8,0-8.8
				c-0.9,1.8-1.1,3.8-1.6,5.7c-0.4-2.6,0.6-4.8,0-7.5c-1.9,2.4-3.3,1.2-4.8,0.7c0.1-5.5,1-2.8,2.4-7.9c-0.3-3.4-2.1,3.6-2.1-2
				c-0.3,2-1.1,3.8-1.1,5.9c-3.1-5.5-8.3,5.1-11.5,0.9c-0.4,1.5-0.2,3.3-0.1,4.9c-1,2.9-1.9,5.5-2.4,5.4c1.2-19.1-5.5,4-7.1,0
				c2.5-16.9,4.7-11.6,7.6-18.5c-0.7-4.1-2.9,4.2-2.3-4.5l-2.3,6.6c-0.4-2.2,0-4.2-0.1-6.2c0.7,0.4,2-4.9,2.3-1.7
				c0.2-5.4,1-2.9,1.7-8.1c-0.1-9.6-3.8,11.4-3.8,1.2c-1.9,6.4-3.8,12.8-5.5,19.2c-0.7-3.5,0.2-6.5,1-9.5c-0.2-6.3-1.5-2-2.3-3.2
				c-0.2,3.2-0.7,6.4-2,9.2c0.4,1.5,1.3-2.4,1.2,2.9c-1.1,2.7-2,2.4-2.5-0.8c-1.1,3.3-2.2,6.7-3.3,10c0.3-7.2,1-5.6-0.6-6.4
				c-0.9-3.6,1.2-6.2,0.5-9.7c-1.5,11.6-2.5,7.7-5,16.9c-1.3-2.3-2.8-2.7-4-6.2c-2.1,11.1-3.7,13-5.9,19c-0.8-3.5,1.3-6.1,1.3-9.4
				c-2.4,0.5-5.9,16.4-7.5,24.7c2,3.2,3.9-12.6,5.7-15.4c0.3,2.1,0.1,4.1-0.3,6.1c0.4,2.4,2-4.9,1.6-6.9c0.6,4.9,2.5,0.4,4.5-3.6
				c2-4,4.1-7.6,4.9-0.8c-3,13.7-6.7,13.7-9,11.9c-2.9,16.3-6.1,14.4-9.3,15.4c1.4-7.2,2.3-12.4,3.1-21.1c-1,4.9-1.5,2.4-2.5,6.6
				c-1.3-13.4-3.5,6.5-4.8-5.1c-2.6,5.4-1.8,3.9-4.2,7.3c0.5,2.2-0.4,4-0.2,6.1c-0.8,1.6-1.3,0.1-2.2,4.2c-0.8-4.7,0.7-7.3,1.4-6.9
				c0.1-5.5-3.1,0.9-3.3,6.4c-0.9-0.7-2.2,4-2.7-3.3c-1.3-0.9-3.4,11.3-4.5,7.2c-0.5-7.1,1.2-13.5,2.3-20.1c-1.8,0.6-3,10.4-5.3,8.2
				c-0.7-4.8-0.1-5.8-1.2-5.2c-1,4.3,1.4,1.9,0.4,6.2c0.7,0.6,1.4,1.5,2.2-0.6c0.1,6.2-0.1,5.6,1.2,5.2c0.2,1.7-0.4,3.1-0.7,4.6
				c-0.7,2-1-6.7-1.7-5.4c-0.1,2-0.7,3.8-0.5,5.9c-0.9,1.8-1.6-0.9-2.4-0.7c-0.2-3.3,0.1-4.5,0.7-4.6c0.5-1.1,0.1,2,0.5,3.8
				c0.3-3.6,0.8-7.1,0.3-10.9c-4.1,18.5-7.2,17.6-10.6,26.2c-0.3-1.7-0.6-3.4-0.3-4.9c-0.4,3.8-3,10.3-4.6,10.9
				c-0.1-6.2,2.6-9,2.5-12.6c0.5,5.4,1.2,2.6,0.3-1.1c-2.8,5.4-5.3,8-7.3,7.7c-0.6-8.2,2.6-5,2.7-13.8c-0.9,0.2-1.2-2.4-1.8,3.2
				c-1.5-3.4-3.8-0.5-6,3.5c-2.2,4-4.5,9.2-6,10.4c-0.7-3.4,1.9-6,0.6-9.5c-0.5,6.8-1.6,8.6-2.7,10.2c0.7,1.3,1.4,3.4,2.1,1.7
				c0.1,1.2,0,2.4,0.2,3.7c-1.4,4.1-2.8-4.8-4.2,3.8c-0.4-2.1-0.2-4-0.7-6.2c-1.1,5.5-2.2,1.5-3.3,4c-0.4-2.1-0.4-4.1-0.2-6.1
				c-0.5-1.9-1.1,3.5-1.6-1.6c-0.5,1.5-0.3,3.2,0,4.8c-4.3-1.5-7.2,0.4-11.3,3.4c-0.4-2.5-0.2-4.8,0.4-7.1c-0.7-0.7-1.4,2.1-2.1,0.7
				c-1.1,3,0.6,6.5-0.3,9.5c-1.2-5-2.2-3.1-3.2,1.7c-0.7-2.6-0.2-4.8-1.1-7.4c-0.3,2.7,0.3,5.6,0,8.4c-1.5-7-1,0.6-2.7,1.8
				c-0.7-2.5-0.2-4.8-1.1-7.4c-0.1,2-0.1,4,0.4,6.1c-1.3,3.4-4.7-4.9-5-13c-2,4.3,2,7.3,1,14.5c-0.8-0.2-0.7-3.4-1.8-6.3
				c-0.9,4.5-2.4-0.1-2.4,9c-1,0-2.1,0.8-2.8-6.5c-0.3,1.9-0.6,3.9-0.9,5.8c1.1,6.5,0.1-5.1,1.2,1.4c-0.2,8.9-3.8,2.3-5.5,8.4
				c0.1-4.8-0.4-8.9,0.6-10.6c-1.9-6.7-1.4,9.1-2.9,10.1c-1.5-7.8-2.2-1.1-3.1,1.8c-1.7-6.8-2.8-3.8-3.9-2c-0.7-5.2,1.1-1.8,1.2-5.7
				c-0.7-3.7,0.2-7.1-0.4-10.7c-0.8,7.1-2.6,8.2-3.1,16c-0.5-2.3-0.9-0.3-2-2.7c-1-7.1,2.6-1.2,0.3-9.4c0.4-4.8,1.5,1.6,1.9-3.2
				c-1.1-5.7-2.3,4-2.8-4.1c-0.5,4.2-1.4,2.3-2.3,6.7c-0.6-9.8-1.3-0.2-3-6.4c-0.9,7-2.4,4.9-3.5,8.9c0.4,4.9,1.8,8.6,2.2,5.1
				c0.5,8.3-1.8,3.4-2.7,3.1c-0.5-3.7-0.2-7.5,0-8.3c-0.5-3.9-1.2-4.1-1.7-9.7c0.8,10.8-1.1,2.8-1.7,10.4c1,6.3,1-0.8,1.9,3.9
				c-0.7,0.5-1.1,4.8-2.3-0.4c-0.4-2.3,0.3-1,0.4-3.5c-0.5-2.4-1.1-1.2-1-3.7c-1.2-3.7,0.4,7.8-1.1,1c0.6,4,1.4,8.1,1,12
				c-1.1-0.1-0.4-4-1.5-7.3c-0.4,2.7,0.1,5.5,0.5,8.3c-0.3,0.4-0.9-1.6-1,1c-1.7-5.4-0.2-10.3-1.6-15.6c0,3.2-0.1,6.3,0.4,9.5
				c-0.3,5.3-2-5.4-2.1,2c-1.1-2.9-1.1-5.7-1.9-8.5c-0.6,4.8-1.8,1.6-2.9,0.7c0.2,8.3-1.7,5.9-2.9,5.5c-0.9-2.5,0.7-4.6-0.7-7.2
				c-0.3,7.4-1.8,3.6-3.2,4.3c-0.7,2.7,1,5.6,0.6,8.3c-1.2,1.2-1-7.1-2.4-9.8c-0.6,0.3-0.7,1.5-0.4,4.7c-3.7-13.4-3.8,6.8-6.9-1
				c0.2,8-0.5,6.7-1.4,11.6c-0.4,0.2-1.3-4.7-2-3.8c-1-6,1-3.1,1-6.9c-1.9-3.8-2.3,1.1-2.8,5.5c-1.4-2.1-1.2-4.9-2.5-9.7
				c-0.7,1.7-1.7-1.8-1.3,4.6c-0.5-1.6-1-3.2-1.5-4.8c1.2,6.4-0.8,9-2.9,0.9c0.4,8.7-0.7,5-2.1,3.3c-0.4,4.2,0.3,1.4,1.1,4.8
				c-0.1,3.1-1,0.1-1.5,1c-1.7-5.7-1.1-5.7-1.3-9.5c-1-0.1-2.2-1.5-4.2-8.7c0-1.5,0.2-1.8,0.5-1.1c-0.8-4.5-2.6-2.2-3.6-2.7
				c2.9,3.5,3.6,11.3,6.2,13.6c-0.7,10.1-3.5-7.2-4.9-5.2c0.8,5.2,3.3,10.5,3.8,15.6c-1.3-4.6-2.7-3.7-4.1-9.8
				c0.1,5.1,0.8,10.2,1,15.4c-1-8.5-2-8-3.5-12.1c-0.9-3.2,0.1-6.2-1.4-9.5c0.2,3.8-0.1,3.9,0.9,9.5c-0.6,0.2-2.1-4.2-0.6,2.3
				c-0.7-0.1-1.9-3.5-3-6.2c-0.6-3.7,2.1-0.3,0.4-8.2c-0.6,4.2-4.5,14.6-5.7,0.7c-0.8-0.4-0.6,5.2-1.9,1c0.8,11.3-3.1,2.4-2.9,13.8
				c-1.7-7.9-2.3-2.8-2.9-9.6c-1.1-1.8,0.4,6.2-0.3,8.2c-1.9-0.6-4.2-4-4.8,3.1c-1.3-6.6-2.5-4.7-1.9-0.2c-1.8-6.3-1.8-2.2-3.1-6.1
				c0.9,3.9,1.3,3.9,2.6,9.5c-0.8,0.7-2.6-4-3.6-7.3c-1.4-1.1,0.6,7-2.3-0.1c0.3,2,1,3.9,0.8,5.9c0.7-1.6,2,0.2,3.6,3.7
				c-1.7-0.1-3.5-0.9-5.1-0.3c-0.4-1.2-0.4-2.4-0.9-3.6c0.4-2.2,2.7,2.6,1.5-4.6c-1.9-3.7-1.2,5.8-4.2-1.4c0,1.8,0,3.5-0.5,2.3
				c0.2,2,0.5,3.9,1.3,5.9c-0.2,4.1-2-0.3-2.3,3.4c-1.3-2.4-1.2-4.7-2.3-7.1c-0.3,3,1.6,5.9,0.4,5.8c-1.5-3.1-0.6-5.8-1.8-5.9
				c-0.3,1.9,0.9,3.9,0.9,5.9c-6.3-14-7.8,0.2-12.1-6.5c-0.9-2.4-0.3-4.7-1-7c-1.8-2.3-0.9,8.4-4.2-1.3c0.2,1.9,0.6,3.9,1.5,5.9
				c0.4,4.3-0.6,1.3-0.4,4.6c-1-2-0.9-3.9-1-5.9c-1.3-3.1-1.3,0.6-2.3-1.2c0.1,1.6,0.9,3.1,1.5,4.7c0.4,4-0.9,0-0.9,2.3
				c-0.5-2-0.5-3.9-1.5-5.9c0,1.5,0,3.1,0.1,4.7c-1.2-2.4-1.1-4.7-2.4-7.1c-1.8,2-3.7,3.8-6,3.3c0.5,1.2,1,2.4,1.5,3.5
				c-0.7-0.2-0.1,5.2-1.3,2.3c-1-2-1-3.9-1.1-5.9c-2-2.8-3,3.4-3.1,5.7c-1.5-4.9-2.3-6-2.4-2.4c2.2,4.5,1.2,4.7,1.1,7
				c1.5-2.4,4,4.3,5.6,1.3c-0.3-2.2-0.4-0.9-1-2.4c-0.7-5.2,1.6,2.9,0.9-2.3c2,5.8,1.7,4.2,3.9,9.4c-3.8-4.9-5.1,5.1-8.8-2.6
				c0.1,1.2,0.5,2.4,0.6,3.5c-0.3,2.4-0.8-4.5-2-5.8c0.9,9.6-1.8,3.9-3.6,2.3c1.2,6.5,0.1,6.1-1.2,4.7c-0.8-4.7-1.1-9.4-2.9-14
				c0.3-1.5,1.9,0.3,0.8-4.7c-0.7,0.8-1-0.2-2.5-4.7c0.9,5.3,0,4.2,0.8,8.2c-0.3,1.8-2.2-2.6-1.8,2.3c-3-8.5-3.9-3.7-4.7,0
				c-1.8-7.1-2.5-6.4-2.4-1.2c-0.7-2-1.2-3.9-1.2-5.8c-2.4-3.2-1.9,4.7-4.1,2.3c0.2,2.3,1.8,4.7,1.8,7c0.4,3.3-2.4-5.9-1.4,0
				c-0.9-1.9-1.4-3.9-1.7-5.8c-1-1,1.7,6.4-0.3,3.5c-1.2-2.3-2-4.6-2.3-7c-0.3,3.5-4-2.6-2.5,4.7c-1.3-2.3-1.3-4.7-2.8-6.9
				c1.9,7.2-0.9,1.2-0.9,1.2c-1.4,1.1,0.6,10.4-3.1,3.6c1.5,6.8-1.3,3.7-2,4.7c-0.6-1.9-0.7-3.9-1.8-5.8c1.4,7.6-1.8,0.4-0.8,8.2
				c1,4.9,2.9,6.1,2.6,3.5c0.7,1,0.4,5.4-0.1,4.7c1.1,5.5,1.4,1.3,2,2.3c0.8,1.9,0.7,3.9,0.9,5.8c-0.2,0.7-3.3-7.2-2.3,0
				c-1.4-2.7-2.7-5.4-2.9-8.1c-2-4.1-1.1,2.1-3.5-3.4c0.7,3.1,2,7,1,7c-1.9-8.6-1.9-14.8-1.5-19.8c-1-0.7-2.5-3.3-3.6-4.6
				c0.3,2.3,1.5,7-0.2,3.5c0.3,1.9,1.1,3.9,1.4,5.8c-0.1,3.2-1.4-2.7-3.3-5.7c3,9.7-0.7,11.4-4.1,1.4c1.7,5.7-1,0.1,0,5.8
				c2,4.1,1-1.9,3,2.2c1.2,4.3-1.9,0.4-2.8,0.1c0.6,2.3,1,4.6,1.1,7c0.2,2.7-1.6-3.6-1.3-4.6c-1.3-1.7,0.9,6.1,2.1,8.1
				c0-1.7,1.4,1.2,0.6-3.5c0.9,2.3,1.6,4.6,2.5,6.9c-0.1,3.4-3.2-3.6-3.2,0.1c-1.6-4.4-2.2-13.1-4.1-13.8c2.1,6.2,0.6,3.2,0.5,5.8
				c-2.2-6.8-0.1-3.1-3-6.9c1.2,4.5,1.6,6,1.2,8.1c-3-8.7-0.8,3.2-4.2-4.5c2.4-1.5,2.4-8.9,7.1-3.8c-3.4-7.7,1.1-3.7-2-12.8
				c-1-2.2-1.1-1-2.2-3.4c1.8,7.6-1.8,2.3-3.5-2.2c2.6,6.6,0.7,6.1,3.5,12.7c-0.7-0.3-0.2,3.5-1.9,0.1c-1.6-3.7,2,0.3-1.5-5.8
				c-1-5.2,1.8,2.8,0.7-2.4c-1-1.9-1.3-3.8-2.4-5.7c0.9,7.8-1.3,1.9-3.2-3.4c2.9,9.6-2,3.6-2.8,6c0.8,4.4,1,3,2.4,5.7
				c0.8,7.9-4,0.9-2.5,8.3c-1.8-2.6-1.5-5.4-2.7-8c1.2-0.4,1.9-2.1,3.8-0.2c-0.5-3.1-1.4-6.2-2.8-9.2c0.4,2.4-0.3,1.3-1,0
				c0.4,1.5,0.7,3.1,1.4,4.6c-3.4-6.8-4.9,0.5-3.6,7.2c-3.1-11.7-3.4-5.4-6.7-13.6c0.2,2-0.1,2.2-0.8,1.2c1.5,6.2,1.4,1.1,2.9,4.5
				c1.9,4.7,1.5,8,2.5,15c-3.1-6.2-1.1-6.6-2.7-11.5c-2.6-4.3-0.7,0.7-1,3.6c1.2,2.6,1.8,5.3,2.8,8c0,1.8-2.2-3.5-1.3,1.3
				c2.5,4.5,0.4-5.2,4.1,3.2c-0.3-4.9-0.4-9,1-8.3c1.3,2.8-0.5,2-0.7,2.4c0.9,4.2,2.5,4,0.9-0.1c3.7,11.2,2.3,12.3-0.1,11.6
				c-2.4-0.7-6-3.3-6.6,0.6c0.8,1.5,1.7,3,1.9,4.5c1.6,3.3-0.1-3.6,2,1.1c1.2,3.2,0.7,7.6-1.6,2.4c2.2,5.4,2.7,12.8-0.1,7
				c-0.7-1.2-0.3-5.1,1.1-2.4c-2.5-6.7-1.7-6.7-3.4-12.6c-1.9-2.5-2.1-4.2-4.1-6.7c0.8-2.7,3.3,1.8,2.5-7.2
				c-2.7-5.3-1.7-5.4-4.3-9.1c1.3,3.8,3.4,7.6,3.2,11.5c-1.5,0.2-3.9-2-4.7,0.3c1.3,2.2,2.3,4.5,2.7,6.8c1.1,1.1,1.8,1.1,2.5,1
				c1,3.2,0.8,5.4,0.8,7c-1-1.5-1.3-3-1.5-4.6c-2.3-2.9,1.8,6.6-0.4,4.7c-1.2-3.4-1.8-6.9-3.1-10.3c1.2,8.8-4.7,0.6-3.5,9.6
				c-1.2-2.6-1.5-5.4-3.4-7.9c0,2.7-1.9-0.3-0.6,5.9c1.4,2.2,2.4,4.5,3.2,6.7c-0.2,2.8-1.9,0.8-1.7,4.8c-2.1-4.5-3.7-13.2-0.5-7
				c-1.7-3.4-2-6.9-3.7-10.2c1.8,8.1-0.3,5.1-0.5,10.6c2.1,4.6,0.3-2.3,2,1c1.9,5.6-1,1.1-0.1,5.9c-1.1-1.8-1.5-3.8-2.6-5.6
				c3.8,12.4-2.8,0-1.9,6c-3.6-8.3-0.4-6.2-2.1-11.5c-0.6-1-0.3,0.6-0.3,1.2c-1.8-2.2-1-4.6-2.8-6.8c0.4,3.6-2.2,0,0.4,5.8
				c1,5.1-2.3-2.1-2.3,0.2c-1.2-3-2.3-7.3-0.7-4.6c-3-7.8-0.7,6.7-4.9-4.2c0.3,2.3,0.7,4.6,1,6.9c1.3,1.8,1.8,3.7,2.7,5.6
				c0.1,2.8-1.5-1.5-3-4.4c1.8,9.2-2.6,0.8-6.6-2.9c1,6.5-5.4-2.2-5.7,3c2,5.3,1.4,1.1,2.9,3.2c1.9,6-0.9,5-2,4.9
				c-2.5-5.6,1.4-0.2-0.9-5.8c-1.7-2.5-2.9-4-3.9-6.6c0.3,2.4,1.9,9.3,2.7,13.8c-0.4,1.8-3-5.8-4.6-7.7c-0.8-0.7,0,6.4-2.5-0.9
				c0.6,6.4-1.8,4.9-4.1,4c-2.4-3.2-1.7-6.8-4.1-10c-0.1,3.5,3,6.7,3.2,10.2c0.3,3.5-3.3-5.5-5.3-8.7c0.3,2.4-1.6-0.8-1.9,0.2
				c-1-3-2.4-6-4.4-8.8c0.6,1.7,1.6,4.8,0.6,3.5c0.7,3.2,0.9,0.3,2.7,4.3c1,4.1-1.1,0.5-1.9,0.3c0.7,3,2.5,3.9,2.5,3.2
				c1.1,2.6,1.9,5.3,2.8,7.9c-0.8,0.4-2.4-3.7-0.5,2.4c-3-4.9-1.3-4-2.9-7.9c-2.2-2.9,0.2,2.8,1,5.8c-0.3,2-2.5-0.6-3.2,0.5
				c-1.4-3.3-2-6.8-3.3-10.1c-1.7-1.5-6.2-10.2-5.9-6.2c-3.7-6.7-5.4-10.3-7.8-10.7c1.5,2.2,2.4,2.2,4.1,6.5
				c0.6,3.3-0.8,1.8-1.7,1.4c0.4,2.3,2.1,4.4,2.2,6.7c0.7-0.6,4.9,5.2,2.8-0.4c1.2,2.6,2.5,5.2,2.9,7.8c-0.6,0.7-3.1-6.2-1.2,1.3
				c-1.9-2.1-1.2-4.5-3.2-6.6c2.9,6.7,1.6,6.7-0.8,3.6c1.2,4.3,2.5,5.2,2.7,4.3c0.5,2.2-0.4,1.1,0.2,3.5c-1.3-2.6-3.8-5-4.4-7.6
				c-0.7-0.5,0.6,6.5-2.1-0.9c-1.6-1.9,2.9,10.1,0.4,7c-1-1.8-1.1-3.8-1.6-5.7c-1.5-0.5-6.2-6.3-3.8,0.5c0,1-2.4-0.7-2.8-4.3
				c-1.7,1.2-1.3,8.8,3.5,21.9c-0.4,0.5-1.4-0.6-1.1,1.4c-2.5-3.5-2.3-7.5-5.2-11c-0.8-4.6,0.5-1.6,1.8-0.3
				c-0.5-3.8-1.8-7.6-4.2-11.1c0.2,1.1,1,2.2,1.6,3.3c0.2,2.2,0.6,5-1.6,1.4c-1.9-3,0.6-0.5-0.9-4.6c-2.6-4.5,0.1,3.3-2.8-1.9
				c4.2,10.8-1.6,3.7-5.6-1.4c1,4.1,3.6,11.8,5.5,12.1c-2.8-5.6-1-3.8,0.4-2.4c1.1,1.9,0.5,2.1-0.2,1.2c2.5,4.9,3.3,0.8,5.4,2.6
				c-0.4,8.4-8.5,3.6-11,8.9c-0.9-1.4-1.1-3-1.5-4.5c-1.3-1.5-2.3-2.3-0.9,2.5c-3.5-7-1.4-0.8-3.8-4.1c-1.8-2.4-0.8-5.4-3.2-7.7
				c2.4,7.4,0,3.3-2.5,1.7c1.8,5.7,2.6,9.5-1.8,2.7c1.5,5.2-0.9,1.8,0.7,7c-9.3-14.6-8.5-2.3-16.2-8.7c2.4,4.8,3.2,9-0.4,2.5
				c0.3,2.7,1.7,5.2,2.9,7.8c-0.1,0.5-0.2,1.1-0.9,0.2c-1.4-3.3-3.3-6.5-3.9-9.9c-3.4-4,3.9,9.1-0.8,2.6c3.3,7.8,1.6,5.1,0.5,5.8
				c-1.7-2.4-2.3-5.1-2.9-7.7c0.6,6.4-5.2,2.1-0.4,15.6c0.1,2.7-1.6-0.9-2.9-1.8c-2.2-3.1-2.6-6.6-5-9.7c0.6,3.1,2.1,5.9,3.7,8.8
				c-1.7-0.9,0.3,2.5,0.3,4.7c-3.5-5.6-5.6-13.3-4.4-13.4c-1.3-1.5-1.8-3.2-1-2.2c-4.6-5.8-10.1-12-6.8,0.3c-2.3-2.7-1.7-6-4.2-8.6
				c2.2,6.3-3.5-0.1-4.7,1c0.4,1.9,1.6,3.6,2,5.5c-1-1.8-1.5-3.6-2.9-5.3c-0.7,0.6,0.4,1.5,1.2,4.5c-0.9-1.4-1.1-2.9-2.2-4.3
				c-3.2-4.2-2.4-0.2,0.3,4.7c-1-1.4-1.3-1.6-1.2-0.9c-0.9-1.4-1.2-2.9-1.7-4.4c-2.3,0.3-9.7-6.7-7,1.7c-5.1-5.3-0.6,2.3-3.9-1.5
				c3.1,8.7,1.7,7.5,2.5,12.6c2,2.7,1.9,1.4,3.3,2.8c1.3,3.9-2.4-1.5-1.5,1.6c-1-1.4-1.3-2.9-1.7-4.4c-1.7-0.1-5.4-4.1-7.2-4.2
				c-1-1.4-1.3-2.9-1.8-4.4c-0.9-0.3-2.4-1.6-1.5,1.6c5.4,11.8-7.8-3.1-6,5.1c3.6,1,6.8,1.2,11,3.3c0.5,3-1.6,0.9-2.8,0.7
				c2.3,5.1,1.8,0.9,3.3,2.8c0.7,2.2,1.3,4.5,2,6.7c-1.4-1.7-2.1-3.5-3.5-5.1c-0.5,3.2,4.8,13.1,0.3,9.5c-2.2-3.7-0.9-4.9-1.9-7.9
				c-1.4-2.5-3.3-4.8-4.2-7.4c0.4,1.7,6.1,15,1.6,10.4c-1.5-2-2.4-4.2-2.9-6.5c-3-3.5,3.1,9.6,0.2,7.2c-2.5-2.6-2.4-5.8-5-8.4
				c0.1,0.8,0.6,1.4,1.1,2.1c1.6,2.9-0.9,0.9,2.5,6.6c-0.9-0.8-3.2-1.8,0.1,3.6c-1-0.7-0.1,2.1-2.2-0.6c-2.2-3.8-2.7-8.2-5.1-11.9
				c0.1,1.4,0.2,3.3,0.8,5.8c-1.8-1.9-2.4-4.2-4.4-6.1c-0.6,1.8-2.8,0.7-4.2,1.1c-1.8-2.4,0.2-1.5-1.7-5.6
				c-3.6-2.7,4.1,11.9-2.2,4.2c0.1,1.1,2.8,6.9,0.9,4.6c1.1,3.1,0.9,0.2,3.2,4c0.3,1.1,0.7,2.2,1.1,3.3c-3.6-3.6-2.7,0.9-6.5-3.1
				c-3.1-5.4-1.5-6.5,2-1.7c-0.8-2.8-1.2-4.8-0.5-4.7c-0.6,0.6-6.7-6.7-3.7,1c-2.7-2.9-3.3-6.4-6-9.2c3.3,7.7,0.2,7.9-1.7,9
				c-2.7-3.7,0-1.5-1.4-4.5c-0.9,0.4-2.5-3.3-4.9-5.9c0.5,3.5-2.3,1-1.3,5.3c-5.4-5.9-0.9,1.9,0.6,9.6c0.6-0.9,0.2-3.7,2.4-1.9
				c-0.3-1.5-1.3-2.9-2.4-4.2c-0.3-1.7,0.4-1.9,1.9-0.5c1.6,1.6,0.9,3,0.3,2.3c2.2,3.3,9.9,12.1,7.2,5.2c4.3,6,6.5,4.8,6.6,1.8
				c2.2,2.9,3.4,5.5,1.7,0.7c6.2,6.2,9.4,7.2,10,3.3c4.1,7.2,3.4,0.9,6.4,7.9c-0.8-2.3,0.1-2.2,0.3-3.7c-1.5-1.9-1.3-0.7-2.9-2.9
				c-0.1-1.1,0.3-1.3,0.2-2.5c1.1,1.7,2.1,3.5,2.6,5.3c2.4,3.2,1.7,0.6,4.1,3.7c-0.3-1.5-1.3-2.9-1.8-4.3c2.2,2.9,4.1,5.4,2.2,0.6
				c1.2,1.5,3.2,4.3,2.8,2.9c1.8,1.9,1.1,4.5,3.4,6.3c-3.6-8.4,2.3-5.8,6.2-0.4c2.1,2.3-1.5-3.4-1.4-4.5c-0.1-0.7,0.5-0.1,0.1-1.3
				c2.2,2.3,2.9,4.9,5.1,7.2c-2.1-7.1,3.9-2,7.1-0.5c-1.6-4.2-0.4-3-1.2-5.7c-3.6-4.4,1.1,4.1-1.5,1.5c-1.2-3.5-0.9-2.5-4.1-7.4
				c-2.2-7.3,1.1-3.9,4.3,1.4c1.4,4-3.8-4.6-1.8,0.4c1.1-0.1,4.8,5.9,5.7,9.4c1.4-0.4,4.4,2.4,5.9,2.2c2.6,6,1.6,3.5,4.2,6.2
				c0,1.6-1.6,0.1-4.4-3.7c0.7,2.2,2.8,4.1,3.3,6.4c0-1.7,2.5,1.3,3,0.5c-0.9-3-3.2-5.6-5.3-8.3c0.5-1.8,3.4,1.2,2.2-4.1
				c-1.3-2.9-3.2-5.6-4.4-8.6c0.5-1.9,2.9,5.6,5,7.2c1.3,2,0.1,1,1,3.4c5.1,7,5.6,1.6,11.2,9.3c-1.7-7.3,2.5-3,4.3-3.3
				c3.4,5.4,1.2,5,4,11c3.5,4-1.9-7.6,3.6,2.8c-1.4-3.7-3.2-7.2-5.3-10.8c0.3-3,2.4-2.2,5.2,0.1c-3.6-8.4-0.5-5.6,1-5
				c0.9,1.4,1.2,2.9,1.7,4.4c0.2,1.2-1.6-1.7-2.7-3c0.2,1.1,0.7,2.2,1.4,3.3c0.2,0.7,0.4,1.5,0.6,2.2c2.2,2.6-0.1-4,4,2.7
				c0.9,3-0.9,0.4-1,1.4c2.6,5.9,2.7,2.5,3.9,4c3,9.4,2.5,1.3,5.5,4.8c-1.7-3.4-4.5-9.6-3.6-9.9c2.1,5.7,3.2,5.4,6.4,11.8
				c-0.5-1.5-0.4-1.7,0.1-1.2c-3.3-5.9-1.5-5.5-3.9-11.1c1,0.7,5.8,6.5,4.3,0.3c2.2,2.8,2.8,5.8,4.1,8.7c2.5,2.5,3.9,2.7,6.2,5.9
				c-0.4-1.5-0.8-3-1.2-4.5l-2.9-4.2c2.1,6.3-2.1-0.7-3-0.6c-1.2-4.9,3.1,1.8,2.1-2.7c6.2,13.2,5.1,5.2,9.8,11.2
				c-1.3-1.3-0.5,1.9-2.5-0.7c2.5,5.5,3.3,3.1,3.9,2.9c-1.2-3-2.6-5.8-3.6-8.8c0.4-1.9,3.3,5.6,4.6,7.4c-0.8-2.3,0-1.3,0.9-0.2
				c-3.1-6.8-2.1-7,2.2-0.4c-4-7.1-0.8-2.5-2.7-9c4,5.8,0.9,5.6,5,10.9c-3.3-8.1-1.5-6.1-3.2-11.2c3.4,4.9,1.1,5.4,3.1,8.9
				c1.1-0.1,1.3-0.2-0.5-5.8c3.1,4.5,0.5,2.7,2.6,6.6c5.4,7.4,1.8-1.9,2.4-5.1c1.7,2.5,2.6,5.1,4.5,7.5c-1.3-5.3,1.8-0.6,1.4-3.8
				c1.6,2.9,2.4,5.9,3.9,8.8c0.6,2.1-0.2,1,0.1,2.3c-1.7-2.1-1.9-4.4-2.9-6.6c-0.8,1.4,0.6,5.3-1.8,3.8c1.7,1.6,4.4,5.3,4.3,2.8
				c2.1,3-1,0.6,1.5,4.5c-1.9-1.9-2.5-0.7-4-1.7c0.5,1.5,1.6,2.9,2,4.4c0.2,2.5-2.1-4.1-3.5-5.3c0.5,2,0.2,2.1-0.6,1.3
				c6.1,13.6-3.5-2.7-0.7,6c-2.1-2.8-2.9-6.7-3.9-6.4c1.4,4.5,4.2,8.7,5.6,13.2c2.1,3.1,0.8-0.9,2.7,1.9c-0.4-1.5-1.5-2.9-2.4-4.3
				c-1-3.9,1-1.1,2.1-0.4c1.9,3.9,0.2,2,2.1,6.7c-0.5,0.9-2.2-0.7-1.5,2.6c-2.1-2.7-2.9-6.7-3.9-6.4c6.1,16.2-3.8,5.6-6.2,6.9
				c-1.5-2.9-1.9-5.9-3.7-8.8c3.3,1.2,7.7,4.6,9.7,3.1c-1.4-4-2.8-3.8-1.3,0.2c-2.4-3.6-2.8-2.4-4.2-7.5c-0.3,1-0.5,2.2-1.1,2.5
				c-1.5-2.8-2.1-5.9-4.5-8.6c2.3,6.4,1.1,4.4-0.4,3.6c-2-2.4-2.2-5.1-4.2-7.5c-2.4-1.6-2.4,2.9-1.2,7.3c-0.9-1.8-2.2-3.5-2.8-5.4
				c-0.8-3.1,2.7,5.5,0.9-0.2c-3.3-4-2.8,0.1-6-3.6c0.7,2.6,1.4,5.3,2.1,7.9c-1.8-2.8-3.3-5.7-5.5-8.4c2.7,7.5,4,7,6.1,10.7
				c1.1,4-5.2-7.1-2.9-0.6c-3.1-4.1-3.3-8.8-6.7-12.9c0.3,1.1,1.1,2.2,1.8,3.2c0.2,4.1-3.1,1-5.5-0.1c1.4,4.8,5.1,9.3,5.5,8.4
				c0.2,2.2,4.5,12.6,1.3,8c-2.4-4,0.3-1.5-2-5.5c-2.8-4.7,0.5,2.8-2.3-1.9c1.6,4.3,2.9,5.6,2.6,7.7c-1.6-2.1-2.6-4.2-3.2-6.5
				c-3.4-4.1,3.2,8.9,0,4.7c-1.9-3.1-2-6.7-4.6-9.7c0.4,2.7,1.9,5.1,2.7,7.7c0,0.5-0.1,1.1-0.9,0.2c-1.8-3.5-0.6-3.8-3.4-8.8
				c-0.9,0.7-2.3-2.7-5.7-7.1c-4-3.5-3.4,2.5-4.6,3.4c-2.7-8-5.7-3.6-8.8-6.4c-2.8-5.7,2.5,0.4,0.1-6c-4.5-4.8-0.3,6.7-5.2,0
				c0.5,1.5,1.7,2.8,2.6,4.2c2.1,5.3-1,0.7,0.5,4.7c-7.1-10.1-4.1,0.3-9.3-7.4c0.6,5.4-3.7-0.1-1.5,7.5c1,0.2,1,1.4,3.1,4.1
				c1.3,7.5-5.8-4.3-10.6-13c1.7,4.4,4.4,8.5,6.3,12.8c-1.6-1-2.2-0.2-4.5-2.5c-1.8-2.7-0.2-2.8-1.3-5.7c1.5,2.4-5.3-3-5.1-1.1
				c-1-0.8-4.1-6.6-2.3-4.2c-2.8-5.1-0.9,0.1-1.3,0.3c0.5,1.5,1.7,2.8,2.7,4.1c-1.6,0.9-11.3-11.1-10.5-4.5c-1.3-1.7-2.7-3.3-4-5
				c0.7,2.2-1.7-1.3-0.2,2.5c-8.1-10.7-3.8,1-11.6-9c1,6-3.3,2.4-9-3.6c-0.7-3.7-1.9-6-2.5-9c-2.1,1-0.2,8.9-5,2.6
				c5.1,8.9,5.9,13.5,12.2,23.2c-1.8-0.8-4.4-3.3-6.3-4.3c5.4,9.2,6,2.2,12.3,13.5c1,2.6-2.7-3-3.7-3.8c3.6,6.6-1.5,0.9,0.9,7
				c-1.9-3.5-3.7-7-6.9-10.2c3,5,2.9,6.3,3.9,9.8c-3-3.8-7.3-8.6-3.8-2.6c-2.4-2.5-4.1-6.2-4.9-5.9c-2.7-3.8-1.5-2.7-2.4-5.4
				c-1.5-0.6-3-1.3-2.3,1.9c-2.8-3.2-3.2-7.2-6.1-10.4c0.5,1.7,5.1,10.2,1.5,5.6c1.3,2.5,2.1,5,4.5,7.2c0.1,2.7-0.2,1.7,2.7,7.7
				c1.6,3.7-4.2-5.4-2.5-1.7c1.3,4.2,3,4,4.5,6c-0.1,1-2.4-1.8-1.8,0.5c-2.1-2.6-2.3-5.8-4.9-8.3c2.4,4.6-0.4,2.4-1.7-0.7
				c3.5,8.5-1,5.3-7.3-1.4c1.4,2.4,2.3,5,3.7,7.4c2.2,1.8,1.9,2.1,5,5.8c-0.5-1.9-2-3.5-3.3-5.1c0.9-2.1,6.4,3.5,9.7,5.6
				c0.7,4.1-5.8-3.7-5.2,0.3c1.5,1,3.1,2,5.4,4.4c0.6,2.7-3.5-2.5-0.1,4.9c-2.1-2.6-2.9-5.6-5.4-8.1c0.8,2.1-0.2,1.1,0.8,3.4
				c-1.6-1.5-2.2-3.4-2.9-5.2c-1.7-1.9,0,1.8-2.5-1.7c3.3,6-0.2,2.8,3.2,8.8c-3.2-3.1-4.1-6.8-7.1-10c1,3.5-3.3,0.2-5.6-3.2
				c0.9,4.2-3-2.3-2.6,0.8c-2.8-3.6-0.1-1.4-1.6-4.4c-3.9-4-2.4,0.9-5.6-1.9c1.5,3.3,2,4.4,5,9.4c-1.4-0.8-1.6,1.6,1.6,6.8
				c-2.2-1.7-2-4.2-4.2-6c-1.4-1,0.3,3-2.6-0.4c0.8,2.9,2.9,5.2,2.1,5.4c-2.8-3.2-3.2-7.1-5.5-10.5c-1.4-3.2,5.2,6.4,2.2,0.5
				c-3.2-4.7-4.5-3.5-3.5-0.1c-2.1-1.8-2.8-4-4.7-5.8c1.1,3.9,1.5,8.8-1.8,4.3c-1-0.9,0.7,1.8,1.7,3.1c-0.3,1-0.3,2.6-4.3-2.3
				c1.9,4-0.2,1.6,1.7,5.6c-1.2-3.7,6.3,6.4,3.5,0.1c3.8,4.9,4.2,7.2,7.7,9.8c3.1,7.3-1.9,0-2.6-0.4c2.3,5.3,3.2,3.4,6,7.8
				c-1.6-3.4-1.2-3.5,1.3-0.4c-1.9-4,0.3-1.6-2.1-5.5c-2.1-2-1,0.9-4.3-4.7c-0.6-2,3.7,3.9,2.1,0.5c2.8,3.8,2.7,5.5,5.1,6.9
				c-4.8-6.8,1.1-0.1,1.7-0.5c0.9,1.1,4.4,7.2,2.5,5.3c0.5-0.3,6.1,5.9,5.5,3.2c6.3,8.5,4,2.3,9.7,10.4c-0.1-2.2-2.9-6.5-1.6-6.8
				c1.3,1.6,1.7,3.5,2.5,5.3c4.9,6.2,3.4,2,5.9,4.3c-1.3-2.8-2.2-3.8-2.9-4c-2.5-5.3,1.5-0.5-1.6-5.6c0.6,0.9,4.3,6.4,3.4,3.9
				c2.8,3.8,1.6,2.7,2.5,5.3c3.4,3.3,1.5-2,7.1,5.2c-6.2-11,4.6,4.5,0-4.8c3.7,6.5,2.4,2.3,5.4,6.9c-0.3,1-0.3,2.5-4.2-2.4
				c4.5,8.8-1.7,2.4-5.9-1.9c1.8,3.1,3.6,6.2,4.6,9.6c-2-5.2,1.7-2,4.7,0.1c3,2.1,5.4,3.1,0.7-6.5c1.9,0.6,2.4-1.3,5.8,1.9
				c-1.3-2.8-2.2-3.9-2.9-4c-0.8-2.2-1.6-4.4-2.4-6.6c0-0.8,1,0,2.5,1.7c1.3,3.5-1.4,0.1,1.2,5.7c2.3,2.6,2.7,2.1,4.9,4.6
				c-0.5-1.5-1.1-2.9-1.6-4.4c0.2-0.3,0.9,0.1,1.7,0.8c1.8,2.3,2.8,4.8,3.6,7.4c2.7,1.4-5.1-10.3-1.1-6.9c-0.9-1.8-1.9-3.5-3.3-5.1
				c-0.6-1.9-0.8-3,0.1-2.4c4.5,9.3,9.2,10.9,12.7,14.6c0.3,2.9-6.5-2.5-1.7,5.3c-1.2,0.5-4.5-2.8-5-1.1c3.4,5.9,2.5,1.3,4.5,3.6
				c0.7,3.1-0.7,0.8,2,6.6c-5.8-8.8-1.8-0.7-7.8-9.9c1.2,4.1,3.9,7.7,6.5,11.4c0.3,2.1-3.6-4.4-4.9-5.8c1,2.6-0.2,1.5,1.6,5.6
				c-2-1.8-2.7-4-4.5-6c2.1,5.3-0.4,0.4-2.1-0.6c1,3.5-1.6,1.1-0.4,4.9c-2.3-2.1-2.8-4.8-4.6-7.1c0-2,4.8,2.3-0.4-5.9
				c-0.9-0.5,0.9,3.6,0.8,4.6c-0.9-1.4-1.8-2.7-2.9-4c1.8,4.8,1.9,5.2-1.3,1.6c1.1,4.1,4.7,7.5,5.8,11.6c0.2,0.7-0.4,0.1,0,1.2
				c-2.4-2.5-3.4-5.5-5-8.2c-3.6-4.8-1.3-0.1-4.2-3.6c0.4,1.5,1.4,2.8,2.5,4.1c0.3,2.9-6.9-6.4-2.5,3.1c-4.4-2.8-3.4,2.1-9.6-4.4
				c2.5,5.4-0.6,1.7-0.8,2.7c2.9,5,3.8,6,5.1,9.4c3.8,4.2,2.9,2.8,6.7,7.7c-2.7-5.1-2.2-3.7-4.3-8.4c0-1.7,3.2,1.7,0.8-3.9
				c2.9,3.6,3.8,7.7,5.9,11.5c2.1,2.5,1.5-1.5,5,4.6c2.3,1.2-0.9-6.6,5.3,0.9c1.1,3.4-0.8,1.7,0.1,4.8c1.1,0.8,0.9-0.6,4.2,3.7
				c-2.4-4.4-2.3-4.4,0.8-0.2c-2.9-7.8,5.4,2.9,5.3-0.3c2.1,1.8,2.4,4.1,3.4,6.3c2.8,3.6,1-0.4,2.8,1.6c-2.6-3.6-4.9-7.4-8.3-10.9
				c-1.1-1.7-2-3.4-2.9-5.2c0.2-0.5,1.4,0.4,2,0.6c1.5,2,2,4.2,4.1,6c-0.5-1.8-1.7-3.5-2.5-5.3c-0.3-0.9,1.3,1.2,0.8-0.2
				c3.1,4.3,1,2.5,3.3,6.3c1,2.9-3.4-3.3-1.2,1.5c4.5,1.4,8.2,1.6,12.1,2.1c3.9,0.5,8.1,1.5,13.2,4.3c-4.6-8.7,0-4.7,4,1.4
				c-2.2-4.6-5.4-9-7.6-13.6c-0.1-2.4,4.7,6,4,2.6c1,1.3,1.4,2.8,2,4.3c1.7,1-0.1-4.2,2.4-1.8c5.3,11.6,5.9,5.6,12.3,13.6
				c-0.4-2.3-2.5-4.2-3.9-6.2c1.8,0,1.8,1.3,4.7,3.6c-0.7-1.8-2.5-3.4-3.1-5.2c0-0.8,0.9,0.1,2.4,1.8c-1.1-2.1-2.1-4.3-2.7-6.5
				c-1-3.5,3.7,5.4,1.6-0.4c1.5,2,2.5,4.2,3.1,6.4c4.1,2.6,5.5,5.8,6.7,2c1.1,1.7,2.1,3.5,2.7,5.3c-1.6-6.6,3.6-1,3.2-5.4
				c0.9,1.4,1.7,2.8,2.3,4.2c0.8,0.1-0.3-3.5-1.9-7.9c1.8,2,2.9,4.1,3.4,6.3c1-3.1,9.7,8.3,5.9-3.7c2.1,2.3,2.5,5,4.5,7.3
				c0.7,2.2-1.6-1.4,0,2.3c0.9-2.1-0.1-8.9,4.8-4.4c-2.2-4.7-3.3-3-4.9-8.4c3.4,4.2,6.1,7.7,6.1,5.9c-3-6.9-1.1-0.3-3-2.9
				c-1.7-4.9,0.4-2.3,0.5-3.6c1.9,3.6,3.5,7.1,5.2,10.7c1.1-2-1.5-10.2,2.9-6.4c0.9,1.4,1.2,2.9,2.2,4.3c1.4,2,1.1,0.8,2.6,3
				c-1.4-4.2-1.8-4.3-2.1-6.6c1.2,2.1,2.5,4.2,4.1,6.3c-0.2-2.4,1.5-1.3,2.4-1.6c1.8,2.7,1.3,3.9,0.3,2.3c4.1,6.4,1.8-1.6-0.9-8
				c2.5,2.7,3,5.7,3.9,8.7c1.4-0.2-1.7-9.4,1.4-6.1c1.3,1.6,2.6,6.6,0.3,2.3c2.5,4.6,4.1,6.1,5.2,6.1c-0.1,0.4-0.4,1.6,1.8,4.4
				c0.2,1.3-2-2.3-0.1,2.3c2.6,3.9,1.2-0.3,3,1.8c-1.7-2.8-3.9-8.4-1.7-5.5c-0.8-2.1-0.8-0.9-2.2-3.1c-0.2-2.1,0.3-2.8-1.9-9
				c2.4,2.7,2.4,5.8,4.6,8.6c-1.1-3.6-0.2-3.8-2.7-8.9c2.3,1,5.7,3.7,5.7,1.4c-1.2-2.5-2.7-5-3.1-7.7c3.6,6.1,4.1,9.5,6.4,10.6
				c1.6,4.5-0.4,1.5-0.5,2.4c2.8,5.6,1.4-1.2,3,0.7c-0.8-1.8-2-3.6-2.4-5.5c1.7,2.2,1.4,0.5,4.7,6.3c-0.5-2.7-2.2-5.1-2.7-7.8
				c0.2-0.8,5.7,9.4,2.7,0.8c1.6,2.1,2.1,4.3,3.9,6.4c0.9,3-0.1,1.9-0.8,1.3c8,10.4,7.6-0.7,12.5,1.7c1.4,2.9,2.4,5.9,3.3,8.8
				c1.3,1.3,0.4-2.4,2.6,0.8c-0.7-2.6-2-5.1-3.3-7.7c1.6-0.4,9.4,9.6,4.5-5.2c2.8,4.9,1.1,4,2.9,7.7c1.3,0.1,1.4-0.3,3,0.8
				c-0.6-1.8-1.7-3.6-2.3-5.5c0.3-2.3,8,10.1,4.5,0.6c1.6,2.5,2.5,5.1,4.3,7.6c0-1.4-1.7-6.6,1.2-1.3c-4.2-11.6,4.4,2.3,2.4-6
				c0.8,2.2,2.6,4.3,3.2,6.6c-0.1-2.5-0.9-6.7,3.3,0.8c-0.9-3-1-4.1-0.8-4.5c0.7,1.5,1.4,2.9,2.2,4.4c-1.3-3.5-0.3-3.7,0.8-0.1
				c-0.8-3.3,0.5-2.6,2.6-0.3c-2.2-4.7-1.9-5.2-1.4-5.6c0.8,1.4,1,3,1.5,4.4c1.7,1.6,1.6-0.8,3.3,0.9c1.5,5.4-1.4-1,1,5.6
				c1,1.1,2.3,2.7,2.2,1c1,1.8,1.2,3.7,1.7,5.6c-0.7,0-4.4-7.2-2.5-0.9c0.2-1.5,3.6,7.5,3.6,5.4c2.3,5,1.8,5.5,1.7,6.7
				c-1.4-2.6-2-5.2-3.1-7.8c-2-2.9,0.1,2.7,1,5.6c-0.6,0-0.4,2-2.8-2c1.8,0.9-2-7.2-0.3-5.7c-1.4-4.1-2-1.8-2.8-6.7
				c-0.8-3.7,2.7,6.9,2,3.3c-1-4.8-1-2.6-3.2-6.6c0.1-0.5,0.1-1.1,0.8-0.1c-2.5-4-2.2,2.7-5.2-0.7c3.1,6.4-0.2,1.4,2.1,6.7
				c0.7-0.4,1.3-1.2,0.7-4.7c6.7,14.7,1.7,10.4,2.6,14.7c-3.7-5.4-4.8-11-8-16.5c3.1,7.3-2.1-1.8,0,4.6c0.1-1.2,2.8,1.2,5,7.5
				c-4.2-7.2,0.7,4-2.9-0.9c-2.2-3.2-2.7-6.6-4.8-9.9c0.5,1.9,1,3.7,1.4,5.6c0.9,1.5,1.8,2.9,2.3,4.4c0.6,5.7-2,3.7-2.3,7.1
				c2.8,5.2,1.7,1.1,3.1,3.1c0.6,3.8,0.1,6.9-4.3-1.9c0.8,0.8,0.9-0.3-0.4-4.5c-1.6-4.2-1.5-1.3-3-5.5c-0.7,1.3,2.3,10.2-3,0.3
				c1.6,4.5-0.1,1.8-0.8,1.2c0.8,1.8,1.2,3.7,2.3,5.5c-3-3.6-1.8,4.6-6.4-3.8c-0.6,0.6-0.5,2.6-0.9,3.6c-0.9-1.8-1.6-3.6-2.3-5.5
				c-1.7-2.2,1.4,4.2,1.6,5.6c-2.4-3.6-3.7-7.2-5-10.9c-1.7-1.8-1.7,0.8-5.3-6.3c1.8,4.4,4.5,8.7,5.7,13.1c2.7,3.1-4-9.6-0.1-4.6
				c2.2,4.3,3.1,6.9,3.3,8.8c-0.5,2.2-6.8-8.2-6.8-4.9c-3.4-6-1.1-3.7-1.9-6.7c-2.1-3-1,0.6-0.9,2.4c0.7,1.4,1.5,2.9,2.4,4.3
				c0.1,1.3-1.9-2.4,0.3,2.3c-3.1-4.3,1.2,7.3-4.7-2.9c2.2,5,1,5.9-1.9,0.3c3.8,9.4,1.9,9.3-1,5.9c0.3,1.5,1.2,2.9,1.7,4.4
				c-2.7-3.5-2.2-0.1-5.7-7.3c0.8,2.6,1.6,5.2,2.4,7.8c-3-3.4-3.1-7.3-5.6-10.8c1.4,4.6,0.1,3.8-1.9,1.5c1.6,3.6,2.6,7.3,4.2,11
				c-2.6-4.2-3.3-8.8-6.4-12.9c5.2,10.5,2.5,10.3-0.9,5.9c0.1,2.2,3.4,8.7,1.3,6.7c-1.9-3.8-3.4-8.4-3.6-6.4
				c-1.8-3.2-2.9-6.5-3.9-9.8c-0.7-1.1-0.6-0.6-0.4,0.1c-0.5-0.7-1-1.4-1.5-2.1c0.8,2.9,2.7,5.7,3.5,8.7c0.6,3.3-3.6-5.3-6.2-8.3
				c1.4,4.3-2.3-1.6-1.6,1.4c3.8,5.9,3.8,4.3,3.4,1.8c1.3,2.5,3,4.9,4.7,7.4c-1.4-1,1.2,3.8-2.2-0.8c0.2,2.3,2.6,4.2,2.9,6.5
				c-3.5-5.1-4.5-3.5-6.6-4.7c1.2,2.8,2.8,3.2,2.6,1.9c4.5,8.3,2.1,7.6,0.3,5.8c-3.2-5,1.1-0.6-1.4-4.4c-3.8-5.4,1.2,3.9-1.1,1.4
				c-4.2-10.5-2.1,2-8.5-7.8c1.8,4.5,1.7,7.2,3.3,12.2c-4.8-9.4-3.5-0.6-2.2,2.7c-1-1.4-2.1-2.7-2.6-4.2c1.4,3.3-1.3-0.2,0.4,4.6
				c-4.7-7.7-1.4,0.1-1.5,2.6c-1.6-2.4-2.4-5-4.5-7.3c0.7,6.1-3.2,1.4-3.7,5.4c-1.8-2.7-2.6-5.3-3.4-5.2c4.6,8.5,0.6,3.8-3-1.7
				c3.9,6.3,5.2,11.2,2.7,8.8c-3.2-5.2,1.2-0.3-2-5.5c-1.4-2-1.1-0.8-2.7-3c1.2,2.8,3.1,5.2,2.3,5.4c-1.2-1.7-1.4-3.6-2.7-5.3
				c-2.7-2.5-1.4,0.7,0.8,4.5c0.1,2-3.7-6.6-3.8-5.1c3,5.1,3.1,7,3.1,8.7c-3.8-6.2-0.7,0-4.2-5c2.5,4.5,1.3,4.3-0.3,2.4
				c-1.5-2.5-0.3-1.3-2.7-5.3c3.4,6.6-3.6,0,2.5,10c-2.4-2.8,2.2,6.7-0.3,3.6c-3.1-4.5-1.2-3.4-3.6-8.6c-1.6-1.5-1,0.9-2.6-0.6
				c7.2,13.3,1.1,7.6,1.8,10.2c-2.2-4-2.2-5.8-2.9-7.6c1.2,1.3,1.8,2.7,2.4,4.2c2.2,2.2-1.2-3.2-0.9-4.5c-2-1-1.5,0.4-7.4-7.7
				c0.6,2.6,2.9,4.8,4,7.3c-5.5-7.3-5.2,1.8-8.3-0.5c0.2,0.8,0.8,4.4,3.3,7.5c1.7,4.8-4.4-3.9,0.6,4.6c-2.2-2.6-3.2-5.5-4.9-8.3
				c-0.3-1.2,1.6,1.6,2.8,2.9c-1.8-4.2-4.3-6.5-4.1-8.5c-1,0.1,0.6,3.1,1.4,6.7c-0.9-1.3-1.7-2.7-2.8-4c1.5,3.7,1.9,2.5,4.4,7.2
				c0.6,2.1-2.2-1.6,0.1,3.5c5.8,4.4,8.9,4.2,12.2,4.3c2,1.9,2,4.3,4,6.2c0.7-0.2-1-2.6-2.1-5.4c3.1,4,4.3,8.4,6.1,12.7
				c-1.7,0-8.9-8.9-7.1-2c-0.4,0.3-3.5-3.8-3.5-2.8c3.2,4.5,2.7,3.9,0.5,2.2c0.6,2.2,2.4,4.1,3.3,6.3c-6-7.6-2.8-1.5-4.1-1.4
				c-1.7-2-2.5-4.1-4.4-6c2.8,4.5,4,7.7,1.8,5.5c-1.7-1.9-1.5-4.4-3.7-6.2c1,2.2,0.2,1.3-0.7,0.2c1,1.7,1.8,3.5,2.5,5.3
				c-3-2-4.3-2.6-8.6-7.3c5,8.8-2.5-1.8-0.2,3.6c-2.7-3.8-0.1-1.4-2.2-5.4c-0.5,0.4-0.6,1.6-2.7-0.5c0.2,1,3.2,6.7,1.4,4.4
				c3.5,5.3,2.9,4.8,4.7,9.5c0.7-1.5,5.2,4.8,3.7,0.3c3.5,4.5,1.8,3.8,4.5,7.2c-1.1-3.2-3-6.4-5.1-9.4c-0.5-1.6,0.6-0.6-0.6-3.4
				c4.1,6.7,3.2,3.1,3.1,1.6c3.1,4.3,1.6,4.1,4.7,9.5c1.2,0.7,0.1-1.1-1.4-4.4c1.2,1.6,4.2,5.5,5.5,5.7c-1.7-2.7-2.7-5.6-3.8-8.5
				c2.3,3.4,4.1,6.9,6.9,10.2c-1.4-3.2,1.2,0.1,1.4-0.3c1.2,2.5,3.1,4.8,4.5,7.2c0.7-2.4,3.7-0.9,7,0.9c-2.8-6.9,3.6,2.1,2-2.8
				c8.1,10.4,0.9-7.4,10,6.1c-1.8-3.9,0-1.4-1.3-4.4c2.7,3.9,3.3,4,5,6c0.7,2.7-2.3-1.4,1.4,5.5c-2.9-5.7-1.9-2.6-3.4-4
				c2.1,4.5,2.1,3.2,3.1,4c2,5.2-0.4,2.5-1.2,2.6c-1.5-2-1.2-3.6-0.1-2.3c-3.4-5.4-1.9,0.7-3.6-0.4c2.7,3.9,0.3-1,3,2.9
				c-2.4-1,0,4.3-0.7,5.9c-1.9-2.3-1.7-5.1-4-7.3c0.6,1.4,1.2,2.9,1.7,4.3c-4-3.9-3.7,0-2.6,4c-2.4-6-3.1-3.9-4.6-4.8
				c1.5,2.7,2.5,5.2,3.2,5.1c3.4,8.1-3.9-3.9-1.2,2.6c-2.3-3-3.9-6.1-5.7-9.3c-1.4-1.4,2,5.7,3.1,7.5c0.8,2.7-6.1-6.2-1.6,1.5
				c-0.3,0-3.2-2.5-4.3-4.9c2.3,5.1,1.1,6.7-2.9,3c-0.5-2.5,0-1.6-2.8-7.5c-2-2.2-3.5-3.6-5.5-5.8c0.2,1.3,5,7.1,2.9,5.2
				c2.9,5.4,0.7-0.3,1.1-0.3c4.2,6.7,5,11.7-0.3,4.8c-1.4-0.2,5.6,13.5,0.3,6.9c0.6,1.4,1.2,2.8,1.8,4.2c-1.8-1.9-2.5-4.1-3.8-6.1
				c-1.8-1.5,2.6,6.7-0.8,2.5c-2.8-3.8-1-2.8-2.3-5.3c-0.3,3.2,0.5,7.8-5.7,0.2c-0.4,0.4-1.5-0.2,0.8,4.5c1.5,1.6,2.6,3.2,3.4,5
				c-3.8-4.8-1.5,2.3-6.4-3.1c-1.3-2.7-2.4-5.3-0.7-3.3c-2.6-3.4-4.5-3-5.8-3.3c2.4,5.2,0.6-0.1,4.1,4.8c1.6,3.5-1.1,0.5,0.9,4.5
				c1.2,1.7,2.3,3.3,3.1,5.1c2.3,2.7,0.9,0.2,3.3,3.9c0,0.3-0.1,0.7,0.6,2.2c-5.8-7.5-4.7-5.3-8.1-8.5c-2.6-5.1,3.1,2.6,0.4-2.5
				c-2.9-3.7-1.6-1-4.5-4.7c3,4,3.5,7.6,2.6,7.5c-1-1.3-1.6-2.7-2.3-4.1c-3.6-4.7-1.2-0.1-4-3.7c1,2.1,3.1,3.9,4.3,6
				c1.1,3.9-3.5-0.9-3,1.9c3.5,5.3,0.3-1.1,2.7,1.7c0.8,1,1.3,2,2.1,3c-2.2-1.7,0.1,2.2,0.5,4.5c3.8,5.7,3.4,3.6,0.5-1.3
				c2.5,2.5,3.2,6.3,4.3,6C179.2,463.6,178.7,464.9,182.7,469.6z M275.6,507.8c-1.8-4.5,1.2-0.1,2.3,0.8
				C279.2,512.1,277.6,510.2,275.6,507.8z M341.7,542.2c1.9,4.9-1.1,0.9,2.9,7.6c0.6,3-0.9,1.5-3-1c-1.8-4.5-0.3-1.6-3.3-8.7
				c0.9,1.4,2.6,4.4,2.3,3.2c-0.5-1.5-1.5-2.9-2.1-4.3C340,540.9,337.8,535.1,341.7,542.2z M657.1,195.4c1.2-3.4,1.7-8.3,1.9-3
				C658.5,195.9,657.1,199.4,657.1,195.4z M673.9,66.3c1.9-2.4,2.2-3.6,4.6-10.8c-0.2,5.4,0.8,2.7,1.8-0.6c0,5.3,0.1,5.7-0.4,12.4
				c1.9-4.3,1.8-9.4,2.2-14.2c1.6,3.2-0.3,14.6-2.4,20.5c-0.3-9.3-4.4,6.3-5.4,1.7c-0.1-5.4,1.3-2.5,1.5-6.9
				C674.7,70.9,673.3,70.9,673.9,66.3z M526.1,98.1c-0.7,4.1-1.7-1.4-2.5,0.7C524.3,94.2,525.1,95,526.1,98.1z M456.1,114.7
				c-0.9-4.2-2.3-3.2-2.6-8.5C454.8,111.6,455.9,107.3,456.1,114.7z M401.7,111.9c0.8,1.1,0.6-3.2,2.3,2.5
				C404.1,118,402.3,116.8,401.7,111.9z M77.7,151.3c-0.9,0.4-1.7,1-4.7-2.4C74,149.1,74.7,146.1,77.7,151.3z M133.5,215.4
				c2.4,4.8-2,4.5-5-2.5C132.5,218,129.4,209.8,133.5,215.4z M48.7,221.6c-0.8-1.8-2-3.4-2.5-5.3c1.7,2.1,1.4,0.9,3,2.7
				C50.6,222.4,51.6,225.1,48.7,221.6z M232.8,359.4c-1.5,0.7-2.4,0.6-4.5-0.5C227.9,355.1,229.7,355.9,232.8,359.4z M197.5,366.9
				c-0.9-0.5-1.6,1.3-3.8-2.8C194.2,363.9,194.7,361.6,197.5,366.9z M174.9,363.5c0.9,1.5,4.5,9,1.3,4.4
				C174.2,365.3,173.1,361.1,174.9,363.5z M178.1,452c-1.2-1.2,0.8,1.6,1.4,3.2c-4.7-6.3,1.2,3.7-3.5-2.6
				C173.1,447,175.8,448.5,178.1,452z M218,472c-0.3,0.4,1.4,3.9-1.3,0.3C214.1,466.8,217.7,471.6,218,472z M260.1,501
				c2.3,4.1,1.3,4.3-1.6,0.3C256.6,496.9,258.6,499.3,260.1,501z M265.3,501.3c0.9,2.7-1.4,1.1-4.3-3.9
				C263.2,500.1,261.5,495.8,265.3,501.3z M101.7,295.4c1.8,0.3,1.2-3.3,4.1-1.1C107.7,300,104.6,299,101.7,295.4z M318.1,571.2
				c2.5,4.8,1.5,4.8-1,1.2C314.6,566.8,316,568.4,318.1,571.2z M217.7,432.7c-0.7-0.1,0.7,3.5-1.7,0.3
				C214.7,429.9,214.8,427.4,217.7,432.7z M90.4,277c-2.2-3-0.7,1.9-3.8-3.7C87.8,274.1,87.3,270.8,90.4,277z M90,273.5
				c4,5.8,1.4,1.1,3.3,2.7c0.7,1.8,2.5,3.3,3.3,5.1c-1.3-0.3-3.4-4.2-1.6,0.5c-0.8-1-1.7-1.9-2.5-2.9C91.7,277,90.5,275.4,90,273.5z
				 M102,285.7c-0.3,0.7,1.3,4.7-2,0.6C97.6,281.1,99.1,282.2,102,285.7z M187.9,382.9c-0.7-1.9-0.9-3-0.1-2.3
				c1.1,3.6,7.4,13.4,4.5,10.7C189.2,386.5,190.5,386.2,187.9,382.9z M106.5,280.9c0.5,1.4,1.1,2.9,1.7,4.4c-0.8-1-1.6-1.9-2.5-2.9
				C103.6,278,105.6,280.4,106.5,280.9z M55.7,221.9c-4.7-7-0.5,0.8-3-1.5C48.4,213.8,53.5,215.6,55.7,221.9z M190.8,380
				c3.7,4.2-0.5-6.2,5.7,3.5c-3.5-6.3-2.1-6.4,0.3-3.5c-1,1.8,3.5,9.1,4.5,14.2c-5.5-8.4-0.1,1.1-4.6-6c0,1.8,0.8,6.8-2.5,1.7
				c0.6,0.7,1-0.5-0.5-2.2c0.1,1.4-0.9,0.9-3-1.7c-1.6-3.8,0.3-1.3,2.7,1.8C192.1,384.4,194,385.7,190.8,380z M279.6,502.7
				c2.9,5.3,1.2,4.1,0.3,3.4C277.6,501.8,277.8,500.5,279.6,502.7z M178.4,366.3c1.1,1.3,2.1,2.7,3.1,4c1.2,2.7,1.4,3.8,0.1,2.3
				C181.2,370.3,178.7,368.5,178.4,366.3z M68.9,228.9c2.2,4.8-4.2-4.3-1.3,1.6c-2.4-2.6-4.4-7.3-5.4-6.9
				C59.1,215.8,67,228.4,68.9,228.9z M116.3,284.2c1.3,3.3,3.1,7.7,0,3.6C116.7,287.3,113.4,280.5,116.3,284.2z M84.7,247.3
				c-4.3-5.6-6.5-13.6-3.2-10c2.4,3.9,3.4,6.9,3.3,7.5C81.5,239.5,82.7,243.1,84.7,247.3z M211.5,394.5c-3-5.4-1.8-1.8,0.1,2.3
				c-0.7-0.3-1.5-1.3-3-4c1.6,5.4-3.9-1.9-2.1,3.9c-2-2.4-5.1-9.3-2.7-3c-2.4-2.9-7.1-11.4-4.3-8.4c0.6,1.4,1.2,2.9,2.3,4.2
				c-6.5-11.9-2.3-8.7-2.9-12.2c1.3,1.7,2.6,3.4,3.8,5.1c0.4-0.7-2.2-7,1-2.5c3.3,6.7,2.3,8.3,0.6,6.9c1,1.4,0.9,1.8,0.8,2.2
				c0.8,0.2,3.9,4.5,4.1,3.8c-2.4-6.2-4-10.9-0.2-5.8C207.5,387,210.5,391.6,211.5,394.5z M115.9,280.7c-0.8-2.2-3-4-3.6-6.2
				c3.1,4.5-0.7-2.8,2.5,1.7c1.4,3.6,3.6,7,4.8,10.7c-0.8-1-1.6-2-2.4-3C116.7,282.9,116.3,281.8,115.9,280.7z M336.4,577.7
				c1.9,3.3,3.2,7.7,0.7,3.3C336.6,579.4,333.7,573,336.4,577.7z M292.7,507.9c3.5,7.3-3.2-2-2-0.9
				C291.8,508,290.1,503.9,292.7,507.9z M91.1,243c0.5,1.5,1.1,2.9,1.6,4.4c-1-1.3-2.3-2.6-2.9-4C91.1,244.7,87.3,238.3,91.1,243z
				 M112.4,263.7c0.6,1.8,1.7,3.5,3.2,5.2c0.7,1.8,1.3,3.6,2,5.5c-1.1-0.7-3.3-3.2-4.9-4.7C113.3,268.7,112.3,265.3,112.4,263.7z
				 M90.3,240.8c-1.4-3.2-3.4-6.3-5.3-9.4c1.6,1.9,0-1.7,2.5,1.7c2.6,7.8,3.6,3.1,6.5,9c-2.6-2.8-0.6,4.5-5.4-3.3
				C89.2,239.5,89.7,240.2,90.3,240.8z M124.5,277.2c-4.7-7.4-1.5,0-4.1-2.5C115.6,265.2,120.5,269.1,124.5,277.2z M127.4,278.9
				c1.3,0.7,4,6.5,3.2,4c-1-2.5-2.9-4.8-4-7.4c1.1,1.3,2.1,2.6,3.2,4c0.7,1.8,1.2,3.7,2.8,5.3c1.1,2.8,2.1,5.5,0.4,3.5
				c-0.6-1.4-1.2-2.9-2.4-4.2c0.5,2.3,2.1,4.2,2.8,6.5C130.2,287,129.4,282.8,127.4,278.9z M148.5,304.6c1.6,4.6,0.6,4.5-3.2-0.4
				C144.4,300.9,145.9,301.9,148.5,304.6z M92.9,238.9c-0.4-2.8,4.5,3.4,3.8,0.2c1.7,4.7,0.5,3.8-1,3.9
				C95.1,241.5,94,240.2,92.9,238.9z M209.7,382c0.5,1.5,1,2.9,1.6,4.4c-2.9-4.4-3.4-4.3-1.5,0.3c-0.7-1-1.5-2-2.3-3
				C206.4,379.7,208.5,381.7,209.7,382z M102.4,245.9c-2-2.1-1.3,0.3-3.7-2.6C97,239.5,99.9,241.3,102.4,245.9z M303.8,513.5
				c0.7,3-2.6-1.7-2.5,0.3C298,506.7,301.8,511.2,303.8,513.5z M80.8,218.2c-1.6-2.4-2.4-5-3.6-7.4c0.1-1.1,0.7-1.2,1.8-0.5
				c2.1,3.1,3.5,6.3,5.2,9.4c-3.3-7.7-1-5.7-0.6-7.1c5.1,7,5.3,5.6,8.7,8.5c2.5,5.6-2.3,2.1-4.3,1.2c1.4,1.6,2.4,3.4,3.2,5.1
				c-1.3,0.4-2.7-1.3-4.1-4.9c-0.3,1.5-1.2,6.1-8-3.8C81.8,221.2,79.2,217.4,80.8,218.2z M120.3,264c2.7,5.4,4,8.4,1.1,5.7
				C122.9,269.5,118.4,263.5,120.3,264z M91,229.8c1.4,1.4,1.2,0.1,3.3,2.7C95.9,236.4,93.1,234.6,91,229.8z M212.2,381.5
				c0.8,0.8,1,0.7,0.3-1.2c1.2,1.7,2.5,3.4,3.7,5.1c-1.5-5.3,1.2-0.9,0.6-4.8c0.8,2.2,2.5,4.2,3,6.4c-2.9-3.9-2.4-1.5-2.2,0.4
				c2.2,3.5,4.2,7,5.3,10.6c-1.4-1.4-2.1-1.7-4.5-5c-1.4-3.6,0.7-0.9-1.2-5.6C214.9,383.3,214.7,385.9,212.2,381.5z M215.6,386.7
				c1.1,3.3,0,2.5-3-1.8C211.9,382.3,214.4,385.7,215.6,386.7z M101.4,236.6c2.1,1.8,1.9,4.3,4,6.1c0.9,2.7,0.3,2.8-1.7,0.5
				C102.1,240.4,100.8,236.6,101.4,236.6z M324.9,541.9c0.9,2.6,1.9,5.3-0.1,2.2C323.3,540.2,324.1,541.1,324.9,541.9z M95.3,228.6
				c1.4,1.6,2.2,3.4,3.6,5c1.3,3.2,0.1,2.2-2.1-0.6C96.4,231.5,95.9,230.1,95.3,228.6z M158.1,302.4c1.3,1.7,2.5,3.4,3.5,5.1
				c-0.2,1.3,0.4,4.3-3.2-0.5C156.4,302.1,160.3,307.8,158.1,302.4z M104.4,237c3.4,3.7,1.3-2.3,4.6,1.2c-1.7-0.6,1.6,7.4-2.2,3
				C106.2,239.7,105,238.4,104.4,237z M122.5,258.6c-0.5-1.5-1-2.9-1.5-4.4c1.6,2.4,3.5,4.7,4.8,7.2
				C122.9,257.5,125.2,262.5,122.5,258.6z M96.7,225.8c-1.3-2.9-4.6-5.2-5.2-8.2c1-0.4,2.5,4.4,5.3,7c0.6,1.8,1.3,3.7,1.9,5.5
				c-1.7-2.4-2.3-0.9-4.1-4.9C94.5,223.9,96.4,226.3,96.7,225.8z M221.8,385.6c-2.1-2.3,1.7,4.5-1.1,1.4
				C218.8,382.5,218.9,379.7,221.8,385.6z M129.9,260.4c-0.4,0.8-0.1,3-1.7,1.6C126.1,256.7,128.5,259.6,129.9,260.4z M333.9,547
				c0.4,1.6,1.4,4.3-0.5,1.1C331.4,544,331.2,542.2,333.9,547z M147.7,279.9c-1.5-1.2-1.1,1-4-2.6
				C142.1,273.1,145.8,276.4,147.7,279.9z M225.8,384.9c0.4-0.9,2.3,0.8,3.7,1.7C231.1,391.3,229.7,393,225.8,384.9z M90.4,197.3
				c1.3,4.1,0.8,1.2,2.8,4.1c1.9,4.4-2.2-1.7-1,1.5c4,5.6,3.4,3.1,5.7,5.7c1.2,1.8,6,8.7,3.9,7.4c-1.8-4.1-1.6-1.1-4-5
				c2.7,6.5-2.3-0.5-1.4,2.8c-3.5-4.9-4.6-6-5.7-5.7c0.6,1.8,2.5,3.4,3.2,5.2c-5.2-5.2-6.6-9.8-10.6-18.8c1.5,1.6,2.1,3.4,3.2,5.2
				c-0.6-1.8,2,2.1,1.7,0.7c-1.4-1.6-2.6-3.3-3.6-5c-1.1-3.6,1.6-0.1-1.8-5.5c0.6-0.1,0.4-1.4,3.3,2.7c1,2.3-0.3,1.4,1.1,3.3
				C87.7,195.5,89,196.3,90.4,197.3z M116.8,231.3c-2.1-3.8-0.7-2.8-1-4.5c3.8,6.2,2.6,1.4,4.9,3.6c2.5,6.5,0.9-0.2,4.7,6
				c0.3,2.5-3.1-1.9-3.4-0.4c1.7,6.6,8.9,18.5,5.2,15.5C126.4,247.4,120.9,234.4,116.8,231.3z M335.7,540.2c1.3,2.5,1.7,5.1,3.5,7.6
				c-0.8-3.3-2.7-6.5-4-9.8c1.3,2.3,1.1,1.1,2.3,3.2c3.5,8.2,3.8,10.1,6.9,17.4c-5.1-8.3-4.9-7.6-7.5-10.7
				C335.6,544,334.2,539.3,335.7,540.2z M230.2,384.2c2,4.4,2,5.7,0,3.5C229.6,385.4,230.1,385.1,230.2,384.2z M78.8,187.3
				c0.8,2.2,2.9,4,3.6,6.3C82.1,195.1,76.8,185.9,78.8,187.3z M128.4,244c1,2.9,2,5.9,3,8.8c-1-1.2-0.6,0-2-1.9
				C126.6,246.3,125.8,241.4,128.4,244z M232.7,386.1c1.8,2.5,1.6,1.2,3.3,5.3c-1.5-2.1,0.1,1.7-2.2-2
				C233.5,388.3,233.1,387.2,232.7,386.1z M174.3,302.4c3.7,4.7,3.6,8.3,1.5,5.6C174.1,303.9,176,306.5,174.3,302.4z M96.9,205.3
				c0.4-0.2,3.8,4.1,4.8,7.2C99.7,210.1,97.8,207.8,96.9,205.3z M230.5,379.5c0.3,0.7,0.5,1.5,1.1,2.1c-0.7-2-0.4-2,0.4-1.2
				c1.1,3.5,1.1,4.6-0.7,2.4C230.8,381.4,229.6,378.4,230.5,379.5z M219.5,359.3c-2.5-3.6,0.7,4.1-1.9,0.3
				C216.2,355.9,216.8,353.8,219.5,359.3z M53.5,143.5c2.1,4.7,2.1,1.7,0.1-1.2c2,2.3,3.1,4.8,4.4,7.3c-1.7-0.8,0.2,2.1-2.3,0.7
				C54.1,146.8,53.1,144,53.5,143.5z M348.7,546.4c1.4,3.9-0.6,0.3-1.1,0C346.1,542.5,346.5,542.5,348.7,546.4z M187.8,302
				c1.2,3.2,0.1,2.2-1.9-0.8C184.7,298,185.7,299,187.8,302z M251.8,392.4c2.5,3.2,4.4,9.3,1.4,4.4
				C252.3,393.9,251.3,392.8,251.8,392.4z M193.9,306.7c-1.4-4.6,1.2-3.5,4.6,2.7c-3.9-5.9-1.2,1.3-2,1.5
				C195.3,307.8,195.7,310.6,193.9,306.7z M358.5,551.7c0,1.4,0.1,3-2.3-1.1C355.4,547.8,355.6,545.7,358.5,551.7z M84,155.7
				c-1.4-1.5-3.3-1.6-5.3-5.9C78.2,147.9,82.2,151.9,84,155.7z M134.4,210.4c3.5,5.2,3,2.6,5.5,5.9c1.2,4.1-2.7-1.8,0.4,5.9
				c-2-2.9-1.1-0.2-3.5-4C135.8,214.3,136.1,215.4,134.4,210.4z M238.9,353.9c2.3,3.1,4.2,6.3,4.9,9.7c-1-0.8-3.9-6.4-4.3-5.2
				C237.5,353.2,240.3,357.9,238.9,353.9z M105,159.9c1.1,3.9,1.9,7.2,0.3,5.9C104.2,162,102,156.1,105,159.9z M174.2,254
				c1.1,3.3,0.1,2.2-2-0.8C171.1,250,172.2,251,174.2,254z M147.2,214.7c0.9,3.5,1.1,5.6-1.8,1.6
				C144.6,212.9,146.2,214.5,147.2,214.7z M162.6,232.8c3.3,4,1.4-2.1,3.4-0.7c3.2,7.9,0.3,5-0.9,6.1c0.6,1.6,1.9,3.9-0.1,1.2
				C163.9,237.2,163.1,235,162.6,232.8z M218.5,307.1c1.2,4.7,0,4.4-1.4,3.7C215.7,305.7,217.2,306.6,218.5,307.1z M105.2,149.1
				c0.7,2.8-0.3,2.1-0.7,2.6c-1.4-3.7-3.8-7.1-5.1-10.7C101.9,143.5,102.9,146.4,105.2,149.1z M103.8,154.2
				c-3.2-5.3-2.5-2.7-5.2-5.9c1-1.5-3.8-13.5,1.5-5.2C99.6,145.2,102.1,149.6,103.8,154.2z M110.4,158.6c-2.7-4.3-1.3,2-4-3.8
				c0.8-0.3,0.8-2,4.2,2.6c0.5,1.9,1.5,3.6,3,5.3c0.7,2.9,0.2,3.8-1.2,2.7C111.6,163.1,113,162.6,110.4,158.6z M157.6,217.2
				c-1.7-2.1-0.3,2-2.8-1.8C153.5,211.8,156.2,213.9,157.6,217.2z M155,217.7c-0.6-2.6-3.2-4.9-3.6-7.6
				C153.3,211.9,156.6,219.2,155,217.7z M170.1,237.1c-1.4-4-0.2-2.9-0.4-4.6c2.8,4.5,2.8,3.1,3.8,4c0.2,2.3,0.6,2.4,1.9,6.7
				c-2.4-4.1-3.6-5.7-2-0.8C172.2,240.7,171.1,238.9,170.1,237.1z M277.1,390.5c1.7,4.9,0,2.9,2.3,7.8c-0.5-0.7-0.9-1.4-1.4-2.1
				c0.2,0.6,0.3,1.1-0.4,0C275.6,391,274.9,387.6,277.1,390.5z M367.2,545.2c1.1,1.6,0.2-1.1,2.1,3.3
				C370.9,553.1,368.3,548.6,367.2,545.2z M109.8,152.8c-0.5,0.6-1.7-0.3-3.7-2.7C103.6,144.3,109,150.9,109.8,152.8z M255.9,353.9
				c0.5,2.8-0.2,2.9-2.2,0.3C253.2,351.4,254,351.3,255.9,353.9z M122.5,158.1c-1.2-1.3,0.6,1.7,0.9,3.4c-1.4-0.7-4.7-7-3.3-1.6
				c1.8,3.7,2.7,2.3,4.5,7.3c-0.8,0.3-2.4-1.5-5.1-6C117.6,154.9,118.7,151.6,122.5,158.1z M231.9,315.5c1.6,1.4-0.6-5.1,3,0.7
				c1.3,4.4-0.2,2.7,0.4,5.7C233.8,319.8,232.6,317.7,231.9,315.5z M169.4,221.9c0.6,0.3,1.6,1.3,3.4,4.1
				C174.7,231.1,170.4,225.4,169.4,221.9z M126.4,158.4c0.4,1.5,1,3,1.7,4.4c-0.6-0.2-1.7-1.3-3.5-4
				C123.9,156.1,124.5,156,126.4,158.4z M174.7,223.3c-0.5,0.5,2.3,7.5-0.3,3.6C173.4,223.4,173.5,222.1,174.7,223.3z M189.7,240.5
				c1.7,5.4-1.6-0.8,1.1,5.7c-1.2-1.7-2.3-3.5-3.2-5.3C186.4,236.6,187.1,236.5,189.7,240.5z M184.1,239.2c3,4.4-0.4-4.6,3.6,1.7
				C189.9,247.3,186.8,244.7,184.1,239.2z M136.1,170.7c2.2,5.7-0.9,0.9-2.9-1.8C132,165.1,135,169.9,136.1,170.7z M179.8,227
				c1.5,4.5-0.5,1.5-0.7,2.5C176.7,224.5,177.4,223.3,179.8,227z M178.2,217.9c1.1,4.8,0.8,5.2,3.5,11.2c-0.7,0.2-2.3-3.5-4-6.3
				c-1.3-4-0.1-2.9-0.4-4.6c-0.8-1.1-1.1-0.4-2.2-3.1c0.1-2.7,2.7,1.3,5.4,4.9c0.6,1.8,1.6,3.6,1.9,5.5
				C180.4,222.9,179.8,220.3,178.2,217.9z M187.1,229.2c0.6,4.5-1.1,4.2-3.2,3C179.2,221.9,184,226,187.1,229.2z M118.8,137.5
				c-0.2,2.2-2.7-0.1-4-0.3C114.7,134.6,115.3,133.1,118.8,137.5z M141.6,168.3c1.3,2.9,3.9,8.4,1.5,5.6
				C142.5,172.6,140,166.2,141.6,168.3z M127.9,143.8c2.5,2.3,1.6,5.2,3.5,7.6c1.7,2.1-1-4.7,1.8-0.4c1.2,5.3-1,3.4-2.6,3
				C128.5,149.2,130.8,151,127.9,143.8z M195,241.9c-1.8-7,4.4,2.8,6.9,9.4C199.2,247.1,198.3,244.9,195,241.9z M188.5,227.8
				c0.5,1.9,1,3.7,1.5,5.6c-0.9-1.4-2-2.8-2.5-4.3C189.6,232.2,185.2,221.8,188.5,227.8z M155,177.4c1.9,2.4,2.5,5,3.4,7.6
				c-0.9-1.3-0.6,0-1.9-2C156,181.1,155.5,179.3,155,177.4z M139.1,153.3c2.4,3.9,4.3,7.8,5.5,11.9
				C141.7,161.6,138.5,154,139.1,153.3z M181.8,216c-1.7-5.1,2.2,0.7,3.8,4C186.9,225.3,184.3,219.1,181.8,216z M142.5,151.4
				c1.3,1.9,2.3,3,2.7,3c0.2,2.9-2.2-1.5,0.6,5.9c-3.6-6.7-1.7-1-4.7-5C140.1,151,143.6,156,142.5,151.4z M154,160.9
				c-5-7.2-2.9,3.3-7.4-4.4C148.2,156.7,148.6,149.1,154,160.9z M152.7,161.2c0.6,2.3,2.4,4.3,2.7,6.6c-0.9-1-1-0.4-2.7-3
				C152.9,163,150.7,159.4,152.7,161.2z M159.1,156.4c2.5,4.1,0.6-1.1,3.1,3c0.4,2.3,0.5,3.8-0.8,2.5
				C160.8,160,159.7,158.2,159.1,156.4z M211.8,225.1c-0.5,0.6-0.4,6-3.8-2.9C210.7,226.7,209.7,220.4,211.8,225.1z M281.8,337.2
				c2.1,2.9,4,9.9,2.1,6.7C283.4,341.7,282,339.5,281.8,337.2z M208.7,219.7c0.9,3.3-0.8,0.7-2-0.9c-0.3-2.1-3.7-9.4-2.3-7.8
				C205.5,213.9,207.3,216.8,208.7,219.7z M205,209.7c2.5,2.9,5,10.9,2.8,7.8C206.6,214.9,205.2,212.4,205,209.7z M172.8,159.8
				c3.5,6.1,0.5-2.2,3.5,2.9c0.5,3.9-0.8,3.7-1.9,3.9C173.8,164.3,173.3,162,172.8,159.8z M201.1,200.9l1.1,4.5l-2.1-3.2
				C198.5,197.7,200.3,200.4,201.1,200.9z M214.6,222.3c-1.4-5.7,2.6,3.5,4.1,4.1C218.8,228.3,216.6,226.6,214.6,222.3z
				 M219.8,227.4c0.9,1.4,1.8,2.9,2.8,4.3c1.3,4,0.4,5.7-1.7,0.2C222.6,234.4,220.2,228.4,219.8,227.4z M286.8,334.5
				c-0.1,0.8-1.7-1.9-2.7-3.2c2-1.7,4.2-3.1,8.8,1.6c2.6,8.2-3.1-3.8-1.3,2.4c1.6,2.6,1.5,1.3,2.8,5.5c-0.8,0.1-2.4-4.7-4.5-7.7
				c1.5,5.7-2.8-2.8-1.1,3.5c0.9,0.9,0.9-0.4,3.3,4.3c0.9,3.2-0.6,0.4,0.7,4.6c-1.3-1.6-3.4-8.7-3.5-6.6c0.5,2.6,2.7,5.1,3,7.8
				c-0.1,0.8-0.9-0.3-2-2.1C289.1,341.2,288.5,337.8,286.8,334.5z M207.9,206.9c3.7,6,2.4,0.6,5,4c1.4,4.5,3.7,8.1,3.3,10.1
				c-2.3-2.8-2.8-5.8-4.3-8.7c-0.1,1.4-1.3,0.1-0.5,3.6C209.2,213,208.5,209.9,207.9,206.9z M179.4,162.1c0.9,3.7,2.2,8.5-0.3,4.8
				C179.1,165,177.1,158.7,179.4,162.1z M234.8,248.7c0.4,1.5,0.7,3,1.1,4.5c-0.7-1.1-1.4-2.2-2-3.2
				C233,246.8,232.9,245.5,234.8,248.7z M229.8,221.3c0-1,0.4-0.9,1.5,0.9c0.9,6-5.8-7.8-7.4-9.5c0.4,1.9,0.9,3.8,1.3,5.7
				c-4.5-6.4-5.6-4.9-6.3-2.6c2.2,5.4,3.4,9.8,3.5,11.2c-3.8-8.5,0.5,3.1-2.7-2c-1.2-6.1-1.6-9.7-4-17c5.6,9.6,3.4-1.7,4.7-3
				c0.7,2.3,0.5,4.6,2,6.8c-0.6-3.3,0.7-2.2,0-5.9c-0.8-1.1-1.1-0.4-2.1-3.2c2.4,3.6,1.2-4,4.2,2.9c-2.3-2.8-0.3,5.9,3,11.3
				c-3.3-8.1,1.4-4,3-0.4C229.6,216.4,225.9,213.5,229.8,221.3z M226,210.1c-1.1-2.5-1.4-5.6-0.8-5.8c1.1,3.6,1.4,0.8,3.1,4.3
				C229,212.7,227.3,210.8,226,210.1z M180.4,164.3c0.5-1.7,1.9-1.1,3.9,0.5C184.2,167.2,183.5,170.4,180.4,164.3z M206.6,201.3
				c-1-1.2,0.2,2.7-2.3-2C202.1,193.5,205.7,198.3,206.6,201.3z M212.1,203.9c0.8,3.2-0.1,5-2.4-0.8
				C211.1,204.8,210.7,202.2,212.1,203.9z M185.9,163.4c1.4,3.3,1.4,6-0.8,2.5C183.9,161.8,184.8,162.5,185.9,163.4z M296.3,336.1
				c1.9,5-0.8,0.9,2.2,7.9C296.4,340.9,294.4,332.8,296.3,336.1z M297.9,334.8c2,4.9,0.4,3.5,2.1,9c-0.6-1.1-1.3-2.2-1.9-3.3
				C297.3,336.8,295.9,331.5,297.9,334.8z M218.5,204.2c-0.2,1,0,5.3-2.4-0.8C217.2,204.5,216.4,201.1,218.5,204.2z M199.6,170.6
				c0.9,3.3,0.8,4.5-1.1,1.4C197.7,168.7,197.7,167.4,199.6,170.6z M232.4,215.2c0.8,0.4,0.9-0.6,1.7-0.2c0.9,3.9,2.6,8.2,1,6.8
				C234.6,219.5,232.7,217.4,232.4,215.2z M241,224.6c1.2,2,2,3.1,2.4,3.2c0.2,0.8,0.3,1.5,0.5,2.3c0.4,0.7,0.8,1.5,0.9,2.2
				c-3.2-4.9,1.7,4.8,1.9,6.8c-1.2-1.6-0.5,1.3-2.8-3.1C243.3,232.1,241.8,228.4,241,224.6z M230.2,204.9c1,1.8,2.4,3.6,2.9,5.5
				c-1.9-1.9-0.2,4.7-3.9-1.9C228.8,204.9,231.5,209.7,230.2,204.9z M410.3,538.9c1.5,3.1,2.2,6.1,2.9,9.1c-0.7-1.6-1-2-1.3-2.3
				C410.8,542.6,409.9,538.7,410.3,538.9z M305,330.9c-0.3-2.4,0.7-1.4,2.7,2.1c1,4.1,4.2,12.6,1.3,7.9
				C307.9,336.4,306.9,332.6,305,330.9z M247.2,227.4c-0.8,0.2-2.5-3.6-3.6-6.6c0.7,5.5-2.9,3.5-7.2-5c3.9,4.8,4.7,1.5,4.2-2.9
				c0.9,3,2.4,5.9,4,8.9c-1.9-4.8-2-5.2-1.2-5.7c1.2,1.8,1.6,3.7,2.4,5.5c-2-6.1-0.3-2,0.4-2.4c-2.5-4.5-1.6-5.7,0.4-2.4
				c1.6,3.8,0.2,2.9,1.6,8C246.5,223.8,245,220.6,247.2,227.4z M190.9,134.2c3.1,4.4-0.5-6.4,0-7.1c3.4,5.5,1.6,5,3.7,11.2
				c-2.3-4.4-0.7,0.7-0.4,2.4C192.6,138.6,191.5,136.5,190.9,134.2z M238.7,207.4c1.7,1.9,2.7,1.8,4.1,3c0.3,2.4,0.2,3.7-0.6,3.6
				C241.9,212.2,240.2,213.4,238.7,207.4z M206.6,150.7c1.2,2.9,2.6,8.7,0.7,5.8C207.3,155.1,205.1,148.4,206.6,150.7z M196,128.7
				c1.2,4.3-0.5,1.5,0.7,5.8c1.7,2.6,1.7,1.2,3,5.4c-1.3-1.3-2.2,1.3-4.9-5.2C194.4,131.3,193,125.2,196,128.7z M248.3,217.9
				c2.5,5.3,0.6-3.3,2.8,3.2C251,222.4,250.4,224.8,248.3,217.9z M227.2,177.2c-0.2,1.8-1.4,1.2-1.8,2.6
				C224.2,176.7,224.9,171.7,227.2,177.2z M202,137.2c0.3,1.5,0.8,3,1.4,4.5c-1.5-2.1-2.7-0.6-4.4-5.3
				C201.2,139.6,199.2,132.5,202,137.2z M256.4,214.7c0,3.5-2.1,3.7-3.4,5c1.3,2.6,2.9,5.1,3.3,7.8c-4-9.4-1.8-2.2-4.8-6.5
				c-1-4.5-0.4-4.6-3.8-12.4C254,220.8,252.4,210.2,256.4,214.7z M418.7,538.7c-1-1.8,0.8,5-1.4-0.2
				C417.1,536.8,417,533.3,418.7,538.7z M317.9,329.1c1.7,3.6,2.1,3.6,1.1-0.1c3.2,6.9,4.4,15.1,1.9,11.4
				C320.2,335.6,320,335.3,317.9,329.1z M207.6,138.8c-0.3,2.8-2.9,0.2-4.2,0.6c-0.2-1.2-0.5-2.3-0.7-3.4
				C205.1,138.7,205.2,136,207.6,138.8z M274.2,251.3c-1-0.3-2,2-4.6-4.2C271.5,249.8,271,243.5,274.2,251.3z M263.5,229.1
				c3,4.8,2.5,0.4,5.1,4.2c0.8,5.3-2.6,2.7-4.4-0.8C265.1,234,264.1,230.8,263.5,229.1z M208.5,136.3c0.4,1.9,2,3.6,2.5,5.5
				c-1.5-2.2-0.5,2-2.7-2C207.6,136.8,207,134.1,208.5,136.3z M214.2,139c1,4.6,0.1,4.2-1.4,2.6C213.1,140.3,212.4,136.5,214.2,139z
				 M258.1,214.5c-0.8-5.3,1.6,0.2,4.5,5.4c0.3,1.9,0.8,3.8,1.5,5.6c-0.4-0.7-0.8-1.4-1.3-2.2C261.1,217.9,259.7,216,258.1,214.5z
				 M205.7,123.7c1.8,1.2,1-4,4.6,1.7c-0.8,1.2,2.5,8.5,1.7,9.2c-2.2-2.2-4.1-10.3-4.5-8.8c0.7,2.7,2.3,5.2,2.4,7.9
				C207.9,130.5,206.9,127.1,205.7,123.7z M217.4,138.6c0.8,2.3,1.5,4.5,1.7,6.8c-2.7-5.3-1.4-0.3-3.6-4.2c-0.1-0.8-0.3-1.5-0.4-2.3
				C217.6,143.1,215.9,137.6,217.4,138.6z M266.2,216.1c-1.1-0.1,0.3,10.9-3.4,0.3C265.7,221.1,263,210.9,266.2,216.1z M279.2,233.5
				c0.3,2.3,0.3,3.8-0.8,2.4C277.1,232.6,277.2,229.9,279.2,233.5z M274.8,221.1c-2.2-2.4-2.2,6.6-6.5-5.2
				C271.8,221.5,271.7,214.5,274.8,221.1z M292.4,248.8c0.9,4.1,0.1,3.3-0.8,2.4C290.3,247.5,290.9,246.4,292.4,248.8z M284.8,231.9
				c4.6,9.5,3,1.5,5.6,5.4c1.8,7.1-2.5,1.5-4,1.4C286.2,236.4,284.9,234.2,284.8,231.9z M283.6,227.4c3.4,6-1.7-8.6,1.5-3.6
				c0.3,4,0.4,2.8,1.8,8C286.4,232.2,285.3,233.7,283.6,227.4z M291.5,229.2c1,4.6,0.5,5-0.7,3.5
				C289.4,228.5,288.8,223.4,291.5,229.2z M246.3,145.7c1.5,6.1-0.6,2.7-1.4,2.5C245.2,146.9,244.6,143.1,246.3,145.7z M244.2,141.2
				c0.8,3.5-1.2,2.6-2.7-2.1C243.2,141.9,241.4,135.4,244.2,141.2z M252.2,153.2c0.4,2.3,2.3,4.4,2.9,6.7c0.7,3.3,0.6,4.6-1.2,1.3
				C253.9,159.2,250.3,151.7,252.2,153.2z M243.3,129.6c0.6,1.8,1,5.7,3,10.3c-0.3-2.4,1.2,0.3,2.8,3.2c0,3.2,1.3,10.1-1.3,6
				C247.5,143.4,239.2,124.6,243.3,129.6z M305.9,248c1.4,5-0.6,3.3-1.8-1.1C305.1,248.6,303.8,243.4,305.9,248z M252.9,146.1
				c0.6,3.3,0.5,4.5-1.2,1.3C251,144.1,251.1,142.9,252.9,146.1z M294.8,223.2c0.6-1.1,1.9-2.9,4.3,3.2c-0.5-3.8,3,2.3,0.3-5.8
				c0.8,1.5,1.6,3,2.4,4.5c0.9,4.3-0.6,1.4,0.9,5.8c-2.2-2.8-2.8-2.8-0.5,4.7c-1.7-2.2-1.7-4.5-2.8-6.8c0.3,1.9,0.6,3.8,0.9,5.8
				C297.1,228,296.9,224.5,294.8,223.2z M304.6,229.5c3.4,6.7,2.6,11.8,0.2,6.9c-0.4-1.9-1.3-3.8-1.7-5.7
				C304.2,229.9,306.9,238.9,304.6,229.5z M304.2,221.5c2.4,4.1,2.8,8.4,3.6,12.6c-0.9-1.7,0,2-1.4-1.1
				C304.6,225.3,306.5,229.9,304.2,221.5z M318.1,247.5c0.1,2.2,0.4,4.9-1.5,1.2C315.9,244.7,316.5,244.5,318.1,247.5z M447.3,523.3
				c-0.3-2.3,0.1-4.5,1.5,1.4c-1.1-2.9-0.4,1.4,0.4,4.5C448.5,527.2,447.8,525.2,447.3,523.3z M323.3,228.8
				c3.3,6.7,2.9,15.4-0.1,5.8C325.1,237.5,322.5,229.7,323.3,228.8z M448.8,521.4c0.1-2.2,0.5-6.2,3,2.8c-1.8-3.6,1.1,5.8,1.6,9.2
				c-1.6-4.4-2.5-8.6-3.6-12.9C450.8,526,450.5,528,448.8,521.4z M452.7,521.1c-0.6-1.1-0.1,2.2-1.1-0.2
				C449.7,513.5,451.7,515.4,452.7,521.1z M293.6,136c0.1,2.8-0.6,2.9-2.3,0.1C290.4,130.9,292,133.5,293.6,136z M295.5,128.9
				c-2.2-9,1-0.3,1.9-0.1c-2.5-6-2.6-10.4-3.3-13.8c2.7,4.9,1.7,10,4.3,15c-0.3-1.9-1.1-3.8-1.1-5.8c0.3-0.1,3,3.8,3.5,6.8
				c-2.5-3.9-0.8,17.7-5.1,0.2c-1,0-1.4,5.3-3.9-2.1C291,124.6,293.2,123.1,295.5,128.9z M293.4,117.3c0.1,4.2-1.3,3.6-2.4,3.6
				C291.1,117.5,291.1,113.6,293.4,117.3z M457.1,504.1c1.3,3.1,0.2-7.1,2.3,1.6C458.6,505,459.3,513.1,457.1,504.1z M296.2,112.5
				c0.9,1.9,2.1,3.8,2.4,5.7c-2.2-3.5-2.4-2.3-1.1,3.5C294.9,115.3,296,114.7,296.2,112.5z M304.5,125c1.8,4.4,0.3-2.6,2.6,3.4
				C307.2,131,305.2,129.7,304.5,125z M295,99.8c1.3,2.3,2.2,4.6,2.5,6.9c-0.7-1.2-1.7-3.4-1.6-2.3c0,0.7,0.2,2.3-0.4,1.2
				C295.4,103.6,295.2,101.7,295,99.8z M463.3,503.3c0.3,1.9,0.8,3.9,0.9,5.8c-1.3-4.8-1-1.9-1.7-3.7
				C462.1,501.9,462,499.3,463.3,503.3z M312.1,122.4c0.5,2.3,1.8,2.5,2.1,3.4c-0.3-1.9-1.1-3.9-1.4-5.8c0.9-1,3.1,5.3,3.7,10.4
				c-1.5-1-2.3,0.5-4.3-2.2C312.3,125.6,311.7,122.4,312.1,122.4z M467.7,513.2c-0.5-1.6-1-3.2-1.5-4.8
				C465.4,503,467.6,509.7,467.7,513.2z M319.4,126.8c0.2-1.9,0.6-2.8,2.4,1.1c0.4,3.9-0.5,3.1-1.7,1.2
				C320,128.3,319.9,127.5,319.4,126.8z M469.7,495.8c0.7,1.8,0.7,0.6,1.6,3.7c0.1,1.4,1.8,8.4,0.8,5.8c-0.3-3-1.2-5.9-1.1-3.7
				c0.6,2.4,1.1,4.8,1.4,7.1c-0.7-2.4-0.2,1.6-1.3-2.6C471.1,502.8,469.7,499.1,469.7,495.8z M323.2,115.1c1.6,2.3,2.7-2.3,4.4,3.4
				c-1.1-1.7-1.1,1.2-1.8,1.2c1.1,2.5,1.1,1.3,2.1,3.5c-0.1,2.1-0.7,3.6,0.6,8.1C326.6,125.9,324.8,120.5,323.2,115.1z M472.4,496.4
				c0.3,2.7,1,5.5,1.2,8.1C472.6,501.2,471.1,492.8,472.4,496.4z M329.6,120.8c2.5,5,3.7,10,4.7,15.1c-0.7-1.6-1.1-2-1.5-2.3
				C332.2,129.3,329.6,125,329.6,120.8z M474.7,502.6c0.4,3.3,0.3,4.5-0.7,0.9C473.7,500.2,473.8,499.1,474.7,502.6z M331.7,117.2
				c-0.9,1.3-1.6,3.2-3.7,0c1-1.3,0.7-3.5,1.6-3.5c0.2,1.1,0.5,2.3,1.2,3.5C330.8,116,330.8,114.8,331.7,117.2z M334.8,121.8
				c0.2,1.9,1.3,3.9,1.7,5.8c0,5-1.5,4-3.6,1.2c-0.1-3.1-1.5-6.2-1.5-9.3C332.9,121.5,333.3,119.5,334.8,121.8z M476.5,495.2
				c0.2,3.4,0.5,6.9,1.3,10.4c-1-3.2-0.7,0.4-1.4-1.5c-0.7-7.5-1.3-4.7-1.8-9.4C476.1,499.3,475.5,493,476.5,495.2z M333.1,109
				c1,1.9,1.3,3.9,2.2,5.8c-0.1-1.2-0.5-2.3-0.7-3.5c1.7,2.7,1.8,5.4,1.9,8.1c-0.6-1.2-1.5-3.5-1.5-2.3c0.6,1.5,0.7,3.1,0.8,4.7
				c-0.5-1.2-1.1-2.3-1.6-3.5C334,113.2,334.2,114.7,333.1,109z M340.5,125.3c0-2.9,1.6,0.2,2.3,0
				C343.5,131,342.4,132.2,340.5,125.3z M343.3,116c0.5-0.9,0.5-3.7,1.8-1.2c0.8,5.6-0.9,1.3-1.3,2.3c0.4,1.2,1,2.3,1.1,3.5
				C344.2,119.1,343.7,117.5,343.3,116z M350.6,124.2c-1.4-2.5-1.1,1.9-2.9-2.4C347.6,118.7,349.4,118.5,350.6,124.2z M350.7,126.5
				c0.4,0.7,0.6,0.4,0.4-1.2c1.2,2.3,2,4.7,2.2,7c-0.7-1.4-0.8-0.1-1.4-1.2C351.8,129.6,350.9,128,350.7,126.5z M356.3,127.7
				c0.2,5.7-1.2,5.1-3.1,2.3C353.2,124.8,355.6,130,356.3,127.7z M353.9,114.8c1.5,8.2-0.2,7.1-1.6,5.8
				C352.1,115.5,352.2,111.7,353.9,114.8z M363.3,130.1c0.7,2,1,3.9,2,5.9c0,4.4-0.4,6.7-2.7,1.1C363.7,136.6,364,133.3,363.3,130.1
				z M372.9,112.9c0.2,3.3,0.8,0.4,1.9,4.7c0.4,3.7-2-0.1-2.4-3.6C373.4,116,372.1,111.5,372.9,112.9z M465.8,104.3
				c0.8,1.9,1.3,0.6,2.4,5c-0.3,5.4-1.2,6-2,6.8c-0.4-1.2-0.7-2.5-1.1-3.7C466.1,109.9,466,110.9,465.8,104.3z M474,111.3
				c-1.6-5.9-1.9,4-2.7-6.3C472.2,107.9,473.6,104.9,474,111.3z M560.9,474.3c-1.1,8.1,1.2,2.8,0,14.4c-0.4-5.4-0.3-5.7-0.8-6.4
				C560.2,479,560.4,470.5,560.9,474.3z M559.7,488.2c-0.2-1.3-0.3-3.8-0.5-2.6c-0.2,2.5,0.1,11.1-0.4,9.4c-0.1-2.8,0.2-5.5-0.2-8.5
				c0.6-0.9,0.5-11,1.2-11.4C560,479.5,560.2,484,559.7,488.2z M495.5,102.9c0.4-3.3,1.3-1.5,2-0.8c0.3,4.1-0.8,2.8-1,8.1
				C495.5,107.7,496.2,105.4,495.5,102.9z M562.8,474c0.3,4.2,0.1,8,0.2,12.1c-0.3-2.6-0.7,4.7-1-0.4
				C562.4,479.6,562.4,480.5,562.8,474z M500.6,107.3c-1.3-2.5-0.4,5.6-1.7,2.1C498.5,106.7,500.3,99.4,500.6,107.3z M563.2,475.3
				c0.3-2.7,0.5-2.6,0.7,0.3c-0.2,2.9-0.3,5-0.5,4.6C563.5,478.7,563.3,477,563.2,475.3z M567.3,84.9c-0.8-4-1.8,3.5-2.6,0.5
				C565.6,79.2,567.5,78.7,567.3,84.9z M571.1,83.4c-1.2-0.7-2.4,2-3.5-2.1C568.9,76.8,570.1,76.8,571.1,83.4z M572.9,77.9
				c-0.3,1.5-0.7,3-1,4.6c-0.2-1.3-0.4-2.5-0.6-3.8C571.9,73.9,572.3,77,572.9,77.9z M626.3,285c0.1,4.2-0.7,8-1.7,11.8
				c-1.1,2.8-2.3,2.1-4.1,6.9c0-1.7-0.2-3.4,0.2-4.9C622.2,293.1,624.5,288.4,626.3,285z M631.1,285.9c0,2.5-0.1,5-0.5,7.3
				c-1.3,0.8-2.9,4.5-3.9,3.2C628.2,292.1,629.5,290.2,631.1,285.9z M617,63.8c-0.5,4.7-2.6,9.1-3.4,6.3
				C615.1,63.9,616,64.9,617,63.8z M637.7,276.3c-2.3,5.8-3.9,7.8-5.8,17.5c0-1.7-0.1-3.4-0.1-5.1
				C633.1,286.6,636.2,271.1,637.7,276.3z M637.2,30.8c0.6-2,1.2-3.2,1.6-3.2c0.7,6-1.9,10.9-0.7,17c-1,0.7-2.4,6.1-2.8,0.4
				C636.9,45.7,638.1,37.7,637.2,30.8z M649.9,284.7c0,3.4-1,6.3-1.4,9.5c-0.1-2-1,0.9-0.6-4.1C648.7,287.5,648.8,289,649.9,284.7z
				 M656.5,185c0.4,1.6,1.9-6.6,2.6-9c0.5,2.7-0.5,4.8-0.6,7.3c0.3-0.6,0.5-0.2,0.4,1.5c-1.2,0.9-1.9-0.5-2.6,7.7
				C655.8,192.4,656,188.2,656.5,185z M663.1,68.4c-0.1-3.7-1.6,3.3-1.5-1.8C662.7,61.5,664,63.9,663.1,68.4z M669.6,70.9
				c-1.7,3.4-3.3,6.5-4,2.2C666.8,73.1,669,66.4,669.6,70.9z M673.9,75.1c-1,2.1-1.9,4.3-1.8-0.7C673.1,71.7,673.7,71.9,673.9,75.1z
				 M676.9,51.1c0.1,4,0.3,4.1,1,0.4c0.5,4.3-2.3,8.5-2.1,4.2C676.3,54.2,676.6,52.7,676.9,51.1z M710.6,109.8
				c-0.9,4.3-2.5,6.7-3.1,6.2C708.1,112.8,710.6,106.1,710.6,109.8z"/>
			<path class="st6" d="M171.6,133.9c0.7,2.2,1.1,0.9,1.7,3.3c-2.1-11.1,4-3.4,4.3-9c-3.9-3.7-5.7-2.4-7.5-1.1
				c0.4,1.5,1.5,2.9,2.4,4.3C172,131.9,172.6,134.7,171.6,133.9z"/>
			<path class="st6" d="M248,542.9c2.2,2.5-0.3-2.3,0.3-2.3C247.4,540.2,245.8,538.5,248,542.9z"/>
			<path class="st6" d="M261.1,513.3c0.6,1.8,1.7,3.5,2.5,5.3c0.9,1.1-0.5-1.8-1-3.2c0.8,1.4,1.7,2.7,2.7,4.1
				C263.5,515.4,262.8,515.4,261.1,513.3z"/>
			<path class="st6" d="M144.2,367.5c0,1.4,1.6,0.4,4.9,5.9c-1.1-2.5-2.8-4.8-4.2-7.2C142.1,363.2,147,370.4,144.2,367.5z"/>
			<path class="st6" d="M193.8,426.1c0.8,2.1,2.1,4.2,3.7,6.2c-1.6-2.7-1.8-3.8-1-3.3C195.2,426.2,194.9,427.6,193.8,426.1z"/>
			<path class="st6" d="M176.7,401.9c-1.1-1.7-1.8-3.5-3.3-5.1c0.8,2.2,1.8,4.3,3,6.3c1.5,1.7-0.9-2.9,1.1-0.3
				C176.9,401.5,176.5,401.3,176.7,401.9z"/>
			<path class="st6" d="M286.5,543.5c3.2,4.7-1.1-2.7-1.8-4.3c-1-2.5,1.9,3.2,3,4.1c-2.7-6.3-1-4.9,1.2-2.4c-1-2.1-2.2-4.2-3.2-6.3
				c1.2,3.4,0.4,4.6-2.6,1.5C285.4,540.9,284.5,539.9,286.5,543.5z"/>
			<path class="st6" d="M160,377.7c1.4-2.1,3.8-0.9,2.2-7.7c-1.5-1.9-1.3-0.7-2.4-3c-2-1.7,0.5,1.7,0.5,3.4c-3-5.3-3.4-0.3-5.2-4.6
				C152.4,362.1,157.2,372.5,160,377.7z"/>
			<path class="st6" d="M313.7,577.2c2.7,4,4,3.3,3.6,0.8C316.3,578,314.8,577.2,313.7,577.2z"/>
			<path class="st6" d="M26.7,215.4c2.4,3.7,0.4,2,2.6,6.5c2.7,1.6,0.3-2,0-3.7C28.3,216.2,28.3,217.4,26.7,215.4z"/>
			<path class="st6" d="M164.8,376.5c0-1.3,2.2,1.1,0.2-3.6C161.5,368.3,164.9,375.3,164.8,376.5z"/>
			<path class="st6" d="M280.8,521.7c0.5,1.8,2,3.5,2.8,5.3c1.4,1.8,0.3-0.8,0.5-1.2C282.6,522.6,284.2,527.4,280.8,521.7z"/>
			<path class="st6" d="M82.5,262.4c-0.4-1.1-1.3-2-2.1-3c-1.3-3,0.6-0.6-1.2-4.5c-1.7-1.2-3.8-2.9-1.3,2.8
				C80.1,259.8,78.7,257,82.5,262.4z"/>
			<path class="st6" d="M141,316c-0.6-3.1,2.2,2,3.2,1.6c-2.4-5-2.5-5-4-8.5C140.9,312.1,138.9,312.1,141,316z"/>
			<path class="st6" d="M306.7,535.6c-2.3-3.9-0.2-1.9-2.8-6.4c-2-3.1,1,3.4-1.6-1c2.5,4.4,2.8,6.6,6.7,12.8c-0.7-2.2-1-3.6,0.1-2.2
				C307.9,535.9,307.7,537.2,306.7,535.6z"/>
			<path class="st6" d="M311.6,539.6c2.5,3.4-1-4.7,3.2,2c-1.6-4.1-1.9-2.8-2.9-5.3C311.9,537.6,310.9,537,311.6,539.6z"/>
			<path class="st6" d="M312,534c-1.2-1.8-2-3.5-3.2-5.3c0.6,2.9-0.7,2.1-3.1-0.8c4.8,8.9,2.5,1.6,7.2,9.4c-2.4-5.5,0-2.1,2.6,2
				c0-1.7-1.3-4.3-2.2-7.6c-0.8-1-1.2-1-2-2c0.5,1.8,1.9,3.6,2.6,5.3c0.2,0.7-0.3,0,0.1,1.1c-1.3-2.1-1.9-4.3-3.6-6.4
				C310.1,530.1,310.5,531.2,312,534z"/>
			<path class="st6" d="M37.2,143.4c0.6,1.4,1,1.6,0.8,1c1.2,1.3,2.3,2.5,2.9,4c1,1-0.2-2-0.6-3.5C38.7,143.6,38.3,144.2,37.2,143.4
				z"/>
			<path class="st6" d="M75.5,165.2c1.1,2.8,7.5,7.3,5.3,1c-0.9-0.8-0.2,3.4-2.5-1.8C76,162.2,79.5,170.4,75.5,165.2z"/>
			<path class="st6" d="M95.8,177.9c2,1.7,6.6,9.4,5,3.5c-4.8-8.3-3.2-0.7-8-10C92.9,173.8,95.6,175.5,95.8,177.9z"/>
			<path class="st6" d="M219.4,327.9c1.8,4.4,1.6,1.5,2.6,3.1c-0.4-1.7-2.1-4.7-1-3.3c-0.1-0.7-0.6-1.5-1.1-2.2
				c-0.5-0.7-1-1.4-1.4-2.1c1,1.5,3,8.1,1,3.3C218.5,325.5,220.7,329.6,219.4,327.9z"/>
			<path class="st6" d="M126.2,181.2c2,4,3.3,2.3,4.9,3.7c3,6.4,7.1,10.5,8.7,12.3c-3.1-6-6.8-12-10.4-17.9
				c5.3,10.8-2.2-1.3-3.5-0.4C127.3,181.7,127.6,182.7,126.2,181.2z"/>
			<path class="st6" d="M143.8,199.9c2.5,4.3,3.7,1.9,5.7,3.5c-1.3-4.1-2.5-1.5-4.1-6.3C145.7,198.7,146.5,203,143.8,199.9z"/>
			<path class="st6" d="M132.9,183.3c0.5,3,2,3.8,1.5,2c1.3,1.7,2.2,3.5,2.9,5.3c0.9,0.9,0.6-0.4,1.7,0.8c-1.3-1.7-5.2-8.8-1-3.4
				c-0.7-1.9-2.2-3.5-3.4-5.2C135.4,185.6,134.8,185.7,132.9,183.3z"/>
			<path class="st6" d="M147,186.2c-0.9-0.9-0.6,0.4-1.6-0.8c0.4,2.7,2.7,5,3.1,7.7C148.9,192.5,147.6,189.8,147,186.2z"/>
			<path class="st6" d="M133.8,136.6c1.8,4,0.3,1.4,1.2,4.5c2.1,2.3,1.9,5.2,4.3,7.4c-0.3-1.1-0.6-2.3-0.9-3.4
				c-1.8-2.8-3.7-5.8-1.6-4.4C135.9,137.5,135.9,140.4,133.8,136.6z"/>
			<path class="st6" d="M186.4,209.3c-1.2-1.2,1.2,2.9,0.7,1.1c1.2,2.2,2,4.4,2.6,6.6c1.3,1.2-1.4-6.7-3.2-8.9
				C187,209.6,186.9,209.9,186.4,209.3z"/>
			<path class="st6" d="M271,341.7c0.7,1,0.1-0.5-0.3-1.1c-1-3.7,3.6,5.6,1.2-1.3c-3-5.5-1.8-1.2-2.8-2
				C269.6,338.8,270.6,340.2,271,341.7z"/>
			<path class="st6" d="M155.2,123.9c-3-4.3-3.8-3.9-3.8-1.6c3.9,5.9,4.1,3.8,7.3,8.1c-3-7.8,0.5-3.9,0.3-7.2
				C158.9,123.6,152.7,117.6,155.2,123.9z"/>
			<path class="st6" d="M161.7,131c1.6,0.6,0.4-5.1,3.7-0.7c-5.3-12.4,4.9,2.1,3.9-4.2c-0.8-1.8-2.1-3.6-2.7-5.5
				c-0.6,1.2,0.9,7-3.6-0.5c0.4,4.5-2.5,1.7-4,1.9c0.6,1.9,2,3.6,3.2,5.3C162.6,129.4,160.1,125.6,161.7,131z"/>
			<path class="st6" d="M147.8,106.3c5.6,11.5,10.5,9.5,9.3,4.1C154.6,110.1,153.7,115.9,147.8,106.3z"/>
			<path class="st6" d="M170.9,115.1c1.5,1.2,2.7,1.6,3.8,1.7C172.8,112.3,171.2,113.7,170.9,115.1z"/>
			<path class="st6" d="M185.5,117.3c3.3,4.2,7,3.9,8.7,2.2c-3.6-6.1-1.6,1.2-5.1-6.3c3.2,8.1-2.5-1-1,4.9c-2.2-2.9-2.6-8-3.9-7.6
				C187,116.2,186.9,117.6,185.5,117.3z"/>
			<path class="st6" d="M180.4,106.3c2.6,6.1,2.4,0.6,3.8,1.7c-1.2-4.3-1.5-1.2-3.5-5.4C181.8,107.5,182.6,108.7,180.4,106.3z"/>
			<path class="st6" d="M194.7,119.4c3.1,3.2,5,3.8,6.3,2.6C194.6,108.4,195.3,116.9,194.7,119.4z"/>
			<path class="st6" d="M223.5,124.8c1.1,0.9,1.2-0.5,2.1-1.4c-0.7-1.1-1.3-2.2-2-3.3C225.1,125.6,222.6,120.7,223.5,124.8z"/>
			<path class="st6" d="M230.6,106.3l1.1,6.9c1.8,1.6-1.5-7.5,1.3-3.7C232.4,106.6,231.5,108,230.6,106.3z"/>
			<path class="st6" d="M246,109.4c4.2,10.6-0.6-5.9,4.6,5.4c-0.5-1.5-0.9-3-1.1-4.6C246.6,105.2,247.3,110.1,246,109.4z"/>
			<path class="st6" d="M267.3,103.9c-1.1-1.3,0.9,3,0.6,1.1c1.3,2.7,1.6,5.3,2.4,8c0.9,0.4,0-5,2.4-0.2c-2.7-11.3,0.9-4.3,1.7-6
				c0.3-2.4-2.1-4.5-1.7-6.9c-0.3,3.2-3.3-1.5-2.9,3.7c-1.1-1.9-1.5-3.8-2.6-5.7C268.3,101.7,268,104,267.3,103.9z"/>
			<path class="st6" d="M306.9,105c2.7,5.1,0.7-6.5,3.8-0.2c-0.3-1.9-1.5-3.8-2.3-5.7C309.3,106.3,305.9,97.9,306.9,105z"/>
			<path class="st6" d="M329.5,96.2c1.2,4.4,4.2,4.7,3.4,1.1C331.7,96.6,331.3,99.3,329.5,96.2z"/>
			<path class="st6" d="M358.7,119.6c-0.4-3.1-1.2-6.2-1.7-9.4c-1-1.5-1.2,0-1.3,2.3c1.4,4,0.9-0.1,1.4,0
				C358.1,114.9,356.2,115.1,358.7,119.6z"/>
			<path class="st6" d="M442.3,90.8c0.7,6.4,1.9,1.8,3,5c0.1-0.8-0.1-1.6-0.3-2.4c-0.3-0.8-0.5-1.6-0.8-2.4
				C444.1,94.5,442.9,90.5,442.3,90.8z"/>
			<path class="st6" d="M542.7,524c0.7,1.2,1.2-0.4,2,2.1c0-7,1-3.3,1.5-2.8c0-1.2-0.1-2.4,0-3.5c-0.1-0.9-0.1-1.6-0.1-2.4
				C545,522,543.7,518.8,542.7,524z"/>
			<path class="st6" d="M578.3,44.3c1.4-2.9-0.1-6.5,1.3-9.4c-0.2-0.8-0.5-0.1-0.7-1.4c-0.2,0.8-0.4,1.5-0.6,2.3
				C579.5,38.9,577.1,41.1,578.3,44.3z"/>
			<path class="st6" d="M589,53.1c1.1,7.2,0.2-9.3,1.5-5.7c0.6-4.2-0.9-4.6-1.5-0.4C589.5,49.2,589.5,51.2,589,53.1z"/>
		</g>
	</g>
</g>
<g>
	<path class="st3" d="M596.2,476.7V202.7c-4.3-44.7-8.7-89.4-9.3-134.3c-2.7-2.3-5.8-4.1-9.2-5.3c-101.6,0.3-203.2,2.1-304.8,2.1
		c-1.5,0.8-2.9,1.8-4.1,2.9c0.1,24.7,0.2,49.3,0.4,74c1.1,121.5,3.4,243.1,3.7,364.6c3.9,2.2,8.4,3.5,13.2,3.5h283.1
		c6.7,0,12.9-2.5,17.7-6.7C590.9,494.9,593.9,485.9,596.2,476.7z"/>
	<g>
		<g>
			<g>
				<path d="M259.1,65.8c91.6-1.4,183.2-0.6,274.8,2.5c25.9,0.9,51.7,2,77.6,3.2c5.3,0.3,5.3-8,0-8.3c-91.5-4.4-183.1-6.6-274.7-6.4
					c-25.9,0-51.8,0.3-77.7,0.7C253.8,57.6,253.8,65.9,259.1,65.8L259.1,65.8z"/>
			</g>
		</g>
		<g>
			<g>
				<path d="M598.5,82.7c-3.3,106.5-6.7,213-10,319.5c-0.9,30-1.9,59.9-2.8,89.9c-0.2,5.3,8.1,5.3,8.3,0c3.3-106.5,6.7-213,10-319.5
					c0.9-30,1.9-59.9,2.8-89.9C606.9,77.3,598.6,77.3,598.5,82.7L598.5,82.7z"/>
			</g>
		</g>
		<g>
			<g>
				<path d="M259.1,86.1c-4.7,109-7.3,218.2-7.8,327.3c-0.1,30.8-0.1,61.7,0.1,92.5c0,5.3,8.3,5.3,8.3,0
					c-0.7-109.1,0.7-218.3,4.2-327.3c1-30.8,2.2-61.7,3.5-92.5C267.6,80.8,259.3,80.8,259.1,86.1L259.1,86.1z"/>
			</g>
		</g>
		<g>
			<g>
				<path d="M280.9,509.5c84.2,0.5,168.4,1.1,252.5,1.6c23.9,0.2,47.7,0.3,71.6,0.5c5.3,0,5.3-8.2,0-8.3
					c-84.2-0.5-168.4-1.1-252.5-1.6c-23.9-0.2-47.7-0.3-71.6-0.5C275.6,501.2,275.6,509.5,280.9,509.5L280.9,509.5z"/>
			</g>
		</g>
	</g>
</g>
<g>
	<g>
		<g>
			<path d="M388.5,477.9c6.4-42.3,12.5-85.3,4.9-127.9c-0.6-3.2-5.4-1.8-4.8,1.3c7.5,41.6,1.3,83.9-4.9,125.2
				C383.2,479.7,388.1,481.1,388.5,477.9L388.5,477.9z"/>
		</g>
	</g>
	<g>
		<g>
			<path d="M386.3,343.4c-7.7-3.7-15.5-7.3-23.2-11c-3.6-1.7-7.2-3.3-10.7-5.1c-4.9-2.4-5.9-6.2-7.3-11.2
				c-4.4-15.7-7.8-31.5-10.4-47.6c-0.5-3.2-5.3-1.8-4.8,1.3c2.9,17.7,6.3,35.9,12,53c2.5,7.5,9.4,9.4,16.1,12.6
				c8.6,4.1,17.3,8.2,25.9,12.3C386.7,349.1,389.2,344.8,386.3,343.4L386.3,343.4z"/>
		</g>
	</g>
	<g>
		<g>
			<path d="M319.7,255.5c-0.1,6.8,5.2,12.7,11.8,13.6c6.6,1,12.3-3.8,13.8-10.1c3.4-14.4-16.1-21.3-23.8-9.5
				c-1.8,2.7,2.6,5.2,4.3,2.5c4.6-7.1,16.6-3.2,14.7,5.6c-0.8,3.8-3.9,6.9-8,6.5c-4.4-0.5-7.9-4.3-7.8-8.7
				C324.7,252.3,319.7,252.3,319.7,255.5L319.7,255.5z"/>
		</g>
	</g>
	<g>
		<g>
			<path d="M336.4,299.2c-6.8-0.2-13.1-1.9-19-5.3c-2.8-1.6-5.3,2.7-2.5,4.3c6.6,3.8,13.9,5.8,21.5,6
				C339.6,304.2,339.6,299.2,336.4,299.2L336.4,299.2z"/>
		</g>
	</g>
	<g>
		<g>
			<path d="M299.4,285.8c-5.9,9.1,1.8,22.4,13,18c4.4-1.8,7.3-6.3,5.9-11.1c-1.4-4.9-6.4-8.2-11.4-6.9c-3.1,0.8-1.8,5.6,1.3,4.8
				c2.6-0.6,5.1,1.6,5.4,4.1c0.3,2.6-2.1,4.5-4.5,4.8c-6.5,1-8.3-6.8-5.4-11.2C305.5,285.6,301.2,283.1,299.4,285.8L299.4,285.8z"/>
		</g>
	</g>
	<g>
		<g>
			<path d="M364.6,332.9c8.2-44.6,10.3-90.2,6.2-135.4c-0.3-3.2-5.3-3.2-5,0c4.1,44.7,2.1,89.9-6,134
				C359.2,334.7,364,336,364.6,332.9L364.6,332.9z"/>
		</g>
	</g>
	<g>
		<g>
			<path d="M370.8,238.2c-8.2-8.5-20.5-10.3-27-20.9c-6-9.8-7.2-22-8.1-33.2c-0.3-3.2-5.3-3.2-5,0c1,11.7,2.3,24.1,8.1,34.5
				c2.7,4.9,6.4,9,11.1,12.1c5.7,3.9,12.5,5.9,17.4,11C369.5,244,373.1,240.5,370.8,238.2L370.8,238.2z"/>
		</g>
	</g>
	<g>
		<g>
			<path d="M371.2,224c6.7-1.2,14-1.8,20.5-3.9c4.2-1.4,6.8-4.3,7.2-8.8c0.6-6.4-1.2-13.5-1.9-19.9c-0.9-7.6-1.7-15.2-2.6-22.8
				c-0.4-3.2-5.4-3.2-5,0c1.3,11.4,2.6,22.8,3.9,34.2c0.3,2.3,0.7,4.6,0.7,6.9c-0.1,4.1-2.7,5.4-6.1,6.2c-5.9,1.3-12,2.2-18,3.3
				C366.7,219.7,368,224.5,371.2,224L371.2,224z"/>
		</g>
	</g>
	<g>
		<g>
			<path d="M356.7,187.9c3,7.4,14,12.6,20,5.3c4.7-5.7,1.2-15.9-6.5-16.3c-3.2-0.2-3.2,4.8,0,5c3.6,0.2,4.7,5.8,2.6,8.2
				c-3.3,3.9-9.8,0.2-11.3-3.6C360.4,183.6,355.5,184.9,356.7,187.9L356.7,187.9z"/>
		</g>
	</g>
	<g>
		<g>
			<path d="M379.7,166.6c2.5,4.6,8,6.8,13,5.6c5.2-1.3,8.2-6.4,7.7-11.6c-0.5-5.3-4.5-9.7-9.9-9.9c-5.3-0.2-10.4,3.5-11.7,8.7
				c-0.8,3.1,4.1,4.5,4.8,1.3c1.6-6.6,11.3-6.6,11.9,0.6c0.6,6.8-8.5,8.4-11.4,2.8C382.5,161.2,378.1,163.7,379.7,166.6L379.7,166.6
				z"/>
		</g>
	</g>
	<g>
		<g>
			<path d="M327.4,172c0.3,5.2,4.3,9.9,9.8,10.1c5.3,0.2,10-4.3,10.4-9.5c0.4-5.2-3.6-9.8-8.5-10.8c-5.8-1.2-10.9,2.7-12.9,7.9
				c-1.1,3,3.7,4.3,4.8,1.3c1.1-2.8,4-5.1,7.1-4.4c2.3,0.5,4.4,2.5,4.5,5c0.2,6.7-9.8,6.9-10.2,0.2
				C332.2,168.8,327.2,168.8,327.4,172L327.4,172z"/>
		</g>
	</g>
	<g>
		<g>
			<path d="M419.1,342.4c0.8,34.7-0.3,69.4-3.5,104c-0.3,3.2,4.7,3.2,5,0c3.2-34.6,4.3-69.3,3.5-104
				C424,339.2,419,339.2,419.1,342.4L419.1,342.4z"/>
		</g>
	</g>
	<g>
		<g>
			<path d="M426.7,338.8c-6.9-14.4-13.9-28.9-20.8-43.3c-1.4-2.9-5.7-0.4-4.3,2.5c6.9,14.4,13.9,28.9,20.8,43.3
				C423.8,344.3,428.1,341.7,426.7,338.8L426.7,338.8z"/>
		</g>
	</g>
	<g>
		<g>
			<path d="M405.5,295.4c6.8-23.5,9-48,6.3-72.3c-0.4-3.2-5.4-3.2-5,0c2.7,23.9,0.6,47.9-6.1,71
				C399.7,297.1,404.6,298.4,405.5,295.4L405.5,295.4z"/>
		</g>
	</g>
	<g>
		<g>
			<path d="M408.9,224.1c13.7-6.7,28.5-16.1,27.1-33.4c-0.8-10.4-2.4-20.5-2.1-31c0.3-11.3,1.8-22.5,4.5-33.4
				c0.8-3.1-4.1-4.5-4.8-1.3c-4.5,18.7-5.9,38-3.6,57.1c1.1,9.2,2.5,17.3-4.1,24.8c-5.2,5.9-12.5,9.6-19.5,13
				C403.5,221.2,406.1,225.5,408.9,224.1L408.9,224.1z"/>
		</g>
	</g>
	<g>
		<g>
			<path d="M427.8,165.1c-14.9-6.8-22.2-24.6-16.4-39.9c1.1-3-3.7-4.3-4.8-1.3c-6.5,17.2,2,37.9,18.7,45.5
				C428.2,170.7,430.7,166.4,427.8,165.1L427.8,165.1z"/>
		</g>
	</g>
	<g>
		<g>
			<path d="M394.5,114.8c1.7,4.7,4.6,9.4,9.5,11.4c4.4,1.7,9.2,0.4,12-3.5c2.5-3.4,2.6-8.1-0.8-10.9c-4.3-3.6-10-1.2-15-2
				c-3.1-0.5-4.5,4.3-1.3,4.8c2.9,0.5,16.2-1.6,13.7,4.3c-1.1,2.8-4.2,3.8-6.9,2.6c-3.2-1.4-5.2-4.8-6.4-8
				C398.2,110.4,393.4,111.7,394.5,114.8L394.5,114.8z"/>
		</g>
	</g>
	<g>
		<g>
			<path d="M429.2,118.9c-1.5,4.4,1.3,9.2,5.6,10.7c4.2,1.5,8.5-1.1,10.1-5c1.6-4,0.5-8.6-3.3-10.9c-3.8-2.3-8.8-1.7-12,1.2
				c-2.4,2.2,1.2,5.7,3.5,3.5c2.9-2.7,8.6-0.6,7.3,3.7c-0.5,1.6-1.9,3.2-3.8,2.7c-2.1-0.5-3.3-2.7-2.6-4.7
				C435.1,117.2,430.3,115.9,429.2,118.9L429.2,118.9z"/>
		</g>
	</g>
	<g>
		<g>
			<path d="M415.7,443c0.6,10.6,0.1,21.2-1.7,31.7c-0.5,3.1,4.3,4.5,4.8,1.3c1.8-10.9,2.5-21.9,1.9-33
				C420.5,439.8,415.5,439.8,415.7,443L415.7,443z"/>
		</g>
	</g>
	<g>
		<g>
			<path d="M404.8,298.4c-5.6-4-11.8-7.1-18.5-9.1c-3.1-0.9-4.4,3.9-1.3,4.8c6.3,1.9,12,4.7,17.3,8.6
				C404.9,304.6,407.4,300.3,404.8,298.4L404.8,298.4z"/>
		</g>
	</g>
	<g>
		<g>
			<path d="M380.8,286.4c-7.5,0.7-6.8,12.4,0.8,12.2c3.5-0.1,6.5-2.8,7.2-6.2c0.8-4.1-1.7-7.9-5-10.2c-2.7-1.8-5.2,2.5-2.5,4.3
				c2,1.4,4.3,5.3,1.1,6.8c-2.4,1.1-2.1-1.9-1.6-1.9C384,291.1,384.1,286.1,380.8,286.4L380.8,286.4z"/>
		</g>
	</g>
	<g>
		<g>
			<path d="M408.6,271.9c-5.7-1.8-10.4-5.1-14.2-9.7c-2.1-2.5-5.6,1.1-3.5,3.5c4.3,5.2,10,8.9,16.4,11
				C410.4,277.7,411.7,272.8,408.6,271.9L408.6,271.9z"/>
		</g>
	</g>
	<g>
		<g>
			<path d="M381.1,255.9c-3.4,8,6.8,14.9,13.3,9.6c7.4-6.1,1.9-16.9-7-16.9c-3.2,0-3.2,5,0,5c4,0,7.6,4.6,4,7.9
				c-3.1,2.8-7-0.7-5.5-4.2C387.1,254.2,382.3,252.9,381.1,255.9L381.1,255.9z"/>
		</g>
	</g>
	<g>
		<g>
			<path d="M423.2,360.9c9.4,1.7,18.1-3.6,22.7-11.7c5.7-10.2,5-22.9,5.3-34.2c0.9-28.4,1.7-56.8,2.6-85.1c0.1-3.2-4.9-3.2-5,0
				c-0.7,23.8-1.5,47.5-2.2,71.3c-0.3,11,0,22.2-1.4,33.1c-1.3,10.4-8,24.2-20.7,21.8C421.4,355.5,420.1,360.3,423.2,360.9
				L423.2,360.9z"/>
		</g>
	</g>
	<g>
		<g>
			<path d="M453.5,277.3c-7.4-4.6-14.7-9.2-22.1-13.8c-2.7-1.7-5.3,2.6-2.5,4.3c7.4,4.6,14.7,9.2,22.1,13.8
				C453.7,283.3,456.2,279,453.5,277.3L453.5,277.3z"/>
		</g>
	</g>
	<g>
		<g>
			<path d="M422.2,255.7c-5.7,5.8,0.9,15.5,8.5,12.5c3.6-1.4,5.9-5,5.6-8.9c-0.3-4.2-3.4-7.4-7.2-8.8c-3-1.1-4.3,3.7-1.3,4.8
				c3.2,1.2,5.2,6,1.5,8c-2.7,1.5-5.9-1.7-3.6-4.1C428,257,424.5,253.4,422.2,255.7L422.2,255.7z"/>
		</g>
	</g>
	<g>
		<g>
			<path d="M454.1,257.2c5.9-6.1,12.9-10.7,20.9-13.4c3-1,1.7-5.9-1.3-4.8c-8.8,3.1-16.6,8-23.1,14.7
				C448.4,256,451.9,259.5,454.1,257.2L454.1,257.2z"/>
		</g>
	</g>
	<g>
		<g>
			<path d="M477.8,231.1c-3.7-0.3-6,3.3-5.9,6.6c0.2,4,3.9,6.6,7.7,5.4c4-1.3,6.5-5.8,5-9.8c-1.4-4-5.9-6.3-10-5.9
				c-3.2,0.3-3.2,5.3,0,5c1.7-0.1,3.5,0.2,4.7,1.6c1,1.2,1,2.8-0.3,3.8c-2.6,2.2-2.5-1.9-1.2-1.7C481,236.4,481,231.4,477.8,231.1
				L477.8,231.1z"/>
		</g>
	</g>
	<g>
		<g>
			<path d="M454.8,230.3c-3.7-8.2,8-13.6,12.9-17.7c4.7-4,7.3-9.2,7.9-15.3c1.5-15.2-9.9-29.8-4.7-44.8c1.1-3-3.8-4.4-4.8-1.3
				c-5.8,16.6,7.8,31.9,4.1,48.4c-2.9,12.8-27,17.3-19.8,33.3C451.8,235.8,456.1,233.2,454.8,230.3L454.8,230.3z"/>
		</g>
	</g>
	<g>
		<g>
			<path d="M461.6,138c-3.7,2.4-4.5,7.1-2.5,10.9c2.6,5,8.7,5.8,13.7,4.5c4.5-1.2,10.7-4.4,8.9-10c-2-6.3-9.3-5.6-14.3-4
				c-3,1-1.7,5.8,1.3,4.8c1.5-0.5,3-1.1,4.6-1.1c1.3-0.1,4.4,0.6,3.5,2.7c-0.7,1.9-5,2.8-6.6,3c-2.2,0.4-5.1,0.3-6.5-1.8
				c-0.9-1.4-1.3-3.7,0.3-4.7C466.8,140.6,464.3,136.3,461.6,138L461.6,138z"/>
		</g>
	</g>
	<g>
		<g>
			<path d="M463.4,471.7c-3.8-20.6-5.8-41.4-5.7-62.3c0-9.6,0.4-19.2,1.2-28.7c0.8-8.8,1.1-19.3,8.4-25.4c9.3-7.7,24.5-8.3,29-21.1
				c3-8.6,1.3-19.3,1.3-28.2c-0.1-10.6-0.2-21.1-0.3-31.7c0-3.2-5-3.2-5,0c0.1,10.6,0.2,21.1,0.3,31.7c0,5.3,0.1,10.6,0.1,15.8
				c0,4.8,0.1,9.9-2.8,14c-4,5.5-11.4,7.7-17.2,10.5c-5.9,2.8-11.3,6.4-14.3,12.3c-3.7,7.3-4,16-4.6,24c-0.8,10.2-1.2,20.4-1.1,30.7
				c0.2,20.1,2.2,40.1,5.9,59.8C459.2,476.2,464,474.8,463.4,471.7L463.4,471.7z"/>
		</g>
	</g>
	<g>
		<g>
			<path d="M500.3,323.9c8.4-0.5,17.8-1.4,23.6-8.2c5.8-6.7,5.8-16.2,5.6-24.5c-0.1-3.2-5.1-3.2-5,0c0.2,6.7,0.5,14.6-3.6,20.3
				c-4.7,6.4-13.4,6.9-20.6,7.4C497.1,319.1,497,324.1,500.3,323.9L500.3,323.9z"/>
		</g>
	</g>
	<g>
		<g>
			<path d="M526.2,277.2c-3,2.1-4.2,5.9-2.9,9.3c1.3,3.6,5.1,5.3,8.7,4.4c3.6-0.9,6.3-4.4,5.6-8.2c-0.6-3.8-4.4-7-8.3-6.5
				c-1.4,0.1-2.5,1-2.5,2.5c0,1.2,1.2,2.6,2.5,2.5c3.2-0.4,4.9,4,1.3,4.9c-2.6,0.6-4-3-1.9-4.5C531.3,279.7,528.8,275.4,526.2,277.2
				L526.2,277.2z"/>
		</g>
	</g>
	<g>
		<g>
			<path d="M500,276.9c6.9-4.6,13.8-9.1,20.7-13.7c3.6-2.4,7.2-4.7,10.7-7.1c2.3-1.5,5.2-3,7-5.2c3.4-4.2,1.2-10,0.3-14.7
				c-1.5-8.1-3.1-16.2-4.6-24.3c-0.6-3.2-5.4-1.8-4.8,1.3c1.2,6.2,2.4,12.5,3.5,18.7c0.6,3.1,1.2,6.2,1.8,9.4c0.9,4.8-0.1,6.7-4,9.4
				c-11,7.4-22,14.6-33.1,21.9C494.8,274.4,497.3,278.7,500,276.9L500,276.9z"/>
		</g>
	</g>
	<g>
		<g>
			<path d="M524.5,206c0.1,9.4,11.6,16.2,18.2,7.7c5.6-7.1-3.4-17.4-11-12.2c-2.6,1.8-0.1,6.1,2.5,4.3c3.6-2.4,7.2,2.5,3.9,5.5
				c-4.1,3.6-8.6-1-8.6-5.3C529.5,202.8,524.5,202.8,524.5,206L524.5,206z"/>
		</g>
	</g>
	<g>
		<g>
			<path d="M497.6,274.2c-0.9-25-0.5-50.1,1.1-75.1c0.2-3.2-4.8-3.2-5,0c-1.6,25-1.9,50-1.1,75.1
				C492.7,277.4,497.7,277.4,497.6,274.2L497.6,274.2z"/>
		</g>
	</g>
	<g>
		<g>
			<path d="M495.5,186.3c-1.6,4.6,1.8,9.1,6.1,10.4c5.7,1.8,11-2.4,15-5.9c0.9-0.8,1-2.7,0-3.5c-3.8-3.1-8.3-4.7-13.2-4.2
				c-3.2,0.3-3.2,5.3,0,5c3.5-0.3,6.9,0.5,9.7,2.7c0-1.2,0-2.4,0-3.5c-2.3,2-4.8,4.4-8,4.8c-2.5,0.3-5.9-1.4-4.9-4.4
				C501.4,184.6,496.6,183.3,495.5,186.3L495.5,186.3z"/>
		</g>
	</g>
	<g>
		<g>
			<path d="M496.3,242.4c5.3-2.5,9.6-6.4,12.7-11.4c1.7-2.7-2.6-5.3-4.3-2.5c-2.6,4.3-6.4,7.5-10.9,9.6
				C490.9,239.5,493.4,243.8,496.3,242.4L496.3,242.4z"/>
		</g>
	</g>
	<g>
		<g>
			<path d="M510.2,219.4c-2.7,2.9-2.1,7.2,0.6,9.8c3,2.9,7.5,2.4,10.1-0.7c2.6-3.1,2.8-7.7,0.3-10.9c-2.7-3.5-7.4-4.5-11.6-3.4
				c-3.1,0.8-1.8,5.6,1.3,4.8c3.1-0.8,8.2,0.9,6.8,5c-0.4,1.2-1.6,2.6-3,2c-1-0.4-1.9-2.2-1.1-3.1
				C515.9,220.6,512.4,217,510.2,219.4L510.2,219.4z"/>
		</g>
	</g>
</g>
<g>
	<g>
		<g>
			<path class="st0" d="M1610.4,6c-72.2-15.3-145.6-21.2-217.3-18.7c-71.7,2.4-141.8,13-208.7,30.1c-67,17.1-130.9,40.7-191.2,69.1
				c-60.3,28.5-117.1,61.8-170.2,98.8l334.2,479.4c27.8-19.3,56.5-36,85.4-49.6c28.9-13.6,58-24.2,86.6-31.5
				c28.6-7.3,56.7-11.4,83.5-12.3c26.9-0.9,52.5,1.3,76.8,6.4L1610.4,6z"/>
		</g>
	</g>
</g>
</svg>
