<?xml version="1.0" encoding="utf-8"?>
<!-- Generator: Adobe Illustrator 21.0.1, SVG Export Plug-In . SVG Version: 6.00 Build 0)  -->
<svg version="1.1" id="Layer_1" xmlns="http://www.w3.org/2000/svg" xmlns:xlink="http://www.w3.org/1999/xlink" x="0px" y="0px"
	 viewBox="0 0 163.4 126.7" style="enable-background:new 0 0 163.4 126.7;" xml:space="preserve">
<style type="text/css">
	.st0{fill:#37BFC5;}
	.st1{fill:#19645E;}
	.st2{fill:#FFFFFF;}
	.st3{fill:#37BFC5;stroke:#37BFC5;stroke-width:1.0825;stroke-miterlimit:10;}
	.st4{font-family:'NgosngosSans';}
	.st5{font-size:66.3262px;}
	.st6{fill:#4C4C4C;}
	.st7{font-family:'Dosis-Light';}
	.st8{font-size:10.5569px;}
</style>
<g>
	<g>
		<g>
			<g>
				<g>
					<circle class="st0" cx="82.6" cy="35.8" r="35.8"/>
				</g>
				<g>
					<path class="st1" d="M85.1,3.3c0.8-0.1,1.6-0.2,2.4-0.3c-0.1,0-0.2,0-0.2,0c-0.4,0-0.8,0-1.3,0h0c-0.1,0-0.2,0-0.3,0
						c0,0,0.1,0,0.1,0c-0.8,0-1.7-0.1-2.5-0.1c-0.3,0-0.7,0-1,0c0,0,0,0,0,0c-0.5,0.1-1.6,0.3-2.3,0.5c-1.2,0.3-1,0.7-1.4,1.2
						c0,0,0,0.1,0,0.1c0,0,0,0,0,0c0,0,0,0,0,0c0,0,0,0,0,0l0,0c0,0.1,0.5,0.2,0.9,0.1c0.5-0.1,1.1-0.3,1.6-0.4
						c0.8-0.2,1.1-0.5,2-0.7C83.7,3.4,84.3,3.3,85.1,3.3z"/>
					<path class="st1" d="M89.8,2.9c0.7,0,1.2,0,1.9,0c0.8,0,1.8,0.1,2.6,0.2c0.6,0,1.1,0,1.6,0c0.4,0,0.9,0,1.3,0
						c-0.5-0.2-1-0.4-1.4-0.6v0c-0.1,0-0.2-0.1-0.4-0.1c-0.2,0-0.3,0-0.4,0c-0.4,0-1.3,0-1.6,0c-0.3,0,0.1,0,0.3,0
						c0.1,0,0.6,0,0.1,0.1c-0.4,0-0.7,0-0.9,0c-0.3,0-0.6,0-0.8,0c-0.3,0.1,0.1,0.1,0.4,0.1c0.4,0,0,0.1-0.4,0.1c-0.7,0-1.3,0-2,0.1
						c-0.8,0-1.7,0.1-2.6,0.2C88.2,2.9,89,2.9,89.8,2.9z"/>
					<path class="st1" d="M99.5,8c-0.5,0.2-1,0.2-1.5,0.3c-0.5,0.1-0.9,0.2-1.5,0.2c-0.1,0.3-0.1,0.5,0.1,0.7
						c0.2,0.2,0.5,0.4,0.6,0.7c0.4,0.5,0.3,1.2-0.7,1.5c-0.9,0.2-1.9-0.1-2.8,0c-0.3,0-0.9,0-1.1,0.3c-0.3,0.3,0.2,0.7,0.4,0.9
						c0.1,0.1,0.4,0.3,0.6,0.4c0.3,0.4-0.3,1.2-0.6,1.6c-0.1,0.2-0.7,0.5-0.7,0.7c-0.3,0.8,0.8,1.3,1.5,1.4c0.6,0.1,1.6,0.4,2.3,0.2
						c0.7-0.2,1.4-1.1,1.7-1.6c0.5-0.8,0.4-1.2,1.4-1.7c0.4-0.2,0.8-0.2,1.1-0.5c0.3-0.3,0.3-0.7,0.7-1c0.5-0.3,1.6-0.1,2.2-0.4
						c1-0.4,1.1-0.6,2.1-0.1c0.9,0.5,1.7,1,2.5,1.6c0.6,0.4,0.4,0.4,0.6,1c0.1,0.4,0.4,1,0.8,1.3c0.5-0.4,0.9-1,0.8-1.5
						c0.3,0,0.7,0,1,0c-0.3-0.4-0.7-0.8-1-1.2c-1.3-0.6-3.3-0.9-3-2c0.6-0.1,0.7,0.1,1.1,0.3c0.1,0,0.3,0.1,0.4,0.1
						c-1.6-1.7-3.4-3.2-5.4-4.5c-0.1,0.1-0.1,0.3-0.3,0.4c-0.1,0-0.2,0-0.2,0.1c0,0-0.1,0-0.1,0l0,0c-0.3,0-0.5,0.1-0.7,0.2
						C100.9,7.3,100.2,7.7,99.5,8z"/>
					<path class="st1" d="M56.4,11.5c-0.3,0.3-0.6,0.7-0.9,1c0,0,0,0,0,0c-2.2,2.6-4,5.4-5.4,8.5c0,0,0,0,0,0.1
						c-0.2,0.4-0.3,0.8-0.5,1.1c0.4-0.5,0.7-1.2,1.2-1.5c0.4-0.3,0.9-0.5,1.3-1.1c0.4-0.6,0.4-2,1.2-2.3c0.2-0.1,0.2,0.2,0.4,0.1
						c0.2-0.1,0.7-0.6,0.9-0.8c0.5-0.5,0.7-0.6,1.3-0.7c0.5-0.1,1-0.3,1.5-0.9c0.2-0.2,0.2-0.4,0.4-0.6c0.4-0.4,0.3-0.2,0.7-0.3
						c0.6-0.2,1.2-0.7,1.9-1c0.3-0.1,1.2-0.5,1.2-0.3c0,0.4-0.9,0.4-1.2,0.7c-0.8,0.9,1.2-0.3,1.4-0.4c0.5-0.2,1.6-0.2,1.8-1
						c-0.3,0-0.5,0.1-0.8,0.1c-0.4,0.1-0.4,0.2-0.5-0.1c-0.1-0.3,0-0.6,0.5-0.9c0.6-0.4,0.9-0.6,0.1-0.6c-0.2,0-0.5,0-0.7,0.1
						c-0.1,0-0.7,0.4-0.7,0.4c-0.5-0.1,0.7-0.7,0.9-0.8c0.5-0.2,1-0.3,1.5-0.4c0.9-0.2,1.7,0.2,2.7-0.3c0.3-0.1,0.5-0.3,0.8-0.4
						c0.3-0.1,0.6-0.2,0.8-0.3c0.5-0.2,1.1-0.4,1.5-0.8c0.7-0.7-0.8-0.3-1.2-0.3c0.1-0.1,0.5-0.3,0.6-0.4c0.2-0.2,0-0.2,0-0.4
						c0-0.3,0.5-0.6,0.9-0.9c0.4-0.3,0.7-0.6,0.4-0.7c-0.4-0.1-1,0.3-1.5,0.5c-0.3,0.1-0.9,0.3-0.9,0.1c0-0.1,0.5-0.5,0.6-0.7
						c0.2-0.3,0-0.3-0.5-0.3c-0.3,0-0.7,0-1.1,0.1c-0.4,0.1-0.9,0.2-1.3,0.5C65.3,6,65.3,6.1,65,6.2c-0.3,0.1-0.6,0.2-0.8,0.3
						c-0.7,0.3-0.5,0.3-0.8,0.6c-0.3,0.3-0.8,0.6-1.4,0.8c-0.5,0.2-0.8,0.3-1.2,0.6c-0.3,0.1-0.4,0.2-0.7,0.4
						c-0.2,0.2-0.3,0.3-0.6,0.5c-0.4,0.3-1,0.8-1.4,0.7c-0.3,0-0.2-0.3,0.1-0.6c0,0,0.1-0.1,0.1-0.1c-0.3,0.3-0.6,0.6-0.9,0.9
						c-0.1,0.1-0.1,0.1-0.2,0.2C57,10.8,56.7,11.1,56.4,11.5C56.4,11.4,56.4,11.4,56.4,11.5z"/>
					<path class="st1" d="M71.1,69c-0.5-0.1-0.3-0.2-0.8-0.3c-0.6-0.2-1.4-0.3-1.9-0.6c0.3,0,0.9,0.3,0.9,0.1c0-0.1-0.4-0.2-0.4-0.3
						c0-0.1,0.3,0,0.5,0c0.6,0,1.2-0.2,0.1-0.7c-0.2-0.1-1.4-0.5-1-0.5c0.1,0,0.6,0.2,0.8,0.2C69.6,67,69.8,67,70,67
						c0.4-0.1,0.4-0.3,0.2-0.6c-0.1-0.3-0.1-0.3,0-0.5c0.4-0.4,0-1-0.6-1.8c-0.6-0.7-1.2-1.5,0-1.5c0.3,0,0.4,0,0.6,0
						c0.2-0.1,0.3-0.2,0.5-0.2c0.6,0,0.6-0.2,0.7-0.6c0-0.4,0.1-0.7,0.1-1.1c0-0.6-0.2-1-0.4-1.7c-0.1-0.5-0.1-1-0.3-1.5
						c-0.1-0.5-0.4-1.1-0.2-1.5c0.2-0.4,0.6-0.5,0.8-1.1c0.2-0.9,0.5-1.5,0.3-2.5c-0.1-0.4-0.1-1.1-0.3-1.5
						c-0.3-0.6-0.6-0.3-1.1-0.5c-1-0.3-1.2-1.9-2.3-2.1c-0.5-0.1-0.9,0-1.3-0.1c-0.6-0.1-1-0.1-1.6-0.1c0-0.7-0.9-1.1-1.3-1.4
						c-0.3-0.2-0.2-0.2-0.5-0.2c-0.1,0-0.3,0.1-0.4,0.2c-0.3,0.2-0.5,0.3-0.7,0.5c-0.1-0.4,0.2-0.7,0-1.1c-1.2-0.6-1.5,0.4-2.2,1.1
						c-0.3-0.6-0.1-0.8,0.2-1.2c0.2-0.3,0.3-0.5,0.3-1c0-0.9-0.5-1.9-0.8-2.7c-0.2-0.8-0.5-0.7-1-0.7c-0.4,0-0.8,0-1.2-0.1
						c-1.5-0.5-2.1-2.5-3.3-3.1c-0.6-0.3-1.2-0.4-1.8-0.5c-0.3-0.1-0.5-0.2-0.8-0.3c-0.4-0.2-0.5-0.5-0.7-0.8
						c-0.3-0.3-0.5-0.2-0.8-0.1c-0.2,0.1-0.8,0.6-0.4,0.9c0,0.2,0.1,0.6,0,0.9c-0.1,0.4-0.4,0.3-0.5,0.6c-0.3-0.4-0.4-0.9-0.3-1.4
						c0.1-0.5,0.5-0.8,0.4-1.3c-0.3-0.1-0.5,0.5-0.8,0.6c-0.2,0.2-0.5,0.3-0.7,0.6c-0.1,0.1-0.2,0.2-0.3,0.4
						c-0.1,0.2-0.1,0.5-0.2,0.6c-0.1,0.1-0.2,0.2-0.3,0.2c-0.2,0.1-0.1,0.1-0.2,0c0.1,0.8,0.2,1.6,0.3,2.4c0,0.1,0,0.2,0,0.2
						c1,6.2,3.5,11.9,7.3,16.6c0.5,0.4,0.9,0.8,1.1,1.4c3.8,4.4,8.7,7.8,14.3,9.9c0.9,0.1,2,0.2,3.1,0.1c0,0,0,0,0.1,0
						c0,0-0.1,0-0.3-0.1C72.4,69.2,71.6,69.1,71.1,69z"/>
					<path class="st1" d="M65.3,4.8c0.3,0,0.6-0.1,0.9-0.1c0.4-0.1,0.8-0.2,1.2-0.2c0.1,0,0.2,0,0.4,0c0.1,0,0.1,0,0.2,0
						c0.1,0,0.2,0,0.2,0c0.1,0,0.1,0,0.2,0c0,0,0,0,0,0c0.2,0,0.4-0.1,0.6-0.1c0.3-0.1,0.8-0.3,1-0.4c-0.3,0-0.4,0-0.8,0
						c-0.4,0.1-0.8,0.2-1.1,0.3c-0.1,0-0.2,0-0.3,0.1h0c-0.1,0-0.1,0-0.2,0l0,0c-0.3,0-0.2-0.1,0.2-0.2c-0.3,0-0.8,0.1-0.6,0
						c0.2-0.1,1-0.3,0.6-0.3c-0.3,0-1.2,0.2-1.6,0.3c-0.3,0.1-0.4,0.2-0.7,0.3c-0.6,0.3-1.2,0.7-1.8,1c0.5-0.1,1.1-0.2,1.6-0.4
						C65.3,4.9,64.9,5,65.3,4.8z"/>
					<path class="st1" d="M68.2,9.3c0.1-0.1,0.3-0.2,0-0.2c-0.2,0-0.3,0.1-0.4,0.2c-0.6,0.2-1.1,0.8-1.5,1.1
						c-0.2,0.1-0.8,0.3-0.5,0.4c0.3,0.1,0.8-0.3,1.1-0.2c0.3,0,0.3,0.2,0.7,0.1c0.3-0.1,0.8-0.3,0.9-0.6c0.2-0.3-0.4-0.1-0.6-0.2
						c-0.1-0.1-0.1-0.2,0-0.3C68,9.5,68.1,9.5,68.2,9.3z"/>
					<path class="st1" d="M75.2,3.3c-0.3,0-0.5,0-0.4,0c0.1-0.1,0.2-0.1-0.3,0c-0.4,0-0.7,0.1-0.8,0c-0.2,0,0-0.1-0.3,0
						c-0.3,0-0.5,0-1,0.1c-0.2,0-1,0.1-1,0.1c-0.1,0,0.8-0.1,0.9-0.1c0.3-0.1-0.6,0-0.8,0.1c-0.4,0-0.9,0.1-1.4,0.2
						c-0.5,0.1-0.8,0.1-0.6,0.2c0.2,0,0.4,0,0.7,0c0.3,0,0.5,0,0.7,0c0.2,0,0.2,0,0.4,0c0.3,0,0.8-0.1,1.1-0.2c0.3,0,0.5,0,0.5,0.1
						c0,0-0.2,0.1-0.1,0.2c0,0,0.2,0,0.2,0.1c0.1,0,0,0.1-0.4,0.2c-0.4,0.1-0.5,0.1-0.6,0.1c-0.1,0-0.2-0.1-0.4,0
						c-0.1,0-0.3,0-0.4,0.1c-0.1,0-0.1,0-0.2,0h0c-0.1,0-0.3,0.1-0.4,0.1c-0.3,0.1-0.7,0.2-0.9,0.3c-0.4,0.1-0.7,0-1.1,0.1
						c-0.2,0.1-0.4,0.1-0.3,0.2c0.1,0,0.5-0.1,0.7-0.1c0.3,0,0.7-0.1,0.8,0c0.1,0.1-0.1,0.2-0.1,0.3c0.1,0.1,0.3,0.2,0.7,0.1
						c0.2,0,0.4,0,0.6-0.2c0.1-0.1-0.3,0-0.3-0.1c0,0,0.3-0.2,0.4-0.2c0.3-0.1,0.3,0,0.4,0c0.1,0,0.6,0,1-0.2
						c0.2-0.1,0.1-0.1,0.1-0.2c0.1-0.1,0.1-0.1,0.3-0.2c0.7-0.4,1-0.2,1.4-0.1c0.3,0,1-0.2,1-0.3c0-0.1-0.5,0-0.5-0.1c0,0,0,0,0,0
						l0,0c0,0,0,0,0,0c0,0,0,0,0,0c0,0,0,0,0,0c0,0,0,0,0,0c0,0,0,0,0,0c0,0,0.1,0,0.1,0c0.1,0,0.4-0.1,0.5-0.1
						C75.6,3.3,75.3,3.3,75.2,3.3z"/>
					<path class="st1" d="M82.2,2.8c-0.4,0-1.8,0.1-1.8,0.1c0.1,0,0.8,0,1.1,0C81.8,2.9,82,2.9,82.2,2.8c0.3,0,0.7,0,0.7,0
						C82.9,2.7,82.7,2.7,82.2,2.8z"/>
					<path class="st1" d="M91.7,6.2c0.2,0,0.3,0.1,0.4,0.2c0.3,0.1,0.8,0,1.1-0.1c0.2-0.1,0.3-0.1,0.6-0.1c0.2,0,0.4-0.1,0.6-0.2
						C94.6,6,94.9,6,95,5.9c0.1,0,0.1-0.1,0.2-0.2c0.1,0,0.2,0,0.3-0.1c0,0,0,0,0.1,0c0,0-0.1-0.1-0.2-0.1c-0.2,0-0.2-0.1-0.4-0.1
						c-0.2,0-0.4,0.1-0.6,0.1c-0.1,0-0.2,0-0.2,0c0,0-0.1,0-0.1,0c0,0-0.1,0-0.1,0c-0.1,0-0.2,0-0.3,0c0,0,0,0,0,0
						c-0.1,0-0.2,0-0.3,0c-0.2,0-0.3,0-0.6,0.1c-0.2,0.1-0.3,0.1-0.5,0.1c-0.3,0-0.3,0-0.5,0.1c-0.1,0-0.5,0.2-0.4,0.2
						c0,0.1,0.1,0,0.2,0C91.6,6.2,91.6,6.2,91.7,6.2L91.7,6.2C91.7,6.2,91.7,6.2,91.7,6.2z"/>
					<path class="st1" d="M114.2,18.9c-1-0.1-2,0-2.3,0.8c0.2,0.1,0.3,0.3,0.5,0.3c-0.4,0.6-1.7,0.2-2.2-0.1
						c-0.8-0.5-0.9-0.7-1.9-0.9c-0.9-0.2-1.9-0.6-2.3-1.4c-0.4-0.7-0.1-1.4-1-1.7c-0.4-0.2-0.5-0.1-1,0c-0.6,0.2-0.5,0.4-1.2,0.5
						c-0.8,0.1-1.7,0-2.5,0c-0.7,0-1.5,0.1-2.2,0.4c-0.4,0.2-0.5,0.6-1.2,0.7c-0.4,0.1-0.9,0-1.3,0c-0.9-0.1-2.3-0.7-3.2,0.2
						c0,0,0,0,0,0l0,0c-0.4,0.5-0.1,0.7-0.7,1.1c-0.5,0.4-1.2,0.5-1.5,1c-0.1,0.2-0.2,0.4-0.3,0.5l0,0l0,0c0,0,0,0.1,0,0.1
						c0,0,0,0,0,0c-0.1,0.5,0,0.9-0.2,1.3c0,0,0,0,0,0c0,0,0,0.1-0.1,0.1c0,0,0,0,0,0c0,0-0.1,0.1-0.1,0.1c0,0,0,0,0,0
						c0,0-0.1,0.1-0.1,0.1c0,0,0,0-0.1,0c-0.1,0-0.1,0.1-0.2,0.1c-1.3,0.8-1.9,1-2.7,2.3c-0.7,1.1-1.8,1.9-2.4,3
						c-0.4,0.8-0.2,1.6-0.2,2.4c-0.1,1.8-1.7,2.7-0.6,4.6c0.4,0.7,1.1,1.3,1.5,2c0.4,0.8,0.5,1.7,0.8,2.5c0.6,1.5,3.2,3.6,4.7,4.2
						c1.2,0.5,1.8,0.2,2.7-0.3c0.9-0.5,1.8-0.3,2.8-0.3c1.6,0.1,2.4-1.8,4.3-0.9c0.9,0.4,0.8,1.1,1.9,1.3c1,0.2,1.8,0,2.3,1
						c0.7,1.3-0.2,2.7-0.2,4c0,1.3,1.2,1.3,1.7,2.4c0.4,0.8,0.4,1.8,0.8,2.6c0.8,1.6,1.1,2.4,0.4,4c-0.6,1.2-0.8,2.6,0.1,3.7
						c0.2,0.2,0.3,0.4,0.4,0.6c6.8-6.5,11.1-15.7,11.1-25.9C118.4,29.7,116.9,23.9,114.2,18.9z"/>
					<path class="st1" d="M59.3,8.7c-0.3,0.2-0.5,0.5-0.8,0.7C58.7,9.2,59.1,8.9,59.3,8.7z"/>
					<path class="st1" d="M73.1,69.3c0,0,0.1,0,0.3,0c0.4,0,1,0,1.3,0C75.5,69.3,74.1,69.3,73.1,69.3z"/>
					<path class="st1" d="M47.9,30.8c0.1,0,0.3-0.1,0.4,0c0.2,0,0.3,0.2,0.4,0.1c0.1-0.2,0.2-0.4,0.2-0.6c0-0.2-0.2-0.3-0.3-0.4
						c-0.2-0.2-0.5-0.3-0.7-0.5c-0.1-0.1-0.3-0.3-0.4-0.4c0,0.3-0.1,0.5-0.1,0.8c0,0.1,0.1,0.2,0.1,0.2c0,0.2-0.1,0.3-0.2,0.4
						c0,0.1,0,0.1,0,0.2c0,0,0,0,0,0C47.3,30.9,47.7,30.8,47.9,30.8z"/>
					<path class="st1" d="M48.9,31.9c0.2,0.1,0.6-0.2,0.8-0.2c0.1,0,0.1,0.1,0.1,0.1c0.1,0,0.2,0,0.3,0c0.2,0,0.4,0.1,0.6,0
						c0.1-0.1,0.3-0.4,0.2-0.5c0.3,0.1,0.2-0.3,0.1-0.4c-0.2-0.3-0.3-0.2-0.6-0.2c-0.2,0-0.6,0-0.7-0.2c0,0,0-0.1,0-0.1
						c-0.2,0-0.1,0.4-0.1,0.5c0,0.2,0.1,0.3-0.1,0.4c-0.2,0.1-0.3-0.1-0.5,0C48.7,31.6,48.7,31.9,48.9,31.9z"/>
					<path class="st1" d="M47.5,31.6C47.5,31.6,47.5,31.7,47.5,31.6C47.5,31.7,47.5,31.7,47.5,31.6C47.5,31.7,47.5,31.6,47.5,31.6z"
						/>
					<path class="st1" d="M47.3,32.1c0.1,0.1,0.2,0.2,0.4,0.1c0.1,0,0.2-0.1,0.1-0.3c-0.1-0.1-0.2,0-0.2-0.3c-0.1,0-0.3,0-0.4,0.1
						c0,0,0,0.1,0,0.1c0,0,0.1,0,0.1,0C47.2,32,47.2,32.1,47.3,32.1z"/>
					<path class="st1" d="M51.7,31.8c0,0.2,0.1,0.1,0.3,0.1c0.1,0.1,0.2,0.2,0.3,0.2c0.2,0,0.5-0.1,0.5-0.5c-0.3,0-0.3,0.2-0.6,0
						c0,0,0.1,0,0.1-0.1C52,31.4,51.8,31.5,51.7,31.8z"/>
					<path class="st1" d="M95.5,5.9c-0.2-0.1-0.4,0.1-0.6,0.2c-0.1,0.1-0.4,0.1-0.5,0.2c0,0.1,0.3,0.1,0,0.3c0,0-0.1,0.1-0.1,0.1
						C94.2,6.8,94.1,6.9,94,7c-0.1,0.1-0.1,0.3,0.1,0.3c0.3,0,0.4-0.2,0.6-0.3c0.4,0,0.8,0.1,1.2-0.1c0.2-0.1,0.4-0.4,0.4-0.5
						c0-0.1-0.2-0.1-0.3-0.2l0,0c-0.1,0-0.2,0-0.2-0.1C95.7,6.1,95.6,5.9,95.5,5.9C95.5,5.9,95.5,5.9,95.5,5.9z"/>
					<path class="st1" d="M96.1,5.7C96.1,5.7,96.1,5.8,96.1,5.7L96.1,5.7C96.2,5.8,96.1,5.7,96.1,5.7z"/>
					<path class="st1" d="M96.1,6c0.1,0.1,0.5,0.1,0.5-0.1c-0.2,0-0.1-0.1,0.1-0.1c0.1-0.2-0.5,0-0.6-0.1c-0.1,0-0.3,0-0.4,0
						C95.9,5.9,96,6,96.1,6z"/>
					<path class="st1" d="M98,6.5c-0.2,0.1-0.4,0-0.6,0.1c-0.1,0.1-0.1,0.1-0.2,0.2C97.2,6.9,97,7,96.9,7c0.2,0.1,1,0,0.8,0.3
						c-0.1,0.2-0.4,0.2-0.6,0.2c-0.1,0-0.6,0.1-0.7,0.2c-0.1,0.2,0.5,0.1,0.6,0.1c0.4-0.1,0.8-0.2,1.2-0.4c0.4-0.1,0.6,0,0.9,0
						c0.3,0,0.9-0.1,1.2-0.2c0.1-0.1,0.2-0.1,0.2-0.2c0-0.1-0.1-0.1-0.2-0.1c-0.1-0.2,0.3-0.2,0.2-0.3c0-0.1-0.3-0.1-0.5-0.1
						c-0.3,0-0.3-0.2-0.4-0.3c-0.1-0.2,0-0.4-0.1-0.6c-0.1-0.1-0.4-0.1-0.6-0.2c-0.1,0-0.4,0-0.4-0.1C98.5,5.2,98.9,5.1,99,5
						c0.2-0.1-0.1-0.1-0.3-0.2c-0.1,0-0.2,0-0.3,0c0,0,0-0.1,0-0.1c0,0,0,0,0,0c0,0,0,0,0,0c-0.1,0-0.2,0-0.3,0
						c-0.2,0-0.4,0.1-0.6,0.2c-0.1,0.1-0.1,0.3,0,0.3c0,0,0.1,0,0.1,0.1c0,0.1-0.1,0.1-0.1,0.2c0,0,0,0,0,0.1c0,0,0,0,0,0
						c0,0.1,0.3,0.1,0.4,0.1c0.2,0,0.2,0.1,0.3,0.2c0.1,0.1,0.1,0.2,0.1,0.3C98.3,6.3,98.2,6.4,98,6.5z"/>
				</g>
			</g>
		</g>
		<g>
			<path class="st2" d="M67,44.7c9.8-2.4,19.7,3.8,19.7,3.8s-16.4-2-26.8,5.8c0,0,11.7-2.5,26.8-5.8c0,0-5.8,10.3-15.6,12.7
				c-9.8,2.4-19.7-3.8-19.7-3.8S57.3,47.1,67,44.7z"/>
			<path class="st2" d="M79.1,27.3c7.9,8,7.7,21.1,7.7,21.1s-7.5-16.9-21-22.4c0,0,9.1,9.8,21,22.4c0,0-13.2,0.3-21.1-7.7
				c-8-8-7.7-21.1-7.7-21.1S71.2,19.4,79.1,27.3z"/>
			<path class="st2" d="M95.1,25.3c-8.7,8.7-8.4,23.1-8.4,23.1S95,30,109.8,24c0,0-10,10.8-23,24.5c0,0,14.4,0.3,23.1-8.4
				c8.7-8.7,8.4-23.1,8.4-23.1S103.8,16.6,95.1,25.3z"/>
		</g>
		<g>
			<text transform="matrix(1 0 0 1 0.6445 108.0367)" class="st3 st4 st5">gaiatree</text>
		</g>
	</g>
	<text transform="matrix(1 0 0 1 23.3919 120.7136)" class="st6 st7 st8">eco, natural &amp; handcraftship stores</text>
</g>
</svg>
