<?xml version="1.0" encoding="utf-8"?>
<!-- Generator: Adobe Illustrator 21.0.1, SVG Export Plug-In . SVG Version: 6.00 Build 0)  -->
<svg version="1.1" id="Layer_1" xmlns="http://www.w3.org/2000/svg" xmlns:xlink="http://www.w3.org/1999/xlink" x="0px" y="0px"
	 viewBox="0 0 420.2 300.3" style="enable-background:new 0 0 420.2 300.3;" xml:space="preserve">
<style type="text/css">
	.st0{fill:#486398;stroke:#486398;stroke-width:1.8745;stroke-miterlimit:10;}
	.st1{font-family:'Allegro';}
	.st2{font-size:114.3711px;}
	.st3{fill:#FDFDFD;}
	.st4{fill:#486398;}
	.st5{fill:#64BDBE;}
</style>
<g>
	<g>
		<text transform="matrix(1 0 0 1 0.9375 272.1407)" class="st0 st1 st2">Gaiatree</text>
		<g>
			<g>
				<path class="st3" d="M201.1,149.6c-0.3,0.2-0.6,0.4-0.8,0.6c0.1-0.1,0.2-0.1,0.3-0.2C200.7,149.9,200.9,149.8,201.1,149.6z"/>
				<path class="st4" d="M201.2,84.4c-10.6,2.8-20.2,7.7-28.4,14.7c-7.1,6.1-13.4,13-19,20.7c-6.5,8.9-11.5,18.5-15.4,28.8
					c-1.2,3.1-4.9,13.6-4.9,13.6l-2.3-6c0,0-7.4-17.6-12.1-25.9c-3.1-5.4-6.6-10.4-10.1-15.5c-8.4-11.7-18.3-21.9-30.1-30.2
					c-1.7-1.2-3.3-2.4-5-3.7c-4.2-3.3-8.4-6.5-14-7.5c-1.1,3.2-0.5,6-0.1,8.8c1.1,6.2,2.1,12.5,3.6,18.6c1.4,5.8,3.3,11.6,6,17
					c5.3,10.3,10.9,20.3,18.6,29.1c4.4,5.1,8.6,10.2,13.8,14.4c8.3,6.7,17.3,12.3,27,16.7c0.6,0.3,1.1,0.6,1.5,0.9
					c1-0.2,2-0.2,3-0.1c0.4-0.1,0.8-0.1,1.2-0.2c0-0.5,0-1.1,0-1.6c3.7-0.8,7.3-1.4,10.6-2.9c3.3-1.5,6.6-3.2,9.5-5.3
					c12.2-8.8,21.1-20.5,29-33.1c5.5-8.9,10.7-18,14.8-27.6c2.9-6.7,4.8-13.8,6-21C205,84.6,203.9,83.7,201.2,84.4z M62.5,76.6
					c35.7,22.1,58.2,53.3,68.7,93.5c-13-18.6-28.8-34.9-42.5-52.9c-0.9-0.3-1.4-1.6-2.6-1.2c5.7,9,12.6,17.1,19.4,25.1
					c9.1,10.8,17.1,22.4,25.6,33.6c0.2,0.3,0.2,0.9,0.3,1.4C95.9,163.9,63.7,117.4,62.5,76.6z M200.1,93.8c-1.7,6.6-4.1,13-7.1,19
					c-4.9,9.6-10,19.1-16.4,27.8c-1.5,2-3,4.1-4.3,6.2c-5,7.7-11.8,13.7-18.9,19.3c-3.9,3.2-8.5,5.8-14.8,7.1
					c5.2-5.5,8.7-10.9,12.5-16c1.8-2.4,3.7-4.8,5.2-7.4c4.3-7.6,9.6-14.5,14-22.1c3.1-5.3,7.5-9.8,10.6-15.1
					c0.2-0.3,0.3-0.6,0.4-0.8c-0.2-0.1-0.4-0.3-0.5-0.5c-6.2,6-10.4,13.6-15.4,20.4c-5.6,7.5-9.7,16-15.9,23.1
					c-2.7,3.1-4.9,6.6-7.2,10.1c-1.8,2.7-4,4.9-7,7c0.4-6.6,2.3-12.5,4.2-18.3c3-9,7.1-17.6,12.3-25.6c4.9-7.6,10.5-14.6,17-21
					c6.4-6.3,13.5-11.5,21.5-15.3c3.3-1.6,6.6-2.9,10.3-3.6C201.2,90.2,200.5,92,200.1,93.8z"/>
			</g>
		</g>
	</g>
	<g>
		<g>
			<path class="st3" d="M191,27.9c-0.1,0-0.1,0-0.2,0c0,0,0.1,0,0.1,0C190.9,27.9,190.9,27.9,191,27.9z"/>
			<path class="st4" d="M197.1,15.4c-2.3-0.5-4.6-0.4-6.8,0.1c-1.9,0.5-3.8,1.2-5.6,2.2c-2.1,1.1-4,2.5-5.7,4.1
				c-0.5,0.5-1.7,1.6-1.7,1.6l-0.4-0.8c0,0,0.2-4.1,0.1-6.1c-0.1-1.3-0.3-2.6-0.5-3.9c-0.5-3-1.4-5.9-2.9-8.6
				c-0.2-0.4-0.4-0.8-0.6-1.2c-0.5-1-1-2-2-2.8c-0.5,0.5-0.7,1.1-0.8,1.7c-0.4,1.3-0.8,2.6-1.1,3.9c-0.3,1.3-0.5,2.5-0.4,3.8
				c0,2.5,0.2,4.9,0.8,7.3c0.4,1.4,0.7,2.8,1.3,4.1c1,2.1,2.2,4,3.6,5.7c0.1,0.1,0.2,0.2,0.2,0.3c0.2,0.1,0.4,0.1,0.6,0.3
				c0.1,0,0.2,0,0.2,0.1c0-0.1,0.1-0.2,0.1-0.3c0.8,0.2,1.5,0.4,2.3,0.4c0.8,0,1.6,0,2.3-0.1c3.2-0.5,6-1.9,8.7-3.6
				c1.9-1.2,3.7-2.4,5.4-3.9c1.2-1,2.2-2.2,3.1-3.5C197.8,15.8,197.7,15.5,197.1,15.4z M171.3,0.8c4.8,7.6,6.1,15.7,4.4,24.4
				c-0.7-4.8-2.2-9.4-3.2-14.2c-0.2-0.1-0.1-0.4-0.4-0.5c0.3,2.3,0.8,4.5,1.4,6.6c0.7,2.9,1.2,5.9,1.8,8.9c0,0.1,0,0.2-0.1,0.3
				C169.4,20.7,167.6,8.7,171.3,0.8z M196,17.1c-0.9,1.1-2,2.1-3.2,3c-1.8,1.4-3.7,2.7-5.8,3.8c-0.5,0.3-1,0.5-1.4,0.8
				c-1.7,1-3.6,1.5-5.4,1.9c-1.1,0.2-2.2,0.3-3.5,0c1.5-0.6,2.7-1.3,3.9-1.9c0.6-0.3,1.2-0.6,1.7-0.9c1.5-1,3.2-1.9,4.8-2.9
				c1.1-0.7,2.4-1.2,3.5-1.9c0.1,0,0.1-0.1,0.2-0.1c0,0-0.1-0.1-0.1-0.2c-1.8,0.6-3.3,1.6-4.9,2.5c-1.8,0.9-3.4,2.1-5.2,2.9
				c-0.8,0.3-1.6,0.8-2.3,1.3c-0.6,0.4-1.2,0.6-2,0.7c0.7-1.2,1.6-2.2,2.5-3.1c1.4-1.4,3-2.7,4.8-3.8c1.7-1,3.4-1.8,5.2-2.4
				c1.8-0.6,3.7-0.9,5.6-0.9c0.8,0,1.5,0.1,2.3,0.3C196.6,16.5,196.3,16.8,196,17.1z"/>
		</g>
	</g>
	<g>
		<g>
			<path class="st5" d="M138.1,51c-0.1,0.1-0.1,0.2-0.2,0.3c0,0,0-0.1,0.1-0.1C138,51.1,138,51,138.1,51z"/>
			<path class="st5" d="M130,30.6c-3,2.2-5.4,4.9-7.1,8.2c-1.5,2.8-2.6,5.7-3.3,8.8c-0.9,3.6-1.3,7.2-1.2,10.9
				c0,1.1,0.1,3.6,0.1,3.6l-1.4-0.3c0,0-4.5-4.6-7-6.6c-1.6-1.3-3.4-2.4-5.1-3.6c-4.1-2.6-8.5-4.6-13.2-5.7c-0.7-0.2-1.3-0.3-2-0.5
				c-1.7-0.5-3.4-1-5.3-0.6c0.1,1.1,0.6,1.9,1.1,2.8c1.1,1.8,2.2,3.6,3.5,5.4c1.2,1.6,2.5,3.2,4,4.5c2.9,2.6,6,5,9.5,6.8
				c2,1,4,2.1,6.1,2.8c3.4,1.1,7,1.7,10.5,1.8c0.2,0,0.4,0,0.6,0.1c0.3-0.2,0.6-0.3,0.9-0.4c0.1-0.1,0.2-0.1,0.3-0.2
				c-0.1-0.2-0.1-0.3-0.2-0.5c1.1-0.7,2.1-1.4,3-2.2c0.8-0.9,1.7-1.8,2.3-2.8c2.7-4.3,4-9.1,4.9-14c0.6-3.5,1.1-7,1.2-10.5
				c0.1-2.5-0.2-4.9-0.8-7.3C131.2,30.2,130.7,30,130,30.6z M85.6,45.5c13.9,2.4,24.9,9.4,33.2,20.6c-6.4-4.2-13.4-7.3-19.9-11.2
				c-0.3,0-0.6-0.3-1-0.1c2.9,2.1,6.1,3.8,9.2,5.4c4.2,2.2,8.2,4.8,12.2,7.3c0.1,0.1,0.2,0.3,0.3,0.4C107,68.6,91.1,58.1,85.6,45.5z
				 M130.8,33.6c0.3,2.3,0.4,4.6,0.2,6.8c-0.3,3.6-0.7,7.2-1.6,10.7c-0.2,0.8-0.4,1.7-0.6,2.5c-0.6,3-2,5.8-3.5,8.4
				c-0.8,1.5-1.9,2.9-3.7,4.1c0.9-2.4,1.4-4.5,1.9-6.6c0.3-1,0.6-2,0.7-3c0.4-2.9,1.2-5.7,1.6-8.7c0.3-2.1,1.1-4,1.4-6.1
				c0-0.1,0-0.2,0-0.3c-0.1,0-0.2,0-0.2-0.1c-1.2,2.7-1.5,5.5-2.3,8.3c-0.8,3.1-1,6.2-2.1,9.2c-0.4,1.3-0.7,2.7-1,4
				c-0.2,1.1-0.6,2-1.3,3.1c-0.7-2.1-0.9-4.2-1-6.3c-0.2-3.2,0-6.4,0.6-9.5c0.6-3,1.5-5.9,2.7-8.7c1.2-2.8,2.8-5.3,4.8-7.5
				c0.8-0.9,1.7-1.8,2.8-2.4C130.7,32.4,130.7,33,130.8,33.6z"/>
		</g>
	</g>
</g>
</svg>
