<?xml version="1.0" encoding="utf-8"?>
<!-- Generator: Adobe Illustrator 21.0.1, SVG Export Plug-In . SVG Version: 6.00 Build 0)  -->
<svg version="1.1" id="Warstwa_1" xmlns="http://www.w3.org/2000/svg" xmlns:xlink="http://www.w3.org/1999/xlink" x="0px" y="0px"
	 viewBox="0 0 464.1 129.1" style="enable-background:new 0 0 464.1 129.1;" xml:space="preserve">
<style type="text/css">
	.st0{fill:#ED1C24;}
	.st1{fill:#58595B;}
</style>
<g>
	<g>
		<path d="M88.5,128.6c0,0.1,0,0.1-0.1,0.2c0,0.1-0.1,0.1-0.2,0.1c-0.1,0-0.2,0.1-0.4,0.1c-0.2,0-0.4,0-0.6,0c-0.3,0-0.5,0-0.6,0
			c-0.2,0-0.3,0-0.4-0.1c-0.1,0-0.2-0.1-0.2-0.1c0-0.1-0.1-0.1-0.1-0.2v-9.4h-14v9.4c0,0.1,0,0.1-0.1,0.2c0,0.1-0.1,0.1-0.2,0.1
			c-0.1,0-0.2,0.1-0.4,0.1c-0.2,0-0.4,0-0.6,0c-0.2,0-0.5,0-0.6,0c-0.2,0-0.3,0-0.4-0.1c-0.1,0-0.2-0.1-0.2-0.1
			c0-0.1-0.1-0.1-0.1-0.2v-19.5c0-0.1,0-0.1,0.1-0.2c0-0.1,0.1-0.1,0.2-0.1c0.1,0,0.2-0.1,0.4-0.1c0.2,0,0.4,0,0.6,0
			c0.3,0,0.5,0,0.6,0c0.2,0,0.3,0,0.4,0.1c0.1,0,0.2,0.1,0.2,0.1c0,0,0.1,0.1,0.1,0.2v8.4h14v-8.4c0-0.1,0-0.1,0.1-0.2
			c0-0.1,0.1-0.1,0.2-0.1c0.1,0,0.2-0.1,0.4-0.1c0.2,0,0.4,0,0.6,0c0.2,0,0.5,0,0.6,0c0.2,0,0.3,0,0.4,0.1c0.1,0,0.2,0.1,0.2,0.1
			c0,0,0.1,0.1,0.1,0.2V128.6z"/>
		<path d="M186,128.6c0,0.1,0,0.1-0.1,0.2c0,0.1-0.1,0.1-0.2,0.1c-0.1,0-0.2,0.1-0.4,0.1c-0.2,0-0.4,0-0.6,0c-0.2,0-0.5,0-0.6,0
			c-0.2,0-0.3,0-0.4-0.1c-0.1,0-0.2-0.1-0.2-0.1c0-0.1-0.1-0.1-0.1-0.2v-19.5c0-0.1,0-0.1,0.1-0.2c0-0.1,0.1-0.1,0.2-0.1
			c0.1,0,0.2-0.1,0.4-0.1c0.2,0,0.4,0,0.6,0c0.3,0,0.5,0,0.6,0c0.2,0,0.3,0,0.4,0.1c0.1,0,0.2,0.1,0.2,0.1c0,0,0.1,0.1,0.1,0.2
			V128.6z"/>
		<path d="M303,111.3c0,0.1,0,0.3,0,0.4c0,0.1-0.1,0.2-0.1,0.3c0,0.1-0.1,0.1-0.2,0.2c-0.1,0-0.2,0.1-0.3,0.1
			c-0.2,0-0.5-0.1-0.9-0.3c-0.4-0.2-0.9-0.4-1.6-0.7c-0.7-0.2-1.5-0.5-2.4-0.7c-0.9-0.2-2.1-0.3-3.4-0.3c-1.7,0-3.1,0.2-4.4,0.7
			c-1.3,0.4-2.4,1-3.3,1.8c-0.9,0.8-1.6,1.7-2,2.7c-0.5,1.1-0.7,2.2-0.7,3.4c0,1.4,0.3,2.6,0.8,3.6c0.5,1.1,1.3,2,2.2,2.7
			c0.9,0.7,2.1,1.3,3.4,1.7c1.3,0.4,2.7,0.6,4.3,0.6c1,0,2-0.1,3-0.3c1-0.2,2-0.4,2.9-0.8v-6.5h-7.2c-0.2,0-0.4-0.1-0.5-0.2
			c-0.1-0.1-0.2-0.3-0.2-0.6c0-0.1,0-0.3,0-0.4c0-0.1,0.1-0.2,0.1-0.3c0.1-0.1,0.1-0.1,0.2-0.2c0.1,0,0.2-0.1,0.3-0.1h8.6
			c0.1,0,0.3,0,0.4,0c0.1,0,0.3,0.1,0.4,0.2c0.1,0.1,0.2,0.2,0.3,0.3c0.1,0.1,0.1,0.3,0.1,0.5v7.5c0,0.2-0.1,0.5-0.2,0.6
			c-0.1,0.2-0.4,0.3-0.7,0.5c-0.4,0.2-0.9,0.3-1.6,0.5c-0.6,0.2-1.3,0.4-2,0.5c-0.7,0.1-1.4,0.2-2.1,0.3c-0.7,0.1-1.4,0.1-2.1,0.1
			c-2.1,0-4-0.2-5.7-0.7c-1.7-0.5-3.1-1.2-4.2-2.1c-1.1-0.9-2-2-2.6-3.2c-0.6-1.2-0.9-2.6-0.9-4.1c0-1.6,0.3-3,1-4.3
			c0.7-1.3,1.6-2.4,2.8-3.3c1.2-0.9,2.6-1.6,4.3-2.1c1.7-0.5,3.5-0.8,5.5-0.8c1,0,2,0.1,2.9,0.2c0.9,0.1,1.7,0.3,2.4,0.5
			c0.7,0.2,1.3,0.4,1.8,0.6c0.5,0.2,0.8,0.4,1,0.5c0.2,0.1,0.3,0.3,0.4,0.4C302.9,110.9,303,111.1,303,111.3"/>
		<path d="M410.6,128.6c0,0.1,0,0.1-0.1,0.2c0,0.1-0.1,0.1-0.2,0.1c-0.1,0-0.2,0.1-0.4,0.1c-0.2,0-0.4,0-0.6,0c-0.3,0-0.5,0-0.6,0
			c-0.2,0-0.3,0-0.4-0.1c-0.1,0-0.2-0.1-0.2-0.1c0-0.1-0.1-0.1-0.1-0.2v-9.4h-14v9.4c0,0.1,0,0.1-0.1,0.2c0,0.1-0.1,0.1-0.2,0.1
			c-0.1,0-0.2,0.1-0.4,0.1c-0.2,0-0.4,0-0.6,0c-0.2,0-0.5,0-0.6,0c-0.2,0-0.3,0-0.4-0.1c-0.1,0-0.2-0.1-0.2-0.1
			c0-0.1-0.1-0.1-0.1-0.2v-19.5c0-0.1,0-0.1,0.1-0.2c0-0.1,0.1-0.1,0.2-0.1c0.1,0,0.2-0.1,0.4-0.1c0.2,0,0.4,0,0.6,0
			c0.3,0,0.5,0,0.6,0c0.2,0,0.3,0,0.4,0.1c0.1,0,0.2,0.1,0.2,0.1c0,0,0.1,0.1,0.1,0.2v8.4h14v-8.4c0-0.1,0-0.1,0.1-0.2
			c0-0.1,0.1-0.1,0.2-0.1c0.1,0,0.2-0.1,0.4-0.1c0.2,0,0.4,0,0.6,0c0.2,0,0.5,0,0.6,0c0.2,0,0.3,0,0.4,0.1c0.1,0,0.2,0.1,0.2,0.1
			c0,0,0.1,0.1,0.1,0.2V128.6z"/>
		<path class="st0" d="M66.7,56.6c-0.3-2.4-0.9-4.4-1.9-6.2c-0.9-1.7-2.2-3.2-3.8-4.3c-1.6-1.1-3.7-2-6.3-2.7
			c2.2-0.6,3.9-1.4,5.3-2.4c1.3-1,2.4-2.4,3.2-4c0.8-1.6,1.3-3.5,1.5-5.8c0.2-2.2,0.4-4.8,0.4-7.8c0-4.4-0.3-8.1-1-10.9
			c-0.6-2.8-1.9-5.1-3.6-6.7c-1.8-1.6-4.2-2.7-7.2-3.4c-3-0.6-6.9-1-11.7-1H20v9.3h17.6c3.8,0,6.8,0.1,9.2,0.4
			c2.3,0.3,4.1,0.9,5.3,1.8c1.2,0.9,2,2.3,2.4,4.1c0.4,1.8,0.5,4.3,0.5,7.3c0,2.8-0.1,5.2-0.4,7.2c-0.3,1.9-0.9,3.5-1.8,4.7
			c-0.9,1.2-2.3,2-4,2.5c-1.4,0.4-3.3,0.6-5.4,0.7v9.2c1.2,0.1,2.3,0.1,3.3,0.2c2.7,0.2,4.8,0.9,6.4,1.9c1.6,1.1,2.6,2.6,3.2,4.6
			c0.6,2,0.8,4.8,0.8,8.2c0,3.1-0.1,5.7-0.3,7.8c-0.2,2.1-0.8,3.9-1.8,5.2c-1,1.3-2.4,2.3-4.4,2.8c-2,0.6-4.7,0.8-8.3,0.8H20v9.2
			h18.5c5.6,0,10.2-0.3,13.9-1c3.7-0.7,6.6-1.9,8.9-3.8c2.2-1.8,3.8-4.3,4.7-7.5c0.9-3.2,1.3-7.3,1.3-12.3
			C67.2,61.7,67,58.9,66.7,56.6"/>
		<polygon class="st1" points="33.6,39.8 10.2,39.8 10.2,1.4 0,1.4 0,90.2 10.2,90.2 10.2,48.8 33.6,48.8 		"/>
		<path class="st1" d="M314.7,62.3V64c0,4.7,0.3,8.5,1,11.4c0.7,2.8,2.1,4.8,4.2,6c2,1.2,5.1,1.8,9.3,2c4.2,0.2,9.6,0.3,16.3,0.3
			c4.7,0,8.6-0.3,11.6-0.9c3-0.6,5.2-1.7,6.7-3.4c1.5-1.6,2.2-5.6,2.2-12.1c0-2.8-0.1-5.2-0.3-7.1c-0.2-1.9-0.6-3.5-1.2-4.7
			c-0.7-1.2-1.7-2.1-3-2.7c-1.3-0.6-3.2-1-5.6-1.2l-28-2.2c-4-0.3-7.4-1-10.2-1.9c-2.8-0.9-5.1-2.3-6.9-4.1
			c-1.8-1.8-3.1-4.2-3.9-7.2c-0.8-3-1.2-6.6-1.2-10.9c0-4.9,0.5-9,1.4-12.4c1-3.3,2.7-6.1,5.3-8.4c2.4-2.2,5.7-3.5,9.8-3.9
			c4.1-0.4,9.2-0.6,15.3-0.6h3.2c3.3,0,6.4,0,9.2,0.1c2.8,0.1,5.4,0.3,7.8,0.7c2.4,0.4,4.6,1,6.6,1.8c2,0.8,3.9,2,5.6,3.4
			c3.4,2.9,5.1,8.4,5.1,16.4v2.1c0,0.7,0,1.5-0.1,2.2H365v-2.2c0-2.9-0.2-5.3-0.5-7.2c-0.3-1.9-1-3.4-2-4.4
			c-1.6-1.6-4.4-2.5-8.5-2.9c-4.1-0.3-9.6-0.5-16.6-0.5c-4.1,0-7.5,0.1-10.2,0.4c-2.7,0.3-4.9,1-6.5,2c-1.6,1-2.8,2.6-3.5,4.7
			c-0.7,2.1-1.1,5-1.1,8.7c0,2.7,0.2,4.8,0.5,6.6c0.3,1.7,0.9,3.1,1.8,4.2c0.9,1.1,2,1.9,3.5,2.4c1.5,0.5,3.3,0.9,5.6,1.1l28.6,2.4
			c3.8,0.3,7,1,9.6,2.1c2.6,1,4.7,2.5,6.2,4.4c1.6,1.9,2.7,4.2,3.4,7c0.7,2.8,1,6.2,1,10.2c0,4.7-0.3,8.8-0.9,12.2
			c-0.6,3.4-2,6.3-4.1,8.7c-1.4,1.7-3.1,2.9-5,3.8c-1.9,0.9-4.1,1.5-6.4,2c-2.4,0.5-5,0.7-8,0.8c-3,0.1-6.2,0.1-9.8,0.1h-4.5
			c-5.9,0-11-0.3-15.3-0.8c-4.3-0.5-8-2.2-11.1-4.9c-2.4-2.1-4.1-4.8-5.1-8.2c-1-3.4-1.5-7.5-1.5-12.4v-2.2c0-0.7,0-1.5,0.1-2.2
			H314.7z"/>
		<polygon class="st1" points="396.2,1.1 464.1,1.1 464.1,10.7 435.2,10.7 435.2,91.9 425.1,91.9 425.1,10.7 396.2,10.7 		"/>
		<path class="st1" d="M168.5,16.3c-1.1-4-3-7.1-5.5-9.5c-2.5-2.4-5.9-4.1-10.1-5.2c-4.2-1-9.3-1.6-15.4-1.6H126
			c-6.1,0-11.2,0.5-15.4,1.6c-4.2,1-7.5,2.8-10.1,5.2c-2.6,2.5-4.4,5.7-5.6,9.6s-1.7,8.8-1.7,14.7v30.8c0,2,0.1,3.9,0.2,5.7H104
			c-0.2-2.4-0.3-5.1-0.3-8.2V33.7c0-4.9,0.3-8.9,0.7-12.1c0.5-3.2,1.9-5.7,4.1-7.6c2.6-2.2,5.5-3.5,8.7-3.9
			c3.2-0.4,7.1-0.6,11.6-0.6h5.6c4.5,0,8.4,0.2,11.7,0.6c3.3,0.4,6.2,1.6,8.7,3.8c2.2,1.9,3.6,4.5,4.1,7.7c0.5,3.2,0.7,7.2,0.7,12
			v25.8c0,4.8-0.2,8.8-0.7,12c-0.5,3.2-1.8,5.7-4.1,7.6c-2.6,2.2-5.5,3.5-8.8,3.9c-3.3,0.4-7.2,0.6-11.7,0.6h-5.6
			c-4.5,0-8.4-0.2-11.6-0.6c-0.3,0-0.6-0.1-0.9-0.2v9.7c2.9,0.4,6.1,0.5,9.7,0.5h11.5c6.1,0,11.2-0.5,15.4-1.6
			c4.2-1,7.5-2.8,10.1-5.2c2.6-2.5,4.4-5.7,5.6-9.6c1.1-4,1.7-8.8,1.7-14.7V31.1C170.2,25.2,169.7,20.2,168.5,16.3"/>
		<path class="st1" d="M274,16.3c-1.1-4-3-7.1-5.5-9.5c-2.5-2.4-5.9-4.1-10.1-5.2C254.2,0.5,249,0,243,0h-11.5
			c-6.1,0-11.2,0.5-15.3,1.6c-4.2,1-7.5,2.8-10.1,5.2c-2.6,2.5-4.4,5.7-5.6,9.6c-1.1,4-1.7,8.8-1.7,14.7v30.8c0,2,0.1,3.9,0.2,5.7
			h10.5c-0.2-2.4-0.3-5.1-0.3-8.2V33.7c0-4.9,0.2-8.9,0.7-12.1c0.5-3.2,1.9-5.7,4.1-7.6c2.6-2.2,5.5-3.5,8.7-3.9
			c3.2-0.4,7.1-0.6,11.6-0.6h5.6c4.5,0,8.4,0.2,11.7,0.6c3.3,0.4,6.2,1.6,8.7,3.8c2.2,1.9,3.6,4.5,4.1,7.7c0.5,3.2,0.7,7.2,0.7,12
			v25.8c0,4.8-0.2,8.8-0.7,12c-0.5,3.2-1.8,5.7-4.1,7.6c-2.6,2.2-5.5,3.5-8.8,3.9c-3.3,0.4-7.2,0.6-11.7,0.6h-5.6
			c-4.5,0-8.4-0.2-11.6-0.6c-0.3,0-0.6-0.1-0.9-0.2v9.7c2.9,0.4,6.1,0.5,9.7,0.5H243c6.1,0,11.2-0.5,15.4-1.6
			c4.2-1,7.5-2.8,10.1-5.2c2.6-2.5,4.4-5.7,5.6-9.6c1.1-4,1.7-8.8,1.7-14.7V31.1C275.7,25.2,275.1,20.2,274,16.3"/>
	</g>
</g>
</svg>
