<?xml version="1.0" encoding="utf-8"?>
<!-- Generator: Adobe Illustrator 21.0.1, SVG Export Plug-In . SVG Version: 6.00 Build 0)  -->
<svg version="1.1" id="Layer_1" xmlns="http://www.w3.org/2000/svg" xmlns:xlink="http://www.w3.org/1999/xlink" x="0px" y="0px"
	 viewBox="0 0 258.3 92.8" style="enable-background:new 0 0 258.3 92.8;" xml:space="preserve">
<style type="text/css">
	.st0{opacity:0.85;}
	.st1{fill:#D3B391;}
	.st2{opacity:0.3;fill:#FFFFFF;enable-background:new    ;}
	.st3{opacity:0.3;fill:#D3B391;enable-background:new    ;}
	.st4{opacity:0.32;fill:#FFFFFF;enable-background:new    ;}
	.st5{opacity:0.32;fill:#D3B391;enable-background:new    ;}
	.st6{opacity:0.35;fill:#FFFFFF;enable-background:new    ;}
</style>
<g>
	<g class="st0">
		<path class="st1" d="M143.5,74.6c-0.4-0.1-0.6-0.7-0.1-0.9c-0.3,0.6,0.3,0.4,0.6,0.4l-0.1-0.1c0.3,0.1,0.3,0.5,0.5,0.4
			c-0.4,0-0.8,0.5-0.3,0.8c0.4,0.1,0.4,0,0.7-0.1l-0.2-0.1c0.1,0.2,0.7,0.1,0.7,0.4c1.1,0,1.3-1.2,2.1-1.6c-0.5,0.4-0.3,0.9-0.9,1.2
			c-0.7,0.4-1.8,0.6-2.6,0.4C143.7,75,142.8,74.6,143.5,74.6z"/>
		<path class="st1" d="M144.8,72.6c0.4-0.2,1.2-0.2,1.4,0.1c-0.7-0.8-1.1,0.8-1.6,0.1c-0.4,0.2-0.7,0.5-1.2,0.7
			C143.9,73.4,143.9,72.4,144.8,72.6z"/>
		<path class="st1" d="M146.4,72.8c0.1-0.1,0.3-0.2,0.5-0.2l-0.6,0.4C146.3,72.9,146.7,72.9,146.4,72.8z"/>
		<path class="st1" d="M147.2,73.2c-0.2,0.3-0.3,0.1-0.7,0.1L147.2,73.2z"/>
		<path class="st1" d="M147.2,69.2c0.4-0.7,1.3-1,2.1-1.1l1.3,0.1c-0.1,0.4,0,0.7,0.4,0.4c0.2-0.2,0.2-0.5,0-0.7
			c0.3,0,0.5-0.4,0.8-0.2c-0.5-0.8-0.4-1.6,0.1-2.4l0.6,0.1c-0.2-1.3,1.2-0.9,1.8-1.8c1.1-1.8,1.7,0.2,2.8-1.5
			c-0.1,0.4-0.4,1.1,0.4,1c0.5-0.1,0.4-0.9,1-1.1c0.5,0.5-1.3,1.8,0.4,1.7c0.6-0.3,1.2,0,1.8,0c1.2-1.1,3.3-0.6,4.1-2.3
			c-0.5,0.6,0.4,0.7,0.7,1c1,0,1.3-0.8,2-1.1c0.3,0.3,0.7,0,0.8,0.6c-1.1,0.5-2.3,0.9-3.3,1.7c0.2,0.5-0.1,1.1,0.6,1.2
			c1.7,0.2,3.8,1.1,5,0.8c-2.6,0.7-5,2-7.6,2.8c0.2,1.3,1.6-0.4,1.8,0.3c-0.8,0.4-0.3,1.1-0.4,1.7l-2.4,0.9
			c-0.2,0.3,0.1,0.4,0.1,0.7c-0.7,0.9-2.3-0.3-2.9,0.9c-1,0.1-1.6-0.6-2.6-0.2c-0.1,0.7,0.8-0.1,1.2,0.3c-0.2,0.3-1,0-1,0.6
			c0.7,0.4,2,0,2.1,0.9c-0.7-0.1-0.4,0.7-1,0.8c0,0.5,0.6,0.4,0.9,0.2c-0.1,0.5-0.9,0.2-1.1,0.5c0.2,0.4,1-0.1,0.6,0.5
			c-0.3,0-0.8,0.1-1,0.3c0.1,0.4,0.6,0,0.8,0.3c-1.9,0.2-3.7,1.5-5.7,0.8c-0.8-0.3-1.5-1-1.8-1.6c0.2-0.6-0.2-1.8,0.8-2
			c0.2-0.5,0.9-0.9,1.5-1.2c-0.4-0.1-1-0.3-0.9-0.8c1.1-0.4,2,0.8,3.1,0.4c-0.5-0.4-1.1-1.1-1.8-1c-0.6-0.5-0.2-1.6-1.2-1.5
			c0.1-0.1,0.2-0.3,0.2-0.4c-0.3-0.2-0.5-0.2-0.9-0.4c-0.4,1-1.9,1.8-3.1,1.3C147.2,70.6,146.9,69.8,147.2,69.2z"/>
		<path class="st2" d="M147,68.8c0.6,0,0.5-0.3,0.9-0.6v0.2c0.6,0.2,0.3-0.9,1.1-0.3c0.2,0-0.4,0.1-0.2,0.3c0.3,0.1,0.2-0.3,0.4-0.1
			c-0.1,0.1-0.4,0.4-0.5,0.6c0.3,0.3,0.3,0.6,0.6,1v-0.4c-0.1,0.3,0.2,0.4,0.4,0.7c-0.5,0.3-0.9,0.1-1.5,0.4
			c0.6-0.3-0.3-0.1-0.4-0.5c0.1,0.4-0.4,0.5-0.5,0.3l0.2-0.1l-0.3-0.3h0.1c-0.7-0.5,0.6,0.1,0.1-0.5l-0.5,0.2L147,68.8z"/>
		<path class="st3" d="M148,67.2c-0.1-0.2-0.2,0-0.2-0.3c0.2,0.1,0.1-0.1,0-0.2c0.6,0.2-0.1,0.5,0.4,0.7c-0.2,0.2-0.3,0.2-0.5,0.2
			C147.7,67.3,147.8,67.4,148,67.2z"/>
		<path class="st3" d="M148.6,67.6c-0.1,0-0.6,0.1-0.4,0.3l0.3-0.5L148.6,67.6z"/>
		<path class="st2" d="M152.2,74.9c0.7,0.1,0.7,0.3,1.6,0.4c0.1-0.2-0.4-0.4,0.1-0.5l-0.1,0.2c0.8,0.6,0.7-0.9,1.5-0.4l-0.1-0.1
			c0.5-0.2,0.4,0.1,1.1-0.3c-0.4,0.2-0.3,0.4,0,0.7c-0.5-0.1-0.9,0.7-1.4,0.2l0.3-0.2c-0.7,0-1.3,0.8-1.6,0.7l0.1-0.1
			c-0.5,0-1.4-0.5-1.4,0C152.3,75.3,152.4,75,152.2,74.9z"/>
		<polygon class="st2" points="149.8,67.5 149.6,67.4 149.9,67.2 		"/>
		<path class="st2" d="M153.2,76.7l-0.1-0.1c0.6-0.4,0.1,0.5,0.6,0.5C153.3,77,153,77.1,153.2,76.7z"/>
		<polygon class="st2" points="153.7,74.6 153.9,74.8 153.7,74.8 		"/>
		<polygon class="st2" points="154.8,77.6 154.5,77.8 154.6,77.5 		"/>
		<polygon class="st2" points="155,74.3 154.7,74.4 154.8,74.3 		"/>
		<polygon class="st2" points="155.1,74 154.6,74.2 154.8,74.1 		"/>
		<path class="st3" d="M155.5,77.1l-0.1-0.2L155.5,77.1z"/>
		<polygon class="st2" points="155.2,73.9 155.4,73.8 155.2,74.2 155.3,73.9 		"/>
		<path class="st2" d="M155.4,73.6l0.5-0.2L155.4,73.6z"/>
		<polygon class="st2" points="156.4,75.1 156.3,75.2 156.3,75.1 		"/>
		<polygon class="st2" points="156.4,74 156,74 156,74 		"/>
		<path class="st2" d="M156.7,75c0.3-0.1,0,0.1,0,0.2C156.6,75.1,156.6,75,156.7,75z"/>
		<path class="st2" d="M157.1,74.3l0.1-0.3l-0.4,0.1c0.3-0.5,0.4,0,0.6,0.2c-0.4,0.1-0.6,0.3-1,0C156.7,74.4,156.9,74.5,157.1,74.3z
			"/>
		<path class="st2" d="M156.4,73.7c0.2,0,0,0.1,0,0.2C156.4,73.8,156.4,73.8,156.4,73.7z"/>
		<path class="st2" d="M157,73.4C157.3,73.4,157.1,73.5,157,73.4C157,73.4,157,73.4,157,73.4z"/>
		<polygon class="st1" points="163.6,72.4 163.6,72.6 163.5,72.5 		"/>
		<polygon class="st2" points="161.8,68.1 161.8,68 162,68 162,68 		"/>
		<path class="st2" d="M164.3,61.7c0.1,0,0.1,0,0.1,0.1c-0.1,0.1-0.3,0.3-0.4,0.2C164,61.9,164.3,61.9,164.3,61.7z"/>
		<path class="st2" d="M165.3,62.8c-0.1,0.1,0.1,0.3,0.3,0.3C165.3,63.4,165.3,63.1,165.3,62.8z"/>
		<path class="st2" d="M166.4,63L166.4,63L166.4,63z"/>
		<path class="st1" d="M173.9,63.2c2-0.1,3.1-1.4,4.6-2c0.2-1,1.6-1.8,2.7-1.7c-0.3,0.2-1.3,0.2-1,0.8c1.2-0.7,0.5,0.5,1.7-0.3
			l-0.2-0.5c1.4,0.5,2.6,1.4,4.2,0.3c1.1-0.4,2.6-1,3.8-1.2c0.7-0.2,0.5,0.3,0.5,0.7c-2.3,1.4-5.7,1.2-7.3,3
			c-1.2,1.1-2.1-0.6-3.3-0.1c0.1,0.2,0.2,0,0.4,0c-0.7,0.1,0.3,0.9-0.5,0.7c1,0,2,0.6,3,0.2c-3.5,0.2-7.1,0.6-10.3,1.3
			C172.5,63.8,173.7,64,173.9,63.2z"/>
		<polygon class="st4" points="176.3,60.3 176.3,60.2 176.6,60.1 176.6,60.2 		"/>
		<path class="st1" d="M180.8,67.9c1.2-0.8,2.4,0,3.6,0c-0.1,0.5-0.8,0.6-0.9,1c0.2-0.3,0.1-0.3-0.1-0.7v0.1
			c0.2,0.1,0.3-0.1,0.3-0.2c-0.5-0.4-1.3-0.6-1.7-0.5l-0.2,0.5v-0.5c-0.6,0.2-1.3,0.4-1.6,0.9c0.4,0.2,1,0.7,0.6,1.1
			C180.3,69.3,179.8,68.4,180.8,67.9z"/>
		<path class="st4" d="M177.5,59.4c0.2,0.6-0.6,0.1-0.6,0.6C176.7,59.5,177.6,59.5,177.5,59.4z"/>
		<path class="st1" d="M182.9,69.4c-0.5,0-0.9,0.5-1.5,0.3C182.2,69.9,182,69.1,182.9,69.4z"/>
		<path class="st4" d="M178.5,59.5l-0.1,0.2c0.4-0.2,0.6,0.6,1,0c-0.1,0-0.1-0.1-0.2-0.2c0.8,0.1,0.2,0.8-0.2,0.8
			c0.1-0.3-0.6-0.2-0.9-0.3c0.1,0.3-0.1,0.7-0.7,0.4C177.6,60.3,178.3,59.9,178.5,59.5z"/>
		<polygon class="st1" points="183.4,69 183,69.3 183,69.1 		"/>
		<path class="st4" d="M178.8,59.5l0.1-0.2L178.8,59.5z"/>
		<polygon class="st4" points="180.1,58.3 180,58.8 179.9,58.6 		"/>
		<path class="st5" d="M180.6,59.8c0.2,0.3,0.7-0.1,0.5,0.3C180.6,60.3,180.8,59.7,180.6,59.8z"/>
		<path class="st4" d="M181.2,58.9c0.1,0.5-0.1,0.2-0.7,0.4L181.2,58.9z"/>
		<polygon class="st4" points="180.1,57.6 179.8,57.5 179.9,57.5 		"/>
		<path class="st4" d="M180.6,58.2L180.6,58.2l0.5-0.3c0.6,0.8-0.6,0.4-0.8,0.7C180.5,58.4,180.4,58.2,180.6,58.2z"/>
		<polygon class="st4" points="181.7,59.3 181.3,59.4 181.5,59.2 		"/>
		<polygon class="st4" points="182.1,57.5 181.8,57.5 182,57.3 		"/>
		<path class="st1" d="M184.2,62.2c1-0.4,2-0.8,3.1-0.1c0.2,0.3,0.8,0.4,0.9,0.9c-0.5,0.7-0.9,1.4-2,1.7c-0.8,0.1-1.6,0.2-2.3-0.4
			C183.1,63.5,183.7,62.8,184.2,62.2z"/>
		<path class="st1" d="M188.8,66.9c0.4-0.2,0.8,0.1,1,0.3c0.1,0.4-0.2,0.6-0.5,0.9C188.4,68.4,188,67.2,188.8,66.9z"/>
		<path class="st4" d="M186,63.4V64C185.8,63.6,185.2,63.7,186,63.4z"/>
		<polygon class="st4" points="184.8,57.9 184.3,57.9 184.4,57.7 		"/>
		<path class="st4" d="M185.9,60.3c-0.3-0.1,0.4-1-0.4-0.8c0.3-0.4,1,0.1,1,0l-0.4,0.3c0.5,0.3,0.6-0.3,1,0.2l-0.2,0.5
			C186.2,60,186.6,60.1,185.9,60.3L185.9,60.3z"/>
		<path class="st4" d="M187,60.7l0.4-0.7c0.2,0.6-0.7,0.6-0.2,1.2c-0.3-0.3-1,0.2-1-0.3C186.7,60.7,186.4,60.5,187,60.7z"/>
		<polygon class="st4" points="185.8,57.3 185.4,57.5 185.6,57.3 		"/>
		<polygon class="st4" points="186.1,57.7 186,57.6 186.3,57.5 186.4,57.5 		"/>
		<path class="st4" d="M189,56.7c-0.2,0.1-0.3-0.3-0.1-0.4c0.1,0.2,0.7,0.7-0.1,0.7L189,56.7z"/>
		<path class="st4" d="M189.7,56.1c0.8,0.2-0.3,0.2,0.1,0.7C189.5,56.7,189.4,56.3,189.7,56.1z"/>
		<path class="st1" d="M200.6,66.6c0.8-1,2.2-0.4,3,0c-1.2,0.6-1.8-0.2-2.5,0l0.1-0.1c-0.3-0.1-0.6,0.1-0.5,0.3c0,0.8,0.9,0.2,1,1
			c-0.7,0.1-0.2,0.8-1,0.8c0.1,1,1.4,0.4,1.8,0.7c-0.1-0.3,1.5-1.3,1.3-2.8l1.4,0.1c0.1,1.1-1.2,0.7-1.3,1.9c-1,0.7-2.4,1.3-3.6,0.5
			C199.6,68.1,200,67.3,200.6,66.6z"/>
		<path class="st6" d="M200.6,67.7c0,0.3,0.1,0.8-0.4,0.6L200.6,67.7z"/>
		<path class="st1" d="M218.5,70.1c1.1-0.9,2.3,0,3.4,0c-0.8,0.3-1.1,1.2-2,1.3c-0.5,0-1.1,0.1-1.5-0.3
			C218.1,70.8,218.4,70.4,218.5,70.1z"/>
		<path class="st2" d="M218.9,70.2c0.5,0,1.5-0.1,1.8-0.3c0.7,0.1-0.3,0.9,0.5,0.4c-0.2,0.3-0.8,0.3-0.8,0.8
			c-0.5-0.5-1.1-0.2-1.4,0.1C218.5,70.8,218.9,70.6,218.9,70.2z"/>
		<path class="st1" d="M228,70.7c0.8-0.4,1.8-0.2,2.6,0.2c0,0.6-0.7,0.9-1.3,1.2c-0.6-0.1-1,0.1-1.5-0.4
			C227.5,71.4,227.7,71,228,70.7z"/>
		<path class="st2" d="M228.3,71.7c0.2-0.3-0.5-0.3,0-0.6l0.2,0.1c-0.1,0.1-0.1,0.6-0.4,0.5C228.2,71.7,228.3,71.7,228.3,71.7z"/>
		<path class="st2" d="M229.2,71.7c0,0.1-0.3,0.4-0.4,0.1L229.2,71.7z"/>
		<path class="st2" d="M229.5,70.7c-0.6,0.7,0.9,0.1,0.5,0.8l-0.3-0.3v0.1c-0.4,0-0.5-0.4-0.5-0.7L229.5,70.7z"/>
		<path class="st1" d="M225.9,74.9c0.6-0.2,1.9-0.3,1.9,0.4c-0.1,0.5-0.8,0.7-1.4,0.8c-0.4-0.1-0.6-0.1-0.9-0.3
			C225.3,75.4,225.7,75.1,225.9,74.9z"/>
		<path class="st2" d="M226.6,75.8c0.2-0.3-0.4-0.4-0.5-0.7l0.7-0.2c-0.8,0.6,0.7-0.1,0.6,0.6c-0.2,0.3-0.4,0.3-1,0.4L226.6,75.8z"
			/>
	</g>
</g>
<g>
	<g>
		<g>
			<g>
				<path class="st1" d="M78.3,59.9C78.2,59.7,78.2,59.7,78.3,59.9c0,0.2,0.3,0.5,0.6,0.7C78.7,60.4,78.5,60.2,78.3,59.9z"/>
				<path class="st1" d="M78.9,60.6l0.5,0.4C79.3,60.9,79.1,60.7,78.9,60.6z"/>
				<path class="st1" d="M77.5,64c0,0,0.1,0,0.1-0.1c0.4,0,0.8-0.1,1.2-0.2s0.6-0.3,0.8-0.5c0.3-0.4,0.4-1,0.3-1.2
					c0,0.4-0.2,1-0.6,1.3c0,0-0.1,0.1-0.2,0.1c-0.1,0.1-0.2,0.1-0.3,0.1c-0.2,0.1-0.4,0.1-0.6,0.1c-0.4,0.1-0.7,0.1-0.8,0.2
					C77.5,64,77.5,64,77.5,64z"/>
				<path class="st1" d="M79.7,63.5v-0.2c-0.1,0.1-0.2,0.3-0.4,0.4c-0.2,0.1-0.3,0.2-0.5,0.3C79.2,63.9,79.5,63.7,79.7,63.5z"/>
				<path class="st1" d="M80.1,62.9L80.1,62.9c-0.3,0.6-0.8,1.1-1.4,1.2C79.4,63.9,80,63.5,80.1,62.9z"/>
				<path class="st1" d="M78.2,67.6c0.3-0.2,0.5-0.5,0.6-0.8c0.1-0.5,0.1-0.3,0.2-0.1c0,0.2-0.1,0.5,0.1,0.2c0.1-0.4,0-0.6-0.1-0.8
					c-0.1-0.1-0.1-0.2-0.2-0.3c-0.1-0.1-0.3-0.4-1.1-1.4c0,0,0.1,0.2,0.4,0.6c0.2,0.3,0.6,0.8,0.6,1c0.2,0.6-0.1,1.1-0.1,0.9
					c-0.2,0.3-0.3,0.4-0.3,0.4c-0.1,0,0,0.1,0,0.1C78.3,67.4,78.5,67.4,78.2,67.6z"/>
				<path class="st1" d="M36.3,76.3L36.3,76.3L36.3,76.3z"/>
				<path class="st1" d="M19,88.5c-0.5,0-0.9-0.3-1.2-0.7c0.1,0.1,0.2,0.3,0.4,0.4C18.5,88.4,18.7,88.5,19,88.5z"/>
				<path class="st1" d="M46.1,67.8c0.3-0.1,0.6-0.3,0.8-0.5C46.8,67.4,46.6,67.6,46.1,67.8z"/>
				<path class="st1" d="M50.3,40.2L50.3,40.2C50.2,40.3,50.3,40.3,50.3,40.2L50.3,40.2L50.3,40.2z"/>
				<path class="st1" d="M2.8,89c0.2,0,0.3,0,0.5,0l3.6-0.3L4,91c0,0-0.1,0-0.1,0.1l-0.8-1.2c0,0,0,0.1,0.1,0.1l-0.6-0.8
					C2.6,89.2,2.7,89.1,2.8,89c-0.1,0.1-0.2,0.2-0.2,0.2L3.2,90c-0.1,0-0.1-0.1-0.1-0.1l0.8,1.2L4,91l2.9-2.3l-3.7,0.2
					C3,89,2.9,89,2.8,89z"/>
				<path class="st1" d="M51.8,66.9c-0.1-0.1-0.1-0.2-0.2-0.2C51.7,66.7,51.8,66.8,51.8,66.9L51.8,66.9L51.8,66.9z"/>
				<path class="st1" d="M25.2,84.1c-0.2,0.2-0.3,0.4-0.5,0.6C24.9,84.5,25,84.3,25.2,84.1z"/>
				<path class="st1" d="M67.5,76c-0.2-0.1-0.3-0.2-0.5-0.3c-0.1-0.1-0.4-0.2-0.4-0.1c0.1,0,0.3,0.1,0.4,0.2
					C67.2,75.8,67.3,75.9,67.5,76z"/>
				<path class="st1" d="M64.1,78.6L64.1,78.6L64.1,78.6z"/>
				<path class="st1" d="M61.2,80.8L61.2,80.8L61.2,80.8z"/>
				<path class="st1" d="M66.6,75.6c-0.1,0-0.2,0-0.3,0c0,0.3,0.1,0.7,0.5,1.8v-0.2c0,0.3,0.2,0.9,0.2,1.3c0,0.2-0.1,0.4-0.3,0.5
					c0,0,0.1,0,0.2-0.1c0.1-0.1,0.2-0.2,0.2-0.3c0-0.1,0.1-0.1,0.1-0.3c0-0.2,0-0.3-0.1-0.5c-0.1-0.7-0.3-1.2-0.5-1.8
					C66.6,75.8,66.6,75.7,66.6,75.6z"/>
				<path class="st1" d="M36.3,76.2C36.4,76.3,36.6,76.2,36.3,76.2L36.3,76.2z"/>
				<path class="st1" d="M41.2,72.1c-0.2,0.1-0.4,0.2-0.6,0.4C40.8,72.4,41,72.3,41.2,72.1z"/>
				<path class="st1" d="M52.2,77.1L52.2,77.1C52.2,76.9,52.2,77,52.2,77.1z"/>
				<path class="st1" d="M40.2,72.8c0.2-0.1,0.3-0.2,0.5-0.3C40.5,72.6,40.3,72.7,40.2,72.8z"/>
				<path class="st1" d="M52.2,69.6L52.2,69.6C52.2,69.5,52.2,69.5,52.2,69.6z"/>
				<path class="st1" d="M71.7,32.6c0.2-0.1,0.5-0.1,0.6-0.2h0.1c0,0,0,0,0.1,0c0.1-0.1,0.3-0.3,0.3-0.3c0.1-0.2,0.1-0.2,0-0.1
					c0,0-0.1,0.1-0.2,0.1c-0.1,0.1-0.2,0.1-0.2,0.2v0.1c0,0,0,0-0.3,0.1c-0.1,0-0.1,0,0,0c0.2-0.1,0.1-0.1,0.2-0.1c0,0,0,0-0.1,0.1
					C72,32.5,71.8,32.5,71.7,32.6c-0.4,0.1-0.7,0.3-0.8,0.5c0.3-0.2,0.7-0.3,1.1-0.4c0.2-0.1,0.3-0.1,0.4-0.1l0,0c0,0,0,0-0.2,0.1
					C71.7,32.6,71.3,32.8,71.7,32.6z"/>
				<path class="st1" d="M54,35.3l-0.1,0.2c0.1-0.1,0.1,0,0.6-0.6c0.3-0.6-0.4,0.2,0.1-0.9c-0.1,0.2-0.3,0.5-0.5,0.8
					C54.5,34.3,54.3,34.8,54,35.3z"/>
				<path class="st1" d="M54.1,34.7L54.1,34.7c-0.1,0.1-0.1,0.1-0.2,0.2c-0.1,0.1-0.2,0.3-0.3,0.4C53.8,35.1,53.9,34.9,54.1,34.7z"
					/>
				<path class="st1" d="M81.1,20.2c0.1-0.3,0.2-0.5,0.3-0.7C81.2,19.8,81.1,20,81.1,20.2z"/>
				<path class="st1" d="M1.6,91.2C1.6,91.2,1.5,91.2,1.6,91.2l0.5-0.7c0,0.1,0,0.2,0,0.3l-0.9-1c0.1,0,0.2,0,0.3,0
					c-0.1,0-0.3,0-0.3,0l0.9,1c0-0.1,0-0.2,0-0.3L1.6,91.2C1.5,91.2,1.6,91.2,1.6,91.2z"/>
				<path class="st1" d="M46.9,44.9c-0.2,0.1-0.3,0.3-0.5,0.4c-0.1,0.1-0.2,0.1-0.3,0.2C46.4,45.3,46.6,45.1,46.9,44.9z"/>
				<path class="st1" d="M73.4,15.8C73.2,16,73.2,16,73.3,16c0.1-0.1,0.4-0.3,1-0.3l-1.1,0.8c0-0.3,0.2-0.8,0.5-1.1
					c0.2-0.3,0.4-0.6,0.5-0.8c-0.4,0.4-1,1.1-1.1,1.9l1.2-0.9C73.9,15.6,73.6,15.7,73.4,15.8z"/>
				<path class="st1" d="M70.8,33.1L70.8,33.1C70.9,33.1,70.9,33.1,70.8,33.1L70.8,33.1z"/>
				<path class="st1" d="M81.9,3.1C82,3,82,2.9,82.1,2.8C82,2.9,82,3,81.9,3.1z"/>
				<path class="st1" d="M51.4,38.5L49.7,41l0.5-0.7C50.4,39.8,51.3,38.9,51.4,38.5z"/>
				<path class="st1" d="M63.7,24.2l-0.3,0.1c-0.2,0.1-0.3,0.3-0.5,0.4l-0.1,0.1l0,0c-0.1,0.1-0.3,0.3-0.4,0.5
					c-0.2,0.3-0.3,0.8-0.2,1.1l1.3-1.4c-0.5-0.1-1,0.2-1.1,0.4l0.1-0.1L61.7,26l1.2-0.2h-0.1h-0.1h-0.1c-0.3,0-0.8,0-1.1,0.3
					c-0.4,0.2-0.5,0.5-0.6,0.7l0.3-0.3c-0.4,0.3-0.7,0.6-1.1,0.9c-0.4,0.3-0.7,0.5-1.1,0.8c-0.7,0.5-1.4,1-2,1.6
					c-1.6,1-2,1.6-2.4,2.1c-0.2,0.3-0.3,0.5-0.6,0.9c-0.2,0.3-0.5,0.8-1.1,1.4l0.1-0.1c-0.9,1.2-1.7,2.5-2.6,3.7l-1.3,1.9l-0.7,0.9
					L48,41c-0.2,0.3-0.3,0.4-0.4,0.6l-0.7,1c-0.2,0.3-0.4,0.5-0.6,0.8c-0.4,0.5-0.9,0.8-1.4,1.1c-0.3,0-0.6,0.1-0.9,0.1
					c-0.3,0.1-0.6,0.1-0.9,0.1c-0.3,0-0.7,0-1.2,0c-0.2,0-0.5,0-0.7,0.1c-0.1,0-0.2,0-0.4,0.1c-0.1,0-0.3,0.1-0.3,0.1l0,0h-0.2
					c-0.3-0.1-0.6-0.1-0.9-0.2c-0.6-0.1-1.2-0.1-1.8,0c-1.2,0.1-2.2,0.5-3.2,0.9l0.3-0.1c-0.5,0.1-0.9,0.3-1.2,0.6
					c-0.2,0.1-0.3,0.3-0.4,0.4L33,46.8l0,0c-0.1,0.1-0.2,0.1-0.3,0.2c-0.2,0.2-0.4,0.4-0.6,0.6c-0.4,0.4-0.6,0.8-0.6,1.3
					s0.2,0.9,0.6,1.3c0.2,0.2,0.4,0.3,0.7,0.5s0.4,0.2,0.6,0.3c0,0,0.1,0,0.1,0.1l0.1,0.1l0,0c0.2,0.3,0.3,0.7,0.5,1
					c0.2,0.4,0.4,0.8,0.6,1.2h-0.1c0.1,0.3,0.2,0.5,0.3,0.6c0,0.1,0,0.1,0,0.2v0.1v0.2c-0.1,0.6-0.2,1-0.4,1.4
					c-0.1,0.2-0.2,0.3-0.4,0.5c-0.1,0.1-0.1,0.1-0.2,0.2l-0.4,0.3c-0.5,0.4-1,0.8-1.5,1.2c-1.9,1.7-3.7,3.4-5.6,4.8l0.4-0.2
					c-0.3,0.1-0.6,0.3-0.9,0.5c-0.1,0.1-0.2,0.2-0.3,0.4v0.1l0,0l0,0L25.3,64l0.5-0.3c-0.3,0.1-0.5,0.2-0.7,0.4
					c-0.1,0.1-0.2,0.2-0.3,0.3l-0.1,0.1c0.1,0-0.2,0.1-0.5,0.3c-0.3,0.2-0.7,0.6-1,1.1l0.5-0.6c-0.7,0.4-1.2,0.9-1.6,1.4
					c-0.4,0.5-0.7,0.9-1,1.4l-1.9,2.7c-1.3,1.8-2.5,3.6-3.8,5.4c-1.2,1.8-2.4,3.6-3.9,5.1l-0.2,0.3c0,0,0,0-0.2,0.1
					c-0.3,0.2-0.5,0.4-0.8,0.6s-0.5,0.5-0.7,0.8c-0.1,0.2-0.2,0.3-0.3,0.5c0,0.1,0,0.1-0.1,0.1c-0.6,0.8-1.4,1.5-2.2,2.1l0.4-0.2
					c-0.3,0.1-0.6,0.2-0.8,0.4c-0.1,0.1-0.2,0.2-0.3,0.3l-0.1,0.1l0.1,0.4c-0.2,0.2-0.4,0.3-0.5,0.4c-0.4,0.3-0.7,0.5-1.1,0.7
					C4.6,88,4.5,88,4.4,88.1c0,0-0.1,0-0.1,0.1c-0.1,0-0.2,0.1-0.2,0.1C4,88.4,4,88.4,3.9,88.4c0,0,0,0.1-0.1,0.1l-0.1,0.1
					c0,0.1-0.1,0.1-0.2,0.2S3.4,88.9,3.3,89c0,0-0.1,0.1-0.2,0.2c0,0,0,0,0,0.1C3,89.4,3,89.4,2.9,89.5l0.4,0.6L3.2,90l0.6,0.9
					l0.1-0.1L6,89.2H3.3c-0.5,0-1.4,0-1.4,0c0.7-0.1,0.8-0.1,0.8-0.1s0-0.1,0.2-0.1c-0.5,0-1.2,0-2,0.3l-0.6,0.2l-0.1,0.7v0.3
					L0,91.8h1.3c0.3,0,0.7,0,1,0h0.2l0,0h0.1l0.3,0.1c1,0.2,1.9,0,2.5-0.2c-0.5,0.1-1.1,0.2-1.7,0.2c0.4,0,1-0.1,1.4-0.2
					c0.2-0.1,0.4-0.1,0.6-0.2c0,0.1,0,0.2,0,0.3l0.1-0.1c0,0,0,0,0.1,0c0,0,0,0,0,0.1l0,0C6,92,6.1,92.2,6.2,92.3
					c0.2,0.2,0.3,0.2,0.5,0.3c0.4,0.2,0.8,0.2,1.1,0.1c0.6-0.1,0.9-0.3,1.2-0.5c0.3-0.2,0.8-0.5,1.3-0.8c0.1-0.1,0.2-0.2,0.5-0.4
					c0.1,0,0.1-0.1,0.2-0.1l0.1-0.1l0,0l0,0l-0.2-0.2c-0.2-0.3-0.2-0.3-0.3-0.4c0-0.1-0.1-0.1-0.1-0.1l0,0l0,0l-0.6,0.5l0,0l0,0
					c0.1,0.2,0.4,0.5,0.8,0.6c0.3,0.2,0.8,0.1,1.1,0c0.2-0.1,0.4-0.2,0.6-0.3l0.4-0.3c1-0.7,1.9-1.5,2.6-2.2
					c0.2-0.2,0.3-0.2,0.4-0.3C15.9,88,16,88,16.1,88c-0.2,0.1-0.3,0.2-0.3,0.2c0,0.1,0,0.1,0,0.1s0,0,0,0.1
					c-0.2,0.2-0.3,0.3-0.8,0.7c0.3-0.2,0.6-0.4,0.8-0.7c0.1-0.1,0.2-0.2,0.3-0.2s0.1,0,0.2,0.1c0,0,0,0,0.1,0.1l0,0c0,0,0,0,0.2,0.1
					c0.4,0.2,0.6,0.1,0.8,0.1s0.3-0.1,0.4-0.1c0.2-0.1,0.4-0.2,0.5-0.3c0.1-0.1,0.2-0.1,0.3-0.2h0.1l0,0v-0.1l-0.5-0.3
					c0,0-0.1-0.1-0.1-0.2c-0.1-0.2,0-0.1-0.1,0c0,0.1-0.1,0.1-0.2,0.2l-0.1,0.1l0,0l0,0l-0.1,0.1l0,0l0,0l0,0l0,0l0,0l0.1,0.1v-0.1
					l0,0l0,0l0.1-0.1l0,0l0,0c0.1-0.1,0.1-0.1,0.1-0.1l0,0c0,0-0.1,0.1-0.1,0.2l0.1,0.1c0.1,0.1,0.3,0.2,0.5,0.3
					c0.6,0.4,1.1,0.2,1.5,0.1c0.2-0.1,0.4-0.2,0.6-0.4c0.1-0.1,0.2-0.1,0.3-0.2s0.2-0.2,0.3-0.4c-0.1,0.2-0.3,0.4-0.4,0.5
					c-0.1,0.2-0.4,0.4-0.7,0.6c0.3-0.1,0.6-0.4,0.7-0.5c0.1-0.1,0.3-0.3,0.4-0.5c0.2-0.3,0.4-0.7,0.5-0.8c0.1,0,0.1-0.1,0.2,0
					c0.2,0,0.7-0.1,0.9-0.2s0.4-0.1,0.3,0c0.7-0.4,1-0.9,1.3-1.2c0.2-0.3,0.5-0.6,0.8-1c0.1-0.1,0.2-0.2,0.2-0.3v-0.1
					c0.1,0.1-0.2-0.2-0.3-0.2c-0.1-0.2-0.1-0.2-0.1,0c0,0.1,0,0.2,0,0.3V84H25h0.1H25c0,0-0.1,0-0.1-0.1s0-0.2,0-0.3
					c0-0.1,0-0.1,0-0.1s0.1,0.2,0.2,0.2c0.1,0.1,0,0-0.1-0.1s-0.1-0.2-0.1-0.2s0,0.1,0,0.3c-0.1,0.1,0.2,0,0.3,0
					c0.2,0,0.4-0.1,0.3-0.1c-0.2,0-0.3,0-0.5,0c-0.1,0,0,0,0,0l0,0v-0.1c0-0.1,0-0.2,0-0.2s0,0,0.1,0.1l0.1,0.1l0,0l0,0
					c0,0-0.1,0.2-0.2,0.3l-0.3,0.4c0.2-0.2,0.3-0.3,0.4-0.4c0.4-0.5,0.2-0.3,0.3-0.3c0,0,0,0-0.2,0.4c-0.3,0.4-0.8,1.1-0.7,1.1
					c-0.5,0.5-0.2,0.1,0-0.2c0.2-0.3,0.3-0.5-0.5,0.4c0.5-0.6,0.8-1,1.1-1.3c0.2-0.2,0.2-0.4,0.3-0.4l0,0c0,0,0,0,0-0.1l0,0
					c0,0,0,0.2,0,0.1h0.2c0.1,0,0.2,0,0.3,0c0.2,0,0.4-0.1,0.6-0.2c0.4-0.2,0.7-0.4,1-0.7c0.3-0.3,0.5-0.5,0.8-0.8
					c-1.1,0.8,0.1-0.3-0.5,0.1c0.7-0.5,0.9-0.5,0.9-0.4c0,0-0.2,0.2,0.1,0.1c0.5-0.2,0.9-0.3,1.2-0.5c0.4-0.2,0.7-0.4,1.1-0.7
					c1.5-1.1-0.1,0.3,0.7-0.2c-0.1,0.1-0.4,0.4-0.9,0.7c-0.4,0.3-1.1,0.6-1.6,0.8c-1.1,0.3-1.4,0.8-1.2,0.9
					c-0.1,0.1-0.3,0.4-0.5,0.6s-0.5,0.5-0.9,0.6C26.5,83.9,26.3,84,26,84c-0.1,0-0.2,0-0.4,0c-0.1,0-0.1,0-0.2,0h-0.1l0,0l0,0l0,0
					c0,0,0-0.2,0-0.1l0,0l0,0v-0.1c0.1-0.4-0.2-0.5,0.1-0.2c0,0,0.1,0.1,0.2,0.2l0.1,0.1l0,0V84c0,0.1-0.1,0.2-0.2,0.3l0,0l0,0
					c0.1-0.1,0.2-0.2,0.2-0.3v-0.1l0,0l-0.2-0.2c-0.4-0.4-0.1-0.3-0.2,0.1v0.1l0,0l0,0c0-0.2,0,0.2,0,0.2l0,0l0,0l0,0h0.1
					c0.1,0,0.1,0,0.2,0c0.1,0,0.3,0,0.5,0c0.3,0,0.6-0.1,0.9-0.3c0.5-0.3,0.9-0.6,1.2-0.9c0.2-0.2,0.3-0.3,0.5-0.4l-0.1-0.2
					c0.8-0.4,1.2-0.6,1.9-1c-0.4,0.3,0.5,0,1.2-0.7c-0.2,0.1-0.5,0.4-0.5,0.3c0.7-0.5,1-0.9,1.4-1.3c0.2-0.2,0.4-0.4,0.6-0.6
					c0.1-0.1,0.2-0.2,0.4-0.4c0.2-0.2,0.1-0.1,0.4-0.2c-0.2,0.1-0.2,0.1-0.3,0.1c-0.1,0.1-0.2,0.2-0.3,0.3c-0.2,0.2-0.4,0.3-0.6,0.5
					c-0.4,0.3-0.7,0.6-1.4,1c0.2-0.4,0.8-0.7,1.5-1.3c-0.1,0.1-0.2,0.2,0,0.1l0.6-0.7c0.2-0.2,0.2-0.1,0.4-0.2
					c0.1,0,0.2-0.1,0.3-0.1s0.1,0,0,0.1s-0.2,0.2,0.5-0.1h-0.5c0,0,0,0,0.1,0s0.2,0.1,0.3,0.1l0.1,0.1l0.3-0.1
					c0.5-0.2,0.9-0.5,1.2-0.8c0.1-0.2,0.2-0.4,0.3-0.6c0-0.1,0-0.2,0.1-0.2l0,0v-0.1h-0.1c0-0.1,0.1,0,0.2-0.1l0,0
					c0.1,0,0.1,0,0.2-0.1c0.1-0.1,0.3-0.1,0.4-0.2c0.3-0.2,0.5-0.4,0.7-0.6s0.3-0.5,0.3-0.7c0-0.1,0-0.2,0-0.3v-0.1
					c0.1,0,0.2,0,0.3-0.1s0.5-0.2,0.7-0.4c0.1-0.1,0.3-0.2,0.4-0.4c0.3-0.5,1.1-1.1,1.8-1.4h-0.1c0.6-0.4,1-0.8,1.3-1.1
					c0.3-0.3,0.4-0.4,0.4-0.2c0.5-0.5,0.9-0.8,1.5-1.1l0.1-0.1l-0.1,0.1c0,0.1-0.1,0.1-0.1,0.2c0.1,0,0.1-0.1,0.2-0.1
					c0.5-0.2,0.8-0.7,0.9-1c0.1-0.2,0.1-0.2,0.2-0.4c0-0.1,0.1-0.3,0.3-0.3c0.2-0.1,0.4-0.2,0.7-0.4c0.8-0.5,1.3-1.3,1.9-1.9
					c0.5-0.6,0.9-0.4,1.4-0.2c0.1,0.1,0.3,0.2,0.7,0.3c-0.2-0.1-0.5-0.3-0.7-0.4c0.7,0.3,0.9,0.5,1.2,0.6c0.2,0.1,0.4,0.2,0.7,0.5
					c-0.1-0.1-0.1-0.2,0.2,0.2c0.1,0.1,0.2,0.3,0.2,0.4c0,0-0.1-0.2-0.2-0.4c0,0.1,0,0.1,0,0.2c0.2,0.5,0.2,0.9,0.3,1.3
					c0,0.5,0.1,1,0,1.6c0-0.1,0-0.3,0-0.5c0,0.7-0.3,1.8-0.1,2.1c0,0.2,0,0.4,0.1,0.7v0.5c0-0.2,0-0.4,0-0.5
					c0.1,0.3,0.1,0.7,0.1,0.7v1.9c0,0.4,0,0.8,0.1,1.2l-0.1,0.3c0,0.7,0,0.7,0,0.6c-0.1,1.1,0,2,0.1,2.8c0,0.2,0,0.4,0.1,0.7
					c0.1,0.3,0.1,0.5,0.3,0.9c0.1,0.2,0.4,0.3,0.6,0.4c0.3,0,0.4,0,0.6,0s0.3-0.1,0.5-0.2c0.1-0.1,0.2-0.1,0.3-0.2
					c0.1,0,0.2,0,0.3,0c0.1-0.1,0.1-0.1,0-0.1s-0.2,0-0.3,0H55c0,0,0,0,0.1,0s0.5-0.3,0.8-0.1c0.1,0.1,0.3,0.3,0.6,0.4
					c0.2,0.1,0.5,0.2,0.7,0.1c0.5,0,1.2-0.6,1.5-1c0.2-0.2,0.3-0.4,0.5-0.5c0.1-0.1,0.2-0.1,0.2-0.1c0.1,0.1,0.1,0.2,0.1,0.3
					c0.1,0.3,0.2,0.4,0.1,0.4c0.1,0.1,0.1,0.1,0.2,0.2s0.2,0.2,0.2,0.2c0.1,0,0-0.1-0.2-0.2c-0.1-0.2-0.2-0.4,0-0.2l0.1,0.1
					c-0.3-0.3-0.3-0.4-0.4-0.7c0-0.1-0.1-0.2-0.1-0.3c0-0.1-0.1,0-0.2,0s0.2-0.4,0.3,0c0.1,0.2,0.3,0.4,0.5,0.6s0.5,0.4,0.6,0.5
					c-0.2,0-0.3-0.1-0.5-0.1c0.4,0.3,0.8,0.4,1.1,0.5c0.3,0,0.5,0,0.6-0.1c0.3-0.1,0.5-0.2,1-0.5c0.3-0.2,0.3-0.4,0.4-0.6
					c0.1-0.1,0.1-0.2,0.1-0.2c0.1,0,0.1,0.2,0.2,0c0.1-0.6,0-1.1,0.2-1.6h0.1l0,0l-0.5,0.1c0.4,0.4,0.7,0.6,1,0.8
					c0.4,0.2,0.7,0.4,1.6,0.5c-0.6,0,0,0.2,0.6,0.1c0.3,0,0.5-0.2,0.6-0.2c0.1,0,0.1,0.1-0.3,0.3c0.5-0.2,0.7-0.4,0.9-0.6
					c0.2-0.2,0.2-0.3,0.5-0.6c0-0.4,0-0.1-0.2,0.2c-0.2,0.4-0.6,0.7-0.9,0.7c-0.2,0,0.3-0.2,0.7-0.8c0.1-0.2,0.2-0.3,0.2-0.5
					c0-0.1,0-0.3,0-0.4c0-0.3-0.1-0.5-0.2-0.7c0.1,0.1,0.2,0.5,0.1,0c0,0,0,0,0-0.1s-0.1-0.2-0.1-0.3c0-0.1,0-0.1-0.1-0.2h0.1
					c0.2,0.1,0.4,0.3,0.6,0.5c0-0.1,0.2,0.1,0.4,0.2c0.1,0.1,0.3,0.2,0.4,0.3c0.3,0.1,0.6,0.1,0.8,0c-0.3,0.1-0.5,0-0.8,0
					c-0.2-0.1-0.3-0.2-0.4-0.2c-0.2-0.2-0.3-0.3-0.2-0.3c0.2,0.1,0.4,0.2,0.8,0.3c0.4,0.1,0.8-0.2,1.3-0.7c-0.2,0.2-0.4,0.4-0.7,0.5
					c0.4-0.4,0.7-0.7,1.1-1.1c0.2-0.2,0.4-0.4,0.6-0.6l0,0l0,0l0,0h0.1c0.1,0,0.2,0,0.3,0c0.2,0,0.4,0,0.5-0.1
					c-0.3,0.1-0.6,0.1-0.8,0.2l0,0l0,0l0,0l0,0l0,0l0,0l0,0c0,0.1,0-0.1,0-0.1l0,0c0,0,0,0,0.1,0.1l0,0c0,0-0.1,0.1-0.1,0.2
					c-0.1,0.1-0.1,0.2-0.2,0.3c0.1-0.1,0.1-0.2,0.2-0.2c0,0,0.1-0.1,0.1-0.2v-0.1c0,0,0.1,0-0.1-0.1l0,0l0,0l0,0c0,0,0,0.3,0,0.1
					l0,0l0,0l0,0l0,0h0.1h0.2c0.1,0,0.3-0.1,0.4-0.1c0.3-0.1,0.6-0.2,0.8-0.4c0.2-0.2,0.3-0.6,0.3-0.8c0-0.1,0-0.2,0-0.3v-0.1l0,0
					c-0.2,0-0.1,0-0.1,0l0,0l0,0l0,0l0,0l0,0l0,0l0,0h0.1c0.2,0,0.5,0.1,0.7,0c0.1-0.1,0.5-0.2,0.6-0.6c0.1-0.4,0.1-0.8,0-0.7
					c-0.1-0.8,0-0.5,0.1,0.1c0,0.3,0,0.7-0.2,1s-0.5,0.4-0.5,0.4c0.3-0.1,0.6-0.3,0.7-0.5c0.1-0.2,0.1-0.4,0.1-0.6
					c0-0.4-0.1-0.6-0.1-0.8l-0.3,0.3c0.2,0,0.3,0,0.6,0.1c0.2,0,0.6,0.2,1.2,0c-0.2,0.1-0.5,0.2-0.8,0.2c0.2,0,0.5,0,0.8-0.1
					s0.5-0.3,0.7-0.5c0.3-0.5,0.4-0.9,0.4-0.9s-0.1,0.4-0.4,0.8c0.1-0.3,0.4-1.1,0.1-1.9c-0.3-0.7-0.9-1-0.9-0.8
					c0.2,0.2,0.4,0.4,0.6,0.7c-0.2-0.3-0.4-0.5-0.7-0.7c-0.2-0.2-0.5-0.2-0.8-0.5c-0.1-0.1-0.2-0.4-0.1-0.5c0-0.1,0.1-0.3,0.3-0.4
					c0.4-0.2,0.7,0,0.9,0h0.1c0.2,0,0.2,0,0,0.1c-0.1,0-0.3,0-0.6,0c-0.2,0-0.4,0.2-0.4,0.3c0.1-0.3,0.4-0.2,0.5-0.2
					c0.2,0,0.3,0,0.5-0.1C77,68,77.3,68,78,67.7c-0.4,0.1-0.5,0.1-0.5,0.1s0.1-0.1,0.3-0.2c-0.3,0.1-0.7,0.1-1.2,0.2
					c-0.2,0-0.7-0.2-1.1,0.1c-0.3,0.3-0.3,0.5-0.2,0.4c0.1-0.1,0.2-0.3,0.4-0.4c-0.1,0-0.3,0.2-0.3,0.4c-0.1,0.2-0.1,0.5,0.1,0.6
					c0.3,0.3,0.5,0.4,0.5,0.4c0.1,0.1,0.1,0.1,0.1,0.1s-0.1,0,0,0.1c0.4,0.3,0.5,0.5,0.6,0.5c0.1,0.1,0.1,0.1,0.1,0.1s0.1,0,0.1,0.1
					c0.1,0.1,0.2,0.3,0.1,0.7c0,0.1-0.1,0.1-0.1,0.2c-0.1,0.4-0.3,1-0.8,1c-0.4,0.1-0.9,0-1,0.1c-0.1,0-0.2-0.1-0.4-0.1l0,0
					c0,0.4,0.2,0.9,0,1.3c-0.2,0.5-0.8,0.5-1.2,0.5c0,0,0-0.1,0.2-0.1c0.1,0,0.3,0,0.5-0.1s0.4-0.3,0.5-0.6c0-0.3,0-0.6,0-0.9v-0.1
					h0.1c0.7,0.1,1.2,0.2,1.5,0c-0.4,0.1-0.3,0-0.1-0.1s0.4-0.5,0.4-0.6C76.5,71.7,76.3,72,76,72c-0.3,0.1-0.7,0-1.2-0.1h-0.3
					l0.1,0.3c0,0.2,0.1,0.3,0.1,0.5c0,0.1-0.1,0.3-0.2,0.5c-0.1,0.2-0.4,0.3-0.6,0.4c0.1,0,0.1,0,0.2,0c-0.2,0.1-0.3,0-0.6,0.1
					c0,0-0.1,0-0.1,0.1c0,0,0,0-0.1,0.1c0,0,0,0-0.1,0.1c0,0-0.1,0.2,0,0.2l0,0l0,0c0,0.1,0,0.1,0,0.1c0,0.2,0.1,0.4-0.1,0.8
					c-0.1,0.1,0-0.2,0-0.2c-0.2,0.3-0.3,0.4-0.4,0.5c-0.1,0.1-0.2,0.1-0.5,0.2c-0.9,0.1,0.4-0.2-0.3-0.1c-0.1,0-0.1,0-0.2,0h-0.1
					l0,0c-0.1,0-0.2,0.1-0.2,0.1c-0.1,0.1-0.1,0.2-0.2,0.2l-0.1,0.1c-0.1,0.2-0.3,0.3-0.4,0.5c-0.3,0.3-0.6,0.6-0.9,0.8
					c0.1,0,0,0.1-0.2,0.2c-0.1,0-0.2,0-0.4,0c-0.2-0.1-0.4-0.2-0.6-0.3c-0.7-0.4-1-0.6-0.2,0.2c-0.3-0.2-0.5-0.3-0.8-0.5
					c-0.1,0-0.1-0.1-0.2-0.1h-0.1c0,0-0.1,0,0,0l0.2,0.5l0.1,0.2c0,0.2-0.1,0-0.2-0.4c-0.1-0.1-0.1-0.3-0.2-0.5
					c0-0.1-0.1-0.2-0.1-0.2v-0.1l0,0h0.1c0.1,0,0.2,0-0.1-0.2c0.6,0.3,1.1,0.7,1.8,1.1c-0.1-0.1-0.5-0.5-0.9-0.7
					c-0.2-0.1-0.5-0.3-0.7-0.4c-0.1,0-0.2-0.1-0.2-0.1H67V76c0,0.1,0,0.2,0,0.3c0.2,0.6,0.4,1.3,0.5,1.8c0,0.1,0,0.3,0,0.4
					s0,0.2-0.1,0.2c-0.1,0.1-0.2,0.2-0.3,0.3c-0.3,0.2-0.5,0.3-0.7,0.4c-0.2,0-0.6,0.2-1.3-0.2c0.1,0.1,0.1,0.2,0.2,0.3
					c-0.8-0.4-0.9-0.8-0.9-0.8c-0.2-0.1-0.3-0.3-0.5-0.4l-0.5-0.5l-0.3,0.6c-0.2,0.4-0.2,0.7-0.2,1c0-0.2-0.1-0.4,0.1-0.8
					c-0.3,0.9-0.2,1.1-0.2,1.3c0,0.2,0,0.4-0.1,0.5c-0.1,0.2-0.2,0.3-0.4,0.3c0.1-0.1,0.2-0.1,0.2-0.2c-0.1,0.2-0.4,0.2-0.4,0.3
					c-0.2,0-0.4,0-0.6,0c0.1,0,0.2,0.1,0.4,0.1c0.2,0,0.5,0.1,0.8-0.1c-0.5,0.3-1.2,0.2-1.7,0c-0.3-0.1-0.5-0.3-0.7-0.5
					c-0.3-0.3-0.5-0.7-0.7-1.1c-0.1,0-0.1-0.1-0.2-0.1c0,0,0-0.1-0.1,0l-0.1,0.1c-0.2,0.1-0.3,0.2-0.5,0.3c-0.3,0.2-0.6,0.6-0.8,0.9
					c0-0.1,0.2-0.4,0.3-0.6c0.1-0.2,0.3-0.4,0.2-0.3c-0.2,0.2-0.4,0.6-0.6,0.9c-0.1,0.2-0.2,0.3-0.3,0.4c-0.2,0.2-0.3,0.3-0.3,0.4
					c-0.1,0.1-0.2,0.1-0.3,0.1l-0.1-0.1l-0.1-0.1L56.6,81c0,0-0.1-0.1-0.1-0.2c-0.1-0.1-0.2-0.4-0.7-0.5c-0.2,0-0.6,0.1-1.1,0.3
					c-0.2,0.1-0.3,0.2-0.5,0.3C54.1,81,53.9,81,53.9,81l0,0l0,0l-0.1-0.1c0,0.1,0,0.1,0.1,0.2l0,0c0.1,0,0.3-0.1,0.5-0.2
					c-0.3,0.2-0.6,0.4-0.7,0.3c-0.2-0.1-0.2-0.5-0.2-0.7c0.1,0.6,0.1,0.3,0.1,0c0-0.1,0-0.3,0-0.2c0,0,0,0.3,0.1,0.6
					c0-0.5,0-0.8-0.1-1s-0.2-0.4-0.1-1.3v-1.1c0.1,0.2,0.1,1.7,0.2,1.5v-0.7c0.1,0.3,0.1,1,0.1,1.9c0,0.2,0,0.4,0.1,0.5
					c0,0.1,0,0.1,0.1,0.2l0,0L53.9,81c0,0-0.1,0-0.1,0.1l0,0l0,0V81c0-0.1,0-0.2,0-0.2h0.1c0.1,0,0.1-0.1,0.2-0.1l0.3-0.2
					c0.4-0.1,0.7-0.3,1.1-0.3c-0.4,0-0.7,0.1-1.1,0.2l-0.2,0.1l-0.1,0.1c-0.1,0-0.2,0.1-0.2,0.1c-0.1,0-0.1,0-0.1,0.1
					c0,0.3-0.1,0.4,0,0.3l0.1-0.1c0.1-0.1,0.2-0.1,0.2-0.1v-0.1c0-0.2,0-0.3,0-0.6c-0.2-2.2-0.3-4.6-0.3-6.9c0-1.2-0.1-2.3-0.1-3.4
					c0-0.6,0-1-0.1-1.6s-0.3-1.2-0.6-1.6l0.1,0.2c-0.1-0.1-0.1-0.1-0.2-0.1c0-0.1-0.1-0.1-0.1-0.2c-0.2-0.2-0.4-0.4-0.7-0.5
					c-0.3-0.4-0.9-0.7-1.4-1c-0.3-0.2-0.6-0.4-1.2-0.5c-0.5-0.1-1,0.1-1.4,0.4c0.5-0.4,0.8-0.4,1-0.4s0.2,0,0.3,0.1
					c-0.1,0.1-0.2,0.1-0.5,0.2c-0.2,0.1-0.6,0.4-1.1,0.8c-0.1-0.1,0.5-0.6-0.2,0c0.4-0.3,0.1,0-0.2,0.5c-0.3,0.2-0.6,0.6-0.8,0.8
					c-0.3,0.2-0.5,0.3-0.5,0.2c0.2-0.1,0.4-0.2,0.5-0.4c0.1-0.1-0.1,0.1-0.3,0.2s-0.3,0.1,0-0.1c-0.2,0.2-0.3,0.2-0.5,0.3
					c-0.2,0-0.3,0.1-0.5,0.2C45,67.5,45,67.6,45,67.6s0.1-0.1,0.2-0.2c0.2-0.2,0.6-0.3,0.4-0.2c-0.3,0.1-0.6,0.3-0.8,0.6
					c-0.1,0.1-0.2,0.3-0.2,0.3c-0.1,0.1-0.2,0.3-0.2,0.3l-0.1,0.2v0.1c0,0.1-0.1,0.1-0.1,0.1c-0.4,0.2-0.8,0.6-1.2,0.9
					s-0.7,0.7-1,1.1c0-0.1-0.1-0.3-0.1-0.2c-0.4,0.4-0.8,0.7-1.3,1.1s-1.1,0.8-1.5,1.5c-0.1,0.2-0.3,0.3-0.5,0.4
					c0.1-0.1,0.4-0.2,0.5-0.4c0.1-0.1,0.2-0.3,0.3-0.4c-0.1,0.1-0.2,0.2-0.3,0.4c-0.1,0.1-0.3,0.2-0.5,0.3c-0.3,0.1-0.8,0.2-1.1,0.5
					c-0.1,0.9-0.3,1-0.5,1.2c-0.1,0-0.1,0.1-0.2,0.1c-0.1,0-0.1,0.1-0.3,0.1c-0.3,0.1-0.7,0.2-0.8,0.4l0,0c-0.1,0.1-0.1,0.2-0.2,0.3
					c0,0.1,0,0.2,0.1,0.2v0.1l0,0c0,0.1-0.1,0.2-0.2,0.2c-0.1,0.1-0.4,0.3-0.6,0.4h0.4h-0.1l-1-0.4l-0.2,0.1L33.2,77
					c-0.1,0.1-0.3,0.1-0.5,0.2l-0.4,0.3c-0.4,0.3-0.8,0.7-1.2,1c-0.8,0.7-1.6,1.2-2.5,1.5c-0.4,0.2-0.8,0.4-1.1,0.7
					c-0.2,0.1-0.4,0.2-0.7,0.4c-0.2,0.2-0.4,0.3-0.5,0.4c-0.3,0.3-0.6,0.4-0.8,0.5c-0.1,0-0.1,0-0.2,0c0,0-0.2,0-0.3,0
					s-0.3,0-0.4,0.1c-0.3,0.1-0.5,0.4-0.6,0.5c-0.1,0.2-0.1,0.2-0.2,0.2c-0.4,0.5-0.8,1-1.1,1.3c-0.4,0.3-0.6,0.5-1.1,0.6
					c-0.7,0.1-1.2,0.9-1.4,1.1c-0.1,0.2-0.2,0.3-0.3,0.5c-0.1,0.1-0.3,0.3-0.3,0.3c-0.1,0.1-0.3,0.2-0.5,0.1c0,0-0.1,0-0.1-0.1
					c-0.1,0,0,0-0.3-0.2c-0.1-0.1-0.4-0.2-0.6-0.1c-0.2,0-0.4,0.1-0.5,0.2c-0.3,0.2-0.3,0.2-0.3,0.2c-0.1,0.1-0.2,0.1-0.3,0.2
					L16.9,87l0,0l0,0v0.2c0,0.1,0,0.2,0,0.3l0,0l0,0l0,0l0,0l0,0l0,0c0,0.1,0.4-0.9,0.2-0.5l0,0h0.1L17,86.8
					c-0.2-0.1-0.3-0.2-0.5-0.3c-0.5-0.2-0.9,0-1,0.1c-0.2,0.1-0.3,0.2-0.4,0.2s-0.1,0.1-0.2,0.1c-0.1,0.1-0.2,0.2-0.3,0.2
					c-1.1,0.9-1.7,1.5-2.4,1.9l-0.1,0.1L12,89.2l-0.1,0.1c-0.1,0.1-0.1,0.1-0.2,0.1s-0.2,0-0.3-0.1l-0.1-0.1l-0.1-0.1
					c-0.1-0.1-0.3-0.2-0.5-0.2c-0.5,0-0.6,0.2-0.6,0.3c0,0,0,0-0.1,0.1c-0.3,0.2-0.5,0.3-0.8,0.5c0.3-0.3,0.9-0.8-0.3-0.1
					c-0.2,0.2-0.3,0.3-1,0.7l0.3-0.3c-0.2,0.1-0.3,0.2-0.5,0.2c-0.4,0.3-0.4,0.3-0.4,0.3c0-0.1,0,0.2,0,0.3l0,0v-0.1l0,0l0,0l0,0
					c0,0,0.1-0.1-0.1,0.1l0,0l0,0l0,0V91c-0.1,0.1-0.1,0.2-0.2,0.2l0,0l0,0c0.3-0.1-0.6,0.3,0.6-0.3l0,0l0,0l0,0h0.1l0.1-0.1l0,0
					v-0.1c0-0.1,0-0.2,0-0.3c0-0.1,0.1-0.2,0-0.5S7.7,89.3,7.7,89c0-0.1,0-0.2-0.1-0.2C6.8,89,6,89.3,5.2,89.6
					c-0.5,0.2-0.6,0.2-0.8,0.3C4.2,90,4,90,3.9,90c-0.2,0-0.3,0-0.5,0c-0.1,0-0.1,0-0.3-0.1c-0.2-0.1-0.3-0.1-0.5-0.1
					c-0.3,0-0.5,0-0.8,0.1c-0.2,0-0.5,0-0.7,0.1l0.7,0.7c0-0.1,0-0.2,0-0.3l-0.4,0.5c0.3-0.2,0.7-0.2,1.2-0.3c0.3,0,0.5,0,0.7,0
					L3,89.7c0,0-0.1,0-0.1,0.1l0.5,0.9c0.1-0.1,0.2-0.2,0.3-0.2l-0.1,0.1c0.2-0.1,0.2-0.1,0.1,0.1l0.1-0.1c-0.1,0.1-0.2,0.2-0.3,0.3
					l-0.7-1.1l0.1-0.1l0.4,1.2C3,91,2.6,91,2.8,91c-0.9,0-1,0-1.1,0.1c-0.1,0,0,0.1-0.1,0.2c0.4-0.2,1.2-0.2,1.8-0.2l-0.6-1.6
					c0,0-0.1,0-0.1,0.1l0.9,1.5c0.2-0.1,0.3-0.2,0.5-0.3L4,91c0.1,0,0.2-0.1,0.2-0.1s0.1-0.1,0.2-0.2l0.1-0.1l0.1-0.1
					c0.1,0,0.1-0.1,0.2-0.1l0.1-0.1c0,0,0.2-0.1,0.4-0.1c0.2-0.1,0.3-0.1,0.5-0.2c0.3-0.2,0.6-0.4,1-0.7c-0.6,0.5-1.2,0.7-0.6,0.3
					c0.3-0.2,0.7-0.4,1.1-0.7c0.2-0.2,0.4-0.3,0.6-0.5s0.4-0.4,0.6-0.5l0.1-0.1l0,0l0,0c-0.1-0.1,0-0.1,0,0v0.1l0.3-0.2
					c0.2-0.1,0.3-0.2,0.3-0.1c0.6-0.5,1.2-1.1,1.8-1.7l0.4-0.5l0.3-0.3l0.1-0.2v-0.1c0.1-0.2,0.3-0.4,0.5-0.6
					c0.1-0.1,0.2-0.2,0.4-0.3l0.2-0.2c0.1-0.1,0.3-0.1,0.4-0.3c0.3-0.3,0.6-0.6,0.9-0.9c0.6-0.6,1.1-1.3,1.6-1.9
					c1-1.3,1.9-2.7,2.8-4.1c0.9-1.3,1.9-2.7,2.8-4c0.5-1-0.5,0.7-0.2,0.1c0.8-1.4,0.8-1,1.4-2.1l-0.4,0.1c0.5-0.7,0.9-1.4,1.4-2.1
					c0.4-0.7,0.8-1.3,1.4-1.6l0.2-0.2v-0.2c0-0.1,0.1-0.2,0.3-0.4c-0.1,0.1,0.2,0,0.4-0.2c0.1-0.1,0.2-0.1,0.1-0.1
					c0,0-0.2,0.2-0.5,0.4c0.2-0.2,0.5-0.2,0.9-0.6l0.1-0.1l0,0l0,0l0.1,0.1c-0.1-0.1,0-0.1,0,0l0.1,0.2l0.4-0.3
					c0.1-0.1,0.2-0.1,0.3-0.2s0.3-0.2,0.4-0.3l0.1-0.1v-0.1c0,0,0.1,0,0-0.1l0,0c-0.1-0.1-0.2-0.1-0.2-0.2c-0.1-0.1-0.1-0.1-0.1-0.1
					s0,0,0.1,0.1c0,0,0.2,0.1,0.1,0.1l-0.2,0.2L27.2,65L27,65.1c0,0,0.1-0.1,0.4-0.4l0.1-0.2l0,0l0,0l0,0l0,0l0,0l0.2-0.1l0,0l0,0
					l0,0l0,0l0,0c-0.1,0-0.1,0.1-0.2,0.1l0.2-0.1l0,0l0,0h0.1l0.1-0.1l0.3-0.2c0.2-0.1,0.4-0.2,0.5-0.3c0.3-0.2,0.7-0.4,0.9-0.6
					c0.3-0.1-0.8,0.8-1.4,1.3c0.1,0.3,2.1-1.5,1.4-0.7c1.2-1.1-0.2,0.1,0.5-0.6l1.1-0.9L30.3,63c0.9-0.8,1-1.2,2.3-2.2l1.1-1.2
					c0.2,0,0.9-0.7,1.6-1.2L35,58.8c0.4-0.3,0.8-0.6,1.1-0.9s0.5-0.6,0.7-1c-0.2,0.8-0.7,1.1-0.9,1.4c0.4-0.4,0.7-0.8,1-1.3
					c-0.1,0,0.2-1-0.3,0c0.2-0.7,0.3-1.2,0.3-1.9c0-0.2,0-0.4,0-0.6c0-0.3,0-0.6-0.1-0.8c-0.2-0.6-0.5-1.1-0.8-1.7
					c-0.2-0.6,0-0.3,0.2,0.1c0.2,0.4,0.5,0.8,0.4,0.5c-0.3-0.5-0.4-0.9-0.6-1.3c-0.2-0.4-0.4-0.8-0.6-1.1c-0.2-0.1-0.3-0.2-0.5-0.4
					c-0.1-0.1-0.3-0.2-0.5-0.3s-0.4-0.1-0.5-0.2c-0.1-0.1-0.4-0.2-0.3-0.4c0.1-0.2,0.3-0.3,0.4-0.4c0.2-0.2,0.4-0.3,0.5-0.4
					c0.2-0.3,0.2-0.4,0.4-0.5c0.1-0.1,0.2-0.2,0.4-0.2h0.1l0,0c0.2-0.1,0.6-0.3,1-0.4c-0.3,0.2,0.1,0.1,0.5,0
					c0.5-0.1,1.1-0.2,1.3-0.1c-0.3,0.1-0.5,0.1-0.8,0.2c0.6-0.2,1.2-0.1,1,0c0,0,0.3-0.1,0.7-0.1c0.2,0,0.5,0,0.8,0.1
					c0.1,0,0.1,0,0.2,0h0.1c0.1,0,0.1,0,0.2,0c0.1,0,0.3,0,0.4,0h0.4c0.1-0.1,0.2-0.1,0.2-0.1h0.2c0.1,0,0.2,0,0.4-0.1
					c0.2,0,0.5,0,0.7-0.1l-0.3-0.1c0.6,0,1.3,0,2.1-0.2s1.5-0.5,2-0.9c0.8-0.6,1-1,1.2-1.3c0.2-0.3,0.2-0.6,0.6-1.2
					c0.6-0.6,0.6-0.4,0.6-0.1c-0.2,0.2-0.4,0.4-0.6,0.7s-0.5,0.7-0.8,1c-0.8,1-1.9,1.7-3,2c-1.2,0.3-2.3,0.1-3.2,0.4
					c0,0-0.1,0-0.1,0.1c-0.4,0.1-0.3,0.1,0,0.1c0,0,0.1,0,0.2-0.1h0.1c0.1,0,0.1,0,0.2-0.1c0.2,0,0.4-0.1,0.6-0.1
					c0.5,0,1.1,0,1.6-0.1c0,0-0.1,0-0.2,0c0.1,0,0.2,0,0.3,0C43.5,47,42.9,47,42.5,47s-0.7,0.1-0.8,0.2c0.6-0.1,0.8-0.2,1-0.2
					c0.3-0.1,0.6,0,1.7-0.1c1.5-0.4,2.7-0.9,3.4-1.6c0.3-0.4,0.4-0.7,0.6-1.1c0.2-0.4,0.4-0.9,1.1-1.7l-0.4,0.8
					c0.2-0.2,0.3-0.4,0.4-0.6c0.1-0.1,0.1-0.1,0.1-0.2c0,0,0,0,0.1-0.1c0.2-0.2,0.2-0.3,0.3-0.5c0.1-0.2,0.2-0.3,0.3-0.5
					c0.1-0.2,0.3-0.5,0.6-1c-0.5,0.6,0.3-0.7-0.6,0.5c0.3-0.7,1.2-2,2-3c0.2-0.3,0-0.1,0-0.2c-0.9,1.1-1.1,1.8-1.9,2.7L50,41.3
					c-0.1,0.1-0.2,0.2-0.3,0.4c-0.1,0.1-0.2,0.2-0.2,0.2c-0.1,0.1-0.2,0.2-0.3,0.2c0,0-0.1,0,0-0.1c0-0.1,0.1-0.2,0.2-0.3
					c-0.3,0.3-0.4,0.5-0.6,0.7c-0.2,0,0-0.3,0.4-0.6c0.1-0.1,0.2-0.2,0.3-0.2c0.1-0.1,0.2-0.2,0.2-0.3c0.1-0.2,0.2-0.4,0.2-0.5
					c-0.2,0.3-0.3,0.5-0.5,0.8c-0.5,0,0.9-2,1.6-3c0.8-1,1.5-2,1.6-2l-0.9,1.5c0.6-0.7,1.2-1.9,1.8-2.7c0.1,0,0.1-0.1,0.2-0.2
					c0,0-0.1,0.1-0.1,0c0.1-0.2,0.2-0.3,0.4-0.4c0.5-0.7,1.1-1.9,1.7-2.4h-0.2v0.1c-0.5,0.6-1.2,1.5-0.9,0.9
					c0.5-0.8,0.9-1.2,1.2-1.4c0.3-0.2,0.5-0.3,0.7-0.4c-0.2,0.4-1.3,1.2-1.7,2c0.4-0.4,1-1.5,2.6-2.5c-0.5,0.6-1.6,1.4-1.7,1.8
					c1-1,1.2-1.4,2.5-2.2c-0.1,0.2-1.3,1.1-1.2,1.1c0.3-0.2,0.5-0.4,0.8-0.6c-1.9,1.5,0.4-0.1-0.9,1.1c0.7-0.5,0.8-0.9,1.9-1.5
					c-0.3,0.1-1.3,0.6-0.3-0.2l1.2-0.8c0.5-0.3-1.1,1-0.3,0.6l1.2-0.9c-0.1,0-0.7,0.4-0.4,0.1c0.8-0.5,1-1.1,1.8-1.8l0.1-0.1v-0.1
					l0,0c0-0.1,0.1,0,0-0.2l0,0c0,0,0,0,0,0.1l0,0H62l0,0l0.3,0.2l0.3-0.3c0.3-0.3,0.6-0.5,0.8-0.6l0.1-0.1l0,0l-0.1-0.1
					c-0.1-0.1-0.1-0.2-0.1-0.1l0.5-0.4c-0.1,0-0.1,0,0.1,0.1c0.1,0,0.1,0,0.1,0l0,0c0,0,0,0,0.1-0.1L64,26.2c1.5-1.2,3-2.6,4.2-3.7
					c-0.9,0.9,0.2,0.1,0.8-0.3c-1.1,0.9-1,1.1-0.9,1.1c0.7-0.6,1-1.1,0.6-0.8c0.2-0.1,0.3-0.2,0.5-0.3h-0.4c0,0.2,0,0.1,0,0.1
					l0.8-0.7c-0.2,0-0.2,0-0.1,0c0.1,0.1,0.1,0.1,0.1,0c0,0,0.1-0.1,0.2-0.1c0.1-0.1,0.2-0.1,0.4-0.4l-0.1,0.1
					c0.1-0.1,0.2-0.1,0.2-0.2c0.6-0.5-0.2,0.4,0.1,0.3c0.5-0.6,0.6-0.7,0.7-0.8c0.1-0.1,0.2-0.2,0.9-0.8c-0.1,0.1-0.2,0.2-0.1,0.1
					c0.8-0.6,1.5-1.4,1.6-1.6c0.2-0.2,0.5-0.4,0.7-0.7l-0.1,0.1l0,0l0,0v-0.1c-0.1-0.1,0-0.2,0-0.1L75,17c0.1-0.4,0.4-0.7,0.4-0.6
					c1.4-1.6-0.4,0.2-0.1-0.2c0.2-0.3,0.8-0.8,1.2-1.5c0.2-0.4,0.7-0.8,0.9-1c-0.2,0.2-0.4,0.4-0.5,0.6l-0.2,0.3l-0.1,0
					c0,0.1-0.1,0.2-0.1,0.2c0.1-0.1,0.2-0.2,0.2-0.2l0.2-0.1c0.1-0.1,0.3-0.3,0.4-0.4c0.1-0.1,0.1-0.2,0.2-0.2
					c0-0.1,0.1-0.1,0.1-0.2c0.1-0.1,0.1-0.2,0.2-0.2l0.6-0.7l-0.1,0.1l0,0l0,0l0,0l-0.2-0.1l0,0l0,0L78,12.7c-0.1,0-0.1-0.1-0.2-0.1
					c-0.1-0.1-0.2-0.1-0.1-0.1l0.5,0.6c0.3-0.4,0.6-0.7,0.8-1.7l-0.4,0.2c-0.1-0.1-0.1-0.1-0.1-0.1l0.7-0.2c0-0.1,0-0.3,0-0.4
					L79,11.6c0.1-0.2,0.3-0.3,0.4-0.6c-0.2,0.4-0.3,0.5-0.4,0.6l0.1-0.6c0,0.4,0,0.4,0.1,0.4l-0.8,0.2c0,0-0.1-0.1,0.1,0.1l0.6-0.2
					v0.1v-0.1l-0.6,0.2c-0.1-0.1-0.1-0.2-0.1-0.1l0.9-0.2c0-0.1,0-0.3,0-0.5l-0.2,0.7c0.4-0.6,1.1-1.5,0.4-0.7
					c0.4-0.5,0.7-0.9,1-1.3c0.1-0.4,0.3-0.7,0.4-1c0.2-0.6,0.4-1.3,0.5-1.9c0-0.2,0-0.3,0-0.4c0-0.1,0-0.2,0-0.3
					c0.2-1.2,0.4-2.2,0.6-2.9l-1.6,0.3c0,0.1,0,0.1,0,0.2c0.1,0.3,0.1,0.7,0,1.4c0,0.1-0.1,0.3-0.1,0.6c0,0.2-0.1,0.4,0,0.7
					c0.1,0.3,0.2,0.5,0.3,0.7l0.8,0.9L82,6.8L82.5,6l0.2-0.4l0.1-0.2c0-0.1,0.1-0.2,0.1-0.3c0.3-0.6,0.5-1.2,0.8-1.8l-0.8,0.5H83
					l-0.8-1c0,0.2,0,0.4,0,0.4l0,0c0.1,0,0.1,0,0.1,0.1c0,0,0,0-0.1-0.1l0.1-0.1l-0.1,0.8c0,0.2-0.1,0.4-0.1,0.6l0.1-0.2
					C82.1,4.9,82,5,82,5s0.1,0,0.1-0.1c0.1-0.1,0.1-0.2,0.1-0.1c0,0,0,0.3-0.2,0.7l-0.2,0.3L82,6.1c0,0,0,0.1,0.1,0.1
					c-0.1-0.1-0.2,0,0.1,0.3c0.2,0.2,0.2,0.1,0.2,0.2h0.1c0.1-0.1,0.1-0.2,0.1-0.2c0.2,0,0,0.2,0,0.3s0,0.2-0.1,0.2
					c0,0,0,0.1-0.1,0.1l0,0c0,0.2,0,0.2-0.2,0.6c-0.2,0.4-0.3,0.7-0.5,1v0.1c0,0.1-0.1,0.2-0.2,0.4c-0.1,0.2-0.2,0.7,0.1,1
					c0.2,0.3,0.3,0.4,0.5,0.5s0.4,0.2,0.6,0.2c0.1,0,0.1,0,0.1,0l0,0l0,0c0.1,0,0.1-0.1,0.1-0.1c0.2-0.2,0.3-0.4,0.5-0.5
					c0,0,0.1-0.1,0.1,0s0,0.2-0.1,0.2l-0.1,0.1l0,0l0,0l0,0l0,0c0,0,0,0,0,0.1v0.1c0,0.1,0,0.1-0.1,0.2c0,0.1-0.1,0.2-0.1,0.3
					c0,0.1-0.1,0.2-0.1,0.3l0,0l0,0v0.1c0,0.2-0.1,0.4,0,0.6c0,0.2,0.1,0.4,0.2,0.6c0.1,0.2,0.2,0.3,0.2,0.4
					c0.1,0.1,0.1,0.2,0.1,0.2l0,0c0,0-0.2,0.4-0.4,0.7c-0.1,0.2-0.6,1-0.9,1.6c0,0.2-0.1,0.4-0.1,0.5c0,0.2,0,0.4,0.1,0.5
					c0.1,0.2,0.1,0.2,0.2,0.2c0,0,0.1,0,0.1,0.1l0.1,0.1c0,0,0,0.1,0.1,0L83,17l0.5,0.1c0.1-0.2,0.2-0.2-0.1-0.1s-0.2,0-0.2,0.1v0.1
					c0,0,0,0,0,0.1c0,0,0,0.1,0,0.2s-0.1,0.2-0.2,0.3c-0.1,0.2-0.4,0.5-0.6,0.9c-0.5,0.6-1.1,1.5-1.2,2.6c0-0.3,0-0.5,0-0.7
					c-0.1,0.3-0.2,0.6-0.2,0.9v0.2c0,0,0,0,0,0.1v0.1c-0.1,0.2-0.4,0.5-0.7,0.8c-0.5,0.4-0.9,0.9-1.2,1.3c-0.1,0.2-0.3,0.4-0.3,0.6
					c0,0.1-0.1,0.2-0.1,0.3c0,0,0,0,0,0.1c-0.3,0.3-0.4,0.4-0.4,0.4l0,0l0,0l0,0l-0.8,1.1c0.2,0,0.3,0,0.2,0c0,0-0.1,0-0.2-0.1
					c0,0,0,0-0.1,0c-0.1,0.1-0.2,0.1-0.5,0.4c-0.1,0.1-0.4,0.4-0.4,0.5c-0.1,0.2-0.3,0.4-0.5,0.6V28l0,0l0,0l0,0l0,0l0,0l0,0
					l0.9,0.3l0,0l0,0l0,0l-0.7-0.8l0,0l0,0l0,0l0,0l-0.1,0.1c-0.1,0,0,0,0,0s0-0.1,0.1-0.1l0,0l0,0l0,0l0.7,0.8l0,0l0,0l0,0l0,0l0,0
					l-1-0.3l0,0l0,0v-0.1c0.1-0.1,0.2-0.2,0.2-0.3c-0.1,0.1-0.2,0.2-0.2,0.3V28l0,0l0,0l0,0l1,0.4l0,0l0,0l0,0l0,0l0,0
					c0.2,0.2-1.4-1.5-0.7-0.8l0,0l0,0l-0.1,0.1l-0.2,0.2c-0.1,0.1-0.2,0.2-0.3,0.4c-0.2,0.2-0.4,0.5-0.5,0.7c-0.3,0.5-0.6,1-0.9,1.5
					c-0.3,0.6-0.5,1.1-0.7,1.5c-0.1,0.2-0.2,0.3-0.3,0.5c-0.1,0.1-0.1,0.1-0.2,0.2l-0.1,0.1l-0.1,0.1c-0.1,0.1-0.1,0.2-0.1,0.2
					s0,0.1-0.1,0.1c0,0,0,0-0.1,0.1c-0.1,0-0.2,0.1-0.3,0.1c-0.4,0.1-0.8,0.3-1,0.6c-0.1,0.1-0.2,0.3-0.3,0.6c0,0.2,0,0.4,0.1,0.6
					c0.1,0.2,0.2,0.5,0.4,0.8c0.1,0.1,0.1,0.3,0.1,0.5c-0.1,0.1-0.1,0-0.2-0.2c0-0.1,0-0.1-0.1-0.2c-0.1-0.1-0.3-0.4-0.4-0.6
					c-0.2-0.4-0.2-0.7-0.1-1.1c0.1-0.3,0.2-0.5,0.2-0.5c-0.1,0.2-0.3,0.4-0.3,0.7c0,0.2,0,0.5,0.1,0.7c0.1,0.2,0.2,0.6,0.5,0.8
					c0.1,0.1,0.1,0.2,0.1,0.5c-0.2-0.4-0.1-0.1-0.2-0.3c0,0.1,0.1,0.3,0.1,0.6l0.1,0.4l0.4-0.2c0.3-0.2,0.6-0.2,0.6-0.2
					s-0.1-0.1-0.3-0.4V36c-0.2,0.1-0.5,0.2-0.7,0.3l-1-0.5l0.1,0.7c0,0.3,0,0.5,0,0.5s0.1-0.1,0.1-0.5v-0.7l0.7-0.2h0.1
					c0,0-0.1,0-0.1,0.1L70.4,36l0.1,0.6c0.1,0.3,0,0.9-0.5,1.5c-0.4,0.6-1.1,1.3-1.6,1.9c0.4-0.5,1.5-1.6,1.2-1.1
					c-0.7,0.7-1.2,1.4-1.5,1.9c-0.3,0.6-0.6,1.1-0.9,1.8c-0.5,0.8-0.4,0.5-0.2,0c0.2-0.6,0.6-1.3,0.5-1.2c-0.3,0.2-0.9,0.9-0.4,0.1
					c-0.1,0.2-0.3,0.4-0.4,0.6l-0.2,0.3l-0.2,0.3c-0.1,0.3-0.3,0.6-0.5,0.9c-0.2,0.3-0.4,0.7-0.6,1.1c-0.1,0.2-0.2,0.4-0.3,0.6
					c-0.1,0.2-0.1,0.2-0.2,0.4v-0.1c-0.3,0.5-0.9,1-1.4,1.9c0,0.1-0.5,0.5-0.7,1.1L62.4,49c0,0.1-0.1,0.1-0.2,0.1L62,49.2l-0.2,0.1
					c-0.2,0.1-0.3,0.2-0.5,0.3c-0.3,0.2-0.5,0.5-0.7,0.7c0.2-0.3,0.6-0.6,0.9-0.9c-0.2,0.1-0.6,0.5-0.8,0.9
					c-0.3,0.4-0.4,0.9-0.5,1.2c-0.1-0.1-0.6,1.3-0.5,0.7c0,0.1,0,0.3-0.1,0.5c0,0.1,0,0.2-0.1,0.3c0,0.1-0.1,0.2-0.1,0.4
					c-0.3,0.6,0,1.4,0.4,1.9s0.8,0.8,1.3,1.1s1,0.4,1.6,0.4c0.4-0.1,0.7-0.1,0.9-0.2c0.6,0,0.1,0.2,0,0.3c-0.4,0-0.7,0-0.9,0.1
					c-0.4,0-0.7-0.1-0.9-0.1c-0.5-0.2-0.8-0.3-1.1-0.5c0.6,0.4,1.1,0.7,1.6,0.7c0.2,0.1,0.5,0,0.5,0.1c0.1,0,0.1,0,0.1,0
					c1.1-0.3,3.9-0.6,4.5-0.9c0.9,0,1.7,0,1.4,0.1c3.5-0.4-1.8-0.3,2.2-0.7c1.8,0-1.8,0.4,0.8,0.2L71.3,56c1.9,0.2,1.3-0.4,3.3-0.6
					c0.3,0.2-1.4,0.3,0,0.3c0.9-0.1,1.6-0.3,2.3-0.4c0.7-0.1,1.5-0.5,1.7,0.3c0-0.1-0.1-0.1-0.2-0.2c0.1,0.1,0.2,0.2,0.1,0.4
					c-0.2,0.3-0.5,0.7-0.7,1v0.1c0,0,0.1,0.1,0.2,0.1c0.2,0,0.3,0.1,0.5,0.1c0.3,0.1,0.7,0.2,1.1,0.3c0.2,0.1,0.3,0.2,0.4,0.3
					c0.1,0.2,0.1,0.3,0.1,0.5c0,0,0-0.1-0.1-0.2c0,0.4-0.1,0.6-0.2,0.7c-0.1,0.1-0.1,0.2-0.2,0.3c-0.1,0.1-0.1,0.3-0.9,0.4
					c-0.1,0.1-0.3,0.1-0.4,0.2c0.4,0,1-0.1,1.5-0.6c0.5-0.4,0.6-1.1,0.2-1.4c0.2,0.2,0.2,0.2,0.2,0.1s-0.1-0.3-0.3-0.4
					c-0.4-0.3-1-0.5-0.6-0.5H79c-0.1,0-0.2-0.1-0.3-0.1c0,0-0.1,0-0.1-0.1l0.2-0.2c0.1-0.1,0.3-0.2,0.4-0.4c0.1-0.1,0.2-0.3,0.1-0.5
					c0-0.2-0.1-0.4-0.3-0.6c-0.1-0.2-0.4-0.4-0.6-0.4c-0.5-0.1-0.9,0-1.3,0c-0.4,0-0.8,0.1-1.2,0.1c-1.7,0.1-3.5,0.2-5.2,0.4
					c-2.4,0.4-4.1,0.3-6.7,0.7c-0.2,0.1-0.3,0.2-0.7,0.2c-0.1,0-0.2,0-0.3,0c-0.1,0-0.2,0-0.3,0c-0.3-0.1-0.6-0.2-1-0.5
					c0.9,0.5,0.1,0-0.3-0.5c-0.3-0.2-0.6-0.5-0.6-0.8c0,0,0-0.1,0.1-0.2c0.2-0.3,0.5-1.2,0.8-1.8c0.3-0.7,0.7-1.1,0.9-1.4
					c1-0.4-0.2,0.1-0.3,0.4c0.3-0.2,0.4-0.4,0.8-0.6c0.1-0.1,0.3-0.1,0.4-0.2c0,0,0,0.1-0.2,0.2c0.4-0.2,0.6-0.5,0.8-0.9
					c0.1-0.3,0.2-0.4,0.3-0.5c0.1-0.1,0.2-0.3,0.4-0.5c0,0,0.1-0.1,0.1-0.2l0.1-0.1l0.2-0.2c0.3-0.3,0.6-0.6,0.9-1
					c0.2-0.2,0.3-0.4,0.5-0.7c0.1-0.1,0.2-0.3,0.2-0.4c0-0.1,0.1-0.2,0.1-0.3c-0.1-0.1,0.1-0.5,0.5-1.1c0.2-0.3,0.4-0.6,0.5-0.9
					c0.2-0.3,0.3-0.6,0.4-0.8c0,0.1,0.1-0.1,0.3-0.4c0.2-0.3,0.5-0.7,0.8-0.9l0.6-1c0.3-0.5,0.6-0.7,0.9-1.1c0.3-0.3,0.7-0.7,1-1.5
					c-0.1,0.1-0.1,0.2-0.2,0.3c0.2-0.4,0.5-1.1,0.5-1.9l-0.4,0.5c0.2-0.1,0.5-0.1,0.7-0.2l0,0h0.1c0.1-0.1,0.4-0.2,0.6-0.6
					c0.1-0.4-0.1-0.6-0.1-0.7l0.1,0.2c0-0.2,0-0.4-0.1-0.6c0-0.1-0.1-0.2-0.1-0.3v-0.1c-0.1-0.1-0.1-0.2-0.1-0.3
					c0-0.2,0.2-0.2,0.4-0.2l0.2-0.1c0.1-0.1,0.2-0.1,0.3-0.2c0.1-0.1,0.2-0.2,0.2-0.3l0,0l0.1-0.1c0.6-0.6,1-1.3,1.4-1.9
					c0.3-0.6,0.6-1.2,0.9-1.8c0.2-0.3,0.3-0.5,0.5-0.7c0.1-0.1,0.2-0.2,0.3-0.3l0.1-0.1l0.1-0.1l0.1-0.1c0.1-0.1,0.1-0.2,0.1-0.2
					l0,0l0,0l0.1-0.1l0.2-0.2c0.1-0.1,0.1-0.1,0.3-0.3c0.1-0.1,0.3-0.2,0.6-0.5c0.2-0.2,0.3-0.7,0.3-1l-0.8,0.6
					c0.4-0.1,0.7-0.3,0.9-0.5c0.2-0.2,0.4-0.5,0.5-0.6c0,0,0.2-0.2,0.2-0.4l0.1-0.3c0.1-0.2,0.2-0.3,0.3-0.5
					c0.2-0.3,0.5-0.6,0.8-0.8c0.4-0.3,0.8-0.6,1.1-1.2c0.2-0.3,0.3-0.6,0.3-0.9v-0.4c0-0.1,0-0.2,0.1-0.3c0.1-0.3,0.2-0.6,0.5-1
					c0.2-0.3,0.5-0.7,0.9-1.1c0.2-0.2,0.4-0.5,0.5-0.8c0.2-0.3,0.3-0.6,0.3-1.1c0-0.3,0-0.5-0.1-0.8c-0.1-0.3-0.4-0.7-0.7-0.9
					l0.3,0.3c-0.1-0.1-0.1-0.1-0.1-0.1l0,0h-0.1c0-0.1,0-0.1,0-0.2l0.2-0.3l0.2-0.4c0.1-0.1,0.2-0.4,0.2-0.4c0-0.1,0.1-0.3,0.1-0.3
					s-0.1,0.1-0.1,0.2c-0.1,0.1-0.2,0.2-0.1,0c0.1-0.2,0.2-0.4,0.3-0.6c0.1-0.2,0.1-0.4,0.1-0.6c0-0.4-0.2-0.6-0.5-0.9
					c-0.2-0.2-0.1-0.2-0.1-0.3c0,0,0,0.1,0,0.2l0.1,0.1l0,0c0,0,0,0-0.1,0l0.1,0.1c0.2,0.3,0.5,0.5,0.5,0.9c0,0.3-0.1,0.7-0.3,1
					c-0.1,0.1,0-0.1-0.1,0c-0.2,0.4-0.6,1.2-0.7,1.3c0-0.1,0.1-0.2,0.1-0.3c0.1-0.2,0.1-0.3,0.2-0.5c0-0.1,0.1-0.2,0.1-0.3
					c0-0.1,0.1-0.2,0.1-0.3c0.1-0.2,0.3-0.6,0.4-1c0,0.1,0,0.4-0.2,0.8c0.3-0.5,0.3-0.8,0.2-1.1c-0.1-0.3-0.3-0.4-0.4-0.6
					c-0.1-0.1-0.1-0.2-0.1-0.3v-0.1c0,0,0-0.1,0.1-0.2c0.1-0.2,0.1-0.2,0.1-0.3c0.1-0.1,0-0.1,0.1-0.1c0.2-0.3,0.3-0.6,0.4-0.9
					c0.1-0.3,0.2-0.7,0.3-1c0.2-0.6,0.2-1.1,0.3-1.7c0-0.1,0-0.3,0-0.5l-0.2-0.1c-0.7,0.5-1,0.8-1.6,1.1c-0.2,0.2-0.6,0.4-0.9,0.7
					c-0.1,0.1-0.2,0.1-0.2,0.2l-0.1,0.1l0,0v0.1l0,0V9l0,0l0,0c0,0,0,0,0-0.1V9l0,0V8.7V8.6l0,0l0.1-0.1c0.1-0.1,0.2-0.2,0.3-0.3
					c0.4-0.4,0.8-0.7,1.1-0.9c0.6-0.4,1-0.8,1.5-1.2l-0.9,0.4l-0.2,0.3C84.3,7,84,7.1,83.6,7.4c-0.2,0.1-0.4,0.3-0.7,0.6l0,0.6
					l-0.1,0.1l0,0l0,0c0,0,0,0,0,0.1v0.6l0,0l0,0c0,0,0,0,0-0.1V9.2l0.1-0.1l0,0l0,0l0,0v0.1l-0.1,0.1c-0.1,0.1-0.2,0.2-0.2,0.2
					s0,0,0.1,0c0.1,0,0.2,0.1,0.5,0.3c0,0,0.1-0.1,0.1,0c0,0,0.2-0.3,0.2-0.4l0.3-0.7c-0.1,0.3,0,0.1,0.2-0.2
					c0.1-0.3,0.3-0.7,0.3-0.6c0.1-0.2,0.2-0.5,0.2-0.8c0-0.1,0-0.1,0.1-0.2l0.1-0.2c0.1-0.1,0.1-0.3,0.1-0.4l0,0
					c0-0.2,0.1-0.3,0.1-0.4c0.2-0.5,0.1-1,0-1.2c0-0.1,0-0.1-0.1-0.1c0-0.1-0.1-0.1-0.2-0.2c-0.1,0-0.2-0.1-0.2-0.1v0.1l0.1,0.2v0.1
					c0,0-0.1,0-0.1-0.1c-0.1,0-0.2-0.1-0.5-0.2c-0.1,0-0.1,0-0.2-0.1c0,0,0,0-0.1,0.1l-0.1,0.2l-0.2,0.3l-0.1,0.2l0,0
					c0.1-0.1-0.8,1-0.4,0.5l0,0l0,0l0,0l0,0c0.1-0.1,0.2-0.2,0.4-0.3l0.1,1c0.4-0.7,0.5-1.5,0.7-2.1l-0.4,0.6c0.3-0.2,0.6-0.6,0.7-1
					c0.1-0.3,0.1-0.6,0.1-0.7L84.7,2l-1.2-0.1c-0.1,0-0.2,0-0.3,0h-0.6l-0.3,0.7v0.1c0.3-0.4-0.1,1-0.5,1.9
					c-0.2,0.4-0.4,0.6-0.2,0.2L81.1,6L81,6.2L82.6,6c-0.1,0.1-0.3,0.2-0.2,0.1c0,0,0.1,0,0.2,0c0.1,0,0,0,0.1,0
					c0-0.1,0.2-0.4,0.2-0.9c0-0.2,0.1-0.6,0.1-1s-0.1-1.1-0.4-1.6L81.1,0l-0.4,3c-0.1,0.5-0.2,1-0.3,1.6V4.5c0,0.3,0,0.6-0.1,0.9
					c0,0.3-0.1,0.6-0.1,1l0,0v0.1c0,0.1-0.1,0.2-0.1,0.2C80,6.9,80,7,79.9,7.2V6.9c-0.2,0.6-0.3,0.9-0.4,1.1c0,0.1,0,0.2-0.1,0.4
					c0,0.1-0.1,0.3,0,0.3l0,0c0,0.1-0.1,0.1-0.1,0.2C79.2,9,79.1,9.2,79,9.3c0,0,0.2-0.1,0.3-0.2s0.3-0.3,0.4-0.3
					c0,0,0.1-0.1,0.2-0.2c0,0,0,0.1-0.1,0.1c0,0,0,0-0.1,0.1c0,0-0.2,0.2-0.3,0.3c-0.1,0.2-0.2,0.3-0.4,0.5
					c-0.2,0.3-0.3,0.5-0.2,0.3c-0.2,0.3-0.4,0.5-0.5,0.7l0.2,0.4c-0.1,0-0.2,0-0.3,0l0.7-0.5c-0.4,0-0.6,0.1-0.7,0.2L78,10.8
					l-0.1,0.3c0,0.1,0,0-0.1,0.1c0,0.2-0.1,0.4-0.3,0.6c-0.1,0.1-0.1,0.1-0.1,0.1l0.5-0.1c-0.5,0-0.5,0.2-0.6,0.2
					c-0.1,0.1-0.1,0.1-0.1,0.1c0,0.1,0,0.1-0.1,0.1l0.4-0.4c-0.3,0.1-0.4,0.2-0.4,0.1c0,0,0.1-0.2,0.4-0.3L77,12.1
					c0-0.1,0-0.1,0.1-0.2c0,0,0-0.1,0.1-0.2c0,0,0.1-0.1,0.2-0.2c0.1-0.1,0.3-0.1,0.5-0.1l-0.7,0.2c0-0.1,0.1-0.1,0.1-0.2
					c0,0.1-0.1,0.1-0.1,0.2l0.7-0.2c-0.2,0-0.4,0-0.5,0.1c-0.1,0.1-0.2,0.1-0.2,0.2c-0.1,0.1-0.1,0.1-0.1,0.2C77,12,77.1,12,77,12.1
					l0.5-0.5c-0.4,0.2-0.7,0.4-1,0.7c-0.2,0.2-0.3,0.4-0.6,0.6c-0.1,0.1-0.2,0.2-0.3,0.4l-0.2,0.4c-0.1,0.2-0.3,0.3-0.5,0.5
					c0.1-0.1,0.2-0.3,0.3-0.4c-0.3,0.3-0.8,0.7-1.2,1.4c-0.2,0.3-0.3,0.7-0.4,1.1l1-0.8c-0.5-0.1-1,0.3-1.2,0.5l-0.1,0.1l0,0
					c-0.5,0.6-1.1,1.2-1.8,1.8c0.2-0.3,0.4-0.5,0.6-0.8c-0.8,0.6-0.3,0.4-0.5,0.6c-1.1,1.1-1.5,1.2-2.2,1.7l-0.1,0.2l0.2,0.4
					c-0.1,0-0.1-0.1-0.1-0.1l-0.1-0.1l-0.1-0.1l0,0l-0.3,0.2c-0.1,0.1-0.3,0.3-0.5,0.5c-0.1,0.3-0.2,0.6-0.2,0.9l1.3-1.1
					c-0.2,0-0.3,0-0.5,0h-0.3l-0.3,0.2C66.4,21.9,64.8,23,63.7,24.2z M52.3,76.5v-0.2C52.4,76.8,52.4,77.1,52.3,76.5z M48.8,65.4
					c0.3-0.2,0.5-0.1,0.6-0.1s0.2,0.1,0.2,0.1c0.1,0.1,0,0,0,0.1C49.3,65.3,49.1,65.3,48.8,65.4c-0.2,0.1-0.4,0.3-0.6,0.5
					c-0.4,0.4-0.7,0.9-1.3,1.4c0.2-0.2,0.3-0.2,0.4-0.2c-0.4,0.5-1.1,0.8-1.4,0.8c0.2-0.1,0.6-0.3,0.9-0.7c0.4-0.3,0.7-0.7,1-1.1
					C48.2,65.8,48.5,65.5,48.8,65.4C48.8,65.4,48.9,65.4,48.8,65.4z M62.5,80c0,0.1,0,0.1,0,0.2l0,0V80z M56.9,81.1
					c-0.1,0-0.2,0-0.4,0C56.6,81.2,56.8,81.3,56.9,81.1z M53.2,69c0.1-0.3,0.1-1.4-0.2-2.1C53.1,67.3,53.2,68,53.2,69z M26.8,65.1
					C26.8,65.1,26.7,65.1,26.8,65.1L26.8,65.1l-0.3,0.2c0,0-0.1,0-0.1,0.1c0,0,0,0.1-0.1,0.2c-0.2,0.2-0.2,0.3,0.1,0.1l0.1-0.1
					c0-0.1,0-0.1,0.1-0.1h0.1l0.1-0.1l0.2-0.2c0.1-0.1,0.2-0.2,0.3-0.3c0-0.1,0.1-0.2,0.1-0.2l0,0l0,0c0,0,0,0-0.1,0l0,0
					c0,0.1-0.1,0.1-0.1,0.2C27,64.9,26.8,65,26.8,65.1z M53.8,34.3c0,0.1-0.1,0.5,0.1,0.3l-0.1,0.1c0.1-0.1,0.2-0.2,0.1-0.1
					c0.2-0.3,0.5-0.7,0.6-0.9C54.4,33.5,54.8,32.8,53.8,34.3z"/>
				<path class="st1" d="M43,46.7c0.2,0,0.4,0,0.5,0C43.4,46.7,43.2,46.7,43,46.7z"/>
				<path class="st1" d="M54.5,33.8c0,0-0.3,0.3-0.6,0.8C53.9,34.5,54.1,34.3,54.5,33.8z"/>
				<path class="st1" d="M76,68.5c0,0.1,0,0.2,0,0.2S76,68.6,76,68.5C76.1,68.5,76.1,68.5,76,68.5c0.1,0,0.1,0,0.1,0
					c0.1,0,0.5,0,0.7,0c1-0.2,1.2-0.3,1.4-0.5c-0.5,0.3-1,0.3-1.4,0.3c-0.5,0-0.8-0.2-0.9,0.2c-0.1,0.2,0,0.3,0.2,0.4
					s0.5,0.3,0.7,0.5c-0.2-0.2-0.5-0.4-0.7-0.5C75.9,68.7,76,68.7,76,68.5z"/>
				<path class="st1" d="M75.7,69.5c0.1,0.1,0.2,0.2,0.3,0.2c0,0.1,0.2,0.2,0.2,0.2c0.1,0,0.1,0,0.2,0.1c-0.1-0.1-0.2-0.2-0.3-0.3
					C76,69.7,75.9,69.6,75.7,69.5z"/>
				<path class="st1" d="M66.5,77.7L65.8,75h0.1c0.1-0.1,0-0.1-0.2-0.1c0.1,0.3,0.2,0.8,0.3,1.4C66.3,77,66.5,77.6,66.5,77.7z"/>
				<path class="st1" d="M71.3,76.7c0.2-0.2,0.3-0.4,0.5-0.7c-0.5,0.6-1.2,1.3-1.2,1.5C71.2,76.7,70.8,77.3,71.3,76.7z"/>
				<path class="st1" d="M64.7,78.6c-0.3,0-0.6-0.4-0.9-0.7l-0.9-1l-0.5,1.2c-0.1,0.4-0.1,0.6-0.1,0.8c0-0.1,0.1-0.4,0.2-0.7L63,77
					l0.8,0.9C64.2,78.3,64.6,78.7,64.7,78.6z"/>
				<path class="st1" d="M65.2,80.2c0.3,0.1,0.7,0.1,1.2,0c0.5-0.2,1-0.4,1.4-1c-0.3,0.5-0.9,0.8-1.4,0.9
					C65.9,80.3,65.4,80.2,65.2,80.2z"/>
				<path class="st1" d="M59.1,78.9c0,0,0.1,0,0.2,0c0.1,0.2,0.2,0.4,0.4,0.7c0.1,0.1,0.2,0.3,0.3,0.4l0.2,0.2l0.1,0.1
					c0,0-0.1,0-0.1-0.1L60,80c-0.1-0.1-0.2-0.2-0.3-0.4c0.1,0.2,0.2,0.3,0.3,0.5c0.1,0.1,0.1,0.1,0.2,0.2l0.1,0.1
					c0.1,0.1,0.2,0.2,0.3,0.2c0.2,0.1,0.4,0.2,0.8,0.2c-0.4-0.1-0.8-0.3-1-0.6c0,0-0.2-0.2-0.2-0.3c-0.1-0.1-0.1-0.3-0.2-0.4
					c-0.1-0.2-0.1-0.4-0.1-0.3c-0.1-0.2-0.3-0.4-0.4-0.6c-0.3,0-0.3,0-0.4,0c-0.1,0.1-0.2,0.2-0.3,0.3c0,0.1,0,0.1,0,0.1h0.1
					C59,78.9,59.1,78.8,59.1,78.9z"/>
				<path class="st1" d="M62.9,78.9c0.3,0.3,0.5,0.6,0.9,0.8c0.3,0.2,0.7,0.5,1.3,0.6c-0.2-0.1-0.6-0.2-1.6-1
					c0.1,0.1,0.3,0.1,0.4,0.2C63,78.7,64.1,80,62.9,78.9z"/>
				<path class="st1" d="M56.2,80.5c0.1,0.1,0.2,0.2,0.2,0.3l0.1,0.1c0.1,0.1,0.1,0,0.2,0s0.3-0.2,0.4-0.4c0.1-0.1,0.1-0.1,0.2-0.3
					c0.1-0.2,0.2-0.4,0.3-0.5c0.2-0.3,0.4-0.6,0.6-0.8c-0.4,0.3-0.8,0.8-1.1,1.3c-0.1,0.2-0.4,0.4-0.5,0.5s-0.1,0.1-0.1,0.1
					s-0.1,0-0.1-0.1L56.2,80.5L56.2,80.5z"/>
				<path class="st1" d="M61.3,81.6l-0.2,0.2c1.3,0.1-0.1,0,0.4-0.1c0.3,0,1-0.1,1.2-0.3c-0.3,0.2-0.5,0.2-0.6,0.2s-0.1,0-0.1,0
					C61.9,81.5,62,81.6,61.3,81.6z"/>
				<path class="st1" d="M58.7,80.5c-0.1,0.1-0.2,0.3-0.2,0.4l-0.1,0.2c-0.1,0.1-0.2,0.2-0.3,0.3c0.4-0.4,0.5-0.4,0.6-0.5
					c0.2-0.3,0.3-0.3,0.2-0.3C58.8,80.5,58.7,80.6,58.7,80.5z"/>
				<path class="st1" d="M57.7,81.5l-0.2,0.1c-0.2,0.1-0.3,0.3-0.6,0.4c-0.2,0.1-0.6,0.1-0.8,0c-0.3-0.1-0.5-0.2-0.6-0.3
					c-0.1-0.1-0.2-0.1-0.3-0.2c0.2,0.1,0.2,0.1,0.5,0.3c0.2,0.2,0.5,0.2,0.7,0.3C56.9,82.1,57.3,81.9,57.7,81.5z"/>
				<path class="st1" d="M46.1,66.6c0,0.1,0.1,0,0.3-0.1s0.3-0.3,0.1-0.1C46.5,66.2,46.2,66.5,46.1,66.6
					C45.9,66.7,45.8,66.7,46.1,66.6z"/>
				<path class="st1" d="M50.4,66.1c-0.1-0.1-0.3-0.2-0.6-0.3c-0.1-0.1-0.3-0.1-0.4-0.2c-0.1,0-0.2,0-0.3,0c-0.2,0-0.3,0.1-0.4,0.2
					c-0.2,0.2-0.4,0.4-0.5,0.6c0.2-0.2,0.4-0.5,0.6-0.6c0.1-0.1,0.3-0.2,0.5-0.1C49.8,65.9,50.5,66.2,50.4,66.1z"/>
				<path class="st1" d="M48,66.7c0-0.1,0.1-0.2,0.2-0.3C48.1,66.5,48,66.6,48,66.7z"/>
				<path class="st1" d="M17.9,88.4c-0.1-0.1-0.3-0.2-0.4-0.3C17.6,88.2,17.8,88.3,17.9,88.4z"/>
				<path class="st1" d="M19.4,88.8c0.3,0,0.6-0.1,0.9-0.4c0.2-0.1,0.3-0.2,0.4-0.4c0.1-0.1,0.2-0.2,0.3-0.3
					c0.4-0.5,0.6-0.8,0.6-0.9c-0.1,0.2-0.3,0.4-0.5,0.7l-0.3,0.3c-0.1,0.1-0.3,0.3-0.4,0.4c-0.6,0.6-1.7,0.7-2.5,0.1
					c0.3,0.2,0.7,0.4,1,0.4C19.2,88.9,19.5,88.8,19.4,88.8z"/>
				<path class="st1" d="M12.8,90.8c0.4-0.3,1-0.6,0.8-0.6c-0.1,0.1-0.4,0.3-0.6,0.4C12.7,90.8,12.7,90.9,12.8,90.8z"/>
				<path class="st1" d="M32.4,61c0.6-0.5,1-0.9,0.7-0.8C32.5,60.8,32.9,60.5,32.4,61z"/>
				<polygon class="st1" points="33.9,59.5 34.1,59.5 34.5,59.2 				"/>
				<path class="st1" d="M37.2,54c0,0.1,0,0.3,0,0.5C37.3,54.1,37.2,53.6,37.2,54z"/>
				<path class="st1" d="M37.3,54.7c0-0.1,0-0.1,0-0.2C37.3,54.6,37.3,54.7,37.3,54.7z"/>
				<path class="st1" d="M37.2,55.1L37.2,55.1c0.1,0,0.1-0.2,0.1-0.4C37.3,54.9,37.2,55.1,37.2,55.1z"/>
				<path class="st1" d="M36.5,52c0.1,0.3,0.3,0.7,0.4,1.2c0.3,0.8,0.2,0.3,0-0.1c-0.1-0.4-0.3-0.8,0.1-0.2
					C36.9,52.5,36.7,52.2,36.5,52z"/>
				<path class="st1" d="M34.3,48.9c0,0-0.1-0.1-0.1-0.2c0,0,0-0.1,0.1-0.1c0,0,0,0,0.1-0.1s0.3-0.2,0.4-0.3
					c0.1-0.1,0.2-0.2,0.2-0.3l0.1-0.1c0.1-0.2,0.1-0.2,0.1-0.2s0,0,0-0.1l0.3-0.1c0.3-0.2,0-0.1,0-0.2c0,0,0.1-0.2,1.3-0.6
					c-0.7,0.2-1.1,0.4-1.4,0.5l-0.2,0.1c-0.1,0.1-0.2,0.1-0.2,0.2c0,0.1,0,0.1-0.1,0.2c0,0,0,0.1-0.1,0.1c-0.1,0.1-0.1,0.2-0.2,0.3
					c-0.1,0.1-0.3,0.2-0.6,0.5c0.2-0.1,0.1,0,0.1,0C34.1,48.8,34.2,48.9,34.3,48.9z"/>
				<path class="st1" d="M34.1,49.2c0.1-0.1-0.3-0.2-0.3-0.4C33.7,48.9,33.9,49.2,34.1,49.2z"/>
				<path class="st1" d="M36.8,47.2c0.3-0.1,0.5-0.1,0.8-0.1l0.2-0.1C37.4,47,37.1,47.1,36.8,47.2z"/>
				<path class="st1" d="M39.7,47c-0.3,0-0.5,0-0.7,0C39.2,47,40.3,47.2,39.7,47z"/>
				<path class="st1" d="M44.9,46.8c0.5-0.1,0.9-0.4,1-0.5s-0.2,0-1.2,0.4c0.2,0,0.3-0.1,0.5-0.1C45,46.6,46.1,46.4,44.9,46.8z"/>
				<path class="st1" d="M52.4,38c-0.3,0.5-0.7,1-0.6,1l0.8-1.3L52.4,38z"/>
				<path class="st1" d="M51.7,37.8c-0.4,0.3-0.8,1.2-1.4,2C51,38.9,50.9,39,51.7,37.8z"/>
				<path class="st1" d="M53.6,36.6c-0.2,0.4-0.6,0.9-0.8,1.2C52.9,37.7,53.5,36.9,53.6,36.6z"/>
				<path class="st1" d="M54.9,34.6c0.3-0.4,0,0.1,0.3-0.2c0.4-0.5,0.6-0.8,0.9-1.2c0.3-0.3,0.5-0.6,0.7-0.8
					c-0.2,0.1-0.6,0.3-0.4-0.1c-0.6,0.6-0.9,1.1-1.1,1.6c-0.3,0.5-0.5,0.9-0.8,1.1l-0.6,1.4C54.7,35.2,54.4,35.3,54.9,34.6z"/>
				<path class="st1" d="M52.5,37.2l0.6-0.7c-0.2,0.1,0.2-0.5,0.5-0.9C53.3,35.6,52.8,36.7,52.5,37.2z"/>
				<path class="st1" d="M61.9,28.3l0.3-0.3l0.2-0.2v-0.1c0,0,0,0,0-0.1c-0.1,0-0.2,0-0.2-0.1s0,0,0,0.2h-0.1l0,0l0.4,0.2l0.4-0.4
					l0.6-0.5L63,27.4l-0.2,0.2l-0.3,0.3l-0.4-0.2l0,0h0.1c0-0.2,0-0.3,0-0.2c0,0,0.1,0.1,0.2,0.2c0,0,0,0,0,0.1v0.1l-0.2,0.2
					L61.9,28.3z"/>
				<path class="st1" d="M62.9,27.7L62.9,27.7l0.8-0.7l0.1-0.1l-0.4-0.3c-0.1-0.1-0.1-0.2-0.1-0.1l0.5-0.4c-0.1,0-0.1,0,0,0
					c-0.1-0.1-0.1,0,0,0l-0.5,0.4c0-0.1,0,0,0.1,0.1l0.3,0.3h-0.1L62.9,27.7z"/>
				<path class="st1" d="M64.3,26.4L64.3,26.4L64.3,26.4L64.3,26.4L64.3,26.4L64.3,26.4h-0.2c-0.1-0.1-0.2-0.1-0.3-0.2
					c-0.1-0.1-0.1,0,0,0l-0.5,0.3c0-0.1,0,0,0.1,0.1l0.4,0.4l-0.1,0.1l-0.3,0.3l0.3-0.3l0.1-0.1l-0.4-0.4c-0.1-0.1-0.1-0.2-0.1-0.1
					l0.5-0.4c-0.1,0-0.1,0,0.1,0.1c0,0,0.1,0.1,0.2,0.1C64.2,26.4,64.3,26.4,64.3,26.4C64.2,26.4,64.3,26.4,64.3,26.4L64.3,26.4
					L64.3,26.4z"/>
				<path class="st1" d="M67.6,23.7l-0.3,0.2c-0.4,0.3-1.2,0.9-1.1,0.9C66.5,24.5,67.3,23.9,67.6,23.7z"/>
				<path class="st1" d="M75.6,12.7c-0.2,0.3,0,0.2,0.2,0c0.1-0.2,0.1-0.3,0.3-0.6c0,0-0.1,0.1-0.2,0.2l-0.1,0.1
					C75.7,12.6,75.6,12.7,75.6,12.7z"/>
				<path class="st1" d="M77.2,11.4c0-0.1,0-0.2,0-0.2v-0.3l0.4-0.3c0.2-0.2,0.6-0.3,0.9-0.3l-0.7,0.9c0.1,0,0.2,0.1,0.3,0l-0.5-0.6
					l0.3-0.5c-0.1,0.2-0.3,0.4-0.4,0.5l0.5,0.7c-0.1,0-0.2,0-0.3,0l0.7-1c-0.4,0-0.8,0.2-0.9,0.3l-0.4,0.3L77,11.3
					c0,0.2-0.1,0.4-0.3,0.6l0.8-0.2c-0.6,0-0.8,0.2-0.9,0.3c-0.1,0.1-0.1,0.2-0.2,0.2c-0.1,0.1-0.1,0.1-0.1,0.2l0.6-0.6
					c-0.4,0.1-0.8,0.5-1.1,0.8c0.2-0.2,0.6-0.6,1.1-0.8l-0.6,0.6c0.1-0.1,0-0.1,0.1-0.2c0,0,0.1-0.1,0.1-0.2c0,0,0.1-0.1,0.2-0.2
					c0.1-0.1,0.4-0.2,0.6-0.1l-0.8,0.2c0.2-0.2,0.3-0.4,0.4-0.6C77.2,11.3,77.2,11.4,77.2,11.4z"/>
				<path class="st1" d="M85.2,6.9c-0.2,0.3,0.1,0-1,0.9c0.5-0.4,0.8-0.7,1.3-1c0.3-0.1,0.2,0.8,0.1,1.3c-0.1,0.5-0.1,1.1-0.4,1.9
					c0.3-0.4-0.3,1.3,0,0.4c0.2-0.4,0.3-0.9,0.4-1.3c0.1-0.4,0.1-0.7,0.1-1l0.1,0.2c0.1-0.6,0.1-0.9,0.1-1.2c0-0.1,0-0.3,0-0.3
					s-0.1-0.1-0.2-0.2C85.6,6.7,85.5,6.8,85.2,6.9z"/>
				<path class="st1" d="M78.1,55c-0.1,0,0.1,0.1,0.1,0.2c0.2,0.1,0.2,0.1,0.1,0C78.3,55,78,55,78.1,55z"/>
			</g>
		</g>
		<g>
			<path class="st1" d="M108.1,23.3c0.1,0,0.2,0.1,0.4,0.1c0.2,0,0.4,0.1,0.5,0.1c0.2,0,0.4,0.2,0.7,0.4c0.6,0.3,0.8,0.8,0.7,1.5
				c0,0.3-0.1,0.7-0.1,1c-0.1,0.3-0.1,0.6-0.2,0.9c0,0.1,0,0.2-0.1,0.3c0,0.1-0.1,0.2-0.1,0.3c-0.1,0.1-0.1,0.2-0.2,0.3
				c-0.1,0.1-0.1,0.2-0.2,0.4c-0.3,0.6-0.6,1.2-0.9,1.9c-0.3,0.6-0.6,1.3-0.9,1.9c-0.1,0.1-0.2,0.4-0.3,0.7
				c-0.4,0.6-0.8,1.2-1.1,1.8c-0.3,0.6-0.7,1.3-1,1.9c-0.2,0.4-0.4,0.8-0.6,1.1c-0.2,0.4-0.4,0.8-0.6,1.1c-0.1,0.2-0.2,0.3-0.3,0.5
				s-0.2,0.4-0.3,0.6c-0.1,0.3-0.3,0.6-0.4,0.9c-0.1,0.3-0.2,0.6-0.3,1c-0.1,0.3-0.2,0.5-0.4,0.8c-0.2,0.2-0.3,0.5-0.3,0.8v0.2
				c0.1,0.1,0.2,0.2,0.4,0.1c0.3-0.2,0.6-0.4,0.9-0.6s0.6-0.4,0.9-0.7c0.4-0.4,0.8-0.7,1.2-1c0.5-0.3,0.9-0.7,1.4-1
				c0.3-0.2,0.6-0.5,0.9-0.7s0.6-0.4,1-0.7c0.1-0.1,0.1-0.1,0.2-0.2c0.1-0.1,0.2-0.1,0.2-0.2c0.4-0.4,0.8-0.8,1.3-1.1s0.9-0.7,1.3-1
				c0.1-0.1,0.2-0.1,0.3-0.2c0.1-0.1,0.2-0.1,0.3-0.2c0.7-0.6,1.5-1.2,2.4-1.7c0.5-0.3,1-0.7,1.4-1.1c0.2-0.2,0.3-0.3,0.5-0.5
				s0.4-0.3,0.7-0.4c0.4-0.1,0.7-0.3,1.1-0.5c0.3-0.2,0.7-0.4,1-0.7c0.7-0.6,1.4-1.1,2.1-1.4c0.2-0.1,0.4-0.2,0.6-0.3
				c0.2-0.2,0.4-0.3,0.6-0.4c0.2-0.2,0.4-0.2,0.7-0.2c0.3,0.1,0.5,0.2,0.8,0.3c0.1,0.1,0.1,0.2,0.1,0.3s-0.1,0.2-0.1,0.3
				c-0.6,0.4-1.3,0.8-1.8,1.2c-0.6,0.4-1.2,0.8-1.7,1.3c-0.9,0.8-2,1.6-3.3,2.2c-0.3,0.1-0.5,0.2-0.7,0.4c-0.2,0.1-0.4,0.3-0.7,0.4
				c-0.9,0.5-1.7,1.1-2.4,1.7c-0.2,0.2-0.3,0.3-0.5,0.5c-0.2,0.1-0.4,0.3-0.6,0.4c-1,0.7-2.1,1.5-3.1,2.4c-0.5,0.5-1.1,1.1-1.6,1.6
				s-1.1,1-1.6,1.6c-0.1,0.1-0.1,0.2-0.2,0.3c-0.1,0.1-0.2,0.2-0.3,0.3c-0.3,0.3-0.3,0.7-0.1,1.1c0.1,0.1,0.1,0.1,0.1,0.2
				c0,0.1,0.1,0.1,0.1,0.2c0.4,0.6,0.7,1.3,0.9,2.1c0.2,0.5,0.3,1,0.4,1.5c0.1,0.5,0.2,1,0.4,1.5c0.3,1,0.6,2.1,1,3.1
				c0.4,1,0.9,2,1.4,2.9c0.4,0.8,0.8,1.5,1.3,2.3c0.5,0.7,1,1.4,1.6,2.1c0.6,0.8,1.2,1.5,1.8,2.3s1.2,1.5,1.9,2.1
				c0.3,0.3,0.5,0.7,0.7,1.2c0.1,0.2,0,0.3-0.2,0.4c-0.1,0.1-0.2,0.1-0.4,0.1c-0.4-0.2-0.8-0.5-1.3-0.9c-0.3-0.2-0.5-0.4-0.8-0.6
				s-0.5-0.4-0.8-0.7c-0.3-0.3-0.6-0.7-0.9-1c-0.3-0.3-0.6-0.6-0.9-1c-0.4-0.5-0.9-1-1.2-1.5c-0.4-0.5-0.8-1-1.1-1.6
				c-0.1-0.2-0.2-0.3-0.3-0.4s-0.2-0.2-0.3-0.4c-0.5-0.7-1-1.4-1.4-2.1c-0.4-0.7-0.8-1.5-1.2-2.2c-0.2-0.4-0.4-0.8-0.5-1.2
				c-0.1-0.4-0.3-0.8-0.4-1.2c-0.3-0.9-0.6-1.8-0.8-2.6c-0.3-0.9-0.6-1.7-0.8-2.6c0-0.1,0-0.1,0-0.1s0,0,0-0.1s-0.1-0.1-0.3-0.2
				c-0.1-0.1-0.2-0.1-0.3,0c-0.1,0-0.1,0.1-0.2,0.1c-0.1,0-0.1,0-0.2,0.1c-0.2,0.1-0.3,0.3-0.5,0.4c-0.1,0.1-0.3,0.3-0.4,0.4
				c-0.7,0.8-1.4,1.7-2.2,2.5c-0.7,0.8-1.4,1.7-2.2,2.5c-0.8,1-1.4,2-1.9,3c-0.2,0.4-0.4,0.8-0.6,1.2c-0.2,0.4-0.4,0.8-0.8,1.1
				c-0.1,0.3-0.3,0.5-0.4,0.8c-0.1,0.3-0.3,0.5-0.4,0.8c-0.3,0.7-0.6,1.4-0.9,2.1s-0.7,1.4-1.1,2.1c-0.2,0.3-0.3,0.7-0.5,1
				c-0.2,0.4-0.3,0.7-0.5,1.1c-0.1,0.2-0.1,0.3-0.2,0.5c-0.1,0.1-0.2,0.3-0.2,0.4c-0.1,0.2-0.3,0.2-0.4,0.1
				c-0.1-0.1-0.2-0.2-0.1-0.4l0.2-0.8c0.1-0.4,0.3-0.9,0.4-1.3c0.1-0.4,0.3-0.8,0.4-1.2c0.1-0.3,0.2-0.5,0.3-0.8
				c0.1-0.2,0.2-0.5,0.3-0.8s0.3-0.7,0.4-1c0.1-0.3,0.2-0.7,0.4-1c0.1-0.3,0.2-0.7,0.3-1s0.2-0.6,0.2-0.9c0-0.1,0-0.2-0.1-0.4
				c-0.1-0.2-0.2-0.3-0.3-0.5c-0.2-0.5-0.2-0.9,0.1-1.3c0.5-0.6,0.9-1.3,1.4-1.9c0.4-0.6,0.9-1.3,1.4-2c0.3-0.5,0.5-0.9,0.7-1.4
				c0.2-0.4,0.4-0.7,0.6-1.1c0.2-0.3,0.4-0.7,0.6-1c0.3-0.5,0.6-1.1,0.9-1.7c0.3-0.6,0.6-1.1,0.7-1.7c0.1-0.2,0.2-0.4,0.3-0.6
				s0.2-0.4,0.4-0.6c0.2-0.4,0.4-0.7,0.6-1.1c0.2-0.4,0.4-0.7,0.5-1.1c0.2-0.4,0.3-0.8,0.5-1.2s0.4-0.7,0.6-1.1
				c0.1-0.1,0.1-0.2,0.2-0.4c0.1-0.1,0.1-0.3,0.2-0.4c0.2-0.4,0.3-0.7,0.5-1.1c0.2-0.4,0.3-0.7,0.5-1.1c0.2-0.4,0.3-0.8,0.5-1.2
				c0.1-0.4,0.3-0.8,0.5-1.2s0.3-0.7,0.5-1.1c0.2-0.4,0.4-0.8,0.5-1.2c0.5-1.2,0.8-2.4,1.1-3.8v-0.4c0-0.1-0.1-0.2-0.2-0.3
				c-0.1-0.1-0.2-0.2-0.3-0.2s-0.1,0.1-0.2,0.1c-0.1,0-0.1,0-0.2,0.1c-0.5,0.2-0.9,0.5-1.3,0.8c-0.7,0.5-1.4,1-2.1,1.5
				s-1.3,1.1-2,1.6c-0.4,0.3-0.7,0.6-1,0.9c-0.3,0.3-0.6,0.6-0.9,1c-0.3,0.3-0.6,0.7-0.9,1s-0.7,0.7-1,1c-0.3,0.4-0.7,0.8-1,1.2
				s-0.7,0.8-1.1,1.2c-0.6,0.7-1.2,1.4-1.7,2.1c-0.6,0.7-1.1,1.4-1.6,2.2c-0.4,0.5-0.8,1-1.2,1.5s-0.7,1.1-1.1,1.6
				c-0.1,0.1-0.2,0.3-0.4,0.5c-0.3,0.2-0.5,0.3-0.7,0.3c-0.5,0-1-0.1-1.5-0.4c-0.2-0.1-0.3-0.3-0.4-0.5c-0.1-0.2-0.1-0.4-0.1-0.6
				c0-0.1,0.1-0.3,0.2-0.4c0.1-0.2,0.3-0.3,0.4-0.5c0.1-0.2,0.2-0.3,0.4-0.5c0.6-0.7,1.1-1.3,1.7-2c0.6-0.7,1.1-1.3,1.7-2
				c0.1-0.2,0.3-0.3,0.4-0.5c0.1-0.2,0.3-0.3,0.4-0.5c0.4-0.6,0.8-1.1,1.3-1.6s0.9-1,1.4-1.5c0.1-0.1,0.1-0.1,0.2-0.2
				c0.1-0.1,0.2-0.2,0.3-0.2c0.8-0.7,1.6-1.5,2.3-2.3c0.2-0.2,0.3-0.3,0.5-0.5s0.3-0.3,0.5-0.5c0.7-0.6,1.5-1.2,2.2-1.8
				s1.5-1.2,2.3-1.8c0.1-0.1,0.2-0.1,0.3-0.2c0.1-0.1,0.2-0.1,0.3-0.2c0.8-0.6,1.6-1.2,2.4-1.8c0.8-0.5,1.7-1,2.5-1.5
				C107.1,23.4,107.6,23.3,108.1,23.3z"/>
			<path class="st1" d="M118.3,50.2c0.2-0.1,0.3-0.1,0.5-0.1c0.1,0,0.3,0,0.4-0.1c0.3-0.2,0.7-0.2,0.9,0c0.3,0.2,0.5,0.5,0.7,0.8
				s0.2,0.6,0.2,1c0,0.3-0.1,0.5-0.4,0.5c-0.7,0.2-1.5,0-2.4-0.6c-0.1,0-0.2-0.1-0.3-0.3s-0.1-0.3-0.1-0.5s0-0.3,0.1-0.5
				C118,50.3,118.1,50.2,118.3,50.2z"/>
			<path class="st1" d="M135.7,41.2c0.8,0.1,1.5,0.2,2.1,0.1c0.6-0.1,1.2-0.2,1.8-0.3c1-0.4,2.1-0.7,3.3-0.9s2.2-0.4,3.4-0.6
				c3.8-0.4,7.3,0.2,10.7,1.9c1.5,0.7,2.4,1.9,2.9,3.4s0.4,3.1-0.4,4.7c-0.1,0.3-0.3,0.6-0.6,0.9c-0.3,0.3-0.5,0.7-0.7,1.1
				c-0.7,1.2-1.5,2.3-2.5,3.2s-2.2,1.8-3.4,2.6c-0.1,0.1-0.2,0.1-0.4,0.1s-0.3,0.1-0.4,0.2c-0.4,0.3-0.9,0.7-1.7,1.1
				c-0.7,0.4-1.6,0.8-2.5,1.2s-1.9,0.8-3,1.1c-1,0.4-2,0.6-3,0.8c-1,0.2-1.8,0.3-2.6,0.3s-1.4-0.1-1.9-0.4c-0.2-0.1-0.4-0.3-0.6-0.5
				s-0.4-0.3-0.6-0.5c-0.3-0.3-0.4-0.5-0.5-0.7c0-0.2-0.1-0.5-0.1-0.7c0.1-0.4,0.1-0.8,0.2-1.1c0-0.4,0.1-0.7,0.2-1
				c0.1-0.4,0.2-0.8,0.3-1.1c0.1-0.4,0.3-0.7,0.5-1.1c0.3-0.5,0.6-1,1-1.6c0.4-0.5,0.7-1.1,1.1-1.7c0.1-0.1,0.2-0.2,0.3-0.4
				c0.1-0.1,0.2-0.3,0.3-0.4h1c0,0.1,0,0.2,0.1,0.4c0.1,0.1,0.1,0.3,0.1,0.4c-0.2,0.4-0.4,0.9-0.6,1.4c-0.2,0.5-0.4,1-0.7,1.5
				c-0.2,0.5-0.4,1-0.5,1.5c-0.1,0.5-0.2,1.1-0.1,1.7c0,0.6,0.1,1.1,0.4,1.3c0.3,0.3,0.8,0.4,1.4,0.5c0.5,0,0.9,0,1.4-0.1
				c0.5,0,0.9-0.2,1.3-0.4c0.9-0.4,1.8-0.8,2.8-1c0.9-0.3,1.8-0.5,2.7-0.8c0.8-0.3,1.6-0.8,2.5-1.4c0.8-0.6,1.6-1.3,2.3-2.1
				c0.7-0.7,1.4-1.5,1.9-2.3c0.6-0.8,1-1.5,1.3-2.2c0.3-0.6,0.5-1.3,0.6-2s0.1-1.5-0.1-2.2c-0.1-0.6-0.3-1.2-0.7-1.7
				s-0.9-0.9-1.5-1.2c-0.8-0.4-1.5-0.6-2.2-0.8s-1.5-0.2-2.3-0.2c-1.3,0-2.6,0.1-4,0.3s-2.7,0.5-4,1c-1.3,0.4-2.6,0.8-3.9,1.1
				c-0.4,0.1-0.8,0.1-1.1,0.2c-0.3,0.1-0.6,0.1-0.9,0.1c-0.6,0-1.2-0.1-1.8-0.4c-0.5-0.3-0.9-0.7-1.2-1.2c-0.2-0.3-0.4-0.5-0.5-0.7
				s-0.2-0.4-0.3-0.7c1.4-1.8,2.8-3.4,4.4-5c1.6-1.6,3.2-3.1,4.7-4.6c0.4-0.4,0.8-0.7,1.3-1c0.4-0.3,0.9-0.6,1.3-1
				c0.3-0.3,0.6-0.6,0.9-0.8c0.3-0.3,0.6-0.5,0.9-0.7c0.2-0.3,0.6-0.5,1-0.7c0.4-0.1,0.7-0.2,1-0.4s0.4-0.4,0.5-0.8
				c0.1-0.3,0.2-0.5,0.4-0.7s0.4-0.3,0.7-0.4c0.5-0.2,1-0.4,1.5-0.7c0.5-0.3,1.1-0.5,1.7-0.6c1-0.3,1.9-0.4,2.8-0.3
				c0.9,0.1,1.7,0.3,2.6,0.7c0.2,0.1,0.3,0.2,0.4,0.4c0.1,0.2,0.2,0.3,0.3,0.4c0.2,0.4,0.2,0.7,0,1c-0.3,0.3-0.7,0.4-1.2,0.4H157
				c-0.7-0.4-1.3-0.5-1.9-0.3c-0.6,0.2-1.2,0.4-1.9,0.7c-0.9,0.2-1.8,0.6-2.6,1s-1.6,0.9-2.2,1.5c-0.3,0.3-0.6,0.5-0.9,0.8
				c-0.3,0.2-0.6,0.5-0.9,0.7c-0.2,0.2-0.4,0.4-0.6,0.5c-0.2,0.2-0.4,0.3-0.6,0.5c-0.8,0.4-1.4,0.9-2,1.3c-0.5,0.5-1.1,1-1.7,1.4
				c-1,0.9-2,1.9-2.8,2.8c-0.8,1-1.7,2-2.5,2.9c-0.1,0.2-0.2,0.4-0.3,0.6S135.9,41,135.7,41.2z"/>
			<path class="st1" d="M164.8,51c0.2-0.3,0.6-0.4,1.1-0.4c0.2,0,0.4,0,0.6-0.1c0.2-0.1,0.3-0.1,0.5-0.1c0.5,0,1,0,1.4,0.2
				c0.3,0,0.7,0.1,1,0.2c0.3,0,0.7,0.1,1,0.2c0.3,0.1,0.6,0.2,0.9,0.3c-0.1-0.1-0.1-0.3-0.2-0.4c-0.3-0.5-0.7-0.9-1.1-1.3
				s-1-0.6-1.5-0.7c-0.1,0-0.3,0-0.6,0c-0.2,0-0.5-0.1-0.7-0.2c0.4-0.7,0.9-1.4,1.5-1.9s1-1.1,1.3-1.8c-0.4-0.7-0.8-1.1-1.2-1.2
				c-0.4-0.2-0.9-0.2-1.6,0c-0.5,0.1-1,0.2-1.5,0.5c-0.5,0.2-1,0.5-1.4,0.7c-0.5,0.2-0.7,0.5-0.6,1c0.4,0.1,0.8,0.2,1.1,0.2
				c0.4,0,0.8,0,1.2,0c-0.2,0.5-0.5,0.9-0.8,1.2c-0.4,0.3-0.7,0.7-0.9,1.1c-0.7,0.7-1.3,1.4-1.8,2.2c0.1,0.2,0.3,0.4,0.4,0.6
				c0.1,0.2,0.3,0.3,0.5,0.4h0.8C164.4,51.4,164.6,51.3,164.8,51z"/>
			<path class="st1" d="M177,42.9c0.1,0.1,0.3,0.1,0.4,0.2c0.1,0.1,0.2,0.1,0.3,0.1c0.2,0.2,0.2,0.3,0.2,0.4c-0.3,0.4-0.6,1-1,1.8
				s-0.8,1.6-1.1,2.3s-0.5,1.4-0.7,1.9c-0.1,0.5,0,0.6,0.4,0.4c0.2-0.1,0.4-0.2,0.5-0.3s0.2-0.2,0.4-0.2c0.9-0.8,1.8-1.7,2.7-2.6
				s1.8-1.8,2.7-2.6c0.2-0.2,0.4-0.4,0.6-0.5c0.2-0.1,0.4-0.2,0.7-0.2c0.1-0.1,0.3-0.1,0.5,0s0.5,0.3,0.8,0.5c0,0.1,0,0.3,0,0.5
				s-0.1,0.4-0.2,0.4c-0.5,0.3-0.8,0.8-1,1.2c-0.2,0.5-0.4,1-0.8,1.4c-0.3,0.4-0.4,0.9-0.5,1.3c-0.1,0.5,0,1,0.3,1.7
				c0.1,0,0.3,0,0.5,0s0.3,0,0.5-0.1c0.7-0.2,1.5-0.4,2.2-0.6c0.7-0.2,1.4-0.5,2.1-0.7c0.4-0.2,0.8-0.3,1.2-0.5s0.9-0.3,1.4-0.3
				c-0.1,0.2-0.2,0.5-0.5,0.9s-0.5,0.6-0.6,0.7c-0.7,0.5-1.4,0.9-2.2,1.2c-0.8,0.4-1.6,0.7-2.3,1.1c-0.3,0.1-0.7,0.2-0.9,0.3
				c-0.3,0.1-0.6,0.1-1,0.1c-0.3,0-0.6,0-0.9-0.2s-0.6-0.3-0.8-0.5s-0.4-0.5-0.6-0.8s-0.2-0.6-0.2-0.9c0-0.3,0-0.6,0.1-0.9
				c0.1-0.3,0.1-0.7,0.1-1.1c-0.2,0.1-0.3,0.2-0.4,0.3c-0.1,0.1-0.2,0.2-0.3,0.3c-0.4,0.5-0.8,1-1.3,1.4c-0.5,0.5-0.9,1-1.3,1.4
				c-0.2,0.1-0.4,0.3-0.7,0.5s-0.5,0.3-0.8,0.4c-0.4,0.2-0.8,0.2-1.2-0.3c-0.2-0.2-0.4-0.5-0.6-0.7c-0.1-0.3-0.2-0.6-0.2-0.9
				c0-0.5,0.1-1.1,0.3-1.5c0.2-0.5,0.3-1,0.5-1.4c0.3-0.8,0.7-1.6,1.1-2.3c0.4-0.7,0.7-1.5,1.1-2.2c0.1-0.1,0.1-0.2,0.2-0.3
				C176.8,42.9,176.9,42.9,177,42.9L177,42.9L177,42.9z"/>
			<path class="st1" d="M186.9,52.4c0-0.4,0.2-0.8,0.4-1.1s0.3-0.6,0.5-0.9c0.2-0.3,0.3-0.6,0.5-0.9c0.1-0.2,0.1-0.3,0.2-0.4
				c0.1-0.1,0.2-0.3,0.3-0.4c0,0,0-0.2,0.1-0.4c0.1-0.4,0.2-0.8,0.4-1.2s0.3-0.8,0.5-1.2c0.1-0.2,0.2-0.4,0.4-0.5
				c0.1-0.2,0.2-0.3,0.4-0.3c0.2-0.1,0.4-0.1,0.6-0.1c0.2-0.1,0.3,0,0.4,0.3c0.1,0.2,0.2,0.4,0.2,0.8v0.3c0,0.1,0.1,0.2,0.2,0.2
				c0.1,0.1,0.2,0,0.3,0c0.1-0.1,0.2-0.1,0.4-0.2c0.1-0.1,0.2-0.2,0.3-0.3s0.2-0.2,0.4-0.3c0.1-0.1,0.2-0.1,0.3-0.1s0.2,0,0.3-0.1
				c0.1,0,0.4-0.1,0.7-0.1c0.5,0,0.9,0.2,1.2,0.7c0,0.1,0,0.2,0.1,0.3s0.2,0.2,0.4,0.1c0.1,0,0.1-0.1,0.2-0.1
				c0.1-0.1,0.1-0.1,0.2-0.1l0.8-0.8c0.2-0.2,0.4-0.3,0.5-0.5c0.2-0.2,0.3-0.3,0.5-0.5c0.1-0.1,0.2-0.2,0.3-0.3s0.2-0.2,0.3-0.2
				c0.3-0.2,0.5-0.3,0.8-0.5s0.5-0.4,0.8-0.6c0.4-0.2,0.8-0.3,1.3-0.2c0.3,0.1,0.5,0.2,0.6,0.5v0.3c-0.1,0.3-0.1,0.6-0.2,0.9
				c-0.1,0.3-0.2,0.6-0.4,0.9c-0.3,0.6-0.6,1.3-0.9,1.9c-0.3,0.6-0.6,1.3-0.9,1.9c-0.2,0.4-0.3,0.9-0.5,1.3
				c-0.2,0.4-0.4,0.9-0.6,1.3c-0.2,0.3-0.3,0.7-0.5,1c-0.1,0.3-0.3,0.7-0.5,1.1c0,0,0,0.1,0,0.2c0,0.1,0,0.1,0,0.2
				c0,0.1,0,0.2,0.1,0.2c0,0.1,0.1,0.1,0.2,0c0.1,0,0.2-0.1,0.4-0.2c0.4-0.3,0.7-0.5,1.1-0.8c0.4-0.3,0.7-0.6,1-0.9l0.1-0.1l0.1-0.1
				c0.3-0.3,0.6-0.5,0.9-0.7c0.3-0.2,0.6-0.4,0.9-0.7c0.3-0.3,0.6-0.5,0.9-0.8s0.6-0.5,0.9-0.7c0.2-0.1,0.4-0.2,0.6-0.4
				c0.2-0.1,0.4-0.2,0.6-0.3h0.1c0.1,0.1,0.2,0.1,0.1,0.2c0,0.1,0,0.1,0,0.2c0,0,0,0.1-0.1,0.2c0,0.2-0.1,0.4-0.2,0.6
				c-0.3,0.4-0.6,0.7-0.9,1c-0.3,0.3-0.6,0.6-0.9,0.9c-0.3,0.2-0.5,0.4-0.7,0.6c-0.2,0.2-0.4,0.4-0.6,0.6c-0.4,0.4-0.8,0.8-1.2,1.2
				s-0.8,0.8-1.2,1.2c-0.5,0.6-1,1.1-1.6,1.5c-0.2,0.1-0.3,0.2-0.5,0.3c-0.2,0.1-0.4,0.1-0.6,0.1c-0.3,0-0.6-0.1-0.8-0.4
				c-0.6-0.5-0.8-1.2-0.6-2c0.1-0.4,0.3-0.8,0.5-1.1s0.3-0.7,0.5-1s0.3-0.7,0.5-1.1c0.2-0.3,0.3-0.6,0.5-0.9
				c0.2-0.3,0.3-0.6,0.5-0.9c0.1-0.2,0.1-0.3,0.2-0.5c0.1-0.2,0.1-0.3,0.2-0.5c0.2-0.4,0.3-0.7,0.5-1.1c0.1-0.4,0.3-0.7,0.5-1.1
				c0.1-0.1,0.2-0.3,0.2-0.4c0-0.1,0.1-0.2,0.1-0.4c0-0.1,0-0.1-0.1-0.2c-0.1,0-0.2,0-0.2,0c-0.1,0-0.1,0-0.2,0.1
				c-0.2,0.1-0.3,0.3-0.4,0.4c-0.1,0.1-0.2,0.2-0.4,0.4c-0.6,0.5-1.1,1-1.7,1.6c-0.5,0.6-1,1.2-1.5,1.7c-0.2,0.2-0.3,0.5-0.5,0.7
				s-0.4,0.4-0.5,0.6c-0.1,0.2-0.3,0.3-0.4,0.5c-0.1,0.2-0.2,0.3-0.4,0.5c-0.1,0.2-0.3,0.5-0.6,0.7c-0.3,0.3-0.7,0.3-1.1,0
				c-0.2-0.1-0.3-0.3-0.4-0.4s-0.2-0.3-0.3-0.5c0-0.1,0-0.2,0.1-0.2c0.1-0.2,0.1-0.3,0.2-0.5c0.1-0.2,0.1-0.4,0.2-0.6
				c0.1-0.1,0.1-0.4,0.2-0.9c0-0.1,0-0.1-0.1-0.2c-0.1,0-0.1,0-0.1,0c-0.3,0-0.5,0.1-0.6,0.3c-0.2,0.2-0.3,0.3-0.5,0.5
				c-0.1,0.2-0.3,0.4-0.4,0.7c-0.1,0.2-0.3,0.4-0.4,0.6c-0.1,0.2-0.2,0.4-0.3,0.7c-0.2,0.3-0.4,0.7-0.7,1c-0.1,0.1-0.2,0.2-0.3,0.2
				s-0.3,0-0.4-0.1c-0.2,0-0.4-0.1-0.5-0.3C187,53,186.9,52.7,186.9,52.4z"/>
			<path class="st1" d="M212.4,52.8c-0.4,0-0.9-0.1-1.3-0.2c-0.1,0-0.1-0.1-0.2-0.1c-0.1-0.1-0.1-0.1-0.2-0.1
				c-0.3-0.4-0.4-0.7-0.4-1.1c0-0.2,0.1-0.4,0.2-0.6c0.1-0.2,0.1-0.3,0.1-0.5c0-0.1-0.1-0.2-0.2-0.2l-0.1,0.1c0,0-0.1,0-0.1,0.1
				c-0.2,0.3-0.5,0.6-0.7,0.8c-0.2,0.1-0.3,0.3-0.5,0.4c-0.1,0.1-0.3,0.2-0.5,0.3s-0.3,0.3-0.5,0.4c-0.2,0.2-0.3,0.3-0.5,0.4
				c-0.7,0.6-1.6,0.8-2.6,0.7c-0.3,0-0.6-0.1-0.9-0.4c-0.1-0.2-0.3-0.4-0.4-0.5c-0.2-0.3-0.3-0.6-0.1-0.9c0.1-0.2,0.2-0.5,0.3-0.7
				s0.1-0.5,0.1-0.8c0.1-0.3,0.2-0.5,0.3-0.6c0.2-0.3,0.3-0.5,0.5-0.7s0.4-0.4,0.6-0.6c0.2-0.2,0.3-0.3,0.5-0.5s0.3-0.4,0.5-0.5
				c0.1-0.1,0.2-0.3,0.4-0.4c0.1-0.1,0.3-0.2,0.4-0.4c0.2-0.1,0.3-0.3,0.4-0.4c0.1-0.1,0.2-0.3,0.4-0.4c0.5-0.5,1-0.9,1.6-1.1
				l1.4-0.6c0.1-0.1,0.2-0.1,0.4-0.1c0.1,0,0.3,0,0.4-0.1c0.2-0.1,0.4-0.1,0.7,0h0.1c0.2,0.1,0.4,0.2,0.7,0.2s0.5,0.1,0.7,0.1
				c0.3,0.1,0.6,0.2,0.7,0.4c0.1,0.2,0.1,0.4,0.1,0.6c0,0.5-0.1,0.9-0.4,1.4c-0.1,0.3-0.2,0.5-0.4,0.8c-0.1,0.3-0.2,0.5-0.3,0.8
				c-0.1,0.2-0.1,0.3-0.2,0.5c-0.1,0.2-0.1,0.3-0.2,0.5c-0.1,0.3-0.2,0.5-0.3,0.8s-0.2,0.5-0.3,0.8v0.4c0,0,0,0.1,0.1,0.1
				c0.1,0.1,0.1,0.1,0.2,0.1c0.2,0,0.3,0,0.4-0.1c0.3-0.1,0.6-0.2,0.8-0.4c0.3-0.1,0.6-0.3,0.8-0.4c0.4-0.3,0.8-0.5,1.3-0.8
				c0.4-0.3,0.9-0.6,1.3-0.8c0.6-0.3,1.2-0.6,1.7-0.8c0.1,0,0.2-0.1,0.4-0.1c0.1,0,0.1,0,0.2,0.1c0.1,0.1,0.1,0.1,0.1,0.2l-0.3,0.5
				c-0.2,0.2-0.4,0.4-0.6,0.6s-0.4,0.4-0.6,0.6c-0.5,0.3-0.9,0.6-1.3,1c-0.4,0.3-0.8,0.7-1.3,1c-0.2,0.2-0.5,0.3-0.8,0.5
				s-0.5,0.3-0.8,0.5C213.7,52.7,213.1,52.8,212.4,52.8z M212.3,44.9c0-0.2-0.1-0.3-0.3-0.3c-0.1,0.1-0.3,0.1-0.4,0.1
				s-0.2,0-0.3,0.1c-0.3,0.1-0.5,0.2-0.7,0.3s-0.4,0.3-0.6,0.4c-0.3,0.2-0.5,0.4-0.8,0.7s-0.5,0.5-0.8,0.8c-0.4,0.5-0.8,1-1.2,1.5
				s-0.7,1-1.1,1.5v0.2c0,0.1,0,0.1,0,0.1s0,0,0,0.1h0.4c0.1-0.1,0.2-0.2,0.3-0.2s0.2-0.1,0.3-0.2c0.4-0.4,0.9-0.8,1.3-1.1
				c0.4-0.4,0.9-0.8,1.3-1.1c0.4-0.3,0.7-0.7,1.1-1c0.4-0.3,0.7-0.7,1-1c0.1-0.1,0.2-0.2,0.3-0.3s0.1-0.2,0.2-0.4
				C212.4,45.1,212.4,45,212.3,44.9C212.3,45,212.3,45,212.3,44.9z"/>
			<path class="st1" d="M224.3,49.6c0.7-0.5,1.5-0.9,2.3-1.4c0.2-0.1,0.3-0.2,0.5-0.2s0.3-0.1,0.5-0.2c0.1-0.1,0.2-0.1,0.2,0
				c0.1,0.1,0.1,0.2,0,0.3c0,0,0,0.1-0.1,0.2c-0.1,0.1-0.1,0.2-0.2,0.3s-0.2,0.2-0.3,0.3s-0.2,0.1-0.3,0.2c-0.1,0.1-0.2,0.2-0.3,0.3
				c-0.1,0.2-0.2,0.4-0.4,0.6s-0.3,0.4-0.4,0.5c-0.3,0.2-0.6,0.4-0.8,0.6c-0.2,0.2-0.5,0.4-0.7,0.6l-0.6,0.5l-1.6,1.1
				c-0.8,0.4-1.7,0.6-2.6,0.6h-0.7c-0.4-0.1-0.7-0.2-0.9-0.4s-0.3-0.3-0.4-0.5c-0.1-0.1-0.2-0.3-0.3-0.5l-0.1-0.1l-0.1-0.1
				c0.1-0.2,0.1-0.4,0.1-0.6c0-0.2,0-0.4,0.1-0.6c0.1-0.5,0.1-1,0.1-1.3c0-0.1,0-0.2,0.1-0.3c0.3-0.3,0.5-0.6,0.7-0.9
				c0.2-0.3,0.4-0.7,0.6-1.1c0-0.2,0.1-0.4,0.3-0.6c0.1-0.2,0.3-0.4,0.4-0.6c0.1-0.1,0.1-0.3,0.2-0.4c0.1-0.1,0.2-0.2,0.2-0.3
				c0.2-0.1,0.3-0.2,0.4-0.3s0.2-0.2,0.4-0.3c0.3-0.2,0.6-0.3,0.9-0.4c0.2-0.1,0.5-0.1,0.9,0c0.1,0.1,0.2,0.2,0.3,0.3
				s0.1,0.2,0.2,0.3l0.8,1.3c-0.1,0-0.2,0.1-0.5,0.2c-0.2,0.1-0.7,0.1-1.3,0l-0.1,0.1c-0.4,0.4-0.8,0.9-1.1,1.4s-0.6,1-0.9,1.5
				c-0.1,0.3-0.3,0.7-0.4,1s-0.2,0.6-0.2,0.9c-0.1,0.2-0.1,0.3,0.1,0.4c0.1,0.1,0.3,0.2,0.4,0.2c0.1,0,0.3,0,0.5-0.1
				c0.3-0.1,0.6-0.3,0.9-0.4c0.3-0.1,0.6-0.3,1-0.5c0.2-0.2,0.5-0.3,0.7-0.5s0.5-0.3,0.8-0.5L224.3,49.6l0,0.2L224.3,49.6z"/>
			<path class="st1" d="M239.8,48.5c0.2-0.3,0.4-0.6,0.7-0.8c0-0.1,0.1-0.1,0.3,0v0.1l-0.1,0.5l-0.4,0.8l-7.9,10
				c-0.1,0.1-0.2,0.2-0.3,0.4c-0.1,0.1-0.2,0.3-0.3,0.4c-0.3,0.3-0.6,0.6-1,0.8c-0.4,0.2-0.8,0.3-1.2,0.4c-0.2,0-0.4,0-0.5-0.1
				c-0.3,0-0.5-0.1-0.7-0.2c-0.1-0.1-0.3-0.2-0.4-0.3c-0.1-0.1-0.3-0.3-0.4-0.4c-0.1-0.1-0.2-0.3-0.3-0.5l-0.1-0.7v-0.4
				c0-0.3,0.1-0.5,0.2-0.7l0.3-0.7c0.2-0.2,0.3-0.3,0.3-0.5c0.1-0.1,0.1-0.3,0.2-0.5c0.2-0.7,0.6-1.3,1-1.9l0.7-1.4l0.7-1.1l0.4-0.8
				l1.8-3.1c0-0.1,0-0.3,0-0.4l-0.2-0.1c-0.1,0-0.2,0-0.2,0.1c-0.7,0.4-1.4,0.8-2.1,1.4c-0.7,0.5-1.3,1.1-1.8,1.7l-1.8,2.7
				c-0.2,0.3-0.5,0.5-0.9,0.7c-0.1,0.1-0.1,0.1-0.2,0.2c-0.1,0-0.1,0.1-0.2,0.2c-0.3,0.4-0.5,0.6-0.6,0.6s-0.3-0.1-0.4-0.2
				c-0.1-0.2-0.1-0.4-0.2-0.6c0-0.3-0.1-0.5-0.1-0.7c0.2-0.5,0.4-0.8,0.6-1.1c0.5-0.6,0.8-1.3,1.1-2.1c0.2-0.8,0.5-1.5,0.8-2.1
				c0.3-0.7,0.6-1.3,1-2c0.3-0.7,0.7-1.4,1.1-2.1l1.1-2c0.1-0.2,0.2-0.4,0.4-0.6c0.1-0.2,0.2-0.5,0.3-0.7c0-0.1,0.1-0.2,0.2-0.4
				c0.2-0.2,0.3-0.4,0.4-0.7c0.1-0.2,0.2-0.5,0.4-0.7l0.7-1.1c0.3-0.6,0.6-1.2,0.9-1.8c0.1-0.3,0.3-0.6,0.4-0.9
				c0.2-0.3,0.3-0.6,0.5-0.9c0.3-0.8,0.8-1.6,1.2-2.3c0.5-0.8,0.9-1.5,1.1-2c0.1-0.2,0.2-0.3,0.3-0.4s0.2-0.3,0.2-0.5
				c0-0.1,0-0.3,0.1-0.4c0.1-0.1,0.1-0.2,0.2-0.3c0.3-0.5,0.6-0.7,1-0.8c0.4,0,0.7,0.2,0.9,0.7c0.1,0.1,0.1,0.2,0,0.4
				c0,0.1-0.1,0.1-0.1,0.2c0,0.1,0,0.1,0,0.2c-0.1,0.2-0.2,0.3-0.3,0.5c-0.1,0.1-0.2,0.3-0.2,0.4l-1.7,2.8l-0.6,1.1
				c-0.8,1.7-1.6,3.2-2.3,4.5c-0.7,1.4-1.4,2.6-2.1,3.8c-0.6,1.2-1.2,2.2-1.7,3.1c-0.5,0.9-0.9,1.8-1.2,2.6c0,0.1,0,0.2,0,0.4
				s0.1,0.3,0.2,0.4h0.1c0.2-0.1,0.5-0.3,0.8-0.6c0.4-0.3,0.6-0.5,0.8-0.6l1.1-0.8c0.2-0.1,0.4-0.3,0.6-0.4c0.2-0.1,0.4-0.2,0.7-0.3
				c0.5-0.2,1.1-0.3,1.8-0.1l0.3,0.2c0.3,0.2,0.4,0.4,0.5,0.7c0,0.3,0,0.6-0.1,0.9s-0.2,0.6-0.4,0.9c-0.2,0.3-0.3,0.5-0.4,0.7
				c-0.2,0.3-0.4,0.6-0.6,0.9c-0.2,0.3-0.4,0.7-0.6,1l-0.8,1.4c0,0.1-0.1,0.1-0.1,0.2s-0.1,0.2-0.1,0.2c-0.4,0.7-0.8,1.4-1.2,2.1
				c-0.4,0.7-0.7,1.5-1.1,2.2c-0.3,0.5-0.5,1-0.6,1.5c0,0.1,0,0.2,0.1,0.3h0.2c0.1,0,0.1,0,0.1-0.1c0.3-0.2,0.5-0.5,0.8-0.7
				s0.5-0.5,0.7-0.7c0.1,0,0.1-0.1,0.2-0.1c0-0.1,0.1-0.1,0.1-0.1c0.2-0.2,0.6-0.6,1.3-1.2c0.6-0.6,1.4-1.3,2.2-2.2
				c0.8-0.8,1.6-1.7,2.4-2.6C238.4,50.2,239.1,49.3,239.8,48.5z"/>
			<path class="st1" d="M241.2,54.1c-0.4,0-0.7-0.1-0.9-0.2c-0.1,0-0.1-0.1-0.2-0.1s-0.2-0.1-0.3-0.1c-0.1,0-0.1-0.1-0.2-0.1
				c0,0-0.1-0.1-0.2-0.1c-0.2-0.2-0.3-0.3-0.5-0.5c-0.2-0.1-0.3-0.3-0.4-0.5c-0.1-0.3-0.1-0.6,0-1c0.1-0.3,0.2-0.5,0.3-0.8
				s0.2-0.6,0.3-0.9c0-0.1,0.1-0.2,0.1-0.4c0.1-0.1,0.1-0.3,0.2-0.4c0.2-0.3,0.3-0.7,0.4-1.1c0.1-0.4,0.2-0.6,0.4-0.8
				c0.2-0.4,0.5-0.9,1-1.3c0.2-0.2,0.4-0.4,0.6-0.6c0.2-0.2,0.4-0.4,0.6-0.6c0.1-0.1,0.3-0.1,0.4-0.2c0.2-0.1,0.4-0.1,0.6-0.2
				c0.2-0.1,0.4-0.1,0.7-0.2c0.1,0,0.1-0.1,0.2-0.1s0.2,0,0.2,0c0.3,0.1,0.5,0.2,0.6,0.3c0.3,0.2,0.5,0.5,0.7,0.7
				c0.1,0.2,0.3,0.4,0.4,0.7s0.1,0.5-0.1,0.8s-0.4,0.5-0.7,0.8c-0.3,0.3-0.5,0.5-0.8,0.7c-0.3,0.3-0.7,0.6-1,0.8
				c-0.3,0.3-0.7,0.6-1.1,0.8c-0.2,0.2-0.5,0.2-0.8,0.2c-0.1,0-0.2,0-0.3,0.1c-0.2,0.1-0.3,0.2-0.4,0.3c-0.1,0.3-0.2,0.5-0.2,0.6
				c-0.2,0.4-0.2,0.8-0.2,1.3c0.1,0.1,0.1,0.1,0.2,0.2c0,0.1,0.1,0.1,0.2,0.2c0.3,0.1,0.5,0.1,0.7,0.1c0.4-0.1,0.8-0.2,1.2-0.4
				c0.5-0.2,0.9-0.4,1.3-0.6c0.4-0.2,0.8-0.4,1.2-0.7c0.4-0.3,0.9-0.5,1.3-0.8s0.9-0.5,1.3-0.8c0.2-0.1,0.4-0.1,0.5-0.1
				c0.1-0.1,0.2-0.1,0.3,0c0.1,0.1,0.2,0.2,0.1,0.2c-0.1,0.5-0.4,0.9-0.8,1.3c-0.4,0.2-0.7,0.4-1.1,0.7s-0.7,0.5-1,0.8
				c-0.3,0.2-0.6,0.3-0.8,0.5c-0.3,0.2-0.6,0.3-0.9,0.4c-0.2,0.1-0.5,0.2-0.7,0.3c-0.3,0.1-0.5,0.1-0.8,0.1
				c-0.2,0.1-0.5,0.1-0.7,0.2C241.7,54.1,241.5,54.1,241.2,54.1z M244.4,46.3c-0.1-0.1-0.1-0.1-0.1-0.2s0-0.1-0.1-0.1h-0.3
				c0,0.1-0.1,0.2-0.2,0.3c-0.3,0.3-0.7,0.7-1,1.1c-0.3,0.4-0.6,0.8-0.8,1.2c0,0.1,0,0.2,0.1,0.2h0.2c0.2-0.2,0.3-0.3,0.5-0.5
				s0.3-0.3,0.5-0.5c0.3-0.2,0.5-0.4,0.7-0.6c0.2-0.2,0.3-0.5,0.5-0.7C244.4,46.4,244.4,46.3,244.4,46.3z"/>
			<path class="st1" d="M247.1,51.2c0.5-1.1,0.9-2.2,1.3-3.4c0.4-1.1,0.6-2.3,0.7-3.5c0.2-0.1,0.4-0.2,0.6-0.3s0.3-0.1,0.5-0.1
				s0.3,0.1,0.5,0.3s0.4,0.4,0.7,0.6c0.2-0.1,0.4-0.3,0.6-0.4c0.1-0.2,0.3-0.3,0.4-0.5c0.5-0.3,0.9-0.7,1.4-1s1-0.5,1.5-0.7
				c0.5-0.1,0.9-0.1,1.3-0.1s0.8,0.1,1.2,0.3c0.3,0.1,0.5,0.4,0.5,0.7c-0.1,0.3-0.3,0.5-0.5,0.5s-0.3,0-0.5,0s-0.3,0-0.5-0.1
				c-0.4,0-0.8,0-1.2,0.1c-0.4,0.1-0.8,0.3-1.1,0.7c-0.9,0.9-1.8,1.8-2.7,2.8c-0.8,1-1.5,2.1-2.1,3.4c-0.1,0.2-0.1,0.4-0.2,0.5
				c-0.1,0.2-0.2,0.3-0.3,0.5c-0.2,0.4-0.4,0.5-0.8,0.4c-0.3-0.1-0.5-0.2-0.7-0.3C247.5,51.7,247.3,51.5,247.1,51.2z"/>
		</g>
	</g>
</g>
</svg>
