<?xml version="1.0" encoding="utf-8"?>
<!-- Generator: Adobe Illustrator 21.0.1, SVG Export Plug-In . SVG Version: 6.00 Build 0)  -->
<svg version="1.1" id="Warstwa_1" xmlns="http://www.w3.org/2000/svg" xmlns:xlink="http://www.w3.org/1999/xlink" x="0px" y="0px"
	 viewBox="0 0 465.1 439.6" style="enable-background:new 0 0 465.1 439.6;" xml:space="preserve">
<style type="text/css">
	.st0{fill:#ED1C24;}
	.st1{fill:#58595B;}
	.st2{clip-path:url(#SVGID_2_);}
	.st3{fill:#595A5C;}
	.st4{fill:#D4D5D7;}
	.st5{fill:#595A5B;}
	.st6{fill:#59595B;}
	.st7{fill:#DADCDD;}
	.st8{fill:#ED1E25;}
	.st9{fill:#EC1F25;}
	.st10{fill:#FFFEFE;}
	.st11{fill:#FDFBFA;}
	.st12{fill:#EA2926;}
	.st13{fill:#FFFFFF;}
	.st14{fill:#F1F1F2;}
	.st15{fill:#FDFDFD;}
	.st16{fill:#CBCCCE;}
	.st17{fill:#EA2125;}
	.st18{fill:#EB2125;}
	.st19{fill:#E92425;}
	.st20{fill:#EA2225;}
	.st21{fill:#FFFCFA;}
	.st22{fill:#EF4130;}
	.st23{fill:#F8A185;}
	.st24{fill:#F1583E;}
</style>
<g>
	<g>
		<path d="M89.5,439c0,0.1,0,0.1-0.1,0.2c0,0.1-0.1,0.1-0.2,0.1c-0.1,0-0.2,0.1-0.4,0.1c-0.2,0-0.4,0-0.6,0c-0.3,0-0.5,0-0.6,0
			c-0.2,0-0.3,0-0.4-0.1c-0.1,0-0.2-0.1-0.2-0.1c0-0.1-0.1-0.1-0.1-0.2v-9.4h-14v9.4c0,0.1,0,0.1-0.1,0.2c0,0.1-0.1,0.1-0.2,0.1
			c-0.1,0-0.2,0.1-0.4,0.1c-0.2,0-0.4,0-0.6,0c-0.2,0-0.5,0-0.6,0c-0.2,0-0.3,0-0.4-0.1c-0.1,0-0.2-0.1-0.2-0.1
			c0-0.1-0.1-0.1-0.1-0.2v-19.5c0-0.1,0-0.1,0.1-0.2c0-0.1,0.1-0.1,0.2-0.1c0.1,0,0.2-0.1,0.4-0.1c0.2,0,0.4,0,0.6,0
			c0.3,0,0.5,0,0.6,0c0.2,0,0.3,0,0.4,0.1c0.1,0,0.2,0.1,0.2,0.1c0,0,0.1,0.1,0.1,0.2v8.4h14v-8.4c0-0.1,0-0.1,0.1-0.2
			c0-0.1,0.1-0.1,0.2-0.1c0.1,0,0.2-0.1,0.4-0.1c0.2,0,0.4,0,0.6,0c0.2,0,0.5,0,0.6,0c0.2,0,0.3,0,0.4,0.1c0.1,0,0.2,0.1,0.2,0.1
			c0,0,0.1,0.1,0.1,0.2V439z"/>
		<path d="M186.9,439c0,0.1,0,0.1-0.1,0.2c0,0.1-0.1,0.1-0.2,0.1c-0.1,0-0.2,0.1-0.4,0.1c-0.2,0-0.4,0-0.6,0c-0.2,0-0.5,0-0.6,0
			c-0.2,0-0.3,0-0.4-0.1c-0.1,0-0.2-0.1-0.2-0.1c0-0.1-0.1-0.1-0.1-0.2v-19.5c0-0.1,0-0.1,0.1-0.2c0-0.1,0.1-0.1,0.2-0.1
			c0.1,0,0.2-0.1,0.4-0.1c0.2,0,0.4,0,0.6,0c0.3,0,0.5,0,0.6,0c0.2,0,0.3,0,0.4,0.1c0.1,0,0.2,0.1,0.2,0.1c0,0,0.1,0.1,0.1,0.2V439z
			"/>
		<path d="M303.9,421.7c0,0.1,0,0.3,0,0.4c0,0.1-0.1,0.2-0.1,0.3c0,0.1-0.1,0.1-0.2,0.2c-0.1,0-0.2,0.1-0.3,0.1
			c-0.2,0-0.5-0.1-0.9-0.3c-0.4-0.2-0.9-0.4-1.6-0.7c-0.7-0.2-1.5-0.5-2.4-0.7c-0.9-0.2-2.1-0.3-3.4-0.3c-1.7,0-3.1,0.2-4.4,0.7
			c-1.3,0.4-2.4,1-3.3,1.8c-0.9,0.8-1.6,1.7-2,2.7c-0.5,1.1-0.7,2.2-0.7,3.4c0,1.4,0.3,2.6,0.8,3.6c0.5,1.1,1.3,2,2.2,2.7
			c0.9,0.7,2.1,1.3,3.4,1.7c1.3,0.4,2.7,0.6,4.3,0.6c1,0,2-0.1,3-0.3c1-0.2,2-0.4,2.9-0.8v-6.5h-7.2c-0.2,0-0.4-0.1-0.5-0.2
			c-0.1-0.1-0.2-0.3-0.2-0.6c0-0.1,0-0.3,0-0.4c0-0.1,0.1-0.2,0.1-0.3c0.1-0.1,0.1-0.1,0.2-0.2c0.1,0,0.2-0.1,0.3-0.1h8.6
			c0.1,0,0.3,0,0.4,0c0.1,0,0.3,0.1,0.4,0.2c0.1,0.1,0.2,0.2,0.3,0.3c0.1,0.1,0.1,0.3,0.1,0.5v7.5c0,0.2-0.1,0.5-0.2,0.6
			c-0.1,0.2-0.4,0.3-0.7,0.5c-0.4,0.2-0.9,0.3-1.6,0.5c-0.6,0.2-1.3,0.4-2,0.5c-0.7,0.1-1.4,0.2-2.1,0.3c-0.7,0.1-1.4,0.1-2.1,0.1
			c-2.1,0-4-0.2-5.7-0.7c-1.7-0.5-3.1-1.2-4.2-2.1c-1.1-0.9-2-2-2.6-3.2c-0.6-1.2-0.9-2.6-0.9-4.1c0-1.6,0.3-3,1-4.3
			c0.7-1.3,1.6-2.4,2.8-3.3c1.2-0.9,2.6-1.6,4.3-2.1c1.7-0.5,3.5-0.8,5.5-0.8c1,0,2,0.1,2.9,0.2c0.9,0.1,1.7,0.3,2.4,0.5
			c0.7,0.2,1.3,0.4,1.8,0.6c0.5,0.2,0.8,0.4,1,0.5c0.2,0.1,0.3,0.3,0.4,0.4C303.9,421.3,303.9,421.5,303.9,421.7"/>
		<path d="M411.5,439c0,0.1,0,0.1-0.1,0.2c0,0.1-0.1,0.1-0.2,0.1c-0.1,0-0.2,0.1-0.4,0.1c-0.2,0-0.4,0-0.6,0c-0.3,0-0.5,0-0.6,0
			c-0.2,0-0.3,0-0.4-0.1c-0.1,0-0.2-0.1-0.2-0.1c0-0.1-0.1-0.1-0.1-0.2v-9.4h-14v9.4c0,0.1,0,0.1-0.1,0.2c0,0.1-0.1,0.1-0.2,0.1
			c-0.1,0-0.2,0.1-0.4,0.1c-0.2,0-0.4,0-0.6,0c-0.2,0-0.5,0-0.6,0c-0.2,0-0.3,0-0.4-0.1c-0.1,0-0.2-0.1-0.2-0.1
			c0-0.1-0.1-0.1-0.1-0.2v-19.5c0-0.1,0-0.1,0.1-0.2c0-0.1,0.1-0.1,0.2-0.1c0.1,0,0.2-0.1,0.4-0.1c0.2,0,0.4,0,0.6,0
			c0.3,0,0.5,0,0.6,0c0.2,0,0.3,0,0.4,0.1c0.1,0,0.2,0.1,0.2,0.1c0,0,0.1,0.1,0.1,0.2v8.4h14v-8.4c0-0.1,0-0.1,0.1-0.2
			c0-0.1,0.1-0.1,0.2-0.1c0.1,0,0.2-0.1,0.4-0.1c0.2,0,0.4,0,0.6,0c0.2,0,0.5,0,0.6,0c0.2,0,0.3,0,0.4,0.1c0.1,0,0.2,0.1,0.2,0.1
			c0,0,0.1,0.1,0.1,0.2V439z"/>
		<path class="st0" d="M67.7,367c-0.3-2.4-0.9-4.4-1.9-6.2c-0.9-1.7-2.2-3.2-3.8-4.3c-1.6-1.1-3.7-2-6.3-2.7
			c2.2-0.6,3.9-1.4,5.3-2.4c1.3-1,2.4-2.4,3.2-4c0.8-1.6,1.3-3.5,1.5-5.8c0.2-2.2,0.4-4.8,0.4-7.8c0-4.4-0.3-8.1-1-10.9
			c-0.6-2.8-1.9-5.1-3.6-6.7c-1.8-1.6-4.2-2.7-7.2-3.4c-3-0.6-6.9-1-11.7-1H21v9.3h17.6c3.8,0,6.8,0.1,9.2,0.4
			c2.3,0.3,4.1,0.9,5.3,1.8c1.2,0.9,2,2.3,2.4,4.1c0.4,1.8,0.5,4.3,0.5,7.3c0,2.8-0.1,5.2-0.4,7.2c-0.3,1.9-0.9,3.5-1.8,4.7
			c-0.9,1.2-2.3,2-4,2.5c-1.4,0.4-3.3,0.6-5.4,0.7v9.2c1.2,0.1,2.3,0.1,3.3,0.2c2.7,0.2,4.8,0.9,6.4,1.9c1.6,1.1,2.6,2.6,3.2,4.6
			c0.6,2,0.8,4.8,0.8,8.2c0,3.1-0.1,5.7-0.3,7.8c-0.2,2.1-0.8,3.9-1.8,5.2c-1,1.3-2.4,2.3-4.4,2.8c-2,0.6-4.7,0.8-8.3,0.8H21v9.2
			h18.5c5.6,0,10.2-0.3,13.9-1c3.7-0.7,6.6-1.9,8.9-3.8c2.2-1.8,3.8-4.3,4.7-7.5c0.9-3.2,1.3-7.3,1.3-12.3
			C68.2,372.2,68,369.4,67.7,367"/>
		<polygon class="st1" points="34.6,350.2 11.2,350.2 11.2,311.9 1,311.9 1,400.7 11.2,400.7 11.2,359.2 34.6,359.2 		"/>
		<path class="st1" d="M315.7,372.7v1.7c0,4.7,0.3,8.5,1,11.4c0.7,2.8,2.1,4.8,4.2,6c2,1.2,5.1,1.8,9.3,2c4.2,0.2,9.6,0.3,16.3,0.3
			c4.7,0,8.6-0.3,11.6-0.9c3-0.6,5.2-1.7,6.7-3.4c1.5-1.6,2.2-5.6,2.2-12.1c0-2.8-0.1-5.2-0.3-7.1c-0.2-1.9-0.6-3.5-1.2-4.7
			c-0.7-1.2-1.7-2.1-3-2.7c-1.3-0.6-3.2-1-5.6-1.2l-28-2.2c-4-0.3-7.4-1-10.2-1.9c-2.8-0.9-5.1-2.3-6.9-4.1
			c-1.8-1.8-3.1-4.2-3.9-7.2c-0.8-3-1.2-6.6-1.2-10.9c0-4.9,0.5-9,1.4-12.4c1-3.3,2.7-6.1,5.3-8.4c2.4-2.2,5.7-3.5,9.8-3.9
			c4.1-0.4,9.2-0.6,15.3-0.6h3.2c3.3,0,6.4,0,9.2,0.1c2.8,0.1,5.4,0.3,7.8,0.7c2.4,0.4,4.6,1,6.6,1.8c2,0.8,3.9,2,5.6,3.4
			c3.4,2.9,5.1,8.4,5.1,16.4v2.1c0,0.7,0,1.5-0.1,2.2H366v-2.2c0-2.9-0.2-5.3-0.5-7.2c-0.3-1.9-1-3.4-2-4.4
			c-1.6-1.6-4.4-2.5-8.5-2.9c-4.1-0.3-9.6-0.5-16.6-0.5c-4.1,0-7.5,0.1-10.2,0.4c-2.7,0.3-4.9,1-6.5,2c-1.6,1-2.8,2.6-3.5,4.7
			c-0.7,2.1-1.1,5-1.1,8.7c0,2.7,0.2,4.8,0.5,6.6c0.3,1.7,0.9,3.1,1.8,4.2c0.9,1.1,2,1.9,3.5,2.4c1.5,0.5,3.3,0.9,5.6,1.1l28.6,2.4
			c3.8,0.3,7,1,9.6,2.1c2.6,1,4.7,2.5,6.2,4.4c1.6,1.9,2.7,4.2,3.4,7c0.7,2.8,1,6.2,1,10.2c0,4.7-0.3,8.8-0.9,12.2
			c-0.6,3.4-2,6.3-4.1,8.7c-1.4,1.7-3.1,2.9-5,3.8c-1.9,0.9-4.1,1.5-6.4,2c-2.4,0.5-5,0.7-8,0.8c-3,0.1-6.2,0.1-9.8,0.1h-4.5
			c-5.9,0-11-0.3-15.3-0.8c-4.3-0.5-8-2.2-11.1-4.9c-2.4-2.1-4.1-4.8-5.1-8.2c-1-3.4-1.5-7.5-1.5-12.4V375c0-0.7,0-1.5,0.1-2.2
			H315.7z"/>
		<polygon class="st1" points="397.2,311.6 465.1,311.6 465.1,321.2 436.2,321.2 436.2,402.3 426,402.3 426,321.2 397.2,321.2 		"/>
		<path class="st1" d="M169.5,326.7c-1.1-4-3-7.1-5.5-9.5c-2.5-2.4-5.9-4.1-10.1-5.2c-4.2-1-9.3-1.6-15.4-1.6H127
			c-6.1,0-11.2,0.5-15.4,1.6c-4.2,1-7.5,2.8-10.1,5.2c-2.6,2.5-4.4,5.7-5.6,9.6c-1.1,4-1.7,8.8-1.7,14.7v30.8c0,2,0.1,3.9,0.2,5.7
			H105c-0.2-2.4-0.3-5.1-0.3-8.2v-25.7c0-4.9,0.3-8.9,0.7-12.1c0.5-3.2,1.9-5.7,4.1-7.6c2.6-2.2,5.5-3.5,8.7-3.9
			c3.2-0.4,7.1-0.6,11.6-0.6h5.6c4.5,0,8.4,0.2,11.7,0.6c3.3,0.4,6.2,1.6,8.7,3.8c2.2,1.9,3.6,4.5,4.1,7.7c0.5,3.2,0.7,7.2,0.7,12
			v25.8c0,4.8-0.2,8.8-0.7,12c-0.5,3.2-1.8,5.7-4.1,7.6c-2.6,2.2-5.5,3.5-8.8,3.9c-3.3,0.4-7.2,0.6-11.7,0.6h-5.6
			c-4.5,0-8.4-0.2-11.6-0.6c-0.3,0-0.6-0.1-0.9-0.2v9.7c2.9,0.4,6.1,0.5,9.7,0.5h11.5c6.1,0,11.2-0.5,15.4-1.6
			c4.2-1,7.5-2.8,10.1-5.2c2.6-2.5,4.4-5.7,5.6-9.6c1.1-4,1.7-8.8,1.7-14.7v-30.8C171.2,335.6,170.6,330.7,169.5,326.7"/>
		<path class="st1" d="M275,326.7c-1.1-4-3-7.1-5.5-9.5c-2.5-2.4-5.9-4.1-10.1-5.2c-4.2-1-9.3-1.6-15.4-1.6h-11.5
			c-6.1,0-11.2,0.5-15.3,1.6c-4.2,1-7.5,2.8-10.1,5.2c-2.6,2.5-4.4,5.7-5.6,9.6c-1.1,4-1.7,8.8-1.7,14.7v30.8c0,2,0.1,3.9,0.2,5.7
			h10.5c-0.2-2.4-0.3-5.1-0.3-8.2v-25.7c0-4.9,0.2-8.9,0.7-12.1c0.5-3.2,1.9-5.7,4.1-7.6c2.6-2.2,5.5-3.5,8.7-3.9
			c3.2-0.4,7.1-0.6,11.6-0.6h5.6c4.5,0,8.4,0.2,11.7,0.6c3.3,0.4,6.2,1.6,8.7,3.8c2.2,1.9,3.6,4.5,4.1,7.7c0.5,3.2,0.7,7.2,0.7,12
			v25.8c0,4.8-0.2,8.8-0.7,12c-0.5,3.2-1.8,5.7-4.1,7.6c-2.6,2.2-5.5,3.5-8.8,3.9c-3.3,0.4-7.2,0.6-11.7,0.6h-5.6
			c-4.5,0-8.4-0.2-11.6-0.6c-0.3,0-0.6-0.1-0.9-0.2v9.7c2.9,0.4,6.1,0.5,9.7,0.5H244c6.1,0,11.2-0.5,15.4-1.6
			c4.2-1,7.5-2.8,10.1-5.2c2.6-2.5,4.4-5.7,5.6-9.6c1.1-4,1.7-8.8,1.7-14.7v-30.8C276.7,335.6,276.1,330.7,275,326.7"/>
	</g>
	<g>
		<g>
			<defs>
				<rect id="SVGID_1_" x="-0.2" y="-0.1" width="499" height="303.6"/>
			</defs>
			<clipPath id="SVGID_2_">
				<use xlink:href="#SVGID_1_"  style="overflow:visible;"/>
			</clipPath>
			<g class="st2">
				<path class="st3" d="M168.4,44.7c-0.3-1.1-1.3-1.5-2.6-1c-10.3,3.6-19.4,9.1-26.8,17.2c-0.4,0.2-0.3-0.1-0.3-0.3
					c0.1-0.2,0.1-0.3,0.2-0.4c4.5-9.9,5.8-20.3,5.1-31c-0.1-1.3-0.8-2-1.8-1.9c-1.1,0.1-1.6,0.8-1.5,2.1c0.3,4.6,0.2,9.3-0.4,13.9
					c-0.9,6.3-2.6,12.4-5.7,18c-0.3,0.6-0.7,0.8-1.4,0.7c-2-0.4-3.9,0.1-5.7,0.9c-1.4,0.6-2,2.3-3.6,2.6c-1.5,0.2-3,0.4-4.4,0.9
					l-0.2,0.1c-0.6,0.4-0.8,0.1-1.1-0.4c-0.8-1.8-1.7-3.5-2.6-5.2c-0.4-0.8-0.4-1.4,0-2.2c1.9-3.4,3.7-6.8,5.6-10.2
					c0.2-0.4,0.5-0.8,0.2-1.3c-0.7-1.2-1.2-2.4-1.9-3.6c-0.5-0.9-1.3-1.1-2.3-0.7c-0.8,0.3-1.1,1.3-0.7,2.2c0.2,0.6,0.5,1.1,0.8,1.6
					c0.4,0.6,0.4,1.2,0,1.8c-1.9,3.4-3.7,6.9-5.6,10.3c-0.3,0.6-0.4,1-0.1,1.6c1,1.9,2,3.9,2.9,5.9c1.1,2.2,1.1,2.1-0.5,3.9
					c-0.5,0.5-0.8,0.5-1.4,0.1c-1.6-1.1-3.3-2.2-5-3.3c-0.4-0.3-0.8-0.5-1.3-0.5c-2.8,0.3-5.6,0.6-8.3,1c-2.6,0.3-5.1,0.7-7.6-0.5
					c-0.3-0.1-0.7-0.2-1.1-0.2c-0.7,0-1.2,0.4-1.4,1.1c-0.3,0.7-0.1,1.5,0.5,1.8c1.7,0.8,3.5,1.7,5.4,1.6c2.7-0.1,5.5-0.4,8.2-0.9
					c2.8-0.6,5.1,0,7.3,1.7c2.1,1.7,2.2,1.5,0.8,3.8c-0.5,0.8-1,1.2-2,1.4c-2.9,0.4-5.8,0.9-8.8,1.3c-0.7,0.1-1.1,0.4-1.4,0.9
					c-1.6,2.6-3.5,5-5,7.6c-1.5,2.8-3.6,4.7-6.8,5.2l-0.2,0.1c-1,0.4-1.5,1.2-1.3,2.1c0.3,1,1.2,1.4,2.3,1.1c1.7-0.5,3.3-1.1,5-1.6
					c0.5-0.2,0.8-0.5,1-0.9c2.3-3.5,4.6-6.9,6.9-10.4c0.2-0.4,0.4-0.8,0.9-0.9c2.1-0.3,4.1-0.6,6.3-0.9c-0.9,1.9-1.9,3.6-2.7,5.4
					c-2.1,4.4-3.8,9-3.8,14c0,9,8,14.5,16.4,11.2c4.2-1.6,7.5-4.6,10.6-7.9c1.6-1.7,3.1-3.5,4.7-5.4c0.4,1.7,0.8,3.3,1.3,4.9
					c0.2,0.6,0.1,1-0.3,1.5c-2.3,3.5-4.6,6.9-6.9,10.4c-0.3,0.4-0.6,0.8-0.5,1.3c0.2,1.8,0.3,3.6,0.5,5.4c0.1,1.1,0.8,1.7,1.8,1.7
					c1-0.1,1.6-0.7,1.5-1.9c-0.1-1.2-0.1-2.4-0.3-3.6c-0.1-0.9,0.1-1.5,0.6-2.2c2.3-3.4,4.6-6.9,6.9-10.4c0.4-0.5,0.4-1,0.3-1.7
					c-0.7-2.7-1.4-5.4-2.1-8.1c-0.1-0.4-0.3-0.8,0-1.3c0.7-1,1.4-2,2.1-3c0.2-0.3,0.4-0.4,0.8-0.2c2.7,1.7,5.5,3.1,5.8,6.8
					c0,0.6,0.3,1.2,0.5,1.7c1.1,3.4,1.6,7.2,4.5,9.8c1.1,0.9,2,1.3,2.8,0.6c0.8-0.7,0.8-1.7-0.2-2.7c-1.3-1.4-2.4-2.9-2.9-4.9
					c-0.5-2.1-1.4-4.2-1.8-6.3c-0.6-3.1-2.1-5.2-4.9-6.5c-0.8-0.4-1.9-0.9-2.2-1.6c-0.3-0.7,0.6-1.6,0.8-2.5
					c0.1-0.7,0.5-0.8,1.2-0.7c2.5,0.2,5,0.3,7.5,0.4c0.7,0.1,1.1-0.2,1.5-0.7c2-2.6,4.2-5.1,6.1-7.8c1.2-1.6,2.4-2.5,4.4-2
					c1.1,0.2,1.8-0.5,1.9-1.5c0.1-1.1-0.4-1.7-1.6-1.8c-1.2-0.1-2.4-0.1-3.6-0.3c-0.7-0.1-1.1,0.1-1.5,0.6c-2.4,3.1-4.9,6.2-7.4,9.3
					c-0.3,0.4-0.6,0.8-1.2,0.8c-2-0.2-4-0.3-6-0.4c-0.6,0-0.8-0.2-0.8-0.9c0-1.4-0.3-2.8-0.8-4.1c-0.2-0.6-0.2-1.1,0.1-1.7
					c1.3-2.7,1.1-5.4-0.3-8.1c-0.4-0.7-0.4-1.1,0.1-1.8c4.4-5.5,9.8-9.8,15.9-13.2c3.5-2,7.2-3.6,11-4.9
					C168.1,46.4,168.6,45.6,168.4,44.7z M137.1,84.5c-0.1,0.8-0.4,1.1-1.2,0.5c-1.1-0.8-2.3-1.6-3.5-2.3c-1.8-1.2-3.6-1.5-5.7-0.8
					c-2,0.7-2.6,0.3-2.9-1.8c-0.3-2.4-1.4-4.1-3.4-5.3c-1-0.7-2-1.4-3.1-2c-0.7-0.4-0.6-0.7-0.1-1.2c3.3-2.8,7.1-3.3,11.1-2.1
					c5.1,1.5,9,6.4,9.3,11.6C137.2,81.9,137.2,83.2,137.1,84.5z"/>
				<path class="st4" d="M246.3,0.1l0,0.2c-0.6,0.5-1.1,0.4-1.7,0l0-0.2C245.1,0.1,245.7,0.1,246.3,0.1z"/>
				<path class="st3" d="M421.8,217.7c8.7,0,17.4,0,26,0c0.8,0,1.3,0.2,1.7,0.9c4.9,7.6,9.8,15.1,14.7,22.6c0.4,0.7,0.4,1-0.1,1.6
					c-12,13.6-24,27.3-36,40.9c-1.9,2.1-3.8,4.2-5.6,6.4c-0.7,0.8-1,0.6-1.6,0c-7.8-8.9-15.6-17.8-23.4-26.7
					c-6-6.9-12.1-13.8-18.1-20.6c-0.6-0.6-0.6-1-0.1-1.7c4.9-7.5,9.8-15,14.7-22.6c0.5-0.7,1-0.9,1.7-0.9
					C404.4,217.7,413.1,217.7,421.8,217.7z"/>
				<path class="st3" d="M36.9,287.7c-1.1,0-2.2,0-3.4,0c-2.8,0-4.1-1.5-4.6-4.3c-1.2-6.9-2.5-13.7-6.9-19.5c-0.8-1-1.7-1.9-2.5-2.9
					c-6.6-7.2-8.7-15.5-5.6-24.7c3-9.1,9.5-14.8,19-16.5c15.7-2.8,29.6,9.6,28.7,25.5c-0.3,5.8-2.4,11.1-6.5,15.2
					c-4.5,4.5-7.3,9.8-8.6,16c-0.6,2.6-1.7,5.1-1.8,7.9c-0.1,1.8-1.8,3.1-3.8,3.2l-0.2,0C39.5,287.7,38.2,287.7,36.9,287.7z"/>
				<path class="st3" d="M198,274c-1.2-0.1-2.4-0.2-3.6-0.2c-0.7,0-0.8-0.3-0.7-0.9c0.1-2.2,0.2-4.4,0.4-6.6
					c0.1-0.8-0.2-1.2-0.9-1.4c-0.7-0.2-0.9-0.5-0.5-1.2c1.4-3,2.7-6.1,4-9.2c0.3-0.7,0.5-0.9,1.3-0.6c2.5,1,4.9,2,7.5,2.9
					c0.9,0.3,0.8,0.7,0.6,1.4c-0.8,2.1-1.3,4.3-2.2,6.3c-1.2,2.8-1.3,5.7-1.4,8.7c0,0.9-0.3,1.1-1.1,1C200.1,274,199.1,274,198,274
					L198,274z"/>
				<path class="st3" d="M160.1,33.9c1.6-3.2,3.2-6.3,4.7-9.4c0.6-1.2,1.4-2.2,2.6-2.8c2.2-1.3,4.4-2.6,6.6-3.9
					c0.5-0.3,0.8-0.3,1.1,0.3c1.7,3,3.3,6.1,5.1,9.1c0.3,0.6,0.2,0.8-0.3,1.1c-2.4,1.4-4.7,2.8-7,4.3c-1.1,0.6-2.2,0.4-3.4,0.6
					C166.2,33.4,163.2,33.7,160.1,33.9z"/>
				<path class="st3" d="M378.5,139.1c1.4,4.1,2.9,7.9,4,11.7c0.5,1.7-0.4,3.5-0.7,5.3c-0.1,0.4-0.5,0.2-0.7,0.2
					c-3.4-0.7-6.9-1.4-10.3-2c-0.7-0.1-0.6-0.4-0.6-1c0.2-2.6,1.2-4.8,2.9-6.8C374.9,144.2,376.6,141.7,378.5,139.1z"/>
				<path class="st3" d="M149.7,222c0.1,0.2,0.2,0.4,0.3,0.5c1.9,2,3.9,4,6,5.8c0.4,0.4,0.4,0.6,0,0.9c-2.3,2.7-4.6,5.3-6.9,8
					c-0.4,0.4-0.6,0.5-1,0.1c-2.4-2.2-4.7-4.4-6.9-6.8c-0.4-0.4-0.3-0.7,0.1-1c2.6-2.3,5.1-4.7,7.7-7
					C149.2,222.4,149.4,222.3,149.7,222z"/>
				<path class="st3" d="M126,181.2c0.1,0.3-0.2,0.5-0.4,0.6c-3.4,1.2-6.7,2.4-10.1,3.7c-0.4,0.2-0.6,0.1-0.8-0.4
					c-1.1-3-2.1-6.1-3-9.2c-0.1-0.5,0.1-0.6,0.4-0.7c3.4-1,6.9-2,10.3-3c0.6-0.2,0.7,0.1,0.8,0.5c0.8,2.8,1.7,5.5,2.7,8.2
					C126,181,126,181.1,126,181.2z"/>
				<path class="st3" d="M144.1,215.3c-0.2,0.2-0.3,0.3-0.5,0.5c-2.8,2.1-5.5,4.2-8.3,6.3c-0.5,0.4-0.7,0.4-1.1-0.1
					c-1.9-2.6-3.6-5.2-5.4-7.8c-0.3-0.5-0.2-0.7,0.3-1c3-1.8,5.9-3.7,8.8-5.5c0.4-0.3,0.7-0.5,1.1,0.1c1.5,2.5,3.1,4.8,4.9,7.1
					C143.9,215,143.9,215.2,144.1,215.3z"/>
				<path class="st3" d="M363.2,268.9c0,1.7,0,3.4,0,5c0,0.7-0.1,1-0.9,1c-2.8,0-5.7,0-8.5,0c-0.7,0-0.9-0.2-0.9-0.9
					c0-3.4,0-6.7,0-10.1c0-0.8,0.2-1,1-1c2.8,0,5.5,0,8.3,0c1,0,1.2,0.3,1.1,1.2C363.1,265.7,363.2,267.3,363.2,268.9z"/>
				<path class="st3" d="M180.4,245.1c0.2,0.1,0.3,0.2,0.5,0.3c2.4,1.3,4.9,2.7,7.3,4c0.6,0.3,0.7,0.5,0.4,1.2
					c-1.6,3-3.1,6.1-4.7,9.2c-0.3,0.6-0.5,0.7-1.1,0.4c-2.6-1.5-5.2-2.9-7.8-4.3c-0.7-0.4-0.9-0.7-0.4-1.4c1.7-2.9,3.4-5.8,5.1-8.7
					C179.9,245.5,180,245.2,180.4,245.1z"/>
				<path class="st3" d="M118.6,153.8c0.5-0.2,0.6,0.2,0.6,0.6c0.4,2.8,0.9,5.7,1.5,8.5c0.1,0.6-0.1,0.7-0.6,0.8
					c-3.4,0.7-6.8,1.5-10.1,2.3c-0.6,0.1-0.9,0-1-0.6c-0.6-3.1-1.1-6.2-1.7-9.3c-0.1-0.5,0.1-0.6,0.6-0.7
					C111.5,154.8,115,154.3,118.6,153.8z"/>
				<path class="st3" d="M303.6,269.5c0,1.7,0,3.3,0,5c0,0.7-0.1,0.9-0.8,0.9c-2.9,0-5.7,0.1-8.6,0.2c-0.7,0-0.9-0.2-0.9-0.9
					c-0.1-3.3-0.2-6.6-0.2-9.9c0-0.8,0.1-1.2,1.1-1.2c2.7,0,5.4-0.1,8.1-0.2c0.9,0,1.1,0.3,1.1,1.1c-0.1,1.6,0,3.3,0,4.9H303.6z"/>
				<path class="st3" d="M312.5,269.1c0-1.7,0-3.3,0-5c0-0.7,0.2-0.9,0.9-0.9c2.9,0,5.7-0.1,8.6-0.1c0.6,0,0.9,0.2,1,0.8
					c0,3.5,0.1,7,0.1,10.5c0,0.5-0.3,0.5-0.7,0.5c-3,0-5.9,0.1-8.8,0.2c-0.7,0-0.8-0.2-0.8-0.8c0-1.8,0-3.5,0-5.3L312.5,269.1z"/>
				<path class="st3" d="M387.8,268.9c-3,1.7-5.9,3.2-8.6,5c-2,1.4-4.2,0.8-6.3,1c-0.5,0-0.5-0.3-0.5-0.7c0-3.6,0-7.1,0-10.7
					c0-0.6,0.2-0.7,0.7-0.7c1.3,0,2.6,0,4,0c0.3,0,0.5,0.1,0.8,0.2C381.1,265,384.4,266.9,387.8,268.9z"/>
				<path class="st3" d="M295.1,11.6c-0.1,0.3-0.2,0.5-0.3,0.7c-1.4,3.1-2.7,6.3-4.1,9.4c-0.2,0.6-0.5,0.8-1.1,0.5
					c-2.5-1-5-2-7.5-2.9c-0.6-0.2-0.7-0.4-0.5-1c1.2-3.2,2.3-6.5,3.3-9.7c0.2-0.6,0.4-0.9,1.1-0.6c2.8,1.1,5.6,2.2,8.3,3.3
					C294.8,11.3,294.9,11.4,295.1,11.6z"/>
				<path class="st3" d="M193.2,8.8c0.4,0,0.4,0.3,0.5,0.5c1.2,3.3,2.4,6.6,3.7,9.9c0.2,0.6,0.1,0.7-0.4,1c-2.5,1-5,2.1-7.5,3.1
					c-0.6,0.2-0.8,0.1-1-0.4c-1.5-3.2-2.9-6.4-4.4-9.6c-0.2-0.4-0.2-0.7,0.3-0.9c2.8-1.2,5.6-2.4,8.5-3.5
					C193,8.9,193.1,8.8,193.2,8.8z"/>
				<path class="st3" d="M313.5,21.3c-0.2,0.3-0.3,0.5-0.4,0.7c-1.8,2.8-3.5,5.6-5.3,8.4c-0.4,0.6-0.7,0.8-1.4,0.4
					c-2.2-1.4-4.5-2.6-6.7-3.9c-0.6-0.3-0.7-0.5-0.4-1.2c1.6-3,3.2-6.1,4.8-9.1c0.2-0.5,0.4-0.8,1-0.4c2.6,1.5,5.2,3,7.8,4.5
					C313.2,20.9,313.4,21,313.5,21.3z"/>
				<path class="st3" d="M215.8,14.2c0.1,0.4-0.1,0.5-0.5,0.6c-2.7,0.6-5.4,1.3-8.1,2c-0.5,0.1-0.6-0.1-0.7-0.5
					c-1-3.4-1.9-6.8-2.9-10.2c-0.1-0.5-0.1-0.7,0.4-0.8c3-0.7,6-1.5,8.9-2.2c0.4-0.1,0.7-0.1,0.8,0.4c0.7,3.5,1.4,7,2.1,10.6
					L215.8,14.2z"/>
				<path class="st3" d="M265.9,2.5c3,0.7,6,1.4,9,2c0.5,0.1,0.5,0.4,0.4,0.9c-0.9,3.4-1.8,6.8-2.7,10.2c-0.1,0.5-0.2,0.7-0.8,0.5
					c-2.7-0.6-5.4-1.2-8.1-1.8c-0.6-0.1-0.6-0.4-0.5-0.8c0.6-3.5,1.3-7,1.9-10.5C265.2,2.5,265.5,2.4,265.9,2.5z"/>
				<path class="st3" d="M234.5,6.6c0.1,1.6,0.2,3.3,0.3,4.9c0,0.7-0.2,0.9-0.8,0.9c-2.5,0.2-5.1,0.4-7.6,0.7
					c-0.8,0.1-1.1,0-1.2-0.9c-0.3-3.3-0.8-6.7-1.2-10c-0.1-0.6-0.1-0.9,0.6-0.9c3-0.3,6-0.5,9.1-0.8c0.6-0.1,0.7,0.3,0.7,0.8
					C234.3,3,234.4,4.8,234.5,6.6L234.5,6.6z"/>
				<path class="st3" d="M244.6,0.4c0.6,0,1.1,0,1.7,0c2.6,0.2,5.3,0.4,7.9,0.5c0.6,0,0.8,0.2,0.8,0.9c-0.4,3.5-0.7,7-1,10.5
					c0,0.5-0.3,0.7-0.8,0.6c-2.7-0.4-5.4-0.4-8.1-0.6c-0.5,0-0.8-0.1-0.8-0.8C244.4,7.8,244.5,4.1,244.6,0.4z"/>
				<path class="st3" d="M129.2,266.8c0,1.7,0,3.4,0,5.1c0,0.6-0.1,0.8-0.8,0.8c-2.6-0.1-5.3-0.1-7.9,0c-0.7,0-1-0.2-1-0.9
					c0-3.3,0-6.5,0-9.8c0-1,0.3-1.3,1.3-1.2c2.4,0.1,4.7,0,7.1,0c0.9,0,1.3,0.2,1.3,1.3C129.1,263.6,129.2,265.2,129.2,266.8z"/>
				<path class="st3" d="M329.7,245.5c-0.2,0.1-0.3,0.3-0.4,0.4c-2.3,1.7-4.6,3.4-7,5c-0.5,0.4-0.8,0.3-1.1-0.2
					c-1.9-2.9-3.8-5.8-5.7-8.7c-0.3-0.4-0.4-0.7,0.1-1c2.1-1.5,4.2-3,6.3-4.5c0.4-0.3,0.6-0.4,0.9,0.1c2.2,2.9,4.4,5.7,6.6,8.5
					C329.5,245.3,329.6,245.4,329.7,245.5z"/>
				<path class="st3" d="M365.8,201.1c-0.1,0.2-0.2,0.4-0.3,0.5c-1.4,2.4-2.7,4.9-4,7.3c-0.3,0.6-0.6,0.6-1.2,0.3
					c-2.9-1.8-5.9-3.5-8.8-5.3c-0.6-0.3-0.6-0.6-0.3-1.2c1.3-2.2,2.5-4.4,3.7-6.7c0.3-0.5,0.5-0.6,1.1-0.3c3.1,1.6,6.1,3.2,9.2,4.8
					C365.4,200.7,365.7,200.8,365.8,201.1z"/>
				<path class="st3" d="M343.9,232.8c-2.2,2.4-4.5,4.7-6.9,6.8c-0.4,0.3-0.5,0.2-0.7-0.1c-2.4-2.7-4.8-5.5-7.2-8.2
					c-0.3-0.3-0.2-0.5,0.1-0.8c2-1.7,3.9-3.5,5.7-5.5c0.5-0.5,0.7-0.1,0.9,0.1C338.4,227.7,341.1,230.3,343.9,232.8z"/>
				<path class="st3" d="M373.5,184.2c-0.1,0.2-0.2,0.4-0.2,0.6c-1,2.4-2.1,4.8-3.1,7.3c-0.3,0.7-0.5,0.9-1.3,0.6
					c-3.1-1.5-6.1-2.9-9.2-4.2c-0.7-0.3-0.7-0.6-0.4-1.2c1-2.2,1.9-4.5,2.9-6.7c0.3-0.7,0.5-1,1.4-0.6c3.1,1.3,6.2,2.5,9.3,3.7
					C373,183.7,373.5,183.7,373.5,184.2z"/>
				<path class="st3" d="M175,267c0-1.7,0-3.4,0-5.1c0-0.6,0.1-0.8,0.8-0.8c2.7,0.1,5.5,0.2,8.2,0.3c0.6,0,0.7,0.3,0.7,0.8
					c-0.2,3.5-0.3,6.9-0.4,10.4c0,0.6-0.2,0.8-0.9,0.8c-2.6-0.1-5.3-0.2-7.9-0.2c-0.7,0-0.8-0.3-0.8-0.9c0-1.7,0-3.4,0-5.1L175,267z
					"/>
				<path class="st3" d="M156.8,266.9c0-1.7,0-3.4,0-5c0-0.7,0.1-1,0.9-1c2.7,0.1,5.3,0.1,8,0.1c0.5,0,0.7,0.2,0.7,0.7
					c0,3.5,0,7,0,10.5c0,0.6-0.3,0.7-0.8,0.7c-2.7,0-5.4-0.1-8.1-0.1c-0.6,0-0.7-0.3-0.7-0.8C156.8,270.3,156.7,268.6,156.8,266.9
					L156.8,266.9z"/>
				<path class="st3" d="M101.5,266.5c0-1.6,0-3.3,0-4.9c0-0.6,0.1-0.9,0.8-0.9c2.7,0,5.3,0,8,0c0.7,0,0.8,0.2,0.8,0.8
					c0,3.4-0.1,6.7,0,10.1c0,0.7-0.1,1.1-1,1.1c-2.6-0.1-5.2,0-7.8,0c-0.7,0-0.9-0.2-0.9-0.9C101.5,270,101.5,268.3,101.5,266.5
					L101.5,266.5z"/>
				<path class="st3" d="M129.6,190.8c0.3,0,0.3,0.3,0.4,0.5c1.1,2.4,2.3,4.7,3.4,7.1c0.2,0.4,0,0.5-0.3,0.7c-3.2,1.7-6.4,3.3-9.6,5
					c-0.4,0.2-0.6,0.2-0.8-0.2c-1.2-2.6-2.4-5.1-3.7-7.7c-0.2-0.4-0.2-0.7,0.3-0.9c3.3-1.5,6.6-2.9,10-4.4
					C129.5,190.9,129.5,190.8,129.6,190.8z"/>
				<path class="st3" d="M171.7,239.9c-0.1,0.2-0.3,0.4-0.4,0.6c-1.9,2.8-3.7,5.7-5.6,8.5c-0.3,0.5-0.6,0.7-1.2,0.3
					c-2.2-1.5-4.3-3-6.5-4.4c-0.6-0.4-0.6-0.6-0.2-1.2c2-2.8,4-5.6,5.9-8.4c0.3-0.5,0.5-0.6,1.1-0.2c2.1,1.5,4.2,2.9,6.3,4.3
					C171.4,239.5,171.7,239.6,171.7,239.9z"/>
				<path class="st3" d="M111.9,135.2c1.8,0,3.5,0,5.3,0c0.6,0,0.8,0.2,0.8,0.8c0,2.4,0,4.8,0.1,7.2c0,0.7-0.2,0.9-0.9,0.9
					c-3.3,0.2-6.7,0.3-10,0.6c-0.9,0.1-1.1-0.2-1.1-1.1c0-2.6,0-5.3-0.1-7.9c0-0.7,0.2-0.9,0.9-0.8c1.7,0.1,3.3,0,5,0
					C111.9,135,111.9,135.1,111.9,135.2z"/>
				<path class="st3" d="M342.6,269c0,1.7,0,3.4,0,5c0,0.7-0.1,1-0.9,1c-2.5-0.1-5-0.1-7.6,0c-0.8,0-0.9-0.2-0.9-0.9
					c0-3.4,0-6.7,0-10.1c0-0.7,0.2-1,0.9-1c2.5,0,5,0,7.4,0c0.8,0,0.9,0.2,0.9,1C342.5,265.6,342.5,267.3,342.6,269L342.6,269z"/>
				<path class="st3" d="M345.9,211.3c0.3,0.2,0.5,0.3,0.8,0.5c2.8,1.9,5.5,3.8,8.3,5.7c0.6,0.4,0.8,0.6,0.3,1.3
					c-1.5,1.9-2.9,3.9-4.3,5.9c-0.5,0.6-0.7,0.5-1.3,0.1c-2.7-2.1-5.3-4.2-8-6.3c-0.5-0.4-0.6-0.7-0.2-1.2c1.3-1.7,2.6-3.5,3.9-5.3
					C345.5,211.7,345.7,211.5,345.9,211.3z"/>
				<path class="st3" d="M379.4,166.4c-0.1,0.3-0.1,0.4-0.2,0.6c-0.7,2.3-1.4,4.6-2.1,6.9c-0.2,0.5-0.3,0.8-1,0.6
					c-3.3-1.1-6.6-2.2-9.9-3.2c-0.5-0.2-0.7-0.4-0.5-1c0.7-2.1,1.3-4.3,1.9-6.4c0.2-0.6,0.4-0.8,1.1-0.6c3.3,0.9,6.6,1.8,9.9,2.7
					C379,166,379.5,165.9,379.4,166.4z"/>
				<path class="st3" d="M138.7,266.8c0-1.7,0-3.4,0-5.1c0-0.6,0.2-0.8,0.8-0.8c2.4,0.1,4.7,0.1,7.1,0.1c0.7,0,0.8,0.3,0.8,0.9
					c0,3.4,0,6.8,0,10.2c0,0.7-0.2,0.9-0.9,0.9c-2.4,0-4.7-0.1-7.1,0c-0.6,0-0.7-0.2-0.7-0.8C138.7,270.3,138.7,268.5,138.7,266.8z"
					/>
				<path class="st3" d="M305.3,260.6c-0.4,0-0.4-0.3-0.6-0.5c-1.5-3.2-3-6.4-4.5-9.5c-0.3-0.5-0.1-0.7,0.4-1c2-1,4-2,6-3
					c0.5-0.3,0.8-0.3,1.1,0.3c1.7,3.1,3.4,6.1,5.1,9.1c0.2,0.4,0.4,0.7-0.2,1c-2.3,1.2-4.6,2.4-6.9,3.5
					C305.5,260.5,305.4,260.5,305.3,260.6z"/>
				<path class="st3" d="M92,266.8c0,1.7,0,3.4,0,5c0,0.5,0,0.9-0.7,0.8c-2.4,0-4.7-0.1-7.1,0c-0.7,0-0.9-0.2-0.9-1
					c0.1-3.4,0.1-6.8,0.1-10.2c0-0.7,0.2-0.9,0.9-0.9c2.3,0.1,4.6,0.1,7,0.1c0.6,0,0.8,0.2,0.8,0.9C92,263.3,92.1,265,92,266.8
					L92,266.8z"/>
				<path class="st3" d="M119.6,121.6c-0.2,1.2-0.4,2.3-0.6,3.5c-0.1,0.5-0.3,0.6-0.8,0.5c-3.5-0.6-6.9-1.1-10.4-1.6
					c-0.5-0.1-0.7-0.2-0.6-0.8c0.3-1.4,0.6-2.7,0.8-4.1c0.1-0.5,0.2-0.7,0.8-0.5c3.4,0.8,6.8,1.6,10.2,2.4
					C119.2,121,119.9,120.9,119.6,121.6z"/>
				<path class="st5" d="M68.7,242.3c-1.7-0.1-3.3-0.1-4.8-0.5c-0.8-0.2-1.6-0.5-1.7-1.5c-0.1-0.9,0.5-1.4,1.2-1.7
					c2.1-1.1,4.4-1.8,6.7-2c2.2-0.2,3.7,1.1,3.6,2.8c-0.1,1.3-1.3,2.4-2.9,2.6C70.1,242.2,69.3,242.2,68.7,242.3z"/>
				<path class="st6" d="M34.5,208.8c-0.1-1.1,0.1-2.1,0.7-3c1-1.4,2.9-1.5,4-0.1c0.6,0.8,0.9,1.7,0.9,2.7c-0.1,2.2-0.4,4.3-1.1,6.3
					c-0.3,0.8-0.6,1.6-1.7,1.6c-1.1,0-1.5-0.9-1.7-1.7C34.9,212.8,34.6,210.8,34.5,208.8z"/>
				<path class="st3" d="M10.6,215.8c0-1.4,0.9-2.4,2.1-2.6c1-0.1,1.9,0.2,2.7,0.8c1.9,1.5,3.5,3.2,4.7,5.2c0.4,0.7,0.7,1.4,0.1,2.1
					c-0.6,0.7-1.3,0.6-2.1,0.3c-2.2-0.7-4.2-1.8-6.1-3.3C11.2,217.8,10.7,216.8,10.6,215.8z"/>
				<path class="st3" d="M63.5,214.9c1.9,0,3,1.5,2.5,3.3c-0.2,0.8-0.6,1.5-1.3,2c-1.7,1.4-3.6,2.6-5.7,3.4
					c-0.8,0.3-1.6,0.5-2.2-0.2c-0.7-0.8-0.3-1.6,0.1-2.3c1.1-2,2.6-3.6,4.3-5.1C61.8,215.3,62.7,215,63.5,214.9z"/>
				<path class="st6" d="M5.9,238.3c-1.2-0.1-2.6,0.1-3.9-0.6c-1.3-0.7-2-1.7-1.8-2.9c0.2-1.1,1.2-2,2.6-2.1c3-0.1,5.8,0.8,8.3,2.3
					c1.2,0.8,0.9,2.1-0.5,2.6C9.2,238.3,7.6,238.2,5.9,238.3z"/>
				<path class="st7" d="M139,60.9c-0.1,0.3-0.3,0.5-0.7,0.7c-0.1-0.5,0.2-0.7,0.4-1C138.8,60.7,138.9,60.8,139,60.9z"/>
				<path class="st8" d="M103.9,99.9c0.1-4.2,1.5-8,3.2-11.7c2-4.4,4.5-8.5,7-12.5c0.4-0.6,0.7-0.6,1.2-0.2c0.6,0.5,1.3,1,2,1.3
					c2,1,3.3,2.5,3.2,4.9l0.1,0.2c1.3,1.6,0.1,2.7-0.7,4c-4.3,6.5-8.6,13.1-12.9,19.6c-0.6,0.9-0.9,0.9-1.5,0.1
					C104.3,103.9,103.9,101.9,103.9,99.9z"/>
				<path class="st8" d="M112,108.9c-0.9-0.1-2.1,0.1-2.6-0.6c-0.3-0.5,0.7-1.4,1.2-2.1c4.3-6.6,8.7-13.1,13-19.7
					c0.4-0.7,0.8-1.1,1.7-0.9c0.8,0.1,1.6-0.1,2.3-0.4c1-0.4,1.9-0.3,2.8,0.4c1.2,0.8,2.5,1.6,3.7,2.4c0.4,0.3,0.7,0.5,0.3,1
					c-4.3,6.2-8.6,12.3-14.7,16.9C117.1,107.9,114.4,108.9,112,108.9z"/>
				<path class="st9" d="M128.7,66c2.5-1.3,4.6-1,6.6,0.4c1.7,1.2,2.5,2.9,2.3,5.3C135.1,69,132.3,67.1,128.7,66z"/>
				<path class="st3" d="M373.8,47.8c-2-0.2-3-1-3.2-2.9c-0.1-0.7-0.1-1.1,0.4-1.5c1.1-0.8,2.1-1.8,3.1-2.6c0.2-0.2,0.6-0.3,0.4-0.7
					c-0.6-1.1-0.9-2.4-1.8-3.2c-0.5-0.5-1.7,0.2-2.6,0.3c-0.5,0.1-1,0.1-1.4,0.3c-1.1,0.4-1.6-0.1-2.4-0.9c-1.3-1.4-1.2-2.5-0.4-4.1
					c1.7-3,1.6-3-1.1-5.1c-0.4-0.4-0.7-0.4-1.2-0.1c-1,0.7-2,1.3-2.9,2.1c-0.8,0.6-1.3,0.5-2.2,0.1c-1.5-0.7-2.2-1.6-1.7-3.3
					c0.1-0.4,0.1-1,0.1-1.4c0.1-2.1,0.1-2.1-1.8-2.7c-2-0.7-2-0.7-3.1,1c-0.4,0.7-0.9,1.3-1.3,2c-0.4,0.9-1,0.9-2,0.9
					c-2,0-2.8-0.9-3.4-2.8c-0.9-3.1-1-3-4.2-2.7c-0.8,0.1-1,0.4-1.1,1.1c-0.2,1.3-0.5,2.6-0.7,3.9c-0.1,0.3-0.1,0.6-0.4,0.8
					c-2,1-3,0.8-4.5-0.9l-0.1-0.1c-2.2-2.6-2.2-2.6-5.2-1l-0.1,0c-0.5,0.2-0.6,0.5-0.5,1c0.3,1.3,0.6,2.7,0.8,4
					c0.1,0.4,0.2,0.8-0.3,1.2c-0.8,0.5-1.5,1.1-2.2,1.7c-0.4,0.3-0.6,0.2-1,0c-1.1-0.6-2.3-1.1-3.4-1.7c-0.8-0.5-1.3-0.4-1.9,0.4
					c-1.9,2.3-2,2.4-0.2,4.7c1.2,1.6,1.6,2.8,0.2,4.5c-0.4,0.5-0.6,0.8-1.3,0.7c-1.2-0.2-2.4-0.1-3.6-0.3c-1-0.2-1.5,0.2-1.8,1.2
					c-0.8,2.7-1,2.9,1.4,4.1c2.2,1.1,2.7,2.6,2,4.8c-0.2,0.6-0.4,0.8-0.9,0.9c-1.3,0.4-2.6,0.8-3.9,1.3c-0.3,0.1-0.7,0.1-0.7,0.6
					c0.1,1.2,0.2,2.3,0.3,3.5c0,0.5,0.5,0.4,0.7,0.4c1.4,0.3,2.7,0.5,4.1,0.8c0.4,0.1,0.7,0.1,0.9,0.6c0.9,2.6,0.9,2.6-1.2,4.5
					c-0.8,0.7-2.1,1.2-2.2,2.2c0,1,0.9,1.9,1.3,2.9c0.2,0.5,0.5,0.7,1.1,0.5c1.1-0.3,2.2-0.4,3.3-0.7c1.1-0.3,1.7,0,2.4,0.9
					c1.2,1.3,1.4,2.4,0.4,3.9c-0.6,0.9-1.6,2-1.3,3c0.3,0.9,1.6,1.5,2.4,2.3c0.4,0.4,0.7,0.4,1.1,0.1c1.1-0.8,2.2-1.5,3.4-2.3
					c0.5-0.4,0.8-0.4,1.5-0.1c1.9,0.8,2.5,1.9,2.1,3.9c-0.2,1-0.7,2.3,0,3.1c0.7,0.7,2,0.7,3,1.1c0.6,0.2,0.9,0.1,1.2-0.4
					c0.7-1.2,1.5-2.3,2.3-3.5c0.2-0.3,0.4-0.6,0.9-0.6c0.9,0.1,1.8,0.2,2.7,0.3c0.3,0,0.5,0.2,0.6,0.5c0.5,1.7,1.3,3.3,1.5,5
					l0.1,0.1c1,0.3,2-0.2,3.1-0.1c1,0.1,1.5-0.5,1.6-1.4c0.2-1.1,0.4-2.2,0.6-3.3c0.2-1.2,1.2-1.2,2-1.5c0.7-0.2,1.3-0.2,1.8,0.5
					c0.8,0.9,1.5,1.8,2.3,2.6c0.5,0.5,1,0.8,1.6,0.5c1-0.5,2.1-0.8,2.9-1.6l0.1-0.2c-0.3-1.3-0.4-2.7-0.8-4c-0.3-1.1,0-1.7,0.9-2.5
					c1.4-1.3,2.6-1.3,4-0.3c0.8,0.6,1.9,1.3,2.8,1.2c1-0.1,1.5-1.5,2.2-2.2l0.1-0.1c0.5-0.4,0.5-0.8,0.1-1.3
					c-0.8-1.1-1.6-2.2-2.3-3.4c-0.2-0.3-0.4-0.5-0.3-1c0.9-2.3,1.5-2.7,3.9-2.5c3.4,0.4,3.4,0.4,4.4-2.9c0.2-0.6,0.1-0.9-0.4-1.3
					c-1.2-0.7-2.3-1.5-3.4-2.2c-0.5-0.3-0.7-0.7-0.6-1.3c0.2-0.7,0.3-1.4,0.3-2.1c0-0.6,0.3-0.9,0.9-1.1c1.2-0.4,2.4-0.9,3.6-1.2
					c0.8-0.2,1-0.6,0.9-1.3C376.9,48.3,376.9,48.2,373.8,47.8z M344.6,73.5c-11.6,0-20.9-9.5-20.8-21.1c0.1-11.4,9.5-20.6,21.1-20.5
					c10.9,0.1,20.5,8.8,20.5,20.8C365.5,64.2,356,73.5,344.6,73.5z"/>
				<path class="st8" d="M405.3,243.3c3.7,0,7.1,0,10.6,0c7,0,14.1,0,21.1,0c0.7,0,1.1,0,0.8,0.9c-5.3,13.3-10.5,26.6-15.8,39.9
					c0,0.1-0.1,0.2-0.3,0.6C416.2,270.8,410.8,257.1,405.3,243.3z"/>
				<path class="st8" d="M436.5,269.2c-3.2,3.6-6.4,7.3-9.8,11.1c-0.1-0.6,0.2-1,0.3-1.4c4.4-11.1,8.8-22.3,13.2-33.4
					c0.9-2.2,0.9-2.2,3.3-2.2c5.1,0,10.3,0,15.7,0c-6.8,7.7-13.4,15.2-20,22.7c-0.8,0.5-1.3,0-1.5-0.7c-0.3-0.8-0.5-1.7-0.6-2.5
					c-0.3,2.9-0.4,3.1-3.5,3.9C436.6,267.5,436.8,267.7,436.5,269.2z"/>
				<path class="st8" d="M396.9,243.2c1.5,0,3,0.1,4.6,0c0.7,0,1,0.2,1.3,0.9c3.7,9.3,7.4,18.5,11,27.8c1.1,2.7,2.1,5.4,3,8.2
					c-1.5-1.6-2.9-3.3-4.4-4.9c-7.3-8.3-14.6-16.6-21.9-24.8c-0.2-0.2-0.4-0.5-0.7-0.7c-0.4-0.3-0.2-0.7-0.1-1.1
					c0.2-1.1,0.5-2.2,0.8-3.2c0.1-0.6,0.4-1.1,1.1-1.3c1.4-0.4,2.8-0.7,4.3-1C396.2,243,396.6,243,396.9,243.2z"/>
				<path class="st8" d="M437.3,240.6c-10.4,0-20.6,0-31,0c0.9-1.1,1.6-2.1,2.4-3c4.2-5.1,8.3-10.2,12.5-15.3c0.5-0.6,0.7-0.6,1.1,0
					C427.2,228.3,432.2,234.3,437.3,240.6z"/>
				<path class="st8" d="M439.6,239.1c-4.9-6-9.7-11.9-14.5-17.8c0.2-0.4,0.6-0.3,0.9-0.3c6.3,0,12.5,0,18.8,0c1,0,1.1,0.2,0.8,1.1
					c-1.9,5.3-3.7,10.5-5.5,15.8C440,238.3,439.8,238.7,439.6,239.1z"/>
				<path class="st8" d="M418.5,221.3c-4.9,6-9.7,11.8-14.4,17.7c-0.5,0-0.4-0.5-0.5-0.7c-1.9-5.4-3.8-10.7-5.7-16.1
					c-0.2-0.5-0.6-1.1,0.5-1.1c6.5,0,13.1,0,19.6,0C418.1,221.1,418.2,221.2,418.5,221.3z"/>
				<path class="st8" d="M459.8,240.6c-6,0-11.8,0-17.7,0c2.1-5.9,4.1-11.7,6.2-17.7C452.1,228.8,455.9,234.6,459.8,240.6z"/>
				<path class="st8" d="M387.8,240.6c-1.3,0-2.5,0-4.1,0c3.9-6,7.6-11.8,11.5-17.8c0.4,1.2,0.8,2.2,1.2,3.2c1.6,4.5,3.1,9,4.8,13.5
					c0.3,0.8,0.2,1-0.7,1c-3.2,0-6.3,0-9.5,0c-0.3-0.1-0.5-0.3-0.5-0.6c-0.5-1.6-0.8-3.2-1.1-4.9c0-0.1,0-0.3,0.1-0.4
					c-0.1,1.5-0.6,3-1,4.5C388.3,239.8,388.3,240.4,387.8,240.6z"/>
				<path class="st10" d="M387.8,240.6c0.5-2,1-4.1,1.6-6.3c0.6,2.3,1.1,4.3,1.6,6.3c-0.1,0.7,0.5,0.6,0.9,0.7
					c1.9,0.5,3.7,0.9,5.8,1.4c-0.4,0.2-0.6,0.3-0.8,0.5c-1.8,0.4-3.6,0.8-5.3,1.2c-0.5,0.1-0.6,0.5-0.7,0.9c-0.3,1.5-0.7,2.9-1,4.4
					c-0.1,0.4-0.3,0.8-0.4,1.4c-0.6-1.1-0.5-2.2-1-3.2c-0.1-0.1-0.2-0.2-0.2-0.3c-0.2-2-1.3-3.2-3.2-3.6c-1.2-0.5-2.6-0.6-4.2-1.2
					c2.2-0.5,4.1-1,6-1.5C387.3,241.3,387.8,241.2,387.8,240.6z"/>
				<path class="st11" d="M436.5,269.2c0-1.1-0.5-1.6-1.6-1.8c-0.8-0.1-1.6-0.2-2.3-0.8c3,0.1,4.3-1.4,4.5-4.1
					c0-0.1,0.1-0.2,0.2-0.4c0.2,1,0.5,1.8,0.6,2.7c0.1,0.8,0.5,1.3,1.4,1.2c0.8,0.2,1.6,0.5,2.5,0.7c-1,0.5-2,0.6-2.9,0.8
					c-0.5,0.1-0.8,0.3-0.9,0.9c-0.2,1-0.5,1.9-0.8,3.1C436.9,270.6,436.7,269.9,436.5,269.2z"/>
				<path class="st12" d="M385,244l0.2,0c2.6,0.4,2.8,0.7,3.2,3.9C387.2,246.6,386,245.3,385,244z"/>
				<g>
					<path class="st3" d="M360.7,80.8C360.7,80.8,360.7,80.8,360.7,80.8C360.7,80.8,360.7,80.8,360.7,80.8L360.7,80.8z"/>
					<path class="st3" d="M385.6,108.1l-0.2-0.1c-1.4-0.3-2-1-1.9-2.5c0-0.9,0.2-1.4,1-1.7c0.8-0.4,1.5-0.9,2.3-1.3
						c0.8-0.4,0.9-0.8,0.7-1.6c-0.7-2.4-0.7-2.6-3.1-2.4c-1.9,0.2-3-0.4-3.6-2.2c-0.2-0.6-0.3-1,0.1-1.5c0.7-0.9,1.3-1.8,2-2.7
						c0.3-0.4,0.3-0.6,0-1c-1.7-2.4-1.8-2.6-4.4-1.2c-1.5,0.8-2.6,0.8-3.7-0.5c-0.4-0.5-0.6-0.8-0.4-1.4c0.4-1.1,0.6-2.2,0.9-3.2
						c0.1-0.3,0.3-0.6,0-0.8c-0.9-0.6-1.8-1.2-2.8-1.5c-0.6-0.2-0.9,0.7-1.4,1.1c-0.5,0.4-0.9,0.8-1.2,1.3c-1.1,1.7-2.2,0.3-3.3,0.2
						c-1-0.1-0.8-0.9-0.9-1.5c-0.1-0.9-0.3-1.8-0.4-2.7c0-0.3,0.1-0.7-0.2-0.7c-1.1-0.2-2.1-0.4-3.2-0.4c-0.7,0-0.4,0.9-0.9,1.1
						c-0.4,0.6-0.7,1.3-1,2c-0.2,0.8-0.7,1.2-1.5,1.3c-0.9,0-1.7,0-2.1-1c-0.2-0.4-0.4-0.7-0.6-1c-1.4-2.3-1.4-2.3-3.9-1.5l-0.2,0.1
						c-0.8,0.2-1.1,0.7-1.1,1.5c0,1,0,1.9,0,2.9c-0.1,1.4-2.1,2.5-3.3,1.7c-0.8-0.5-1.5-1.2-2.4-1.6l0,0c-0.6-0.4-1.2-0.4-1.7,0.2
						c-0.3,0.4-0.8,0.7-1.2,1c-0.7,0.4-0.7,0.9-0.4,1.6c0.5,0.9,0.8,1.9,1.3,2.8c0.3,0.5,0.1,0.8-0.2,1.3c-0.9,1.5-2.1,1.8-3.7,1.1
						c-0.6-0.3-1.3-0.4-2-0.5c-0.3-0.1-0.6-0.2-0.8,0.2c-0.5,0.8-0.9,1.7-1.4,2.5c-0.2,0.4,0.1,0.6,0.3,0.8c0.8,0.8,1.6,1.6,2.4,2.3
						c0.5,0.4,0.5,0.8,0.4,1.4c-0.3,2-1.4,2.8-3.4,2.8c-0.5,0-0.9,0.2-1.4,0.2c-0.6,0-0.8,0.2-0.9,0.9c-0.4,2.8-0.4,2.9,2.3,3.8
						c1.5,0.5,2.3,1.2,2.2,2.9c-0.1,0.6-0.1,1-0.7,1.3c-0.9,0.5-1.7,1-2.6,1.5c-0.8,0.4-0.9,0.8-0.6,1.6c0.7,2.4,0.7,2.7,3.3,2.4
						c2-0.2,2.9,0.5,3.5,2.2c0.2,0.6,0.3,0.9-0.1,1.4c-0.7,0.9-1.4,1.9-2.1,2.8c-0.3,0.4-0.3,0.6,0,1c1.7,2.4,1.7,2.5,4.3,1.2
						c1.5-0.8,2.6-0.8,3.7,0.5c0.4,0.4,0.6,0.7,0.4,1.3c-0.4,1.1-0.6,2.2-0.9,3.3c-0.1,0.4-0.3,0.7,0.2,0.9c0.8,0.5,1.7,0.9,2.5,1.4
						c0.4,0.2,0.6-0.1,0.8-0.3c0.8-0.8,1.6-1.7,2.4-2.5c0.2-0.2,0.4-0.6,0.9-0.5c2,0.2,2.9,1,3.2,3l0,0.2c0.3,2.7,0.3,2.7,3.1,2.9
						c0.7,0.1,1-0.1,1.2-0.8c0.3-1.1,0.8-2.1,1.2-3.1c0.1-0.3,0.1-0.6,0.5-0.6c0.9-0.1,1.8-0.3,2.6-0.2c0.6,0.1,0.7,0.9,1,1.4
						c0.1,0.1,0.2,0.3,0.2,0.4c1.5,2.5,1.5,2.5,4.2,1.6l0.1,0c0.5-0.1,0.6-0.3,0.6-0.8c-0.1-1.1,0-2.2-0.1-3.4
						c0-0.6,0.2-0.9,0.7-1.3c1.6-1.3,3-0.9,4.3,0.4c0.4,0.4,0.9,0.6,1.2,1c0.5,0.4,0.8,0.3,1.2,0c2.3-1.7,2.3-1.7,1.1-4.3
						c-0.1-0.3-0.2-0.6-0.4-0.9c-0.5-0.8-0.3-1.3,0.3-2.1c0.9-1.2,1.7-1.5,3-0.9c0.3,0.1,0.6,0.2,0.9,0.3c2.1,0.6,2,0.5,3.1-1.3
						c0.6-1,0.7-1.6-0.3-2.4c-0.7-0.5-1.2-1.2-1.9-1.8c-0.6-0.5-0.5-0.9-0.4-1.5c0.3-1.9,1.3-2.7,3.2-2.6c0.5,0,1.1-0.2,1.7-0.2
						c0.5-0.1,0.7-0.2,0.8-0.8C388.3,109.2,388.4,109.2,385.6,108.1z M360,126c-10,0-18.2-8.2-18.2-18.3c0-10,8.2-18.1,18.3-18.1
						c9.9,0,18,8.2,18.1,18.1C378.3,117.8,370,126,360,126z"/>
				</g>
				<path class="st3" d="M283.6,242.3c-2.7-5.3-7.1-8-13.2-7.9c-0.9,0-1.2-0.2-1.2-1.2c0.1-2,0-4.1,0-6.1c0-0.9-0.2-1.1-1.1-1.1
					c-17.1,0-34.2,0-51.2,0c-0.9,0-1.2,0.2-1.2,1.2c0,8.6,0,17.2,0,25.8c0,8.5,0,17,0,25.6c0,7.3,6,13.2,13.3,13.2
					c8.9,0,17.8,0,26.8,0c6.2,0,11.4-3.9,13-9.9c0.3-1.2,0.8-1.4,1.9-1.4c8.3-0.1,14.2-6.1,14.2-14.4c0-5.9,0-11.8,0-17.6
					C285,246.3,284.6,244.2,283.6,242.3z M280.6,266.6c0,5.3-4.2,9.5-9.5,9.6c-1.8,0-3.5,0-5.3,0c-0.6,0-0.8,0.2-0.8,0.8
					c0,1.2,0.1,2.4-0.2,3.6c-0.9,3.9-4.3,6.9-8.3,6.9c-9.2,0.1-18.5,0.1-27.7,0c-4.8-0.1-8.6-4.1-8.6-9c0-7.8,0-15.6,0-23.4
					c0-7.8,0-15.7,0-23.5c0-1,0.3-1.2,1.3-1.2c14.2,0,28.3,0,42.5,0c0.9,0,1.2,0.2,1.2,1.2c-0.1,2,0,3.9,0,5.9c0,1,0.2,1.3,1.2,1.3
					c1.9-0.1,3.8-0.1,5.6,0.1c4.9,0.4,8.7,4.5,8.8,9.4C280.6,254.2,280.6,260.4,280.6,266.6z"/>
				<path class="st3" d="M331.9,102.6c2.1-0.2,2.1-0.2,2.3-2c0.1-0.8-0.2-1.1-0.8-1.3c-0.5-0.2-1-0.4-1.6-0.6
					c-0.6-0.2-0.8-0.5-0.9-1.2c-0.1-1,0.1-1.6,1-2c0.5-0.2,1-0.6,1.4-0.8c0.2-0.1,0.5-0.2,0.5-0.6c0-1.6-0.7-2.3-2.4-2.2
					c-0.6-0.2-1.5,0.4-2-0.4c-0.6-1-1.2-1.9,0-2.9c0.3-0.3,0.5-0.7,0.8-1c0.4-0.4,0.4-0.7,0-1.1c-1.2-1.6-1.2-1.6-2.9-0.8
					c-0.4,0.2-0.8,0.3-1.2,0.5c-0.2,0.1-0.4,0.2-0.7,0c-0.8-0.7-1.8-1.2-1.1-2.6c0.2-0.3,0.2-0.7,0.3-1c0.3-0.7,0.1-1.1-0.6-1.6
					c-1.1-0.7-1.8-0.6-2.6,0.4c-0.3,0.4-0.7,0.7-1,1.1c-0.2,0.3-0.4,0.4-0.8,0.3c-1.2-0.3-2.2-0.7-2.1-2.2c0-0.5-0.1-0.9-0.2-1.4
					c0-0.3-0.2-0.5-0.5-0.6c-1.5-0.5-2.2-0.2-2.8,1.3c-0.1,0.2-0.2,0.4-0.2,0.6c-0.2,1-0.8,1.3-1.8,1.4c-1,0.1-1.1-0.6-1.5-1.1
					c-0.3-0.5-0.6-1-0.8-1.4c-0.1-0.2-0.2-0.4-0.6-0.4c-1.6,0.1-2.2,0.7-2.2,2.3c0,0.4,0,0.9,0,1.3c0,0.3,0,0.5-0.3,0.7
					c-1.1,0.9-1.9,0.9-3.1,0c-0.4-0.3-0.8-0.6-1.2-0.9c-0.2-0.2-0.4-0.3-0.7-0.1c-1.5,0.8-1.8,1.5-1.1,3.1c0.1,0.2,0.1,0.4,0.3,0.5
					c0.6,0.8,0.2,1.4-0.3,2.1c-0.6,0.7-1.1,0.6-1.8,0.4c-0.5-0.1-0.9-0.2-1.4-0.4c-0.7-0.3-1.1,0-1.5,0.6c-0.7,1.1-0.7,1.9,0.4,2.6
					c0.4,0.3,0.7,0.6,1,1c0.2,0.2,0.4,0.4,0.3,0.7c-0.3,1.1-0.5,2.3-2.1,2.1c-0.3,0-0.7,0.1-1.1,0.1c-0.7,0-0.9,0.4-1.1,1.1
					c-0.3,1.3,0,2.1,1.4,2.3c0.3,0.1,0.7,0.3,1,0.4c0.5,0.2,0.9,0.4,0.9,1c-0.1,0.7,0.4,1.4-0.6,1.8c-0.4,0.2-0.8,0.5-1.3,0.7
					c-1,0.4-1.1,1-0.8,1.9c0.3,0.9,0.6,1.5,1.7,1.3c0.4-0.1,0.9,0,1.3,0c1.2-0.2,1.2,0.8,1.7,1.4c0.5,0.7,0.1,1.1-0.3,1.5
					c-0.2,0.3-0.4,0.7-0.7,1c-0.7,0.7-0.6,1.3,0,2.1c0.7,0.8,1.2,1.1,2.1,0.5c0.5-0.3,1-0.5,1.5-0.7c0.2-0.1,0.5-0.2,0.8,0
					c0.8,0.7,1.7,1.2,1,2.5c-0.2,0.5-0.3,1-0.4,1.5c-0.1,0.4-0.1,0.7,0.4,1c1.7,1.1,1.7,1.1,3.1-0.4c0.3-0.3,0.5-0.6,0.8-0.9
					c0.2-0.2,0.3-0.4,0.7-0.3c1.6,0.2,2,0.6,2.2,2.2c0.1,0.5,0.2,0.9,0.2,1.4c0,0.3,0.1,0.5,0.5,0.6c1.9,0.5,2.2,0.3,2.9-1.4
					c0.1-0.1,0.1-0.3,0.2-0.4c0.2-0.6,0.3-1.3,1.3-1.3c1,0,1.7,0.1,2,1.1c0.2,0.5,0.5,0.9,0.8,1.3c0.2,0.4,0.5,0.5,1,0.4
					c1.9-0.4,1.9-0.4,1.9-2.4c0-0.4,0-0.8,0-1.2c0-0.2,0-0.4,0.2-0.6c1-0.9,2-0.9,3.1-0.1c0.4,0.3,0.8,0.6,1.1,0.9
					c0.2,0.1,0.4,0.4,0.6,0.3c0.6-0.4,1.3-0.9,1.8-1.4c0.4-0.4-0.2-0.9-0.3-1.3c-0.1-0.3-0.2-0.5-0.3-0.8c-0.7-1-0.4-1.8,0.5-2.5
					c0.8-0.7,1.6-0.1,2.3,0.2c1.1,0.3,1.8,0.3,2.3-1c0.3-0.8,0.5-1.3-0.3-1.8c-0.4-0.3-0.7-0.7-1-1c-0.6-0.5-0.7-1-0.5-1.7
					C330.2,103,330.8,102.7,331.9,102.6z M313.8,110.9c-6.8,0-12.3-5.4-12.3-12.2c0-6.6,5.5-12.1,12.1-12.2
					c6.9,0,12.3,5.4,12.3,12.1C326,105.4,320.5,110.9,313.8,110.9z"/>
				<path class="st8" d="M31.9,276.3c-2.3,0.2-2.4,0.2-2.9-2c-1.4-5.9-4.4-10.8-8.5-15.3c-5.8-6.4-7.4-14-4.7-22.2
					c2.8-8.1,8.5-13.3,17-14.9c12.8-2.5,24.7,6,26.6,18.9c1,7-0.9,13.4-5.9,18.5c-4.2,4.3-7.2,9.2-8.5,15.1
					c-0.4,1.8-0.5,1.8-2.3,1.8c-0.2,0-0.5,0-0.7,0c-0.3-0.5,0-1,0.2-1.5c2.5-6.7,4.9-13.5,7-20.4c0.1-0.5,0.5-0.9,0.2-1.5
					c-0.4-0.1-0.5,0.2-0.6,0.5c-0.2,0.4-0.2,0.8-0.4,1.1c-0.3,0.6-0.1,1.9-1.4,1.5c-1.2-0.4-1.8-1.8-1.3-2.8c1-1.8,1-3.8,1-5.7
					c0-0.6-0.1-1.3-0.9-1.4c-0.7-0.1-1.2,0.3-1.5,0.8c-0.8,1.5-1,3-0.8,4.7c0,0.3,0.1,0.6,0.2,0.9c0.2,1.5-0.7,2.4-2.3,2.1
					c-1.5-0.3-2.4-1.8-2-3.3c0.4-1.5,0.7-3.1,0.7-4.7c0-0.4,0-0.8-0.2-1.2c-0.1-0.3-0.3-0.7-0.7-0.7c-0.4,0-0.6,0.3-0.8,0.6
					c-0.9,1.7-1,3.6-0.6,5.4c0.5,2-0.4,3.4-1.7,4.7c-0.6,0.6-1.4,0.7-2.2,0.2c-1.3-0.8-2.2-2.8-1.8-4.4c0.3-1.4,0.6-2.7,0.5-4.1
					c0-0.3,0-0.6-0.1-1c-0.1-0.4-0.3-0.7-0.7-0.7c-0.5-0.1-0.6,0.3-0.8,0.6c-0.4,1.4-0.9,2.8-0.5,4.2c0.5,2.1-0.3,3.7-1.5,5.3
					c-0.6,0.8-1.1,0.7-1.4-0.3c-0.2-0.7-0.4-1.4-0.6-2.1c-0.1-0.5-0.2-1-0.7-1.3c-0.4,0.4-0.2,0.8-0.1,1.2
					c1.8,7.2,3.6,14.4,5.1,21.7c0.1,0.4,0.3,0.8,0.5,1.2C32.1,276.1,32,276.2,31.9,276.3z"/>
				<path class="st8" d="M31.9,276.3l0-0.2c0.6-0.6,0.6-1.3,0.4-2.1c-1.1-5-2.2-9.9-3.5-14.8c-0.3-1.1-0.3-2.1,0.7-2.9
					c0.5-0.5,0.8-1.1,1.2-1.6c0.6-0.8,0.9-0.8,1.5-0.1c0.3,0.4,0.6,0.8,1,1.2c1.1,1.1,2.5,1.1,3.6,0.1c0.2-0.1,0.3-0.3,0.4-0.4
					c0.5-0.5,0.7-1.3,1.4-1.5c0.8-0.2,1.1,0.7,1.7,1c0.9,0.4,1.8,0.6,2.7,0.2c1.1-0.5,1.9-0.3,2.5,0.8c0.2,0.3,0.4,0.5,0.7,0.7
					c1.1,0.6,1,1.4,0.6,2.4c-1.8,5-3.5,10-5.3,14.9c-0.3,0.8-0.4,1.6-0.4,2.4C38.1,276.3,35,276.3,31.9,276.3z"/>
				<path class="st13" d="M41.1,276.3c-0.7-0.5-0.5-1.1-0.3-1.7c2-5.4,3.9-10.8,5.8-16.2c0.2-0.6,0.1-0.8-0.4-1.3
					c-1.2-1.4-2.3-2.2-4.3-1.4c-1.2,0.4-2.3-0.5-3.1-1.7c-1.1,1.3-1.7,3-3.6,3c-2,0-2.7-1.5-3.8-2.9c-0.8,1.2-1.5,2.4-2.5,3.4
					c-0.4,0.4,0,0.8,0.1,1.1c1.3,5.3,2.6,10.6,3.7,16c0.2,0.8,0.3,1.6-0.9,1.6c-0.5-0.3-0.6-0.8-0.7-1.3c-1.5-7.4-3.3-14.7-5.2-22
					l-0.1-0.2c-0.1-0.5-0.4-1.1,0.3-1.3c0.7-0.2,0.9,0.4,1,0.9c0.3,1.2,0.7,2.5,1,3.8c1-1,1.6-2.2,2.1-3.4c0.2-0.4,0.1-0.8,0-1.2
					c-0.4-1.9-0.3-3.8,0.4-5.7c0.2-0.5,0.2-1.1,0.9-1.1c0.7,0,1.1,0.5,1.3,1.2c0.3,1.1,0,2.1-0.1,3.2c-0.1,0.5-0.1,1.1-0.3,1.5
					c-0.9,1.9,0.3,3.2,1.4,4.4c0.6,0.7,1.4,0.7,2,0c1.1-1.3,2.1-2.5,1.5-4.5c-0.6-2-0.4-4,0.7-5.8c0.2-0.4,0.4-0.8,1-0.8
					c0.5,0,0.9,0.4,1.1,0.9c0.5,1.1,0.3,2.3,0.2,3.4c-0.1,1-0.3,2.1-0.7,3c-0.4,1.2,0.2,1.8,1,2.4c0.8,0.7,1.7,0.5,2.6,0
					c0.4-0.2,0.3-0.5,0.2-0.9c-0.5-1.9-0.5-3.7,0.2-5.5c0.2-0.5,0.4-1,0.8-1.3c0.5-0.4,1-0.7,1.6-0.5c0.6,0.3,0.9,0.8,0.9,1.4
					c0.1,2.2,0.1,4.4-1.1,6.4c-0.5,0.9,0.2,1.2,0.6,1.7c0.2,0.3,0.6,0.6,0.9,0.9c0.4-1.1,0.7-2,1-3c0.2-0.5,0.2-1.1,1-0.9
					c0.7,0.2,0.5,0.8,0.3,1.3c-1.7,5.7-3.7,11.4-5.7,17c-0.7,1.9-1.4,3.8-2.1,5.7C41.7,276.2,41.4,276.3,41.1,276.3z"/>
				<path class="st14" d="M37,282.6c-2.2,0-4.5,0-6.7,0c-0.3,0-0.8,0.1-0.9-0.4c0-0.5,0.5-0.4,0.8-0.4c4.4-0.1,8.8-0.1,13.1-0.2
					c0.4,0,1-0.2,1,0.5c0,0.7-0.7,0.4-1.1,0.4C41.2,282.6,39.1,282.6,37,282.6L37,282.6z"/>
				<path class="st15" d="M36.9,280.5c-2,0-4,0-6,0c-0.5,0-1.4,0.3-1.4-0.4c0-0.6,0.9-0.3,1.4-0.3c3.5,0,7,0,10.5-0.1
					c0.7,0,1.4-0.1,2-0.1c0.4,0,0.9-0.1,0.9,0.5c0,0.6-0.5,0.4-0.8,0.4C41.3,280.5,39.1,280.5,36.9,280.5z"/>
				<path class="st3" d="M240.9,198.8c-1.3-2.4-2.4-4.8-3.3-7.4c-2.6-7.2-1.6-13.6,4.1-19.1c1.6-1.5,3-3.2,4.5-4.7
					c-1.5,0.4-2.8,1-4.2,1.5c-4.2,1.8-8.3,3.6-11.8,6.8c-4.5,4.1-6.8,9-5.7,15.2c0.7,4.3,2.8,8,5.3,11.5c1.1,1.5,1.9,3.1,2.5,4.9
					c1,3.1,0.7,6.1-1.5,8.6c-0.9,1-1.7,2.1-2.7,3.5c3.4-0.9,6.6-1.5,9.5-3c4.5-2.4,6.6-6.1,5.9-11C243,203.2,242.1,201,240.9,198.8z
					 M235.9,213.4c0.4-1.9,0.4-3.8,0-5.6c-0.6-2.6-1.8-5-3.3-7.2c-2.3-3.3-4.2-6.7-4.8-10.8c-0.5-3.6,0.6-6.7,2.9-9.4
					c0.9-1.1,1.9-2.1,3.3-3c-0.3,1.3-0.6,2.3-0.8,3.4c-0.8,4.2,0,8.2,1.3,12.1c0.9,2.7,2.2,5.2,3.5,7.7c1.1,2,2,4.2,2.1,6.5
					C240.2,209.9,238.7,212.2,235.9,213.4z"/>
				<path class="st3" d="M253.8,204.8c-0.5-2.7-1.7-5-3.2-7.3c-1.8-2.9-2.5-5.8-0.6-9c0.4-0.7,0.7-1.4,1.2-2.4
					c-1.9,0.7-3.6,1.2-5.2,1.9c-2.2,1-3.8,2.6-4.2,5.1c-0.4,2.2,0.3,4.3,1.2,6.2c0.7,1.5,1.4,3,1.9,4.6c1.5,4.5,1.4,8.7-1.7,12.5
					c-0.5,0.6-0.9,1.3-1.3,2c-0.4,0.7-0.9,1.3-1.3,1.9c3.4-1.7,7-3,9.8-5.5C253.3,212.1,254.5,208.8,253.8,204.8z M249.4,210.7
					c0-1.8,0-3.3-0.3-4.7c-0.5-2.8-1.6-5.4-2.8-8c-0.4-0.9-0.9-1.9-1-2.9c0-0.5-0.4-1.1,0.3-1.5c0.3,2.1,1.1,4.1,2.3,5.9
					c1.3,2,2.3,4,2.7,6.3C250.7,207.4,250.4,209,249.4,210.7z"/>
				<path class="st16" d="M245.5,193.6c-0.4,0.4-0.1,1-0.3,1.5c-0.4-0.7-0.2-1.4,0.1-2.1C245.7,193.1,245.5,193.4,245.5,193.6z"/>
				<path class="st17" d="M65.6,240.2c1.5-0.9,3.1-1.4,4.7-1.6c0.3,0,0.6,0.1,0.8,0.1c0.3,0.1,0.6,0.2,0.6,0.5
					c0,0.3-0.2,0.4-0.4,0.5c-0.4,0.2-0.8,0.4-1.2,0.4C68.6,240.2,67.1,240.2,65.6,240.2z"/>
				<path class="st18" d="M37.3,213.3c-0.5-1.9-0.8-3.5-0.8-5.2c0-0.5,0.1-1.3,0.8-1.3c0.7,0,0.8,0.8,0.8,1.3
					C38.1,209.8,37.8,211.5,37.3,213.3z"/>
				<path class="st19" d="M17.5,219.2c-1.6-0.6-3-1.3-4.3-2.4c-0.4-0.3-0.9-0.8-0.5-1.3c0.4-0.6,1.1-0.1,1.5,0.2
					C15.5,216.6,16.6,217.8,17.5,219.2z"/>
				<path class="st20" d="M59.4,221.1c0.8-1.5,1.9-2.7,3.2-3.7c0.4-0.3,1-0.7,1.4-0.2c0.4,0.4-0.1,0.9-0.4,1.2
					C62.4,219.6,60.9,220.4,59.4,221.1z"/>
				<path class="st20" d="M8.6,236.1c-2.1,0.2-3.8,0.4-5.6-0.1c-0.4-0.1-0.8-0.3-0.8-0.8c0.1-0.4,0.5-0.4,0.9-0.5
					c0.9-0.2,1.6,0.2,2.5,0.3C6.6,235.3,7.5,235.5,8.6,236.1z"/>
				<path class="st21" d="M412.3,254c0.9-0.5,1.9-0.6,2.7-0.8c0.7-0.2,1.1-0.4,1.2-1.2c0.1-0.9,0.4-1.7,0.7-2.8
					c0.4,1.4,0.4,2.9,1.2,3.6c0.8,0.7,2.3,0.7,3.7,1.1c-1.1,0.3-2,0.6-2.9,0.7c-0.8,0.1-1.1,0.5-1.2,1.2c-0.2,0.9-0.4,1.7-0.6,2.7
					c-0.5-0.9-0.6-1.8-0.8-2.7c-0.1-0.8-0.5-1.1-1.3-1.3C414.1,254.5,413.2,254.2,412.3,254z"/>
				<path class="st22" d="M45,251.9c-0.5-1.8-0.3-3.2,0.6-4.4C45.7,249,45.5,250.3,45,251.9z"/>
				<path class="st23" d="M39.1,248c0.1,0.4,0,0.7-0.4,1.1c-0.1-0.6-0.2-1.1,0.2-1.6C39.1,247.6,39,247.9,39.1,248z"/>
				<path class="st24" d="M39.1,248c-0.1-0.2-0.2-0.3-0.2-0.5c0-0.2,0.1-0.4,0.1-0.8C39.3,247.3,39.1,247.6,39.1,248z"/>
				<path class="st3" d="M344.5,43.6c-4.9,0-8.9,3.9-8.9,8.8c0,4.9,3.9,8.8,8.8,8.9c4.9,0.1,8.9-3.9,8.9-8.8
					C353.3,47.5,349.4,43.6,344.5,43.6z M344.4,56.2c-2.2,0-3.9-1.7-3.8-3.9c0-2.1,1.8-3.9,3.9-3.8c2.1,0,3.8,1.8,3.8,4
					C348.2,54.6,346.5,56.2,344.4,56.2z"/>
				<path class="st3" d="M360.1,100.2c-4.3,0-7.7,3.3-7.7,7.5c0,4.3,3.3,7.7,7.6,7.8c4.2,0,7.7-3.4,7.7-7.6
					C367.7,103.7,364.3,100.2,360.1,100.2z M360,111.2c-1.9,0-3.4-1.5-3.4-3.4c0-1.9,1.5-3.3,3.4-3.3c1.9,0,3.3,1.5,3.3,3.3
					C363.4,109.7,361.9,111.2,360,111.2z"/>
				<path class="st3" d="M270.9,243.7c-1.6,0-3.2,0.1-4.8,0c-1-0.1-1.1,0.3-1.1,1.2c0,4.2,0,8.3,0,12.5c0,4.2,0,8.4,0,12.6
					c0,0.8,0.2,1.1,1.1,1.1c1.6-0.1,3.3,0,4.9,0c2.7,0,4.5-1.9,4.5-4.6c0-6,0-12.1,0-18.1C275.5,245.6,273.6,243.8,270.9,243.7z
					 M271.2,265.8c0,0.8-0.3,1-1,1c-0.9,0-0.9-0.4-0.9-1.1c0-2.8,0-5.6,0-8.4c0-2.8,0-5.5,0-8.3c0-0.7,0.1-1.1,0.9-1
					c0.7,0,1,0.1,1,1C271.2,254.6,271.2,260.2,271.2,265.8z"/>
				<path class="st3" d="M313.7,93.1c-3,0-5.5,2.5-5.5,5.5c-0.1,3.1,2.4,5.6,5.5,5.6c3.2,0,5.6-2.3,5.6-5.4
					C319.3,95.5,316.9,93,313.7,93.1z M313.7,100.5c-1,0-1.8-0.8-1.9-1.8c0-1,0.9-1.9,1.9-2c1,0,1.9,0.8,1.9,1.9
					C315.6,99.7,314.8,100.5,313.7,100.5z"/>
			</g>
		</g>
	</g>
</g>
</svg>
