<?xml version="1.0" encoding="utf-8"?>
<!-- Generator: Adobe Illustrator 21.0.1, SVG Export Plug-In . SVG Version: 6.00 Build 0)  -->
<svg version="1.1" id="Layer_1" xmlns="http://www.w3.org/2000/svg" xmlns:xlink="http://www.w3.org/1999/xlink" x="0px" y="0px"
	 viewBox="0 0 177.8 69.1" style="enable-background:new 0 0 177.8 69.1;" xml:space="preserve">
<style type="text/css">
	.st0{fill:#205556;}
	.st1{fill:#3C6A6B;}
</style>
<g>
	<g>
		<g>
			<path class="st0" d="M56.9,25.5c0.4-0.6,0.6-1.1,0.7-1.7c0.1-0.6,0.1-1.2,0-1.8c0-1.2-0.3-2.3-0.9-3.4l-0.5-1.1
				c-0.1-0.3-0.2-0.5-0.3-0.8c-0.1-0.3-0.3-0.5-0.6-0.8c-0.7,0.2-1.4,0.3-2,0.5c-0.6,0.2-1.2,0.5-1.8,0.9c-0.9,0.6-1.7,1.2-2.5,1.9
				c-0.8,0.6-1.5,1.3-2.3,2c-0.9,0.9-1.3,1.9-1.3,3.1c-0.1,1.1,0,2.1,0.4,2.9c0.3,0.5,0.5,1,0.7,1.5c0.2,0.5,0.4,1,0.7,1.4
				c0.2,0.4,0.4,0.8,0.7,1.1c0.3,0.3,0.5,0.6,0.8,0.9c0.7,0.7,1.4,1.4,2.2,1.9c0.8,0.6,1.6,1.2,2.4,1.7c0.4,0.3,0.8,0.5,1.2,0.8
				c0.4,0.3,0.7,0.6,0.9,1.1l0.2,0.2c0.7,0.5,1.3,1,1.8,1.7c0.5,0.7,1,1.4,1.5,2c0.3,0.7,0.5,1.4,0.9,1.9c0.3,0.6,0.5,1.2,0.6,1.9
				c0,0.2,0,0.4,0.1,0.5c0.4,0.9,0.6,1.8,0.6,2.7c0.1,0.9,0.1,1.8,0.2,2.7c0,0.9-0.1,1.8-0.3,2.5c-0.2,0.4-0.3,0.8-0.4,1.2
				c-0.1,0.4-0.2,0.8-0.4,1.2c-0.1,0.2-0.3,0.5-0.6,0.9c-0.2,0.3-0.4,0.5-0.6,0.8c-0.2,0.3-0.5,0.5-0.7,0.8
				c-0.3,0.2-0.5,0.4-0.8,0.6c-0.3,0.2-0.6,0.4-0.8,0.5c-0.5,0.3-0.8,0.5-1,0.8c-0.4,0.6-0.9,1-1.5,1.5S53,63,52.5,63.3
				c-0.4,0.2-0.7,0.3-1.1,0.2c-0.7-0.1-1.3-0.1-1.8,0.2c-0.2,0.1-0.4,0-0.5-0.2c-0.1-0.1-0.1-0.1-0.2,0c-0.1,0-0.2,0-0.3,0
				c-1.3,0-2.6-0.2-4-0.6c-0.2-0.1-0.3-0.1-0.5-0.2c-0.2-0.1-0.3-0.2-0.5-0.3c-0.2-0.2-0.4-0.3-0.6-0.4c-0.2-0.1-0.4-0.2-0.7-0.3
				c-0.1-0.1-0.3-0.2-0.5-0.3l-2.6-2.2c-1.2-1-2-2.1-2.4-3.4L36.5,55c-0.1-0.3-0.2-0.6-0.2-0.9c-0.1-0.3,0-0.6,0.2-0.9
				c0.5-1.1,1-2.1,1.6-3.1c0.6-1,1.4-1.9,2.3-2.7c0.8-0.8,1.6-1.2,2.6-1.4c0.5-0.1,1-0.2,1.5-0.2c0.5,0,1-0.1,1.4-0.2
				c0.7,0,1.3,0.1,1.9,0.2s1.2,0.3,1.7,0.6c0.3,0.2,0.6,0.3,0.8,0.5c0.4,0.3,0.5,0.6,0.6,0.8c0,0.2-0.1,0.5-0.3,0.9
				c-0.5,0.2-1,0.2-1.6-0.1c-0.7-0.3-1.4-0.4-2.1-0.3c-0.7,0.1-1.4,0.3-2.1,0.5c-0.3,0.3-0.6,0.5-0.9,0.7c-0.3,0.2-0.5,0.4-0.8,0.7
				c-0.3,0.4-0.6,0.7-0.9,1.1c-0.3,0.4-0.5,0.7-0.8,1.1c-0.5,0.7-0.8,1.4-0.9,2.1c-0.1,0.7-0.2,1.5-0.1,2.3c0,0.3,0.1,0.6,0.4,0.8
				l1.2,1.1c0.2,0.1,0.3,0.2,0.5,0.3c0.2,0.1,0.4,0.3,0.5,0.4c0.6,0.4,1.2,0.6,2.1,0.6c2-0.2,3.6-1,4.7-2.7l1.6-2.8
				c0.3-0.4,0.5-0.8,0.6-1.3c0.2-0.4,0.4-0.9,0.6-1.3l0.5-1.4l1.1-4.4c0.1-0.7,0.1-1.4,0.1-2.1c0-0.7-0.1-1.4-0.2-2.1
				c-0.2-0.9-0.6-1.7-1.5-2.4c-0.5-0.5-1-1-1.6-1.4c-0.5-0.4-1.1-0.9-1.6-1.3l-1.7-1.3l-2.4-2.1c-0.1-0.1-0.2-0.2-0.2-0.2
				s-0.1-0.1-0.2-0.2c-0.6-0.8-1.1-1.5-1.7-2.2c-0.6-0.7-1.1-1.5-1.5-2.4l-0.2-0.5c-0.4-0.5-0.7-1-0.9-1.5c-0.3-0.5-0.5-1-0.8-1.5
				c-0.3-0.5-0.5-1-0.5-1.6c-0.1-0.4-0.1-0.7-0.2-1.1c-0.1-0.4,0-0.7,0.1-1.1c0.2-0.6,0.3-1.1,0.4-1.6c0.1-0.5,0.2-1.1,0.4-1.6
				c0.1-0.7,0.4-1.3,0.8-1.9c0.4-0.6,0.9-1.1,1.5-1.5l1.3-1.1c0.5-0.4,0.9-0.8,1.5-1.1c0.5-0.4,1-0.7,1.6-1c0.2-0.1,0.4-0.2,0.6-0.2
				c0.2,0,0.4-0.1,0.6-0.2c0.7-0.1,1.1-0.1,1.4-0.1c0.3,0,0.8,0.1,1.5,0.3l3.4,0.8c0.7,0.2,1.3,0.4,1.9,0.7c0.6,0.3,1.2,0.6,1.8,1
				l0.4,0.2c0.3,0.4,0.6,0.7,1,1c0.3,0.3,0.6,0.7,0.9,1.1c0.2,0.3,0.3,0.5,0.3,0.8c0.1,0.3,0.2,0.5,0.3,0.8l0.5,1.3
				c0.3,0.5,0.4,1,0.5,1.5c0,0.5,0,1,0,1.5c0,0.9-0.2,1.7-0.5,2.5c-0.3,0.8-0.7,1.6-1.1,2.3c-0.4,0.6-0.9,0.9-1.5,1
				c-0.6,0.1-1.2-0.2-1.7-1l-0.3-0.4L56.9,25.5z"/>
			<path class="st0" d="M95.3,26.2c0.2,0.4,0.2,0.6,0.1,0.8c-0.1,0.4-0.2,0.8-0.4,1.2c-0.2,0.4-0.3,0.8-0.5,1.2L94,30.7
				c-0.1,0.4-0.2,0.8-0.3,1.1c-0.1,0.3-0.2,0.7-0.3,1L93,34.3l-0.5,1.6c-0.1,0.4-0.2,0.8-0.3,1.1c-0.1,0.3-0.2,0.7-0.3,1.1
				c0,0.2,0,0.3-0.1,0.4c-0.4,0.5-0.5,0.9-0.5,1.5c0,0.1-0.1,0.2-0.2,0.4c-0.2,0.3-0.3,0.5-0.3,0.7c-0.1,0.2-0.1,0.4-0.2,0.7
				c-0.1,0.3-0.1,0.5-0.2,0.8c-0.1,0.3-0.2,0.5-0.3,0.8c-0.3,0.8-0.4,1.6-0.6,2.4c-0.1,0.8-0.3,1.6-0.4,2.4c0.1,0.3,0.1,0.6,0,0.9
				c-0.1,0.3-0.2,0.6-0.3,0.8c-0.1,0.6-0.2,1.2-0.3,1.8c-0.1,0.6-0.3,1.2-0.5,1.8c-0.4,1.1-0.6,2.1-0.6,3.1c-0.1,0.5-0.2,1-0.4,1.4
				c-0.2,0.4-0.3,0.9-0.4,1.3c-0.1,0.2-0.3,0.4-0.5,0.5c-0.2,0.1-0.4,0.1-0.7,0c-0.3-0.2-0.5-0.2-0.8-0.2c-0.3,0-0.6,0-1,0
				c-1.4,0-2.7-0.4-3.8-1.5c-0.5-0.5-0.8-1.2-0.9-2.1c-0.1-0.9-0.2-1.7-0.2-2.6c0-0.9,0-1.7,0-2.6c0-0.5-0.1-1-0.2-1.5
				c-0.2-0.7-0.3-1.3-0.3-2c-0.1-0.7-0.1-1.3-0.2-2.1c-0.1,0.1-0.2,0.2-0.3,0.2c-0.1,0-0.1,0.1-0.1,0.2c-0.3,0.6-0.5,1.2-0.8,1.8
				c-0.3,0.6-0.6,1.2-0.8,1.8c-0.1,0.1-0.1,0.2-0.2,0.2c-0.1,0.1-0.1,0.1-0.1,0.2c0,0.4,0,0.7-0.1,1c-0.1,0.3-0.2,0.7-0.2,1
				c-0.1,0.7-0.3,1.4-0.5,2.1c-0.3,0.6-0.5,1.1-0.6,1.8c-0.2,0.6-0.3,1.2-0.5,1.8c-0.2,0.7-0.4,1.3-0.6,1.9
				c-0.2,0.6-0.5,1.3-0.8,1.9l-0.4,0.9c-0.1,0.5-0.3,0.8-0.7,1.1c-0.4,0.3-0.8,0.4-1.3,0.3c-1.4-0.2-2.6-0.6-3.6-1.5
				c-0.3-0.2-0.5-0.4-0.6-0.6c-0.2-0.3-0.3-0.5-0.4-0.8c-0.4-0.9-0.5-1.7-0.3-2.4c0-0.1,0-0.2,0-0.3c0-0.1,0-0.3,0-0.4
				c-0.2-1-0.2-2-0.2-2.8v-0.1c-0.1-0.6-0.2-1.2-0.2-1.8c-0.1-0.6-0.1-1.2-0.2-1.8c-0.2-0.8-0.2-1.5-0.1-2c0.1-0.4,0.2-0.8,0.2-1.3
				c0-0.5,0-0.9,0.1-1.4c0.1-0.6,0.1-1.1,0.1-1.6c0-0.5,0-1.1,0-1.6c0-0.2,0-0.4,0.1-0.6c0.1-0.2,0.1-0.3,0.2-0.5
				c0.1-0.6,0.2-1.2,0.2-1.9c0-0.6,0.1-1.3,0.2-1.9c0.1-0.7,0.2-1.3,0.2-1.9c0-0.6,0-1.3,0-1.9c0.1-0.6,0.1-1.1,0-1.8
				c0-0.6,0-1.2,0-1.8c0-0.3,0-0.5,0-0.7c0-0.2,0-0.5,0-0.7c0-0.3,0-0.5,0-0.8c0-0.3,0-0.5-0.1-0.8c-0.1-0.6-0.2-1.1-0.2-1.7
				c0-0.6-0.1-1.2-0.2-1.7c-0.1-0.5-0.2-0.9-0.3-1.4c-0.1-0.5-0.2-1-0.3-1.4c-0.1-0.4,0-1,0.4-1.7c0.3,0.1,0.5,0.2,0.7,0.3
				c0.2,0.1,0.4,0.2,0.6,0.3c0.2,0.1,0.4,0.2,0.7,0.3c0.5,0.1,0.9,0.3,1.2,0.5c0.4,0.2,0.7,0.4,1.2,0.7c0.3,0.3,0.6,0.5,0.9,0.7
				c0.3,0.2,0.6,0.5,0.9,0.8c0.4,0.3,0.6,0.7,0.7,1.2c0.1,0.6,0.2,1.1,0.2,1.6c0,0.5-0.1,1-0.2,1.6c-0.1,0.6-0.2,1.2-0.2,1.8
				c0,0.6-0.1,1.2-0.1,1.8c0,0.1,0,0.2,0,0.3c0,0.1,0,0.2,0,0.3v2.6c0,0.1,0,0.2,0,0.2c0,0.1,0,0.1,0,0.2C72.1,35.6,72,36.3,72,37
				s0,1.4-0.1,2.1c0,0.5,0,1-0.1,1.5s-0.1,1-0.2,1.6l-0.2,1.7c-0.1,0.4-0.1,0.8-0.2,1.2c-0.1,0.4-0.1,0.8,0,1.2
				c-0.3,0.5-0.4,1-0.4,1.6c0,0.5-0.1,1.1-0.2,1.6c-0.1,0.5-0.1,1,0,1.5c0,0.5,0,1-0.1,1.5c-0.1,0.6-0.1,1.1,0,1.7
				c0.1,0.6,0.1,1.2,0.2,1.8c0,0.1,0,0.2,0,0.3c0,0.1,0.1,0.3,0.1,0.5c0.1-0.2,0.2-0.3,0.2-0.3c0.1-0.1,0.1-0.2,0.1-0.3
				c0.2-0.6,0.4-1.2,0.7-1.8c0-0.1,0-0.1,0-0.1c0,0,0-0.1,0-0.1c0.5-0.4,0.7-0.9,0.9-1.5c0.1-0.6,0.3-1.1,0.6-1.7
				c0.1-0.2,0.1-0.3,0-0.3c0.6-1.4,1.2-2.8,1.8-4.2s1.2-2.8,1.8-4.2c0.4-0.9,0.7-1.8,0.9-2.8c0.3-1,0.6-1.9,1-2.9l0.6,0.2
				c0.8,0.3,1.3,0.8,1.8,1.6c0.2,0.4,0.4,0.7,0.5,1.1c0.1,0.4,0.3,0.7,0.5,1.1c0.1,0.1,0.1,0.2,0.1,0.3c0,0.1,0,0.2,0,0.3
				c0,0.4,0,0.8,0.1,1.2s0.2,0.8,0.4,1.2c0.1,0.2,0.1,0.3,0.1,0.5c0,0.2,0,0.4,0,0.6l0.2,1c0.4,1,0.5,1.9,0.5,2.7
				c0,0.3,0,0.4,0.1,0.5c0.1,0.4,0.2,0.8,0.2,1.1c0.1,0.4,0.1,0.7,0.2,1.1c0,0.4,0.2,0.6,0.6,0.7c0.1-0.1,0.1-0.2,0.2-0.3
				c0.1-0.1,0.1-0.2,0-0.3c-0.1-0.4,0-0.7,0.1-1c0.1-0.3,0.2-0.6,0.3-0.9l0.2-1.2c0.1-0.1,0.2-0.2,0.2-0.2c0.2-0.4,0.3-0.7,0.4-1.1
				c0.1-0.4,0.2-0.8,0.3-1.2l0.5-0.9v-0.1c0.2-0.3,0.3-0.5,0.5-0.8c0.2-0.3,0.3-0.5,0.4-0.8c0.3-0.9,0.6-1.8,0.8-2.7
				c0.2-0.9,0.5-1.8,0.7-2.8c0-0.2,0-0.3-0.1-0.4l0.3-1.4c0.3-0.9,0.5-1.7,0.8-2.6c0.3-0.9,0.6-1.7,0.9-2.6h0.1v-0.3l0.3-0.7
				c0.1,0,0.2-0.1,0.3-0.1l0.2-1.1v-0.2l0.6-1.2l0.1-0.1v-0.1l1-1.6c0.1-0.1,0.1-0.1,0.1-0.2c0.3,0.2,0.6,0.3,0.8,0.5
				C94.9,25.7,95.1,26,95.3,26.2z"/>
			<path class="st0" d="M102.6,27.8l1.2,0.2c0.4,0.1,0.7,0.3,1,0.7c0.3,0.4,0.4,0.7,0.3,1.1c-0.2,0.9-0.4,1.8-0.6,2.7
				c-0.2,0.9-0.3,1.8-0.5,2.7c-0.1,0.5-0.2,1-0.3,1.5c-0.1,0.5-0.2,1-0.3,1.5c0,0.6,0,1.1-0.1,1.7c-0.1,0.6-0.1,1.1,0,1.7
				c0,0.5,0,1-0.1,1.5c-0.1,0.5-0.1,0.9-0.1,1.5c0,0.1,0,0.1,0,0.1c0,0,0,0.1,0,0.2c0.1,0.6,0.1,1.1,0.1,1.7c-0.1,0.6-0.1,1.1,0,1.7
				v1.5c0,0.3,0,0.5,0,0.8c0,0.3,0,0.5,0,0.8c0.1,0.2,0.2,0.3,0.2,0.4c-0.1,0.7-0.1,1.4,0,2.1c0,0.7,0,1.3,0,2c0,0.3-0.1,0.6-0.2,1
				c-0.2,0.4-0.2,0.8-0.2,1.1c0.1,0.4-0.1,0.5-0.5,0.5c-0.4,0.1-0.8,0.1-1.1-0.1c-0.3-0.2-0.6-0.4-0.9-0.6c-0.5-0.3-0.8-0.7-1-1.2
				c-0.2-0.4-0.3-0.7-0.5-1c-0.2-0.3-0.3-0.7-0.4-1c-0.3-0.9-0.5-1.8-0.7-2.8c-0.2-0.9-0.3-1.9-0.4-2.8c-0.1-0.7-0.1-1.4-0.1-2
				c0-0.6,0-1.3,0-1.9c0-0.8,0.1-1.6,0.2-2.4s0.2-1.5,0.3-2.3c0-0.1,0-0.1,0-0.2s0-0.1,0-0.2c0.1-1.1,0.3-2.2,0.6-3.2
				c0.4-1,0.7-2,1.1-3c0.3-0.7,0.5-1.3,0.8-1.9c0.3-0.6,0.7-1.2,1.1-1.8c0.1-0.2,0.2-0.3,0.3-0.6c0.1-0.2,0.2-0.5,0.3-0.7
				L102.6,27.8z M103.8,11.7c0.6-0.4,1.2-0.7,2-0.8c0.4,0,0.6,0.2,0.8,0.5c0.1,0.1,0.2,0.2,0.2,0.3s0.1,0.1,0.2,0.2
				c0.6,0.3,1,0.8,1.4,1.6c0.1,0.3,0.2,0.5,0.4,0.6s0.3,0.4,0.5,0.6c0.4,0.7,0.6,1.5,0.6,2.3c0.1,0.2,0,0.5-0.2,0.9
				c-0.3,0.6-0.8,1.1-1.4,1.4c-0.3,0.1-0.5,0.3-0.6,0.5l-1.5,2.4c-0.2,0.3-0.5,0.5-0.9,0.5c-0.6-0.1-1-0.3-1.2-0.6
				c-1.2-1.1-1.9-2.3-2.1-3.7c-0.2-0.9-0.1-1.8,0.2-2.8c0-0.3,0.1-0.5,0.2-0.6c0.3-0.4,0.5-0.8,0.7-1.3c0.2-0.4,0.3-0.9,0.4-1.3
				C103.7,12.3,103.7,12.1,103.8,11.7z"/>
			<path class="st0" d="M124.6,52.9c1,0.3,2,0.7,2.9,1.1c0.9,0.4,1.7,1,2.6,1.7l-0.1,0.5c-0.3,0-0.5,0-0.8,0c-0.3,0-0.5-0.1-0.8-0.2
				l-2.4-1.1c-0.7-0.4-1.3-0.6-1.8-0.6c-0.1,0.1-0.2,0.2-0.2,0.2c-0.8,0.6-1.6,1.5-2.3,2.8c-0.7,1.3-1.4,2.6-2.1,4
				c-0.7,1.4-1.3,2.7-1.9,3.9c-0.6,1.2-1.2,2-1.8,2.3c-0.6,0.4-1.2,0.8-1.8,1.1c-0.6,0.3-1.3,0.5-2.1,0.6c-0.2,0.1-0.5,0-0.8,0
				c-0.3-0.1-0.7-0.2-1-0.4c-0.3-0.2-0.6-0.4-0.9-0.7c-0.3-0.3-0.4-0.5-0.5-0.8c-1-1.3-1.5-2.7-1.4-4.4c0.1-1.7,0.5-3.2,1.2-4.8
				s1.6-2.9,2.7-4.1c1.1-1.2,2.2-1.9,3.3-2.3c0.1-0.1,0.2-0.1,0.4-0.1c0.6,0,1.1-0.1,1.6-0.2c0.5-0.1,1.1-0.2,1.7-0.3
				c0.3-0.4,0.4-0.7,0.5-1.1c0.1-0.4,0.2-0.8,0.3-1.2c-0.1-0.3-0.2-0.5-0.4-0.6s-0.3-0.3-0.5-0.5l-0.3-0.8l-1.9-1.8
				c-0.2-0.2-0.3-0.2-0.5-0.2c-0.2,0-0.4-0.2-0.6-0.5c-0.3-0.3-0.5-0.5-0.8-0.8c-0.3-0.3-0.6-0.4-1-0.5c-0.3-0.1-0.5-0.3-0.7-0.5
				c-0.2-0.3-0.4-0.5-0.5-0.8c-0.2-0.7-0.3-1.3-0.4-1.9c-0.1-0.6-0.1-1.2-0.2-1.8c0-0.7,0.2-1.3,0.5-1.8c0.1-0.2,0.2-0.3,0.2-0.6
				c0-0.2,0-0.4,0-0.6c0.1-0.1,0.1-0.2,0-0.2c0,0,0-0.1,0.1-0.2c0.2-0.4,0.3-0.7,0.5-1c0.2-0.3,0.4-0.7,0.6-1c0-0.1,0.1-0.2,0.2-0.3
				c0.6-0.6,0.9-1.3,0.8-2.1c0.2-0.1,0.4-0.2,0.6-0.2c0.2,0,0.4,0,0.7,0c0.2,0.1,0.4,0.1,0.6,0c0.2,0,0.4,0,0.6,0h3
				c0.6,0,1.2,0.2,1.7,0.5c0.7,0.4,1.1,0.9,1.4,1.6c0.1,0.4,0.2,0.8,0.3,1.2s0.3,0.8,0.5,1.2c0.3,0.6,0.4,1.3,0.5,2
				c0,0.3,0.1,0.6,0.1,0.9c0,0.3,0.1,0.6,0.1,0.9c0,0.4-0.1,0.8-0.2,1c-0.1,0.3-0.3,0.5-0.7,0.7c-0.2,0.1-0.4,0.2-0.6,0.3
				c-0.2,0.1-0.4,0.2-0.7,0.2c-0.4,0-0.8-0.2-1.1-0.5c-0.4-0.3-0.5-0.6-0.3-0.9c-0.1-0.1-0.1-0.1,0-0.2c0.4-0.5,0.6-1.1,0.5-1.7
				c-0.1-0.6-0.2-1.3-0.3-1.9l-0.2-0.7c-0.1-0.5-0.2-0.9-0.5-1.2c-0.3-0.3-0.6-0.7-1-1.1c-0.3,0.3-0.5,0.5-0.7,0.6
				c-0.2,0.2-0.5,0.3-0.7,0.5l-0.2,0.4l-0.9,2.4c-0.1,0.3-0.2,0.6-0.3,0.9c-0.1,0.3,0,0.7,0.1,1.1c0,0.3,0,0.4-0.1,0.5
				c-0.1,0.3-0.1,0.5-0.1,0.8c0,0.3,0.1,0.6,0.1,0.9c0.3,0.5,0.7,0.9,1.3,1.4l1.6,1.4c0.6,0.5,1.2,0.8,1.7,1.1
				c0.9,0.9,1.7,1.8,2.4,2.7c0.7,0.9,1.3,1.9,1.6,3l-0.1,0.5c-0.1,0.3-0.1,0.5-0.2,0.7s-0.1,0.4-0.2,0.7
				C124.5,52.2,124.5,52.5,124.6,52.9z M116.4,55.3c-0.2-0.1-0.3-0.1-0.3,0c-0.1,0-0.1,0.1-0.2,0.2c-0.6,0.5-1.1,0.9-1.6,1.3
				c-0.5,0.4-0.9,1-1.3,1.6c-0.6,1-1.1,2.1-1.6,3.4c-0.3,0.6-0.3,1.1-0.2,1.7l0.6,0.3c0.2-0.2,0.3-0.3,0.5-0.4
				c0.2-0.1,0.3-0.2,0.4-0.4l1.5-2.5c0.5-0.7,0.9-1.5,1.1-2.5C115.7,57.1,116,56.2,116.4,55.3z"/>
			<path class="st0" d="M128.4,1.1c0-0.2,0-0.4,0.1-0.5c1,0,1.8-0.2,2.3-0.3S131.7,0,132,0s0.6,0.4,0.8,0.8c0.2,0.5,0.5,1.3,1,2.5
				c0.6,1.3,1,2.6,1.3,3.9c0.1,0.5,0.4,0.8,1,0.8c0.4,0,0.8,0,1.3,0c0.4,0,0.9,0,1.3,0.1c0.6,0.1,1.1,0.1,1.7,0.1
				c0.6,0,1.2-0.1,1.7-0.2c0.4,0,0.8,0,1.2-0.1c0.4,0,0.8-0.1,1.2-0.2c0.5,0,1,0.2,1.5,0.6l1.5,1.3l-0.3,0.5
				c-0.4,0.2-0.9,0.3-1.5,0.3l-5.7,0.2c-0.1,0-0.2,0-0.3,0c-0.1,0-0.2,0-0.3,0c-0.1,0-0.2,0-0.2,0c-0.1,0-0.1,0-0.2,0
				c-0.5,0.1-1,0.2-1.5,0.2c-0.5,0-1,0.1-1.4,0.1c-0.2,0.3-0.2,0.5-0.2,0.6s0,0.3,0.1,0.5c0.2,1,0.3,2,0.4,3c0.1,1,0.2,1.9,0.3,2.9
				c0.1,0.6,0.2,1.2,0.2,1.8c0.1,0.6,0.1,1.2,0.2,1.8l0.2,1.5c0.1,0.3,0.1,0.5,0.2,0.8s0,0.5-0.1,0.8c-0.1,0.1-0.1,0.2-0.1,0.4
				c0.2,0.8,0.2,1.6,0.2,2.4c0,0.8,0,1.6,0.2,2.4c0.1,0.2,0.1,0.4,0.1,0.6c-0.1,0.7-0.2,1.3-0.2,1.9c0,0.6,0,1.3,0,1.9
				c0,0.7-0.2,1.5-0.5,2.2c-0.2,0.4-0.3,0.9-0.4,1.3c0,0.5,0,1,0,1.4c0,0.3,0,0.6,0,0.9c0,0.3,0,0.6,0,0.8c-0.1,0.2-0.1,0.4-0.2,0.6
				c-0.1,0.2-0.1,0.4,0,0.6c-0.2,0.6-0.2,1.1-0.2,1.7c0,0.6,0,1.1,0,1.7c0,0.3,0,0.5,0,0.8c0,0.3,0.1,0.6,0.1,0.9c0,0.1,0,0.2,0,0.3
				c0,0.1,0,0.2,0,0.3l-0.2,1.7c-0.1,0.3,0,0.6,0.1,0.9s0.1,0.5-0.1,0.8l-0.1,0.1v0.1c0.1,0.2,0.1,0.4,0.2,0.6
				c0.1,0.2,0.1,0.4,0.1,0.6c0,0.2,0,0.3,0,0.5c0,0.2-0.1,0.3-0.1,0.5c-0.3,0.3-0.6,0.4-0.9,0.5c-0.4,0.1-0.7,0-1.1-0.1
				c-1-0.2-1.8-0.6-2.6-1.1c-0.4-0.2-0.6-0.4-0.7-0.7c-0.1-0.4-0.2-0.7-0.2-1c0-0.3-0.1-0.6-0.1-1c-0.1-0.2-0.1-0.4,0-0.6
				c0-0.2,0-0.4,0-0.7c-0.1-0.3-0.1-0.5-0.1-0.8c0-0.3-0.1-0.5-0.2-0.8c-0.2-1-0.3-2-0.3-3.1c0.1-0.6,0-1.1,0-1.6
				c-0.1-0.5-0.1-1-0.2-1.6c0-0.4,0-0.8,0-1.2c0-0.4,0-0.8,0-1.2s0-0.7-0.1-0.8c0-0.5,0-0.9,0.1-1.1c0.2-0.8,0.2-1.7,0.1-2.8
				c0-0.5,0-0.9,0-1.4c0-0.5,0-0.9,0-1.5c0-0.4,0-0.8,0-1.1c0-0.4,0-0.7-0.1-1.1c-0.1-0.3-0.1-0.6,0-0.9c0.1-0.3,0.1-0.6,0-0.9
				c-0.1-0.3-0.1-0.5-0.1-0.8c0-0.3,0-0.6,0-0.9c0.1-0.4,0-0.8,0-1.2c-0.1-0.4-0.1-0.8-0.1-1.2c0-0.3,0-0.6,0-0.9
				c0-0.3,0-0.6,0.1-0.9c0.1-0.3,0-0.6-0.1-1.1c-0.1-0.3-0.1-0.6,0-0.9c0.1-0.3,0-0.5-0.1-0.8c-0.1-0.3,0-0.5,0.1-0.7
				c0.1-0.2,0.1-0.4,0-0.7c-0.1-0.2-0.1-0.4,0-0.6c0.1-0.2,0.1-0.4,0-0.7c-0.1-0.5,0-1,0-1.5c0.1-0.5,0.1-1,0-1.6l-0.2-0.2
				c-0.1,0-0.2,0-0.3,0c-0.1,0-0.3,0-0.4,0c-0.7,0.1-1.4,0.1-2.2,0c-0.7-0.1-1.5-0.3-2.3-0.5c-0.5-0.1-1-0.2-1.5-0.4
				c-0.5-0.2-1-0.4-1.5-0.6c-0.3-0.1-0.4-0.2-0.5-0.3c-0.1-0.1-0.1-0.4-0.2-0.9h0.3c0.3,0.2,0.5,0.2,0.8,0.3c0.3,0,0.5,0,0.8,0
				c0.8,0,1.5,0,2.2,0s1.4-0.1,2.1-0.3c0.4-0.1,0.7-0.2,1-0.2c0.3,0,0.6-0.1,1-0.2c0.6-0.2,0.8-0.5,0.8-1.1c0.1-1.2,0.1-2.3-0.2-3.5
				C129.1,3.2,128.8,2.1,128.4,1.1z"/>
		</g>
		<g>
			<path class="st0" d="M52.7,9.6c-0.1-0.1-0.1-0.2-0.1-0.2c0-0.2,0-0.4,0.1-0.7c0-0.2,0.1-0.5,0-0.7c0-0.1,0-0.2,0.1-0.3
				c0.1-0.1,0.1-0.2,0.2-0.4c0.2-0.3,0.4-0.6,0.6-0.9c0.2-0.3,0.4-0.6,0.6-0.9l0.4-0.5c0.1-0.2,0.2-0.3,0.3-0.4
				C55,4.4,55.1,4.2,55.3,4c0.2-0.2,0.3-0.4,0.5-0.6c0.2-0.2,0.4-0.4,0.6-0.6c0.2-0.2,0.4-0.4,0.6-0.6c0.2-0.2,0.4-0.4,0.6-0.6
				c0.2-0.2,0.4-0.4,0.6-0.6c0.2-0.2,0.4-0.4,0.7-0.5c0.2-0.1,0.5-0.2,0.8-0.3c0,0,0.1-0.1,0.2,0c0.3,0,0.7,0.1,1,0.1
				c0.3,0.1,0.6,0.2,0.8,0.5L62,1.4c0,0.2-0.1,0.4-0.4,0.5c-0.2,0.1-0.3,0.1-0.4,0.3c-0.1,0.1-0.2,0.2-0.4,0.4l-2.8,2.5
				c-0.4,0.4-0.8,0.8-1.2,1.1c-0.4,0.3-0.8,0.7-1.3,1.1c-0.4,0.3-0.7,0.6-1.1,0.9c-0.4,0.3-0.7,0.6-1.1,0.9
				c-0.1,0.1-0.2,0.2-0.3,0.3S52.8,9.5,52.7,9.6z"/>
		</g>
	</g>
	<g>
		<g>
			<g>
				<g>
					<g>
						<path class="st1" d="M152.6,64.4c0.1-0.4-0.1-0.3-0.1-0.3C152.4,64.7,152.7,64.4,152.6,64.4z"/>
						<path class="st1" d="M158.4,64.7c0,0.1,0,0.1,0,0.2c0.1-0.4,0.1-0.9,0-1.3C158.5,64,158.5,64.4,158.4,64.7z"/>
						<path class="st1" d="M158.2,58.7c-0.2,0.2-0.2,0.7-0.2,1.3c0,0.6,0.2,1.2,0.2,1.7l0,0.2l0.3,0.4c-0.1-0.6-0.3-1.3-0.3-1.9
							C158.1,59.7,158.1,59.1,158.2,58.7z"/>
						<path class="st1" d="M160.6,57.6c-0.1,0,0-0.1,0-0.1C160.6,57.5,160.6,57.5,160.6,57.6c-0.1,0-0.2,0.1-0.4,0.4
							c0.1-0.1,0.1-0.1,0.1-0.1C160.4,57.8,160.5,57.7,160.6,57.6z"/>
						<path class="st1" d="M160.3,57.9c-0.1,0.1-0.1,0.1-0.1,0.2c0,0,0,0.1,0,0.1C160.2,58.1,160.3,58,160.3,57.9
							C160.4,57.9,160.5,57.8,160.3,57.9z"/>
						<path class="st1" d="M162.4,56.5c-0.3,0.2-0.6,0.5-1,0.6c0.3,0,1.2-0.5,0.9-0.3c0.5-0.4,0.6-0.5,0.6-0.6
							C162.9,56.3,162.7,56.4,162.4,56.5z"/>
						<path class="st1" d="M162.9,55.8l-0.3,0.3C162.7,56.1,162.8,56,162.9,55.8z"/>
						<path class="st1" d="M161.7,56.8c0.4-0.2,0.7-0.5,0.9-0.7c-0.2,0.1-0.2,0-0.4,0.3C162.2,56.3,162.1,56.5,161.7,56.8z"/>
						<path class="st1" d="M161.1,57c-0.3,0-0.6,0.2-0.2-0.2c-0.5,0.3-0.5,0.5-0.5,0.5C160.4,57.4,160.7,57.2,161.1,57z"/>
						<path class="st1" d="M157.9,58.4c-0.1,0.2-0.2,0.3-0.2,0.5c0,0.2,0,0.3,0.1,0.5c0-0.1,0-0.4,0.1-0.6
							C157.9,58.6,158,58.4,157.9,58.4z"/>
						<path class="st1" d="M167,53.9C167,53.8,167,53.8,167,53.9c-0.2,0-0.2,0-0.3,0.1c-0.1,0.1-0.3,0.1-0.3,0.1l-0.6,0.4
							c0.2-0.1,0.5-0.2,0.7-0.2c0.1-0.1,0.2-0.1,0.3-0.2C166.8,54,166.8,53.9,167,53.9C166.9,53.9,167,53.9,167,53.9z"/>
						<path class="st1" d="M166.4,54.1c0.1-0.1,0.1-0.1,0.2-0.2c0-0.1,0.2-0.1,0.2-0.2l0.2-0.3c-0.2,0.1-0.3,0.3-0.3,0.2
							c0,0,0,0.1-0.1,0.1c0,0-0.1,0.1-0.1,0.1C166.4,53.9,166.4,54,166.4,54.1C166.3,54,166.3,54,166.4,54.1z"/>
						<path class="st1" d="M162.8,55.4c-0.3,0.4-0.7,0.9-1.3,1.2c0.7-0.4,1.1-1,1.5-1.4L162.8,55.4z"/>
						<path class="st1" d="M169.6,52.5l-0.4,0.3c0.2-0.2,0.4-0.4,0.7-0.6L169.6,52.5z"/>
						<path class="st1" d="M171.9,51c-0.3,0.4,0.6-0.3,0.3,0.1c0.6-0.6,0.9-1.2,1.1-1.8C173.1,49.9,172.6,50.5,171.9,51z"/>
						<path class="st1" d="M173.7,48.1c-0.1,0.5-0.2,0.8-0.3,1.2C173.5,48.9,173.6,48.7,173.7,48.1z"/>
						<path class="st1" d="M168.3,52.7c0.1,0,0.2,0,0.7-0.1l-0.4,0C168.5,52.6,168.4,52.6,168.3,52.7z"/>
						<path class="st1" d="M168.6,52.5L168.6,52.5c0.3-0.2,0.6-0.3,0.7-0.3C169.2,52.3,168.9,52.4,168.6,52.5z"/>
						<path class="st1" d="M168.2,52.7C168.2,52.7,168.2,52.7,168.2,52.7C168.2,52.7,168.2,52.7,168.2,52.7z"/>
						<path class="st1" d="M164.8,54.5c0.5-0.3,1.4-0.9,0.4-0.6C164.8,54.1,165.4,54,164.8,54.5z"/>
						<path class="st1" d="M167.7,52.7c-0.3,0.1-0.5,0.3-0.8,0.4c0,0,0.2,0,0.1,0.2C167.2,53.1,167.5,52.9,167.7,52.7z"/>
						<polygon class="st1" points="168.1,52.4 167.7,52.7 168,52.6 						"/>
						<path class="st1" d="M172.5,50c0.3-0.5,0.6-0.9,0.8-1.5c-0.3,0.6-0.7,1.2-1.1,1.7C172.1,50.2,172,50.5,172.5,50z"/>
						<path class="st1" d="M170.6,51.5C170.6,51.5,170.7,51.5,170.6,51.5C170.6,51.5,170.6,51.5,170.6,51.5z"/>
						<polygon class="st1" points="169.3,44 169.4,44 169.4,44 						"/>
						<path class="st1" d="M172,50.2c-0.4,0.3-0.5,0.5-0.7,0.8c0.3-0.2,0.5-0.5,0.8-0.8C172.1,50.1,172.1,50.1,172,50.2z"/>
						<path class="st1" d="M173.4,46c0,0.2,0.1,0.5,0.2,1C173.5,46.5,173.4,46.1,173.4,46z"/>
						<path class="st1" d="M170.8,51.4L170.8,51.4C170.9,51.4,170.9,51.4,170.8,51.4z"/>
						<path class="st1" d="M170.8,51.4c0.2-0.2,0.3-0.3,0.5-0.5c-0.2,0.2-0.4,0.4-0.6,0.5C170.7,51.5,170.8,51.4,170.8,51.4z"/>
						<path class="st1" d="M168.5,45.9c0-0.2,0.8-1,1.8-1.1c0.4-0.1,0.6-0.3,0.4-0.5c-0.2-0.2-0.7-0.4-1.2-0.3
							c0,0.1-0.1,0.1-0.9,0.8c0.2,0,0.7-0.3,1.2-0.4c0.5-0.1,0.7,0,0.3,0.1c-0.7,0.2-0.9,0.4-1.1,0.5c-0.2,0.1-0.3,0.1-0.6,0.2
							c0.6-0.1-1.2,1.1-0.8,1.3c0.3-0.2,0.6-0.4,0.9-0.7C168.5,45.8,168.2,46.1,168.5,45.9z"/>
						<path class="st1" d="M172.2,44.4c0.2,0.2,0.3,0.4,0.4,0.5c-0.2-0.3-0.4-0.6-0.7-0.9c-0.4-0.3-0.9-0.5-1.4-0.5
							c-0.5,0.1-0.8,0.2-0.9,0.3c-0.1,0.1-0.2,0.1-0.2,0.2c0.4-0.1,0.8-0.2,1.3-0.2c0.5,0,1.3,0.3,1.6,0.8
							C172.3,44.5,172.3,44.4,172.2,44.4z"/>
						<path class="st1" d="M173.4,46.9c-0.2-0.3-0.3-0.5-0.5-0.7c-0.1-0.2-0.2-0.2-0.2,0.1c0.2,0.6,0.3,0.9,0.4,1
							c0.1,0.2,0.1,0.3,0,0.8c0.2-0.7,0.1-0.9,0.1-1c0-0.1,0,0,0.1,0.2c0,0.1,0.1,0.3,0.1,0.3C173.4,47.6,173.5,47.4,173.4,46.9
							c0.2,0.6,0,1.1-0.1,1.6c0.2-0.5,0.4-1,0.3-1.5c0,0,0,0,0,0.1l0,0l0,0c0,0.1,0,0.2,0,0c0,0,0,0,0-0.1
							C173.5,47,173.4,46.9,173.4,46.9c-0.2-0.8,0-0.2,0.1,0.1c0,0,0,0,0,0l0,0c-0.1-0.6-0.3-0.8-0.4-1.1c-0.2-0.3-0.3-0.6-0.5-1
							c0.1,0.3,0.2,0.5,0.3,0.8c0.1,0.1,0.1,0.3,0.2,0.5C173.2,46.3,173.3,46.5,173.4,46.9z"/>
						<path class="st1" d="M165.8,53.1C165.9,53,165.9,53,165.8,53.1C165.9,53,165.9,53,165.8,53.1C166,52.9,166,52.9,165.8,53.1
							C165.9,53,165.9,53,165.8,53.1z"/>
						<path class="st1" d="M166.5,52.7c-0.1,0.1-0.1,0.2-0.3,0.3c0,0-0.1,0.1-0.2,0.1c0,0,0,0,0,0c-0.1,0.1-0.1,0.1-0.2,0.1l0,0
							c-0.1,0,0.1-0.1,0.1-0.2c0,0-0.1,0.1-0.1,0.1c-0.2,0.2-0.5,0.4,0.1,0.2c0,0,0,0,0.1,0c0,0,0.1-0.1,0.1-0.1
							c0.1,0,0.1-0.1,0.2-0.1c0.5-0.3,1.3-0.5,1.2-0.5C167.2,52.5,167,52.5,166.5,52.7z"/>
						<path class="st1" d="M170.5,50.9c0.5-0.3,0.9-0.7,1.2-1.2c-0.2,0.2-0.5,0.3-0.7,0.5l0.1,0C170.3,50.8,170.6,50.8,170.5,50.9z"
							/>
						<path class="st1" d="M169,44c0.1-0.1,0.1-0.2,0.2-0.3c-0.4,0.2-0.6,0.5-0.9,0.8C168.6,44.3,168.8,44.2,169,44z"/>
						<polygon class="st1" points="167.2,45.2 167.2,45 166.8,45.3 						"/>
						<path class="st1" d="M156.3,23.5l-0.3-0.7C156.1,23.2,156.2,23.4,156.3,23.5z"/>
						<path class="st1" d="M158.4,28l0-0.1C158.4,27.8,158.3,27.9,158.4,28z"/>
						<path class="st1" d="M167.6,28.6c0.2-0.3,0.5-0.3,0.3-0.4c-0.1,0-0.1,0-0.2,0C167.7,28.4,167.6,28.5,167.6,28.6z"/>
						<path class="st1" d="M168.4,8.9c0,0.1,0,0.1,0,0.2c0.1,0.1,0.1,0.1,0.2,0.2l0.1,0.1l-0.1-0.1C168.5,9.2,168.5,9.1,168.4,8.9z"
							/>
						<path class="st1" d="M167.6,9.4c-0.1-0.1-0.2-0.2-0.4-0.2C167.3,9.2,167.4,9.2,167.6,9.4z"/>
						<path class="st1" d="M155.9,23.4l0.4,0.4C156,23.1,156,23.4,155.9,23.4z"/>
						<path class="st1" d="M165,40.5c0.1,0,0.2,0,0.3,0c0.2,0,0.3,0,0.5,0c0.3,0,0.7-0.1,1-0.2c-0.5,0.2-1,0.2-1.3,0.1
							C165.2,40.5,165.1,40.5,165,40.5z"/>
						<path class="st1" d="M158.3,22.8c-0.1-0.1-0.1-0.1-0.1,0C158.2,22.9,158.2,22.9,158.3,22.8z"/>
						<path class="st1" d="M168.4,39.3c-0.1,0-0.1,0.1-0.2,0.1c-0.3,0.2-0.6,0.6-1.3,1C167.6,40.1,168.1,39.6,168.4,39.3z"/>
						<path class="st1" d="M145.5,45.9c0,0-0.1-0.1-0.1-0.1C145.4,45.8,145.4,45.8,145.5,45.9z"/>
						<path class="st1" d="M152.9,58.9c0-0.1,0-0.3-0.1-0.6c0,0.1,0,0.1,0,0.2C152.9,58.7,152.9,58.8,152.9,58.9z"/>
						<path class="st1" d="M162,48.1C162.2,48,162.1,48,162,48.1L162,48.1z"/>
						<path class="st1" d="M162.6,48.6c-0.1,0.1-0.1,0.1-0.1,0.2C162.5,48.8,162.6,48.7,162.6,48.6z"/>
						<path class="st1" d="M171.4,36.2C171.4,36.2,171.4,36.2,171.4,36.2C171.3,36.2,171.3,36.2,171.4,36.2z"/>
						<path class="st1" d="M162.2,48.1c0,0-0.1,0-0.1,0C162.1,48.1,162.1,48.1,162.2,48.1z"/>
						<path class="st1" d="M162.2,48C162.2,48,162.2,48,162.2,48C162.3,47.9,162.3,47.9,162.2,48z"/>
						<path class="st1" d="M161.9,48c0,0.1,0,0.2,0.1,0.1C162,48.1,162,48.1,161.9,48C162,48.1,161.9,48,161.9,48z"/>
						<path class="st1" d="M147.5,33.2C147.5,33.2,147.4,33.2,147.5,33.2C147.4,33.2,147.5,33.3,147.5,33.2c-0.1,0-0.1,0-0.1,0
							C147.3,33.2,147.5,33.3,147.5,33.2C147.4,33.2,147.5,33.2,147.5,33.2z"/>
						<path class="st1" d="M173,20.4C173,20.5,172.9,20.5,173,20.4C173,20.5,173,20.5,173,20.4L173,20.4z"/>
						<path class="st1" d="M174.1,19.4c-0.4,0.6-0.7,0.8-1.1,1.1l0.8,0.1C173.9,20.2,174,19.8,174.1,19.4z"/>
						<path class="st1" d="M153.5,17.1c0.1,0.1,0.2,0.2,0.2,0.3l0,0l0,0c-0.2,0-0.3,0-0.3,0.1c0,0,0,0.1,0,0.2
							c0-0.2,0.2-0.3,0.3-0.2c0,0,0,0,0.1,0.1c0.1,0.1,0.1,0.3,0.2,0.4c0.1,0.3,0.2,0.6,0.4,0.9c0.2,0.6,0.5,1,0.7,1
							c0,0.2,0.1,0.5,0.2,0.8c-0.1-0.2-0.1-0.2-0.2-0.4c0.1,0.4,0.2,0.6,0.3,0.9c0.1,0.1,0.1,0.1,0.1,0.1c0,0,0.1,0.1,0.2,0.1
							c0.2,0.2,0.5,0.5,0.7,1.3c0.2,0.8,0.4,1.6,0.1,1c0.3,0.7,0.6,1.2,0.9,1.8c0.1,0.3,0.1,0.5,0.1,0.5c0,0-0.1-0.2-0.2-0.5
							c0.2,0.4,0.4,1.1,0.7,1.6c0.3,0.5,0.5,0.7,0.7,0.9l0,0c0.2,0,0.4,0.2,0.5,0.3c0.3,0.4-0.1-0.1-0.1,0.1
							c0.2,0.1,0.4,0.3,0.9,0.3c0.3,0,0.2,0.2-0.2,0.2c-0.3,0-0.6-0.1-0.8-0.3c0.3,0.7,0.4,0.7,0.9,0.6c0.2,0,0.5-0.1,0.8-0.3
							c0.2-0.2,0.1-0.4,0.4-0.6c-0.1,0.3-0.2,0.5-0.3,0.6c0.2,0.1,0.3,0,0.5-0.1c0.3-0.2,0.6-0.6,0.8-1.3c0,0.2-0.3,0.7-0.7,0.8
							c-0.2,0.1-0.3,0.1-0.3,0c-0.1-0.1-0.1-0.2,0-0.6c0.2-0.2,0.4-0.7,0.2-1.8c0.1,0.2,0.1,0,0.1-0.3c0-0.3,0.1-0.9-0.1-1.8
							l0.3,0.3c0-0.2,0-0.3-0.1-0.4c-0.1-0.1-0.1-0.2-0.1-0.3c0.1,0,0,0,0,0l0,0l0-0.1c0.1-0.2,0.1-0.3,0.2-0.4
							c0.1-0.2,0-0.4,0.1-0.7c0.4-1.1,0.6-1.1,0.8-1c0.1-0.1,0-0.1-0.1-0.1c-0.1,0-0.1,0-0.2,0c0,0-0.1-0.1,0.1-0.3c0,0,0.1,0,0.1,0
							c0.9-0.5,1.2-0.9,1.6-1.5c0.2-0.3,0.3-0.6,0.5-0.9c0.1-0.2,0.1-0.3,0.2-0.6c0.1-0.2,0.1-0.5,0.1-0.8c0.2-0.7,0.2,0.2,0.3-0.1
							c0-0.2-0.1-0.5-0.1-0.8c0.1-0.2,0.1-0.1,0.1-0.1c0.1-0.7-0.2-0.1-0.1-1.3c-0.1-0.2,0-0.8,0.1-1.4c0.1-0.3,0.2-0.6,0.3-0.9
							l0.1-0.2c0-0.1,0.1-0.2,0.1-0.3c0-0.2,0.1-0.4,0-0.6c0.1-0.4,0.2,0.2,0.3,0.1c0-0.3,0-0.5,0-0.7c0-0.1,0-0.2-0.1-0.2
							c0-0.1-0.1-0.2-0.1-0.4c0-0.1,0-0.2,0.1-0.3c0.1-0.1,0.2-0.1,0.4-0.3c0,0,0,0,0,0c0.4,0,0.7-0.1,0.9,0c-0.3-0.1-0.3-0.2,0-0.4
							c0.1-0.1,0.3-0.2,0.6-0.2c0.3,0,0.5,0.1,0.6,0.4c0-0.4-0.2-0.7-0.4-0.8c0.2,0,0.5,0.2,0.6,0.4c0.1,0.2,0.2,0.4,0.3,0.7
							l0.1,0.5c0,0.3-0.1,0.1-0.3-0.2c0,0.1,0.1,0.2,0.1,0.3c0,0.7-0.2,0.3-0.4,0l0-0.3c0-0.1,0-0.2,0-0.3c-0.2-0.3-0.6-0.3-0.7,0
							c0.1,0,0.2,0.1,0.3,0.2c-0.1,0-0.1,0-0.1,0c0,0.1,0.1,0.1,0.2,0.2l0,0.1c-0.1,0.1-0.1,0.2-0.2,0.3l0.1,0l0,1
							c0,0.4,0,0.7,0,1.1c0.1,0.4,0.2,0.7,0.3,1.1c0.1,0.4,0.1,1,0.3,1.4c0,0.2,0.1,0.4,0.2,0.6c0.1,0.2,0.1,0.4,0.4,0.5
							c0.3,0.1,0.5-0.1,0.7-0.2c0.3-0.1,0.5-0.2,0.8-0.3c0.1,0,0.3-0.1,0.5-0.1c-0.6,0.4-0.1,0.4-0.1,0.7c-0.1,0-0.3,0-0.4,0
							c-0.2,0.1-0.5,0.1-0.8,0.2c-0.3,0.1-0.5,0.2-0.8,0.2c-0.3,0-0.5-0.3-0.6-0.6c-0.1-0.3-0.2-0.6-0.2-1.1c0,0.9-0.1,0.8-0.2,0.6
							c0.2,0.5,0.3,0.9,0.8,1.2c0.2,0.1,0.4,0,0.6,0c0.2,0,0.5-0.1,0.8-0.2c-0.1,0.1,0.1,0.1,0.4,0.1c0.2,0,0.3-0.1,0.6-0.1
							c0.2,0,0.3,0,0.5,0c-0.3-0.2,0.1-0.3,0.8-0.5c0.6-0.2,1.4-0.4,1.8-0.6c0.1,0.1,0,0.4-1.2,0.7c0.7,0,1.1-0.3,1.4-0.5
							c0.4-0.2,0.6-0.5,1-0.3c-0.2-0.1-0.3-0.1-0.4,0c0.1,0,0.3-0.1,0.4,0c0.1,0.1,0.3,0.2,0.5,0.3c0.3,0.2,0.3,0.4,0.2,0.4
							c0,0-0.1-0.1-0.1-0.1c0.1,0.1,0.2,0.2,0.3,0.4c0,0.1,0,0.2,0,0.3c0,0.1,0,0.3,0,0.4c0,0.2,0,0.3,0,0.5c0,0.1,0,0.3,0,0.4
							c0,0.3,0,0.5-0.1,0.8c-0.1,0.5-0.4,0.8-0.6,1.1c-0.2,0.2-0.5,0.5-0.5,0.6c-0.1,0,0-0.5,0.1-0.7c-0.9,1-1.4,2.1-2,3.1
							c0-0.4-1.3-0.4-0.2-1.5c-0.4,0.2-0.9,0.6-1.5,1.1c0.2-0.1,0.9,0,0.5,0.3c-1.1,0.3-0.7,0.1-2.2,0.6c0.5-0.2,0.2,0.5-0.4,1
							c0-0.1-0.4-0.4-0.2-0.6c-0.5,0.6-0.8,1.2-1,1.9c0.1-0.2,0-0.3-0.2-0.3c-0.1,0-0.4,0.2-0.5,0.3c0.1,0-0.1,0.2-0.3,0.6
							c-0.2,0.3-0.6,0.7-0.8,0.9l0.6-0.5c-0.7,0.7-0.9,1.3-1,2c-0.1,0.7,0.1,1.2,0.1,2.2c-0.1-0.1-0.2-0.2-0.4-0.1
							c-0.1,0.1-0.3,0.4-0.1,1c0.1,0.1,0.3,0.2,0.7,0.2c0.3,0,0.7-0.3,1.1-0.6c0.4-0.3,0.8-0.6,1-0.8c0.3-0.2,0.7-0.5,1.1-0.7l0.4,0
							c0.2-0.1,0.4-0.2,0.6-0.3c0.1-0.1,0.2-0.1,0.3-0.2c0.1,0,0.1-0.1,0.2-0.1c0,0.1-0.1,0.2-0.1,0.3c-0.1,0.1-0.2,0.2-0.4,0.4
							c-0.3,0.3-0.6,0.5-1,0.8c-0.4,0.3-0.7,0.5-1.3,0.9c-0.5,0.3-1.1,0.6-1.5,0.7c0.4,0,0.5,0.1,0.6,0.1c0.1,0,0.4,0,1.2-0.3
							c0.3,0,0.1,0.1-0.3,0.3c-0.2,0.1-0.4,0.2-0.7,0.3c-0.2,0.1-0.4,0.1-0.5,0.1c0.3,0,0.7-0.1,1.1-0.2l1.1-0.3l1.4-0.4
							c-0.1-0.1,0.4-0.4,0.9-0.7l0.2-0.1c0.1,0,0.2-0.1,0.2-0.2c0.2-0.1,0.3-0.2,0.4-0.3c0.2-0.2,0.2-0.4,0.2-0.4
							c-0.2,0.3-0.4,0.5-0.8,0.7c-0.3,0.2-0.5,0.3-0.7,0.4c-0.5,0.2-0.9,0.4-1.4,0.6c-0.1-0.1,0.2-0.5,0.8-0.9
							c0.3-0.2,0.6-0.4,1.1-0.7c0.2-0.1,0.4-0.3,0.6-0.5c0.1-0.2,0.2-0.3,0.4-0.4c0.2-0.1,0.2,0.1,0.2,0.3c0,0.2,0,0.3,0.1,0.4
							c0-0.1,0.1-0.3,0.4-0.3c0.2,0,0.5,0,0.6,0.1c-0.2,0-0.4,0-0.5,0.1c0.2,0.1,0.6,0.1,1.1,0.1c0.2,0,0.4,0.1,0.6,0.1
							c0.2,0.1,0.3,0.2,0.4,0.3c0.1,0.1,0.1,0.3,0,0.4c0,0.1,0,0.1,0,0.2c0,0.1,0,0.2,0.1,0.2c0.1-0.2,0.2-0.3,0.3-0.4
							c0.1-0.1,0.3-0.2,0.5-0.3c0.3-0.2,0.7-0.2,0.8,0.1c0,0.2,0,0.6,0,1.4c-0.1,0.7-0.6,1.4-0.8,1.5c-0.4,0.2-0.3-0.1-0.3-0.4
							c0-0.3-0.1-0.5-0.3-0.4c0.1,0,0,0.3-0.1,0.5c-0.3,0.2,0-0.3-0.7,0.3c0,0.3-1.6,1.4-0.2,0.5c-0.7,0.7-0.8,0.7-1.6,1.5
							c0.2,0,0.1,0.2-0.1,0.6c-0.2,0.4-0.7,0.8-1.1,1.1c0-0.1-0.2-0.1-0.3-0.1c-0.9,0.5-1.6,0.8-2.3,1.1c-0.3,0.2-0.7,0.3-1,0.5
							c-0.4,0.2-0.7,0.4-1.1,0.7c-0.2,0.1-0.9,0.4-0.7,0.1c-0.2,0.1-0.3,0.4-0.8,0.4c-0.2-0.1-0.3-0.1-0.3-0.1c0.1,0,0.2,0,0.4-0.1
							c0.3-0.1,0.5-0.2,0.2-0.2c0,0.1-0.2,0.2-0.7,0.3c-0.5,0.1-1.2,0.3-1.5,0.7c0.2,0,0.7-0.3,1.2-0.4c0.3-0.1,0.6-0.1,0.8-0.1
							c0.2-0.1,0.4-0.2,0.6-0.3c0.1,0.2-0.1,0.5-0.8,0.7c-0.3,0.1-0.6,0.2-0.9,0.3c-0.3,0.2-0.5,0.4-0.7,0.7
							c-0.3,0.6-0.4,0.7-0.5,0.7c-0.1,0-0.1-0.2-0.1-0.1c-1.2,2.7-0.4,2.6-1.5,4.6c-0.5,0.8-0.5-0.1-0.7,0c0.3-1.2,0.8-1.8,1.1-2.5
							l-0.5,0.9c0.1-0.4,0.3-1.2,0.6-1.6c-0.3,0.3-0.8,1.4-1.3,2.8c-0.2,0.7-0.4,1.4-0.4,2.2c0,0.8-0.2,1.5-0.2,2.1
							c0,0.1,0,0.4,0.3,0.4c0.2,0,0.3-0.2,0.2-0.2c-0.1,0-0.1,0-0.2,0c0,0-0.1-0.1-0.1-0.1c0-0.1,0-0.2,0-0.3
							c0.1-0.5,0.2-0.2,0.2-0.1c0,0.1,0.2,0.1,0.3,0c0.1-0.1,0,0-0.1-0.2c0.2,0.1,0.4-0.1,0.6-0.3c0.2-0.1,0.3-0.3,0.5-0.5
							c0.3-0.3,0.6-0.5,1-0.7c0.1,0.1,0.2,0.1,0.3,0.1c-0.1,0-0.6,0.2-0.9,0.5c0.2-0.2,0.4-0.2,0.9-0.5c0.5-0.2,0.9-0.5,1.1-0.8
							l-0.9,0.4c0.3-0.3,0.7-0.7,1.3-1.1c0.5-0.4,1.1-0.7,1.6-0.8c-0.6,0-0.1,0.1-1.1,0.2c0.4,0-0.3,0.3-1,0.8
							c-0.7,0.4-1.2,0.8-0.6,0.6c-0.2,0-0.4,0.1-0.6,0.2c-0.2,0.1-0.4,0.2-0.4,0.2c-0.1,0-0.3,0.1-0.4,0c0,0.1,0.1,0.2-0.2,0.3
							c0,0-0.1,0.1-0.1,0.2c0,0,0,0,0,0l0,0c0,0,0,0,0,0c0,0,0.1,0,0.1,0.1c-0.1,0.2-0.4,0.5-0.7,0.6c-0.1,0-0.1,0-0.1-0.1
							c0-0.1,0-0.1,0-0.2c0-0.1,0-0.2,0-0.3c0.1-0.4,0.1,0,0.2-0.3c0-0.1-0.1-0.2-0.1-0.3c0.1-0.1,0.2-0.3,0.3-0.4
							c0.1-0.1,0.1-0.1,0.2,0.1c0-0.2,0-0.2,0-0.5c0.2-0.5,0.6-1.4,0.7-2c0.2-0.5,0.4-1.4,0.3-0.9l0.7-1.9l0.1,0
							c0.1-0.2,0.2-0.4,0.3-0.7c0.1-0.2,0.2-0.4,0.2-0.5c0.2-0.3,0.2-0.4,0.5-0.5c0.1,0,0.3-0.1,0.5-0.1c0.3,0,0.7,0,1.1-0.1
							c0.8-0.2,1.4-0.7,1.8-0.9c0.2-0.2,0.4-0.4,0.6-0.5c0.3-0.2,0.7-0.4,1.2-0.6l0.3,0.1c0.7-0.5,2.4-1,2.6-1.4
							c0.3,0,0.7-0.2,1.2-0.6c0.5-0.3,0.9-0.8,1.2-1.1c0.2-0.2,0.3-0.3,0.5-0.5l0.3-0.2c0.1-0.1,0.2-0.2,0.3-0.3
							c0.5-0.4,1-1,1.3-1.6l-0.2-0.2c0.3-0.8,0.2-1.6,0.1-2.1c0-0.1,0-0.3-0.1-0.4c0-0.2-0.1-0.4-0.2-0.6c-0.2-0.4-0.4-0.8-0.9-1.1
							l0,0.2c-0.3-0.2-0.8-0.4-1.1-0.6c-0.4-0.1-0.7-0.3-1.1-0.4c-0.4-0.1-1-0.3-1.7-0.2c-0.3,0.1-0.6,0.2-0.9,0.4
							c-0.2,0.2-0.5,0.5-0.6,0.6c-0.1,0,0.4-0.6,0.9-0.8c-0.2,0.1-0.4,0.2-0.5,0.3c-0.2,0.1-0.3,0.3-0.4,0.4
							c-0.1,0.1-0.1,0.1-0.3,0.2c-0.4,0.2-0.9,0.4-1.3,0.6c-0.4,0.2-0.7,0.3-1.1,0.5c-0.2,0.1-0.5,0.2-0.6,0.1
							c-0.3,0-0.2-0.2-0.2-0.4c0,0,0,0,0,0c0,0,0-0.1,0-0.1c0-0.1,0.1-0.2,0.1-0.3c-0.1,0.1-0.1,0.2-0.1,0.3c0-0.1,0-0.4,0-0.6
							c0.1,0,0.2,0,0.3,0l0,0c0.1-0.1,0-0.2-0.2-0.1c0-0.1,0.1-0.3,0.2-0.5c0.5-0.1,0.8-1.1,1.5-1.5c0-0.1,0.1-0.3,0.2-0.6
							c0.1-0.2,0.2-0.5,0.3-0.7c0.3-0.4,0.7-0.8,0.7-1.1c0,0,0.2,0,0,0.1c0.5-0.3,1-0.4,1.5-0.8c0.1,0,0.2,0.1,0.4,0.1
							c0.4-0.4,0.7-0.7,0.9-1.1c0.7-0.4,1.1-0.5,0.6,0.2c1.3-1.4,1.1-1.1,2.2-2.2l0,0.2c0.2-0.1,0.7-0.5,0.9-0.8
							c0.2-0.3,0.4-0.7,0.5-0.8c0.2-0.3,0.5-1,0.5-1.8c0-0.5,0-0.7-0.1-1.2c0-0.6-0.3-1.2-0.9-1.6c-0.4-0.3-1-0.8-1.7-0.8
							c-0.3,0-0.7,0.1-1,0.2l-0.7,0.2c-0.9,0.3-1.7,0.4-2.6,0.5c0.4,0.2-0.1,0.2-0.3,0.2c-0.3,0-0.4,0-0.6,0.3
							c0-0.1-0.1-0.2,0.2-0.4c-0.1,0.1-0.2,0-0.2-0.1c0-0.1,0-0.1,0-0.2c0-0.1,0-0.3,0-0.4c0-0.1,0-0.8-0.2-1.4
							c0.1-0.2,0.2,0.4,0.3,0.2c0-0.1-0.1-0.6-0.1-0.7c0.1-0.2,0.1,0.3,0.2,0.5c-0.1-1.8-0.6-2-1-2c0-0.3,0-0.7-0.1-1
							c-0.1-0.5-0.4-0.9-0.9-1c-0.1-0.1-0.4-0.2-0.4-0.3c0,0,0,0,0.2,0c0.1,0,0.4,0,0.6,0.3c-0.1-0.2-0.6-0.4-1.1-0.4
							c-0.3,0-0.6,0.1-0.9,0.1c-0.4,0.1-0.5,0.1-0.9,0.2c-0.6,0.1-1,0.2-1.2,0.5c-0.2,0.3-0.2,0.6-0.2,0.6c-0.2,0.2-0.1,1.1-0.1,1.3
							c0,0.6-0.1,0.9-0.2,1.2c-0.1,0.4-0.3,0.8-0.3,1.5c0-0.1,0-0.3,0.1-0.4c0.3,0.6,0.1,1.2,0,2.2l0,0c-0.2,0.5-0.3,0.9-0.4,1.2
							c-0.1,0.3-0.1,0.4-0.1,0.6c0,0.4,0.1,0.4-0.6,1.3l0.2,0c0.1,0.1,0,0.4-0.3,0.6c-0.2,0.3-0.7,0.6-1,0.7
							c-0.6,0.1-1.1,0.8-1.2,1.3c0.1-0.2,0.2-0.4,0.4-0.5c-0.2,0.5-0.4,1-0.8,1.4c-0.3,0.5-0.7,0.5-0.9,0.9c0,0,0,0,0-0.1
							c-0.1,0,0.3-0.5,0.2-0.4c0,0-0.2,0.3-0.3,0.3c0,0-0.1,0.1-0.1,0.1c0,0,0,0.1,0,0.1c0,0.1,0.1,0.1,0.1,0.1
							c0.1,0.1,0.2,0.2,0.3,0.6c-0.1-0.1-0.4-0.6-0.3-0.3c0,0,0.1,0.4,0.1,1c0,0.3,0.2,0.7,0,0.8c-0.2,0.1-0.4,0.1-0.5-0.3
							c0,0.2,0.1,0.5,0.2,0.7c0,0.2,0,0.4-0.1,0.3c-0.2-0.2-0.3-1-0.4-1.4c-0.1-0.5-0.3-0.7-0.5-0.7c0-0.1,0-0.2,0-0.2
							c-0.1-0.1-0.1-0.2-0.2-0.3c-0.1-0.2-0.1-0.2-0.3-0.6c-0.2-0.6-0.5-1.1-0.7-1.3c0-0.1,0-0.2,0-0.4c0-0.2-0.1-0.2-0.1-0.4
							c-0.1-0.3-0.3-0.7-0.5-1.2c-0.2-0.4-0.4-0.9-0.6-1.3c-0.1-0.2-0.2-0.4-0.3-0.6c-0.1-0.2-0.2-0.4-0.3-0.6
							c-0.2-0.3-0.4-0.5-0.3-0.7c-0.5-0.4-1.1-0.5-1.8-0.4c-0.3,0-0.6,0.1-0.9,0.2c-0.3,0.1-0.5,0.3-0.8,0.6l0-0.1
							c-0.3,0.3-0.4,0.7-0.5,0.9c-0.1,0.3-0.1,0.5-0.1,0.7c0,0.4,0.1,0.7,0.2,0.9c0.2,0.5,0.4,0.7,0.6,1c0.2,0.4,0,0.2-0.1,0.1
							c0.1,0.3,0.4,0.6,0.5,0.8c0,0.1,0,0.1,0.1,0.2c0,0.1,0.1,0.2,0.1,0.2c0.2,0.3,0.3,0.6,0.4,0.8c0.3,0.5,0.6,1,1.1,1.8l-0.1,0.3
							c0.3,0.4,0.9,3.3,1.9,5.3c0,0-0.1,0-0.2-0.2c0.2,0.5,0.4,1.1,0.6,1.7c0.1,0.3,0.2,0.6,0.2,0.9c0,0.1,0.1,0.3,0.1,0.4l0,0
							c0,0-0.1,0,0.4,0l0.3,0l0.1,0l0.1,0c-0.4,0,0.8,0-0.8,0l0,0l0,0.1c0,0.2,0,0.3,0,0.4c0.1,0.8,0.3,1.3,0.4,1.7
							c0.1,0.4,0.2,0.8,0.3,0.9c0,0.1,0.1,0.2,0.2,0.3c0,0.3-0.4,0.8-0.8,1.4c0.4-0.6,0.6-0.7,0.7-0.7c0.1,0,0.1,0,0,0.2
							c-0.1,0.2-0.3,0.6,0.1,0.3c-0.1,0.2-0.3,0.4-0.4,0.6c-0.1,0.2-0.2,0.4-0.2,0.6c-0.1,0.3-0.2,0.3-0.2-0.2c0,0,0-0.1,0.1-0.2
							c-0.4-0.2-0.2,1-0.4,1.5c0,0.1-0.1,0.1-0.2,0c0,0.1-0.1,0.3-0.2,0.4c-0.1,0.1-0.3,0-0.4-0.1c-0.2-0.2-0.3-0.4-0.5-0.6
							c-0.2-0.2-0.4-0.4-0.5-0.6l-0.7-1c-0.5-0.7-1-1.5-1.5-2.2l-0.8-1.1l-0.4-0.5l-0.2-0.3c-0.1-0.1-0.2-0.2-0.3-0.4
							c-0.3-0.3-0.8-0.5-1.2-0.6c-0.2,0-0.5,0-0.7,0c-0.2,0-0.4,0-0.6,0.1c0.2,0.1,0.4,0.1,0.6,0.2c-0.6,0.1-1.1,0.2-1.7,0.4
							c-0.3,0.1-0.6,0.4-0.5,0.2c0,0,0.1-0.2,0.3-0.4c0.2-0.2,0.4-0.2,0.7-0.3c-0.1,0-0.2,0-0.3,0c-0.1,0-0.2,0-0.4,0.2
							c-0.1,0.1-0.3,0.2-0.5,0.4c-0.2,0.2-0.3,0.5-0.3,0.7c0,0.5,0.1,0.7,0.2,0.8c0.1,0.1,0.2,0.2,0.2,0.2c0.2,0.5,0.3,0.7,0.3,0.7
							c0,0-0.1,0-0.3-0.2c-0.1-0.1-0.3-0.4-0.4-0.5c-0.1-0.2-0.1-0.3-0.1,0c0.2,0.4,0.3,0.6,0.5,0.9l-0.1-0.2
							c0.2,0.3,0.4,0.4,0.5,0.5c0,0,0,0.1,0.1,0.1c0,0.1,0,0,0.1,0.1c0.1,0.4,0.3,0.7,0.6,1c0.7,0.7,0.2,0.5,0.5,0.7
							c0,0,0.1,0.1,0.4,0.3c0.1,0.1,0.2,0.1,0.2,0.2c0,0,0,0.1,0.1,0l0.2-0.1c0,0,0.1,0,0.1,0l0,0l0,0l0,0c0.4-0.1-0.5,0.2-0.4,0.1
							l0,0l0,0l0,0l0,0c0.2,0.6,0.4,0.8,0.7,1c-0.1-0.3-0.2-0.5-0.3-0.9c0.3,0.4,0.6,0.7,0.8,0.9c0.2,0.2,0.2,0.1,0-0.3
							c0.2,0.6,1.4,1.9,2.5,3c0.6,0.6,1.1,1.1,1.5,1.6c0.2,0.2,0.4,0.4,0.6,0.6c0.1,0.1,0.1,0.2,0.2,0.2c0,0,0.1,0.1,0.1,0.1
							l0.2,0.1c0,0.1,0.1,0.2,0.1,0.2c0,0.1,0.1,0.5,0.1,0.8c0.1,0.6,0.1,1.2,0,1.8c0-0.1,0.1-0.3,0.2-0.2c0.1,0,0.2,0.4,0,0.7
							c-0.1-0.1-0.2-0.1-0.3-0.1c0,0,0,0-0.1,0c0,0-0.1,0,0,0c0.1,0.1,0.1,0.2,0.1,0.2c0,0,0,0,0,0l0,0l0,0l0,0l0,0l0,0l0,0
							c0.1-0.2-0.3,0.5,0.3-0.5l0,0l0,0l-1.1,0.5c-0.1,0.7-0.1,1.9-0.3,1.9c0.1-0.1,0.1,0,0.1,0.1c0,0.1,0,0.4,0,0.6
							c-0.1,0.4-0.5,0.8,0,0.8c-0.2,0.2-0.3,0.1-0.3,0c0-0.1,0-0.2-0.3-0.3c0,0,0,0,0,0c-0.3,0-0.6-0.4-0.8-0.7
							c-0.2-0.3-0.3-0.5-0.5-0.8c-0.3-0.3-0.4-0.7-1-1.1c-0.3-0.3-0.7-0.7-1.1-1.1c-0.4-0.4-0.8-0.8-1.2-1.2c-0.1,0,0.2,0.4-0.4,0.1
							l-0.8-1.3c-0.2-0.2-0.4-0.2-0.6-0.3c-0.1,0-0.2-0.1-0.3-0.2c-0.1-0.1-0.1-0.1-0.2-0.2c-0.2-0.1-0.3-0.3-0.6-0.4
							c0.1,0.1,0.3,0.2,0.3,0.2c0,0.1-0.1,0-0.4,0c-0.6-0.1-1.2,0-1.6,0.4c-0.4,0.4-0.7,1.1-0.5,1.6c0.1,0.5,0.3,0.9,0.5,1.2
							c0.2,0.3,0.5,0.7,0.7,0.9l0,0c0,0,0,0,0,0.1l0.8,1.3c0.3,0.5,0.5,0.9,0.7,1.4c0.4,0.7,0.9,1,1.2,1.4l1.2,1.1
							c0.8,0.7,1.6,1.5,2.3,2.2c0.3,0.4,0.7,0.8,0.9,1.1c0.2,0.4,0.3,0.8,0.4,1.2c-0.1-0.6,0.1-0.3,0.2,0.2c0-0.3,0.2,0,0.3-0.1
							c0,0.2,0,0.4,0,0.5c0,0.1,0,0.3-0.1,0.5l-0.2,1.2c0.3,0.4,0,2.6,0.3,2.8l-0.1-0.8c0.3,1,0.8-1.4,1.2-1.3
							c-0.2-0.6-0.1-1.3,0.1-2.1c0-0.2,0.1-0.6,0-0.8c0-0.2-0.1-0.5-0.1-0.7c-0.1-0.5-0.4-1-0.8-1.3c-0.2-0.4,0.3,0.3,0.3,0
							c-0.2-0.2-0.5-0.4-0.7-0.7c-0.3-0.2-0.5-0.5-0.9-0.9l0.1,0.1c-1.1-1-1.9-1.7-2.6-2.5c-0.4-0.4-0.8-0.8-1.2-1.2
							c-0.1-0.1-0.2-0.2-0.3-0.3c-0.1-0.1-0.1-0.1-0.1-0.2l0-0.1l-0.1-0.2c0-0.1-0.1-0.2-0.1-0.3c-0.1-0.2-0.2-0.4-0.3-0.6l-0.1,0.3
							c-0.3-0.7-0.3-0.8-0.4-1.1c-0.7-0.6,1,1.8,0.3,1.3c0-0.5-0.4-1.3-1-2.2l-0.1-0.1l-0.1-0.1c-0.4-0.5-0.8-1-0.8-1.4
							c0-0.3,0.1-0.2,0.2-0.1c0,0,0-0.1,0-0.1c0,0-0.1-0.1,0-0.1c0,0,0,0.1,0,0.1c0-0.1,0-0.1,0-0.1c0,0,0,0,0,0c0,0.1,0,0.1,0,0.1
							c0,0.1,0.1,0.1,0.1,0.2c0.1,0.1,0.1,0.2,0.2,0.3c0.1,0.2,0.1,0.3,0.1,0.3c-0.1-0.1-0.4-0.3-0.5-0.4c0.5,0.7,1.9,1.8,2.1,2
							l-0.7-0.8c0.5,0.4,1,0.9,1.5,1.4c0.3,0.2,0.5,0.5,0.8,0.7c0.3,0.2,0.5,0.5,0.9,0.8c0.1,0.1,0.4,0.4,0.6,0.7
							c0.3,0.4,0.6,0.8,0.9,1.1c0.4,0.5,0.8,0.9,1.1,1.2c0.4,0.3,0.7,0.4,1.2,0.4c0.4-0.1,0.7-0.3,1-0.5c-0.1,0-0.2,0.1-0.2,0.1
							c0.5-0.5,0.7-0.9,0.8-1.3c0.2-0.4,0.2-0.6,0.3-0.9c0.1-0.3,0.1-0.6,0.1-1.1c0-0.4,0-0.8,0-1.4l0,0.1c0-0.1,0-0.2-0.1-0.4
							l-1.1,0.6c0.4,0.3,0.8,0.2,1.1,0c0.2-0.2,0.4-0.3,0.5-0.5c0.1-0.2,0.2-0.3,0.2-0.5c0-0.2,0.1-0.3,0.1-0.5c0,0.4,0.1,0,0.2-0.3
							c0.1-0.3,0.1-0.6,0.2-0.1c-0.1-1.3-0.2-1.6-0.2-1.8c-0.1-0.2-0.2-0.2-0.4-1.2c0-0.2-0.1-0.3-0.1-0.4c-0.3-0.2-0.5-0.3-0.6-0.4
							c-0.2-0.1-0.4-0.3-0.9-0.8c0.8,0.6-0.4-0.7,0.6-0.1c-1.5-2.1-2.9-2.4-3.3-3.6c-1.1-0.5,1.3,1.7,0.8,1.3c0.3,0.5-0.9-0.4-1.4-1
							c-0.3-0.3-0.4-0.7-0.6-1.1c0-0.1-0.1-0.2-0.1-0.3c0,0,0-0.1,0-0.1l0,0c0,0,0,0-0.1,0l0,0l0,0l0,0l0,0c0.3-0.1,0.1,0,0.2-0.1
							l0,0c0-0.1-0.1-0.2-0.1-0.3c-0.3-0.6-0.8-0.8-1.1-1.1c0.2,0.1,0.2,0.1,0.4,0.2c-0.3-0.3-0.6-0.4-0.8-0.6l-0.1-0.1
							c0,0,0,0-0.1,0l0,0l0,0l0,0l0,0l0,0c0,0,0.1,0,0.1,0l0,0l0-0.1l0-0.1c0-0.1,0-0.2-0.1-0.2c0-0.1-0.1-0.3-0.1-0.4
							c-0.6-0.4-0.5-1-0.9-1c0.1,0.2,0.2,0.4,0.4,0.7c0.2,0.3,0.4,0.5,0.5,1c-0.3-0.7-0.7-1-1-1.5c-0.1-0.2-0.2-0.4-0.1-0.5
							c0.1-0.1,0.2-0.1,0.4-0.2c0.2-0.1,0.4-0.1,0.6-0.1c-0.1,0.1-0.5,0.3-0.8,0.5c0.4-0.1,0.8-0.4,1.2-0.3c0,0.2-0.4,0.2-1,0.4
							l-0.1,0c0,0,0,0,0,0c0,0,0,0-0.1-0.1c0,0,0-0.1,0-0.1c0,0-0.1-0.1-0.1-0.1c0,0-0.1,0,0,0c0,0,0.1,0,0.1,0c0.1,0,0.2,0,0.2,0
							c0,0,0,0,0,0c0,0.1,0.2,0.4,0.4,0.6c0-0.1-0.1-0.3-0.2-0.5l-0.1-0.2c0,0,0,0,0,0c0,0,0,0,0,0c0,0-0.1,0-0.1,0c0,0-0.1,0-0.1,0
							c0,0-0.1,0-0.1,0c0,0,0,0,0,0c0,0-0.1,0,0,0c0,0,0,0,0,0c0,0,0.1,0,0.1,0.1c0.1,0.1,0.1,0.1-0.1-0.1c0.1,0,0.1,0.1,0.1,0.1
							c0,0,0.2,0.3,0.1,0.2c0,0,0,0,0-0.1c0,0,0.1-0.1,0.1-0.1c0.2-0.1,0.3-0.1,0.5-0.2c0.2,0,0.3,0,0.4,0c0.1,0,0.3,0.1,0.4,0.1
							c0.1,0,0.1,0,0.2,0.1c-0.1,0-0.1,0-0.2,0.1c0.1,0.1,0.5,0.4,0.7,0.7l-0.7-0.4c0.9,0.7,1.1,1.8,1.9,2.6
							c-1.3-1.8-0.1-0.6-0.5-1.4c1,1,1,1.4,1.2,1.9c0.1,0.2,0.1,0.5,0.3,0.8c0.1,0.2,0.2,0.4,0.4,0.6c0.1,0.1,0.5,0.7,1,1.1
							c-0.1-0.1-0.3-0.3-0.5-0.5l-0.2-0.3c-0.1-0.1-0.1-0.1-0.1-0.2c-0.1-0.2-0.2-0.4,0.1-0.1c0,0.1,0.1,0.1,0.1,0.2
							c0.1,0.1,0.1,0.2,0.2,0.3c0.2,0.2,0.3,0.4,0.5,0.6c0.3,0.5,0.6,0.9,0.8,1.2c0.6,0.6,0.8,0.6,0.9,0.6c0.1,0,0-0.1-0.1-0.2
							c-0.2-0.2-0.6-0.7-0.2-0.4c0.3,0.4,0.5,0.5,0.8,0.5c0.1,0,0.2,0,0.4,0c0.2,0,0.4-0.1,0.5-0.3l0.1,0.2c0.3-0.2,0.4-0.5,0.5-0.7
							c0.2-0.6,0.1-0.8,0.1-1c-0.1-0.3,0-0.5,0.1-1.7c0.1,0.5,0.2,1,0.2,1.5c0.1-0.5,0.1-1.1,0-1.7c0.1,0.1,0.2,0.3,0.2,0.4
							c0-0.1,0-0.3,0-0.4c0-0.1,0-0.3,0-0.2c0,0,0,0,0-0.1c0-0.1,0.1-0.2,0.2-0.3c0.1-0.2,0.3-0.3,0.4-0.5c0.2-0.2,0.4-0.5,0.6-1
							c-0.2,0.2-0.2,0-0.2-0.5c0-0.3-0.1-0.7-0.2-1.1c-0.1-0.8,0.3,0.3-0.1-1.2c0.2,0.3,0.5,0.6,0.5,1.4c0.1,0.1,0.2,0.4,0.3,0.5
							c0.1-1.2-0.5-2.2-0.6-2.7c0,0.2,0.1,0.4,0.1,0.5c-0.1-0.3-0.3-0.7-0.4-0.7c-0.1-0.6-0.3-0.9-0.5-1.2c0-0.4,0.1-0.1,0.3,0.1
							c-0.2-0.4-0.3-0.7-0.6-1.3c0.2,0.1,0.4,0,0.8,0.9c-0.3-0.7-0.6-1.3-0.9-1.9c0-0.2-0.2-1.1,0-0.8c-0.3-1.1-1.3-2.5-1.7-4
							c-0.1-0.1-0.1-0.2-0.3-0.5c-0.2-0.7-0.4-1.3-0.7-2c-0.1-0.3-0.3-0.7-0.5-1c-0.1-0.2-0.2-0.4-0.3-0.6c-0.1-0.1-0.2-0.3-0.3-0.4
							l-0.1-0.1l0,0l-0.1-0.1c0-0.2,0-0.5,0-0.7c-0.2-0.4-0.2-0.2-0.3,0c0,0.2-0.2,0.3-0.4-0.4c-0.1-0.5,0-0.5,0.1-0.5
							c0,0,0.1,0,0.1,0l0.1,0c0,0,0,0,0,0c0,0-0.1,0-0.2-0.1c-0.1,0-0.3-0.1-0.4-0.2c0.5,0.4,0.3,0.3,0.4,0.3c0-0.1,0.1-0.2,0.2-0.2
							c0.2-0.1,0.6-0.1,0.6,0.2c0,0,0,0.1,0,0.1l-0.1-0.1C153.7,17.2,153.7,17.1,153.5,17.1z M161.1,27.5c-0.1,0.4-0.2,0.9-0.3,0.9
							C160.7,27.8,160.8,27.8,161.1,27.5z M168.3,11.3c-0.1-0.2-0.1-0.6-0.1-1C168.3,10.6,168.4,10.9,168.3,11.3z M162.1,46.1
							L162.1,46.1C162.3,45.5,162.2,45.7,162.1,46.1z M161.7,47.2C161.8,47.2,161.8,47.2,161.7,47.2c0,0,0-0.1,0.1-0.4
							C161.8,46.8,161.7,47,161.7,47.2z M148.2,37.2l-0.2-0.2C148.6,37.3,148.4,37.2,148.2,37.2z"/>
						<path class="st1" d="M167.7,9.3c0-0.1,0-0.1,0-0.2C167.6,9.1,167.6,9.2,167.7,9.3z"/>
						<path class="st1" d="M155.8,23.3L155.8,23.3C155.9,23.4,155.9,23.4,155.8,23.3L155.8,23.3z"/>
						<path class="st1" d="M175.2,32c0.2-0.1,0.2-0.2,0.3-0.2C175.4,31.8,175.4,31.8,175.2,32z"/>
						<path class="st1" d="M163.8,46.8l-0.7,0.6c0.4-0.3,0.5-0.3,0.7-0.4C163.8,46.9,163.6,46.9,163.8,46.8z"/>
						<path class="st1" d="M171.6,45.3c0.1,0.1,0.1,0.2,0.2,0.4l0.1-0.1c-0.1-0.3-0.3-0.5-0.4-0.5C171.4,45,171.5,45.1,171.6,45.3z"
							/>
						<path class="st1" d="M165,46.9c0.2,0.1,0.7-0.2,1.3-0.5l-0.1,0C166.2,46.1,165.6,46.4,165,46.9z"/>
						<path class="st1" d="M166.4,46.3c0.2-0.1,0.3-0.2,0.5-0.3C166.9,45.9,166.7,46.1,166.4,46.3z"/>
						<path class="st1" d="M161.8,47.9c-0.1,0.2,0.2-0.2,0.2-0.1c0.1-0.1,0.1-0.1,0-0.2C161.9,47.6,161.8,47.6,161.8,47.9z"/>
						<path class="st1" d="M165.8,47.2l-0.3-0.1l-0.2,0.3C165.4,47.3,165.6,47.2,165.8,47.2z"/>
						<path class="st1" d="M161.6,49.7l0.8-0.4c0,0,0.1-0.1,0.2-0.2C162.1,49.3,161.6,49.6,161.6,49.7z"/>
						<path class="st1" d="M162.6,49c0.2-0.2,0.5-0.3,0.6-0.5C163,48.6,162.8,48.8,162.6,49z"/>
						<polygon class="st1" points="164.6,47.9 164.3,48.1 163.7,48.5 						"/>
						<path class="st1" d="M163.4,40.6c0.2-0.3,0.4-0.6,0.7-0.8c0.1-0.1-0.3,0-0.5,0.3C163.5,40.3,163.3,40.7,163.4,40.6z"/>
						<path class="st1" d="M161.5,43.5c0.2-0.3,0.2-0.3,0.4-0.4l-0.2-0.1L161.5,43.5z"/>
						<path class="st1" d="M162.8,40.4c-0.1-0.1,1.1-1.7-0.1-0.3C162.7,40.2,162.2,41.4,162.8,40.4z"/>
						<path class="st1" d="M176.3,31c0,0.1,0,0.2,0,0.3l0.5,0C176.6,31.2,176.4,31.1,176.3,31z"/>
						<path class="st1" d="M165.3,27.8c-0.3,1.1-0.1,1.2-0.1,1.3c0.1,0.1,0.1,0.2,0.1,1.1c0.1,0.2,0-0.2,0.1-0.5
							c0-0.4,0.1-0.7,0.1-0.5C165.4,28,165.8,27.3,165.3,27.8z"/>
						<path class="st1" d="M165.5,29.1c0,0.2,0,0.4,0.1,0.6C165.5,29.4,165.5,29.2,165.5,29.1z"/>
						<polygon class="st1" points="152.7,62 152.6,62.9 152.7,62.3 						"/>
						<path class="st1" d="M153,63.7l-0.3,0.2l0.3,0.5C153,64.2,152.9,63.8,153,63.7z"/>
						<path class="st1" d="M162,25.5l-0.1-0.2c-0.1,0.2-0.2,0.4-0.1,1C161.8,26,161.9,25.8,162,25.5z"/>
						<polygon class="st1" points="155.6,22.3 155.6,22.5 155.7,22.1 						"/>
						<path class="st1" d="M153.6,17.3C153.6,17.3,153.6,17.3,153.6,17.3c0-0.1,0-0.1,0-0.1c0,0-0.2,0-0.3-0.1
							c-0.1,0-0.2-0.1-0.3-0.1c-0.1,0-0.2-0.1-0.2-0.1c0,0,0,0-0.1,0l0,0l0,0l0,0l0,0l0,0c-0.2-0.2,0.3,0.3,0.3,0.2l0,0l0,0l0,0
							c0.1,0.1,0.1,0.1,0.2,0.2c0-0.1-0.1-0.1-0.2-0.2l0,0l-0.3-0.2l0,0l0,0l0,0l0,0c0,0,0,0,0.1,0c0.1,0.1,0.2,0.1,0.4,0.2
							c0.1,0,0.2,0,0.2,0.1l0.1,0l0,0c0,0,0,0,0,0C153.4,17.3,153.4,17.4,153.6,17.3z"/>
					</g>
				</g>
			</g>
		</g>
	</g>
	<g>
		<g>
			<g>
				<g>
					<g>
						<path class="st1" d="M17.7,68.9c-0.1-0.5-0.2-0.3-0.3-0.4C17.6,69.3,17.7,68.8,17.7,68.9z"/>
						<path class="st1" d="M23.7,67.6l0,0.2c0-0.2,0-0.5,0-0.7l-0.1-0.5C23.6,66.9,23.7,67.1,23.7,67.6z"/>
						<path class="st1" d="M22.7,61.1c0.1,0.3,0.7,0.8,0.9,1.5c0.1,0.4,0.2,0.7,0.3,1c0.1,0.3,0.1,0.7,0,1.1l-0.1,0.2l0.1,0.6
							c0.1-0.3,0.2-0.7,0.1-1.2c0-0.5-0.1-0.9-0.2-1.2C23.7,62.2,23.1,61.4,22.7,61.1z"/>
						<path class="st1" d="M22.9,58.5c-0.1,0.2-0.1-0.7,0,0.7c0-0.1,0-0.1,0-0.1C22.9,59,22.9,58.8,22.9,58.5z"/>
						<path class="st1" d="M22.9,59.1C22.9,59.7,23,58.7,22.9,59.1L22.9,59.1z"/>
						<path class="st1" d="M23,57.2c0,0.1,0,0.1,0,0.2c0.1-0.1,0.1-0.1,0.2,0C23.1,57.3,23.1,57.2,23,57.2z"/>
						<path class="st1" d="M23.1,56.8c-0.1,0.1-0.2,0.1-0.2,0.2C23,57,23,57,23.1,56.8z"/>
						<path class="st1" d="M22.8,57.3c0-0.1,0-0.2,0.1-0.3c-0.1,0-0.2-0.1-0.1,0.1C22.8,57,22.8,57.1,22.8,57.3z"/>
						<path class="st1" d="M22.7,57.5c-0.1,0.3-0.2,0.9-0.2,0.1c0,0.7,0.1,1.1,0.1,1C22.6,58.6,22.6,58,22.7,57.5z"/>
						<path class="st1" d="M22.3,61.2c0.1,0.1,0.3,0.3,0.4,0.5c0.2,0.1,0.3,0.3,0.5,0.4c-0.1-0.1-0.3-0.4-0.5-0.6
							C22.4,61.2,22.4,61.1,22.3,61.2z"/>
						<path class="st1" d="M27.6,54.8c0-0.1-0.4,0.1-0.5,0.1c-0.2,0.2-0.3,0.3-0.5,0.5C26.9,55.2,27.5,54.8,27.6,54.8z"/>
						<path class="st1" d="M27.1,54.9c0.2-0.3,0.5-0.5,0.7-0.9c-0.4,0.5-0.6,0.6-0.7,0.8C27.1,54.8,27.1,54.8,27.1,54.9z"/>
						<path class="st1" d="M23.1,56.4c-0.4,0.3-0.5,0.5-0.5,0.8c0-0.3,0.2-0.5,0.8-0.9L23.1,56.4z"/>
						<path class="st1" d="M28.7,50.4c0,0.2,0.1,0.3,0.2,0.4c-0.1-0.2-0.1-0.4-0.2-0.8L28.7,50.4z"/>
						<path class="st1" d="M25.5,47.7c0.3-0.4,0-0.2-0.2,0c-0.2,0.2-0.3,0.3-0.2,0c-0.3,0.5-0.5,0.8-0.6,1.1
							c-0.1,0.3-0.2,0.6-0.3,0.8c0.1-0.3,0.2-0.5,0.4-0.8C24.8,48.5,25,48.2,25.5,47.7z"/>
						<path class="st1" d="M24.1,50.3C24.1,50.3,24.1,50.3,24.1,50.3l0.1-0.3c0-0.1,0.1-0.3,0.1-0.4c0,0.1-0.1,0.3-0.1,0.4
							L24.1,50.3C24.1,50.3,24.1,50.3,24.1,50.3z"/>
						<path class="st1" d="M28.5,51.6c0,0,0-0.1,0.1-0.2c0-0.1,0-0.3,0-0.5c-0.1,0.1-0.1,0.2-0.2,0.3C28.4,51.3,28.4,51.5,28.5,51.6
							z"/>
						<path class="st1" d="M28.4,51.2L28.4,51.2c0-0.3,0-0.5,0-0.6C28.4,50.7,28.4,50.9,28.4,51.2z"/>
						<path class="st1" d="M28.5,51.7c0,0,0-0.1,0-0.1C28.4,51.7,28.4,51.7,28.5,51.7z"/>
						<path class="st1" d="M25.4,55.6c0.6-0.4,1.5-1.3,0.4-0.7C25.5,55.3,26.2,55,25.4,55.6z"/>
						<path class="st1" d="M28.2,52.4c0,0.5-0.2,1-0.5,1.4c0.1,0,0.3-0.2,0.1,0.2C28.1,53.5,28.3,52.9,28.2,52.4z"/>
						<path class="st1" d="M28.2,51.7c0,0.2,0.1,0.4,0.1,0.6c0-0.2,0-0.3,0-0.5L28.2,51.7z"/>
						<path class="st1" d="M25,48.9c-0.2,0.5-0.4,0.9-0.6,1.4c0.3-0.5,0.5-1.1,0.9-1.6C25.3,48.6,25.3,48.3,25,48.9z"/>
						<path class="st1" d="M28.3,48.9c0,0,0-0.1,0-0.1C28.3,48.9,28.3,48.9,28.3,48.9z"/>
						<polygon class="st1" points="21.4,51.3 21.5,51.3 21.5,51.3 						"/>
						<path class="st1" d="M25.4,48.6c0.2-0.2,0.3-0.4,0.4-0.6l0.1-0.1l0.2-0.2c0,0,0.2-0.1,0.3-0.2c0.1-0.1,0.2-0.1,0.5-0.1
							c-0.5,0-0.7,0.3-0.9,0.4c-0.2,0.1-0.2,0.2-0.3,0.3C25.5,48.3,25.4,48.5,25.4,48.6C25.3,48.7,25.3,48.8,25.4,48.6z"/>
						<path class="st1" d="M23.7,50.7c0.1,0,0.3,0,0.4-0.1C24,50.6,23.8,50.6,23.7,50.7z"/>
						<path class="st1" d="M28.3,48.6L28.3,48.6C28.3,48.5,28.3,48.5,28.3,48.6z"/>
						<path class="st1" d="M28.3,48.6c0-0.1-0.1-0.2-0.1-0.2c-0.1-0.1-0.1-0.2-0.2-0.3c0-0.1-0.1-0.1-0.2-0.2
							c-0.1-0.1-0.1-0.1-0.2-0.2c-0.2-0.2-0.5-0.3-0.8-0.2c0.2,0,0.4,0.1,0.6,0.1c0.2,0.1,0.3,0.2,0.4,0.3C27.9,48,28,48,28,48.1
							c0,0.1,0.1,0.1,0.1,0.2c0.1,0.3,0.1,0.3,0.2,0.5C28.3,48.7,28.3,48.7,28.3,48.6z"/>
						<path class="st1" d="M20,51.1c0.1,0,0.2,0.3,0.3,0.7c0.1,0.2,0.2,0.4,0.3,0.6c0.2,0.2,0.4,0.2,0.6,0.2
							c0.5-0.2,0.6-0.4,0.5-0.6c-0.1-0.2-0.2-0.3-0.3-0.6c0,0-0.1,0.1-0.1,0.1c-0.1,0-0.2,0-0.3-0.3c0,0.1,0,0.5,0.2,0.7
							c0.2,0.1,0.4,0.1,0.1,0.3c-0.3,0.1-0.4-0.1-0.5-0.2c-0.1-0.1-0.1-0.2-0.1-0.3c0-0.2,0-0.3,0.1-0.5c-0.1,0.4-0.4-0.5-0.5-1
							c-0.1-0.1-0.2-0.1-0.2-0.1l0.1,0.1c0,0.3,0,0.7,0.1,1C20.1,51.1,20,50.7,20,51.1z"/>
						<path class="st1" d="M22.5,51.2l0.4-0.1c-0.2,0-0.4,0-0.6,0c-0.1,0-0.2,0-0.3,0c0,0-0.1,0-0.1,0c0,0,0,0-0.1,0
							c-0.2,0.2-0.3,0.2-0.4,0.3c0.1,0.1,0.3,0,0.4,0l0.7-0.1L22.5,51.2z"/>
						<path class="st1" d="M24.1,50.7c0.1,0.3-0.7,0.6-0.2,0.6c0.5-0.2,0.5-0.3,0.6-0.4c0-0.1,0-0.2,0.1-0.4
							c-0.1,0.2-0.2,0.3-0.3,0.3c0,0,0,0,0-0.1C24.4,50.7,24.4,50.6,24.1,50.7c0.2-0.1,0.2-0.2,0.3-0.4c-0.1,0.2-0.2,0.2-0.3,0.3
							l0,0l0,0l0,0C24.2,50.6,24.2,50.6,24.1,50.7L24.1,50.7C24.1,50.7,24.1,50.7,24.1,50.7C23.9,50.8,24.1,50.7,24.1,50.7
							c0-0.1,0-0.1,0-0.1l0,0c-0.2,0.2-0.7,0.4-1.3,0.5c0.2,0,0.4,0,0.6-0.1C23.7,51,24,50.9,24.1,50.7z"/>
						<path class="st1" d="M26.5,53.9C26.5,53.9,26.5,53.9,26.5,53.9C26.6,53.8,26.6,53.8,26.5,53.9z"/>
						<path class="st1" d="M27.1,53.4C27,53.6,27,53.7,26.6,54c-0.3,0.2-0.1-0.1-0.1-0.1c-0.2,0.2-0.7,0.7,0.1,0.2l0.1-0.1
							c0.3-0.2,0.7-0.5,1-0.9c0.3-0.4,0.3-0.7,0.3-0.6C27.8,52.8,27.6,53.1,27.1,53.4z"/>
						<path class="st1" d="M27.7,48.8c0-0.1,0-0.1-0.1-0.3c0-0.1-0.1-0.2-0.2-0.3c-0.1-0.1-0.4-0.3-0.7-0.2c-0.2,0-0.4,0.1-0.4,0.2
							c-0.3,0.3-0.4,0.6-0.6,0.8c0.2-0.2,0.4-0.4,0.7-0.7l-0.1,0c0.1-0.1,0.3-0.2,0.6-0.2c0.1,0,0.2,0.1,0.3,0.2
							c0,0.1,0.1,0.1,0.1,0.1c0.1,0.2,0.1,0.2,0.2,0.3C27.6,48.8,27.7,48.7,27.7,48.8z"/>
						<path class="st1" d="M21.5,51.1c0.1-0.1,0.1-0.1,0.2-0.2c-0.1,0.1-0.3,0.1-0.4,0C21.3,51.1,21.4,51.1,21.5,51.1z"/>
						<polygon class="st1" points="21.3,50.3 21.5,50.5 21.5,49.9 21.3,49.5 21.4,49.9 						"/>
						<path class="st1" d="M5.4,20.1L5,20.3C5.2,20.2,5.3,20.1,5.4,20.1z"/>
						<path class="st1" d="M8.1,20.4L8.1,20.4C8.1,20.4,8,20.4,8.1,20.4z"/>
						<path class="st1" d="M22.8,29.9c0.1,0,0.2-0.1,0.3-0.1l0,0l0,0c0.6-0.2,1-0.3,0.9-0.4l-0.3-0.1c-0.2,0.2-0.5,0.3-0.7,0.4l0,0
							l0,0C22.9,29.8,22.9,29.8,22.8,29.9z"/>
						<path class="st1" d="M17.2,19.4c0,0.1-0.1,0.1-0.1,0.2c0,0.2,0.1,0.3,0.1,0.5C17.2,19.9,17.2,19.7,17.2,19.4z"/>
						<path class="st1" d="M16.5,18.8l0.3-0.9C16.7,18.1,16.6,18.4,16.5,18.8z"/>
						<path class="st1" d="M13.6,27c0.2,0.2,0.4,0.4,0.6,0.6C13.5,26.5,13.7,27,13.6,27z"/>
						<path class="st1" d="M32,34.6c-0.8-0.5-1.7-0.5-2.4-0.3C30.8,34.1,31.6,34.6,32,34.6z"/>
						<path class="st1" d="M6.6,17.9c-0.1,0-0.3,0-0.4,0c-0.1,0-0.1,0-0.1,0c0.1,0,0.2,0,0.3,0C6.4,18,6.5,18,6.6,17.9
							C6.6,18,6.6,17.9,6.6,17.9z"/>
						<path class="st1" d="M27.7,35.9c0,0,0,0,0.1-0.1c0.1-0.3,0.3-0.5,0.5-0.7c0.3-0.3,0.8-0.6,1.3-0.8c-0.5,0.1-1,0.3-1.4,0.7
							c-0.2,0.2-0.3,0.3-0.4,0.6l-0.1,0.2C27.6,35.8,27.7,35.8,27.7,35.9C27.7,35.8,27.7,35.9,27.7,35.9z"/>
						<path class="st1" d="M5.6,50.3c0.1,0,0.1,0,0.2,0.1C5.8,50.3,5.7,50.3,5.6,50.3z"/>
						<path class="st1" d="M17.9,62.6c0-0.2,0-0.5,0-0.6C17.8,62,17.8,62.2,17.9,62.6z"/>
						<path class="st1" d="M25.5,46.1C25.1,46.4,25.4,46.2,25.5,46.1L25.5,46.1z"/>
						<path class="st1" d="M23.2,46.8c0.1-0.1,0.1-0.1,0.1-0.2C23.3,46.7,23.2,46.7,23.2,46.8z"/>
						<path class="st1" d="M25,38.7C25,38.7,25,38.7,25,38.7C25.1,38.7,25.1,38.7,25,38.7z"/>
						<path class="st1" d="M24.9,46.5c0.2-0.1,0.3-0.2,0.5-0.3C25.3,46.2,25.1,46.3,24.9,46.5z"/>
						<path class="st1" d="M25,46.5c-0.1,0.1-0.2,0.2-0.3,0.2C24.6,46.8,24.7,46.8,25,46.5z"/>
						<path class="st1" d="M26,45.7c-0.2,0.2-0.4,0.3-0.6,0.4c0.1,0,0.1-0.1,0.1,0C25.6,46.1,25.7,45.9,26,45.7z"/>
						<path class="st1" d="M7,39.3C7.1,39.4,7.1,39.4,7,39.3c0.4,0.2,0.4,0.3,0.4,0.2C7.4,39.5,7.2,39.4,7,39.3z"/>
						<path class="st1" d="M29,21.1C29,21.2,29,21.2,29,21.1C29,21.2,29,21.1,29,21.1L29,21.1z"/>
						<path class="st1" d="M28.9,19.7c0.3,0.6,0.2,1,0.2,1.5l0.6-0.5C29.4,20.3,29.1,19.9,28.9,19.7z"/>
						<path class="st1" d="M3.9,21.5c-0.2-0.1-0.3-0.2-0.6-0.3c0,0-0.1-0.1-0.2-0.1c-0.1,0-0.1,0-0.2,0c-0.1,0-0.2,0-0.3,0l0,0l0,0
							l0,0l0,0l0,1l0,0l0,0l0-0.1c0-0.1,0-0.2,0-0.3c0-0.2,0.1-0.3,0.1-0.6c0-0.1,0,0,0-0.1c0,0,0,0,0,0c0,0.3-0.2,0.6-0.2,1l0,0.1
							c0,0.2,0-2.1,0-1.1l0,0l0,0l0,0l0,0l0.1,0c0.1,0,0.2,0,0.2,0l0.2,0c0.2,0.1,0.4,0.1,0.6,0.2c0.3,0.1,0.5,0.2,0.6,0.2
							c0.3,0.1,0.3,0-0.2-0.3c-0.1,0.1-0.4,0.1-1-0.1c-0.1,0-0.2-0.1-0.3-0.1c-0.1,0-0.2,0-0.4,0l0,0l0,0c0-1.1,0,1.5,0,1.2l0,0l0,0
							l0-0.2c0-0.1,0-0.2,0-0.3c0-0.1,0.1-0.2,0.1-0.4c0-0.1,0.1-0.3,0.1-0.3l0,0l-0.1,0c-0.2,0-0.3-0.1-0.5-0.2
							c-0.1,0-0.1-0.1-0.2-0.1c0,0,0,0,0,0l0,0l0,0l-0.1,0c-0.1,0.1-0.1,0.1-0.2,0.2c-0.1,0.1-0.2,0.2-0.3,0.2
							c-0.1,0-0.1,0.1-0.2,0.1c0,0,0,0,0,0c0.1,0,0.1,0.1,0.2,0.1c0.2,0.1,0.4,0.4,0.4,0.5c0,0,0,0,0-0.1c0-0.1,0.1-0.2,0.1-0.2
							c0.2-0.1,0.4-0.1,0.7-0.1c-0.2,0.1-0.2,0.1-0.4,0.2c1.3-0.2,0.8-0.8,2.5-1.2c0.6-0.1,1.1-0.1,0.7,0L5.8,20
							c0.2-0.1,0.1-0.1,0.2-0.1l0.1,0l0.3,0c0.4,0.1,0.3,0.2-0.1,0.1C7,20,7.7,20.1,8.2,20.3l0,0c0.1,0,0.2,0,0.2,0
							c0.1,0,0.1,0,0.2,0c0.2,0,0.3,0.1,0.4,0.2c0,0.3-0.1-0.1-0.2,0C9,20.6,9,20.7,9.1,20.8c0.1,0.2,0.2,0.5,0.4,0.7
							c0.1,0.2,0,0.2-0.1,0.1c-0.1-0.1-0.1-0.2-0.2-0.3C9,21.2,9,21.1,9,21c0-0.1-0.1-0.2-0.1-0.2c0-0.1-0.1-0.2-0.1-0.2
							c0,0.2-0.1,0.3-0.1,0.3c0,0,0,0.1,0,0.2c0,0.1,0.1,0.2,0.1,0.3C8.9,21.5,9,21.7,9.2,22c0.2,0.2,0.4,0.5,0.7,0.8
							c0.4,0.3,0.8,0.7,1.6,0.8c-0.7-0.1-1.2-0.3-1.7-0.7c0.2,0.3,0.4,0.5,0.7,0.7c0.2,0.1,0.3,0.2,0.5,0.2l0.3,0.1
							c0.1,0,0.3,0,0.4,0.1c0.2,0,0.4,0,0.6-0.1c0.2-0.1,0.4-0.1,0.6-0.3c0.4-0.3,0.7-0.6,0.8-0.9c0.3-0.6,0.4-1,0.5-1.4
							c0,0.1-0.1,0.4-0.2,0.7c-0.1,0.3-0.4,0.9-1,1.4c-0.3,0.2-0.7,0.3-0.9,0.3c-0.2,0-0.4,0-0.4-0.1c0,0,0-0.1,0.2-0.1
							c0.1,0,0.5-0.1,0.8-0.4c0.4-0.3,0.6-0.7,0.7-1.1c0.1-0.4,0.1-0.7,0.1-1.1c0.1,0,0.2-0.2,0.2-0.5c0-0.3,0-0.6,0-1.1l0.3,0.1
							c0-0.9-0.2-0.9-0.3-1.4c0.1-1,0.4-1.2,0.6-1.4c0.2-1.6-0.5,1.1-0.3-0.8c0.1-0.7,0.2-1.2,0.3-1.8c0-0.3,0.1-0.6,0.1-0.9
							c0-0.1,0-0.2,0-0.3c0,0,0-0.1,0.1-0.1c0,0,0,0,0.2-0.2c0.3-0.2,0.3-0.3,0.4-0.3c0,0,0,0,0,0.1c0,0.1-0.2,0.3,0,0.2
							c0.1-0.2,0.1-0.2,0.1-0.3c0-0.1,0.1-0.1,0.1-0.2c0.1,0,0.1,0,0.1,0.1c0.1-0.1,0.1-0.1,0.2-0.2c0-0.1,0.1-0.2,0.5-0.1
							c0.2-0.1,0.7,0.1,1,0.6c0.2,0.2,0.3,0.5,0.5,0.8c0.1,0.1,0.1,0.3,0.2,0.4c0.1,0.1,0.1,0.2,0.2,0.3c-0.1,0.2-0.2-0.1-0.3,0
							c0.1,0.2,0,0.4,0.1,0.4c0,0,0,0.1,0,0.1c0,0.1,0,0.1-0.1,0.2c0,0.1-0.1,0.2-0.1,0.3c-0.1,0.2-0.1,0.3-0.1,0.5
							c-0.1,0.3-0.1,0.7-0.2,1.3c-0.1,0.2-0.2,0.5-0.2,0.7L16.8,18c0.4-0.9,0.4,0.3,0.4,1.5c0.2-0.3,0.3-0.6,0.4-0.8
							c-0.1,0.6-0.1,1.2-0.1,1.8c-0.1,0.2-0.2,0-0.2-0.3c0,0.1,0,0.2,0,0.3c-0.2,0.6-0.3,0.3-0.4-0.2c0.1-0.2,0.2-0.4,0.3-0.6
							c-0.1-0.5-0.2-0.9-0.4-0.8c0,0.1,0,0.3,0,0.6c0-0.1-0.1-0.2-0.1-0.2c0,0.1,0,0.3,0,0.6l-0.4,0.4l0.1,0.1
							c-0.2,0.8-0.3,1.6-0.2,2.6c0.1,0.1,0.1,0.3,0.2,0.4c0.1,0.1,0.2,0.3,0.2,0.4c0.1,0.1,0.2,0.3,0.4,0.5l0.2,0.3
							c0.1,0.1,0.2,0.2,0.2,0.4c0.2,0.2,0.3,0.4,0.6,0.6c0.5,0.3,1.1,0.2,1.7,0c0.6-0.2,1.1-0.5,1.7-0.8c-0.5,0.5,0,0.4,0.1,0.7
							c-0.4,0-0.8,0.2-1.5,0.5c-0.4,0.1-0.8,0.3-1.3,0.2c-0.5,0-0.9-0.3-1.2-0.7c0.3,0.4,0.5,0.5,0.5,0.6c0,0.1-0.1,0-0.2,0
							c1,0.8,2.6,0,3.1-0.3c0,0.2,0.6,0,1.3-0.2c-0.3-0.1,0.1-0.4,0.7-0.8c0.6-0.4,1.3-1,1.5-1.6c0.1,0,0.1,0.1,0,0.3
							c-0.1,0.2-0.4,0.6-0.9,1c0.7-0.3,1-0.9,1.2-1.4c0.1-0.5,0.2-1,0.5-1.6c-0.1,0.3-0.2,0.5-0.1,0.6c0.1-0.4,0.2-1,0.4-1.3
							c0.2-0.3,0.4-0.5,0.3-0.3c0,0.1-0.1,0.1-0.1,0.2c0.1-0.2,0.3-0.4,0.6-0.7c0.3-0.2,0.7-0.5,1-0.8c0.2-0.1,0.4-0.2,0.5-0.3
							c0.1-0.1,0.2-0.1,0.4-0.2c0.3-0.1,0.5,0,0.7,0.1c0.2,0.1,0.4,0.2,0.6,0.3c0.1,0.1,0.2,0.2,0.3,0.2c0,0-0.5,0.1-0.6,0.1
							c0.2,0,0.4,0.2,0.5,0.3c0.1,0.2,0.3,0.5,0.4,0.8c0.2,0.6,0.4,1.1,0.6,1.8c-0.1-0.2-0.4,0-0.7,0c-0.1,0-0.2,0-0.2-0.1
							c-0.2-0.1-0.3-0.2-0.3-0.8c0,0.2-0.1,0.4-0.1,0.7c0,0.1-0.2,0.5-0.3,0.9c0.2-0.2,0.8-0.5,0.6-0.1c-0.9,0.9-0.5,0.7-1.5,1.6
							c0.3-0.3,0.5,0.4,0,0.9c0-0.1-0.4-0.3-0.3-0.5c-0.1,0.3-0.2,0.5-0.4,0.7c-0.2,0.2-0.3,0.4-0.6,0.6c0.4-0.3-0.1-0.4-0.6-0.4
							c0.2,0-1.5,0.8-1.9,1.1l0.8-0.3c-1.5,0.8-1.6,1.3-2.3,2.1l0,0l0,0c-0.2,0.2-0.5,0.5-0.9,0.8c0.1-0.2,0.1-1-0.8-0.2
							c-0.1,0.1-0.1,0.4-0.2,0.7c-0.1,0.3-0.1,0.6-0.3,1c-0.2,0.4-0.4,0.7-0.4,1.1c0,0.4,0,0.8,0,1.3l-0.2,0.3l-0.1,1.4
							c-0.1-0.5-0.3-1.4-0.4-2.3c0-0.5-0.1-1,0.2-1.6c0.4-0.6,0.5-0.8,0.7-1.1c-0.3,0.2-0.3,0.2-0.4,0.2c0,0-0.1,0-0.2,0.1
							c-0.1,0.1-0.4,0.3-0.6,0.7c-0.2,0.3-0.2,0,0.1-0.4c0.1-0.2,0.3-0.4,0.5-0.5c0.1-0.1,0.2-0.2,0.2-0.2L19,30
							c-0.1,0.1-0.3,0.2-0.4,0.4c-0.3,0.3-0.5,0.7-0.6,1c-0.2,0.6-0.3,1.1-0.4,1.5c0.3-0.1-0.1,2.2,0.2,2.1c0.1-1,0.1-2,0.3-3.1
							c0.3,0,0.5,1.9,0.1,3.9c-0.2,0.5-0.5-0.5-0.6-0.4c0.1,0.3-0.1,1.9-0.2,2.1l0-0.9c-0.1,0.6-0.1,1-0.1,1.6
							c0.1,0.6,0.2,1.1,0.2,1.7c0,0.1,0,0.2,0,0.4c0,0.2-0.1,0.5-0.1,0.7c-0.1,0.5-0.1,0.9,0,0.9c0.1-0.6,0.5-1.1,0.8-1.2
							c0.3-0.2,0.7-0.1,0.8,0c0,0,0,0.2-0.1,0.3c0,0.2-0.1,0.5,0,0.7c0.4,0.4,1,0.2,1.2,0.3c0.3,0,0.1,0.3-0.2,0.5
							C19.5,42.8,19,43,19.4,43c0.1-0.1,0.6-0.3,0.8-0.4c0.3-0.1,0.3,0,0.3,0.1c0,0,0.1,0,0.2,0c0.1,0,0.4-0.1,0.6-0.2
							c0.1-0.3,2-0.9,0.4-0.4c0.4-0.2,0.6-0.3,0.9-0.4c0.2-0.1,0.4-0.2,1-0.4c0.1-0.1,0.2-0.2,0.3-0.4c-0.4,0.2,0.1-1.3,0.9-2
							c0,0.1,0.2,0,0.4,0c0.8-0.6,1.6-1,2.3-1.2c0.4-0.1,0.8-0.2,1.2-0.4c0.2-0.1,0.4-0.2,0.4-0.5c0-0.3,0.1-0.4,0.3-0.6
							c0,0,0,0,0.1,0c0.2-0.2,0.8-0.3,0.6-0.1c0.2-0.1,0.3-0.3,0.8-0.3c0.4,0.2,0.1,0.1-0.1,0.2c-0.3,0-0.5,0.1-0.2,0.2
							c0-0.1,0.3-0.2,0.6-0.1c0.2,0,0.4,0.1,0.4,0.3c0,0.2,0.2,0.3,0.3,0.5c0-0.1,0-0.2-0.1-0.4c0-0.1-0.1-0.2-0.1-0.3
							c0-0.1-0.1-0.2-0.2-0.3c-0.5-0.2-1.1-0.1-1.3,0.1c-0.1-0.2,0.2-0.5,0.9-0.6c0.2,0,0.4,0,0.6,0c0.2,0.1,0.5,0.2,0.5,0.4
							c0.1,0.2,0.3,0.5,0.4,0.7c0.2,0.3,0.2,0.6,0.2,1c-0.2,1-0.4,1.1-0.4,1.1c-0.1,0-0.1-0.2-0.1-0.1c-0.8,1.4-1.1,2-1.4,2.5
							c-0.2,0.3-0.3,0.5-0.6,0.8c-0.2,0.3-0.7,0.6-1.2,0.9c-0.9,0.4-0.4-0.3-0.6-0.3c1-0.9,1.7-1.2,2.3-1.9
							c-0.3,0.3-0.6,0.5-0.9,0.7c0.3-0.3,0.8-1,1.2-1.4c-0.3,0.3-1.2,1.2-2.4,2.1c-1.1,1-2.3,2.1-3.3,2.7c-0.3,0.3-0.8,0.8-0.5,0.7
							l0.6-0.5c0.7-0.3-0.9,1.1-0.1,0.6c-0.7,0.7-1.5,1.6-2.9,2.2l-0.4-0.1c0,0,0.3,0,0.6-0.1c0.3-0.1,0.6-0.3,0.7-0.4
							c-0.3,0.3-1.1,0.5-1.8,0.6c-0.3,0-0.6,0-0.7,0.2c0.3,0,0.5,0.1,0.8,0.1c-0.1,0-0.3,0.1-0.4,0.1c-0.1,0.1-0.2,0.2-0.2,0.3
							c0,0.3,0.1,0.6,0.1,0.8c0.1-0.2,0.1-0.2,0.1-0.2c0,0,0-0.1,0.1-0.2c-0.1,0-0.2,0-0.2-0.1c0-0.1,0-0.3,0.1-0.3
							c0.3-0.1,0.6,0,0.2-0.2c0.1,0,0.1,0.1,0.2,0.1c1.1,0,1.6-0.5,2.7-0.9c-0.1-0.1-0.5,0.1,0.5-0.5c0-0.1,0.1-0.1,0.1-0.2
							c0,0,0,0,0.1,0l-0.1,0c0,0,0,0,0,0c-0.2,0.1-0.4,0.2-0.5,0.2c0.3-0.5,1.7-1.5,2-2c0.5-0.4-0.1,0.3,0.2,0.1l0.5-0.7
							c0.2,0.1,1.5-0.9,0.4,0.2l1-0.9c0.3-0.2,0.7-0.5,0.9-0.7c0.4-0.3,0.8-0.6,1-0.9c0.5-0.4,1-1.4,0.8-0.8
							c0.5-0.6,0.9-1.2,1.3-1.9l0.1,0c0.3-0.5,0.5-0.9,0.7-1.6c0.1-0.3,0.1-0.9,0-1.2c-0.1-0.2-0.2-0.4-0.3-0.5
							c-0.1-0.2-0.1-0.4-0.2-0.5c-0.1-0.3-0.4-0.6-0.8-0.7c-0.4-0.2-0.8-0.2-1.2-0.2c-0.8,0-1.7,0.2-2.3,0.8
							c-0.2,0.2-0.4,0.3-0.5,0.6c-0.1,0.2,0,0.2,0,0.2c0,0.1-0.1,0.1-0.2,0.1c0,0-0.1,0-0.1,0.1c-0.1,0-0.2,0.1-0.2,0.1
							c-0.2,0.1-0.5,0.2-0.8,0.3l-0.3-0.1c-0.5,0.2-1.2,0.6-1.7,1c-0.6,0.4-1,0.8-1.1,1c-0.2,0.1-0.4,0.2-0.7,0.5
							c-0.2,0.2-0.6,0.7-0.6,0.6l0,0l-0.1,0.1c-0.1,0.1-0.3,0.2-0.5,0.2c-0.3,0.2-0.6,0.3-0.9,0.5c-0.1,0.1-0.3,0.1-0.4,0.2
							c0,0-0.1,0-0.1,0c-0.1,0-0.1,0-0.1,0l-0.1,0.3c-0.1,0-0.2,0-0.2,0c-0.1,0-0.1-0.1-0.1-0.2c-0.1-0.3-0.1-0.7-0.2-1.1l-0.2,0.1
							c-0.1-0.3-0.1-0.6-0.2-1c0-0.3,0-0.6,0.1-0.9c0.1-0.8,0.4-1.6,0.5-2.5c0.1,0.1,0,0.6-0.1,0.9c0.4-1,0.5-2.1,0.7-3.2
							c0-0.3,0.1-0.5,0.1-0.7c0-0.2,0.1-0.3,0.1-0.4c0-0.1,0.3-0.3,0.5-0.5c0.2-0.2,0.5-0.5,0.6-0.5c0.2-0.3,0.5-0.5,0.7-0.7
							c0,0-0.1,0-0.1,0.1c0,0,0.1-0.1,0.1-0.1c0.2-0.1,0.4-0.2,0.5-0.3c-0.2,0.1-0.3,0.1-0.5,0.2c0.2-0.1,0.4-0.3,0.6-0.5l0,0l0,0
							c0.1-0.1,0.3-0.2,0.4-0.3l0.3,0.1c0,0,0.1,0,0.1-0.1c0.5-0.2,0.3-0.3,0-0.3c0.2-0.2,0.4-0.3,0.6-0.5c0.5,0.1,1.2-0.8,1.9-0.7
							c0.1-0.1,0.2-0.2,0.5-0.3c0.1-0.1,0.2-0.1,0.4-0.2c0.2-0.1,0.4-0.2,0.6-0.4c0.7-0.6,1-1.2,1-1.5c0.1,0,0.2-0.1,0,0.1
							c0.4-0.5,0.8-1,1-1.6l0.4-0.1l0.1-0.7l0.1-0.8c0,0,0,0,0,0c0.1-0.5,0.2-0.7,0.3-0.8c0.1-0.1,0.1,0.1,0.2,0.5
							c-0.1-1-0.1-1.4-0.2-1.8c0-0.2,0-0.4-0.1-0.6c-0.1-0.3-0.2-0.7-0.6-1.1c0.1,0,0.1,0,0.2,0c-0.1-0.2-0.3-0.3-0.5-0.4
							c-0.2-0.1-0.3-0.2-0.5-0.3c-0.4-0.3-0.9-0.3-1.2-0.4c-0.2,0-0.5,0-0.9,0.1c-0.4,0.1-0.7,0.3-1,0.5c-0.3,0.2-0.7,0.4-1,0.7
							c-0.4,0.3-0.8,0.7-1.1,1.3c-0.3,0.6-0.3,1.1-0.5,1.5c-0.1,0.4-0.3,0.8-0.6,1.1c-0.5,0.6-1.3,1-2.1,1.3c0.4,0.1,0,0.2-0.4,0.3
							c-0.5,0.1-1,0.2-1,0.4c-0.2-0.1-0.3-0.1-0.1-0.3c-0.2,0.1-0.3,0.1-0.5,0c-0.1-0.1-0.2-0.2-0.2-0.3c0-0.1-0.1-0.3-0.2-0.6
							c-0.1-0.1-0.2-0.3-0.2-0.4c-0.1-0.1-0.1-0.1-0.2-0.2c0-0.1,0.1,0,0.2,0c0.1,0,0.1,0,0.1,0c0,0-0.2-0.3-0.1-0.4
							c0.1-0.2,0.1,0.2,0.2,0.3c-0.1-0.2-0.1-0.5-0.1-0.7c0-0.2-0.1-0.4-0.2-0.5c-0.1-0.3-0.3-0.4-0.5-0.4c0.3-0.9,0.3-1.3,0.2-2
							c0.2-0.3,0.4-0.8,0.2,0.3c0-0.2,0.1-0.5,0.2-0.8c0.1-0.4,0.2-0.9,0.2-1.2c0.2-0.8,0.5-1.5,0.3-1.6c0.1-0.1,0.1-0.2,0.2-0.3
							c0.1-0.2,0.1-0.3,0.2-0.5c0-0.1,0.1-0.2,0.1-0.3c0.2-0.4,0-0.8,0-1.1c-0.1-0.3-0.2-0.5-0.3-0.7c-0.2-0.4-0.4-0.8-1.1-1.3
							c0.1,0.1,0.2,0.2,0.3,0.3c-0.3-0.1-0.6-0.3-0.9-0.5c-0.2-0.1-0.4-0.2-0.6-0.3c-0.2-0.1-0.5-0.2-0.8-0.2l0,0
							c-0.8-0.2-1.3,0.1-1.6,0.3c-0.3,0.2-0.4,0.4-0.4,0.5c0,0-0.1,0.1-0.1,0.1c-0.1,0.1-0.2,0.1-0.3,0.3c-0.3,0.2-0.5,0.8-0.7,1.4
							L13,13c0.4,0.3-0.7,2.2-0.7,3.7l0.2-0.5c0.1,0.8-0.9,2.2-1,3c-0.1,0.2-0.1-0.3-0.1-0.5c-0.4,2.1,0.2,0.3,0.3,1.9
							c-0.2,0.2-0.4-0.3-0.4,0.6c0,0.1-0.1,0.3,0,0.4c0,0,0.1,0,0.2,0.1c0.1,0,0.1,0.1,0.2,0.1c0,0,0.1,0.1,0.1,0.1c0,0,0,0,0,0
							c0,0,0-0.1,0-0.3c0-0.1,0-0.1,0-0.2c0-0.1,0-0.1,0-0.1l-0.1,0c-0.4,0-0.9-0.4-0.9-1.1c0,0.1,0,0.2,0,0.2c0,0.1,0,0.1,0,0.1
							c0,0-0.1,0.1-0.2-0.3c0,0,0-0.1-0.1-0.1c-0.1-0.4-0.4-0.8-0.8-1.1c-0.4-0.3-0.8-0.5-1.2-0.7c-0.8-0.3-1.5-0.5-2.1-0.3
							C6.2,18,6.1,18,6.1,18C6,18,6,18,5.9,18c-0.2,0-0.3,0.1-0.5,0.2c-0.1,0-0.3,0.1-0.4,0.1c-0.3,0.1-0.6,0.2-0.9,0.3
							c-0.6,0.2-1.1,0.5-1.3,0.6c-0.3-0.1-0.7,0-1.2,0.2c-0.3,0.1-0.5,0.2-0.9,0.5c-0.1,0.1-0.2,0.2-0.3,0.3
							c-0.1,0.1-0.2,0.3-0.3,0.5c-0.1,0.4,0.1,0.8,0.2,1c0.3,0.4,0.7,0.6,0.9,0.7c0.3,0.1,0.6,0.3,0.8,0.3c0.1,0,0.2,0.1,0.3,0.1
							c0,0,0.1,0,0.2,0.1l0.1,0l0,0l0,0l0,0l0,0c0,0.4,0-0.5,0-0.4l0,0c0,0.1,0,0.2,0,0.3c0,0,0,0.1,0,0.1l0,0l0,0c0,0,0,0,0,0
							c0,0,0,0.1,0,0.1c0.7,0.2,1.5,0.7,2.3,1l-0.1,0C6.4,25,7,25,7.6,25.1c0.3,0.2,0,0.1,0,0.2c1,0.5,1.5,0.9,2.1,1.2
							c0.5,0.3,1,0.6,1.9,1c0,0.1,0,0.2,0,0.3c0.2,0.1,0.6,0.6,0.8,1.7c0.1,0.3,0.1,0.6,0.4,1.1l0.1,0.1l0,0l0,0
							c-0.4,0.4,0.6-0.6,0.5-0.5l0,0l0,0l-0.1,0.1c-0.1,0.1-0.4,0.3-0.5,0.3c0,0,0,0.1,0,0.1c0,0.1,0.1,0.2,0.1,0.4
							c0.1,0.6,0.2,1.2,0.4,1.7c0,0-0.1-0.1-0.1-0.2c0.3,1.3,0.3,2.9,0.3,4.3c0,0.7,0.1,1.4,0.2,1.9c0,0.3,0.1,0.3,0.1,0.4
							c0.1,0.1,0.1,0.2,0.3,0.3c0,0.2,0.1,0.4,0.1,0.6c0,0.2,0.1,0.5-0.1,0.7c0.2-0.1,0.2-0.3,0.2-0.4c0-0.1,0-0.1,0.1-0.2
							c0,0,0.1,0.1,0.1,0.2c0.1,0.3,0.1,0.8,0.3,0.5c0,0.2-0.1,0.6-0.4,0.5c-0.3,0-0.5-0.1-0.6-0.2c-0.3-0.2-0.4-0.3,0-0.2l0.2,0.1
							c0-0.3-0.5-0.4-1-0.7c-0.2-0.1-0.4-0.3-0.6-0.4c-0.2-0.2-0.3-0.3-0.3-0.4c-0.8-0.7-1.7-1.5-2.7-2.1c-1-0.7-1.9-1.3-3.2-1.7
							c-0.4-0.1-0.7-0.1-1-0.1c-0.3,0-0.7,0-1.1,0.2c-0.4,0.1-0.8,0.3-1.1,0.7c-0.3,0.4-0.4,0.9-0.4,1.3c0,0.4,0.1,0.8,0.3,1.2
							c0.2,0.4,0.6,0.8,0.9,1c0.7,0.4,1.3,0.5,1.9,0.6l-0.5-0.4l0.7,0.1c0.2,0,0.3,0.1,0.4,0.1c0.1,0.1,0.1,0.2,0,0.2
							c-0.1,0-0.2,0-0.4-0.1c0.1,0.1,0.3,0.1,0.4,0.3c0.2,0.1,0.3,0.3,0.4,0.3c0.2,1,0.1,0.8-0.1,0.5c-0.1-0.2-0.2-0.3-0.3-0.5
							c0,0-0.1-0.1,0,0c0.1,0.2,0.2,0.5,0.3,0.7l0-0.2C6.8,42,6.9,42.2,7,42.4c0.1,0.3,0.2,0.5,0.5,1.2c0.2,0.5,0.3,0.6,0.3,0.7
							c0,0.1,0,0.1,0.1,0.2c0,0,0.1,0.2,0.5,0.4c0.6,0.4,1.3,0.7,1.9,1c-0.2-0.2-0.4-0.4-0.6-0.5c0.9,0.2,1.7,0.7,1,0.1
							c0.3,0.3,1.1,0.6,1.9,0.9c0.2,0.1,0.2,0.1,0.5,0.3c0.2,0.1,0.4,0.3,0.6,0.4c0.4,0.3,0.8,0.5,1.2,0.8c0.2,0.1,0.3,0.3,0.3,0.4
							c0.1,0.2,0.2,0.5,0.2,0.7c0.1,0.4,0.2,0.8,0.2,0.9c0.2,0.5,0.3,1.1,0.3,1.6c0,0,0,0.1,0,0.1c0.2,0.1,0.3,0.2,0.3,0.2
							c0,0,0-0.2,0-0.3c0,0,0,0-0.1,0c-0.2-0.1-0.5-0.3-0.8-0.4c0.3,0.2,0.3,0.6-0.7,0c0.4-0.2-0.2-0.5-0.7-0.8
							c-0.6-0.4-1.3-0.9-1.6-1.4c0.3,0.4-0.4-0.1-1.2-0.6c-0.8-0.4-1.4-0.7-0.9-0.2c-0.9-0.5,0.1-0.2-0.6-0.7
							c-0.6-0.2-1.4-0.5-2.2-0.5c-0.8,0-1.6,0.1-2.3,0.2C4.7,46.8,4.4,46.9,4,47c-0.5,0.1-1,0.3-1.5,0.7C2.1,48,1.8,48.4,1.7,49
							c0,0.5,0.2,1,0.5,1.5c0.1,0-0.1-0.6,0.4,0.1c0.3,0.6,0.9,1.3,1.5,1.6c0.4,0.1,0.6,0,0.9,0c0.2,0,0.4-0.1,0.9,0.2
							c-0.1-0.1-0.3-0.2,0.1-0.2c1.9,0.7,3.8,1.6,5.5,2.7c0.2,0.1,0.4,0.3,0.6,0.4c0.1,0.1,0.2,0.2,0.2,0.2l0.3,0.3
							c0.5,0.5,1.1,0.8,1.6,1c0.6,0.2,1.2,0.3,1.7,0.4c0.4,0.1,0.7,0.1,1,0.1c0,0.5-0.1,0.8-0.1,1.9c0,0.2,0,0.4,0,0.7
							c0,0.3,0.1,0.6,0.3,0.9c0.1,0.1,0.2,0.3,0.3,0.4l0.1,0.2c0,0,0.1,0.1,0.1,0.1c0,0.1,0.1,0.2,0.1,0.3c0-0.2,0-0.2,0.1-0.2
							c0.1,0,0.1,0.2,0.2,0.3c0-0.2,0.2,0,0.3-0.1c0,0.3-0.1,0.7-0.1,1.1l-0.2,1.3c0.3,0.5,0,2.7,0.3,2.9l-0.1-0.8
							c0.3,1.1,0.8-1.5,1.2-1.3c-0.2-0.6-0.1-1.4,0.1-2.2c0-0.4,0.2-1-0.1-1.6c-0.1-0.3-0.3-0.6-0.6-0.8c-0.2-0.2-0.3-0.2-0.4-0.3
							c0-0.3,0.2,0.1,0.3,0c-0.2-0.1-0.2-0.2-0.3-0.5c-0.1-0.3-0.1-0.7,0-1.3c0,0.1,0,0.1,0,0.2c0-0.9,0.1-1.8,0.1-2.5
							c-0.7,0-1.4,0-2.1-0.1c-0.2,0-0.3,0-0.4-0.1l-0.3-0.1c-0.2-0.1-0.4-0.1-0.6-0.2c-0.4-0.1-0.8-0.3-1.1-0.6
							c-0.1-0.1-0.2-0.1-0.2-0.2c-0.1-0.1-0.2-0.2-0.2-0.3c-0.2-0.3-0.5-0.6-0.8-0.8l0.1,0.3c-0.6-0.5-0.7-0.7-1-0.9
							c-0.5-0.1,0,0.2,0.5,0.5c0.5,0.3,0.9,0.8,0.5,0.6c-0.3-0.5-1.4-1.3-2.6-1.9c-1.2-0.6-2.3-1.1-2.6-1.4c-1.2-0.4,0.3,0.3-0.9,0
							l-0.3-0.2L6,50.7c-0.2-0.1-0.4-0.1-0.5-0.2c-0.1,0-0.2,0-0.2-0.1c-0.1,0-0.1,0-0.1-0.1C5,50.4,5,50.3,5,50.2c0,0,0.1,0,0.2,0
							c0.1,0,0.3,0,0.4,0c-1-0.2-1.4-0.5-1.4-0.7c0,0.1,0.1,0.2,0.2,0.4c-0.1-0.1-0.3-0.2-0.3-0.4c-0.1-0.1-0.2-0.4,0-0.5
							c0.1-0.2,0.3-0.2,0.5-0.3l0.1,0l0.2-0.1l0.6-0.1c0.8-0.2,1.5-0.3,2.2-0.3c0.6,0.1,1.2,0.4,2,0.7l-0.2-0.2c1,0.4,1.3,0.7,1.7,1
							c0.4,0.3,0.7,0.7,1.9,1.4l-0.1,0c0.3,0.1,0.6,0.2,0.9,0.3c0.3,0.1,0.6,0.2,0.9,0.4c-0.3-0.1-0.1,0.1,0.1,0.3
							c0.2,0.2,0.4,0.4,0,0.2c0.3,0.1,0.6,0.3,0.9,0.3c0.2,0,0.4,0.1,0.7,0c0.1,0,0.3-0.1,0.4-0.2c0.1-0.1,0.2-0.2,0.3-0.3
							c0.3-0.4,0.2-0.6,0.2-0.7c0-0.1,0-0.2,0-0.3c-0.1-0.3-0.1-0.4-0.4-1.2l0.1-0.4c-0.3-0.6-0.3-0.6-0.8-1.8
							c0.3,0.5,0.2,0.3,0.2,0.1c0-0.2,0-0.4,0.3,0.2c-0.1-0.5-0.3-1.3-0.9-1.6c-0.1-0.1-0.2-0.2-0.3-0.2c-0.1-0.1-0.2-0.1-0.3-0.2
							c-0.2-0.1-0.3-0.2-0.5-0.3c-0.3-0.2-0.6-0.3-0.9-0.5c-0.1-0.1-0.3-0.2-0.5-0.3c-0.2-0.1-0.3-0.1-0.5-0.2
							c-0.3-0.1-0.5-0.2-0.7-0.4c-0.6,0-0.1,0.3,0.5,0.5c0.2,0.1,0.3,0.1,0.5,0.2c0.2,0.1,0.4,0.2,0.4,0.2c0.2,0.1,0.3,0.2,0.1,0.1
							c0.2,0.2,0,0.2-0.5,0c-0.5-0.1-1.1-0.2-1.4-0.4c-0.4-0.1-0.7-0.4-1.1-0.7c-0.4-0.3-1-0.7-1.5-1.2c0.1,0.1,0.1,0.1,0.3,0.2
							C9.3,43.1,9.1,43,9,42.9c-0.2-0.3-0.3-0.7-0.4-1.2c-0.4-0.4-0.4-1.2-0.8-1.4c0.2,0.4,0.3,0.7,0.4,1l0.3,0.9
							c-0.2-0.5-0.5-1-0.8-1.6c-0.2-0.3-0.4-0.7-0.7-1c-0.3-0.2-0.9-0.3-1.3-0.4c0.1,0,0.2,0,0.5,0c0.3,0,0.6,0,0.8,0.1
							c-0.3-0.2-0.7-0.2-1-0.3c-0.3,0-0.5,0-0.7-0.2c0.1-0.1,0.2-0.1,0.4-0.1c0.1,0,0.3,0,0.4,0c0.2,0,0.5,0.1,0.7,0.2
							c0.5,0.1,0.9,0.6,1.2,1.1c0.1,0.1,0.1,0.3,0.2,0.4l0.1,0.3c0.1,0.2,0.2,0.3,0.2,0.5c0-0.2-0.1-0.4-0.2-0.6l-0.1-0.2l-0.1-0.2
							c-0.1-0.2-0.2-0.3-0.3-0.4c-0.4-0.5-0.7-0.7-0.3-0.6C7.4,39,7,38.9,6.6,38.9c-0.2,0-0.4-0.1-0.6-0.1c-0.1,0-0.3-0.1-0.4-0.1
							c-0.6-0.1-1-0.3-1.2-0.4c0.1,0,0.1-0.1,0.2-0.1c0,0.1-0.3-0.3-0.2-0.4c0.1,0.1,0.2,0.2,0.3,0.3c-0.1-0.1-0.1-0.3-0.1-0.3
							c0.1,0-0.1-0.1,0.1,0c0,0,0.3,0,0.8,0c-0.4,0-0.6,0-0.6,0c-0.1,0-0.1,0-0.1-0.1c0-0.1,0-0.2-0.2-0.2c0.1-0.1,0.3-0.2,0.5-0.2
							c0.2,0,0.3,0,0.5,0c0.3,0,0.4,0.2,0.6,0.3c0.3,0.3,0.6,0.5,1.9,1.2c-0.3-0.2-1.2-0.9-0.6-0.6c0.5,0.3,1.1,0.8,1.3,1.1
							c1.6,1.2-0.1-0.4,0.7,0c0.4,0.6,0.9,0.5,1.6,1.1l-0.1,0.2c0.2,0.2,0.5,0.4,0.6,0.5c0.1,0.1,0.4,0.3,0.5,0.3
							c0.3,0.1,0.4,0.1,0.5,0.1c0.1,0,0.2,0,0.4,0.1c0.2,0.1,0.6,0.3,1.2,0.5c-0.3,0-0.7,0-1.1-0.1c0.5,0.2,1,0.4,1.5,0.4
							c-0.1,0.1-0.1,0.2-0.2,0.2c0.4,0,0.7-0.1,1-0.2c0.3-0.1,0.4-0.4,0.5-0.6c0.2-0.4,0.4-0.9,0.4-1.9c-0.1,0.2-0.2,0.1-0.3-0.3
							c-0.1-0.3-0.2-1-0.2-1.4c0.1-0.8,0.3,0.4,0.1-1.1c0.2,0.3,0.4,0.7,0.2,1.4c0,0,0.1,0.1,0.1,0.2c0,0.1,0.1,0.3,0.1,0.3
							c0-0.4,0-0.6,0-0.8c0-0.2,0-0.5-0.1-0.7c-0.1-0.4-0.1-1-0.1-1.1c0,0.1,0,0.4,0,0.5c0-0.2-0.1-0.4-0.1-0.5
							c0-0.2-0.1-0.4-0.1-0.6l-0.2-1.1c0-0.4,0.1-0.1,0.2,0.2c-0.1-0.5-0.2-0.8-0.3-1.4c0.2,0.2,0.4,0.1,0.6,1
							c-0.1-0.7-0.3-1.4-0.4-2.1c0.1-0.2,0-1.1,0.2-0.9c0-0.3-0.1-0.7-0.2-1c-0.1-0.2-0.1-0.4-0.2-0.7c-0.1-0.2-0.1-0.2-0.3-0.6
							c-0.1-0.1-0.1-0.1-0.2-0.2l0,0c0.1-0.1-1,1-0.5,0.5l0,0l0,0l0,0l0,0l0.1,0c0,0,0.1,0,0.1-0.1c0.1-0.1,0.1-0.1,0.2-0.1
							c0,0,0.2-0.1,0.2-0.1l0,0c0,0,0,0,0-0.1c0,0-0.1-0.1-0.1-0.2l-0.2-0.6c-0.2-0.4-0.4-0.9-0.7-1.4c-0.1-0.1-0.2-0.2-0.6-0.5
							c-0.2-0.2-0.4-0.3-0.5-0.5L12,25.6c-0.3-0.2-0.6-0.5-0.9-0.7c-0.6-0.5-1.4-0.9-2.2-1.2c-0.3-0.3-0.6-0.5-0.8-0.7
							c-0.7-0.2-0.4,0-0.2,0.2C8,23.3,8,23.5,7,23.1c-1.5-0.5-0.4-0.5-0.9-0.8c-0.4-0.1-0.9-0.2-1.5-0.4c-0.3-0.1-0.6-0.2-1-0.4
							c-0.2-0.1-0.3-0.2-0.7-0.3c-0.1,0-0.1,0-0.2,0l0,0l0,0l0,0c0,1.6,0,0.4,0,0.8l0,0l0-0.1c0-0.1,0-0.2,0-0.3
							c0.1-0.5,0.1-0.3,0.1-0.4l-0.1-0.1c0.1,0,0.1,0,0.2,0c0,0.1-0.1,0.4-0.1,0.6l0,0.2l0,0.1l0,0l0,0l0,0l0,0c0-0.4,0,0.9,0-0.9
							l0,0l0.1,0c0.2,0,0.3,0.1,0.4,0.1C3.5,21.3,3.7,21.4,3.9,21.5z M12.6,23.2c-0.4,0.3-1.1,0.4-1.4,0.3c-0.4-0.1-0.7-0.2-0.8-0.4
							c0.3,0,0.5,0.1,0.8,0.2C11.4,23.3,11.9,23.6,12.6,23.2z M16.6,21.9c-0.1-0.3,0-0.7,0.1-1.1C16.6,21.2,16.6,21.5,16.6,21.9z
							 M29.1,42.8C29.1,42.8,29.1,42.8,29.1,42.8c0.1-0.1,0.2-0.2,0.3-0.2c0.1,0,0.1-0.1,0.1,0C29.4,42.6,29.3,42.7,29.1,42.8z
							 M27.9,43.7c-0.1,0.1-0.1,0.1,0,0.1c0-0.1,0.3-0.3,0.6-0.6C28.4,43.3,28.2,43.4,27.9,43.7z M8.2,44.7L8,44.4
							C8.7,44.9,8.5,44.8,8.2,44.7z"/>
						<path class="st1" d="M16.6,18.9c0.1-0.1,0.1-0.1,0.1-0.1C16.7,18.7,16.6,18.6,16.6,18.9z"/>
						<path class="st1" d="M13.5,26.9L13.5,26.9c0.1,0.1,0.1,0.1,0.1,0.1L13.5,26.9z"/>
						<path class="st1" d="M20.2,43c-0.4,0.1-0.7,0.1-0.8,0.1C19.4,43.1,19.5,43.2,20.2,43z"/>
						<path class="st1" d="M21.4,48.5l0.1,0l0.5-0.1c-0.2,0.1-0.4,0.1-0.5,0.1c-0.1,0-0.1,0-0.2-0.1C21.4,48.4,21.4,48.5,21.4,48.5z
							"/>
						<path class="st1" d="M22.9,52.2c0.1,0,0.3-0.1,0.4-0.1L23.3,52C22.7,52.1,22.3,52.2,22.9,52.2z"/>
						<path class="st1" d="M20.5,48c-0.2-0.1-0.3,0.4-0.2,0.9l0-0.1C20.6,48.9,20.3,48.5,20.5,48z"/>
						<path class="st1" d="M20.3,48.9c0,0.2,0.1,0.3,0.1,0.5c0.1,0,0,0,0-0.1C20.4,49.2,20.4,49.1,20.3,48.9z"/>
						<path class="st1" d="M26.6,45.1c-0.3,0.2,0,0.3-0.2,0.4C26.2,45.9,27.8,43.8,26.6,45.1z"/>
						<path class="st1" d="M19.7,48c0.1,0,0.2-0.1,0.3-0.1c0-0.1-0.1-0.3,0-0.4C19.8,47.6,19.8,47.8,19.7,48z"/>
						<path class="st1" d="M24.2,45.7c-0.3,0.2-0.6,0.4-0.9,0.6c0,0-0.1,0.1-0.2,0.2C23.7,46.2,24.3,45.8,24.2,45.7z"/>
						<path class="st1" d="M23.1,46.5c-0.3,0.2-0.6,0.3-0.8,0.5C22.5,46.9,22.9,46.7,23.1,46.5z"/>
						<path class="st1" d="M20.7,47.1l0.3,0c0.1,0,0.2,0,0.3,0l0.5-0.1l-0.5,0.1C21.1,47.1,20.9,47.1,20.7,47.1z"/>
						<path class="st1" d="M32.3,37.4c0.1-0.4,0-0.9-0.3-1.2c-0.2-0.1,0.1,0.2,0.2,0.6C32.3,37.1,32.2,37.6,32.3,37.4z"/>
						<path class="st1" d="M29.9,40.1c0.2-0.2,0.3-0.2,0.5-0.3l-0.2-0.2C30.1,39.8,30,39.9,29.9,40.1z"/>
						<path class="st1" d="M31.6,37.4c0-0.2-0.2-1-0.2-0.2C31.5,37.2,31.2,38.2,31.6,37.4z"/>
						<path class="st1" d="M18.3,42.2c0.1,0.1,0.2,0.1,0.3,0.2c0.1-0.1,0.2-0.3,0.3-0.5c-0.1,0.1-0.2,0.1-0.3,0.2
							C18.5,42.1,18.4,42.2,18.3,42.2z"/>
						<path class="st1" d="M22.4,27.3c-0.4,0.2-0.5,0.3-0.6,0.4l0,0l0,0c-0.2,0.2,0.1,0.2-0.7,0.6c-0.2,0.3,1-0.6,0.8-0.3
							c0,0,0.1-0.1,0.1-0.1l0,0l0,0C22.5,27.5,22.9,27.3,22.4,27.3z"/>
						<path class="st1" d="M21.8,28.1c-0.1,0.1-0.2,0.2-0.4,0.3C21.7,28.2,21.8,28.1,21.8,28.1z"/>
						<polygon class="st1" points="17.6,65.9 17.5,66.8 17.7,66.2 						"/>
						<path class="st1" d="M18,67.6l-0.3,0.2l0.3,0.5C17.9,68.2,17.9,67.8,18,67.6z"/>
						<path class="st1" d="M14.2,20L14.2,20C14,20,14,20.2,14,20.7C14.1,20.4,14.1,20.2,14.2,20z"/>
						<polygon class="st1" points="4.4,20.7 4.6,20.6 4.2,20.5 						"/>
						<path class="st1" d="M7,22.3c-0.4-0.2-0.8-0.3-1.2-0.5C6.6,22.1,6.9,22.6,7,22.3z"/>
					</g>
				</g>
			</g>
		</g>
	</g>
</g>
</svg>
