<?xml version="1.0" encoding="utf-8"?>
<!-- Generator: Adobe Illustrator 21.0.1, SVG Export Plug-In . SVG Version: 6.00 Build 0)  -->
<svg version="1.1" id="Layer_1" xmlns="http://www.w3.org/2000/svg" xmlns:xlink="http://www.w3.org/1999/xlink" x="0px" y="0px"
	 viewBox="0 0 841.9 595.3" style="enable-background:new 0 0 841.9 595.3;" xml:space="preserve">
<style type="text/css">
	.st0{fill:none;}
	.st1{fill-rule:evenodd;clip-rule:evenodd;fill:#E7E6E5;}
	.st2{fill-rule:evenodd;clip-rule:evenodd;fill:#442E7A;}
	.st3{fill:#FFFFFF;}
	.st4{fill-rule:evenodd;clip-rule:evenodd;fill:#9D8BC7;}
	.st5{fill:#FFFFFF;stroke:#442E7A;stroke-width:2.8346;stroke-miterlimit:10;}
	.st6{fill-rule:evenodd;clip-rule:evenodd;fill:#A09C98;}
	.st7{fill-rule:evenodd;clip-rule:evenodd;fill:#F6F5F5;}
</style>
<g>
	<g>
		<g>
			<path class="st0" d="M757-1c-72.2-15.3-145.6-21.2-217.3-18.7C468-17.3,398-6.7,331,10.4c-67,17.1-130.9,40.7-191.2,69.1
				C79.5,108,22.8,141.4-30.3,178.3l334.2,479.4c27.8-19.3,56.5-36,85.4-49.6c28.9-13.6,58-24.2,86.6-31.5
				c28.6-7.3,56.7-11.4,83.5-12.3c26.9-0.9,52.5,1.3,76.8,6.4L757-1z"/>
			<path class="st2" d="M163.6,441.8c2.9,3.4,3.5,3.3,2.2,0.6C165.4,442.6,161.8,438.2,163.6,441.8z"/>
			<path class="st2" d="M158.3,431.4c-0.2-1.3,3.9,4,2.2,0.5C159.2,430.9,155.5,426.3,158.3,431.4z"/>
			<path class="st2" d="M174.5,448.2c2.1,2.2-0.1-1.1,0.1-2.4c-2-2.5-1.9-1.8-2.9-2.8C172.4,444.9,173.7,446.5,174.5,448.2z"/>
			<path class="st2" d="M246.1,531.2c1.1,1.3,2.1,2.6,3.2,3.9c-2.1-3.8-0.1-1.3-1.6-4.2C244.7,527.1,244.1,527.2,246.1,531.2z"/>
			<path class="st2" d="M161.9,431.6c1.7,3,5,5.9,3.2,2.7c-2.5-3.8-1.2-1.1-4.2-4.8C161.9,431,162.9,432.5,161.9,431.6z"/>
			<path class="st2" d="M249.5,532.7c0.5-0.2,2.8,3.3,4.8,5.9c-1.9-3.4-4.2-6.8-6.8-10.1C248.2,530,248.9,531.4,249.5,532.7z"/>
			<path class="st2" d="M189.5,454.9c2.1,3.7,4.2,4.7,1.4-0.3C187.4,450.1,192.4,458.5,189.5,454.9z"/>
			<path class="st2" d="M260.5,539.7c0.5,0.3-0.2-1.4,1.1,0.9c1.8,2.3-1.4-3.3-1.6-4.3c2.7,3.8,4.1,5.3,5.8,6.9
				c-5.1-8.2-3.7-7.7-4.5-10.5c-0.6-0.2-0.3,1.2-3.3-2.8c3.5,5.6,1.8,3.4,2.9,6.3c-0.9-1.4-1.8-2.7-2.9-4c1.1,2.5,0.7,2.6-1.2,0.2
				C257.9,534.9,259.1,537.3,260.5,539.7z"/>
			<path class="st2" d="M193.7,457.4c1.1,1.3,2.2,2.6,3.3,3.9c-0.9-1.5-2.6-4.4-1.4-3.1C193.9,455.1,191.2,453,193.7,457.4z"/>
			<path class="st2" d="M177.6,428.6c1.3,1.1,1.1-0.2-0.4-3.4C176.2,424.5,174.3,423.5,177.6,428.6z"/>
			<path class="st2" d="M287.1,560.1c2.3,3.1,2.5,2-0.1-2.3C286.8,558.3,286,557.5,287.1,560.1z"/>
			<path class="st2" d="M184.1,429.3c0.9,0.4,4.8,5.4,1.8-0.4C184.5,427.7,183,426.4,184.1,429.3z"/>
			<path class="st2" d="M243,491.7c1.8,1.7-1.1-3-1.6-5.4c-0.4-0.2-0.8-0.5-1.9-1.9C243.4,491.2,239.2,485.9,243,491.7z"/>
			<path class="st2" d="M181.2,413.5c-1.9-3.4-3.1-3.1-6.5-7.8C177,410.4,179.5,411.8,181.2,413.5z"/>
			<path class="st2" d="M191.8,419.2c0.3-0.6,2,1.1,0.5-2.5c-1.7-1.4-2.3-1.1-4.6-3.6C188.3,415.3,191.2,417,191.8,419.2z"/>
			<path class="st2" d="M280,530.8c3.6,6.4,1.5,1,2.4,1.9C279.5,527.4,280.8,531.5,280,530.8z"/>
			<path class="st2" d="M268.3,508.9c-2.7-3.9,0.6,2.4-2.9-2.9c1.3,2.8,3,5.6,4.9,8.3C267.6,509,271.3,514,268.3,508.9z"/>
			<path class="st2" d="M311.9,568c1.9,2.4,3.6,4.3,2.2,0.8C313.2,568.2,311.6,566.4,311.9,568z"/>
			<path class="st2" d="M151.3,362.1c2.7,3.6,1.5,1,3.7,3.8c-1-2.9-3.2-5.5-5.4-8.1C150.1,359.2,150.7,360.6,151.3,362.1z"/>
			<path class="st2" d="M172.1,386.4c3.2,4.2,2.9,2.9,4,3.7C174.3,386.9,169.5,381.5,172.1,386.4z"/>
			<path class="st2" d="M157.1,364.1c0.8,1,0.6,0.5,0.4-0.1c4.7,4.8,3.1-0.7,7,3c-1.3-3.6-3.9-6.9-5.5-10.5
				c-2.7-2.8,1.5,3.7,0.5,3.4c-2.3-2.5-3.3-5-4.1-4.9c3.4,5.6,1.4,4.4,2.7,7.6c-2.8-3.8-2.5-2.5-4.5-4.8
				C154.1,360.1,156.7,361.9,157.1,364.1z"/>
			<path class="st2" d="M280.6,516c-1.1-1.2-1.6-3.9-1-3.3c-2.8-5.5-0.1,1-2.6-3c0.8,2.5,2.5,4.9,3.7,7.4c1.6,2,2.6,2.9,3.6,4
				C282.9,517.7,281,515.9,280.6,516z"/>
			<path class="st2" d="M86.2,276.3c2.1,2,5.8,6.5,3.3,1.4C88.1,276.8,85.3,273.7,86.2,276.3z"/>
			<path class="st2" d="M81.5,269.2c1.9,3.7,3.4,3.3,2.1,0.6C79.6,264.4,82.9,270.6,81.5,269.2z"/>
			<path class="st2" d="M89.5,276.5c-1-2.5-2.7-4.8-3.9-7.3c-1-0.9-0.6,0.4-1.7-0.7C85.4,271.2,87.4,273.9,89.5,276.5z"/>
			<path class="st2" d="M281.3,513.6c3.6,6.5,2.4,1.8,4.7,5C282.4,511.6,281.5,512.9,281.3,513.6z"/>
			<path class="st2" d="M39.9,213c1.4,1,0.5-2.3-1.7-8C38.7,207.4,37.4,207.1,39.9,213z"/>
			<path class="st2" d="M290.7,519.1c-1.9-3.4-5.2-7.8-3.6-4C288.9,518.3,293,524,290.7,519.1z"/>
			<path class="st2" d="M120.2,302.5c3.1,3.8,3.3-0.2-1.3-5.6C121.7,302.6,119.4,300,120.2,302.5z"/>
			<path class="st2" d="M173.4,364.7c3.4,5.5,5.1,5.1,2.6-0.6c-1.2-1.3-1.8-2.7-2.4-4.1C169.8,355.3,176.2,367.6,173.4,364.7z"/>
			<path class="st2" d="M72,241.7c3.9,4.7,4.7,4.3,3.8,1.3C75.7,244.4,70.5,237.7,72,241.7z"/>
			<path class="st2" d="M295.4,521.9c0.4,0.3,0.8,0.6,1.5,2.1c-1.7-4.9,2.9,1.6,1.2-3.5C297,521.3,289.5,509.2,295.4,521.9z"/>
			<path class="st2" d="M131.5,304.2c3.2,4.4,0-1.8-0.5-3.5c-0.4-0.2-0.9-0.4-2-1.8C130,300.6,130.8,302.4,131.5,304.2z"/>
			<path class="st2" d="M298.4,520.4c1.7,3.9,1.1,1.2,2.9,4.1c-3.8-6.4,0.3-0.5-1.8-5.4c-3.4-5.5,1.7,4.6-1.7-1
				C298.5,519.9,299.1,521.4,298.4,520.4z"/>
			<path class="st2" d="M301.3,522.3c1.9,1.6,6.6,9.8,4.8,5c-2.8-3.4-3.6-7.1-6.3-10.5C303.8,524.3,299.7,518.4,301.3,522.3z"/>
			<path class="st2" d="M105.5,259.7c1.7,0.9,1.1-2.7-2.9-7.6C103.8,255.6,103,254.8,105.5,259.7z"/>
			<path class="st2" d="M306.5,521.7c3.2,4.7,1.6,0.6,3,2c1.6,2.4,2.6,4.9,3.5,7.5c2.6,2.8-3.1-7.8-1-6.6c-2.7-4.5-1.6-2.5-4.3-6.3
				c1.5,4.1,0.9,1.2,3.3,5.3C310.1,524,305.4,517.4,306.5,521.7z"/>
			<path class="st2" d="M209.8,379c2.5,2.9,0.8-1.9-0.9-5.7C207.8,373,206.9,373.2,209.8,379z"/>
			<path class="st2" d="M155.4,307.6c0.9,0.2,1,1.4,3.2,4c-1.1-2.5-2.7-4.9-4-7.3C153.6,303.2,154.9,306.1,155.4,307.6z"/>
			<path class="st2" d="M180.5,316c1.4,0.7,2.5,1.2,0.8-3.7C181.6,314.4,177.7,310.5,180.5,316z"/>
			<path class="st2" d="M99,196.4c2.1,2.6,1.9,1.3,3.3,2.7c-0.4-2.3-3.5-3.9-4-6.1C97.3,192,98.6,194.9,99,196.4z"/>
			<path class="st2" d="M55.2,143.4c2.4,2.3,1.9-0.4,0.4-5C55.2,139.7,52.7,138.9,55.2,143.4z"/>
			<path class="st2" d="M217.5,343.7c1,1.4,2,2.8,3,4.1c-0.8-1.6-1.5-3.2-0.7-2.2C218.4,342.3,215.8,339.9,217.5,343.7z"/>
			<path class="st2" d="M91.4,171.9c2.9,3.2,1.6-1.1,5.8,4.5c-1-2.6-2.9-4.9-4.3-7.3c-0.5-2.1,2.6,1.4-0.2-3.6
				c-1.4-1.4,0.7,3.5-2.2-0.6C94.3,172.4,89.7,166.8,91.4,171.9z"/>
			<path class="st2" d="M208.4,318.5c0.3-0.1,1.8,2.2,1.5,0.9c-0.9-3.1-3.9-7.6-4.5-7.4C205.7,314.4,208.2,316.2,208.4,318.5z"/>
			<path class="st2" d="M102.2,164.3c3,5.3,6.7,6,3.2-0.8C104.7,164.5,105.3,167.8,102.2,164.3z"/>
			<path class="st2" d="M80.1,127.9c2.5,3,2.8,1.8,1.2-2.8C81,126.3,79.2,124.6,80.1,127.9z"/>
			<path class="st2" d="M122.5,178.3c1.2,0.7,3.5,3.4,2.2-0.5C123.2,176.6,121.7,175.4,122.5,178.3z"/>
			<path class="st2" d="M135,185c1.5,1.8,0.6-1,2.1,0.7c-0.7-1.8-2.2-3.5-3.4-5.2C134.1,182,134.5,183.5,135,185z"/>
			<path class="st2" d="M136.6,181c2.6,3.7,1.2-0.3,2.9,1.7C138.6,180.3,134.4,175.7,136.6,181z"/>
			<path class="st2" d="M240.7,323.6c-0.1-0.7-0.6-1.5-1-2.2c-0.3-1.1,1,1,1.8,2.1c-0.2-1.3-3.4-7.7-1.6-5.6c-1.2-4-1.6-1.1-2.5-4.3
				C237.1,314.3,237.3,318.7,240.7,323.6z"/>
			<path class="st2" d="M239.2,315.6c1.3,2.2,1.1,1.1,0.8-0.1c1,1.4,1.9,2.8,2.4,4.3c0.9,1.1-0.2-1.9-0.6-3.4
				c-1.2-1.8-2.4-3.5-3.5-5.3C239.8,315.1,238.1,312.5,239.2,315.6z"/>
			<path class="st2" d="M253.4,335.6c1.2,1.3,1-0.1,0.5-2.4C251.5,329.4,252.3,332.2,253.4,335.6z"/>
			<path class="st2" d="M155.8,192.2c1.6,1.1-2.3-6.5-3.9-8.7C150.8,183.7,154.4,189,155.8,192.2z"/>
			<path class="st2" d="M147.6,179.7c2,1.5,5.3,4.3,1.7-4C149.3,178.2,144.8,171.7,147.6,179.7z"/>
			<path class="st2" d="M156.8,190.8c0.3-1.1,1.9,0.6,1.1-2.6c-1.3-1-1.5,0.3-3.3-1.7C155.2,188,156.4,189.3,156.8,190.8z"/>
			<path class="st2" d="M169.7,208.4c0.8-2.5,3.1,1-3.7-9.9C166.6,201.8,168.3,205.1,169.7,208.4z"/>
			<path class="st2" d="M258,332.7c2.1,3.1,2.7,3,1.9-0.3C258.9,331.7,256.9,328.8,258,332.7z"/>
			<path class="st2" d="M271.7,341.4c-1.1-6.5,2.7-1.6-0.1-10.4c-1.2,0.5-2.3,1.3-2.2,4.9c-0.9-1.4-1.1-2.9-1.6-4.4
				C264.8,327.8,268.7,336.5,271.7,341.4z"/>
			<path class="st2" d="M177.4,194.9c2.6,2.7-3.6-8.5-1.5-5.6C172.6,182.2,175.9,192.6,177.4,194.9z"/>
			<path class="st2" d="M177,191.5c1.3,1.3,1.9,0.9,0.4-3.6C176.1,186.7,176,188,177,191.5z"/>
			<path class="st2" d="M276.4,331.7c0.9,1.4,1.8,2.9,2.7,4.3c-0.4-1.9-1.4-3.7-1.8-5.5C277.2,331.4,275.5,328.7,276.4,331.7z"/>
			<path class="st2" d="M204.3,216.1c-0.9-2.6-2.6-5.1-2.9-7.8C199.8,207.2,202.4,215.7,204.3,216.1z"/>
			<path class="st2" d="M191.4,112c3.9,6.4,1.5-1.5-0.2-5.9C190.5,106.2,191.1,109.4,191.4,112z"/>
			<path class="st2" d="M216.6,111.7c2.7,4-1.4-5.8,1.7-1.4c2.2,4.2,0.3,3.1,1,5.7c2,2.4,1.5-0.9-0.1-5.9c-0.8-0.3-1.5-1.4-2.7-4.3
				c-1.2-5.8,3.2,2.6,1.7-3.8c-0.6,0-0.6,1.3-3-3.1c0.9,5.8-1.3,3.7-3.3,0.5C213.5,103.5,216.3,107.4,216.6,111.7z"/>
			<path class="st2" d="M224.6,108.2c0.9,1.5,1.8,2.9,2.7,4.4c-0.7-4.2,0.2-2.1-1.2-6.9c-2.3-3.8,0.1,6.2-2.3-2.1
				C222.2,101.1,224.3,107.2,224.6,108.2z"/>
			<path class="st2" d="M230.3,113.4c-1.2-3-1.5-6.1-2-9.1c-0.7-1.1-1.3-2.2-2-3.3c0.3,1.5,0.2,1.8-0.3,1.2c1.6,4.3,1.4,2.9,1.4,5.7
				C228.6,109.7,229.1,111.6,230.3,113.4z"/>
			<path class="st2" d="M235.8,117.4c-0.9-4.4,1.3-0.9,0.6-4.8c-2-2.5-1,2.9-4.3-3C233.5,114.7,233.6,112.5,235.8,117.4z"/>
			<path class="st2" d="M235.3,105.8c0.3,2.7,1,5.4,2.7,7.9c0.2-0.3,0.4-0.7,0.1-2.4C237.4,109.4,236.4,107.6,235.3,105.8z"/>
			<path class="st2" d="M237.3,109c1.1,1.8,1.6,3.7,2.8,5.5c-0.2-1.8-1.6-4.9-0.6-3.4c-0.5-1.9-1.8-3.7-2.8-5.6
				C236.9,106.7,237.1,107.9,237.3,109z"/>
			<path class="st2" d="M235.3,99.9c0.7,2.4,5.2,9.1,4,4.2C237.8,102.1,235.6,98.5,235.3,99.9z"/>
			<path class="st2" d="M253.1,109.6c-1-4.3,0-3.1-0.4-5.8c-2.1-4.3-0.8,1.1-2.9-3.2C250.5,103.6,251.1,106.7,253.1,109.6z"/>
			<path class="st2" d="M259.2,105.5c1.6,2.7,2.2,2.6,1.9-0.2c-0.8-1.5-1.7-3-2.5-4.5C258.8,102.4,259,103.9,259.2,105.5z"/>
			<path class="st2" d="M264.1,106.2c1.4,1.3,2.4,1.2,3.6,2c-0.2-2.7-3.3-5.2-3.4-7.9c-1-1.1,0.2,2,0.5,3.5
				C264.7,105.1,262.9,101.3,264.1,106.2z"/>
			<path class="st2" d="M262.8,93.4c1.2,2,0-3.3,1.3-1.3c-1.6-4.2-2.4-4.8-3.6-5.5C260.9,88.9,262.7,91,262.8,93.4z"/>
			<path class="st2" d="M274,109.9c-0.8-6.7,2.8-0.4,4.2-0.3c-1.4-7.1-4.3-7.7-6.9-13.5c1.9,6.5,2.5,7,1.6,9.2
				c-2.7-4.8-3.7-8.4-4.8-7.8C270.2,104.1,271.2,105.3,274,109.9z"/>
			<path class="st2" d="M269.3,95.1c1.6,1.5,1.6-1.5,3.5,0.9C271.6,92.8,268,88.4,269.3,95.1z"/>
			<path class="st2" d="M272.4,89c1.1,2.2,1.1,1,2.3,3.3c-0.5-3.5-2.9-6.8-3.1-10.3c-0.7-0.7-0.9,0.4-0.7,2.4
				C273.1,88,272.2,85.3,272.4,89z"/>
			<path class="st2" d="M279,87.3c1.3,2.8,1.5,2.2,2.3,3.4c-1.1-2.7-1.3-5.4-2.8-8C279.8,86.9,278.6,84.1,279,87.3z"/>
			<path class="st2" d="M367.1,107.9c2,3.8,2.5,0.8,2.7-3.5c-1.4-1.9-3.2-5.3-4.4-5.9C365.7,101.7,366.5,104.8,367.1,107.9z"/>
			<path class="st2" d="M384.9,86.2c1.5,4.8,1-0.6,1.9,1.2C386.5,84.1,384.3,81.2,384.9,86.2z"/>
			<path class="st2" d="M409.9,92.1c0.9,4.7,2.9,4.8,2.8,0.2C411.4,90.5,410.8,92.2,409.9,92.1z"/>
			<path class="st2" d="M421.6,94.1c0.5-3.3,2.6-3.3,2.1-8C422.6,85.8,420.7,87.1,421.6,94.1z"/>
			<path class="st2" d="M442.7,84.2c1.3,2.8,1.7,0.1,2.8,1.5C445,81.9,442.7,78.9,442.7,84.2z"/>
			<path class="st2" d="M468.8,101.3c-0.2-2.8,0-5.5-0.3-8.2c-0.6-0.9-0.9,0.2-1.1,2.2C468.1,97.3,468.1,99.2,468.8,101.3z"/>
			<path class="st2" d="M557.9,509.7c1,3.5,1.6-7.1,2.6-3.5C559.9,497,558.7,506.1,557.9,509.7z"/>
			<path class="st2" d="M560.6,502.6c0.5,3.9,0.8,2.9,1.1-1.9C561.3,499.7,560.9,500.3,560.6,502.6z"/>
			<path class="st2" d="M509.9,80.4c0.1-2-0.1-4-0.6-6c1.6,0.3,2,0.9,3.6-1.7c-1.8-3.3-3.4-3.6-4.7-0.9
				C509.2,74.8,509.1,77.5,509.9,80.4z"/>
			<path class="st2" d="M518.3,98.6c-0.2-3.6,0.6-7-0.4-10.8C517,87.8,517.3,94.7,518.3,98.6z"/>
			<path class="st2" d="M514.9,75.4c-0.1,2,0.6,4.1,1,6.2c0.5-2.3,0.6-4.6,0.5-7C515.8,72.3,515.7,79.3,514.9,75.4z"/>
			<path class="st2" d="M570.7,56.2c0.9,2.4,1.3-3,1.7-5.6c-0.5-0.9-1,0.1-1.5,2.1C571.2,53.9,570.8,55,570.7,56.2z"/>
			<path class="st2" d="M574.5,41.4c0.6,2.3,1.6-5.1,1.6-6.9C575,34.2,574.5,37,574.5,41.4z"/>
			<path class="st2" d="M578.7,49.7c2,3.5,4.2,0.1,6.3-0.8c-0.3-5.8,1-4.4,1.9-8C584,40.9,581.9,47.7,578.7,49.7z"/>
			<path class="st2" d="M586,46.8c0.8,3.4,1.8-1.7,2.8-2.9C588,41.3,587.1,41.4,586,46.8z"/>
			<path class="st2" d="M589.8,44.1c1,0.3,1.8,3.1,2.9,0.8C592.6,40.8,590.9,38.2,589.8,44.1z"/>
			<path class="st2" d="M592.1,53.2c1.2,0.6,1.6,3.1,2.2,5.4c0.8-4.9,1.3-5.1,0.9-11.9C594.8,54.9,593.2,49.1,592.1,53.2z"/>
			<path class="st2" d="M605.9,33.9c-0.3,0.7-0.2,1.5-0.1,2.4c0.1,0.9,0.2,1.7,0.4,2.5c1-5.5,3.2,0,5.1-7.1c-0.3-1.3-0.2-2.5,0-3.7
				c-1.3,2.9-2.4,2.1-3.8,6.2c-0.9-6.2,0.8-4.1,1-9.5c-0.4-4-1.5,7.1-1.9,3.1C606,29.3,607.1,36.8,605.9,33.9z"/>
			<path class="st2" d="M612.5,30.9c0.8-0.3,0.4,7.9,1.5,7.8c-0.1-4.9,0.2-7.7,1.6-9.3C614.8,26.4,613.6,29.1,612.5,30.9z"/>
			<path class="st2" d="M614.7,23.1c1,3,2.4-1.1,3.8-3.8C616.9,16.9,616.4,20.9,614.7,23.1z"/>
			<path class="st2" d="M625.9,25.1c0.4-1.9-0.4-4.2,0.2-6.1c-1.6-0.8-4.1,10.8-5.3,3.4C620,35.6,624.6,20.3,625.9,25.1z"/>
			<path class="st2" d="M620.7,17.4c1.5,4,3.8-3.2,5.8-6.9C625,5.9,622.6,14.4,620.7,17.4z"/>
			<path class="st2" d="M626-0.6c-0.6,6.4,1.9-0.1,2.7-1.6C628.1-5.8,626.7,1.9,626-0.6z"/>
			<path class="st2" d="M626.5,6.8c1.3,2,2.4,6.2,4.6-2.3C629.2,9.7,628.3,1.4,626.5,6.8z"/>
			<path class="st2" d="M633.1,17.5c-1-6.1,1.2-10.9,1.9-8C635.3,14.3,633.9,15.5,633.1,17.5c0.2,5.9,1.5-2.2,1.8,3
				c1.3-10.6,5.7-21.6,7.7-25.9c0.7-8.5-4.1,5.8-4.6,10.9c0.4-7.1-1.8-1.9-0.6-8.8c-2.5,7-4.9,15.7-8.3,26.9
				C629.9,27.5,631.4,23.1,633.1,17.5z"/>
			<path class="st2" d="M640.9,6.4c-0.4,1.9,0.1,4.1,0.2,6.2c0.7-0.8,1.8-5.1,2.4-4.1c0.3-2,0.1-4.1,0.8-5.9
				c-0.4-1.3-0.9-1.5-1.3-2.8C642.1,2.7,642,10.3,640.9,6.4z"/>
			<path class="st2" d="M643.1,16.9c0.8-0.4,2.8-3,2-8C643.9,11.4,643.9,14.3,643.1,16.9z"/>
			<path class="st2" d="M645.9,3c-1,5.6,1.1,0.8,1,5.3c0.7-4.5,0.4-4.8,1.7-6.9C648.2-2.5,646.7,3.6,645.9,3z"/>
			<path class="st2" d="M146.4,430c-1.9-2.2-2.6-4.8-4.9-6.9c1,2,0,1,1.1,3.2c1.8,0.1,11.6,17.9,4.3,4.7c2.1,0.4,2.4-1.9,7.3,2.7
				c-2.3-4.6-1-3.1,1.9,0.6c-0.7-1.3-2-2.6-2.7-4c-0.7-2.3,2.8,3.7,4.2,4.7c-3.1-4.8-2.3-4.3-6.6-12.4c-1.8-1.6,0.5,3.1,1.4,5.5
				c-4.3-5.4-2.3-1.5-2.3-0.5c-7.3-8.7-5.6-3.1-9-6.9c2.1,4.5,6,7.1,6,6.6C149.6,432.3,143.6,424.8,146.4,430z"/>
			<path class="st2" d="M186.3,462.7c2.6,2.3,2.8,1.1,2.7-0.7c-1.9-1.8-2.8-4-4.6-5.8C189.7,464.7,184.9,459.3,186.3,462.7z"/>
			<path class="st2" d="M191.2,462.6c0.5-0.1-0.9-2.6-3.1-5.1c-0.4-1.1,1.1,0.9,2,1.9c-0.9-2.5-2.6-4.8-3.7-7.3
				c1.1-0.1,3.3,1.4,1.8-2.8c7.9,9.9,3.3,0.6,6.4,3.1c5.1,8.1,0,3.4,4.5,10.6c-0.2-3.7,5.5,3.2,2.5-5.3c3.3,4.3,6.1,8,3,1.6
				c3.3,4.3,6.2,9.4,6.6,11.3c2.1,2.8,0.2-0.6,1.5,0.8c-2.5-3.3-3.5-6.9-6.4-10.1c4.5,5,0.9-2.9,2.9-1.9c1.2,4.7,3,9.3,2.9,9.8
				c5.2,7.3,0.5-3.6,0.3-5.9c3.4,5.3,3.6,3.5,3.8,2.7c-0.7-1.4-1.9-2.7-2.5-4.1c-0.2-0.7,0.3-0.1-0.1-1.1c1.1,1.7,1.9,3.4,3.3,5.1
				c1.5-0.2,0.3-4.7,1.1-6c0.7,1,1.2,2,2,3c-0.2,2.5,1.6,6.2,1.7,8.9c4,4.4,2.7,0,5.4,2.3c-1.9-3.8-1.3-1.1-3.2-3.9
				c-1.3-2.6-0.7-2.1-1.1-3.3c2.6,2.8,5.3,8.2,6,8c-0.7-1.8-1.9-3.4-2.6-5.2c-0.8-0.9-0.1,0.5,0.1,1.1c-1.8-2.3-6.7-10.4-3.2-4
				c-4.4-5.3-4.7-8-3.5-7.3c1.1,3.3,3.2,3.4,5.3,8.1c1.6,1.8-2.4-5.6-1.2-4.4c2.9,3.8,3.4,6.8,3.2,7.4c1.3,2.8,3.7,5.4,5,8.2
				c2.2,2.5-0.1-2.4,2.4,0.7c2.7,4.5,1.3,3.3,4,8.4c4.2,5.8-0.1-2.3,3.7,2.7c-2-3.8-1.8-1.6-4.7-6c0.6,0,0.6-0.8,2.1,0.7
				c-3.3-4-4.3-6.5-7-11.3c-0.2-0.7,0.3-0.1-0.1-1.1c2,1.9,2.1,4.2,4.1,6.1c-3.4-6.9,3.5-2.8,8,5.3c-1.8-3.9-0.1-2-2.7-6.4
				c2.7,2.9,4,6.1,6.4,9.1c-1.4-0.9,0.3,3.5-1.8,1.5c3.2,4.4,5.4,4.6,5.2,2.4c1.5,2,2.2,4.2,4,6.1c-1.2-3.3-2.6-7,1.8-1.4
				c-3.1-5.3-1.9-4.7-5.8-10.4c3.1,4.4-0.2-2.5,3.2,1.7c-4.9-7.5-0.5-3.4-3.6-8.5c3,2.9,3,6.3,5.6,9.3c-2-4.3-1.6-4.6-0.4-3.4
				c1.5,2.4,2.7,4.9,4.1,7.3c-0.1,3-4-0.6-2.1,4.9c2.7,3.9-0.6-2.4,3,2.9c-4.8-12.2,8,5.9,4.4-4.1c8,10.1,5.3-1.7,12.6,9.4
				c1.1,0.7,1.7,0.7,3.1,1.8c-4.2-8,0.2-2.4-0.1-4.5c1,1.7,1.8,3.5,3.1,5.2c-3-5.5-2-5.9,0.5-1.2c-1.8-6.6,5,2.4,4.6-1.7
				c-2.1-2.9-2.3-4.9-2.8-6.4c1.6,2.4,2,5,3.6,7.4c4.3,5,2-2,3.2-2.7c4.3,8,6.2,8.1,3.7,2.9c2.4,3.8,1.3,1.2,3.2,4.1
				c-5.5-11.8,6.5,4.4,2.9-5.9c7.6,11.7-0.1-8.1,7.2,3.7c-1.1-1.1-0.7,0.6-0.8,1.2c3.4,5.8,0.6-2.7,3.1-0.3c1,1,6.1,7.3,2.8,0.8
				c-1-2.5,2.3,3.2,3.1,4.2c-1.1-4.4,1.9-0.7,0.5-5.6c3.3,4,5.4,2.5,7.6,2.8c4,1.3,7.8,2.4,11.5,3.4c3.7,1,7.3,1.9,10.8,2.6
				c7,1.3,13.7,2.4,20,2.7c3.1,0.1,6.3,0.3,9.3,0.3c3,0,6-0.1,8.9-0.4c2.9-0.2,5.7-0.5,8.5-0.9c2.8-0.4,5.5-1,8.2-1.5
				c5.4-1,10.6-2.6,15.8-4.2c2.6-0.8,5.1-1.7,7.7-2.7c2.5-0.9,5.1-1.8,7.6-2.8c5-2.1,10-4.1,14.9-6.3l14.9-6.5
				c1,2.8,1.3,5.5,1.8,8.2c-2.5-3.9-3.8-2.1-4.9-0.3c-1.2,1.9-2.3,3.9-4.8,0.6c1,4.8,0.7,4.2,0.5,5.6c-0.7-2.3,0-1-0.5-3.4
				c-1.2-2.8,0.5,5.9-1.6-0.3c0.4,3,1.7,6.2,2.1,9.3c-4.3-11.3-5.5-7.4-5.6-1c-1.9-1.7-4.3-5.1-4,1.5c-0.5-1.2-0.8-2.3-1.1-3.5
				c-0.3,7-5.9-1.3-4.7,8.1c-1.3-3.1-1.3-4.3-1.9-4.7c0.3,1.5,1,3.1,1.6,4.6c-2.5-3.6-3.3-1.7-4.1,0c-0.8,1.7-1.7,3.2-4.6-1.3
				c2.1,7.6-1.6,0.7-2.3,0.8c-1.2,0.2,0.5,8-2,2c0.6,5.1-0.3,5.5-3.3-0.4c0.1,2.2,1.8,4.6,1.9,6.8c0.7,2.7-2-3.6-2-4.6
				c1.3,6-1.2,0.7-0.7,4.3c-0.8-1.6-1.2-3.1-1.5-4.6c1.1,6.1-1.2,2.1-1,5.4c-3-8.6-0.4-0.9-2.4-4.7c1,3,1.6,5.6,1.2,5.6
				c-0.7-1.9-1.5-3.8-2.3-5.7c2.3,8.6-2.9-2.9-1,6.5c-0.9-1.9-1.6-3.8-2.1-5.7c-0.6,2.8-5,0.9-3.4,6.3c-0.3,1.3-3.8-6.1-1.7,2
				c-2.7-5.3-5.1-8.3-3.3-2.5c-3.2-1.8-5.3-0.8-7.4,0.1c-2.1,0.9-4.3,1.8-7.7,0.1c0.3,1.5,1.1,3,1.5,4.4c-1.7-3.2-1.4-2-3.5-5.6
				c0.1,3.8-2.2,2.6-4.3,1.8c-2.1-0.8-4.1-1.1-3.5,4.6c-1-1.8-1.7-3.7-2.7-5.5c-0.8,1.3-0.8,4.5-3.1,2.1c1.4,3.2,5.8,12.7,5.7,15.5
				c-2.2-4.4-3.1-7-4.6-8.8c-1.7-3.4-2.6-7.9-0.4-3.3c-1.8-5.4-4.2-7.6-1.8-2.2c-5.3-8.2-1.8,4.1-7.4-4.4c2.9,7.7,0.7,5.3-2.9-1.1
				c0.3,1.5,1.1,2.9,1.9,4.4c-3.2-3.5-3.5-0.5-6.9-4.4c0.7,1.8,1.7,3.7,2.3,5.5c-4-3.5-3.5,4.7-9.9-5.2c0.4,1.1,1.1,2.2,1.6,3.2
				c-3.5-1.7-4.2,2.3-10-4.1c0.5,5.1-4.7,0.9-7.4,0.4c0.7,2.5,2.6,5,3.3,7.6c0,0.5,0.1,1-0.6,0c-5.3-12-4.5-5.3-6.9-8.5
				c2.6,5.9,1.2,1,3,4.3c2.5,4.6,1,3.4,1.2,4.3c-7.9-13.8-5.5-5-9.8-10.5c0.7,2.5,2.6,5,3.3,7.5c0.3,0.9-1.1-1.4-0.6,0.1
				c-1.1-1.8-1.6-3.6-2.3-5.4c-1.9-2.8-2.3-2.7-0.8,1.2c1.1,2.1,2.7,4.2,3.3,6.4c1.4,2.1-0.2-1.6,2,2.1c1.7,4.4-1.8-1.5,0.7,4.4
				c-3.7-6.2-2.6-3.2-3.7-4.2c-2.8-5.3,1.5,1-0.3-3.3c-4.6-7-1-2.8-2-5.4c-5.3-7.5-0.7,1.2-4.9-4c0.8,2.2,2.6,4.2,3.6,6.4
				c0.4,1-0.5-0.5-1-1c1.2,2.8,1.9,3.9,2.5,4.2c2.4,6.1,0.4,3.9,2.7,9.8c-1.6-2.1-1.9-2.3-3.9-6.3c-0.6,0.1,3.4,9,0.8,5.5
				c-1.5-2.1-1.8-4.3-2.7-6.4c-2-2.9,0.4,2.6,2,5.4c1.3,3.3-3.1-4.3-1.9-1c-1.3-2.1-1.9-4.3-3.6-6.4c3.6,8.2,2.4,10.4-1.9,2.4
				c-0.3,0.7-2.9-3-0.2,3.4c-5.4-8.4-1.2,1.7-5.8-6.2c6.1,12.8-6.4-6.3-2.3,3.6c-2.8-2.6-2.2,0.8-5.5-2.8c-2-2.9,0.6-0.4-2.3-4.2
				c3.5,10.1-6.1-3.2-4.9,2.8c1.4,2,1,0.9,2.5,3.1c0.9,1.4,1.4,2.8,2.4,4.2c-1.4-0.8-5.2-5.8-6.3-6c1.3,2.6,1.4,2,2.2,3.1
				c2.4,3.8-1.2-0.8,1.5,4.3c-1.6-2.8-2.4-3.8-3-4.1c6,12-4.7-3.7-1.2,4.7c-2.1-2.7-3.7-5.5-4.8-8.3c-2.6-3.7-0.8,0.2-2.4-1.9
				c0.8,1.7,2.3,3.4,3.4,5.1c2.1,4.5,1.1,3.4,1.2,4.3c-1.4-2-2.5-4.2-3.3-6.3c1.3,4.2-1.9,0.7-2.6,1.5c-1.4-2.1-2.1-4.2-3.9-6.2
				c5.7,10.9-1.9,4,0,9c-3.4-5-3.8-3.5-5.5-8.2c-1.3-1,0.3,1.8,2.3,5.3c-0.2,0.8-6.7-9.8-4.8-4.9c2.4,3.5,0.6-0.1,2.1,1.9
				c0.4,1.1,1,2.1,1.7,3.1c-1.7-0.1-6.8-5.7-3.3,2.8c-3.4-5.7-3.1-5-6.8-10.2c1.4,3.2,3.9,6.1,6,9.2c4.3,8.5-4.6-4.7-1.2,2.5
				c-3.2-3.6-4.2-7.6-7-11.2c1.7,3.8,4.3,7.5,6.4,11.3c1.7,3.8-3-3.8-2.2-1.9c-1.2-1.7-1.8-3.4-2.7-5.2c-1.4-1.3-0.4,1.8,2.1,5.3
				c-5.3-6.7-1.4-0.5-6.9-7.9c1.5,4.2,0.4,2.7-2.2,0.4c1.5,2.7,3.8,5.4,4.7,8.2c1.3,1.7,2.6,3.3,3.9,5c0.6,0-3-5.4,0.9-0.2
				c-0.5-1.4-1.5-2.8-2.5-4.1c1.1,0.1,2.7-2.7,8.4,7.6c1.8,2.3-1.3-3.3-1.6-4.2c3.1,4.1,4.7,7.6,5.2,9.3c1.1,1.2,2.3,0.4-1.3-4.3
				c-0.3-1.7,3.1,2.7,0.1-3.4c1.7,2.4,2.3,4.9,3.9,7.3c3,4.1-0.3-4.2,4.7,4.9c1.8,2.4-1.4-3.3-2.2-4.2c0.4-0.3,1.2-0.1,3.5,2.8
				c-0.9-1.7-2.1-3.4-2.9-5.2c-0.7-1.8,1.1,0.6,0.4-1.2c1,1.7,2,3.4,2.9,5.2c-1.3-4.5,0.3-4.2,2.7-2.6c2.1,2.9-0.3,0.4,1.9,4.2
				c2.2,2.9-0.1-1.8,3.2,2.9c0.8,2.4,0.3,2.7-3-1.8c4.7,8.8-2.9-1.1-0.5,4.5c3.5,2.4,3.8-0.2,6.5,1.4c-1.9-3.8-1.2-1.2-3-4.1
				c-2.5-5.9,6.2,8.8,3.7,2.9c-0.9-1-1.2-1-2.1-1.9c-2.8-5.5,1.5,1.2-1.3-4.3c1.4,1.7,2.1,3.5,2.9,5.2c0.5,0.4-0.3-1.4,1.3,0.9
				c-3.9-7.2,1-3.4,3.4-1.5c3.1,5-2-2.2,0.3,2.2c1-2,2.8-2.6,6.6,0.3c1.1,1.7,1.7,3.5,2.5,5.3c3.6,5.2-0.1-2.2-2-5.3
				c0.2-1.3,3.5,6.2,5.6,8.3c-0.6-2.5-3.3-4.8-4.3-7.3c1.4,0.2-1-6.3,4.2,0.7c-3.7-7.4-1.2-4.1-1.8-6.5c1.7,2,2.5,4.2,4.1,6.3
				c-1.6-4.6,0-3.6,1-3.4c2.4,4,0.7,2.7,0.7,3.2c3,4.2,2.4,1.1,0.7-3.4c1.9,2.4,2.6,4.9,4.5,7.3c1.5,3.5-0.6,0.8,1.9,5.4
				c2,0.2,1.6-2.8,0-8.9c2.5,3.1,2.9,6.4,5.3,9.5c1.2-0.7,2-2.2,6.8,3.9c-2.9-7,0.6-1.3,1.7-0.1c-0.9-2.2-2.4-4.2-3.1-6.4
				c4.8,7,1.3-4.8,6.6,5.1c1.1-1.3,6.8,4.9,4.9-1.4c3.9,6,1.5-0.6,6.4,7.4c-2.5-6.1,0.8-0.7-2-7.6c1.6,2.1,2.3,4.3,3.8,6.5
				c3.3,0.1,5.2-2.7,11.6,4.1c-1.3-2.8-2.2-5.4-2.7-5.4c4.5,3.8,8.5,6.8,8.9,2.2c-0.7-2.8,3.7,5.3,3.9,4.4c-0.6-1.5-1.5-2.9-2-4.4
				c1.8,2.2,4.1,4.9,3,0c1.3,2.2,2.5,4.4,3.8,6.6c0-6,4.6-1.7,8.5,1.4c-0.4-1.1-1-2.2-1.3-3.3c3.3,2.4,5.6,2.4,7.7,2.1
				c2.1-0.3,4.2-0.7,7,0.8c-2.2-7,3.5-0.6,5.3-0.7c1,0,0.1-4.4,3.1,1.3c-0.4-1.5-0.8-2.9-1.3-4.4c3.7,8.3,0.4-3,4.3,4.8
				c-1-7.9,5.7,1.8,5.6-4.8c0.7,1.5,1.5,3,2.2,4.5c0.1-4,1.8-3.5,3.5-3.1c1.7,0.4,3.3,0.7,3.3-3.5c3.8,7.1,1.3-4.1,5,2.8
				c-1.5-6.7,2.1,1.5,0.9-4.2c3.8,4.8,5.1,2.2,6.2-1.1c1.4,0.6,2.5,0.5,3.6,0c1-0.5,2-1.2,2.9-2c1.9-1.6,3.8-3.2,6.5-2
				c-0.3-1.5-0.6-3-0.9-4.5c-0.1-1.2,0.8,2,1.1,3.5c1.4-4,3.4-3.3,4.7-7.7c0.6,1.6,1.2,3.2,1.7,4.7c0.3-0.7-2.1-8.5-0.3-4.4
				c0.7,2.3,0.1,1,0.6,3.4c0.7,1.5,0.9,0.3-0.1-3.3c4.5-0.7,8.5-2.4,12.3-5.3c1.9-1.5,3.8-3,5.6-4.7c1.9-1.7,3.7-3.6,5.5-5.5
				c1.8-1.9,3.7-3.8,5.5-5.8c1.9-1.9,3.7-4,5.7-5.8c1.9-1.8,3.9-3.6,5.9-5.2c1-0.8,2-1.6,3-2.3c1-0.7,2.1-1.3,3.1-1.9
				c-0.1-1.1-0.1-2.3-0.2-3.4c1.5,1.7,2.4-0.5,3.4-2.3c1-1.8,2.1-3.1,3.8,0.2c0.2-1.5-0.4-9.5,0.6-2c-0.1-3.5,0.6-6,1.8-1.6
				c0-1.5-0.1-3.1-0.1-4.6c0.9,0.4,2,2.2,2.3-2.6c1.2,1.4,2.3,1.5,3.3,0.9c1-0.5,1.9-1.6,2.9-2.5c1.9-1.8,4-2.8,6.6,3.2
				c0-1.5,0.1-3.1,0.1-4.6c1.2,5.8,2.2,4,2.2-1.5c0.4,2.1,0.4,4,0.8,6.1c-0.4-9,0.4-3.4,1-0.8c0.5-7.4,2-5.5,3.5-5.4
				c0.3,2.1,0.5,4.1,0.5,6.1c0.4,1.2-0.1-8.5,0.8-3.1c0-1.2-0.2-2.4-0.3-3.7c0.2-2.1,0.8,2.4,0.8-3.1c0.3,1.7,0.3,3.3,0.3,4.8
				c0.2-3.2,0.8-6.7,1.5-6.4c0.6,6.2-0.2,3.2-0.3,6.9c1.1-5.7,2.3-8.3,3.5-12.6c0.3,2.1,0.6,4.2,0.8,6.3c0.1,5.4,0.2-2.9-0.4-4.9
				c0.4-6,1-4.4,1.7-8.6c0.4,5.2,1.1,3.3,0.7,7.4c0.5,1.9,0.1-7,1.2,0.5c0.4-4.9-0.4-3.9-0.6-5c0.6-6.2,1.6-0.2,2.2-7.3
				c0.2,1.7,0,3.2-0.1,4.7c0.3,1.5,0.4-2.5,0.8,2.7c-0.4-6.7,0.3-2.6,0.6-8c1.2,4.7,2.1,0.7,3.1-2.6c1-3.4,2-6.1,3,0.7
				c0.2-10.8,1.6-8.7,2.3-10.9c0,7.7-1,1.9-1.4,6.5c0.2,2.4,0.4,1.2,0.6,3.9c-0.6,3.1-1.2,10.1-1.9,12.2c-0.1-12.5-1.7-0.3-2,1.4
				c1.4,6.2,3.5,2.2,4.6-8.4c0.1,2.1-0.2,3.9-0.3,5.8c0.7-1.5,2.2-1.4,2.2-12.1c0.4-2.3,0.3,4.8,0.6,6.3c1.3-7.5,2.2-7.4,3.8-16.3
				c1.9,0.3,3.6,0.3,5.8-11.6c1.1,1.9,3-3.6,3.9-11.4c1.2,2.6,3-3.7,5-8.3c2-4.6,4.1-7.7,5.3,1.2c0-15.4,2.4-8.3,2.9-22
				c0.6,1.2,2.2-12.7,2.4-3.7c3.7-13.2,6.8-13.7,8.7-1.7c0.7-3.8,1.4-7.6,1.5-11.7c0.6-1.3,0.9,0.7,0.9,5.5c0.9-5.5,1.1-2.7,1.5-3
				c0.7-6.5,1.1-5.5,1.9-11.6c0-3.3-0.7,1.9-0.8-0.4c2.6-8.1,5.8-7.7,6.8,4.8c1.1-8.7,2.2-10.5,2.9-8.5c3.6-17.5,7.1-26.7,10.3-32.6
				c0,2.5,0,5.1,0,7.6c0.7-7.8,2-5.6,3.2-9.8c-0.1,1.6-0.3,3.2-0.6,4.8c2.6-2.9,4.8-4.3,8.1-14.8c2.7-2.1,6.4-5.3,10.4-18.9
				c1.4,1.5,6.7-11.9,9-17.1c3.8-8.7,7.1-15.6,11.1-27.7c-0.6-0.2,0.1-4.3,0.3-7.6c1.1-3.6,1.1-0.5,2.2-4c-0.5-2.5-1.6,1.9-1.3-3.2
				c-2.3,8-1.8-3.9-3.6,4.6c-0.8,2.3,0-4.9-0.2-6.5c-1.4,1.5-2.7,2-3.8,1.9c2-5.6,2.5-5.8,5.5-15.2c-2.4,1.1-5.2,1.8-8.2,4.2
				c-3.1,2.4-6.4,6.3-9.9,13.8c-0.7,1.3-0.9-0.4-1-3c-0.3,1.9-0.5,4-0.7,6c-0.5-0.1-1.3,1.6-2,2.8c0.7-11.1-3.7,6.1-5.6,13.7
				c0-4.2,1.2-7.8,2.2-11.6c-0.7,1.3-1-2.2-0.4-6.5c1.5-5,1.1-0.4,2.6-7.6c0.1-3.7-1.8,7.4-1.4,0.6c-0.9,2.1-0.8,4.7-1.6,6.8
				c-0.3,0.4-0.6,0.9-0.7-0.3c0.5-4,1.7-7.6,2.2-11.6c0.3-0.7,0.3,0.2,0.7-0.9c-1.3,7.2,0.9,1.9,1.7,0.8c0.1,2.1-0.4,4-0.3,6.2
				c2-3.3,4-15.5,5.8-17.5c-0.5,4.5-2.4,8.2-3.4,12.3c0.6,0.4,2.3-1.9,2.7-7.6c1.2,4.5,4.4-5.3,7-10.7c-0.5-4-3,5.1-4.6,8
				c2.3-11.3,5-14.3,5.3-7.7c2.4-6,4.7-11.2,5.4-6.4c3.5-7.5,6.2-9.7,8.8-11.6c2.7-1.9,5.3-3.4,8.7-9.3c0-6-1.8-2.2-1.3-10.9
				c-1.5,2-2.5,1.4-2.6-5.1c-0.6,1.4-0.7,3.1-1.2,4.6c0.5-8.2-1.6-1-1.9-4.7c0.1-3,1-5.5,2-8c-0.3-5.1-2.3,0.3-3.1-1.4
				c-0.3-3.1,1.3-5.4,1.2-8.4c-1-4-3.3,4.8-5.4,6.4c0.5-6.7,3.3-11.2,4.6-14.4c-0.3-0.3-0.4-1.7-0.4-4c-0.4,1.1-0.3,2.4-0.4,3.6
				c-1.3,2.8-1-2.4-2.3,4.1c-0.1-2.1,0.4-4,0.3-6.2c-2,3.8-3.2,2.2-4.3,0.7c-1,3-1.4,6.1-1.4,9.5c-0.9,3-1.4,4-1.9,4.3
				c0.3-4.9,0.8-9.8,1.3-14.6c1.8-1,5.7-9.7,7.7-19.5c3-2.1,6.2-5,8.1-0.2c0.9-9.7,2.3-6,3.2-4.9c-0.5,5.1-1.1-0.6-2,2.9
				c0.2,5.5,3.1-4.5,4.5-5.6c0.3,3.4-1.5,5.7-0.4,6.2c1.6-8,4.6-7.5,5.8-5c2.6-7.1,3.5-3.3,5.8-6.3c1.6-8-1.2-2.2-1.6-3.3
				c2.3-4.3,7.7-12.4,8.9-3.6c3.7-9.3,8.1,2.1,12.7-18.5c1.1,3.2,3.8-7,4.4-3.1c-0.8,4.1-1.4,2.5-2.4,7.9
				c5.2-7.2,11.4-18.3,15.1-34.3c-0.1-3.9-0.9-8,0.8-13.9c-0.9-6-4.4-5.2-2-20.3c-2.3,6.3-3.5,3.1-5.2,10.5c0.1,1.3,0.9-0.9,1.4-1.9
				c-0.5,4.7-0.7,3-1.9,5.6c0.3-4.8-0.1-6.1-0.9-5.5c-0.1-3,0.7-5.7,1.9-8.1c-0.5-1-1.2-0.1-1.9,3c0.2-8.9-4.7-2.3-7.9,1.6
				c-0.6-11.6-6.3,3-10.5,10.8c0-0.9,0-1.7,0-2.6c3.4-12.4,6.2-12.3,9.1-20.4c0.2-3.5-0.9-0.8-0.5-5.3c-6.6,12.1-8.3,6.8-13.8,14.6
				c0.1-1.3,0.4-2.4,0.4-3.7c1.7-1.1,4.9-6.4,6.8-12.4c0-3.8-1.4,0.3-1.5-3.1c-0.6,5.1-1.4,6.1-1.8,3c-0.3,3.2-0.9,6.4-1.7,9.5
				c-0.9-3.1-4.9,0.5-5.8,10.3c-1.2,3.6,1-7.5-0.6-4c0.2-2.5,1.4-2.2,1.7-6.9c-0.9-1.1-3.2,7.9-3.4,11.3c-0.9,1.5,0.5-6.4,0.2-8.8
				c-1.8,3.1-1.6,6.9-2.9,10.2c-1.1,2.5-0.2-4,0.3-4.9c-0.6-2.5-1.6,5.1-2.1,6.7c-0.2-0.5-0.7-3.9-0.3-7.7c1.3-4.3,1.6-2.7,2.6-5.3
				c-0.8-4.6-2.8,3.8-3.4,8.7c-1.9,0.8-3.5,0.9-6.1,10.2c-0.7-3.6,1.1-6.3,1-9.7c1.3-1.7,2.3-2.3,3.6-3.7c-0.2-5.1,0.6-9.8,2.3-14.2
				c-0.2-2.7-1.3,0-1.8,3.1c0.7-5.8-1.1-0.7-0.3-7.7c-2.3,6.1-3.5,5.6-5.4,5.5c0.1-3.5,2.2-5.8,1.9-0.6c0.4-0.7,0.4-1.5,0.4-2.4
				c0.3-0.7,0.6-1.5,0.8-2.2c-0.3-4.6-2-0.5-3.2,1.3c0.2-4.9,1.4-9.5,1.6-14.4c-1.2,4.9-1,2.6-2.5,6.6c-0.5-3.1,0.2-5.8,0-8.8
				c-0.9,1.8-1.1,3.8-1.6,5.7c-0.4-2.6,0.6-4.8,0-7.5c-1.9,2.4-3.3,1.2-4.8,0.7c0.1-5.5,1-2.8,2.4-7.9c-0.3-3.4-2.1,3.6-2.1-2
				c-0.3,2-1.1,3.8-1.1,5.9c-3.1-5.5-8.3,5.1-11.5,0.9c-0.4,1.5-0.2,3.3-0.1,4.9c-1,2.9-1.9,5.5-2.4,5.4c1.2-19.1-5.5,4-7.1,0
				c2.5-16.9,4.7-11.6,7.6-18.5c-0.7-4.1-2.9,4.2-2.3-4.5l-2.3,6.6c-0.4-2.2,0-4.2-0.1-6.2c0.7,0.4,2-4.9,2.3-1.7
				c0.2-5.4,1-2.9,1.7-8.1c-0.1-9.6-3.8,11.4-3.8,1.2c-1.9,6.4-3.8,12.8-5.5,19.2c-0.7-3.5,0.2-6.5,1-9.5c-0.2-6.3-1.5-2-2.3-3.2
				c-0.2,3.2-0.7,6.4-2,9.2c0.4,1.5,1.3-2.4,1.2,2.9c-1.1,2.7-2,2.4-2.5-0.8c-1.1,3.3-2.2,6.7-3.3,10c0.3-7.2,1-5.6-0.6-6.4
				c-0.9-3.6,1.2-6.2,0.5-9.7c-1.5,11.6-2.5,7.7-5,16.9c-1.3-2.3-2.8-2.7-4-6.2c-2.1,11.1-3.7,13-5.9,19c-0.8-3.5,1.3-6.1,1.3-9.4
				c-2.4,0.5-5.9,16.4-7.5,24.7c2,3.2,3.9-12.6,5.7-15.4c0.3,2.1,0.1,4.1-0.3,6.1c0.4,2.4,2-4.9,1.6-6.9c0.6,4.9,2.5,0.4,4.5-3.6
				c2-4,4.1-7.6,4.9-0.8c-3,13.7-6.7,13.7-9,11.9c-2.9,16.3-6.1,14.4-9.3,15.4c1.4-7.2,2.3-12.4,3.1-21.1c-1,4.9-1.5,2.4-2.5,6.6
				c-1.3-13.4-3.5,6.5-4.8-5.1c-2.6,5.4-1.8,3.9-4.2,7.3c0.5,2.2-0.4,4-0.2,6.1c-0.8,1.6-1.3,0.1-2.2,4.2c-0.8-4.7,0.7-7.3,1.4-6.9
				c0.1-5.5-3.1,0.9-3.3,6.4c-0.9-0.7-2.2,4-2.7-3.3c-1.3-0.9-3.4,11.3-4.5,7.2c-0.5-7.1,1.2-13.5,2.3-20.1c-1.8,0.6-3,10.4-5.3,8.2
				c-0.7-4.8-0.1-5.8-1.2-5.2c-1,4.3,1.4,1.9,0.4,6.2c0.7,0.6,1.4,1.5,2.2-0.6c0.1,6.2-0.1,5.6,1.2,5.2c0.2,1.7-0.4,3.1-0.7,4.6
				c-0.7,2-1-6.7-1.7-5.4c-0.1,2-0.7,3.8-0.5,5.9c-0.9,1.8-1.6-0.9-2.4-0.7c-0.2-3.3,0.1-4.5,0.7-4.6c0.5-1.1,0.1,2,0.5,3.8
				c0.3-3.6,0.8-7.1,0.3-10.9c-4.1,18.5-7.2,17.6-10.6,26.2c-0.3-1.7-0.6-3.4-0.3-4.9c-0.4,3.8-3,10.3-4.6,10.9
				c-0.1-6.2,2.6-9,2.5-12.6c0.5,5.4,1.2,2.6,0.3-1.1c-2.8,5.4-5.3,8-7.3,7.7c-0.6-8.2,2.6-5,2.7-13.8c-0.9,0.2-1.2-2.4-1.8,3.2
				c-1.5-3.4-3.8-0.5-6,3.5c-2.2,4-4.5,9.2-6,10.4c-0.7-3.4,1.9-6,0.6-9.5c-0.5,6.8-1.6,8.6-2.7,10.2c0.7,1.3,1.4,3.4,2.1,1.7
				c0.1,1.2,0,2.4,0.2,3.7c-1.4,4.1-2.8-4.8-4.2,3.8c-0.4-2.1-0.2-4-0.7-6.2c-1.1,5.5-2.2,1.5-3.3,4c-0.4-2.1-0.4-4.1-0.2-6.1
				c-0.5-1.9-1.1,3.5-1.6-1.6c-0.5,1.5-0.3,3.2,0,4.8c-4.3-1.5-7.2,0.4-11.3,3.4c-0.4-2.5-0.2-4.8,0.4-7.1c-0.7-0.7-1.4,2.1-2.1,0.7
				c-1.1,3,0.6,6.5-0.3,9.5c-1.2-5-2.2-3.1-3.2,1.7c-0.7-2.6-0.2-4.8-1.1-7.4c-0.3,2.7,0.3,5.6,0,8.4c-1.5-7-1,0.6-2.7,1.8
				c-0.7-2.5-0.2-4.8-1.1-7.4c-0.1,2-0.1,4,0.4,6.1c-1.3,3.4-4.7-4.9-5-13c-2,4.3,2,7.3,1,14.5c-0.8-0.2-0.7-3.4-1.8-6.3
				c-0.9,4.5-2.4-0.1-2.4,9c-1,0-2.1,0.8-2.8-6.5c-0.3,1.9-0.6,3.9-0.9,5.8c1.1,6.5,0.1-5.1,1.2,1.4c-0.2,8.9-3.8,2.3-5.5,8.4
				c0.1-4.8-0.4-8.9,0.6-10.6c-1.9-6.7-1.4,9.1-2.9,10.1c-1.5-7.8-2.2-1.1-3.1,1.8c-1.7-6.8-2.8-3.8-3.9-2c-0.7-5.2,1.1-1.8,1.2-5.7
				c-0.7-3.7,0.2-7.1-0.4-10.7c-0.8,7.1-2.6,8.2-3.1,16c-0.5-2.3-0.9-0.3-2-2.7c-1-7.1,2.6-1.2,0.3-9.4c0.4-4.8,1.5,1.6,1.9-3.2
				c-1.1-5.7-2.3,4-2.8-4.1c-0.5,4.2-1.4,2.3-2.3,6.7c-0.6-9.8-1.3-0.2-3-6.4c-0.9,7-2.4,4.9-3.5,8.9c0.4,4.9,1.8,8.6,2.2,5.1
				c0.5,8.3-1.8,3.4-2.7,3.1c-0.5-3.7-0.2-7.5,0-8.3c-0.5-3.9-1.2-4.1-1.7-9.7c0.8,10.8-1.1,2.8-1.7,10.4c1,6.3,1-0.8,1.9,3.9
				c-0.7,0.5-1.1,4.8-2.3-0.4c-0.4-2.3,0.3-1,0.4-3.5c-0.5-2.4-1.1-1.2-1-3.7c-1.2-3.7,0.4,7.8-1.1,1c0.6,4,1.4,8.1,1,12
				c-1.1-0.1-0.4-4-1.5-7.3c-0.4,2.7,0.1,5.5,0.5,8.3c-0.3,0.4-0.9-1.6-1,1c-1.7-5.4-0.2-10.3-1.6-15.6c0,3.2-0.1,6.3,0.4,9.5
				c-0.3,5.3-2-5.4-2.1,2c-1.1-2.9-1.1-5.7-1.9-8.5c-0.6,4.8-1.8,1.6-2.9,0.7c0.2,8.3-1.7,5.9-2.9,5.5c-0.9-2.5,0.7-4.6-0.7-7.2
				c-0.3,7.4-1.8,3.6-3.2,4.3c-0.7,2.7,1,5.6,0.6,8.3c-1.2,1.2-1-7.1-2.4-9.8c-0.6,0.3-0.7,1.5-0.4,4.7c-3.7-13.4-3.8,6.8-6.9-1
				c0.2,8-0.5,6.7-1.4,11.6c-0.4,0.2-1.3-4.7-2-3.8c-1-6,1-3.1,1-6.9c-1.9-3.8-2.3,1.1-2.8,5.5c-1.4-2.1-1.2-4.9-2.5-9.7
				c-0.7,1.7-1.7-1.8-1.3,4.6c-0.5-1.6-1-3.2-1.5-4.8c1.2,6.4-0.8,9-2.9,0.9c0.4,8.7-0.7,5-2.1,3.3c-0.4,4.2,0.3,1.4,1.1,4.8
				c-0.1,3.1-1,0.1-1.5,1c-1.7-5.7-1.1-5.7-1.3-9.5c-1-0.1-2.2-1.5-4.2-8.7c0-1.5,0.2-1.8,0.5-1.1c-0.8-4.5-2.6-2.2-3.6-2.7
				c2.9,3.5,3.6,11.3,6.2,13.6c-0.7,10.1-3.5-7.2-4.9-5.2c0.8,5.2,3.3,10.5,3.8,15.6c-1.3-4.6-2.7-3.7-4.1-9.8
				c0.1,5.1,0.8,10.2,1,15.4c-1-8.5-2-8-3.5-12.1c-0.9-3.2,0.1-6.2-1.4-9.5c0.2,3.8-0.1,3.9,0.9,9.5c-0.6,0.2-2.1-4.2-0.6,2.3
				c-0.7-0.1-1.9-3.5-3-6.2c-0.6-3.7,2.1-0.3,0.4-8.2c-0.6,4.2-4.5,14.6-5.7,0.7c-0.8-0.4-0.6,5.2-1.9,1c0.8,11.3-3.1,2.4-2.9,13.8
				c-1.7-7.9-2.3-2.8-2.9-9.6c-1.1-1.8,0.4,6.2-0.3,8.2c-1.9-0.6-4.2-4-4.8,3.1c-1.3-6.6-2.5-4.7-1.9-0.2c-1.8-6.3-1.8-2.2-3.1-6.1
				c0.9,3.9,1.3,3.9,2.6,9.5c-0.8,0.7-2.6-4-3.6-7.3c-1.4-1.1,0.6,7-2.3-0.1c0.3,2,1,3.9,0.8,5.9c0.7-1.6,2,0.2,3.6,3.7
				c-1.7-0.1-3.5-0.9-5.1-0.3c-0.4-1.2-0.4-2.4-0.9-3.6c0.4-2.2,2.7,2.6,1.5-4.6c-1.9-3.7-1.2,5.8-4.2-1.4c0,1.8,0,3.5-0.5,2.3
				c0.2,2,0.5,3.9,1.3,5.9c-0.2,4.1-2-0.3-2.3,3.4c-1.3-2.4-1.2-4.7-2.3-7.1c-0.3,3,1.6,5.9,0.4,5.8c-1.5-3.1-0.6-5.8-1.8-5.9
				c-0.3,1.9,0.9,3.9,0.9,5.9c-6.3-14-7.8,0.2-12.1-6.5c-0.9-2.4-0.3-4.7-1-7c-1.8-2.3-0.9,8.4-4.2-1.3c0.2,1.9,0.6,3.9,1.5,5.9
				c0.4,4.3-0.6,1.3-0.4,4.6c-1-2-0.9-3.9-1-5.9c-1.3-3.1-1.3,0.6-2.3-1.2c0.1,1.6,0.9,3.1,1.5,4.7c0.4,4-0.9,0-0.9,2.3
				c-0.5-2-0.5-3.9-1.5-5.9c0,1.5,0,3.1,0.1,4.7c-1.2-2.4-1.1-4.7-2.4-7.1c-1.8,2-3.7,3.8-6,3.3c0.5,1.2,1,2.4,1.5,3.5
				c-0.7-0.2-0.1,5.2-1.3,2.3c-1-2-1-3.9-1.1-5.9c-2-2.8-3,3.4-3.1,5.7c-1.5-4.9-2.3-6-2.4-2.4c2.2,4.5,1.2,4.7,1.1,7
				c1.5-2.4,4,4.3,5.6,1.3c-0.3-2.2-0.4-0.9-1-2.4c-0.7-5.2,1.6,2.9,0.9-2.3c2,5.8,1.7,4.2,3.9,9.4c-3.8-4.9-5.1,5.1-8.8-2.6
				c0.1,1.2,0.5,2.4,0.6,3.5c-0.3,2.4-0.8-4.5-2-5.8c0.9,9.6-1.8,3.9-3.6,2.3c1.2,6.5,0.1,6.1-1.2,4.7c-0.8-4.7-1.1-9.4-2.9-14
				c0.3-1.5,1.9,0.3,0.8-4.7c-0.7,0.8-1-0.2-2.5-4.7c0.9,5.3,0,4.2,0.8,8.2c-0.3,1.8-2.2-2.6-1.8,2.3c-3-8.5-3.9-3.7-4.7,0
				c-1.8-7.1-2.5-6.4-2.4-1.2c-0.7-2-1.2-3.9-1.2-5.8c-2.4-3.2-1.9,4.7-4.1,2.3c0.2,2.3,1.8,4.7,1.8,7c0.4,3.3-2.4-5.9-1.4,0
				c-0.9-1.9-1.4-3.9-1.7-5.8c-1-1,1.7,6.4-0.3,3.5c-1.2-2.3-2-4.6-2.3-7c-0.3,3.5-4-2.6-2.5,4.7c-1.3-2.3-1.3-4.7-2.8-6.9
				c1.9,7.2-0.9,1.2-0.9,1.2c-1.4,1.1,0.6,10.4-3.1,3.6c1.5,6.8-1.3,3.7-2,4.7c-0.6-1.9-0.7-3.9-1.8-5.8c1.4,7.6-1.8,0.4-0.8,8.2
				c1,4.9,2.9,6.1,2.6,3.5c0.7,1,0.4,5.4-0.1,4.7c1.1,5.5,1.4,1.3,2,2.3c0.8,1.9,0.7,3.9,0.9,5.8c-0.2,0.7-3.3-7.2-2.3,0
				c-1.4-2.7-2.7-5.4-2.9-8.1c-2-4.1-1.1,2.1-3.5-3.4c0.7,3.1,2,7,1,7c-1.9-8.6-1.9-14.8-1.5-19.8c-1-0.7-2.5-3.3-3.6-4.6
				c0.3,2.3,1.5,7-0.2,3.5c0.3,1.9,1.1,3.9,1.4,5.8c-0.1,3.2-1.4-2.7-3.3-5.7c3,9.7-0.7,11.4-4.1,1.4c1.7,5.7-1,0.1,0,5.8
				c2,4.1,1-1.9,3,2.2c1.2,4.3-1.9,0.4-2.8,0.1c0.6,2.3,1,4.6,1.1,7c0.2,2.7-1.6-3.6-1.3-4.6c-1.3-1.7,0.9,6.1,2.1,8.1
				c0-1.7,1.4,1.2,0.6-3.5c0.9,2.3,1.6,4.6,2.5,6.9c-0.1,3.4-3.2-3.6-3.2,0.1c-1.6-4.4-2.2-13.1-4.1-13.8c2.1,6.2,0.6,3.2,0.5,5.8
				c-2.2-6.8-0.1-3.1-3-6.9c1.2,4.5,1.6,6,1.2,8.1c-3-8.7-0.8,3.2-4.2-4.5c2.4-1.5,2.4-8.9,7.1-3.8c-3.4-7.7,1.1-3.7-2-12.8
				c-1-2.2-1.1-1-2.2-3.4c1.8,7.6-1.8,2.3-3.5-2.2c2.6,6.6,0.7,6.1,3.5,12.7c-0.7-0.3-0.2,3.5-1.9,0.1c-1.6-3.7,2,0.3-1.5-5.8
				c-1-5.2,1.8,2.8,0.7-2.4c-1-1.9-1.3-3.8-2.4-5.7c0.9,7.8-1.3,1.9-3.2-3.4c2.9,9.6-2,3.6-2.8,6c0.8,4.4,1,3,2.4,5.7
				c0.8,7.9-4,0.9-2.5,8.3c-1.8-2.6-1.5-5.4-2.7-8c1.2-0.4,1.9-2.1,3.8-0.2c-0.5-3.1-1.4-6.2-2.8-9.2c0.4,2.4-0.3,1.3-1,0
				c0.4,1.5,0.7,3.1,1.4,4.6c-3.4-6.8-4.9,0.5-3.6,7.2c-3.1-11.7-3.4-5.4-6.7-13.6c0.2,2-0.1,2.2-0.8,1.2c1.5,6.2,1.4,1.1,2.9,4.5
				c1.9,4.7,1.5,8,2.5,15c-3.1-6.2-1.1-6.6-2.7-11.5c-2.6-4.3-0.7,0.7-1,3.6c1.2,2.6,1.8,5.3,2.8,8c0,1.8-2.2-3.5-1.3,1.3
				c2.5,4.5,0.4-5.2,4.1,3.2c-0.3-4.9-0.4-9,1-8.3c1.3,2.8-0.5,2-0.7,2.4c0.9,4.2,2.5,4,0.9-0.1c3.7,11.2,2.3,12.3-0.1,11.6
				c-2.4-0.7-6-3.3-6.6,0.6c0.8,1.5,1.7,3,1.9,4.5c1.6,3.3-0.1-3.6,2,1.1c1.2,3.2,0.7,7.6-1.6,2.4c2.2,5.4,2.7,12.8-0.1,7
				c-0.7-1.2-0.3-5.1,1.1-2.4c-2.5-6.7-1.7-6.7-3.4-12.6c-1.9-2.5-2.1-4.2-4.1-6.7c0.8-2.7,3.3,1.8,2.5-7.2
				c-2.7-5.3-1.7-5.4-4.3-9.1c1.3,3.8,3.4,7.6,3.2,11.5c-1.5,0.2-3.9-2-4.7,0.3c1.3,2.2,2.3,4.5,2.7,6.8c1.1,1.1,1.8,1.1,2.5,1
				c1,3.2,0.8,5.4,0.8,7c-1-1.5-1.3-3-1.5-4.6c-2.3-2.9,1.8,6.6-0.4,4.7c-1.2-3.4-1.8-6.9-3.1-10.3c1.2,8.8-4.7,0.6-3.5,9.6
				c-1.2-2.6-1.5-5.4-3.4-7.9c0,2.7-1.9-0.3-0.6,5.9c1.4,2.2,2.4,4.5,3.2,6.7c-0.2,2.8-1.9,0.8-1.7,4.8c-2.1-4.5-3.7-13.2-0.5-7
				c-1.7-3.4-2-6.9-3.7-10.2c1.8,8.1-0.3,5.1-0.5,10.6c2.1,4.6,0.3-2.3,2,1c1.9,5.6-1,1.1-0.1,5.9c-1.1-1.8-1.5-3.8-2.6-5.6
				c3.8,12.4-2.8,0-1.9,6c-3.6-8.3-0.4-6.2-2.1-11.5c-0.6-1-0.3,0.6-0.3,1.2c-1.8-2.2-1-4.6-2.8-6.8c0.4,3.6-2.2,0,0.4,5.8
				c1,5.1-2.3-2.1-2.3,0.2c-1.2-3-2.3-7.3-0.7-4.6c-3-7.8-0.7,6.7-4.9-4.2c0.3,2.3,0.7,4.6,1,6.9c1.3,1.8,1.8,3.7,2.7,5.6
				c0.1,2.8-1.5-1.5-3-4.4c1.8,9.2-2.6,0.8-6.6-2.9c1,6.5-5.4-2.2-5.7,3c2,5.3,1.4,1.1,2.9,3.2c1.9,6-0.9,5-2,4.9
				c-2.5-5.6,1.4-0.2-0.9-5.8c-1.7-2.5-2.9-4-3.9-6.6c0.3,2.4,1.9,9.3,2.7,13.8c-0.4,1.8-3-5.8-4.6-7.7c-0.8-0.7,0,6.4-2.5-0.9
				c0.6,6.4-1.8,4.9-4.1,4c-2.4-3.2-1.7-6.8-4.1-10c-0.1,3.5,3,6.7,3.2,10.2c0.3,3.5-3.3-5.5-5.3-8.7c0.3,2.4-1.6-0.8-1.9,0.2
				c-1-3-2.4-6-4.4-8.8c0.6,1.7,1.6,4.8,0.6,3.5c0.7,3.2,0.9,0.3,2.7,4.3c1,4.1-1.1,0.5-1.9,0.3c0.7,3,2.5,3.9,2.5,3.2
				c1.1,2.6,1.9,5.3,2.8,7.9c-0.8,0.4-2.4-3.7-0.5,2.4c-3-4.9-1.3-4-2.9-7.9c-2.2-2.9,0.2,2.8,1,5.8c-0.3,2-2.5-0.6-3.2,0.5
				c-1.4-3.3-2-6.8-3.3-10.1c-1.7-1.5-6.2-10.2-5.9-6.2c-3.7-6.7-5.4-10.3-7.8-10.7c1.5,2.2,2.4,2.2,4.1,6.5
				c0.6,3.3-0.8,1.8-1.7,1.4c0.4,2.3,2.1,4.4,2.2,6.7c0.7-0.6,4.9,5.2,2.8-0.4c1.2,2.6,2.5,5.2,2.9,7.8c-0.6,0.7-3.1-6.2-1.2,1.3
				c-1.9-2.1-1.2-4.5-3.2-6.6c2.9,6.7,1.6,6.7-0.8,3.6c1.2,4.3,2.5,5.2,2.7,4.3c0.5,2.2-0.4,1.1,0.2,3.5c-1.3-2.6-3.8-5-4.4-7.6
				c-0.7-0.5,0.6,6.5-2.1-0.9c-1.6-1.9,2.9,10.1,0.4,7c-1-1.8-1.1-3.8-1.6-5.7c-1.4-0.5-6.2-6.3-3.8,0.5c0,1-2.4-0.7-2.8-4.3
				c-1.7,1.2-1.3,8.8,3.5,21.9c-0.4,0.5-1.4-0.6-1.1,1.4c-2.5-3.5-2.3-7.5-5.2-11c-0.8-4.6,0.5-1.6,1.8-0.3
				c-0.5-3.8-1.8-7.6-4.2-11.1c0.2,1.1,1,2.2,1.6,3.3c0.2,2.2,0.6,5-1.6,1.4c-1.9-3,0.6-0.5-0.9-4.6c-2.6-4.5,0.1,3.3-2.8-1.9
				c4.2,10.8-1.6,3.7-5.6-1.4c1,4.1,3.6,11.8,5.5,12.1c-2.8-5.6-1-3.8,0.4-2.4c1.1,1.9,0.5,2.1-0.2,1.2c2.5,4.9,3.3,0.8,5.4,2.6
				c-0.4,8.4-8.5,3.6-11,8.9c-0.9-1.4-1.1-3-1.5-4.5c-1.3-1.5-2.3-2.3-0.9,2.5c-3.5-7-1.4-0.8-3.8-4.1c-1.8-2.4-0.8-5.4-3.2-7.7
				c2.4,7.4,0,3.3-2.5,1.7c1.8,5.7,2.6,9.5-1.8,2.7c1.5,5.2-0.9,1.8,0.7,7c-9.3-14.6-8.5-2.3-16.2-8.7c2.4,4.8,3.2,9-0.4,2.5
				c0.3,2.7,1.7,5.2,2.9,7.8c-0.1,0.5-0.2,1.1-0.9,0.2c-1.4-3.3-3.3-6.5-3.9-9.9c-3.4-4,3.9,9.1-0.8,2.6c3.3,7.8,1.6,5.1,0.5,5.8
				c-1.7-2.4-2.3-5.1-2.9-7.7c0.6,6.4-5.2,2.1-0.4,15.6c0.1,2.7-1.6-0.9-2.9-1.8c-2.2-3.1-2.6-6.6-5-9.7c0.6,3.1,2.1,5.9,3.7,8.8
				c-1.7-0.9,0.3,2.5,0.3,4.7c-3.5-5.6-5.6-13.3-4.4-13.4c-1.3-1.5-1.8-3.2-1-2.2c-4.6-5.8-10.1-12-6.8,0.3c-2.3-2.7-1.7-6-4.2-8.6
				c2.2,6.3-3.5-0.1-4.7,1c0.4,1.9,1.6,3.6,2,5.5c-1-1.8-1.5-3.6-2.9-5.3c-0.7,0.6,0.4,1.5,1.2,4.5c-0.9-1.4-1.1-2.9-2.1-4.3
				c-3.2-4.2-2.4-0.2,0.3,4.7c-1-1.4-1.3-1.6-1.2-0.9c-1-1.4-1.2-2.9-1.7-4.4c-2.3,0.3-9.7-6.7-7,1.7c-5.1-5.3-0.6,2.3-3.9-1.5
				c3.1,8.7,1.7,7.5,2.5,12.6c2,2.7,1.9,1.4,3.3,2.8c1.3,3.9-2.4-1.5-1.5,1.6c-1-1.4-1.3-2.9-1.7-4.4c-1.7-0.1-5.4-4.1-7.2-4.2
				c-1-1.4-1.3-2.9-1.8-4.4c-0.9-0.3-2.4-1.6-1.5,1.6c5.4,11.8-7.8-3.1-6,5.1c3.6,1,6.8,1.2,11,3.3c0.5,3-1.6,0.9-2.8,0.7
				c2.3,5.1,1.8,0.9,3.3,2.8c0.7,2.2,1.3,4.5,2,6.7c-1.4-1.7-2.1-3.5-3.5-5.1c-0.5,3.2,4.8,13.1,0.3,9.5c-2.2-3.7-0.9-4.9-1.9-7.9
				c-1.4-2.5-3.3-4.8-4.2-7.4c0.4,1.7,6.1,15,1.6,10.4c-1.5-2-2.4-4.2-2.9-6.5c-3-3.5,3.1,9.6,0.2,7.2c-2.5-2.6-2.4-5.8-5-8.4
				c0.1,0.8,0.6,1.4,1.1,2.1c1.6,2.9-0.9,0.9,2.5,6.6c-0.9-0.8-3.2-1.8,0.1,3.6c-1-0.7-0.1,2.1-2.2-0.6c-2.2-3.8-2.7-8.2-5.1-11.9
				c0.1,1.4,0.2,3.3,0.8,5.8c-1.8-1.9-2.4-4.2-4.4-6.1c-0.6,1.8-2.8,0.7-4.2,1.1c-1.8-2.4,0.2-1.5-1.7-5.6
				c-3.6-2.7,4.1,11.9-2.2,4.2c0.1,1.1,2.8,6.9,0.9,4.6c1.1,3.1,0.9,0.2,3.2,4c0.3,1.1,0.7,2.2,1.1,3.3c-3.6-3.6-2.7,0.9-6.5-3.1
				c-3.1-5.4-1.5-6.5,2-1.7c-0.8-2.8-1.2-4.8-0.5-4.7c-0.6,0.6-6.7-6.7-3.7,1c-2.7-2.9-3.3-6.4-6-9.2c3.3,7.7,0.2,7.9-1.7,9
				c-2.7-3.7,0-1.5-1.4-4.5c-0.9,0.4-2.5-3.3-4.9-5.9c0.5,3.5-2.3,1-1.3,5.3c-5.4-5.9-0.9,1.9,0.6,9.6c0.6-0.9,0.2-3.7,2.4-1.9
				c-0.3-1.5-1.3-2.9-2.4-4.2c-0.3-1.7,0.4-1.9,1.9-0.5c1.6,1.6,0.9,3,0.3,2.3c2.2,3.3,9.9,12.1,7.2,5.2c4.3,6,6.5,4.8,6.6,1.8
				c2.2,2.9,3.4,5.5,1.7,0.7c6.2,6.2,9.4,7.2,10,3.3c4.1,7.2,3.4,0.9,6.4,7.9c-0.8-2.3,0.1-2.2,0.3-3.7c-1.5-1.9-1.3-0.7-2.9-2.9
				c-0.1-1.1,0.3-1.3,0.2-2.5c1.1,1.7,2.1,3.5,2.6,5.3c2.4,3.2,1.7,0.6,4.1,3.7c-0.3-1.5-1.3-2.9-1.8-4.3c2.2,2.9,4.1,5.4,2.2,0.6
				c1.2,1.5,3.2,4.3,2.8,2.9c1.8,1.9,1.1,4.5,3.4,6.3c-3.6-8.4,2.3-5.8,6.2-0.4c2.1,2.3-1.5-3.4-1.4-4.5c-0.1-0.7,0.5-0.1,0.1-1.3
				c2.2,2.3,2.9,4.9,5.1,7.2c-2.1-7.1,3.9-2,7.1-0.5c-1.6-4.2-0.4-3-1.2-5.7c-3.6-4.4,1.1,4.1-1.5,1.5c-1.2-3.5-0.9-2.5-4.1-7.4
				c-2.2-7.3,1.1-3.9,4.3,1.4c1.4,4-3.8-4.6-1.8,0.4c1.1-0.1,4.8,5.9,5.7,9.4c1.4-0.4,4.4,2.4,5.9,2.2c2.6,6,1.6,3.5,4.2,6.2
				c0,1.6-1.6,0.1-4.4-3.7c0.7,2.2,2.8,4.1,3.3,6.4c0-1.7,2.5,1.3,3,0.5c-0.9-3-3.2-5.6-5.3-8.3c0.5-1.8,3.4,1.2,2.2-4.1
				c-1.3-2.9-3.2-5.6-4.4-8.6c0.5-1.9,2.9,5.6,5,7.2c1.3,2,0.1,1,1,3.4c5.1,7,5.6,1.6,11.2,9.3c-1.7-7.3,2.5-3,4.3-3.3
				c3.4,5.4,1.2,5,4,11c3.5,4-1.9-7.6,3.6,2.8c-1.4-3.7-3.2-7.2-5.3-10.8c0.3-3,2.4-2.2,5.2,0.1c-3.6-8.4-0.5-5.6,1-5
				c0.9,1.4,1.2,2.9,1.7,4.4c0.2,1.2-1.6-1.7-2.7-3c0.2,1.1,0.7,2.2,1.4,3.3c0.2,0.7,0.4,1.5,0.6,2.2c2.2,2.6-0.1-4,4,2.7
				c0.9,3-0.9,0.4-1,1.4c2.6,5.9,2.7,2.5,3.9,4c3,9.4,2.5,1.3,5.5,4.8c-1.7-3.4-4.5-9.6-3.6-9.9c2.1,5.7,3.2,5.4,6.4,11.8
				c-0.5-1.5-0.4-1.7,0.1-1.2c-3.3-5.9-1.5-5.5-3.9-11.1c1,0.7,5.8,6.5,4.3,0.3c2.2,2.8,2.8,5.8,4.1,8.7c2.5,2.5,3.9,2.7,6.2,5.9
				c-0.4-1.5-0.8-3-1.2-4.5l-2.9-4.2c2.1,6.3-2.1-0.7-3-0.6c-1.2-4.9,3.1,1.8,2.1-2.7c6.2,13.2,5.1,5.2,9.8,11.2
				c-1.3-1.3-0.5,1.9-2.5-0.7c2.5,5.5,3.3,3.1,3.9,2.9c-1.2-3-2.6-5.8-3.6-8.8c0.4-1.9,3.3,5.6,4.6,7.4c-0.8-2.3,0-1.3,0.9-0.2
				c-3.1-6.8-2.1-7,2.2-0.4c-4-7.1-0.8-2.5-2.7-9c4,5.8,0.9,5.6,5,10.9c-3.3-8.1-1.5-6.1-3.2-11.2c3.4,4.9,1.1,5.4,3.1,8.9
				c1.1-0.1,1.3-0.2-0.5-5.8c3.1,4.5,0.5,2.7,2.6,6.6c5.4,7.4,1.8-1.9,2.4-5.1c1.7,2.5,2.6,5.1,4.5,7.5c-1.3-5.3,1.8-0.6,1.4-3.8
				c1.6,2.9,2.4,5.9,3.9,8.8c0.6,2.1-0.2,1,0.1,2.3c-1.7-2.1-1.9-4.4-2.9-6.6c-0.8,1.4,0.6,5.3-1.8,3.8c1.7,1.6,4.4,5.3,4.3,2.8
				c2.1,3-1,0.6,1.5,4.5c-1.9-1.9-2.5-0.7-4-1.7c0.5,1.5,1.6,2.9,2,4.4c0.2,2.5-2.1-4.1-3.5-5.3c0.5,2,0.2,2.1-0.6,1.3
				c6.1,13.6-3.5-2.7-0.7,6c-2.1-2.8-2.9-6.7-3.9-6.4c1.4,4.5,4.2,8.7,5.6,13.2c2.1,3.1,0.8-0.9,2.7,1.9c-0.5-1.5-1.5-2.9-2.4-4.3
				c-1-3.9,1-1.1,2.1-0.4c1.9,3.9,0.2,2,2.1,6.7c-0.5,0.9-2.2-0.7-1.5,2.6c-2.1-2.7-2.9-6.7-3.9-6.4c6.1,16.2-3.8,5.6-6.2,6.9
				c-1.5-2.9-1.9-5.9-3.7-8.8c3.3,1.2,7.7,4.6,9.7,3.1c-1.4-4-2.8-3.8-1.3,0.2c-2.4-3.6-2.8-2.4-4.2-7.5c-0.3,1-0.5,2.2-1.1,2.5
				c-1.5-2.8-2.1-5.9-4.5-8.6c2.3,6.4,1.1,4.4-0.4,3.6c-2-2.4-2.2-5.1-4.2-7.5c-2.4-1.6-2.4,2.9-1.2,7.3c-0.9-1.8-2.2-3.5-2.8-5.4
				c-0.8-3.1,2.7,5.5,0.9-0.2c-3.3-4-2.8,0.1-6-3.6c0.7,2.6,1.4,5.3,2.1,7.9c-1.8-2.8-3.3-5.7-5.5-8.4c2.7,7.5,4,7,6.1,10.7
				c1.1,4-5.2-7.1-2.9-0.6c-3.1-4.1-3.3-8.8-6.7-12.9c0.3,1.1,1.1,2.2,1.8,3.2c0.2,4.1-3.1,1-5.5-0.1c1.4,4.8,5.1,9.3,5.5,8.4
				c0.2,2.2,4.5,12.6,1.3,8c-2.4-4,0.3-1.5-2-5.5c-2.8-4.7,0.5,2.8-2.3-1.9c1.6,4.3,2.9,5.6,2.6,7.7c-1.6-2.1-2.6-4.2-3.2-6.5
				c-3.4-4.1,3.2,8.9,0,4.7c-1.9-3.1-2-6.7-4.6-9.7c0.4,2.7,1.9,5.1,2.7,7.7c0,0.5-0.1,1.1-0.9,0.2c-1.8-3.5-0.6-3.8-3.4-8.8
				c-0.9,0.7-2.3-2.7-5.7-7.1c-4-3.5-3.4,2.5-4.6,3.4c-2.7-8-5.7-3.6-8.8-6.4c-2.8-5.7,2.5,0.4,0.1-6c-4.5-4.8-0.3,6.7-5.2,0
				c0.5,1.5,1.7,2.8,2.6,4.2c2.1,5.3-1,0.7,0.5,4.7c-7.1-10.1-4.1,0.3-9.3-7.4c0.6,5.4-3.7-0.1-1.5,7.5c1,0.2,1,1.4,3.1,4.1
				c1.3,7.5-5.8-4.3-10.6-13c1.7,4.4,4.4,8.5,6.3,12.8c-1.6-1-2.2-0.2-4.5-2.5c-1.8-2.7-0.2-2.8-1.3-5.7c1.5,2.4-5.3-3-5.1-1.1
				c-1-0.8-4.1-6.6-2.3-4.2c-2.8-5.1-0.9,0.1-1.3,0.3c0.5,1.5,1.7,2.8,2.7,4.1c-1.6,0.9-11.3-11.1-10.5-4.5c-1.3-1.7-2.7-3.3-4-5
				c0.7,2.2-1.7-1.3-0.2,2.5c-8.1-10.7-3.9,1-11.6-9c1,6-3.3,2.4-9-3.6c-0.7-3.7-1.9-6-2.5-9c-2.1,1-0.2,8.9-5,2.6
				c5.1,8.9,5.9,13.5,12.2,23.2c-1.8-0.8-4.4-3.3-6.3-4.3c5.4,9.2,6,2.2,12.3,13.5c1,2.6-2.7-3-3.7-3.8c3.6,6.6-1.5,0.9,0.9,7
				c-1.9-3.5-3.7-7-6.9-10.2c3,5,2.9,6.3,3.9,9.8c-3-3.8-7.3-8.6-3.8-2.6c-2.4-2.5-4.1-6.2-4.9-5.9c-2.7-3.8-1.5-2.7-2.4-5.4
				c-1.5-0.6-3-1.3-2.3,1.9c-2.8-3.2-3.2-7.2-6.1-10.4c0.5,1.7,5.1,10.2,1.5,5.6c1.3,2.5,2.1,5,4.5,7.2c0.1,2.7-0.2,1.7,2.7,7.7
				c1.6,3.7-4.2-5.4-2.5-1.7c1.3,4.2,3,4,4.5,6c-0.1,1-2.4-1.8-1.8,0.5c-2.1-2.6-2.3-5.8-4.9-8.3c2.4,4.6-0.4,2.4-1.7-0.7
				c3.5,8.5-1,5.3-7.3-1.4c1.4,2.4,2.3,5,3.7,7.4c2.2,1.8,1.9,2.1,5,5.8c-0.5-1.9-2-3.5-3.3-5.1c0.9-2.1,6.4,3.5,9.7,5.6
				c0.7,4.1-5.8-3.7-5.2,0.3c1.5,1,3.1,2,5.4,4.4c0.6,2.7-3.5-2.5-0.1,4.9c-2.1-2.6-2.9-5.6-5.4-8.1c0.8,2.1-0.2,1.1,0.8,3.4
				c-1.6-1.5-2.2-3.4-2.9-5.2c-1.7-1.9,0,1.8-2.5-1.7c3.3,6-0.2,2.8,3.2,8.8c-3.2-3.1-4.1-6.8-7.1-10c1,3.5-3.3,0.2-5.6-3.2
				c0.9,4.2-3-2.3-2.6,0.8c-2.8-3.6-0.1-1.4-1.6-4.4c-3.9-4-2.4,0.9-5.6-1.9c1.5,3.3,2,4.4,5,9.4c-1.4-0.8-1.6,1.6,1.6,6.8
				c-2.2-1.7-2-4.2-4.2-6c-1.4-1,0.3,3-2.6-0.4c0.8,2.9,2.9,5.2,2.1,5.4c-2.8-3.2-3.2-7.1-5.5-10.5c-1.4-3.2,5.2,6.4,2.2,0.5
				c-3.2-4.7-4.5-3.5-3.5-0.1c-2.1-1.8-2.8-4-4.7-5.8c1.1,3.9,1.5,8.8-1.8,4.3c-1-0.9,0.7,1.8,1.7,3.1c-0.3,1-0.3,2.6-4.3-2.3
				c1.9,4-0.2,1.6,1.7,5.6c-1.2-3.7,6.3,6.4,3.5,0.1c3.8,4.9,4.2,7.2,7.7,9.8c3.1,7.3-1.9,0-2.6-0.4c2.3,5.3,3.2,3.4,6,7.8
				c-1.6-3.4-1.2-3.5,1.3-0.4c-1.9-4,0.3-1.6-2.1-5.5c-2.1-2-1,0.9-4.3-4.7c-0.6-2,3.7,3.9,2.1,0.5c2.8,3.8,2.7,5.5,5.1,6.9
				c-4.8-6.8,1.1-0.1,1.7-0.5c0.9,1.1,4.4,7.2,2.5,5.3c0.5-0.3,6.1,5.9,5.5,3.2c6.3,8.5,4,2.3,9.7,10.4c-0.1-2.2-2.9-6.5-1.6-6.8
				c1.3,1.6,1.7,3.5,2.5,5.3c4.9,6.2,3.4,2,5.9,4.3c-1.3-2.8-2.2-3.8-2.9-4c-2.5-5.3,1.5-0.5-1.6-5.6c0.6,0.9,4.3,6.4,3.4,3.9
				c2.8,3.8,1.6,2.7,2.5,5.3c3.4,3.3,1.5-2,7.1,5.2c-6.2-11,4.6,4.5,0-4.8c3.7,6.5,2.4,2.3,5.4,6.9c-0.3,1-0.3,2.5-4.2-2.4
				c4.5,8.8-1.6,2.4-5.9-1.9c1.8,3.1,3.6,6.2,4.6,9.6c-2-5.2,1.7-2,4.7,0.1c3,2.1,5.4,3.1,0.7-6.5c1.9,0.6,2.4-1.3,5.8,1.9
				c-1.3-2.8-2.2-3.9-2.9-4c-0.8-2.2-1.6-4.4-2.4-6.6c0-0.8,1,0,2.5,1.7c1.3,3.5-1.4,0.1,1.2,5.7c2.3,2.6,2.7,2.1,4.9,4.6
				c-0.5-1.5-1.1-2.9-1.6-4.4c0.2-0.3,0.9,0.1,1.7,0.8c1.8,2.3,2.8,4.8,3.6,7.4c2.7,1.4-5.1-10.3-1.1-6.9c-0.9-1.8-1.9-3.5-3.3-5.1
				c-0.6-1.9-0.8-3,0.1-2.4c4.5,9.3,9.2,10.9,12.7,14.6c0.3,2.9-6.5-2.5-1.7,5.3c-1.2,0.5-4.5-2.8-5-1.1c3.4,5.9,2.5,1.3,4.5,3.6
				c0.7,3.1-0.7,0.8,2,6.6c-5.8-8.8-1.8-0.7-7.8-9.9c1.2,4.1,3.9,7.7,6.5,11.4c0.3,2.1-3.6-4.4-4.9-5.8c1,2.6-0.2,1.5,1.6,5.6
				c-2-1.8-2.7-4-4.5-6c2.1,5.3-0.4,0.4-2.1-0.6c1,3.5-1.6,1.1-0.4,4.9c-2.3-2.1-2.8-4.8-4.6-7.1c0-2,4.8,2.3-0.4-5.9
				c-0.9-0.5,0.9,3.6,0.8,4.6c-0.9-1.4-1.8-2.7-2.9-4c1.8,4.8,1.9,5.2-1.3,1.6c1.1,4.1,4.7,7.5,5.8,11.6c0.2,0.7-0.4,0.1,0,1.2
				c-2.4-2.5-3.4-5.5-5-8.2c-3.6-4.8-1.3-0.1-4.2-3.6c0.4,1.5,1.4,2.8,2.5,4.1c0.3,2.9-6.9-6.4-2.5,3.1c-4.4-2.8-3.4,2.1-9.6-4.4
				c2.5,5.4-0.6,1.7-0.8,2.7c2.9,5,3.8,6,5.1,9.4c3.8,4.2,2.9,2.8,6.7,7.7c-2.7-5.1-2.2-3.7-4.3-8.4c0-1.7,3.2,1.7,0.8-3.9
				c2.9,3.6,3.8,7.7,5.9,11.5c2.1,2.5,1.5-1.5,5,4.6c2.3,1.2-0.9-6.6,5.3,0.9c1.1,3.4-0.8,1.7,0.1,4.8c1.1,0.8,0.9-0.6,4.2,3.7
				c-2.4-4.4-2.3-4.4,0.8-0.2c-2.9-7.8,5.4,2.9,5.3-0.3c2.1,1.8,2.4,4.1,3.4,6.3c2.8,3.6,1-0.4,2.8,1.6c-2.6-3.6-4.9-7.4-8.3-10.9
				c-1.1-1.7-2-3.4-2.9-5.2c0.2-0.5,1.4,0.4,2.1,0.6c1.5,2,2,4.2,4.1,6c-0.5-1.8-1.7-3.5-2.5-5.3c-0.3-0.9,1.3,1.2,0.8-0.2
				c3.1,4.3,1,2.5,3.3,6.3c1,2.9-3.4-3.3-1.2,1.5c4.5,1.4,8.2,1.6,12.1,2.1c3.9,0.5,8.1,1.5,13.2,4.3c-4.6-8.7,0-4.7,4,1.4
				c-2.2-4.6-5.4-9-7.6-13.6c-0.1-2.4,4.7,6,4,2.6c1,1.3,1.4,2.8,2,4.3c1.7,1-0.1-4.2,2.4-1.8c5.3,11.6,5.9,5.6,12.3,13.6
				c-0.4-2.3-2.5-4.2-3.9-6.2c1.8,0,1.8,1.3,4.7,3.6c-0.7-1.8-2.5-3.4-3.1-5.2c0-0.8,0.9,0.1,2.4,1.8c-1.1-2.1-2.1-4.3-2.7-6.5
				c-1-3.5,3.7,5.4,1.6-0.4c1.5,2,2.5,4.2,3.1,6.4c4.1,2.6,5.5,5.8,6.7,2c1.1,1.7,2.1,3.5,2.7,5.3c-1.6-6.6,3.6-1,3.2-5.4
				c0.9,1.4,1.7,2.8,2.3,4.2c0.8,0.1-0.3-3.5-1.9-7.9c1.8,2,2.9,4.1,3.4,6.3c1-3.1,9.7,8.3,5.9-3.7c2.1,2.3,2.5,5,4.5,7.3
				c0.7,2.2-1.6-1.4,0,2.3c0.9-2.1-0.1-8.9,4.8-4.4c-2.2-4.7-3.3-3-4.9-8.4c3.4,4.2,6.1,7.7,6.1,5.9c-3-6.9-1.1-0.3-3-2.9
				c-1.7-4.9,0.4-2.3,0.5-3.6c1.9,3.6,3.5,7.1,5.2,10.7c1.1-2-1.5-10.2,2.9-6.4c0.9,1.4,1.2,2.9,2.2,4.3c1.4,2,1.1,0.8,2.6,3
				c-1.4-4.2-1.8-4.3-2.1-6.6c1.2,2.1,2.5,4.2,4.1,6.3c-0.2-2.4,1.5-1.3,2.4-1.6c1.8,2.7,1.3,3.9,0.3,2.3c4.1,6.4,1.8-1.6-0.9-8
				c2.5,2.7,3,5.7,3.9,8.7c1.4-0.2-1.7-9.4,1.4-6.1c1.3,1.6,2.6,6.6,0.3,2.3c2.5,4.6,4.1,6.1,5.2,6.1c-0.1,0.4-0.4,1.6,1.8,4.4
				c0.2,1.3-2-2.3-0.1,2.3c2.6,3.9,1.2-0.3,3,1.8c-1.7-2.8-3.9-8.4-1.7-5.5c-0.8-2.1-0.8-0.9-2.2-3.1c-0.2-2.1,0.3-2.8-1.9-9
				c2.4,2.7,2.4,5.8,4.6,8.6c-1.1-3.6-0.2-3.8-2.7-8.9c2.3,1,5.7,3.7,5.7,1.4c-1.2-2.5-2.7-5-3.1-7.7c3.6,6.1,4.1,9.5,6.4,10.6
				c1.6,4.5-0.4,1.5-0.5,2.4c2.8,5.6,1.4-1.2,3,0.7c-0.8-1.8-2-3.6-2.4-5.5c1.7,2.2,1.4,0.5,4.7,6.3c-0.5-2.7-2.2-5.1-2.7-7.8
				c0.2-0.8,5.7,9.4,2.7,0.8c1.6,2.1,2.1,4.3,3.9,6.4c0.9,3-0.1,1.9-0.8,1.3c8,10.4,7.6-0.7,12.5,1.7c1.4,2.9,2.4,5.9,3.3,8.8
				c1.3,1.3,0.4-2.4,2.6,0.8c-0.7-2.6-2-5.1-3.3-7.7c1.6-0.4,9.4,9.6,4.5-5.2c2.8,4.9,1.1,4,2.9,7.7c1.3,0.1,1.4-0.3,3,0.8
				c-0.6-1.8-1.7-3.6-2.3-5.5c0.3-2.3,8,10.1,4.5,0.6c1.6,2.5,2.5,5.1,4.3,7.6c0-1.4-1.7-6.6,1.2-1.3c-4.2-11.6,4.4,2.3,2.4-6
				c0.8,2.2,2.6,4.3,3.2,6.6c-0.1-2.5-0.9-6.7,3.3,0.8c-0.9-3-1-4.1-0.8-4.5c0.7,1.5,1.4,2.9,2.2,4.4c-1.3-3.5-0.3-3.7,0.8-0.1
				c-0.8-3.3,0.5-2.6,2.6-0.3c-2.2-4.7-1.9-5.2-1.4-5.6c0.8,1.4,1,3,1.5,4.4c1.7,1.6,1.6-0.8,3.3,0.9c1.5,5.4-1.4-1,1,5.6
				c1,1.1,2.3,2.7,2.2,1c1,1.8,1.2,3.7,1.7,5.6c-0.7,0-4.4-7.2-2.5-0.9c0.2-1.5,3.6,7.5,3.6,5.4c2.3,5,1.8,5.5,1.7,6.7
				c-1.4-2.6-2-5.2-3.1-7.8c-2-2.9,0.1,2.7,1,5.6c-0.6,0-0.4,2-2.8-2c1.8,0.9-2-7.2-0.3-5.7c-1.4-4.1-2-1.8-2.8-6.7
				c-0.8-3.7,2.7,6.9,2,3.3c-1-4.8-1-2.6-3.2-6.6c0.1-0.5,0.1-1.1,0.8-0.1c-2.5-4-2.2,2.7-5.2-0.7c3.1,6.4-0.2,1.4,2.1,6.7
				c0.7-0.4,1.3-1.2,0.7-4.7c6.7,14.7,1.7,10.4,2.6,14.7c-3.7-5.4-4.8-11-8-16.5c3.1,7.3-2.1-1.8,0,4.6c0.1-1.2,2.8,1.2,5,7.5
				c-4.2-7.2,0.7,4-2.9-0.9c-2.2-3.2-2.7-6.6-4.8-9.9c0.5,1.9,1,3.7,1.4,5.6c0.9,1.5,1.8,2.9,2.3,4.4c0.6,5.7-2,3.7-2.3,7.1
				c2.8,5.2,1.7,1.1,3.1,3.1c0.6,3.8,0.1,6.9-4.3-1.9c0.8,0.8,0.9-0.3-0.4-4.5c-1.6-4.2-1.5-1.3-3-5.5c-0.7,1.3,2.3,10.2-3,0.3
				c1.6,4.5-0.1,1.8-0.8,1.2c0.8,1.8,1.2,3.7,2.3,5.5c-3-3.6-1.8,4.6-6.4-3.8c-0.6,0.6-0.5,2.6-0.9,3.6c-0.9-1.8-1.6-3.6-2.3-5.5
				c-1.7-2.2,1.4,4.2,1.6,5.6c-2.4-3.6-3.7-7.2-5-10.9c-1.7-1.8-1.7,0.8-5.3-6.3c1.8,4.4,4.5,8.7,5.7,13.1c2.7,3.1-4-9.6-0.1-4.6
				c2.2,4.3,3.1,6.9,3.3,8.8c-0.5,2.2-6.8-8.2-6.8-4.9c-3.4-6-1.1-3.7-1.9-6.7c-2.1-3-1,0.6-0.9,2.4c0.7,1.4,1.5,2.9,2.4,4.3
				c0.1,1.3-1.9-2.4,0.3,2.3c-3.1-4.3,1.2,7.3-4.7-2.9c2.2,5,1,5.9-1.9,0.3c3.8,9.4,1.9,9.3-1,5.9c0.3,1.5,1.2,2.9,1.7,4.4
				c-2.7-3.5-2.2-0.1-5.7-7.3c0.8,2.6,1.6,5.2,2.4,7.8c-3-3.4-3.1-7.3-5.6-10.8c1.4,4.6,0.1,3.8-1.9,1.5c1.6,3.6,2.6,7.3,4.2,11
				c-2.6-4.2-3.3-8.8-6.4-12.9c5.2,10.5,2.5,10.3-0.9,5.9c0.1,2.2,3.4,8.7,1.3,6.7c-1.9-3.8-3.4-8.4-3.6-6.4
				c-1.8-3.2-2.9-6.5-3.9-9.8c-0.7-1.1-0.6-0.6-0.4,0.1c-0.5-0.7-1-1.4-1.5-2.1c0.8,2.9,2.7,5.7,3.5,8.7c0.6,3.3-3.6-5.3-6.2-8.3
				c1.4,4.3-2.3-1.6-1.6,1.4c3.8,5.9,3.8,4.3,3.4,1.8c1.3,2.5,3,4.9,4.7,7.4c-1.4-1,1.2,3.8-2.2-0.8c0.2,2.3,2.6,4.2,2.9,6.5
				c-3.5-5.1-4.5-3.5-6.6-4.7c1.2,2.8,2.8,3.2,2.6,1.9c4.5,8.3,2.1,7.6,0.3,5.8c-3.2-5,1.1-0.6-1.4-4.4c-3.8-5.4,1.2,3.9-1.1,1.4
				c-4.2-10.5-2.1,2-8.5-7.8c1.8,4.5,1.7,7.2,3.3,12.2c-4.8-9.4-3.5-0.6-2.2,2.7c-1-1.4-2.1-2.7-2.6-4.2c1.4,3.3-1.3-0.2,0.4,4.6
				c-4.7-7.7-1.4,0.1-1.5,2.6c-1.6-2.4-2.4-5-4.5-7.3c0.7,6.1-3.2,1.4-3.7,5.4c-1.8-2.7-2.6-5.3-3.4-5.2c4.6,8.5,0.6,3.8-3-1.7
				c3.9,6.3,5.2,11.2,2.7,8.8c-3.2-5.2,1.2-0.3-2-5.5c-1.4-2-1.1-0.8-2.7-3c1.2,2.8,3.1,5.2,2.3,5.4c-1.2-1.7-1.4-3.6-2.7-5.3
				c-2.7-2.5-1.4,0.7,0.8,4.5c0.1,2-3.7-6.6-3.8-5.1c3,5.1,3.1,7,3.1,8.7c-3.8-6.2-0.7,0-4.2-5c2.5,4.5,1.3,4.3-0.3,2.4
				c-1.5-2.5-0.3-1.3-2.7-5.3c3.4,6.6-3.6,0,2.5,10c-2.4-2.8,2.2,6.7-0.3,3.6c-3.1-4.5-1.2-3.4-3.6-8.6c-1.6-1.5-1,0.9-2.6-0.6
				c7.2,13.3,1.1,7.6,1.8,10.2c-2.2-4-2.2-5.8-2.9-7.6c1.2,1.3,1.8,2.7,2.4,4.2c2.2,2.2-1.2-3.2-0.9-4.5c-2-1-1.5,0.4-7.4-7.7
				c0.6,2.6,2.9,4.8,4,7.3c-5.5-7.3-5.2,1.8-8.3-0.5c0.2,0.8,0.8,4.4,3.3,7.5c1.7,4.8-4.4-3.9,0.6,4.6c-2.2-2.6-3.2-5.5-4.9-8.3
				c-0.3-1.2,1.6,1.6,2.8,2.9c-1.8-4.2-4.3-6.5-4.1-8.5c-1,0.1,0.6,3.1,1.4,6.7c-0.9-1.3-1.7-2.7-2.8-4c1.5,3.7,1.9,2.5,4.4,7.2
				c0.6,2.1-2.2-1.6,0.1,3.5c5.8,4.4,8.9,4.2,12.2,4.3c2,1.9,2,4.3,4,6.2c0.7-0.2-1-2.6-2.1-5.4c3.1,4,4.3,8.4,6.1,12.7
				c-1.7,0-8.9-8.9-7.1-2c-0.4,0.3-3.5-3.8-3.5-2.8c3.2,4.5,2.7,3.9,0.5,2.2c0.6,2.2,2.4,4.1,3.3,6.3c-6-7.6-2.8-1.5-4.1-1.4
				c-1.7-2-2.5-4.1-4.4-6c2.8,4.5,4,7.7,1.8,5.5c-1.7-1.9-1.5-4.4-3.7-6.2c1,2.2,0.2,1.3-0.7,0.2c1,1.7,1.8,3.5,2.5,5.3
				c-3-2-4.3-2.6-8.6-7.3c5,8.8-2.5-1.8-0.2,3.6c-2.7-3.8-0.1-1.4-2.2-5.4c-0.5,0.4-0.6,1.6-2.7-0.5c0.2,1,3.2,6.7,1.4,4.4
				c3.5,5.3,2.9,4.8,4.7,9.5c0.7-1.5,5.2,4.8,3.7,0.3c3.5,4.5,1.8,3.8,4.5,7.2c-1.1-3.2-3-6.4-5.1-9.4c-0.5-1.6,0.6-0.6-0.6-3.4
				c4.1,6.7,3.2,3.1,3.1,1.6c3.1,4.3,1.6,4.1,4.7,9.5c1.2,0.7,0.1-1.1-1.4-4.4c1.2,1.6,4.2,5.5,5.5,5.7c-1.7-2.7-2.7-5.6-3.8-8.5
				c2.3,3.4,4.1,6.9,6.9,10.2c-1.4-3.2,1.2,0.1,1.4-0.3c1.2,2.5,3.1,4.8,4.5,7.2c0.7-2.4,3.7-0.9,7,0.9c-2.8-6.9,3.6,2.1,2-2.8
				c8.1,10.4,0.9-7.4,10,6.1c-1.8-3.9,0-1.4-1.3-4.4c2.7,3.9,3.3,4,5,6c0.7,2.7-2.3-1.4,1.4,5.5c-2.9-5.7-1.9-2.6-3.4-4
				c2.1,4.5,2.1,3.2,3.1,4c2,5.2-0.4,2.5-1.2,2.6c-1.5-2-1.2-3.6-0.1-2.3c-3.4-5.4-1.9,0.7-3.6-0.4c2.7,3.9,0.3-1,3,2.9
				c-2.4-1,0,4.3-0.7,5.9c-1.9-2.3-1.7-5.1-4-7.3c0.6,1.4,1.2,2.9,1.7,4.3c-4-3.9-3.7,0-2.6,4c-2.4-6-3.1-3.9-4.6-4.8
				c1.5,2.7,2.5,5.2,3.2,5.1c3.4,8.1-3.9-3.9-1.2,2.6c-2.3-3-3.9-6.1-5.7-9.3c-1.4-1.4,2,5.7,3.1,7.5c0.8,2.7-6.1-6.2-1.6,1.5
				c-0.3,0-3.2-2.5-4.3-4.9c2.3,5.1,1.1,6.7-2.9,3c-0.5-2.5,0-1.6-2.8-7.5c-2-2.2-3.5-3.6-5.5-5.8c0.2,1.3,5,7.1,2.9,5.2
				c2.9,5.4,0.7-0.3,1.1-0.3c4.2,6.7,5,11.7-0.3,4.8c-1.4-0.2,5.6,13.5,0.3,6.9c0.6,1.4,1.2,2.8,1.8,4.2c-1.8-1.9-2.5-4.1-3.8-6.1
				c-1.8-1.5,2.6,6.7-0.8,2.5c-2.8-3.8-1-2.8-2.3-5.3c-0.3,3.2,0.5,7.8-5.7,0.2c-0.4,0.4-1.5-0.2,0.8,4.5c1.5,1.6,2.6,3.2,3.4,5
				c-3.8-4.8-1.5,2.3-6.4-3.1c-1.3-2.7-2.4-5.3-0.7-3.3c-2.6-3.4-4.5-3-5.8-3.3c2.4,5.2,0.6-0.1,4.1,4.8c1.6,3.5-1.1,0.5,0.9,4.5
				c1.2,1.7,2.3,3.3,3.1,5.1c2.3,2.7,0.9,0.2,3.3,3.9c0,0.3-0.1,0.7,0.6,2.2c-5.8-7.5-4.7-5.3-8.1-8.5c-2.6-5.1,3.1,2.6,0.4-2.5
				c-2.9-3.7-1.6-1-4.5-4.7c3,4,3.5,7.6,2.6,7.5c-1-1.3-1.6-2.7-2.3-4.1c-3.6-4.7-1.2-0.1-4-3.7c1,2.1,3.1,3.9,4.3,6
				c1.1,3.9-3.5-0.9-3,1.9c3.5,5.3,0.3-1.1,2.7,1.7c0.8,1,1.3,2,2.1,3c-2.2-1.7,0.1,2.2,0.5,4.5c3.8,5.7,3.4,3.6,0.5-1.3
				c2.5,2.5,3.2,6.3,4.3,6C187.6,456.6,187.1,458,191.2,462.6z M284.1,500.9c-1.8-4.5,1.2-0.1,2.3,0.8
				C287.7,505.1,286,503.3,284.1,500.9z M350.2,535.2c1.9,4.9-1.1,0.9,2.9,7.6c0.6,3-0.9,1.5-3-1c-1.8-4.5-0.3-1.6-3.3-8.7
				c0.9,1.4,2.6,4.4,2.3,3.2c-0.5-1.5-1.5-2.9-2.1-4.3C348.5,533.9,346.3,528.2,350.2,535.2z M665.6,188.4c1.2-3.4,1.7-8.3,1.9-3
				C667,189,665.6,192.5,665.6,188.4z M682.4,59.4c1.9-2.4,2.2-3.6,4.6-10.8c-0.2,5.4,0.8,2.7,1.8-0.6c0,5.3,0.1,5.7-0.4,12.4
				c1.9-4.3,1.8-9.4,2.2-14.2c1.6,3.2-0.3,14.6-2.4,20.5c-0.3-9.3-4.4,6.3-5.4,1.7c-0.1-5.4,1.3-2.5,1.5-6.9
				C683.2,63.9,681.8,64,682.4,59.4z M534.6,91.1c-0.7,4.1-1.7-1.4-2.5,0.7C532.8,87.3,533.6,88,534.6,91.1z M464.6,107.7
				c-0.9-4.2-2.3-3.2-2.6-8.5C463.3,104.6,464.4,100.4,464.6,107.7z M410.1,105c0.8,1.1,0.6-3.2,2.3,2.5
				C412.6,111.1,410.8,109.8,410.1,105z M86.2,144.4c-0.9,0.4-1.7,1-4.7-2.4C82.5,142.2,83.2,139.2,86.2,144.4z M142,208.4
				c2.4,4.8-2,4.5-5-2.5C141,211.1,137.9,202.9,142,208.4z M57.2,214.7c-0.8-1.8-2-3.4-2.5-5.3c1.7,2.1,1.4,0.9,3,2.7
				C59.1,215.4,60.1,218.2,57.2,214.7z M241.3,352.5c-1.5,0.7-2.4,0.6-4.5-0.5C236.4,348.1,238.2,349,241.3,352.5z M206,359.9
				c-0.9-0.5-1.6,1.3-3.8-2.8C202.7,357,203.1,354.7,206,359.9z M183.4,356.6c0.9,1.5,4.5,9,1.3,4.4
				C182.7,358.3,181.6,354.1,183.4,356.6z M186.6,445.1c-1.2-1.2,0.8,1.6,1.4,3.2c-4.7-6.3,1.2,3.7-3.5-2.6
				C181.6,440,184.3,441.6,186.6,445.1z M226.5,465.1c-0.3,0.4,1.4,3.9-1.3,0.3C222.6,459.8,226.2,464.7,226.5,465.1z M268.6,494
				c2.3,4.1,1.3,4.3-1.6,0.3C265.1,490,267,492.4,268.6,494z M273.8,494.3c0.9,2.7-1.4,1.1-4.3-3.9
				C271.7,493.1,270,488.8,273.8,494.3z M110.2,288.5c1.8,0.3,1.2-3.3,4.1-1.1C116.2,293,113.1,292.1,110.2,288.5z M326.6,564.3
				c2.5,4.8,1.5,4.8-1,1.2C323.1,559.9,324.5,561.4,326.6,564.3z M226.2,425.8c-0.7-0.1,0.7,3.5-1.7,0.3
				C223.2,423,223.2,420.4,226.2,425.8z M98.9,270c-2.2-3-0.7,1.9-3.8-3.7C96.3,267.1,95.8,263.9,98.9,270z M98.5,266.6
				c4,5.8,1.4,1.1,3.3,2.7c0.7,1.8,2.5,3.3,3.3,5.1c-1.3-0.3-3.4-4.2-1.6,0.5c-0.8-1-1.7-1.9-2.5-2.9
				C100.1,270.1,99,268.4,98.5,266.6z M110.5,278.8c-0.3,0.7,1.3,4.7-2,0.6C106,274.1,107.6,275.3,110.5,278.8z M196.4,376
				c-0.7-1.9-0.9-3-0.1-2.3c1.1,3.6,7.4,13.4,4.5,10.7C197.7,379.6,199,379.2,196.4,376z M115,273.9c0.5,1.4,1.1,2.9,1.7,4.4
				c-0.8-1-1.6-1.9-2.5-2.9C112.1,271,114.1,273.4,115,273.9z M64.1,215c-4.7-7-0.5,0.8-3-1.5C56.9,206.9,62,208.7,64.1,215z
				 M199.3,373c3.7,4.2-0.5-6.2,5.7,3.5c-3.5-6.3-2.1-6.4,0.3-3.5c-1,1.8,3.5,9.1,4.5,14.2c-5.5-8.4-0.1,1.1-4.6-6
				c0,1.8,0.8,6.8-2.5,1.7c0.6,0.7,1-0.5-0.5-2.2c0.1,1.4-0.9,0.9-3-1.7c-1.6-3.8,0.3-1.3,2.7,1.8
				C200.6,377.4,202.5,378.7,199.3,373z M288.1,495.8c2.9,5.3,1.2,4.1,0.3,3.4C286,494.8,286.3,493.5,288.1,495.8z M186.8,359.3
				c1.1,1.3,2.1,2.7,3.1,4c1.2,2.7,1.4,3.8,0.1,2.3C189.7,363.4,187.2,361.6,186.8,359.3z M77.3,221.9c2.2,4.8-4.2-4.3-1.3,1.6
				c-2.4-2.6-4.4-7.3-5.4-6.9C67.6,208.9,75.5,221.4,77.3,221.9z M124.8,277.2c1.3,3.3,3.1,7.7,0,3.6
				C125.2,280.3,121.9,273.5,124.8,277.2z M93.2,240.3c-4.3-5.6-6.5-13.6-3.2-10c2.4,3.9,3.4,6.9,3.3,7.5
				C90,232.6,91.2,236.2,93.2,240.3z M220,387.5c-3-5.4-1.8-1.8,0.1,2.3c-0.7-0.3-1.5-1.3-3-4c1.6,5.4-3.9-1.9-2.1,3.9
				c-2-2.4-5.1-9.3-2.7-3c-2.4-2.9-7.1-11.4-4.3-8.4c0.6,1.4,1.2,2.9,2.3,4.2c-6.5-11.9-2.3-8.7-2.9-12.2c1.3,1.7,2.6,3.4,3.8,5.1
				c0.4-0.7-2.2-7,1-2.5c3.3,6.7,2.3,8.3,0.6,6.9c1,1.4,0.9,1.8,0.8,2.2c0.8,0.2,3.9,4.5,4.1,3.8c-2.4-6.2-4-10.9-0.2-5.8
				C216,380,219,384.6,220,387.5z M124.4,273.7c-0.8-2.2-3-4-3.6-6.2c3.1,4.5-0.7-2.8,2.5,1.7c1.4,3.6,3.6,7,4.8,10.7
				c-0.8-1-1.6-2-2.4-3C125.2,275.9,124.8,274.8,124.4,273.7z M344.9,570.7c1.9,3.3,3.2,7.7,0.7,3.3
				C345.1,572.4,342.2,566,344.9,570.7z M301.2,501c3.5,7.3-3.2-2-2-0.9C300.3,501.1,298.6,496.9,301.2,501z M99.5,236
				c0.5,1.5,1.1,2.9,1.6,4.4c-1-1.3-2.3-2.6-2.9-4C99.6,237.7,95.8,231.3,99.5,236z M120.9,256.7c0.6,1.8,1.7,3.5,3.2,5.2
				c0.7,1.8,1.3,3.6,2,5.5c-1.1-0.7-3.3-3.2-4.9-4.7C121.7,261.8,120.8,258.4,120.9,256.7z M98.8,233.8c-1.4-3.2-3.4-6.3-5.3-9.4
				c1.6,1.9,0-1.7,2.5,1.7c2.6,7.8,3.6,3.1,6.5,9c-2.6-2.8-0.6,4.5-5.4-3.3C97.7,232.6,98.2,233.2,98.8,233.8z M133,270.3
				c-4.7-7.4-1.5,0-4.1-2.5C124.1,258.2,129,262.1,133,270.3z M135.9,272c1.3,0.7,4,6.5,3.2,4c-1-2.5-2.9-4.8-4-7.4
				c1.1,1.3,2.1,2.6,3.2,4c0.7,1.8,1.2,3.7,2.8,5.3c1.1,2.8,2.1,5.5,0.4,3.5c-0.6-1.4-1.2-2.9-2.4-4.2c0.5,2.3,2.1,4.2,2.8,6.5
				C138.7,280,137.8,275.8,135.9,272z M157,297.7c1.6,4.6,0.6,4.5-3.2-0.4C152.8,293.9,154.4,295,157,297.7z M101.4,232
				c-0.4-2.8,4.5,3.4,3.8,0.2c1.7,4.7,0.5,3.8-1,3.9C103.6,234.5,102.5,233.2,101.4,232z M218.2,375.1c0.5,1.5,1,2.9,1.6,4.4
				c-2.9-4.4-3.4-4.3-1.5,0.3c-0.7-1-1.5-2-2.3-3C214.9,372.7,217,374.8,218.2,375.1z M110.9,239c-2-2.1-1.3,0.3-3.7-2.6
				C105.5,232.5,108.4,234.3,110.9,239z M312.3,506.6c0.7,3-2.6-1.7-2.5,0.3C306.5,499.8,310.3,504.2,312.3,506.6z M89.2,211.2
				c-1.6-2.4-2.4-5-3.6-7.4c0.1-1.1,0.7-1.2,1.8-0.5c2.1,3.1,3.5,6.3,5.2,9.4c-3.3-7.7-1-5.7-0.6-7.1c5.1,7,5.3,5.6,8.7,8.5
				c2.5,5.6-2.3,2.1-4.3,1.2c1.4,1.6,2.4,3.4,3.2,5.1c-1.3,0.4-2.7-1.3-4.1-4.9c-0.3,1.5-1.2,6.1-8-3.8
				C90.3,214.3,87.7,210.5,89.2,211.2z M128.8,257.1c2.7,5.4,4,8.4,1.1,5.7C131.4,262.6,126.9,256.6,128.8,257.1z M99.5,222.8
				c1.4,1.4,1.2,0.1,3.3,2.7C104.4,229.4,101.6,227.6,99.5,222.8z M220.7,374.6c0.8,0.8,1,0.7,0.3-1.2c1.2,1.7,2.5,3.4,3.7,5.1
				c-1.5-5.3,1.2-0.9,0.6-4.8c0.8,2.2,2.5,4.2,3,6.4c-2.9-3.9-2.4-1.5-2.2,0.4c2.2,3.5,4.2,7,5.3,10.6c-1.4-1.4-2.1-1.7-4.5-5
				c-1.4-3.6,0.7-0.9-1.2-5.6C223.4,376.4,223.2,378.9,220.7,374.6z M224.1,379.8c1.1,3.3,0,2.5-3-1.8
				C220.4,375.4,222.9,378.7,224.1,379.8z M109.9,229.6c2.1,1.8,1.9,4.3,4,6.1c0.9,2.7,0.3,2.8-1.7,0.5
				C110.6,233.5,109.3,229.7,109.9,229.6z M333.4,535c0.9,2.6,1.9,5.3-0.1,2.2C331.8,533.3,332.6,534.1,333.4,535z M103.8,221.6
				c1.4,1.6,2.2,3.4,3.6,5c1.3,3.2,0.1,2.2-2.1-0.6C104.9,224.6,104.3,223.1,103.8,221.6z M166.6,295.5c1.3,1.7,2.5,3.4,3.5,5.1
				c-0.2,1.3,0.4,4.3-3.2-0.5C164.9,295.1,168.8,300.8,166.6,295.5z M112.8,230c3.4,3.7,1.3-2.3,4.6,1.2c-1.7-0.6,1.6,7.4-2.2,3
				C114.7,232.8,113.5,231.5,112.8,230z M131,251.7c-0.5-1.5-1-2.9-1.5-4.4c1.6,2.4,3.5,4.7,4.8,7.2
				C131.4,250.6,133.7,255.6,131,251.7z M105.2,218.9c-1.3-2.9-4.6-5.2-5.2-8.2c1-0.4,2.5,4.4,5.3,7c0.6,1.8,1.3,3.7,1.9,5.5
				c-1.7-2.4-2.3-0.9-4.1-4.9C103,217,104.9,219.4,105.2,218.9z M230.3,378.6c-2.1-2.3,1.7,4.5-1.1,1.4
				C227.3,375.5,227.3,372.7,230.3,378.6z M138.3,253.4c-0.4,0.8-0.1,3-1.7,1.6C134.6,249.8,137,252.6,138.3,253.4z M342.4,540
				c0.4,1.6,1.4,4.3-0.5,1.1C339.9,537,339.7,535.3,342.4,540z M156.2,273c-1.5-1.2-1.1,1-4-2.6C150.6,266.1,154.3,269.5,156.2,273z
				 M234.3,377.9c0.4-0.9,2.3,0.8,3.7,1.7C239.6,384.3,238.1,386,234.3,377.9z M98.9,190.4c1.3,4.1,0.8,1.2,2.8,4.1
				c1.9,4.4-2.2-1.7-1,1.5c4,5.6,3.4,3.1,5.7,5.7c1.2,1.8,6,8.7,3.9,7.4c-1.8-4.1-1.6-1.1-4-5c2.7,6.5-2.3-0.5-1.4,2.8
				c-3.5-4.9-4.6-6-5.7-5.7c0.6,1.8,2.5,3.4,3.2,5.2c-5.2-5.2-6.6-9.8-10.6-18.8c1.5,1.6,2.1,3.4,3.2,5.2c-0.6-1.8,2,2.1,1.7,0.7
				c-1.4-1.6-2.6-3.3-3.6-5c-1.1-3.6,1.6-0.1-1.8-5.5c0.6-0.1,0.4-1.4,3.3,2.7c1,2.3-0.3,1.4,1.1,3.3
				C96.2,188.6,97.5,189.3,98.9,190.4z M125.3,224.4c-2.1-3.8-0.7-2.8-1-4.5c3.8,6.2,2.6,1.4,4.9,3.6c2.5,6.5,0.9-0.2,4.7,6
				c0.3,2.5-3.1-1.9-3.4-0.4c1.7,6.6,8.9,18.5,5.2,15.5C134.9,240.5,129.4,227.5,125.3,224.4z M344.2,533.3c1.3,2.5,1.7,5.1,3.5,7.6
				c-0.8-3.3-2.7-6.5-4-9.8c1.3,2.3,1.1,1.1,2.3,3.2c3.5,8.2,3.8,10.1,6.9,17.4c-5.1-8.3-4.9-7.6-7.5-10.7
				C344.1,537,342.7,532.4,344.2,533.3z M238.7,377.2c2,4.4,2,5.7,0,3.5C238.1,378.5,238.6,378.2,238.7,377.2z M87.3,180.3
				c0.8,2.2,2.9,4,3.6,6.3C90.6,188.2,85.3,178.9,87.3,180.3z M136.9,237.1c1,2.9,2,5.9,3,8.8c-1-1.2-0.6,0-2-1.9
				C135.1,239.4,134.3,234.4,136.9,237.1z M241.2,379.1c1.8,2.5,1.6,1.2,3.3,5.3c-1.5-2.1,0.1,1.7-2.2-2
				C242,381.3,241.6,380.2,241.2,379.1z M182.8,295.4c3.7,4.7,3.6,8.3,1.5,5.6C182.6,296.9,184.5,299.5,182.8,295.4z M105.4,198.3
				c0.4-0.2,3.8,4.1,4.8,7.2C108.2,203.2,106.3,200.9,105.4,198.3z M239,372.5c0.3,0.7,0.5,1.5,1.1,2.1c-0.7-2-0.4-2,0.4-1.2
				c1.1,3.5,1.1,4.6-0.7,2.4C239.3,374.4,238.1,371.5,239,372.5z M228,352.4c-2.5-3.6,0.7,4.1-1.9,0.3
				C224.7,349,225.3,346.9,228,352.4z M62,136.5c2.1,4.7,2.1,1.7,0.1-1.2c2,2.3,3.1,4.8,4.4,7.3c-1.7-0.8,0.2,2.1-2.3,0.7
				C62.6,139.8,61.6,137.1,62,136.5z M357.2,539.5c1.4,3.9-0.6,0.3-1.1,0C354.6,535.6,355,535.6,357.2,539.5z M196.3,295.1
				c1.2,3.2,0.1,2.2-1.9-0.8C193.2,291.1,194.2,292.1,196.3,295.1z M260.3,385.5c2.5,3.2,4.4,9.3,1.4,4.4
				C260.8,386.9,259.8,385.9,260.3,385.5z M202.4,299.8c-1.4-4.6,1.2-3.5,4.6,2.7c-3.9-5.9-1.2,1.3-2,1.5
				C203.7,300.9,204.2,303.7,202.4,299.8z M367,544.8c0,1.4,0.1,3-2.3-1.1C363.9,540.9,364.1,538.8,367,544.8z M92.5,148.7
				c-1.4-1.5-3.3-1.6-5.3-5.9C86.7,141,90.7,144.9,92.5,148.7z M142.8,203.4c3.5,5.2,3,2.6,5.5,5.9c1.2,4.1-2.7-1.8,0.4,5.9
				c-2-2.9-1.1-0.2-3.5-4C144.3,207.4,144.6,208.5,142.8,203.4z M247.4,346.9c2.3,3.1,4.2,6.3,4.9,9.7c-1-0.8-3.9-6.4-4.3-5.2
				C246,346.2,248.8,350.9,247.4,346.9z M113.5,153c1.1,3.9,1.9,7.2,0.3,5.9C112.6,155.1,110.5,149.2,113.5,153z M182.7,247.1
				c1.1,3.3,0.1,2.2-2-0.8C179.6,243,180.7,244.1,182.7,247.1z M155.7,207.7c0.9,3.5,1.1,5.6-1.8,1.6
				C153.1,206,154.7,207.5,155.7,207.7z M171.1,225.8c3.3,4,1.4-2.1,3.4-0.7c3.2,7.9,0.3,5-0.9,6.1c0.6,1.6,1.9,3.9-0.1,1.2
				C172.4,230.2,171.6,228,171.1,225.8z M227,300.1c1.2,4.7,0,4.4-1.4,3.7C224.2,298.8,225.6,299.6,227,300.1z M113.7,142.1
				c0.7,2.8-0.3,2.1-0.7,2.6c-1.4-3.7-3.8-7.1-5.1-10.7C110.4,136.5,111.4,139.5,113.7,142.1z M112.3,147.3
				c-3.2-5.3-2.5-2.7-5.2-5.9c1-1.5-3.8-13.5,1.5-5.2C108.1,138.2,110.6,142.7,112.3,147.3z M118.9,151.7c-2.7-4.3-1.3,2-4-3.8
				c0.8-0.3,0.8-2,4.2,2.6c0.5,1.9,1.5,3.6,3,5.3c0.7,2.9,0.2,3.8-1.2,2.7C120.1,156.2,121.5,155.7,118.9,151.7z M166.1,210.2
				c-1.7-2.1-0.3,2-2.8-1.8C162,204.9,164.7,207,166.1,210.2z M163.5,210.8c-0.6-2.6-3.2-4.9-3.6-7.6
				C161.8,204.9,165.1,212.2,163.5,210.8z M178.6,230.2c-1.4-4-0.2-2.9-0.4-4.6c2.8,4.5,2.8,3.1,3.8,4c0.2,2.3,0.6,2.4,1.9,6.7
				c-2.4-4.1-3.6-5.7-2-0.8C180.7,233.7,179.5,232,178.6,230.2z M285.6,383.5c1.7,4.9,0,2.9,2.3,7.8c-0.5-0.7-0.9-1.4-1.4-2.1
				c0.2,0.6,0.3,1.1-0.4,0C284.1,384,283.4,380.7,285.6,383.5z M375.7,538.2c1.1,1.6,0.2-1.1,2.1,3.3
				C379.4,546.2,376.8,541.6,375.7,538.2z M118.2,145.8c-0.5,0.6-1.7-0.3-3.7-2.7C112.1,137.3,117.5,144,118.2,145.8z M264.4,346.9
				c0.5,2.8-0.2,2.9-2.2,0.3C261.7,344.4,262.4,344.3,264.4,346.9z M131,151.2c-1.2-1.3,0.6,1.7,0.9,3.4c-1.4-0.7-4.7-7-3.3-1.6
				c1.8,3.7,2.7,2.3,4.5,7.3c-0.8,0.3-2.4-1.5-5.1-6C126.1,147.9,127.2,144.7,131,151.2z M240.4,308.5c1.6,1.4-0.6-5.1,3,0.7
				c1.3,4.4-0.2,2.7,0.4,5.7C242.3,312.9,241.1,310.7,240.4,308.5z M177.9,215c0.6,0.3,1.6,1.3,3.4,4.1
				C183.2,224.2,178.9,218.4,177.9,215z M134.9,151.5c0.4,1.5,1,3,1.7,4.4c-0.6-0.2-1.7-1.3-3.5-4C132.4,149.2,133,149,134.9,151.5z
				 M183.2,216.3c-0.5,0.5,2.3,7.5-0.3,3.6C181.9,216.5,182,215.1,183.2,216.3z M198.2,233.5c1.7,5.4-1.6-0.8,1.1,5.7
				c-1.2-1.7-2.3-3.5-3.2-5.3C194.9,229.7,195.6,229.6,198.2,233.5z M192.6,232.2c3,4.4-0.4-4.6,3.6,1.7
				C198.4,240.3,195.3,237.7,192.6,232.2z M144.6,163.7c2.2,5.7-0.9,0.9-2.9-1.8C140.5,158.2,143.5,163,144.6,163.7z M188.3,220.1
				c1.5,4.5-0.5,1.5-0.7,2.5C185.2,217.5,185.8,216.3,188.3,220.1z M186.7,210.9c1.1,4.8,0.8,5.2,3.5,11.2c-0.7,0.2-2.3-3.5-4-6.3
				c-1.3-4-0.1-2.9-0.4-4.6c-0.8-1.1-1.1-0.4-2.2-3.1c0.1-2.7,2.7,1.3,5.4,4.9c0.6,1.8,1.6,3.6,1.9,5.5
				C188.9,216,188.2,213.4,186.7,210.9z M195.6,222.2c0.6,4.5-1.1,4.2-3.2,3C187.7,214.9,192.5,219,195.6,222.2z M127.3,130.5
				c-0.2,2.2-2.7-0.1-4-0.3C123.2,127.6,123.8,126.2,127.3,130.5z M150.1,161.3c1.3,2.9,3.9,8.4,1.5,5.6
				C151,165.7,148.4,159.2,150.1,161.3z M136.3,136.9c2.5,2.3,1.6,5.2,3.5,7.6c1.7,2.1-1-4.7,1.8-0.4c1.2,5.3-1,3.4-2.6,3
				C137,142.3,139.3,144,136.3,136.9z M203.5,235c-1.8-7,4.4,2.8,6.9,9.4C207.7,240.2,206.8,238,203.5,235z M197,220.8
				c0.5,1.9,1,3.7,1.5,5.6c-0.9-1.4-2-2.8-2.5-4.3C198,225.3,193.7,214.9,197,220.8z M163.5,170.4c1.9,2.4,2.5,5,3.4,7.6
				c-0.9-1.3-0.6,0-1.9-2C164.5,174.2,164,172.3,163.5,170.4z M147.6,146.4c2.4,3.9,4.3,7.8,5.5,11.9
				C150.2,154.6,147,147.1,147.6,146.4z M190.3,209c-1.7-5.1,2.2,0.7,3.8,4C195.4,218.3,192.8,212.2,190.3,209z M151,144.5
				c1.3,1.9,2.3,3,2.7,3c0.2,2.9-2.2-1.5,0.6,5.9c-3.6-6.7-1.7-1-4.7-5C148.6,144.1,152.1,149.1,151,144.5z M162.5,154
				c-5-7.2-2.9,3.3-7.4-4.4C156.7,149.7,157.1,142.2,162.5,154z M161.1,154.2c0.6,2.3,2.4,4.3,2.7,6.6c-0.9-1-1-0.4-2.7-3
				C161.4,156,159.2,152.5,161.1,154.2z M167.6,149.4c2.5,4.1,0.6-1.1,3.1,3c0.4,2.3,0.5,3.8-0.8,2.5
				C169.3,153,168.2,151.3,167.6,149.4z M220.3,218.1c-0.5,0.6-0.4,6-3.8-2.9C219.2,219.8,218.2,213.4,220.3,218.1z M290.2,330.3
				c2.1,2.9,4,9.9,2.1,6.7C291.9,334.7,290.5,332.5,290.2,330.3z M217.2,212.7c0.9,3.3-0.8,0.7-2-0.9c-0.3-2.1-3.7-9.4-2.3-7.8
				C214,207,215.8,209.8,217.2,212.7z M213.4,202.8c2.5,2.9,5,10.9,2.8,7.8C215.1,208,213.7,205.4,213.4,202.8z M181.3,152.8
				c3.5,6.1,0.5-2.2,3.5,2.9c0.5,3.9-0.8,3.7-1.9,3.9C182.3,157.4,181.8,155.1,181.3,152.8z M209.5,194l1.1,4.5l-2.1-3.2
				C207,190.7,208.7,193.4,209.5,194z M223.1,215.4c-1.4-5.7,2.6,3.5,4.1,4.1C227.3,221.4,225.1,219.6,223.1,215.4z M228.3,220.5
				c0.9,1.4,1.8,2.9,2.8,4.3c1.3,4,0.4,5.7-1.7,0.2C231.1,227.5,228.7,221.5,228.3,220.5z M295.3,327.6c-0.1,0.8-1.7-1.9-2.7-3.2
				c2-1.7,4.2-3.1,8.8,1.6c2.6,8.2-3.1-3.8-1.3,2.4c1.6,2.6,1.5,1.3,2.8,5.5c-0.8,0.1-2.4-4.7-4.5-7.7c1.5,5.7-2.8-2.8-1.1,3.5
				c0.9,0.9,0.9-0.4,3.3,4.3c0.9,3.2-0.6,0.4,0.7,4.6c-1.4-1.6-3.4-8.7-3.5-6.6c0.5,2.6,2.7,5.1,3,7.8c-0.1,0.8-0.9-0.3-2-2.1
				C297.6,334.3,296.9,330.9,295.3,327.6z M216.4,200c3.7,6,2.4,0.6,5,4c1.4,4.5,3.7,8.1,3.3,10.1c-2.3-2.8-2.8-5.8-4.3-8.7
				c-0.1,1.4-1.3,0.1-0.5,3.6C217.7,206,217,203,216.4,200z M187.9,155.1c0.9,3.7,2.2,8.5-0.3,4.8
				C187.6,158,185.6,151.8,187.9,155.1z M243.3,241.8c0.4,1.5,0.7,3,1.1,4.5c-0.7-1.1-1.4-2.2-2-3.2
				C241.4,239.8,241.4,238.6,243.3,241.8z M238.3,214.4c0-1,0.4-0.9,1.5,0.9c0.9,6-5.8-7.8-7.4-9.5c0.4,1.9,0.9,3.8,1.3,5.7
				c-4.5-6.4-5.6-4.9-6.3-2.6c2.2,5.4,3.4,9.8,3.5,11.2c-3.8-8.5,0.5,3.1-2.7-2c-1.2-6.1-1.6-9.7-4-17c5.6,9.6,3.4-1.7,4.7-3
				c0.7,2.3,0.5,4.6,2,6.8c-0.6-3.3,0.7-2.2,0-5.9c-0.8-1.1-1.1-0.4-2.1-3.2c2.4,3.6,1.2-4,4.2,2.9c-2.3-2.8-0.3,5.9,3,11.3
				c-3.3-8.1,1.4-4,3-0.4C238.1,209.5,234.4,206.5,238.3,214.4z M234.5,203.2c-1.1-2.5-1.4-5.6-0.8-5.8c1.1,3.6,1.4,0.8,3.1,4.3
				C237.5,205.7,235.7,203.8,234.5,203.2z M188.9,157.3c0.5-1.7,1.9-1.1,3.9,0.5C192.7,160.2,192,163.4,188.9,157.3z M215,194.3
				c-1-1.2,0.2,2.7-2.3-2C210.6,186.5,214.2,191.4,215,194.3z M220.6,197c0.8,3.2-0.1,5-2.4-0.8C219.6,197.9,219.2,195.3,220.6,197z
				 M194.3,156.4c1.4,3.3,1.4,6-0.8,2.5C192.3,154.8,193.3,155.6,194.3,156.4z M304.8,329.1c1.9,5-0.8,0.9,2.2,7.9
				C304.9,333.9,302.9,325.9,304.8,329.1z M306.4,327.9c2,4.9,0.4,3.5,2.1,9c-0.6-1.1-1.3-2.2-1.9-3.3
				C305.8,329.9,304.4,324.5,306.4,327.9z M226.9,197.2c-0.2,1,0,5.3-2.4-0.8C225.7,197.5,224.9,194.2,226.9,197.2z M208.1,163.6
				c0.9,3.3,0.8,4.5-1.1,1.4C206.1,161.7,206.2,160.5,208.1,163.6z M240.9,208.2c0.8,0.4,0.9-0.6,1.7-0.2c0.9,3.9,2.6,8.2,1,6.8
				C243.1,212.6,241.2,210.5,240.9,208.2z M249.5,217.6c1.2,2,2,3.1,2.4,3.2c0.2,0.8,0.3,1.5,0.5,2.3c0.4,0.7,0.8,1.5,0.9,2.2
				c-3.2-4.9,1.7,4.8,1.9,6.8c-1.2-1.6-0.5,1.3-2.8-3.1C251.8,225.1,250.3,221.4,249.5,217.6z M238.7,198c1,1.8,2.4,3.6,2.9,5.5
				c-1.9-1.9-0.2,4.7-3.9-1.9C237.3,198,240,202.8,238.7,198z M418.8,531.9c1.5,3.1,2.2,6.1,2.9,9.1c-0.7-1.6-1-2-1.3-2.3
				C419.2,535.6,418.4,531.8,418.8,531.9z M313.5,324c-0.3-2.4,0.7-1.4,2.7,2.1c1,4.1,4.2,12.6,1.3,7.9
				C316.4,329.5,315.3,325.7,313.5,324z M255.7,220.4c-0.8,0.2-2.5-3.6-3.6-6.6c0.7,5.5-2.9,3.5-7.2-5c3.9,4.8,4.7,1.5,4.2-2.9
				c0.9,3,2.4,5.9,4,8.9c-1.9-4.8-2-5.2-1.2-5.7c1.2,1.8,1.6,3.7,2.4,5.5c-2-6.1-0.3-2,0.4-2.4c-2.5-4.5-1.6-5.7,0.4-2.4
				c1.6,3.8,0.2,2.9,1.6,8C255,216.9,253.5,213.6,255.7,220.4z M199.4,127.2c3.1,4.4-0.5-6.4,0-7.1c3.4,5.5,1.6,5,3.7,11.2
				c-2.3-4.4-0.7,0.7-0.4,2.4C201.1,131.7,200,129.5,199.4,127.2z M247.2,200.4c1.7,1.9,2.7,1.8,4.1,3c0.3,2.4,0.2,3.7-0.6,3.6
				C250.4,205.2,248.7,206.5,247.2,200.4z M215.1,143.7c1.2,2.9,2.6,8.7,0.7,5.8C215.8,148.1,213.6,141.5,215.1,143.7z M204.5,121.7
				c1.2,4.3-0.5,1.5,0.7,5.8c1.7,2.6,1.7,1.2,3,5.4c-1.3-1.3-2.2,1.3-4.9-5.2C202.9,124.4,201.5,118.2,204.5,121.7z M256.8,210.9
				c2.5,5.3,0.6-3.3,2.8,3.2C259.5,215.4,258.9,217.8,256.8,210.9z M235.7,170.3c-0.2,1.8-1.4,1.2-1.8,2.6
				C232.7,169.7,233.4,164.8,235.7,170.3z M210.5,130.2c0.3,1.5,0.8,3,1.4,4.5c-1.5-2.1-2.7-0.6-4.4-5.3
				C209.7,132.6,207.7,125.6,210.5,130.2z M264.8,207.7c0,3.5-2.1,3.7-3.4,5c1.3,2.6,2.9,5.1,3.3,7.8c-4-9.4-1.8-2.2-4.8-6.5
				c-1-4.5-0.4-4.6-3.8-12.4C262.5,213.8,260.9,203.2,264.8,207.7z M427.2,531.8c-1-1.8,0.8,5-1.4-0.2
				C425.6,529.9,425.5,526.4,427.2,531.8z M326.4,322.2c1.7,3.6,2.1,3.6,1.1-0.1c3.2,6.9,4.4,15.1,1.9,11.4
				C328.7,328.7,328.5,328.3,326.4,322.2z M216,131.8c-0.3,2.8-2.9,0.2-4.2,0.6c-0.2-1.2-0.5-2.3-0.7-3.4
				C213.6,131.8,213.7,129,216,131.8z M282.7,244.4c-1-0.3-2,2-4.6-4.2C280,242.9,279.5,236.5,282.7,244.4z M272,222.2
				c3,4.8,2.5,0.4,5.1,4.2c0.8,5.3-2.6,2.7-4.4-0.8C273.6,227,272.6,223.9,272,222.2z M217,129.3c0.4,1.9,2,3.6,2.5,5.5
				c-1.5-2.2-0.5,2-2.7-2C216.1,129.9,215.5,127.1,217,129.3z M222.7,132c1,4.6,0.1,4.2-1.4,2.6C221.6,133.3,220.9,129.5,222.7,132z
				 M266.6,207.6c-0.8-5.3,1.6,0.2,4.5,5.4c0.3,1.9,0.8,3.8,1.5,5.6c-0.4-0.7-0.8-1.4-1.3-2.2C269.6,210.9,268.2,209.1,266.6,207.6z
				 M214.1,116.8c1.8,1.2,1-4,4.6,1.7c-0.8,1.2,2.5,8.5,1.7,9.2c-2.2-2.2-4.1-10.3-4.5-8.8c0.7,2.7,2.3,5.2,2.4,7.9
				C216.4,123.5,215.4,120.1,214.1,116.8z M225.9,131.6c0.8,2.3,1.5,4.5,1.7,6.8c-2.7-5.3-1.4-0.3-3.6-4.2c-0.1-0.8-0.3-1.5-0.4-2.3
				C226.1,136.2,224.4,130.7,225.9,131.6z M274.7,209.1c-1.1-0.1,0.3,10.9-3.4,0.3C274.2,214.2,271.5,203.9,274.7,209.1z
				 M287.7,226.6c0.3,2.3,0.3,3.8-0.8,2.4C285.6,225.6,285.7,222.9,287.7,226.6z M283.3,214.2c-2.2-2.4-2.2,6.6-6.5-5.2
				C280.3,214.6,280.2,207.5,283.3,214.2z M300.9,241.8c0.9,4.1,0.1,3.3-0.8,2.4C298.7,240.6,299.4,239.5,300.9,241.8z M293.3,225
				c4.6,9.5,3,1.5,5.6,5.4c1.8,7.1-2.5,1.5-4,1.4C294.7,229.5,293.4,227.3,293.3,225z M292.1,220.4c3.4,6-1.7-8.6,1.5-3.6
				c0.3,4,0.4,2.8,1.8,8C294.9,225.2,293.8,226.8,292.1,220.4z M300,222.2c1,4.6,0.5,5-0.7,3.5C297.9,221.6,297.3,216.5,300,222.2z
				 M254.8,138.7c1.5,6.1-0.6,2.7-1.4,2.5C253.7,139.9,253.1,136.1,254.8,138.7z M252.7,134.3c0.8,3.5-1.2,2.6-2.7-2.1
				C251.7,134.9,249.9,128.4,252.7,134.3z M260.6,146.3c0.4,2.3,2.3,4.4,2.9,6.7c0.7,3.3,0.6,4.6-1.2,1.3
				C262.4,152.2,258.8,144.7,260.6,146.3z M251.8,122.6c0.6,1.8,1,5.7,3,10.3c-0.3-2.4,1.2,0.3,2.8,3.2c0,3.2,1.3,10.1-1.3,6
				C256,136.4,247.7,117.6,251.8,122.6z M314.4,241.1c1.4,5-0.6,3.3-1.8-1.1C313.6,241.7,312.3,236.4,314.4,241.1z M261.4,139.2
				c0.6,3.3,0.5,4.5-1.2,1.3C259.5,137.2,259.6,135.9,261.4,139.2z M303.3,216.2c0.6-1.1,1.9-2.9,4.3,3.2c-0.5-3.8,3,2.3,0.3-5.8
				c0.8,1.5,1.6,3,2.4,4.5c0.9,4.3-0.6,1.4,0.9,5.8c-2.2-2.8-2.8-2.8-0.5,4.7c-1.7-2.2-1.7-4.5-2.8-6.8c0.3,1.9,0.6,3.8,0.9,5.8
				C305.6,221,305.4,217.5,303.3,216.2z M313.1,222.6c3.4,6.7,2.6,11.8,0.2,6.9c-0.4-1.9-1.3-3.8-1.7-5.7
				C312.7,222.9,315.4,232,313.1,222.6z M312.7,214.5c2.4,4.1,2.8,8.4,3.6,12.6c-0.9-1.7,0,2-1.4-1.1
				C313.1,218.3,315,222.9,312.7,214.5z M326.6,240.6c0.1,2.2,0.4,4.9-1.5,1.2C324.4,237.7,325,237.6,326.6,240.6z M455.8,516.3
				c-0.3-2.3,0.1-4.5,1.5,1.4c-1.1-2.9-0.4,1.4,0.4,4.5C457,520.2,456.3,518.3,455.8,516.3z M331.8,221.9c3.3,6.7,2.9,15.4-0.1,5.8
				C333.6,230.6,331,222.8,331.8,221.9z M457.3,514.4c0.1-2.2,0.5-6.2,3,2.8c-1.8-3.6,1.1,5.8,1.6,9.2c-1.6-4.4-2.5-8.6-3.6-12.9
				C459.3,519.1,459,521,457.3,514.4z M461.2,514.1c-0.6-1.1-0.1,2.2-1.1-0.2C458.2,506.6,460.2,508.4,461.2,514.1z M302.1,129.1
				c0.1,2.8-0.6,2.9-2.3,0.1C298.9,124,300.5,126.6,302.1,129.1z M304,121.9c-2.2-9,1-0.3,1.9-0.1c-2.5-6-2.6-10.4-3.3-13.8
				c2.7,4.9,1.7,10,4.3,15c-0.3-1.9-1.1-3.8-1.1-5.8c0.3-0.1,3,3.8,3.5,6.8c-2.5-3.9-0.8,17.7-5.1,0.2c-1,0-1.4,5.3-3.9-2.1
				C299.5,117.7,301.7,116.1,304,121.9z M301.9,110.4c0.1,4.2-1.3,3.6-2.4,3.6C299.6,110.6,299.6,106.6,301.9,110.4z M465.6,497.2
				c1.3,3.1,0.2-7.1,2.3,1.6C467.1,498,467.8,506.1,465.6,497.2z M304.7,105.6c0.9,1.9,2.1,3.8,2.4,5.7c-2.2-3.5-2.4-2.3-1.1,3.5
				C303.4,108.4,304.5,107.8,304.7,105.6z M313,118.1c1.8,4.4,0.3-2.6,2.6,3.4C315.7,124,313.7,122.8,313,118.1z M303.5,92.8
				c1.3,2.3,2.2,4.6,2.5,6.9c-0.7-1.2-1.7-3.4-1.6-2.3c0,0.7,0.2,2.3-0.4,1.2C303.9,96.7,303.7,94.8,303.5,92.8z M471.8,496.3
				c0.3,1.9,0.8,3.9,0.9,5.8c-1.3-4.8-1-1.9-1.7-3.7C470.6,495,470.5,492.4,471.8,496.3z M320.6,115.4c0.5,2.3,1.8,2.5,2.1,3.4
				c-0.3-1.9-1.1-3.9-1.4-5.8c0.9-1,3.1,5.3,3.7,10.4c-1.5-1-2.3,0.5-4.3-2.2C320.8,118.6,320.2,115.5,320.6,115.4z M476.2,506.2
				c-0.5-1.6-1-3.2-1.5-4.8C473.9,496.1,476.1,502.8,476.2,506.2z M327.9,119.8c0.2-1.9,0.6-2.8,2.4,1.1c0.4,3.9-0.5,3.1-1.7,1.2
				C328.5,121.4,328.4,120.6,327.9,119.8z M478.2,488.8c0.7,1.8,0.7,0.6,1.6,3.7c0.1,1.4,1.8,8.4,0.8,5.8c-0.3-3-1.2-5.9-1.1-3.7
				c0.6,2.4,1.1,4.8,1.4,7.1c-0.7-2.4-0.2,1.6-1.3-2.6C479.6,495.9,478.2,492.1,478.2,488.8z M331.7,108.1c1.6,2.3,2.7-2.3,4.4,3.4
				c-1.1-1.7-1.1,1.2-1.8,1.2c1.1,2.5,1.1,1.3,2.1,3.5c-0.1,2.1-0.7,3.6,0.6,8.1C335,118.9,333.3,113.5,331.7,108.1z M480.9,489.5
				c0.3,2.7,1,5.5,1.2,8.1C481.1,494.2,479.5,485.8,480.9,489.5z M338.1,113.8c2.5,5,3.7,10,4.7,15.1c-0.7-1.6-1.1-2-1.5-2.3
				C340.7,122.3,338.1,118.1,338.1,113.8z M483.2,495.6c0.4,3.3,0.3,4.5-0.7,0.9C482.2,493.3,482.3,492.1,483.2,495.6z M340.2,110.3
				c-0.9,1.3-1.6,3.2-3.7,0c1-1.3,0.7-3.5,1.6-3.5c0.2,1.1,0.5,2.3,1.2,3.5C339.3,109,339.3,107.9,340.2,110.3z M343.3,114.9
				c0.2,1.9,1.3,3.9,1.7,5.8c0,5-1.5,4-3.6,1.2c-0.1-3.1-1.5-6.2-1.5-9.3C341.4,114.5,341.8,112.6,343.3,114.9z M485,488.2
				c0.2,3.4,0.5,6.9,1.3,10.4c-1-3.2-0.7,0.4-1.4-1.5c-0.7-7.5-1.3-4.7-1.8-9.4C484.6,492.4,484,486,485,488.2z M341.6,102.1
				c1,1.9,1.3,3.9,2.2,5.8c-0.1-1.2-0.5-2.3-0.7-3.5c1.7,2.7,1.8,5.4,1.9,8.1c-0.6-1.2-1.5-3.5-1.5-2.3c0.6,1.5,0.7,3.1,0.8,4.7
				c-0.5-1.2-1.1-2.3-1.6-3.5C342.5,106.3,342.7,107.8,341.6,102.1z M349,118.3c0-2.9,1.6,0.2,2.3,0
				C352,124.1,350.9,125.2,349,118.3z M351.8,109c0.5-0.9,0.5-3.7,1.8-1.2c0.8,5.6-0.9,1.3-1.3,2.3c0.4,1.2,1,2.3,1.1,3.5
				C352.7,112.1,352.2,110.6,351.8,109z M359.1,117.2c-1.4-2.5-1.1,1.9-2.9-2.4C356.1,111.7,357.9,111.5,359.1,117.2z M359.2,119.5
				c0.4,0.7,0.6,0.4,0.4-1.2c1.2,2.3,2,4.7,2.2,7c-0.7-1.4-0.8-0.1-1.4-1.2C360.3,122.6,359.4,121.1,359.2,119.5z M364.8,120.7
				c0.2,5.7-1.2,5.1-3.1,2.3C361.7,117.9,364.1,123,364.8,120.7z M362.4,107.9c1.5,8.2-0.2,7.1-1.6,5.8
				C360.5,108.5,360.7,104.8,362.4,107.9z M371.7,123.2c0.7,2,1,3.9,2,5.9c0,4.4-0.4,6.7-2.7,1.1
				C372.2,129.6,372.5,126.3,371.7,123.2z M381.4,106c0.2,3.3,0.8,0.4,1.9,4.7c0.4,3.7-2-0.1-2.4-3.6
				C381.9,109,380.6,104.5,381.4,106z M474.3,97.3c0.8,1.9,1.3,0.6,2.4,5c-0.3,5.4-1.2,6-2,6.8c-0.4-1.2-0.7-2.5-1.1-3.7
				C474.6,102.9,474.5,104,474.3,97.3z M482.5,104.4c-1.6-5.9-1.9,4-2.7-6.3C480.7,101,482.1,98,482.5,104.4z M569.4,467.4
				c-1.1,8.1,1.2,2.8,0,14.4c-0.4-5.4-0.3-5.7-0.8-6.4C568.7,472,568.9,463.5,569.4,467.4z M568.2,481.2c-0.2-1.3-0.3-3.8-0.5-2.6
				c-0.2,2.5,0.1,11.1-0.4,9.4c-0.1-2.8,0.2-5.5-0.2-8.5c0.6-0.9,0.5-11,1.2-11.4C568.5,472.5,568.7,477,568.2,481.2z M504,96
				c0.4-3.3,1.3-1.5,2-0.8c0.3,4.1-0.8,2.8-1,8.1C504,100.7,504.6,98.5,504,96z M571.3,467c0.3,4.2,0.1,8,0.2,12.1
				c-0.3-2.6-0.7,4.7-1-0.4C570.9,472.7,570.9,473.5,571.3,467z M509.1,100.4c-1.3-2.5-0.4,5.6-1.7,2.1
				C507,99.7,508.8,92.4,509.1,100.4z M571.6,468.4c0.3-2.7,0.5-2.6,0.7,0.3c-0.2,2.9-0.3,5-0.5,4.6
				C572,471.8,571.8,470.1,571.6,468.4z M575.8,77.9c-0.8-4-1.8,3.5-2.6,0.5C574,72.2,576,71.7,575.8,77.9z M579.6,76.5
				c-1.2-0.7-2.4,2-3.5-2.1C577.4,69.8,578.6,69.9,579.6,76.5z M581.4,70.9c-0.3,1.5-0.7,3-1,4.6c-0.2-1.3-0.4-2.5-0.6-3.8
				C580.3,66.9,580.8,70.1,581.4,70.9z M634.8,278.1c0.1,4.2-0.7,8-1.7,11.8c-1.1,2.8-2.3,2.1-4.1,6.9c0-1.7-0.2-3.4,0.2-4.9
				C630.7,286.2,633,281.5,634.8,278.1z M639.5,279c0,2.5-0.1,5-0.5,7.3c-1.3,0.8-2.9,4.5-3.9,3.2C636.7,285.2,638,283.3,639.5,279z
				 M625.5,56.8c-0.5,4.7-2.6,9.1-3.4,6.3C623.6,57,624.5,58,625.5,56.8z M646.2,269.3c-2.3,5.8-3.9,7.8-5.8,17.5
				c0-1.7-0.1-3.4-0.1-5.1C641.6,279.6,644.7,264.2,646.2,269.3z M645.7,23.9c0.6-2,1.2-3.2,1.6-3.2c0.7,6-1.9,10.9-0.7,17
				c-1,0.7-2.4,6.1-2.8,0.4C645.4,38.7,646.6,30.7,645.7,23.9z M658.4,277.8c0,3.4-1,6.3-1.4,9.5c-0.1-2-1,0.9-0.6-4.1
				C657.1,280.5,657.3,282.1,658.4,277.8z M665,178.1c0.4,1.6,1.9-6.6,2.6-9c0.5,2.7-0.5,4.8-0.6,7.3c0.3-0.6,0.5-0.2,0.4,1.5
				c-1.2,0.9-1.9-0.5-2.6,7.7C664.3,185.5,664.5,181.2,665,178.1z M671.6,61.4c-0.1-3.7-1.6,3.3-1.5-1.8
				C671.2,54.5,672.5,57,671.6,61.4z M678.1,63.9c-1.7,3.4-3.3,6.5-4,2.2C675.3,66.1,677.5,59.5,678.1,63.9z M682.4,68.1
				c-1,2.1-1.9,4.3-1.8-0.7C681.6,64.7,682.2,65,682.4,68.1z M685.4,44.2c0.1,4,0.3,4.1,1,0.4c0.5,4.3-2.3,8.5-2.1,4.2
				C684.8,47.3,685.1,45.7,685.4,44.2z M719.1,102.8c-0.9,4.3-2.5,6.7-3.1,6.2C716.6,105.9,719.1,99.1,719.1,102.8z"/>
			<path class="st2" d="M180.1,126.9c0.7,2.2,1.1,0.9,1.7,3.3c-2.1-11.1,4-3.4,4.3-9c-3.9-3.7-5.7-2.4-7.5-1.1
				c0.4,1.5,1.5,2.9,2.4,4.3C180.5,124.9,181.1,127.8,180.1,126.9z"/>
			<path class="st2" d="M256.4,535.9c2.2,2.5-0.3-2.3,0.3-2.3C255.9,533.2,254.3,531.6,256.4,535.9z"/>
			<path class="st2" d="M269.6,506.4c0.6,1.8,1.7,3.5,2.5,5.3c0.9,1.1-0.5-1.8-1-3.2c0.8,1.4,1.7,2.7,2.7,4.1
				C271.9,508.5,271.3,508.4,269.6,506.4z"/>
			<path class="st2" d="M152.7,360.5c0,1.4,1.6,0.4,4.9,5.9c-1.1-2.5-2.8-4.8-4.2-7.2C150.6,356.2,155.5,363.4,152.7,360.5z"/>
			<path class="st2" d="M202.3,419.1c0.8,2.1,2.1,4.2,3.7,6.2c-1.6-2.7-1.8-3.8-1-3.3C203.7,419.2,203.4,420.6,202.3,419.1z"/>
			<path class="st2" d="M185.2,394.9c-1.1-1.7-1.8-3.5-3.3-5.1c0.8,2.2,1.8,4.3,3,6.3c1.5,1.7-0.9-2.9,1.1-0.3
				C185.4,394.5,185,394.4,185.2,394.9z"/>
			<path class="st2" d="M295,536.5c3.2,4.7-1.1-2.7-1.8-4.3c-1-2.5,1.9,3.2,3,4.1c-2.7-6.3-1-4.9,1.2-2.4c-1-2.1-2.2-4.2-3.2-6.3
				c1.2,3.4,0.4,4.6-2.6,1.5C293.9,533.9,292.9,532.9,295,536.5z"/>
			<path class="st2" d="M168.5,370.7c1.4-2.1,3.8-0.9,2.2-7.7c-1.5-1.9-1.3-0.7-2.4-3c-2-1.7,0.5,1.7,0.5,3.4
				c-3-5.3-3.4-0.3-5.2-4.6C160.9,355.1,165.7,365.5,168.5,370.7z"/>
			<path class="st2" d="M322.2,570.2c2.7,4,4,3.3,3.6,0.8C324.7,571,323.3,570.2,322.2,570.2z"/>
			<path class="st2" d="M35.2,208.4c2.4,3.7,0.4,2,2.6,6.5c2.7,1.6,0.3-2,0-3.7C36.8,209.2,36.8,210.4,35.2,208.4z"/>
			<path class="st2" d="M173.3,369.5c0-1.3,2.2,1.1,0.2-3.6C170,361.3,173.4,368.3,173.3,369.5z"/>
			<path class="st2" d="M289.3,514.8c0.5,1.8,2,3.5,2.8,5.3c1.4,1.8,0.3-0.8,0.5-1.2C291.1,515.7,292.7,520.5,289.3,514.8z"/>
			<path class="st2" d="M90.9,255.5c-0.4-1.1-1.3-2-2.1-3c-1.3-3,0.6-0.6-1.2-4.5c-1.7-1.2-3.8-2.9-1.3,2.8
				C88.5,252.8,87.2,250,90.9,255.5z"/>
			<path class="st2" d="M149.5,309.1c-0.6-3.1,2.2,2,3.2,1.6c-2.4-5-2.5-5-4-8.5C149.4,305.2,147.4,305.1,149.5,309.1z"/>
			<path class="st2" d="M315.1,528.7c-2.3-3.9-0.2-1.9-2.8-6.4c-2-3.1,1,3.4-1.6-1c2.5,4.4,2.8,6.6,6.7,12.8c-0.7-2.2-1-3.6,0.1-2.2
				C316.4,529,316.2,530.2,315.1,528.7z"/>
			<path class="st2" d="M320.1,532.7c2.5,3.4-1-4.7,3.2,2c-1.6-4.1-1.9-2.8-2.9-5.3C320.3,530.6,319.4,530,320.1,532.7z"/>
			<path class="st2" d="M320.4,527.1c-1.2-1.8-2-3.5-3.2-5.3c0.6,2.9-0.7,2.1-3.1-0.8c4.8,8.9,2.5,1.6,7.2,9.4c-2.4-5.5,0-2.1,2.6,2
				c0-1.7-1.3-4.3-2.2-7.6c-0.8-1-1.2-1-2-2c0.5,1.8,1.9,3.6,2.6,5.3c0.2,0.7-0.3,0,0.1,1.1c-1.3-2.1-1.9-4.3-3.6-6.4
				C318.6,523.1,319,524.3,320.4,527.1z"/>
			<path class="st2" d="M45.7,136.5c0.6,1.4,1,1.6,0.8,1c1.2,1.3,2.3,2.5,2.9,4c1,1-0.2-2-0.6-3.5C47.2,136.6,46.8,137.2,45.7,136.5
				z"/>
			<path class="st2" d="M84,158.2c1.1,2.8,7.5,7.3,5.3,1c-0.9-0.8-0.2,3.4-2.5-1.8C84.5,155.2,88,163.4,84,158.2z"/>
			<path class="st2" d="M104.3,171c2,1.7,6.6,9.4,5,3.5c-4.8-8.3-3.2-0.7-8-10C101.4,166.9,104.1,168.6,104.3,171z"/>
			<path class="st2" d="M227.9,320.9c1.8,4.4,1.6,1.5,2.6,3.1c-0.4-1.7-2.1-4.7-1-3.3c-0.1-0.7-0.6-1.5-1.1-2.2
				c-0.5-0.7-1-1.4-1.4-2.1c1,1.5,3,8.1,1,3.3C226.9,318.5,229.2,322.6,227.9,320.9z"/>
			<path class="st2" d="M134.7,174.3c2,4,3.3,2.3,4.9,3.7c3,6.4,7.1,10.5,8.7,12.3c-3.1-6-6.8-12-10.4-17.9
				c5.4,10.8-2.2-1.3-3.5-0.4C135.8,174.7,136.1,175.8,134.7,174.3z"/>
			<path class="st2" d="M152.3,193c2.5,4.3,3.7,1.9,5.7,3.5c-1.3-4.1-2.5-1.5-4.1-6.3C154.2,191.7,155,196.1,152.3,193z"/>
			<path class="st2" d="M141.4,176.3c0.5,3,2,3.8,1.5,2c1.3,1.7,2.2,3.5,2.9,5.3c0.9,0.9,0.6-0.4,1.7,0.8c-1.3-1.7-5.2-8.8-1-3.4
				c-0.7-1.9-2.2-3.5-3.4-5.2C143.9,178.7,143.3,178.8,141.4,176.3z"/>
			<path class="st2" d="M155.5,179.2c-0.9-0.9-0.6,0.4-1.6-0.8c0.4,2.7,2.7,5,3.1,7.7C157.4,185.5,156.1,182.8,155.5,179.2z"/>
			<path class="st2" d="M142.3,129.6c1.8,4,0.3,1.4,1.2,4.5c2.1,2.3,1.9,5.2,4.3,7.4c-0.3-1.1-0.6-2.3-0.9-3.4
				c-1.8-2.8-3.7-5.8-1.6-4.4C144.4,130.6,144.4,133.5,142.3,129.6z"/>
			<path class="st2" d="M194.9,202.4c-1.2-1.2,1.2,2.9,0.7,1.1c1.2,2.2,2,4.4,2.6,6.6c1.3,1.2-1.4-6.7-3.2-8.9
				C195.5,202.6,195.4,202.9,194.9,202.4z"/>
			<path class="st2" d="M279.5,334.8c0.7,1,0.1-0.5-0.3-1.1c-1-3.7,3.6,5.6,1.2-1.3c-3-5.5-1.9-1.2-2.8-2
				C278.1,331.9,279.1,333.3,279.5,334.8z"/>
			<path class="st2" d="M163.7,116.9c-3-4.3-3.8-3.9-3.8-1.6c3.9,5.9,4.1,3.8,7.3,8.1c-3-7.8,0.5-3.9,0.3-7.2
				C167.4,116.6,161.2,110.7,163.7,116.9z"/>
			<path class="st2" d="M170.2,124c1.6,0.6,0.4-5.1,3.7-0.7c-5.3-12.4,4.9,2.1,3.9-4.2c-0.8-1.8-2.1-3.6-2.7-5.5
				c-0.6,1.2,0.9,7-3.6-0.5c0.4,4.5-2.5,1.7-4,1.9c0.6,1.9,2,3.6,3.2,5.3C171.1,122.5,168.6,118.7,170.2,124z"/>
			<path class="st2" d="M156.2,99.3c5.6,11.5,10.5,9.5,9.3,4.1C163,103.1,162.2,108.9,156.2,99.3z"/>
			<path class="st2" d="M179.4,108.1c1.5,1.2,2.7,1.6,3.8,1.7C181.3,105.3,179.7,106.8,179.4,108.1z"/>
			<path class="st2" d="M194,110.3c3.3,4.2,7,3.9,8.7,2.2c-3.6-6.1-1.6,1.2-5.1-6.3c3.2,8.1-2.5-1-1,4.9c-2.2-2.9-2.6-8-3.9-7.6
				C195.5,109.2,195.4,110.6,194,110.3z"/>
			<path class="st2" d="M188.9,99.4c2.6,6.1,2.4,0.6,3.8,1.7c-1.2-4.3-1.5-1.2-3.5-5.4C190.3,100.5,191,101.7,188.9,99.4z"/>
			<path class="st2" d="M203.2,112.5c3.1,3.2,5,3.8,6.3,2.6C203.1,101.5,203.8,110,203.2,112.5z"/>
			<path class="st2" d="M232,117.9c1.1,0.9,1.2-0.5,2.1-1.4c-0.7-1.1-1.3-2.2-2-3.3C233.6,118.6,231.1,113.7,232,117.9z"/>
			<path class="st2" d="M239.1,99.4l1.1,6.9c1.8,1.6-1.5-7.5,1.3-3.7C240.9,99.6,240,101,239.1,99.4z"/>
			<path class="st2" d="M254.5,102.4c4.2,10.6-0.6-5.9,4.6,5.4c-0.5-1.5-0.9-3-1.1-4.6C255.1,98.2,255.8,103.1,254.5,102.4z"/>
			<path class="st2" d="M275.8,97c-1.1-1.3,0.9,3,0.6,1.1c1.3,2.7,1.6,5.3,2.4,8c0.9,0.4,0-5,2.4-0.2c-2.7-11.3,0.9-4.3,1.7-6
				c0.3-2.4-2.1-4.5-1.7-6.9c-0.3,3.2-3.3-1.5-2.9,3.7c-1.1-1.9-1.5-3.8-2.6-5.7C276.8,94.8,276.5,97,275.8,97z"/>
			<path class="st2" d="M315.4,98.1c2.7,5.1,0.7-6.5,3.8-0.2c-0.3-1.9-1.5-3.8-2.3-5.7C317.8,99.3,314.4,91,315.4,98.1z"/>
			<path class="st2" d="M338,89.3c1.2,4.4,4.2,4.7,3.4,1.1C340.2,89.7,339.8,92.3,338,89.3z"/>
			<path class="st2" d="M367.2,112.6c-0.4-3.1-1.2-6.2-1.7-9.4c-1-1.5-1.2,0-1.3,2.3c1.4,4,0.9-0.1,1.4,0
				C366.6,108,364.7,108.1,367.2,112.6z"/>
			<path class="st2" d="M450.8,83.9c0.7,6.4,1.9,1.8,3,5c0.1-0.8-0.1-1.6-0.3-2.4c-0.3-0.8-0.5-1.6-0.8-2.4
				C452.6,87.6,451.4,83.6,450.8,83.9z"/>
			<path class="st2" d="M551.2,517c0.7,1.2,1.2-0.4,2,2.1c0-7,1-3.3,1.5-2.8c0-1.2-0.1-2.4,0-3.5c-0.1-0.9-0.1-1.6-0.1-2.4
				C553.5,515,552.2,511.9,551.2,517z"/>
			<path class="st2" d="M586.8,37.3c1.4-2.9-0.1-6.5,1.3-9.4c-0.2-0.8-0.5-0.1-0.7-1.4c-0.2,0.8-0.4,1.5-0.6,2.3
				C588,32,585.6,34.2,586.8,37.3z"/>
			<path class="st2" d="M597.5,46.2c1.1,7.2,0.2-9.3,1.5-5.7c0.6-4.2-0.9-4.6-1.5-0.4C598,42.3,598,44.3,597.5,46.2z"/>
		</g>
	</g>
</g>
<g>
	<path class="st3" d="M604.7,501.8V227.7c-4.3-44.7-8.7-89.4-9.3-134.3c-2.7-2.3-5.8-4.1-9.2-5.3c-101.6,0.3-203.2,2.1-304.8,2.1
		c-1.5,0.8-2.9,1.8-4.1,2.9c0.1,24.7,0.2,49.3,0.4,74c1.1,121.5,3.4,243.1,3.7,364.6c3.9,2.2,8.4,3.5,13.2,3.5h283.1
		c6.7,0,12.9-2.5,17.7-6.7C599.3,519.9,602.4,510.9,604.7,501.8z"/>
	<g>
		<g>
			<g>
				<path d="M267.6,90.9c91.6-1.4,183.2-0.6,274.8,2.5c25.9,0.9,51.7,2,77.6,3.2c5.3,0.3,5.3-8,0-8.3c-91.5-4.4-183.1-6.6-274.7-6.4
					c-25.9,0-51.8,0.3-77.7,0.7C262.3,82.7,262.3,91,267.6,90.9L267.6,90.9z"/>
			</g>
		</g>
		<g>
			<g>
				<path d="M606.9,107.7c-3.3,106.5-6.7,213-10,319.5c-0.9,30-1.9,59.9-2.8,89.9c-0.2,5.3,8.1,5.3,8.3,0
					c3.3-106.5,6.7-213,10-319.5c0.9-30,1.9-59.9,2.8-89.9C615.4,102.4,607.1,102.4,606.9,107.7L606.9,107.7z"/>
			</g>
		</g>
		<g>
			<g>
				<path d="M267.6,111.2c-4.7,109-7.3,218.2-7.8,327.3c-0.1,30.8-0.1,61.7,0.1,92.5c0,5.3,8.3,5.3,8.3,0
					c-0.7-109.1,0.7-218.3,4.2-327.3c1-30.8,2.2-61.7,3.5-92.5C276,105.9,267.8,105.9,267.6,111.2L267.6,111.2z"/>
			</g>
		</g>
		<g>
			<g>
				<path d="M289.4,534.6c84.2,0.5,168.4,1.1,252.5,1.6c23.9,0.2,47.7,0.3,71.6,0.5c5.3,0,5.3-8.2,0-8.3
					c-84.2-0.5-168.4-1.1-252.5-1.6c-23.9-0.2-47.7-0.3-71.6-0.5C284.1,526.3,284.1,534.6,289.4,534.6L289.4,534.6z"/>
			</g>
		</g>
	</g>
</g>
<g>
	<g>
		<path d="M380.5,314.8c23.8-0.7,48.8-8.1,67.8-22.9c13.8-10.7,28.3-32.1,16.7-49.3c-6-8.8-17-13.3-26.9-16.2
			c-10.4-3.1-22-3.7-31.8,1.6c-7.8,4.2-14.2,12.3-13.8,21.5c0.3,8,5.6,16.3,13.6,18.5c9.6,2.7,20-4.5,28.6-8.2
			c7.6-3.3,16.5-7,21-14.3c4.1-6.6,3.1-14.9-2.1-20.6c-6.1-6.7-15.6-9.6-24.1-11.7c-10.8-2.7-23-4.6-32.4,2.8
			c-6.4,5-9.9,14.3-4.5,21.3c4.1,5.4,12.8,8.3,18.2,3c6.3-6,3.2-16.5-3.4-20.8c-8.9-5.9-21.4-3.8-30.2,1.2
			c-9.4,5.4-16.7,15-18.6,25.8c-0.9,5-0.9,10.6,2.3,14.9c3.3,4.4,9.1,6.5,14,8.5c13.7,5.5,28.3,8.1,43,7.9c1.8,0,3.3-2.1,2.2-3.8
			c-14.9-21.7-41.4-33.9-67.6-30.6c-2.2,0.3-3.8,3.5-1.3,4.7c31.7,15.3,67.6,20.5,102.3,14.5c5.1-0.9,11.5-2.9,13.5-8.5
			c0.7-2,0.4-4.1-1-5.7c-2.2-2.4-4.8-0.9-7.4,0.2c-13.4,5.4-24.4,16-30.4,29.2c-0.8,1.8,0.2,3.6,2.2,3.8
			c18.8,1.6,37.2-7.6,47.4-23.4c1-1.6-0.3-3.8-2.2-3.8c-21.5,0-42.1,9.7-55.7,26.3c1.4,0.4,2.8,0.7,4.2,1.1
			c-3.4-10.3-13.1-15.1-23.5-15.6c-12.5-0.6-24.3,5-32.9,13.8c-8.7,9-14.1,22.4-9.3,34.6c4.6,11.5,16.6,19.8,29.1,16.6
			c1.1-0.3,1.7-1.3,1.8-2.4c1.3-13.6-11.9-25.2-25.1-24.7c-6,0.2-14.8,3.7-14.8,10.9c0.1,7.3,9,10.8,14.9,12.1
			c21.7,5,44.7,5,66.5,0.5c6.4-1.3,15.2-4.4,13.8-12.7c-1.1-6.5-8.4-10.8-14.6-9.9c-8.2,1.1-13.7,8.6-18.1,14.9
			c-4.5,6.6-9.4,15.8-4.7,23.5c4.2,7.1,14.5,9.8,22.1,10.8c9,1.2,18.3,0,26.7-3.5c6.6-2.8,12.8-6.9,14.2-14.4
			c1.2-6.4-3.5-10.9-9.9-8.9c-10.4,3.3-35.2,23.2-18.4,33.1c3.2,1.9,7,2.7,10.7,3.2c6.1,0.9,12.3,1.6,18.5,1.3
			c9.3-0.5,18.6-3.8,24.4-11.5c5-6.6,6.2-15.6,0.7-22.4c-4.8-5.9-13-8.6-19.7-4.5c-2,1.2-1.3,4.8,1.3,4.7
			c27.7-1.9,53.4-19.7,64.7-45.2c2.2-5.1,5.8-12.5,2.1-17.6c-3.6-5.1-12.2-4.8-17.7-4.2c-13.8,1.3-26.2,8.8-33.9,20.2
			c-0.7,1-0.3,2.9,0.9,3.4c8,3.5,18.1,0.9,22.2-7.2c4.1-8,0.2-18-7.5-22.1c0,1.4,0,2.9,0,4.3c17.1-10.9,23.1-34.3,13.4-52.1
			c-0.5,1.2-1,2.4-1.5,3.7c8.9-3.4,7.1-14.8,0.9-20.1c-10.3-8.9-23.6,3-30.6,10.4c-1.8,1.9,0.1,4.6,2.4,4.2
			c10.6-1.7,20.5-6.8,28-14.5c4.8-4.9,15.8-18.1,7.1-24c-4.1-2.8-10.2-2.3-14.9-2.3c-6.8-0.1-13.7,0.4-20.4,1.3
			c-13.7,1.8-27,5.5-39.7,10.9c1.1,0.3,2.3,0.6,3.4,0.9c-11.7-22.1-41.4-28.3-60.6-11.9c-8.2,7-15.6,19.5-13.6,30.7
			c1,5.8,5.6,8.7,10.8,10.8c6.8,2.7,14,4.4,21.2,5.3c16.6,2,33.4-0.9,48.5-8c-1.1-1.1-2.3-2.3-3.4-3.4c-3.1,4.9-2.1,11.1,1.7,15.4
			c4.4,5,11.2,6.3,17.5,7.1c18.6,2.4,37.3,4.5,56,6.7c-0.7-1.3-1.4-2.5-2.2-3.8c-18.6,24.1-48.1,36.6-67.5,60
			c-8.4,10.2-18.4,25.9-12.8,39.5c5.9,14.5,25,21.2,37.9,27.5c20.6,10,41.6,19.1,63,27.3c-0.4-1.4-0.7-2.8-1.1-4.2
			c-16.4,15.8-37.9,25-60.6,26c0.8,0.6,1.6,1.2,2.4,1.8c-12.4-35.8-34.4-70.6-70.2-86.6c-16.7-7.4-35.5-10.6-53.6-6.9
			c-6.5,1.3-14.3,4.1-16.4,11.1c-2.1,7.1,3,13.3,8.4,17.2c9.4,7,20.9,11.5,31.2,17.1c4.9,2.7,10.8,5.9,13,11.5
			c1.8,4.6-0.3,11.9-6.2,11.8c-1.8-0.1-3.2,2.2-2.2,3.8c6.7,10,17,16.9,28.9,18.9c3.1,0.5,4.5-4.3,1.3-4.8
			c-10.7-1.8-19.9-7.6-25.9-16.6c-0.7,1.3-1.4,2.5-2.2,3.8c6,0.2,10.2-4.4,11.5-10c1.6-7-2.3-13.1-7.6-17.3
			c-7.3-5.9-16.6-9.7-24.8-14.1c-6.3-3.4-21.3-8.9-20.9-18c0.4-9.6,17-10.5,23.7-10.8c9.4-0.5,18.8,0.8,27.8,3.5
			c18.7,5.5,35,16.8,47.9,31.2c14.5,16.3,24.5,36.1,31.6,56.6c0.3,1,1.3,1.9,2.4,1.8c24-1,46.8-10.8,64.2-27.5
			c1.5-1.4,0.6-3.5-1.1-4.2c-18-6.9-35.7-14.4-53.1-22.6c-8.6-4.1-17.1-8.2-25.5-12.7c-6.3-3.3-13.1-7.1-17.1-13.1
			c-9.1-13.5,4.2-31.7,13.4-41.6c9.4-10.1,20.7-18.3,31.8-26.6c12-9.1,23.7-18.4,33-30.4c1.3-1.7-0.5-3.6-2.2-3.8
			c-13.6-1.6-27.2-3.2-40.8-4.9c-6.4-0.8-13.1-1.1-19.4-2.5c-6.1-1.3-15.5-6.7-10.7-14.2c1.4-2.3-1.3-4.4-3.4-3.4
			c-13.8,6.5-29.1,9.1-44.3,7.5c-7.3-0.8-14.8-2.5-21.6-5.3c-4.7-1.9-7.5-4.3-7.4-9.7c0.1-3.5,1.2-7.3,2.6-10.5
			c5.2-11.7,16.9-20.5,29.8-21c13.5-0.6,26.3,7.2,32.6,19c0.7,1.3,2.2,1.4,3.4,0.9c19.6-8.3,40.9-12.3,62.2-11.4
			c1.9,0.1,4.9-0.2,6.5,0.9c2.7,1.8,0.8,6.2-0.6,8.6c-2.2,3.8-5.1,7.3-8.4,10.3c-6.6,6.1-14.9,9.8-23.7,11.2
			c0.8,1.4,1.6,2.8,2.4,4.2c4.9-5.2,13-14,21.2-11.6c4.2,1.2,9.9,10.6,3.7,13c-1.5,0.6-2.3,2.1-1.5,3.7c8.3,15.3,3.1,35.8-11.6,45.2
			c-1.5,1-1.7,3.4,0,4.3c5.3,2.8,8.3,9.5,5.7,15.3c-2.6,5.6-9.9,7.8-15.4,5.4c0.3,1.1,0.6,2.3,0.9,3.4c6.7-9.9,17.7-16.6,29.6-17.8
			c2.8-0.3,5.6-0.3,8.4,0.1c1.5,0.2,3.8,0.5,4.9,1.7c1.9,2,0.5,5.7-0.3,7.9c-1.7,5.2-4.2,10.2-7.2,14.8
			c-12,18.6-32.8,31.1-54.9,32.7c0.4,1.6,0.8,3.1,1.3,4.7c5-3.1,11-0.4,14,4.2c3.6,5.3,1.6,11.9-2.4,16.4
			c-8.7,9.9-22.8,9.1-34.6,7.6c-4.4-0.5-10.8-1-13.8-4.7c-4.4-5.4,6.3-14.1,10.2-17.1c3-2.2,15.2-9.8,12.4-0.9
			c-1.8,5.8-7.9,8.6-13.2,10.5c-11.1,4-25.5,4.1-35.9-2.1c-12.7-7.6,0.1-25.1,8.1-31.7c4.2-3.5,12.2-5.3,15.1,1.1
			c3.6,7.7-11.8,9-16.1,9.7c-13.6,2.2-27.7,2.5-41.4,1c-7.1-0.8-15.9-1.3-22.4-4.8c-4.2-2.3-6.9-5.8-1.4-9.3
			c2.2-1.4,4.9-1.8,7.5-1.8c10.3,0.2,20,9.2,19,19.7c0.6-0.8,1.2-1.6,1.8-2.4c-10.8,2.8-21.2-5.8-23.9-16.1
			c-2.9-10.8,3.3-21.8,11.1-28.9c7-6.4,15.9-10.3,25.4-10.4c8.5,0,17.6,3.2,20.5,12c0.5,1.6,2.9,2.7,4.2,1.1
			c12.8-15.7,31.9-24.9,52.2-24.9c-0.7-1.3-1.4-2.5-2.2-3.8c-9.3,14.4-26,22.4-43.1,20.9c0.7,1.3,1.4,2.5,2.2,3.8
			c6.1-13.5,17.4-23.8,31.5-28.4c-0.8-0.2-1.6-0.4-2.4-0.6c3.8,3.2-8.1,6.3-9.4,6.5c-4.9,0.9-9.9,1.5-14.9,1.8
			c-9.3,0.7-18.6,0.6-27.9-0.3c-19.3-1.8-38.2-7.2-55.6-15.6c-0.4,1.6-0.8,3.1-1.3,4.7c24.4-3.1,49.3,7.8,63.3,28.1
			c0.7-1.3,1.4-2.5,2.2-3.8c-9.4,0.1-18.8-0.9-28-3.2c-4.1-1-8.1-2.3-12-3.8c-4.4-1.7-11.1-3.8-13.6-8.2c-3.9-6.7,0.5-17,4.5-22.6
			c4.5-6.3,11.2-11.2,18.7-13.1c7.4-1.9,19.5-1.2,21.5,8c2.2,10.5-11.7,9.9-13.9,1.5c-2.6-9.8,9.9-15.5,17.5-15.7
			c8-0.3,16.7,2.2,24.3,4.8c6.2,2.2,14,5.9,15.9,12.9c1.9,6.8-2.7,12.2-8.1,15.7c-5.4,3.5-11.5,5.9-17.4,8.4
			c-7.4,3.2-16.7,9.5-24.2,3.5c-5.8-4.7-7.2-13.2-3.7-19.7c3.8-7.1,11.7-11.2,19.5-12.1c9.8-1.1,19.8,2,28.6,6
			c7.2,3.4,14.2,8.4,16.1,16.6c3.9,17.5-13.1,33.5-26.5,41.5c-17.2,10.3-36.7,15.8-56.7,16.4C377.3,309.9,377.3,314.9,380.5,314.8
			L380.5,314.8z"/>
	</g>
</g>
<g>
	<g>
		<path d="M451.7,406c-13.4,2.6-27.9-3.2-39.9,5.4c-7.5,5.4-9.8,15.6-3.4,22.8c6.4,7.2,17.9,9.3,27.1,8.4c9.3-0.9,20.8-6,19.2-17.3
			c-2.2-15.1-19.6-16.4-31.6-15.7c-3.2,0.2-3.2,5.2,0,5c6.5-0.4,14-1,19.9,2.4c4.8,2.7,9,9.2,5.5,14.6c-5.3,8.3-20.5,7.2-28.5,4.3
			c-4.1-1.5-8.7-4.2-10.1-8.6c-1.8-5.5,2-10.3,6.5-12.9c10.9-6.2,24.6-1.2,36.5-3.5C456.2,410.2,454.9,405.4,451.7,406L451.7,406z"
			/>
	</g>
</g>
<g>
	<g>
		<path d="M424.9,440.9c0.3,13.7,0.7,27.4,1,41.1c0.1,2.2,2.7,3.2,4.3,1.8c11.5-10.6,24.3-19.5,38.2-26.6c-1.1-0.3-2.3-0.6-3.4-0.9
			c2.5,6,3.3,12.3,2.3,18.7c-0.5,3.1,4.3,4.5,4.8,1.3c1.2-7.9,0.3-15.2-2.8-22.6c-0.6-1.3-2.3-1.4-3.4-0.9
			c-14.3,7.3-27.5,16.5-39.2,27.4c1.4,0.6,2.8,1.2,4.3,1.8c-0.3-13.7-0.7-27.4-1-41.1C429.8,437.7,424.8,437.7,424.9,440.9
			L424.9,440.9z"/>
	</g>
</g>
<g>
	<g>
		<path d="M417.4,455.1c12.1,16.1,33.5,23.2,52.8,17c3.1-1,1.7-5.8-1.3-4.8c-17,5.4-36.3-0.4-47.1-14.7
			C419.8,450,415.5,452.5,417.4,455.1L417.4,455.1z"/>
	</g>
</g>
<g>
	<g>
		<path d="M435.9,451.2c12.4-2.9,25.4,0,35.3,8c2.5,2,6-1.5,3.5-3.5c-11.3-9.2-25.9-12.7-40.2-9.3
			C431.4,447.2,432.8,452,435.9,451.2L435.9,451.2z"/>
	</g>
</g>
</svg>
